M48
; DRILL file {KiCad 7.0.11+dfsg-1build4} date Wed Oct  7 18:56:29 2026
; FORMAT={-:-/ absolute / metric / decimal}
; #@! TF.CreationDate,2026-10-07T18:56:29+00:00
; #@! TF.GenerationSoftware,Kicad,Pcbnew,7.0.11+dfsg-1build4
; #@! TF.FileFunction,Plated,1,2,PTH
FMAT,2
METRIC
; #@! TA.AperFunction,Plated,PTH,ViaDrill
T1C0.400
; #@! TA.AperFunction,Plated,PTH,ComponentDrill
T2C0.800
; #@! TA.AperFunction,Plated,PTH,ComponentDrill
T3C0.900
; #@! TA.AperFunction,Plated,PTH,ComponentDrill
T4C0.950
; #@! TA.AperFunction,Plated,PTH,ComponentDrill
T5C1.000
%
G90
G05
T1
X132.261Y-66.94
X133.146Y-47.365
X148.692Y-84.058
X150.313Y-66.39
X178.882Y-70.177
X180.977Y-63.99
X181.01Y-50.95
X191.993Y-94.202
X199.261Y-59.478
T2
X173.0Y-85.5
X175.5Y-85.5
X178.0Y-92.5
X181.0Y-85.5
X182.0Y-70.5
X182.0Y-77.5
X185.62Y-92.5
X186.0Y-85.5
X187.0Y-70.5
X189.62Y-77.5
T3
X172.0Y-92.5
X174.54Y-92.5
T4
X124.0Y-59.0
X124.0Y-68.5
X124.0Y-78.0
X124.0Y-87.5
X126.5Y-59.0
X126.5Y-68.5
X126.5Y-78.0
X126.5Y-87.5
X129.0Y-59.0
X129.0Y-68.5
X129.0Y-78.0
X129.0Y-87.5
X131.5Y-59.0
X131.5Y-68.5
X131.5Y-78.0
X131.5Y-87.5
X142.0Y-59.0
X142.0Y-68.5
X142.0Y-78.0
X142.0Y-87.5
X144.5Y-59.0
X144.5Y-68.5
X144.5Y-78.0
X144.5Y-87.5
X147.0Y-59.0
X147.0Y-68.5
X147.0Y-78.0
X147.0Y-87.5
X149.5Y-59.0
X149.5Y-68.5
X149.5Y-78.0
X149.5Y-87.5
X173.0Y-57.5
X173.0Y-67.0
X175.5Y-57.5
X175.5Y-67.0
X178.0Y-57.5
X178.0Y-67.0
X180.5Y-57.5
T5
X127.94Y-97.46
X130.48Y-97.46
X133.02Y-97.46
X135.56Y-97.46
X138.1Y-97.46
X140.64Y-97.46
X143.18Y-97.46
X145.72Y-49.2
X145.72Y-97.46
X148.26Y-49.2
X150.8Y-49.2
X153.34Y-49.2
X155.88Y-49.2
X158.42Y-49.2
X160.96Y-49.2
X163.5Y-49.2
X168.58Y-49.2
X171.12Y-49.2
X173.0Y-77.5
X173.66Y-49.2
X175.5Y-77.5
X176.2Y-49.2
X178.74Y-49.2
X181.28Y-49.2
X183.82Y-49.2
X186.36Y-49.2
X193.98Y-49.2
X193.98Y-51.74
X193.98Y-54.28
X193.98Y-56.82
X193.98Y-59.36
X193.98Y-61.9
X193.98Y-64.44
X193.98Y-66.98
X193.98Y-69.52
X193.98Y-72.06
X193.98Y-74.6
X193.98Y-77.14
X193.98Y-79.68
X193.98Y-82.22
X193.98Y-84.76
X193.98Y-87.3
X193.98Y-89.84
X193.98Y-92.38
X196.52Y-49.2
X196.52Y-51.74
X196.52Y-54.28
X196.52Y-56.82
X196.52Y-59.36
X196.52Y-61.9
X196.52Y-64.44
X196.52Y-66.98
X196.52Y-69.52
X196.52Y-72.06
X196.52Y-74.6
X196.52Y-77.14
X196.52Y-79.68
X196.52Y-82.22
X196.52Y-84.76
X196.52Y-87.3
X196.52Y-89.84
X196.52Y-92.38
M30
