%TF.GenerationSoftware,KiCad,Pcbnew,7.0.11+dfsg-1build4*%
%TF.CreationDate,2026-10-07T19:45:54+00:00*%
%TF.ProjectId,shield_jambes,73686965-6c64-45f6-9a61-6d6265732e6b,rev?*%
%TF.SameCoordinates,Original*%
%TF.FileFunction,Copper,L2,Bot*%
%TF.FilePolarity,Positive*%
%FSLAX46Y46*%
G04 Gerber Fmt 4.6, Leading zero omitted, Abs format (unit mm)*
G04 Created by KiCad (PCBNEW 7.0.11+dfsg-1build4) date 2026-10-07 19:45:54*
%MOMM*%
%LPD*%
G01*
G04 APERTURE LIST*
G04 Aperture macros list*
%AMRoundRect*
0 Rectangle with rounded corners*
0 $1 Rounding radius*
0 $2 $3 $4 $5 $6 $7 $8 $9 X,Y pos of 4 corners*
0 Add a 4 corners polygon primitive as box body*
4,1,4,$2,$3,$4,$5,$6,$7,$8,$9,$2,$3,0*
0 Add four circle primitives for the rounded corners*
1,1,$1+$1,$2,$3*
1,1,$1+$1,$4,$5*
1,1,$1+$1,$6,$7*
1,1,$1+$1,$8,$9*
0 Add four rect primitives between the rounded corners*
20,1,$1+$1,$2,$3,$4,$5,0*
20,1,$1+$1,$4,$5,$6,$7,0*
20,1,$1+$1,$6,$7,$8,$9,0*
20,1,$1+$1,$8,$9,$2,$3,0*%
G04 Aperture macros list end*
%TA.AperFunction,ComponentPad*%
%ADD10RoundRect,0.250000X-0.600000X-0.725000X0.600000X-0.725000X0.600000X0.725000X-0.600000X0.725000X0*%
%TD*%
%TA.AperFunction,ComponentPad*%
%ADD11O,1.700000X1.950000*%
%TD*%
%TA.AperFunction,ComponentPad*%
%ADD12RoundRect,0.250000X-0.600000X-0.750000X0.600000X-0.750000X0.600000X0.750000X-0.600000X0.750000X0*%
%TD*%
%TA.AperFunction,ComponentPad*%
%ADD13O,1.700000X2.000000*%
%TD*%
%TA.AperFunction,ComponentPad*%
%ADD14R,1.700000X1.700000*%
%TD*%
%TA.AperFunction,ComponentPad*%
%ADD15O,1.700000X1.700000*%
%TD*%
%TA.AperFunction,ComponentPad*%
%ADD16C,1.600000*%
%TD*%
%TA.AperFunction,ComponentPad*%
%ADD17R,1.800000X1.800000*%
%TD*%
%TA.AperFunction,ComponentPad*%
%ADD18C,1.800000*%
%TD*%
%TA.AperFunction,ComponentPad*%
%ADD19O,1.600000X1.600000*%
%TD*%
%TA.AperFunction,ComponentPad*%
%ADD20R,1.600000X1.600000*%
%TD*%
%TA.AperFunction,ViaPad*%
%ADD21C,0.800000*%
%TD*%
%TA.AperFunction,Conductor*%
%ADD22C,0.400000*%
%TD*%
%TA.AperFunction,Conductor*%
%ADD23C,0.300000*%
%TD*%
G04 APERTURE END LIST*
D10*
%TO.P,J15,1*%
%TO.N,GND*%
X142000000Y-68500000D03*
D11*
%TO.P,J15,2*%
%TO.N,HX5_DT*%
X144500000Y-68500000D03*
%TO.P,J15,3*%
%TO.N,HX5_SCK*%
X147000000Y-68500000D03*
%TO.P,J15,4*%
%TO.N,+5V*%
X149500000Y-68500000D03*
%TD*%
D10*
%TO.P,J20,1*%
%TO.N,GND*%
X173000000Y-57500000D03*
D11*
%TO.P,J20,2*%
%TO.N,+5V*%
X175500000Y-57500000D03*
%TO.P,J20,3*%
%TO.N,SDA*%
X178000000Y-57500000D03*
%TO.P,J20,4*%
%TO.N,SCL*%
X180500000Y-57500000D03*
%TD*%
D10*
%TO.P,J21,1*%
%TO.N,TX1*%
X173000000Y-67000000D03*
D11*
%TO.P,J21,2*%
%TO.N,RX1*%
X175500000Y-67000000D03*
%TO.P,J21,3*%
%TO.N,GND*%
X178000000Y-67000000D03*
%TD*%
D10*
%TO.P,J10,1*%
%TO.N,GND*%
X124000000Y-59000000D03*
D11*
%TO.P,J10,2*%
%TO.N,HX0_DT*%
X126500000Y-59000000D03*
%TO.P,J10,3*%
%TO.N,HX0_SCK*%
X129000000Y-59000000D03*
%TO.P,J10,4*%
%TO.N,+5V*%
X131500000Y-59000000D03*
%TD*%
D10*
%TO.P,J11,1*%
%TO.N,GND*%
X124000000Y-68500000D03*
D11*
%TO.P,J11,2*%
%TO.N,HX1_DT*%
X126500000Y-68500000D03*
%TO.P,J11,3*%
%TO.N,HX1_SCK*%
X129000000Y-68500000D03*
%TO.P,J11,4*%
%TO.N,+5V*%
X131500000Y-68500000D03*
%TD*%
D12*
%TO.P,J22,1*%
%TO.N,ARRET*%
X173000000Y-77500000D03*
D13*
%TO.P,J22,2*%
%TO.N,GND*%
X175500000Y-77500000D03*
%TD*%
D10*
%TO.P,J13,1*%
%TO.N,GND*%
X124000000Y-87500000D03*
D11*
%TO.P,J13,2*%
%TO.N,HX3_DT*%
X126500000Y-87500000D03*
%TO.P,J13,3*%
%TO.N,HX3_SCK*%
X129000000Y-87500000D03*
%TO.P,J13,4*%
%TO.N,+5V*%
X131500000Y-87500000D03*
%TD*%
D14*
%TO.P,J4,1*%
%TO.N,+5V*%
X193980000Y-49200000D03*
D15*
%TO.P,J4,2*%
X196520000Y-49200000D03*
%TO.P,J4,3*%
%TO.N,HX0_DT*%
X193980000Y-51740000D03*
%TO.P,J4,4*%
%TO.N,HX0_SCK*%
X196520000Y-51740000D03*
%TO.P,J4,5*%
%TO.N,HX1_DT*%
X193980000Y-54280000D03*
%TO.P,J4,6*%
%TO.N,HX1_SCK*%
X196520000Y-54280000D03*
%TO.P,J4,7*%
%TO.N,HX2_DT*%
X193980000Y-56820000D03*
%TO.P,J4,8*%
%TO.N,HX2_SCK*%
X196520000Y-56820000D03*
%TO.P,J4,9*%
%TO.N,HX3_DT*%
X193980000Y-59360000D03*
%TO.P,J4,10*%
%TO.N,HX3_SCK*%
X196520000Y-59360000D03*
%TO.P,J4,11*%
%TO.N,HX4_DT*%
X193980000Y-61900000D03*
%TO.P,J4,12*%
%TO.N,HX4_SCK*%
X196520000Y-61900000D03*
%TO.P,J4,13*%
%TO.N,HX5_DT*%
X193980000Y-64440000D03*
%TO.P,J4,14*%
%TO.N,HX5_SCK*%
X196520000Y-64440000D03*
%TO.P,J4,15*%
%TO.N,HX6_DT*%
X193980000Y-66980000D03*
%TO.P,J4,16*%
%TO.N,HX6_SCK*%
X196520000Y-66980000D03*
%TO.P,J4,17*%
%TO.N,HX7_DT*%
X193980000Y-69520000D03*
%TO.P,J4,18*%
%TO.N,HX7_SCK*%
X196520000Y-69520000D03*
%TO.P,J4,19*%
%TO.N,N/C*%
X193980000Y-72060000D03*
%TO.P,J4,20*%
X196520000Y-72060000D03*
%TO.P,J4,21*%
X193980000Y-74600000D03*
%TO.P,J4,22*%
X196520000Y-74600000D03*
%TO.P,J4,23*%
X193980000Y-77140000D03*
%TO.P,J4,24*%
X196520000Y-77140000D03*
%TO.P,J4,25*%
X193980000Y-79680000D03*
%TO.P,J4,26*%
X196520000Y-79680000D03*
%TO.P,J4,27*%
X193980000Y-82220000D03*
%TO.P,J4,28*%
X196520000Y-82220000D03*
%TO.P,J4,29*%
X193980000Y-84760000D03*
%TO.P,J4,30*%
X196520000Y-84760000D03*
%TO.P,J4,31*%
X193980000Y-87300000D03*
%TO.P,J4,32*%
X196520000Y-87300000D03*
%TO.P,J4,33*%
X193980000Y-89840000D03*
%TO.P,J4,34*%
X196520000Y-89840000D03*
%TO.P,J4,35*%
%TO.N,GND*%
X193980000Y-92380000D03*
%TO.P,J4,36*%
X196520000Y-92380000D03*
%TD*%
D14*
%TO.P,J3,1*%
%TO.N,N/C*%
X168579999Y-49200000D03*
D15*
%TO.P,J3,2*%
X171119999Y-49200000D03*
%TO.P,J3,3*%
X173659999Y-49200000D03*
%TO.P,J3,4*%
X176199999Y-49200000D03*
%TO.P,J3,5*%
%TO.N,TX1*%
X178739999Y-49200000D03*
%TO.P,J3,6*%
%TO.N,RX1*%
X181279999Y-49200000D03*
%TO.P,J3,7*%
%TO.N,SDA*%
X183819999Y-49200000D03*
%TO.P,J3,8*%
%TO.N,SCL*%
X186359999Y-49200000D03*
%TD*%
D10*
%TO.P,J12,1*%
%TO.N,GND*%
X124000000Y-78000000D03*
D11*
%TO.P,J12,2*%
%TO.N,HX2_DT*%
X126500000Y-78000000D03*
%TO.P,J12,3*%
%TO.N,HX2_SCK*%
X129000000Y-78000000D03*
%TO.P,J12,4*%
%TO.N,+5V*%
X131500000Y-78000000D03*
%TD*%
D10*
%TO.P,J16,1*%
%TO.N,GND*%
X142000000Y-78000000D03*
D11*
%TO.P,J16,2*%
%TO.N,HX6_DT*%
X144500000Y-78000000D03*
%TO.P,J16,3*%
%TO.N,HX6_SCK*%
X147000000Y-78000000D03*
%TO.P,J16,4*%
%TO.N,+5V*%
X149500000Y-78000000D03*
%TD*%
D10*
%TO.P,J17,1*%
%TO.N,GND*%
X142000000Y-87500000D03*
D11*
%TO.P,J17,2*%
%TO.N,HX7_DT*%
X144500000Y-87500000D03*
%TO.P,J17,3*%
%TO.N,HX7_SCK*%
X147000000Y-87500000D03*
%TO.P,J17,4*%
%TO.N,+5V*%
X149500000Y-87500000D03*
%TD*%
D14*
%TO.P,J1,1*%
%TO.N,N/C*%
X127940000Y-97460000D03*
D15*
%TO.P,J1,2*%
X130480000Y-97460000D03*
%TO.P,J1,3*%
X133020000Y-97460000D03*
%TO.P,J1,4*%
X135560000Y-97460000D03*
%TO.P,J1,5*%
%TO.N,+5V*%
X138100000Y-97460000D03*
%TO.P,J1,6*%
%TO.N,GND*%
X140640000Y-97460000D03*
%TO.P,J1,7*%
X143180000Y-97460000D03*
%TO.P,J1,8*%
%TO.N,N/C*%
X145720000Y-97460000D03*
%TD*%
D16*
%TO.P,C3,1*%
%TO.N,+5V*%
X181000000Y-85500000D03*
%TO.P,C3,2*%
%TO.N,GND*%
X186000000Y-85500000D03*
%TD*%
D17*
%TO.P,D1,1*%
%TO.N,GND*%
X172000000Y-92500000D03*
D18*
%TO.P,D1,2*%
%TO.N,LED_A*%
X174540000Y-92500000D03*
%TD*%
D14*
%TO.P,J2,1*%
%TO.N,N/C*%
X145720000Y-49200000D03*
D15*
%TO.P,J2,2*%
X148260000Y-49200000D03*
%TO.P,J2,3*%
X150800000Y-49200000D03*
%TO.P,J2,4*%
X153340000Y-49200000D03*
%TO.P,J2,5*%
X155880000Y-49200000D03*
%TO.P,J2,6*%
%TO.N,ARRET*%
X158420000Y-49200000D03*
%TO.P,J2,7*%
%TO.N,N/C*%
X160960000Y-49200000D03*
%TO.P,J2,8*%
X163500000Y-49200000D03*
%TD*%
D10*
%TO.P,J14,1*%
%TO.N,GND*%
X142000000Y-59000000D03*
D11*
%TO.P,J14,2*%
%TO.N,HX4_DT*%
X144500000Y-59000000D03*
%TO.P,J14,3*%
%TO.N,HX4_SCK*%
X147000000Y-59000000D03*
%TO.P,J14,4*%
%TO.N,+5V*%
X149500000Y-59000000D03*
%TD*%
D16*
%TO.P,C1,1*%
%TO.N,ARRET*%
X182000000Y-70500000D03*
%TO.P,C1,2*%
%TO.N,GND*%
X187000000Y-70500000D03*
%TD*%
%TO.P,R2,1*%
%TO.N,LED_A*%
X178000000Y-92500000D03*
D19*
%TO.P,R2,2*%
%TO.N,+5V*%
X185620000Y-92500000D03*
%TD*%
D20*
%TO.P,C2,1*%
%TO.N,+5V*%
X173000000Y-85500000D03*
D16*
%TO.P,C2,2*%
%TO.N,GND*%
X175500000Y-85500000D03*
%TD*%
%TO.P,R1,1*%
%TO.N,+5V*%
X182000000Y-77500000D03*
D19*
%TO.P,R1,2*%
%TO.N,ARRET*%
X189620000Y-77500000D03*
%TD*%
D21*
%TO.N,+5V*%
X181010000Y-50950000D03*
%TO.N,HX1_SCK*%
X132260899Y-66939900D03*
X133146400Y-47365400D03*
%TO.N,HX2_SCK*%
X180977300Y-63990000D03*
%TO.N,HX3_DT*%
X178882000Y-70176900D03*
%TO.N,HX3_SCK*%
X199261100Y-59477900D03*
%TO.N,HX5_SCK*%
X150312700Y-66389900D03*
X191992900Y-94201600D03*
%TO.N,HX6_SCK*%
X148692100Y-84058000D03*
%TD*%
D22*
%TO.N,+5V*%
X138100000Y-96158100D02*
X131500000Y-89558100D01*
X131500000Y-68500000D02*
X131500000Y-78000000D01*
X181000000Y-86628100D02*
X185620000Y-91248100D01*
X131409000Y-68409000D02*
X131500000Y-68500000D01*
X149460800Y-60466100D02*
X149460800Y-67033900D01*
X181000000Y-85500000D02*
X181000000Y-86628100D01*
X175886900Y-56073100D02*
X175500000Y-56073100D01*
X131500000Y-89558100D02*
X131500000Y-88926900D01*
X149500000Y-86073100D02*
X149589400Y-85983700D01*
X181010000Y-50950000D02*
X175886900Y-56073100D01*
X149460800Y-67033900D02*
X149500000Y-67073100D01*
X131500000Y-87500000D02*
X131500000Y-88926900D01*
X149500000Y-87500000D02*
X149500000Y-86073100D01*
X181000000Y-85500000D02*
X181000000Y-78500000D01*
X131500000Y-60426900D02*
X131409000Y-60517900D01*
X131500000Y-59000000D02*
X131500000Y-60426900D01*
X175500000Y-57500000D02*
X175500000Y-56073100D01*
X181000000Y-78500000D02*
X182000000Y-77500000D01*
X149500000Y-68500000D02*
X149500000Y-78000000D01*
X149500000Y-60426900D02*
X149460800Y-60466100D01*
X185620000Y-92500000D02*
X185620000Y-91248100D01*
X149500000Y-59000000D02*
X149500000Y-60426900D01*
X149500000Y-68500000D02*
X149500000Y-67073100D01*
X149500000Y-78000000D02*
X149500000Y-79426900D01*
X138100000Y-97460000D02*
X138100000Y-96158100D01*
X149589400Y-79516300D02*
X149500000Y-79426900D01*
X149589400Y-85983700D02*
X149589400Y-79516300D01*
X131409000Y-60517900D02*
X131409000Y-68409000D01*
%TO.N,GND*%
X140515600Y-79484400D02*
X140515600Y-86015600D01*
X175500000Y-77500000D02*
X176801900Y-77500000D01*
X186000000Y-72143800D02*
X185678100Y-71821900D01*
X173000000Y-57500000D02*
X173000000Y-62000000D01*
X124000000Y-79484400D02*
X124000000Y-87500000D01*
X186000000Y-85500000D02*
X186000000Y-72143800D01*
X124000000Y-59000000D02*
X124000000Y-68500000D01*
X124000000Y-79484400D02*
X140515600Y-79484400D01*
X192678100Y-92178100D02*
X186000000Y-85500000D01*
X140515600Y-79484400D02*
X142000000Y-78000000D01*
X175500000Y-85500000D02*
X175500000Y-87648100D01*
X142000000Y-68500000D02*
X142000000Y-78000000D01*
X185678100Y-71821900D02*
X178000000Y-71821900D01*
X175500000Y-77500000D02*
X175500000Y-85500000D01*
X140640000Y-88860000D02*
X142000000Y-87500000D01*
X140640000Y-97460000D02*
X140640000Y-88860000D01*
X142000000Y-59000000D02*
X142000000Y-68500000D01*
X187000000Y-70500000D02*
X185678100Y-71821900D01*
X173000000Y-62000000D02*
X178000000Y-67000000D01*
X178000000Y-71821900D02*
X178000000Y-76301900D01*
X172000000Y-92500000D02*
X172000000Y-91148100D01*
X193980000Y-92380000D02*
X192678100Y-92380000D01*
X140515600Y-86015600D02*
X142000000Y-87500000D01*
X175500000Y-87648100D02*
X172000000Y-91148100D01*
X178000000Y-76301900D02*
X176801900Y-77500000D01*
X178000000Y-67000000D02*
X178000000Y-71821900D01*
X124000000Y-78000000D02*
X124000000Y-79484400D01*
X192678100Y-92380000D02*
X192678100Y-92178100D01*
X124000000Y-68500000D02*
X124000000Y-78000000D01*
%TO.N,ARRET*%
X187512700Y-69225300D02*
X189620000Y-71332600D01*
X158420000Y-50501900D02*
X170274200Y-62356100D01*
X183274700Y-69225300D02*
X187512700Y-69225300D01*
X170274200Y-62356100D02*
X170274200Y-74774200D01*
X189620000Y-71332600D02*
X189620000Y-77500000D01*
X170274200Y-74774200D02*
X173000000Y-77500000D01*
X158420000Y-49200000D02*
X158420000Y-50501900D01*
X182000000Y-70500000D02*
X183274700Y-69225300D01*
%TO.N,TX1*%
X174340000Y-53600000D02*
X173609800Y-53600000D01*
X170964300Y-64964300D02*
X173000000Y-67000000D01*
X173609800Y-53600000D02*
X170964300Y-56245500D01*
X178740000Y-49200000D02*
X174340000Y-53600000D01*
X170964300Y-56245500D02*
X170964300Y-64964300D01*
%TO.N,RX1*%
X171654300Y-56507500D02*
X171654300Y-63154300D01*
X171654300Y-63154300D02*
X175500000Y-67000000D01*
X173729500Y-54432300D02*
X171654300Y-56507500D01*
X176047700Y-54432300D02*
X173729500Y-54432300D01*
X181280000Y-49200000D02*
X176047700Y-54432300D01*
%TO.N,SDA*%
X178000000Y-56073100D02*
X178248800Y-56073100D01*
X183820000Y-49200000D02*
X183820000Y-50501900D01*
X178248800Y-56073100D02*
X183820000Y-50501900D01*
X178000000Y-57500000D02*
X178000000Y-56073100D01*
%TO.N,SCL*%
X186360000Y-52941900D02*
X181801900Y-57500000D01*
X180500000Y-57500000D02*
X181801900Y-57500000D01*
X186360000Y-49200000D02*
X186360000Y-52941900D01*
%TO.N,HX1_SCK*%
X133146400Y-66054400D02*
X132260899Y-66939900D01*
X133146400Y-47365400D02*
X133146400Y-66054400D01*
%TO.N,HX2_SCK*%
X197103400Y-47886300D02*
X197835000Y-48617900D01*
X197835000Y-55505000D02*
X196520000Y-56820000D01*
X180977300Y-59840400D02*
X192931400Y-47886300D01*
X197835000Y-48617900D02*
X197835000Y-55505000D01*
X180977300Y-63990000D02*
X180977300Y-59840400D01*
X192931400Y-47886300D02*
X197103400Y-47886300D01*
%TO.N,HX3_DT*%
X189698900Y-59360000D02*
X178882000Y-70176900D01*
X193980000Y-59360000D02*
X189698900Y-59360000D01*
%TO.N,HX3_SCK*%
X199307600Y-59524400D02*
X199261100Y-59477900D01*
X126599000Y-89901000D02*
X126599000Y-98478700D01*
X201005100Y-73087200D02*
X201005100Y-70086100D01*
X193972500Y-99214500D02*
X201005100Y-92181900D01*
D23*
X201005100Y-70086100D02*
X201005100Y-66349700D01*
D22*
X127525400Y-99405100D02*
X140073900Y-99405100D01*
X199307600Y-64652200D02*
X199307600Y-59524400D01*
X129000000Y-87500000D02*
X126599000Y-89901000D01*
X140724500Y-99214500D02*
X193972500Y-99214500D01*
D23*
X140073900Y-99405100D02*
X140533900Y-99405100D01*
X140533900Y-99405100D02*
X140724500Y-99214500D01*
D22*
X201005100Y-92181900D02*
X201005100Y-73547200D01*
D23*
X201005100Y-73547200D02*
X201005100Y-73087200D01*
X201005100Y-66349700D02*
X199307600Y-64652200D01*
D22*
X126599000Y-98478700D02*
X127525400Y-99405100D01*
%TO.N,HX4_SCK*%
X198115600Y-58710200D02*
X198115600Y-60304400D01*
X198502600Y-48345200D02*
X198502600Y-58323200D01*
X144406000Y-48139200D02*
X145367200Y-47178000D01*
X198115600Y-60304400D02*
X196520000Y-61900000D01*
X144406000Y-56406000D02*
X144406000Y-48139200D01*
X145367200Y-47178000D02*
X197335400Y-47178000D01*
X198502600Y-58323200D02*
X198115600Y-58710200D01*
X147000000Y-59000000D02*
X144406000Y-56406000D01*
X197335400Y-47178000D02*
X198502600Y-48345200D01*
%TO.N,HX5_SCK*%
X158745500Y-81554700D02*
X169656800Y-92466000D01*
X150312700Y-66389900D02*
X158745500Y-74822700D01*
X158745500Y-74822700D02*
X158745500Y-81554700D01*
D23*
X174459900Y-93850400D02*
X174549600Y-93940100D01*
D22*
X169656800Y-92466000D02*
X169656800Y-93850400D01*
X191731400Y-93940100D02*
X191992900Y-94201600D01*
D23*
X169656800Y-93850400D02*
X174459900Y-93850400D01*
D22*
X174549600Y-93940100D02*
X191731400Y-93940100D01*
%TO.N,HX6_SCK*%
X147000000Y-78000000D02*
X147000000Y-82365900D01*
X147000000Y-82365900D02*
X148692100Y-84058000D01*
%TO.N,HX7_SCK*%
X199248600Y-73409600D02*
X199250100Y-73411100D01*
X196520000Y-69520000D02*
X199248600Y-72248600D01*
D23*
X197820400Y-94408800D02*
X197820400Y-74840800D01*
X197820400Y-74840800D02*
X199250100Y-73411100D01*
D22*
X147000000Y-87500000D02*
X154553500Y-95053500D01*
X154553500Y-95053500D02*
X197175700Y-95053500D01*
X197175700Y-95053500D02*
X197820400Y-94408800D01*
X199248600Y-72248600D02*
X199248600Y-73409600D01*
%TD*%
%TA.AperFunction,Conductor*%
%TO.N,GND*%
G36*
X114827166Y-47179685D02*
G01*
X114872921Y-47232489D01*
X114882865Y-47301647D01*
X114853840Y-47365203D01*
X114795062Y-47402977D01*
X114787089Y-47405033D01*
X114705451Y-47423218D01*
X114705446Y-47423220D01*
X114452439Y-47519987D01*
X114216226Y-47652557D01*
X114001822Y-47818112D01*
X113813822Y-48013109D01*
X113813816Y-48013116D01*
X113656202Y-48233419D01*
X113656199Y-48233424D01*
X113532350Y-48474309D01*
X113532343Y-48474327D01*
X113444884Y-48730685D01*
X113444881Y-48730699D01*
X113395681Y-48997068D01*
X113395680Y-48997075D01*
X113385787Y-49267763D01*
X113415413Y-49537013D01*
X113415415Y-49537024D01*
X113468250Y-49739120D01*
X113483928Y-49799088D01*
X113589870Y-50048390D01*
X113703329Y-50234299D01*
X113730979Y-50279605D01*
X113730986Y-50279615D01*
X113904253Y-50487819D01*
X113904259Y-50487824D01*
X113992670Y-50567040D01*
X114105998Y-50668582D01*
X114331910Y-50818044D01*
X114577176Y-50933020D01*
X114577183Y-50933022D01*
X114577185Y-50933023D01*
X114836557Y-51011057D01*
X114836564Y-51011058D01*
X114836569Y-51011060D01*
X115104561Y-51050500D01*
X115104566Y-51050500D01*
X115307629Y-51050500D01*
X115307631Y-51050500D01*
X115307636Y-51050499D01*
X115307648Y-51050499D01*
X115345191Y-51047750D01*
X115510156Y-51035677D01*
X115622758Y-51010593D01*
X115774546Y-50976782D01*
X115774548Y-50976781D01*
X115774553Y-50976780D01*
X116027558Y-50880014D01*
X116263777Y-50747441D01*
X116478177Y-50581888D01*
X116666186Y-50386881D01*
X116823799Y-50166579D01*
X116920545Y-49978407D01*
X116947649Y-49925690D01*
X116947651Y-49925684D01*
X116947656Y-49925675D01*
X117035118Y-49669305D01*
X117084319Y-49402933D01*
X117094212Y-49132235D01*
X117064586Y-48862982D01*
X116996072Y-48600912D01*
X116890130Y-48351610D01*
X116749018Y-48120390D01*
X116734879Y-48103400D01*
X116575746Y-47912180D01*
X116575740Y-47912175D01*
X116374002Y-47731418D01*
X116148092Y-47581957D01*
X116148090Y-47581956D01*
X115902824Y-47466980D01*
X115902819Y-47466978D01*
X115902814Y-47466976D01*
X115689309Y-47402742D01*
X115630783Y-47364578D01*
X115602181Y-47300831D01*
X115612583Y-47231740D01*
X115658688Y-47179242D01*
X115725033Y-47160000D01*
X132325728Y-47160000D01*
X132392767Y-47179685D01*
X132438522Y-47232489D01*
X132448824Y-47298947D01*
X132440755Y-47365399D01*
X132461259Y-47534269D01*
X132461260Y-47534274D01*
X132521582Y-47693331D01*
X132622478Y-47839503D01*
X132620207Y-47841070D01*
X132644434Y-47892590D01*
X132645900Y-47911604D01*
X132645900Y-58113333D01*
X132626215Y-58180372D01*
X132573411Y-58226127D01*
X132504253Y-58236071D01*
X132440697Y-58207046D01*
X132422947Y-58188061D01*
X132353873Y-58096594D01*
X132318693Y-58064523D01*
X132196302Y-57952948D01*
X132015019Y-57840702D01*
X132015017Y-57840701D01*
X131915608Y-57802190D01*
X131816198Y-57763679D01*
X131606610Y-57724500D01*
X131393390Y-57724500D01*
X131183802Y-57763679D01*
X131183799Y-57763679D01*
X131183799Y-57763680D01*
X130984982Y-57840701D01*
X130984980Y-57840702D01*
X130803699Y-57952947D01*
X130646127Y-58096593D01*
X130517632Y-58266746D01*
X130422596Y-58457605D01*
X130422596Y-58457607D01*
X130369266Y-58645039D01*
X130331986Y-58704132D01*
X130268676Y-58733689D01*
X130199437Y-58724327D01*
X130146251Y-58679017D01*
X130130734Y-58645039D01*
X130113853Y-58585711D01*
X130077405Y-58457611D01*
X130077403Y-58457606D01*
X130077403Y-58457605D01*
X129982367Y-58266746D01*
X129853872Y-58096593D01*
X129818693Y-58064523D01*
X129696302Y-57952948D01*
X129515019Y-57840702D01*
X129515017Y-57840701D01*
X129415608Y-57802190D01*
X129316198Y-57763679D01*
X129106610Y-57724500D01*
X128893390Y-57724500D01*
X128683802Y-57763679D01*
X128683799Y-57763679D01*
X128683799Y-57763680D01*
X128484982Y-57840701D01*
X128484980Y-57840702D01*
X128303699Y-57952947D01*
X128146127Y-58096593D01*
X128017632Y-58266746D01*
X127922596Y-58457605D01*
X127922596Y-58457607D01*
X127869266Y-58645039D01*
X127831986Y-58704132D01*
X127768676Y-58733689D01*
X127699437Y-58724327D01*
X127646251Y-58679017D01*
X127630734Y-58645039D01*
X127613853Y-58585711D01*
X127577405Y-58457611D01*
X127577403Y-58457606D01*
X127577403Y-58457605D01*
X127482367Y-58266746D01*
X127353872Y-58096593D01*
X127318693Y-58064523D01*
X127196302Y-57952948D01*
X127015019Y-57840702D01*
X127015017Y-57840701D01*
X126915608Y-57802190D01*
X126816198Y-57763679D01*
X126606610Y-57724500D01*
X126393390Y-57724500D01*
X126183802Y-57763679D01*
X126183799Y-57763679D01*
X126183799Y-57763680D01*
X125984982Y-57840701D01*
X125984980Y-57840702D01*
X125803699Y-57952947D01*
X125646126Y-58096594D01*
X125563959Y-58205400D01*
X125507850Y-58247035D01*
X125438138Y-58251726D01*
X125376956Y-58217983D01*
X125343730Y-58156520D01*
X125341648Y-58143273D01*
X125339505Y-58122303D01*
X125284358Y-57955880D01*
X125284356Y-57955875D01*
X125192315Y-57806654D01*
X125068345Y-57682684D01*
X124919124Y-57590643D01*
X124919119Y-57590641D01*
X124752697Y-57535494D01*
X124752690Y-57535493D01*
X124649986Y-57525000D01*
X124250000Y-57525000D01*
X124250000Y-58591981D01*
X124135199Y-58539554D01*
X124033975Y-58525000D01*
X123966025Y-58525000D01*
X123864801Y-58539554D01*
X123750000Y-58591981D01*
X123750000Y-57525000D01*
X123350028Y-57525000D01*
X123350012Y-57525001D01*
X123247302Y-57535494D01*
X123080880Y-57590641D01*
X123080875Y-57590643D01*
X122931654Y-57682684D01*
X122807684Y-57806654D01*
X122715643Y-57955875D01*
X122715641Y-57955880D01*
X122660494Y-58122302D01*
X122660493Y-58122309D01*
X122650000Y-58225013D01*
X122650000Y-58750000D01*
X123596031Y-58750000D01*
X123563481Y-58800649D01*
X123525000Y-58931705D01*
X123525000Y-59068295D01*
X123563481Y-59199351D01*
X123596031Y-59250000D01*
X122650001Y-59250000D01*
X122650001Y-59774986D01*
X122660494Y-59877697D01*
X122715641Y-60044119D01*
X122715643Y-60044124D01*
X122807684Y-60193345D01*
X122931654Y-60317315D01*
X123080875Y-60409356D01*
X123080880Y-60409358D01*
X123247302Y-60464505D01*
X123247309Y-60464506D01*
X123350019Y-60474999D01*
X123749999Y-60474999D01*
X123750000Y-60474998D01*
X123750000Y-59408018D01*
X123864801Y-59460446D01*
X123966025Y-59475000D01*
X124033975Y-59475000D01*
X124135199Y-59460446D01*
X124250000Y-59408018D01*
X124250000Y-60474999D01*
X124649972Y-60474999D01*
X124649986Y-60474998D01*
X124752697Y-60464505D01*
X124919119Y-60409358D01*
X124919124Y-60409356D01*
X125068345Y-60317315D01*
X125192315Y-60193345D01*
X125284356Y-60044124D01*
X125284358Y-60044119D01*
X125339505Y-59877697D01*
X125339506Y-59877688D01*
X125341648Y-59856727D01*
X125368042Y-59792035D01*
X125425222Y-59751882D01*
X125495033Y-59749018D01*
X125555311Y-59784350D01*
X125563960Y-59794600D01*
X125633485Y-59886666D01*
X125646128Y-59903407D01*
X125803698Y-60047052D01*
X125984981Y-60159298D01*
X126183802Y-60236321D01*
X126393390Y-60275500D01*
X126393392Y-60275500D01*
X126606608Y-60275500D01*
X126606610Y-60275500D01*
X126816198Y-60236321D01*
X127015019Y-60159298D01*
X127196302Y-60047052D01*
X127353872Y-59903407D01*
X127482366Y-59733255D01*
X127525429Y-59646772D01*
X127577403Y-59542394D01*
X127577403Y-59542393D01*
X127577405Y-59542389D01*
X127630734Y-59354959D01*
X127668014Y-59295867D01*
X127731323Y-59266310D01*
X127800563Y-59275672D01*
X127853749Y-59320982D01*
X127869265Y-59354959D01*
X127913892Y-59511803D01*
X127922596Y-59542392D01*
X127922596Y-59542394D01*
X128017632Y-59733253D01*
X128133562Y-59886767D01*
X128146128Y-59903407D01*
X128303698Y-60047052D01*
X128484981Y-60159298D01*
X128683802Y-60236321D01*
X128893390Y-60275500D01*
X128893392Y-60275500D01*
X129106608Y-60275500D01*
X129106610Y-60275500D01*
X129316198Y-60236321D01*
X129515019Y-60159298D01*
X129696302Y-60047052D01*
X129853872Y-59903407D01*
X129982366Y-59733255D01*
X130025429Y-59646772D01*
X130077403Y-59542394D01*
X130077403Y-59542393D01*
X130077405Y-59542389D01*
X130130734Y-59354959D01*
X130168014Y-59295867D01*
X130231323Y-59266310D01*
X130300563Y-59275672D01*
X130353749Y-59320982D01*
X130369265Y-59354959D01*
X130413892Y-59511803D01*
X130422596Y-59542392D01*
X130422596Y-59542394D01*
X130517632Y-59733253D01*
X130633562Y-59886767D01*
X130646128Y-59903407D01*
X130803698Y-60047052D01*
X130917826Y-60117717D01*
X130964461Y-60169745D01*
X130975565Y-60238727D01*
X130966552Y-60266608D01*
X130968302Y-60267261D01*
X130947851Y-60322091D01*
X130944466Y-60330265D01*
X130923835Y-60375443D01*
X130923833Y-60375450D01*
X130923146Y-60380227D01*
X130916598Y-60405886D01*
X130914910Y-60410413D01*
X130914909Y-60410416D01*
X130911365Y-60459954D01*
X130910420Y-60468745D01*
X130908500Y-60482100D01*
X130908500Y-60495590D01*
X130908184Y-60504437D01*
X130904641Y-60553969D01*
X130904641Y-60553973D01*
X130905666Y-60558685D01*
X130908500Y-60585043D01*
X130908500Y-67318989D01*
X130888815Y-67386028D01*
X130849779Y-67424415D01*
X130803700Y-67452945D01*
X130646127Y-67596593D01*
X130517632Y-67766746D01*
X130422596Y-67957605D01*
X130422596Y-67957607D01*
X130369266Y-68145039D01*
X130331986Y-68204132D01*
X130268676Y-68233689D01*
X130199437Y-68224327D01*
X130146251Y-68179017D01*
X130130734Y-68145039D01*
X130115449Y-68091319D01*
X130077405Y-67957611D01*
X130077403Y-67957606D01*
X130077403Y-67957605D01*
X129982367Y-67766746D01*
X129853872Y-67596593D01*
X129844726Y-67588255D01*
X129696302Y-67452948D01*
X129515019Y-67340702D01*
X129515017Y-67340701D01*
X129415608Y-67302190D01*
X129316198Y-67263679D01*
X129106610Y-67224500D01*
X128893390Y-67224500D01*
X128683802Y-67263679D01*
X128683799Y-67263679D01*
X128683799Y-67263680D01*
X128484982Y-67340701D01*
X128484980Y-67340702D01*
X128303699Y-67452947D01*
X128146127Y-67596593D01*
X128017632Y-67766746D01*
X127922596Y-67957605D01*
X127922596Y-67957607D01*
X127869266Y-68145039D01*
X127831986Y-68204132D01*
X127768676Y-68233689D01*
X127699437Y-68224327D01*
X127646251Y-68179017D01*
X127630734Y-68145039D01*
X127615449Y-68091319D01*
X127577405Y-67957611D01*
X127577403Y-67957606D01*
X127577403Y-67957605D01*
X127482367Y-67766746D01*
X127353872Y-67596593D01*
X127344726Y-67588255D01*
X127196302Y-67452948D01*
X127015019Y-67340702D01*
X127015017Y-67340701D01*
X126915608Y-67302190D01*
X126816198Y-67263679D01*
X126606610Y-67224500D01*
X126393390Y-67224500D01*
X126183802Y-67263679D01*
X126183799Y-67263679D01*
X126183799Y-67263680D01*
X125984982Y-67340701D01*
X125984980Y-67340702D01*
X125803699Y-67452947D01*
X125646126Y-67596594D01*
X125563959Y-67705400D01*
X125507850Y-67747035D01*
X125438138Y-67751726D01*
X125376956Y-67717983D01*
X125343730Y-67656520D01*
X125341648Y-67643273D01*
X125339505Y-67622303D01*
X125284358Y-67455880D01*
X125284356Y-67455875D01*
X125192315Y-67306654D01*
X125068345Y-67182684D01*
X124919124Y-67090643D01*
X124919119Y-67090641D01*
X124752697Y-67035494D01*
X124752690Y-67035493D01*
X124649986Y-67025000D01*
X124250000Y-67025000D01*
X124250000Y-68091981D01*
X124135199Y-68039554D01*
X124033975Y-68025000D01*
X123966025Y-68025000D01*
X123864801Y-68039554D01*
X123750000Y-68091981D01*
X123750000Y-67025000D01*
X123350028Y-67025000D01*
X123350012Y-67025001D01*
X123247302Y-67035494D01*
X123080880Y-67090641D01*
X123080875Y-67090643D01*
X122931654Y-67182684D01*
X122807684Y-67306654D01*
X122715643Y-67455875D01*
X122715641Y-67455880D01*
X122660494Y-67622302D01*
X122660493Y-67622309D01*
X122650000Y-67725013D01*
X122650000Y-68250000D01*
X123596031Y-68250000D01*
X123563481Y-68300649D01*
X123525000Y-68431705D01*
X123525000Y-68568295D01*
X123563481Y-68699351D01*
X123596031Y-68750000D01*
X122650001Y-68750000D01*
X122650001Y-69274986D01*
X122660494Y-69377697D01*
X122715641Y-69544119D01*
X122715643Y-69544124D01*
X122807684Y-69693345D01*
X122931654Y-69817315D01*
X123080875Y-69909356D01*
X123080880Y-69909358D01*
X123247302Y-69964505D01*
X123247309Y-69964506D01*
X123350019Y-69974999D01*
X123749999Y-69974999D01*
X123750000Y-69974998D01*
X123750000Y-68908018D01*
X123864801Y-68960446D01*
X123966025Y-68975000D01*
X124033975Y-68975000D01*
X124135199Y-68960446D01*
X124250000Y-68908018D01*
X124250000Y-69974999D01*
X124649972Y-69974999D01*
X124649986Y-69974998D01*
X124752697Y-69964505D01*
X124919119Y-69909358D01*
X124919124Y-69909356D01*
X125068345Y-69817315D01*
X125192315Y-69693345D01*
X125284356Y-69544124D01*
X125284358Y-69544119D01*
X125339505Y-69377697D01*
X125339506Y-69377688D01*
X125341648Y-69356727D01*
X125368042Y-69292035D01*
X125425222Y-69251882D01*
X125495033Y-69249018D01*
X125555311Y-69284350D01*
X125563960Y-69294600D01*
X125643177Y-69399500D01*
X125646128Y-69403407D01*
X125803698Y-69547052D01*
X125984981Y-69659298D01*
X126183802Y-69736321D01*
X126393390Y-69775500D01*
X126393392Y-69775500D01*
X126606608Y-69775500D01*
X126606610Y-69775500D01*
X126816198Y-69736321D01*
X127015019Y-69659298D01*
X127196302Y-69547052D01*
X127353872Y-69403407D01*
X127482366Y-69233255D01*
X127482367Y-69233253D01*
X127577403Y-69042394D01*
X127577403Y-69042393D01*
X127577405Y-69042389D01*
X127630734Y-68854959D01*
X127668014Y-68795867D01*
X127731323Y-68766310D01*
X127800563Y-68775672D01*
X127853749Y-68820982D01*
X127869265Y-68854959D01*
X127880423Y-68894174D01*
X127922596Y-69042392D01*
X127922596Y-69042394D01*
X128017632Y-69233253D01*
X128146127Y-69403406D01*
X128146128Y-69403407D01*
X128303698Y-69547052D01*
X128484981Y-69659298D01*
X128683802Y-69736321D01*
X128893390Y-69775500D01*
X128893392Y-69775500D01*
X129106608Y-69775500D01*
X129106610Y-69775500D01*
X129316198Y-69736321D01*
X129515019Y-69659298D01*
X129696302Y-69547052D01*
X129853872Y-69403407D01*
X129982366Y-69233255D01*
X129982367Y-69233253D01*
X130077403Y-69042394D01*
X130077403Y-69042393D01*
X130077405Y-69042389D01*
X130130734Y-68854959D01*
X130168014Y-68795867D01*
X130231323Y-68766310D01*
X130300563Y-68775672D01*
X130353749Y-68820982D01*
X130369265Y-68854959D01*
X130380423Y-68894174D01*
X130422596Y-69042392D01*
X130422596Y-69042394D01*
X130517632Y-69233253D01*
X130646127Y-69403406D01*
X130646128Y-69403407D01*
X130803698Y-69547052D01*
X130803700Y-69547053D01*
X130803701Y-69547054D01*
X130940777Y-69631928D01*
X130987413Y-69683956D01*
X130999500Y-69737355D01*
X130999500Y-76762644D01*
X130979815Y-76829683D01*
X130940778Y-76868071D01*
X130803699Y-76952947D01*
X130646127Y-77096593D01*
X130517632Y-77266746D01*
X130422596Y-77457605D01*
X130422596Y-77457607D01*
X130369266Y-77645039D01*
X130331986Y-77704132D01*
X130268676Y-77733689D01*
X130199437Y-77724327D01*
X130146251Y-77679017D01*
X130130734Y-77645039D01*
X130105796Y-77557394D01*
X130077405Y-77457611D01*
X130077403Y-77457606D01*
X130077403Y-77457605D01*
X129982367Y-77266746D01*
X129853872Y-77096593D01*
X129810784Y-77057313D01*
X129696302Y-76952948D01*
X129515019Y-76840702D01*
X129515017Y-76840701D01*
X129415608Y-76802190D01*
X129316198Y-76763679D01*
X129106610Y-76724500D01*
X128893390Y-76724500D01*
X128683802Y-76763679D01*
X128683799Y-76763679D01*
X128683799Y-76763680D01*
X128484982Y-76840701D01*
X128484980Y-76840702D01*
X128303699Y-76952947D01*
X128146127Y-77096593D01*
X128017632Y-77266746D01*
X127922596Y-77457605D01*
X127922596Y-77457607D01*
X127869266Y-77645039D01*
X127831986Y-77704132D01*
X127768676Y-77733689D01*
X127699437Y-77724327D01*
X127646251Y-77679017D01*
X127630734Y-77645039D01*
X127605796Y-77557394D01*
X127577405Y-77457611D01*
X127577403Y-77457606D01*
X127577403Y-77457605D01*
X127482367Y-77266746D01*
X127353872Y-77096593D01*
X127310784Y-77057313D01*
X127196302Y-76952948D01*
X127015019Y-76840702D01*
X127015017Y-76840701D01*
X126915608Y-76802190D01*
X126816198Y-76763679D01*
X126606610Y-76724500D01*
X126393390Y-76724500D01*
X126183802Y-76763679D01*
X126183799Y-76763679D01*
X126183799Y-76763680D01*
X125984982Y-76840701D01*
X125984980Y-76840702D01*
X125803699Y-76952947D01*
X125646126Y-77096594D01*
X125563959Y-77205400D01*
X125507850Y-77247035D01*
X125438138Y-77251726D01*
X125376956Y-77217983D01*
X125343730Y-77156520D01*
X125341648Y-77143273D01*
X125339505Y-77122303D01*
X125284358Y-76955880D01*
X125284356Y-76955875D01*
X125192315Y-76806654D01*
X125068345Y-76682684D01*
X124919124Y-76590643D01*
X124919119Y-76590641D01*
X124752697Y-76535494D01*
X124752690Y-76535493D01*
X124649986Y-76525000D01*
X124250000Y-76525000D01*
X124250000Y-77591981D01*
X124135199Y-77539554D01*
X124033975Y-77525000D01*
X123966025Y-77525000D01*
X123864801Y-77539554D01*
X123750000Y-77591981D01*
X123750000Y-76525000D01*
X123350028Y-76525000D01*
X123350012Y-76525001D01*
X123247302Y-76535494D01*
X123080880Y-76590641D01*
X123080875Y-76590643D01*
X122931654Y-76682684D01*
X122807684Y-76806654D01*
X122715643Y-76955875D01*
X122715641Y-76955880D01*
X122660494Y-77122302D01*
X122660493Y-77122309D01*
X122650000Y-77225013D01*
X122650000Y-77750000D01*
X123596031Y-77750000D01*
X123563481Y-77800649D01*
X123525000Y-77931705D01*
X123525000Y-78068295D01*
X123563481Y-78199351D01*
X123596031Y-78250000D01*
X122650001Y-78250000D01*
X122650001Y-78774986D01*
X122660494Y-78877697D01*
X122715641Y-79044119D01*
X122715643Y-79044124D01*
X122807684Y-79193345D01*
X122931654Y-79317315D01*
X123080875Y-79409356D01*
X123080880Y-79409358D01*
X123247302Y-79464505D01*
X123247309Y-79464506D01*
X123350019Y-79474999D01*
X123749999Y-79474999D01*
X123750000Y-79474998D01*
X123750000Y-78408018D01*
X123864801Y-78460446D01*
X123966025Y-78475000D01*
X124033975Y-78475000D01*
X124135199Y-78460446D01*
X124250000Y-78408018D01*
X124250000Y-79474999D01*
X124649972Y-79474999D01*
X124649986Y-79474998D01*
X124752697Y-79464505D01*
X124919119Y-79409358D01*
X124919124Y-79409356D01*
X125068345Y-79317315D01*
X125192315Y-79193345D01*
X125284356Y-79044124D01*
X125284358Y-79044119D01*
X125339505Y-78877697D01*
X125339506Y-78877688D01*
X125341648Y-78856727D01*
X125368042Y-78792035D01*
X125425222Y-78751882D01*
X125495033Y-78749018D01*
X125555311Y-78784350D01*
X125563960Y-78794600D01*
X125642023Y-78897972D01*
X125646128Y-78903407D01*
X125803698Y-79047052D01*
X125984981Y-79159298D01*
X126183802Y-79236321D01*
X126393390Y-79275500D01*
X126393392Y-79275500D01*
X126606608Y-79275500D01*
X126606610Y-79275500D01*
X126816198Y-79236321D01*
X127015019Y-79159298D01*
X127196302Y-79047052D01*
X127353872Y-78903407D01*
X127482366Y-78733255D01*
X127504848Y-78688105D01*
X127577403Y-78542394D01*
X127577403Y-78542393D01*
X127577405Y-78542389D01*
X127630734Y-78354959D01*
X127668014Y-78295867D01*
X127731323Y-78266310D01*
X127800563Y-78275672D01*
X127853749Y-78320982D01*
X127869265Y-78354959D01*
X127919607Y-78531889D01*
X127922596Y-78542392D01*
X127922596Y-78542394D01*
X128017632Y-78733253D01*
X128144758Y-78901593D01*
X128146128Y-78903407D01*
X128303698Y-79047052D01*
X128484981Y-79159298D01*
X128683802Y-79236321D01*
X128893390Y-79275500D01*
X128893392Y-79275500D01*
X129106608Y-79275500D01*
X129106610Y-79275500D01*
X129316198Y-79236321D01*
X129515019Y-79159298D01*
X129696302Y-79047052D01*
X129853872Y-78903407D01*
X129982366Y-78733255D01*
X130004848Y-78688105D01*
X130077403Y-78542394D01*
X130077403Y-78542393D01*
X130077405Y-78542389D01*
X130130734Y-78354959D01*
X130168014Y-78295867D01*
X130231323Y-78266310D01*
X130300563Y-78275672D01*
X130353749Y-78320982D01*
X130369265Y-78354959D01*
X130419607Y-78531889D01*
X130422596Y-78542392D01*
X130422596Y-78542394D01*
X130517632Y-78733253D01*
X130644758Y-78901593D01*
X130646128Y-78903407D01*
X130803698Y-79047052D01*
X130984981Y-79159298D01*
X131183802Y-79236321D01*
X131393390Y-79275500D01*
X131393392Y-79275500D01*
X131606608Y-79275500D01*
X131606610Y-79275500D01*
X131816198Y-79236321D01*
X132015019Y-79159298D01*
X132196302Y-79047052D01*
X132353872Y-78903407D01*
X132482366Y-78733255D01*
X132504848Y-78688105D01*
X132577403Y-78542394D01*
X132577403Y-78542393D01*
X132577405Y-78542389D01*
X132635756Y-78337310D01*
X132650500Y-78178194D01*
X132650500Y-77821806D01*
X132635756Y-77662690D01*
X132577405Y-77457611D01*
X132577403Y-77457606D01*
X132577403Y-77457605D01*
X132482367Y-77266746D01*
X132353872Y-77096593D01*
X132310784Y-77057313D01*
X132196302Y-76952948D01*
X132089011Y-76886516D01*
X132059222Y-76868071D01*
X132012587Y-76816043D01*
X132000500Y-76762644D01*
X132000500Y-69737355D01*
X132020185Y-69670316D01*
X132059223Y-69631928D01*
X132116985Y-69596163D01*
X132196302Y-69547052D01*
X132353872Y-69403407D01*
X132482366Y-69233255D01*
X132482367Y-69233253D01*
X132577403Y-69042394D01*
X132577403Y-69042393D01*
X132577405Y-69042389D01*
X132635756Y-68837310D01*
X132650500Y-68678194D01*
X132650500Y-68321806D01*
X132635756Y-68162690D01*
X132577405Y-67957611D01*
X132577403Y-67957606D01*
X132577403Y-67957605D01*
X132500208Y-67802577D01*
X132482366Y-67766745D01*
X132482359Y-67766736D01*
X132481445Y-67765258D01*
X132481220Y-67764444D01*
X132479811Y-67761613D01*
X132480364Y-67761337D01*
X132462886Y-67697898D01*
X132483692Y-67631198D01*
X132529239Y-67590182D01*
X132661751Y-67520634D01*
X132789082Y-67407829D01*
X132885717Y-67267830D01*
X132946039Y-67108772D01*
X132961086Y-66984844D01*
X132988708Y-66920668D01*
X132996490Y-66912122D01*
X133452831Y-66455781D01*
X133473468Y-66439151D01*
X133477528Y-66436543D01*
X133510053Y-66399005D01*
X133516058Y-66392555D01*
X133525621Y-66382993D01*
X133533716Y-66372178D01*
X133539259Y-66365299D01*
X133571777Y-66327773D01*
X133573775Y-66323395D01*
X133587307Y-66300589D01*
X133590196Y-66296731D01*
X133607549Y-66250201D01*
X133610934Y-66242030D01*
X133612135Y-66239400D01*
X133631565Y-66196857D01*
X133632250Y-66192085D01*
X133638809Y-66166392D01*
X133640491Y-66161883D01*
X133644033Y-66112351D01*
X133644980Y-66103548D01*
X133646900Y-66090199D01*
X133646900Y-66076708D01*
X133647216Y-66067861D01*
X133647637Y-66061970D01*
X133650759Y-66018327D01*
X133649732Y-66013606D01*
X133646900Y-65987258D01*
X133646900Y-47911604D01*
X133666585Y-47844565D01*
X133670385Y-47839546D01*
X133670322Y-47839503D01*
X133729032Y-47754446D01*
X133771218Y-47693330D01*
X133831540Y-47534272D01*
X133852045Y-47365400D01*
X133843976Y-47298946D01*
X133855436Y-47230023D01*
X133902340Y-47178237D01*
X133967072Y-47160000D01*
X144378024Y-47160000D01*
X144445063Y-47179685D01*
X144490818Y-47232489D01*
X144500762Y-47301647D01*
X144471737Y-47365203D01*
X144465712Y-47371673D01*
X144255429Y-47581956D01*
X144099569Y-47737816D01*
X144078937Y-47754444D01*
X144074872Y-47757057D01*
X144074867Y-47757061D01*
X144042353Y-47794584D01*
X144036329Y-47801054D01*
X144026780Y-47810603D01*
X144018678Y-47821426D01*
X144013132Y-47828308D01*
X143980624Y-47865825D01*
X143980617Y-47865836D01*
X143978615Y-47870220D01*
X143965100Y-47892999D01*
X143962206Y-47896864D01*
X143962200Y-47896875D01*
X143944851Y-47943391D01*
X143941466Y-47951565D01*
X143920835Y-47996743D01*
X143920833Y-47996750D01*
X143920146Y-48001527D01*
X143913598Y-48027186D01*
X143911910Y-48031713D01*
X143911909Y-48031716D01*
X143908365Y-48081254D01*
X143907420Y-48090045D01*
X143905500Y-48103400D01*
X143905500Y-48116890D01*
X143905184Y-48125737D01*
X143901641Y-48175269D01*
X143901641Y-48175273D01*
X143902666Y-48179985D01*
X143905500Y-48206343D01*
X143905500Y-56338858D01*
X143902667Y-56365206D01*
X143901641Y-56369927D01*
X143901641Y-56369929D01*
X143901641Y-56369930D01*
X143905184Y-56419461D01*
X143905500Y-56428308D01*
X143905500Y-56441797D01*
X143907420Y-56455154D01*
X143908365Y-56463946D01*
X143911909Y-56513486D01*
X143913593Y-56518000D01*
X143920148Y-56543682D01*
X143920834Y-56548455D01*
X143941457Y-56593612D01*
X143944845Y-56601790D01*
X143962203Y-56648329D01*
X143965096Y-56652194D01*
X143978617Y-56674983D01*
X143980619Y-56679367D01*
X143980622Y-56679372D01*
X143980623Y-56679373D01*
X144013144Y-56716904D01*
X144018688Y-56723785D01*
X144026779Y-56734593D01*
X144036333Y-56744147D01*
X144042353Y-56750614D01*
X144074872Y-56788143D01*
X144074874Y-56788145D01*
X144078928Y-56790750D01*
X144099571Y-56807385D01*
X144827817Y-57535631D01*
X144861302Y-57596954D01*
X144856318Y-57666646D01*
X144814446Y-57722579D01*
X144748982Y-57746996D01*
X144717352Y-57745201D01*
X144643128Y-57731326D01*
X144606610Y-57724500D01*
X144393390Y-57724500D01*
X144183802Y-57763679D01*
X144183799Y-57763679D01*
X144183799Y-57763680D01*
X143984982Y-57840701D01*
X143984980Y-57840702D01*
X143803699Y-57952947D01*
X143646126Y-58096594D01*
X143563959Y-58205400D01*
X143507850Y-58247035D01*
X143438138Y-58251726D01*
X143376956Y-58217983D01*
X143343730Y-58156520D01*
X143341648Y-58143273D01*
X143339505Y-58122303D01*
X143284358Y-57955880D01*
X143284356Y-57955875D01*
X143192315Y-57806654D01*
X143068345Y-57682684D01*
X142919124Y-57590643D01*
X142919119Y-57590641D01*
X142752697Y-57535494D01*
X142752690Y-57535493D01*
X142649986Y-57525000D01*
X142250000Y-57525000D01*
X142250000Y-58591981D01*
X142135199Y-58539554D01*
X142033975Y-58525000D01*
X141966025Y-58525000D01*
X141864801Y-58539554D01*
X141750000Y-58591981D01*
X141750000Y-57525000D01*
X141350028Y-57525000D01*
X141350012Y-57525001D01*
X141247302Y-57535494D01*
X141080880Y-57590641D01*
X141080875Y-57590643D01*
X140931654Y-57682684D01*
X140807684Y-57806654D01*
X140715643Y-57955875D01*
X140715641Y-57955880D01*
X140660494Y-58122302D01*
X140660493Y-58122309D01*
X140650000Y-58225013D01*
X140650000Y-58750000D01*
X141596031Y-58750000D01*
X141563481Y-58800649D01*
X141525000Y-58931705D01*
X141525000Y-59068295D01*
X141563481Y-59199351D01*
X141596031Y-59250000D01*
X140650001Y-59250000D01*
X140650001Y-59774986D01*
X140660494Y-59877697D01*
X140715641Y-60044119D01*
X140715643Y-60044124D01*
X140807684Y-60193345D01*
X140931654Y-60317315D01*
X141080875Y-60409356D01*
X141080880Y-60409358D01*
X141247302Y-60464505D01*
X141247309Y-60464506D01*
X141350019Y-60474999D01*
X141749999Y-60474999D01*
X141750000Y-60474998D01*
X141750000Y-59408018D01*
X141864801Y-59460446D01*
X141966025Y-59475000D01*
X142033975Y-59475000D01*
X142135199Y-59460446D01*
X142250000Y-59408018D01*
X142250000Y-60474999D01*
X142649972Y-60474999D01*
X142649986Y-60474998D01*
X142752697Y-60464505D01*
X142919119Y-60409358D01*
X142919124Y-60409356D01*
X143068345Y-60317315D01*
X143192315Y-60193345D01*
X143284356Y-60044124D01*
X143284358Y-60044119D01*
X143339505Y-59877697D01*
X143339506Y-59877688D01*
X143341648Y-59856727D01*
X143368042Y-59792035D01*
X143425222Y-59751882D01*
X143495033Y-59749018D01*
X143555311Y-59784350D01*
X143563960Y-59794600D01*
X143633485Y-59886666D01*
X143646128Y-59903407D01*
X143803698Y-60047052D01*
X143984981Y-60159298D01*
X144183802Y-60236321D01*
X144393390Y-60275500D01*
X144393392Y-60275500D01*
X144606608Y-60275500D01*
X144606610Y-60275500D01*
X144816198Y-60236321D01*
X145015019Y-60159298D01*
X145196302Y-60047052D01*
X145353872Y-59903407D01*
X145482366Y-59733255D01*
X145525429Y-59646772D01*
X145577403Y-59542394D01*
X145577403Y-59542393D01*
X145577405Y-59542389D01*
X145630734Y-59354959D01*
X145668014Y-59295867D01*
X145731323Y-59266310D01*
X145800563Y-59275672D01*
X145853749Y-59320982D01*
X145869265Y-59354959D01*
X145913892Y-59511803D01*
X145922596Y-59542392D01*
X145922596Y-59542394D01*
X146017632Y-59733253D01*
X146133562Y-59886767D01*
X146146128Y-59903407D01*
X146303698Y-60047052D01*
X146484981Y-60159298D01*
X146683802Y-60236321D01*
X146893390Y-60275500D01*
X146893392Y-60275500D01*
X147106608Y-60275500D01*
X147106610Y-60275500D01*
X147316198Y-60236321D01*
X147515019Y-60159298D01*
X147696302Y-60047052D01*
X147853872Y-59903407D01*
X147982366Y-59733255D01*
X148025429Y-59646772D01*
X148077403Y-59542394D01*
X148077403Y-59542393D01*
X148077405Y-59542389D01*
X148130734Y-59354959D01*
X148168014Y-59295867D01*
X148231323Y-59266310D01*
X148300563Y-59275672D01*
X148353749Y-59320982D01*
X148369265Y-59354959D01*
X148413892Y-59511803D01*
X148422596Y-59542392D01*
X148422596Y-59542394D01*
X148517632Y-59733253D01*
X148633562Y-59886767D01*
X148646128Y-59903407D01*
X148803698Y-60047052D01*
X148803700Y-60047053D01*
X148803701Y-60047054D01*
X148940777Y-60131928D01*
X148987413Y-60183956D01*
X148999500Y-60237355D01*
X148999500Y-60244411D01*
X148988295Y-60295920D01*
X148975636Y-60323640D01*
X148975633Y-60323650D01*
X148974946Y-60328427D01*
X148968398Y-60354086D01*
X148966710Y-60358613D01*
X148966709Y-60358616D01*
X148963165Y-60408154D01*
X148962220Y-60416945D01*
X148960300Y-60430300D01*
X148960300Y-60443790D01*
X148959984Y-60452637D01*
X148956441Y-60502169D01*
X148956441Y-60502173D01*
X148957466Y-60506885D01*
X148960300Y-60533243D01*
X148960300Y-66966758D01*
X148957467Y-66993106D01*
X148956441Y-66997827D01*
X148956441Y-66997829D01*
X148956441Y-66997830D01*
X148959984Y-67047361D01*
X148960300Y-67056208D01*
X148960300Y-67069697D01*
X148962220Y-67083054D01*
X148963165Y-67091846D01*
X148966709Y-67141386D01*
X148968393Y-67145900D01*
X148974948Y-67171582D01*
X148975635Y-67176357D01*
X148988295Y-67204078D01*
X148999500Y-67255587D01*
X148999500Y-67262644D01*
X148979815Y-67329683D01*
X148940778Y-67368071D01*
X148803699Y-67452947D01*
X148646127Y-67596593D01*
X148517632Y-67766746D01*
X148422596Y-67957605D01*
X148422596Y-67957607D01*
X148369266Y-68145039D01*
X148331986Y-68204132D01*
X148268676Y-68233689D01*
X148199437Y-68224327D01*
X148146251Y-68179017D01*
X148130734Y-68145039D01*
X148115449Y-68091319D01*
X148077405Y-67957611D01*
X148077403Y-67957606D01*
X148077403Y-67957605D01*
X147982367Y-67766746D01*
X147853872Y-67596593D01*
X147844726Y-67588255D01*
X147696302Y-67452948D01*
X147515019Y-67340702D01*
X147515017Y-67340701D01*
X147415608Y-67302190D01*
X147316198Y-67263679D01*
X147106610Y-67224500D01*
X146893390Y-67224500D01*
X146683802Y-67263679D01*
X146683799Y-67263679D01*
X146683799Y-67263680D01*
X146484982Y-67340701D01*
X146484980Y-67340702D01*
X146303699Y-67452947D01*
X146146127Y-67596593D01*
X146017632Y-67766746D01*
X145922596Y-67957605D01*
X145922596Y-67957607D01*
X145869266Y-68145039D01*
X145831986Y-68204132D01*
X145768676Y-68233689D01*
X145699437Y-68224327D01*
X145646251Y-68179017D01*
X145630734Y-68145039D01*
X145615449Y-68091319D01*
X145577405Y-67957611D01*
X145577403Y-67957606D01*
X145577403Y-67957605D01*
X145482367Y-67766746D01*
X145353872Y-67596593D01*
X145344726Y-67588255D01*
X145196302Y-67452948D01*
X145015019Y-67340702D01*
X145015017Y-67340701D01*
X144915608Y-67302190D01*
X144816198Y-67263679D01*
X144606610Y-67224500D01*
X144393390Y-67224500D01*
X144183802Y-67263679D01*
X144183799Y-67263679D01*
X144183799Y-67263680D01*
X143984982Y-67340701D01*
X143984980Y-67340702D01*
X143803699Y-67452947D01*
X143646126Y-67596594D01*
X143563959Y-67705400D01*
X143507850Y-67747035D01*
X143438138Y-67751726D01*
X143376956Y-67717983D01*
X143343730Y-67656520D01*
X143341648Y-67643273D01*
X143339505Y-67622303D01*
X143284358Y-67455880D01*
X143284356Y-67455875D01*
X143192315Y-67306654D01*
X143068345Y-67182684D01*
X142919124Y-67090643D01*
X142919119Y-67090641D01*
X142752697Y-67035494D01*
X142752690Y-67035493D01*
X142649986Y-67025000D01*
X142250000Y-67025000D01*
X142250000Y-68091981D01*
X142135199Y-68039554D01*
X142033975Y-68025000D01*
X141966025Y-68025000D01*
X141864801Y-68039554D01*
X141750000Y-68091981D01*
X141750000Y-67025000D01*
X141350028Y-67025000D01*
X141350012Y-67025001D01*
X141247302Y-67035494D01*
X141080880Y-67090641D01*
X141080875Y-67090643D01*
X140931654Y-67182684D01*
X140807684Y-67306654D01*
X140715643Y-67455875D01*
X140715641Y-67455880D01*
X140660494Y-67622302D01*
X140660493Y-67622309D01*
X140650000Y-67725013D01*
X140650000Y-68250000D01*
X141596031Y-68250000D01*
X141563481Y-68300649D01*
X141525000Y-68431705D01*
X141525000Y-68568295D01*
X141563481Y-68699351D01*
X141596031Y-68750000D01*
X140650001Y-68750000D01*
X140650001Y-69274986D01*
X140660494Y-69377697D01*
X140715641Y-69544119D01*
X140715643Y-69544124D01*
X140807684Y-69693345D01*
X140931654Y-69817315D01*
X141080875Y-69909356D01*
X141080880Y-69909358D01*
X141247302Y-69964505D01*
X141247309Y-69964506D01*
X141350019Y-69974999D01*
X141749999Y-69974999D01*
X141750000Y-69974998D01*
X141750000Y-68908018D01*
X141864801Y-68960446D01*
X141966025Y-68975000D01*
X142033975Y-68975000D01*
X142135199Y-68960446D01*
X142250000Y-68908018D01*
X142250000Y-69974999D01*
X142649972Y-69974999D01*
X142649986Y-69974998D01*
X142752697Y-69964505D01*
X142919119Y-69909358D01*
X142919124Y-69909356D01*
X143068345Y-69817315D01*
X143192315Y-69693345D01*
X143284356Y-69544124D01*
X143284358Y-69544119D01*
X143339505Y-69377697D01*
X143339506Y-69377688D01*
X143341648Y-69356727D01*
X143368042Y-69292035D01*
X143425222Y-69251882D01*
X143495033Y-69249018D01*
X143555311Y-69284350D01*
X143563960Y-69294600D01*
X143643177Y-69399500D01*
X143646128Y-69403407D01*
X143803698Y-69547052D01*
X143984981Y-69659298D01*
X144183802Y-69736321D01*
X144393390Y-69775500D01*
X144393392Y-69775500D01*
X144606608Y-69775500D01*
X144606610Y-69775500D01*
X144816198Y-69736321D01*
X145015019Y-69659298D01*
X145196302Y-69547052D01*
X145353872Y-69403407D01*
X145482366Y-69233255D01*
X145482367Y-69233253D01*
X145577403Y-69042394D01*
X145577403Y-69042393D01*
X145577405Y-69042389D01*
X145630734Y-68854959D01*
X145668014Y-68795867D01*
X145731323Y-68766310D01*
X145800563Y-68775672D01*
X145853749Y-68820982D01*
X145869265Y-68854959D01*
X145880423Y-68894174D01*
X145922596Y-69042392D01*
X145922596Y-69042394D01*
X146017632Y-69233253D01*
X146146127Y-69403406D01*
X146146128Y-69403407D01*
X146303698Y-69547052D01*
X146484981Y-69659298D01*
X146683802Y-69736321D01*
X146893390Y-69775500D01*
X146893392Y-69775500D01*
X147106608Y-69775500D01*
X147106610Y-69775500D01*
X147316198Y-69736321D01*
X147515019Y-69659298D01*
X147696302Y-69547052D01*
X147853872Y-69403407D01*
X147982366Y-69233255D01*
X147982367Y-69233253D01*
X148077403Y-69042394D01*
X148077403Y-69042393D01*
X148077405Y-69042389D01*
X148130734Y-68854959D01*
X148168014Y-68795867D01*
X148231323Y-68766310D01*
X148300563Y-68775672D01*
X148353749Y-68820982D01*
X148369265Y-68854959D01*
X148380423Y-68894174D01*
X148422596Y-69042392D01*
X148422596Y-69042394D01*
X148517632Y-69233253D01*
X148646127Y-69403406D01*
X148646128Y-69403407D01*
X148803698Y-69547052D01*
X148803700Y-69547053D01*
X148803701Y-69547054D01*
X148940777Y-69631928D01*
X148987413Y-69683956D01*
X148999500Y-69737355D01*
X148999500Y-76762644D01*
X148979815Y-76829683D01*
X148940778Y-76868071D01*
X148803699Y-76952947D01*
X148646127Y-77096593D01*
X148517632Y-77266746D01*
X148422596Y-77457605D01*
X148422596Y-77457607D01*
X148369266Y-77645039D01*
X148331986Y-77704132D01*
X148268676Y-77733689D01*
X148199437Y-77724327D01*
X148146251Y-77679017D01*
X148130734Y-77645039D01*
X148105796Y-77557394D01*
X148077405Y-77457611D01*
X148077403Y-77457606D01*
X148077403Y-77457605D01*
X147982367Y-77266746D01*
X147853872Y-77096593D01*
X147810784Y-77057313D01*
X147696302Y-76952948D01*
X147515019Y-76840702D01*
X147515017Y-76840701D01*
X147415608Y-76802190D01*
X147316198Y-76763679D01*
X147106610Y-76724500D01*
X146893390Y-76724500D01*
X146683802Y-76763679D01*
X146683799Y-76763679D01*
X146683799Y-76763680D01*
X146484982Y-76840701D01*
X146484980Y-76840702D01*
X146303699Y-76952947D01*
X146146127Y-77096593D01*
X146017632Y-77266746D01*
X145922596Y-77457605D01*
X145922596Y-77457607D01*
X145869266Y-77645039D01*
X145831986Y-77704132D01*
X145768676Y-77733689D01*
X145699437Y-77724327D01*
X145646251Y-77679017D01*
X145630734Y-77645039D01*
X145605796Y-77557394D01*
X145577405Y-77457611D01*
X145577403Y-77457606D01*
X145577403Y-77457605D01*
X145482367Y-77266746D01*
X145353872Y-77096593D01*
X145310784Y-77057313D01*
X145196302Y-76952948D01*
X145015019Y-76840702D01*
X145015017Y-76840701D01*
X144915608Y-76802190D01*
X144816198Y-76763679D01*
X144606610Y-76724500D01*
X144393390Y-76724500D01*
X144183802Y-76763679D01*
X144183799Y-76763679D01*
X144183799Y-76763680D01*
X143984982Y-76840701D01*
X143984980Y-76840702D01*
X143803699Y-76952947D01*
X143646126Y-77096594D01*
X143563959Y-77205400D01*
X143507850Y-77247035D01*
X143438138Y-77251726D01*
X143376956Y-77217983D01*
X143343730Y-77156520D01*
X143341648Y-77143273D01*
X143339505Y-77122303D01*
X143284358Y-76955880D01*
X143284356Y-76955875D01*
X143192315Y-76806654D01*
X143068345Y-76682684D01*
X142919124Y-76590643D01*
X142919119Y-76590641D01*
X142752697Y-76535494D01*
X142752690Y-76535493D01*
X142649986Y-76525000D01*
X142250000Y-76525000D01*
X142250000Y-77591981D01*
X142135199Y-77539554D01*
X142033975Y-77525000D01*
X141966025Y-77525000D01*
X141864801Y-77539554D01*
X141750000Y-77591981D01*
X141750000Y-76525000D01*
X141350028Y-76525000D01*
X141350012Y-76525001D01*
X141247302Y-76535494D01*
X141080880Y-76590641D01*
X141080875Y-76590643D01*
X140931654Y-76682684D01*
X140807684Y-76806654D01*
X140715643Y-76955875D01*
X140715641Y-76955880D01*
X140660494Y-77122302D01*
X140660493Y-77122309D01*
X140650000Y-77225013D01*
X140650000Y-77750000D01*
X141596031Y-77750000D01*
X141563481Y-77800649D01*
X141525000Y-77931705D01*
X141525000Y-78068295D01*
X141563481Y-78199351D01*
X141596031Y-78250000D01*
X140650001Y-78250000D01*
X140650001Y-78774986D01*
X140660494Y-78877697D01*
X140715641Y-79044119D01*
X140715643Y-79044124D01*
X140807684Y-79193345D01*
X140931654Y-79317315D01*
X141080875Y-79409356D01*
X141080880Y-79409358D01*
X141247302Y-79464505D01*
X141247309Y-79464506D01*
X141350019Y-79474999D01*
X141749999Y-79474999D01*
X141750000Y-79474998D01*
X141750000Y-78408018D01*
X141864801Y-78460446D01*
X141966025Y-78475000D01*
X142033975Y-78475000D01*
X142135199Y-78460446D01*
X142250000Y-78408018D01*
X142250000Y-79474999D01*
X142649972Y-79474999D01*
X142649986Y-79474998D01*
X142752697Y-79464505D01*
X142919119Y-79409358D01*
X142919124Y-79409356D01*
X143068345Y-79317315D01*
X143192315Y-79193345D01*
X143284356Y-79044124D01*
X143284358Y-79044119D01*
X143339505Y-78877697D01*
X143339506Y-78877688D01*
X143341648Y-78856727D01*
X143368042Y-78792035D01*
X143425222Y-78751882D01*
X143495033Y-78749018D01*
X143555311Y-78784350D01*
X143563960Y-78794600D01*
X143642023Y-78897972D01*
X143646128Y-78903407D01*
X143803698Y-79047052D01*
X143984981Y-79159298D01*
X144183802Y-79236321D01*
X144393390Y-79275500D01*
X144393392Y-79275500D01*
X144606608Y-79275500D01*
X144606610Y-79275500D01*
X144816198Y-79236321D01*
X145015019Y-79159298D01*
X145196302Y-79047052D01*
X145353872Y-78903407D01*
X145482366Y-78733255D01*
X145504848Y-78688105D01*
X145577403Y-78542394D01*
X145577403Y-78542393D01*
X145577405Y-78542389D01*
X145630734Y-78354959D01*
X145668014Y-78295867D01*
X145731323Y-78266310D01*
X145800563Y-78275672D01*
X145853749Y-78320982D01*
X145869265Y-78354959D01*
X145919607Y-78531889D01*
X145922596Y-78542392D01*
X145922596Y-78542394D01*
X146017632Y-78733253D01*
X146144758Y-78901593D01*
X146146128Y-78903407D01*
X146303698Y-79047052D01*
X146303700Y-79047053D01*
X146303701Y-79047054D01*
X146440777Y-79131928D01*
X146487413Y-79183956D01*
X146499500Y-79237355D01*
X146499500Y-82298758D01*
X146496667Y-82325106D01*
X146495641Y-82329827D01*
X146495641Y-82329829D01*
X146495641Y-82329830D01*
X146499184Y-82379361D01*
X146499500Y-82388208D01*
X146499500Y-82401697D01*
X146501420Y-82415054D01*
X146502365Y-82423846D01*
X146505909Y-82473386D01*
X146507593Y-82477900D01*
X146514148Y-82503582D01*
X146514834Y-82508355D01*
X146535457Y-82553512D01*
X146538845Y-82561690D01*
X146556203Y-82608229D01*
X146559096Y-82612094D01*
X146572617Y-82634883D01*
X146574619Y-82639267D01*
X146574622Y-82639272D01*
X146574623Y-82639273D01*
X146607144Y-82676804D01*
X146612688Y-82683685D01*
X146620779Y-82694493D01*
X146630333Y-82704047D01*
X146636353Y-82710514D01*
X146668872Y-82748043D01*
X146668874Y-82748045D01*
X146672928Y-82750650D01*
X146693571Y-82767285D01*
X147956496Y-84030210D01*
X147989981Y-84091533D01*
X147991911Y-84102943D01*
X148006959Y-84226870D01*
X148006960Y-84226875D01*
X148067282Y-84385930D01*
X148067282Y-84385931D01*
X148109983Y-84447793D01*
X148163917Y-84525929D01*
X148267866Y-84618019D01*
X148291250Y-84638736D01*
X148441873Y-84717789D01*
X148441875Y-84717790D01*
X148607044Y-84758500D01*
X148777156Y-84758500D01*
X148935225Y-84719540D01*
X149005028Y-84722609D01*
X149062090Y-84762929D01*
X149088295Y-84827699D01*
X149088900Y-84839937D01*
X149088900Y-85741490D01*
X149077690Y-85793011D01*
X149072616Y-85804119D01*
X149059100Y-85826899D01*
X149056206Y-85830764D01*
X149056200Y-85830775D01*
X149038851Y-85877291D01*
X149035466Y-85885465D01*
X149014835Y-85930643D01*
X149014833Y-85930650D01*
X149014146Y-85935427D01*
X149007598Y-85961086D01*
X149005910Y-85965613D01*
X149005909Y-85965616D01*
X149002365Y-86015154D01*
X149001420Y-86023945D01*
X148999500Y-86037300D01*
X148999500Y-86050790D01*
X148999184Y-86059637D01*
X148995641Y-86109169D01*
X148995641Y-86109173D01*
X148996666Y-86113885D01*
X148999500Y-86140243D01*
X148999500Y-86262644D01*
X148979815Y-86329683D01*
X148940778Y-86368071D01*
X148803699Y-86452947D01*
X148646127Y-86596593D01*
X148517632Y-86766746D01*
X148422596Y-86957605D01*
X148422596Y-86957607D01*
X148369266Y-87145039D01*
X148331986Y-87204132D01*
X148268676Y-87233689D01*
X148199437Y-87224327D01*
X148146251Y-87179017D01*
X148130734Y-87145039D01*
X148096579Y-87025000D01*
X148077405Y-86957611D01*
X148077403Y-86957606D01*
X148077403Y-86957605D01*
X147982367Y-86766746D01*
X147853872Y-86596593D01*
X147825427Y-86570662D01*
X147696302Y-86452948D01*
X147515019Y-86340702D01*
X147515017Y-86340701D01*
X147415608Y-86302190D01*
X147316198Y-86263679D01*
X147106610Y-86224500D01*
X146893390Y-86224500D01*
X146683802Y-86263679D01*
X146683799Y-86263679D01*
X146683799Y-86263680D01*
X146484982Y-86340701D01*
X146484980Y-86340702D01*
X146303699Y-86452947D01*
X146146127Y-86596593D01*
X146017632Y-86766746D01*
X145922596Y-86957605D01*
X145922596Y-86957607D01*
X145869266Y-87145039D01*
X145831986Y-87204132D01*
X145768676Y-87233689D01*
X145699437Y-87224327D01*
X145646251Y-87179017D01*
X145630734Y-87145039D01*
X145596579Y-87025000D01*
X145577405Y-86957611D01*
X145577403Y-86957606D01*
X145577403Y-86957605D01*
X145482367Y-86766746D01*
X145353872Y-86596593D01*
X145325427Y-86570662D01*
X145196302Y-86452948D01*
X145015019Y-86340702D01*
X145015017Y-86340701D01*
X144915608Y-86302190D01*
X144816198Y-86263679D01*
X144606610Y-86224500D01*
X144393390Y-86224500D01*
X144183802Y-86263679D01*
X144183799Y-86263679D01*
X144183799Y-86263680D01*
X143984982Y-86340701D01*
X143984980Y-86340702D01*
X143803699Y-86452947D01*
X143646126Y-86596594D01*
X143563959Y-86705400D01*
X143507850Y-86747035D01*
X143438138Y-86751726D01*
X143376956Y-86717983D01*
X143343730Y-86656520D01*
X143341648Y-86643273D01*
X143339505Y-86622303D01*
X143284358Y-86455880D01*
X143284356Y-86455875D01*
X143192315Y-86306654D01*
X143068345Y-86182684D01*
X142919124Y-86090643D01*
X142919119Y-86090641D01*
X142752697Y-86035494D01*
X142752690Y-86035493D01*
X142649986Y-86025000D01*
X142250000Y-86025000D01*
X142250000Y-87091981D01*
X142135199Y-87039554D01*
X142033975Y-87025000D01*
X141966025Y-87025000D01*
X141864801Y-87039554D01*
X141750000Y-87091981D01*
X141750000Y-86025000D01*
X141350028Y-86025000D01*
X141350012Y-86025001D01*
X141247302Y-86035494D01*
X141080880Y-86090641D01*
X141080875Y-86090643D01*
X140931654Y-86182684D01*
X140807684Y-86306654D01*
X140715643Y-86455875D01*
X140715641Y-86455880D01*
X140660494Y-86622302D01*
X140660493Y-86622309D01*
X140650000Y-86725013D01*
X140650000Y-87250000D01*
X141596031Y-87250000D01*
X141563481Y-87300649D01*
X141525000Y-87431705D01*
X141525000Y-87568295D01*
X141563481Y-87699351D01*
X141596031Y-87750000D01*
X140650001Y-87750000D01*
X140650001Y-88274986D01*
X140660494Y-88377697D01*
X140715641Y-88544119D01*
X140715643Y-88544124D01*
X140807684Y-88693345D01*
X140931654Y-88817315D01*
X141080875Y-88909356D01*
X141080880Y-88909358D01*
X141247302Y-88964505D01*
X141247309Y-88964506D01*
X141350019Y-88974999D01*
X141749999Y-88974999D01*
X141750000Y-88974998D01*
X141750000Y-87908018D01*
X141864801Y-87960446D01*
X141966025Y-87975000D01*
X142033975Y-87975000D01*
X142135199Y-87960446D01*
X142250000Y-87908018D01*
X142250000Y-88974999D01*
X142649972Y-88974999D01*
X142649986Y-88974998D01*
X142752697Y-88964505D01*
X142919119Y-88909358D01*
X142919124Y-88909356D01*
X143068345Y-88817315D01*
X143192315Y-88693345D01*
X143284356Y-88544124D01*
X143284358Y-88544119D01*
X143339505Y-88377697D01*
X143339506Y-88377688D01*
X143341648Y-88356727D01*
X143368042Y-88292035D01*
X143425222Y-88251882D01*
X143495033Y-88249018D01*
X143555311Y-88284350D01*
X143563960Y-88294600D01*
X143626712Y-88377697D01*
X143646128Y-88403407D01*
X143803698Y-88547052D01*
X143984981Y-88659298D01*
X144183802Y-88736321D01*
X144393390Y-88775500D01*
X144393392Y-88775500D01*
X144606608Y-88775500D01*
X144606610Y-88775500D01*
X144816198Y-88736321D01*
X145015019Y-88659298D01*
X145196302Y-88547052D01*
X145353872Y-88403407D01*
X145482366Y-88233255D01*
X145557668Y-88082027D01*
X145577403Y-88042394D01*
X145577403Y-88042393D01*
X145577405Y-88042389D01*
X145630734Y-87854959D01*
X145668014Y-87795867D01*
X145731323Y-87766310D01*
X145800563Y-87775672D01*
X145853749Y-87820982D01*
X145869266Y-87854960D01*
X145922596Y-88042392D01*
X145922596Y-88042394D01*
X146017632Y-88233253D01*
X146146127Y-88403406D01*
X146146128Y-88403407D01*
X146303698Y-88547052D01*
X146484981Y-88659298D01*
X146683802Y-88736321D01*
X146893390Y-88775500D01*
X146893392Y-88775500D01*
X147106608Y-88775500D01*
X147106610Y-88775500D01*
X147316198Y-88736321D01*
X147393885Y-88706224D01*
X147463503Y-88700362D01*
X147525243Y-88733071D01*
X147526356Y-88734170D01*
X154152114Y-95359928D01*
X154168746Y-95380566D01*
X154171354Y-95384625D01*
X154171357Y-95384628D01*
X154208900Y-95417158D01*
X154215363Y-95423177D01*
X154224907Y-95432721D01*
X154224913Y-95432726D01*
X154224916Y-95432728D01*
X154235707Y-95440806D01*
X154242600Y-95446360D01*
X154280127Y-95478877D01*
X154284510Y-95480879D01*
X154307307Y-95494405D01*
X154311169Y-95497296D01*
X154357712Y-95514655D01*
X154365860Y-95518030D01*
X154393173Y-95530504D01*
X154411040Y-95538664D01*
X154411041Y-95538664D01*
X154411043Y-95538665D01*
X154415812Y-95539350D01*
X154441502Y-95545907D01*
X154446017Y-95547591D01*
X154495549Y-95551133D01*
X154504343Y-95552079D01*
X154517701Y-95554000D01*
X154531192Y-95554000D01*
X154540038Y-95554315D01*
X154589573Y-95557859D01*
X154594285Y-95556834D01*
X154620643Y-95554000D01*
X196625824Y-95554000D01*
X196692863Y-95573685D01*
X196738618Y-95626489D01*
X196748562Y-95695647D01*
X196719537Y-95759203D01*
X196713505Y-95765681D01*
X193801505Y-98677681D01*
X193740182Y-98711166D01*
X193713824Y-98714000D01*
X146316003Y-98714000D01*
X146248964Y-98694315D01*
X146203209Y-98641511D01*
X146193265Y-98572353D01*
X146222290Y-98508797D01*
X146250725Y-98484573D01*
X146253645Y-98482765D01*
X146416302Y-98382052D01*
X146573872Y-98238407D01*
X146702366Y-98068255D01*
X146756270Y-97960000D01*
X146797403Y-97877394D01*
X146797403Y-97877393D01*
X146797405Y-97877389D01*
X146855756Y-97672310D01*
X146875429Y-97460000D01*
X146855756Y-97247690D01*
X146797405Y-97042611D01*
X146797403Y-97042606D01*
X146797403Y-97042605D01*
X146702367Y-96851746D01*
X146573872Y-96681593D01*
X146416302Y-96537948D01*
X146235019Y-96425702D01*
X146235017Y-96425701D01*
X146135608Y-96387190D01*
X146036198Y-96348679D01*
X145826610Y-96309500D01*
X145613390Y-96309500D01*
X145403802Y-96348679D01*
X145403799Y-96348679D01*
X145403799Y-96348680D01*
X145204982Y-96425701D01*
X145204980Y-96425702D01*
X145023699Y-96537947D01*
X144866127Y-96681593D01*
X144737634Y-96851744D01*
X144670676Y-96986215D01*
X144623173Y-97037452D01*
X144555510Y-97054873D01*
X144489170Y-97032947D01*
X144447294Y-96983348D01*
X144353600Y-96782422D01*
X144353599Y-96782420D01*
X144218113Y-96588926D01*
X144218108Y-96588920D01*
X144051082Y-96421894D01*
X143857578Y-96286399D01*
X143643492Y-96186570D01*
X143643486Y-96186567D01*
X143430000Y-96129364D01*
X143430000Y-97024498D01*
X143322315Y-96975320D01*
X143215763Y-96960000D01*
X143144237Y-96960000D01*
X143037685Y-96975320D01*
X142930000Y-97024498D01*
X142930000Y-96129364D01*
X142929999Y-96129364D01*
X142716513Y-96186567D01*
X142716507Y-96186570D01*
X142502421Y-96286400D01*
X142308926Y-96421886D01*
X142308920Y-96421891D01*
X142141891Y-96588920D01*
X142141890Y-96588922D01*
X142011575Y-96775031D01*
X141956998Y-96818655D01*
X141887499Y-96825848D01*
X141825145Y-96794326D01*
X141808425Y-96775031D01*
X141678109Y-96588922D01*
X141678108Y-96588920D01*
X141511082Y-96421894D01*
X141317578Y-96286399D01*
X141103492Y-96186570D01*
X141103486Y-96186567D01*
X140890000Y-96129364D01*
X140890000Y-97024498D01*
X140782315Y-96975320D01*
X140675763Y-96960000D01*
X140604237Y-96960000D01*
X140497685Y-96975320D01*
X140390000Y-97024498D01*
X140390000Y-96129364D01*
X140389999Y-96129364D01*
X140176513Y-96186567D01*
X140176507Y-96186570D01*
X139962421Y-96286400D01*
X139768926Y-96421886D01*
X139768920Y-96421891D01*
X139601891Y-96588920D01*
X139601886Y-96588926D01*
X139466400Y-96782420D01*
X139466399Y-96782422D01*
X139372705Y-96983348D01*
X139326532Y-97035787D01*
X139259339Y-97054939D01*
X139192457Y-97034723D01*
X139149323Y-96986215D01*
X139082366Y-96851745D01*
X139062809Y-96825848D01*
X138953872Y-96681593D01*
X138796302Y-96537948D01*
X138746409Y-96507055D01*
X138659222Y-96453071D01*
X138612587Y-96401043D01*
X138600500Y-96347644D01*
X138600500Y-96225243D01*
X138603334Y-96198885D01*
X138604359Y-96194173D01*
X138600816Y-96144637D01*
X138600500Y-96135790D01*
X138600500Y-96122301D01*
X138598579Y-96108943D01*
X138597633Y-96100145D01*
X138594091Y-96050617D01*
X138592407Y-96046102D01*
X138585850Y-96020412D01*
X138585165Y-96015643D01*
X138564530Y-95970460D01*
X138561155Y-95962312D01*
X138543796Y-95915769D01*
X138540905Y-95911907D01*
X138527379Y-95889110D01*
X138525377Y-95884727D01*
X138509464Y-95866362D01*
X138492860Y-95847200D01*
X138487306Y-95840307D01*
X138479228Y-95829516D01*
X138479226Y-95829513D01*
X138479221Y-95829507D01*
X138469677Y-95819963D01*
X138463658Y-95813500D01*
X138431128Y-95775957D01*
X138431125Y-95775954D01*
X138427066Y-95773346D01*
X138406428Y-95756714D01*
X132036819Y-89387105D01*
X132003334Y-89325782D01*
X132000500Y-89299424D01*
X132000500Y-88737355D01*
X132020185Y-88670316D01*
X132059223Y-88631928D01*
X132110937Y-88599908D01*
X132196302Y-88547052D01*
X132353872Y-88403407D01*
X132482366Y-88233255D01*
X132557668Y-88082027D01*
X132577403Y-88042394D01*
X132577403Y-88042393D01*
X132577405Y-88042389D01*
X132635756Y-87837310D01*
X132650500Y-87678194D01*
X132650500Y-87321806D01*
X132635756Y-87162690D01*
X132577405Y-86957611D01*
X132577403Y-86957606D01*
X132577403Y-86957605D01*
X132482367Y-86766746D01*
X132353872Y-86596593D01*
X132325427Y-86570662D01*
X132196302Y-86452948D01*
X132015019Y-86340702D01*
X132015017Y-86340701D01*
X131915608Y-86302190D01*
X131816198Y-86263679D01*
X131606610Y-86224500D01*
X131393390Y-86224500D01*
X131183802Y-86263679D01*
X131183799Y-86263679D01*
X131183799Y-86263680D01*
X130984982Y-86340701D01*
X130984980Y-86340702D01*
X130803699Y-86452947D01*
X130646127Y-86596593D01*
X130517632Y-86766746D01*
X130422596Y-86957605D01*
X130422596Y-86957607D01*
X130369266Y-87145039D01*
X130331986Y-87204132D01*
X130268676Y-87233689D01*
X130199437Y-87224327D01*
X130146251Y-87179017D01*
X130130734Y-87145039D01*
X130096579Y-87025000D01*
X130077405Y-86957611D01*
X130077403Y-86957606D01*
X130077403Y-86957605D01*
X129982367Y-86766746D01*
X129853872Y-86596593D01*
X129825427Y-86570662D01*
X129696302Y-86452948D01*
X129515019Y-86340702D01*
X129515017Y-86340701D01*
X129415608Y-86302190D01*
X129316198Y-86263679D01*
X129106610Y-86224500D01*
X128893390Y-86224500D01*
X128683802Y-86263679D01*
X128683799Y-86263679D01*
X128683799Y-86263680D01*
X128484982Y-86340701D01*
X128484980Y-86340702D01*
X128303699Y-86452947D01*
X128146127Y-86596593D01*
X128017632Y-86766746D01*
X127922596Y-86957605D01*
X127922596Y-86957607D01*
X127869266Y-87145039D01*
X127831986Y-87204132D01*
X127768676Y-87233689D01*
X127699437Y-87224327D01*
X127646251Y-87179017D01*
X127630734Y-87145039D01*
X127596579Y-87025000D01*
X127577405Y-86957611D01*
X127577403Y-86957606D01*
X127577403Y-86957605D01*
X127482367Y-86766746D01*
X127353872Y-86596593D01*
X127325427Y-86570662D01*
X127196302Y-86452948D01*
X127015019Y-86340702D01*
X127015017Y-86340701D01*
X126915608Y-86302190D01*
X126816198Y-86263679D01*
X126606610Y-86224500D01*
X126393390Y-86224500D01*
X126183802Y-86263679D01*
X126183799Y-86263679D01*
X126183799Y-86263680D01*
X125984982Y-86340701D01*
X125984980Y-86340702D01*
X125803699Y-86452947D01*
X125646126Y-86596594D01*
X125563959Y-86705400D01*
X125507850Y-86747035D01*
X125438138Y-86751726D01*
X125376956Y-86717983D01*
X125343730Y-86656520D01*
X125341648Y-86643273D01*
X125339505Y-86622303D01*
X125284358Y-86455880D01*
X125284356Y-86455875D01*
X125192315Y-86306654D01*
X125068345Y-86182684D01*
X124919124Y-86090643D01*
X124919119Y-86090641D01*
X124752697Y-86035494D01*
X124752690Y-86035493D01*
X124649986Y-86025000D01*
X124250000Y-86025000D01*
X124250000Y-87091981D01*
X124135199Y-87039554D01*
X124033975Y-87025000D01*
X123966025Y-87025000D01*
X123864801Y-87039554D01*
X123750000Y-87091981D01*
X123750000Y-86025000D01*
X123350028Y-86025000D01*
X123350012Y-86025001D01*
X123247302Y-86035494D01*
X123080880Y-86090641D01*
X123080875Y-86090643D01*
X122931654Y-86182684D01*
X122807684Y-86306654D01*
X122715643Y-86455875D01*
X122715641Y-86455880D01*
X122660494Y-86622302D01*
X122660493Y-86622309D01*
X122650000Y-86725013D01*
X122650000Y-87250000D01*
X123596031Y-87250000D01*
X123563481Y-87300649D01*
X123525000Y-87431705D01*
X123525000Y-87568295D01*
X123563481Y-87699351D01*
X123596031Y-87750000D01*
X122650001Y-87750000D01*
X122650001Y-88274986D01*
X122660494Y-88377697D01*
X122715641Y-88544119D01*
X122715643Y-88544124D01*
X122807684Y-88693345D01*
X122931654Y-88817315D01*
X123080875Y-88909356D01*
X123080880Y-88909358D01*
X123247302Y-88964505D01*
X123247309Y-88964506D01*
X123350019Y-88974999D01*
X123749999Y-88974999D01*
X123750000Y-88974998D01*
X123750000Y-87908018D01*
X123864801Y-87960446D01*
X123966025Y-87975000D01*
X124033975Y-87975000D01*
X124135199Y-87960446D01*
X124250000Y-87908018D01*
X124250000Y-88974999D01*
X124649972Y-88974999D01*
X124649986Y-88974998D01*
X124752697Y-88964505D01*
X124919119Y-88909358D01*
X124919124Y-88909356D01*
X125068345Y-88817315D01*
X125192315Y-88693345D01*
X125284356Y-88544124D01*
X125284358Y-88544119D01*
X125339505Y-88377697D01*
X125339506Y-88377688D01*
X125341648Y-88356727D01*
X125368042Y-88292035D01*
X125425222Y-88251882D01*
X125495033Y-88249018D01*
X125555311Y-88284350D01*
X125563960Y-88294600D01*
X125626712Y-88377697D01*
X125646128Y-88403407D01*
X125803698Y-88547052D01*
X125984981Y-88659298D01*
X126183802Y-88736321D01*
X126393390Y-88775500D01*
X126393392Y-88775500D01*
X126606607Y-88775500D01*
X126606610Y-88775500D01*
X126717353Y-88754798D01*
X126786864Y-88761829D01*
X126841543Y-88805326D01*
X126864026Y-88871480D01*
X126847174Y-88939287D01*
X126827816Y-88964368D01*
X126292568Y-89499616D01*
X126271938Y-89516243D01*
X126267876Y-89518854D01*
X126267867Y-89518861D01*
X126235353Y-89556384D01*
X126229329Y-89562854D01*
X126219780Y-89572403D01*
X126211678Y-89583226D01*
X126206132Y-89590108D01*
X126173624Y-89627625D01*
X126173617Y-89627636D01*
X126171615Y-89632020D01*
X126158100Y-89654799D01*
X126155206Y-89658664D01*
X126155200Y-89658675D01*
X126137851Y-89705191D01*
X126134466Y-89713365D01*
X126113835Y-89758543D01*
X126113833Y-89758550D01*
X126113146Y-89763327D01*
X126106598Y-89788986D01*
X126104910Y-89793513D01*
X126104909Y-89793516D01*
X126101365Y-89843054D01*
X126100420Y-89851845D01*
X126098500Y-89865200D01*
X126098500Y-89878690D01*
X126098184Y-89887537D01*
X126094641Y-89937069D01*
X126094641Y-89937073D01*
X126095666Y-89941785D01*
X126098500Y-89968143D01*
X126098500Y-98411558D01*
X126095667Y-98437906D01*
X126094641Y-98442627D01*
X126094641Y-98442629D01*
X126094641Y-98442630D01*
X126098184Y-98492161D01*
X126098500Y-98501008D01*
X126098500Y-98514497D01*
X126100420Y-98527854D01*
X126101365Y-98536646D01*
X126104909Y-98586186D01*
X126106593Y-98590700D01*
X126113148Y-98616382D01*
X126113834Y-98621155D01*
X126134457Y-98666312D01*
X126137845Y-98674490D01*
X126155203Y-98721029D01*
X126158096Y-98724894D01*
X126171617Y-98747683D01*
X126173619Y-98752067D01*
X126173622Y-98752072D01*
X126173623Y-98752073D01*
X126206144Y-98789604D01*
X126211688Y-98796485D01*
X126219779Y-98807293D01*
X126229333Y-98816847D01*
X126235353Y-98823314D01*
X126267872Y-98860843D01*
X126267874Y-98860845D01*
X126271928Y-98863450D01*
X126292571Y-98880085D01*
X126700805Y-99288319D01*
X126734290Y-99349642D01*
X126729306Y-99419334D01*
X126687434Y-99475267D01*
X126621970Y-99499684D01*
X126613124Y-99500000D01*
X115124000Y-99500000D01*
X115056961Y-99480315D01*
X115011206Y-99427511D01*
X115000000Y-99376000D01*
X115000000Y-99063551D01*
X115019685Y-98996512D01*
X115048215Y-98965405D01*
X115126961Y-98904600D01*
X115208177Y-98841888D01*
X115396186Y-98646881D01*
X115553799Y-98426579D01*
X115650545Y-98238407D01*
X115677649Y-98185690D01*
X115677651Y-98185684D01*
X115677656Y-98185675D01*
X115765118Y-97929305D01*
X115814319Y-97662933D01*
X115824212Y-97392235D01*
X115794586Y-97122982D01*
X115726072Y-96860912D01*
X115620130Y-96611610D01*
X115479018Y-96380390D01*
X115420023Y-96309500D01*
X115305746Y-96172180D01*
X115305740Y-96172175D01*
X115104003Y-95991419D01*
X115104002Y-95991418D01*
X115055579Y-95959381D01*
X115010531Y-95905973D01*
X115000000Y-95855966D01*
X115000000Y-85000000D01*
X100624000Y-85000000D01*
X100556961Y-84980315D01*
X100511206Y-84927511D01*
X100500000Y-84876000D01*
X100500000Y-73124000D01*
X100519685Y-73056961D01*
X100572489Y-73011206D01*
X100624000Y-73000000D01*
X118000000Y-73000000D01*
X118000000Y-55000000D01*
X100624000Y-55000000D01*
X100556961Y-54980315D01*
X100511206Y-54927511D01*
X100500000Y-54876000D01*
X100500000Y-47284000D01*
X100519685Y-47216961D01*
X100572489Y-47171206D01*
X100624000Y-47160000D01*
X114760127Y-47160000D01*
X114827166Y-47179685D01*
G37*
%TD.AperFunction*%
%TA.AperFunction,Conductor*%
G36*
X142720507Y-97250156D02*
G01*
X142680000Y-97388111D01*
X142680000Y-97531889D01*
X142720507Y-97669844D01*
X142746314Y-97710000D01*
X141073686Y-97710000D01*
X141099493Y-97669844D01*
X141140000Y-97531889D01*
X141140000Y-97388111D01*
X141099493Y-97250156D01*
X141073686Y-97210000D01*
X142746314Y-97210000D01*
X142720507Y-97250156D01*
G37*
%TD.AperFunction*%
%TA.AperFunction,Conductor*%
G36*
X192199064Y-47698185D02*
G01*
X192244819Y-47750989D01*
X192254763Y-47820147D01*
X192225738Y-47883703D01*
X192219706Y-47890181D01*
X187073273Y-53036612D01*
X187011950Y-53070097D01*
X186942258Y-53065113D01*
X186886325Y-53023241D01*
X186861908Y-52957777D01*
X186861908Y-52940093D01*
X186864359Y-52905827D01*
X186863332Y-52901106D01*
X186860500Y-52874758D01*
X186860500Y-50312354D01*
X186880185Y-50245315D01*
X186919222Y-50206927D01*
X187056301Y-50122052D01*
X187213871Y-49978407D01*
X187342365Y-49808255D01*
X187411549Y-49669314D01*
X187437402Y-49617394D01*
X187437402Y-49617393D01*
X187437404Y-49617389D01*
X187495755Y-49412310D01*
X187515428Y-49200000D01*
X187495755Y-48987690D01*
X187437404Y-48782611D01*
X187437402Y-48782606D01*
X187437402Y-48782605D01*
X187342366Y-48591746D01*
X187213871Y-48421593D01*
X187169638Y-48381269D01*
X187056301Y-48277948D01*
X186875018Y-48165702D01*
X186875016Y-48165701D01*
X186760454Y-48121320D01*
X186676197Y-48088679D01*
X186466609Y-48049500D01*
X186253389Y-48049500D01*
X186043801Y-48088679D01*
X186043798Y-48088679D01*
X186043798Y-48088680D01*
X185844981Y-48165701D01*
X185844979Y-48165702D01*
X185663698Y-48277947D01*
X185506126Y-48421593D01*
X185377631Y-48591746D01*
X185282595Y-48782605D01*
X185282595Y-48782607D01*
X185224243Y-48987689D01*
X185213470Y-49103951D01*
X185187684Y-49168888D01*
X185143129Y-49200804D01*
X185179502Y-49221668D01*
X185211692Y-49283681D01*
X185213469Y-49296047D01*
X185224243Y-49412310D01*
X185271943Y-49579957D01*
X185282595Y-49617392D01*
X185282595Y-49617394D01*
X185377631Y-49808253D01*
X185506126Y-49978406D01*
X185506127Y-49978407D01*
X185663697Y-50122052D01*
X185800778Y-50206929D01*
X185847413Y-50258955D01*
X185859500Y-50312355D01*
X185859500Y-52683224D01*
X185839815Y-52750263D01*
X185823181Y-52770905D01*
X181718904Y-56875181D01*
X181657581Y-56908666D01*
X181587889Y-56903682D01*
X181531956Y-56861810D01*
X181520223Y-56842772D01*
X181498094Y-56798331D01*
X181482366Y-56766745D01*
X181353872Y-56596593D01*
X181196302Y-56452948D01*
X181015019Y-56340702D01*
X181015017Y-56340701D01*
X180834489Y-56270765D01*
X180816198Y-56263679D01*
X180606610Y-56224500D01*
X180393390Y-56224500D01*
X180183802Y-56263679D01*
X180183799Y-56263679D01*
X180183799Y-56263680D01*
X179984982Y-56340701D01*
X179984980Y-56340702D01*
X179803699Y-56452947D01*
X179646127Y-56596593D01*
X179517632Y-56766746D01*
X179422596Y-56957605D01*
X179422596Y-56957607D01*
X179369266Y-57145039D01*
X179331986Y-57204132D01*
X179268676Y-57233689D01*
X179199437Y-57224327D01*
X179146251Y-57179017D01*
X179130734Y-57145039D01*
X179096579Y-57025000D01*
X179077405Y-56957611D01*
X179077403Y-56957606D01*
X179077403Y-56957605D01*
X178982367Y-56766746D01*
X178916384Y-56679372D01*
X178853872Y-56596593D01*
X178801067Y-56548455D01*
X178729741Y-56483432D01*
X178693459Y-56423721D01*
X178695220Y-56353873D01*
X178725596Y-56304116D01*
X184126431Y-50903281D01*
X184147071Y-50886650D01*
X184151128Y-50884043D01*
X184183653Y-50846505D01*
X184189658Y-50840055D01*
X184199221Y-50830493D01*
X184207316Y-50819678D01*
X184212859Y-50812799D01*
X184245377Y-50775273D01*
X184247375Y-50770895D01*
X184260907Y-50748089D01*
X184263796Y-50744231D01*
X184281149Y-50697701D01*
X184284534Y-50689530D01*
X184305165Y-50644357D01*
X184305850Y-50639585D01*
X184312409Y-50613892D01*
X184314091Y-50609383D01*
X184317634Y-50559846D01*
X184318580Y-50551048D01*
X184320500Y-50537699D01*
X184320500Y-50524208D01*
X184320816Y-50515361D01*
X184321207Y-50509900D01*
X184324359Y-50465827D01*
X184323332Y-50461106D01*
X184320500Y-50434758D01*
X184320500Y-50312354D01*
X184340185Y-50245315D01*
X184379222Y-50206927D01*
X184516301Y-50122052D01*
X184673871Y-49978407D01*
X184802365Y-49808255D01*
X184871549Y-49669314D01*
X184897402Y-49617394D01*
X184897402Y-49617393D01*
X184897404Y-49617389D01*
X184955755Y-49412310D01*
X184966528Y-49296047D01*
X184992314Y-49231111D01*
X185036868Y-49199194D01*
X185000496Y-49178331D01*
X184968306Y-49116318D01*
X184966528Y-49103951D01*
X184965848Y-49096613D01*
X184955755Y-48987690D01*
X184897404Y-48782611D01*
X184897402Y-48782606D01*
X184897402Y-48782605D01*
X184802366Y-48591746D01*
X184673871Y-48421593D01*
X184629638Y-48381269D01*
X184516301Y-48277948D01*
X184335018Y-48165702D01*
X184335016Y-48165701D01*
X184220454Y-48121320D01*
X184136197Y-48088679D01*
X183926609Y-48049500D01*
X183713389Y-48049500D01*
X183503801Y-48088679D01*
X183503798Y-48088679D01*
X183503798Y-48088680D01*
X183304981Y-48165701D01*
X183304979Y-48165702D01*
X183123698Y-48277947D01*
X182966126Y-48421593D01*
X182837631Y-48591746D01*
X182742595Y-48782605D01*
X182742595Y-48782607D01*
X182684243Y-48987689D01*
X182673470Y-49103951D01*
X182647684Y-49168888D01*
X182603129Y-49200804D01*
X182639502Y-49221668D01*
X182671692Y-49283681D01*
X182673469Y-49296047D01*
X182684243Y-49412310D01*
X182731943Y-49579957D01*
X182742595Y-49617392D01*
X182742595Y-49617394D01*
X182837631Y-49808253D01*
X182966126Y-49978406D01*
X182966127Y-49978407D01*
X183123697Y-50122052D01*
X183198412Y-50168314D01*
X183218081Y-50180492D01*
X183264717Y-50232519D01*
X183275821Y-50301501D01*
X183247868Y-50365536D01*
X183240485Y-50373600D01*
X178077805Y-55536281D01*
X178016482Y-55569766D01*
X177990124Y-55572600D01*
X177928039Y-55572600D01*
X177928036Y-55572600D01*
X177928034Y-55572601D01*
X177901842Y-55580290D01*
X177884568Y-55584048D01*
X177857544Y-55587934D01*
X177857541Y-55587935D01*
X177832710Y-55599275D01*
X177816141Y-55605455D01*
X177803171Y-55609263D01*
X177789947Y-55613147D01*
X177789945Y-55613147D01*
X177789945Y-55613148D01*
X177766982Y-55627905D01*
X177751461Y-55636380D01*
X177726628Y-55647721D01*
X177726625Y-55647723D01*
X177706000Y-55665595D01*
X177691840Y-55676195D01*
X177668876Y-55690953D01*
X177668871Y-55690957D01*
X177650993Y-55711589D01*
X177638489Y-55724093D01*
X177617857Y-55741971D01*
X177617853Y-55741976D01*
X177603095Y-55764940D01*
X177592495Y-55779100D01*
X177574623Y-55799725D01*
X177574621Y-55799728D01*
X177563280Y-55824561D01*
X177554806Y-55840079D01*
X177548205Y-55850350D01*
X177540048Y-55863045D01*
X177532355Y-55889241D01*
X177526175Y-55905810D01*
X177514835Y-55930641D01*
X177514834Y-55930644D01*
X177510948Y-55957668D01*
X177507190Y-55974942D01*
X177499501Y-56001134D01*
X177499500Y-56001142D01*
X177499500Y-56262644D01*
X177479815Y-56329683D01*
X177440778Y-56368071D01*
X177303699Y-56452947D01*
X177146127Y-56596593D01*
X177017632Y-56766746D01*
X176922596Y-56957605D01*
X176922596Y-56957607D01*
X176869266Y-57145039D01*
X176831986Y-57204132D01*
X176768676Y-57233689D01*
X176699437Y-57224327D01*
X176646251Y-57179017D01*
X176630734Y-57145039D01*
X176596579Y-57025000D01*
X176577405Y-56957611D01*
X176577403Y-56957606D01*
X176577403Y-56957605D01*
X176482367Y-56766746D01*
X176416384Y-56679372D01*
X176353872Y-56596593D01*
X176301981Y-56549288D01*
X176265702Y-56489580D01*
X176267462Y-56419732D01*
X176297838Y-56369974D01*
X180980995Y-51686819D01*
X181042318Y-51653334D01*
X181068676Y-51650500D01*
X181095056Y-51650500D01*
X181260225Y-51609790D01*
X181339692Y-51568081D01*
X181410849Y-51530736D01*
X181410850Y-51530734D01*
X181410852Y-51530734D01*
X181538183Y-51417929D01*
X181634818Y-51277930D01*
X181695140Y-51118872D01*
X181715645Y-50950000D01*
X181695140Y-50781128D01*
X181634818Y-50622070D01*
X181626061Y-50609384D01*
X181564211Y-50519779D01*
X181546683Y-50494386D01*
X181524801Y-50428033D01*
X181542266Y-50360381D01*
X181593534Y-50312911D01*
X181603922Y-50308328D01*
X181795018Y-50234298D01*
X181976301Y-50122052D01*
X182133871Y-49978407D01*
X182262365Y-49808255D01*
X182331549Y-49669314D01*
X182357402Y-49617394D01*
X182357402Y-49617393D01*
X182357404Y-49617389D01*
X182415755Y-49412310D01*
X182426528Y-49296047D01*
X182452314Y-49231111D01*
X182496868Y-49199194D01*
X182460496Y-49178331D01*
X182428306Y-49116318D01*
X182426528Y-49103951D01*
X182425848Y-49096613D01*
X182415755Y-48987690D01*
X182357404Y-48782611D01*
X182357402Y-48782606D01*
X182357402Y-48782605D01*
X182262366Y-48591746D01*
X182133871Y-48421593D01*
X182089638Y-48381269D01*
X181976301Y-48277948D01*
X181795018Y-48165702D01*
X181795016Y-48165701D01*
X181680454Y-48121320D01*
X181596197Y-48088679D01*
X181386609Y-48049500D01*
X181173389Y-48049500D01*
X180963801Y-48088679D01*
X180963798Y-48088679D01*
X180963798Y-48088680D01*
X180764981Y-48165701D01*
X180764979Y-48165702D01*
X180583698Y-48277947D01*
X180426126Y-48421593D01*
X180297631Y-48591746D01*
X180202595Y-48782605D01*
X180202595Y-48782607D01*
X180144243Y-48987689D01*
X180133470Y-49103951D01*
X180107684Y-49168888D01*
X180063129Y-49200804D01*
X180099502Y-49221668D01*
X180131692Y-49283681D01*
X180133470Y-49296048D01*
X180144242Y-49412309D01*
X180172064Y-49510089D01*
X180171478Y-49579957D01*
X180140479Y-49631705D01*
X180019693Y-49752491D01*
X179958370Y-49785976D01*
X179888678Y-49780992D01*
X179832745Y-49739120D01*
X179808328Y-49673656D01*
X179815948Y-49622934D01*
X179815835Y-49622902D01*
X179816084Y-49622023D01*
X179816387Y-49620013D01*
X179817399Y-49617398D01*
X179817404Y-49617389D01*
X179875755Y-49412310D01*
X179886528Y-49296047D01*
X179912314Y-49231111D01*
X179956868Y-49199194D01*
X179920496Y-49178331D01*
X179888306Y-49116318D01*
X179886528Y-49103951D01*
X179885848Y-49096613D01*
X179875755Y-48987690D01*
X179817404Y-48782611D01*
X179817402Y-48782606D01*
X179817402Y-48782605D01*
X179722366Y-48591746D01*
X179593871Y-48421593D01*
X179549638Y-48381269D01*
X179436301Y-48277948D01*
X179255018Y-48165702D01*
X179255016Y-48165701D01*
X179140454Y-48121320D01*
X179056197Y-48088679D01*
X178846609Y-48049500D01*
X178633389Y-48049500D01*
X178423801Y-48088679D01*
X178423798Y-48088679D01*
X178423798Y-48088680D01*
X178224981Y-48165701D01*
X178224979Y-48165702D01*
X178043698Y-48277947D01*
X177886126Y-48421593D01*
X177757631Y-48591746D01*
X177662595Y-48782605D01*
X177662595Y-48782607D01*
X177604243Y-48987689D01*
X177593470Y-49103951D01*
X177567684Y-49168888D01*
X177523129Y-49200804D01*
X177559502Y-49221668D01*
X177591692Y-49283681D01*
X177593470Y-49296048D01*
X177604242Y-49412309D01*
X177632064Y-49510089D01*
X177631478Y-49579957D01*
X177600479Y-49631705D01*
X177479693Y-49752491D01*
X177418370Y-49785976D01*
X177348678Y-49780992D01*
X177292745Y-49739120D01*
X177268328Y-49673656D01*
X177275948Y-49622934D01*
X177275835Y-49622902D01*
X177276084Y-49622023D01*
X177276387Y-49620013D01*
X177277399Y-49617398D01*
X177277404Y-49617389D01*
X177335755Y-49412310D01*
X177346528Y-49296047D01*
X177372314Y-49231111D01*
X177416868Y-49199194D01*
X177380496Y-49178331D01*
X177348306Y-49116318D01*
X177346528Y-49103951D01*
X177345848Y-49096613D01*
X177335755Y-48987690D01*
X177277404Y-48782611D01*
X177277402Y-48782606D01*
X177277402Y-48782605D01*
X177182366Y-48591746D01*
X177053871Y-48421593D01*
X177009638Y-48381269D01*
X176896301Y-48277948D01*
X176715018Y-48165702D01*
X176715016Y-48165701D01*
X176600454Y-48121320D01*
X176516197Y-48088679D01*
X176306609Y-48049500D01*
X176093389Y-48049500D01*
X175883801Y-48088679D01*
X175883798Y-48088679D01*
X175883798Y-48088680D01*
X175684981Y-48165701D01*
X175684979Y-48165702D01*
X175503698Y-48277947D01*
X175346126Y-48421593D01*
X175217631Y-48591746D01*
X175122595Y-48782605D01*
X175122595Y-48782607D01*
X175064243Y-48987689D01*
X175053470Y-49103951D01*
X175027684Y-49168888D01*
X174983129Y-49200804D01*
X175019502Y-49221668D01*
X175051692Y-49283681D01*
X175053469Y-49296047D01*
X175064243Y-49412310D01*
X175111943Y-49579957D01*
X175122595Y-49617392D01*
X175122595Y-49617394D01*
X175217631Y-49808253D01*
X175346126Y-49978406D01*
X175346127Y-49978407D01*
X175503697Y-50122052D01*
X175684980Y-50234298D01*
X175883801Y-50311321D01*
X176093389Y-50350500D01*
X176093391Y-50350500D01*
X176306607Y-50350500D01*
X176306609Y-50350500D01*
X176516197Y-50311321D01*
X176628642Y-50267760D01*
X176698265Y-50261897D01*
X176760005Y-50294607D01*
X176794260Y-50355503D01*
X176790155Y-50425252D01*
X176761117Y-50471067D01*
X174169005Y-53063181D01*
X174107682Y-53096666D01*
X174081324Y-53099500D01*
X173676943Y-53099500D01*
X173650585Y-53096666D01*
X173645874Y-53095641D01*
X173645870Y-53095641D01*
X173596339Y-53099184D01*
X173587492Y-53099500D01*
X173574000Y-53099500D01*
X173568985Y-53100221D01*
X173560640Y-53101420D01*
X173551854Y-53102365D01*
X173502316Y-53105909D01*
X173502313Y-53105910D01*
X173497786Y-53107598D01*
X173472127Y-53114146D01*
X173467350Y-53114833D01*
X173467343Y-53114835D01*
X173422165Y-53135466D01*
X173413991Y-53138851D01*
X173367475Y-53156200D01*
X173367464Y-53156206D01*
X173363599Y-53159100D01*
X173340820Y-53172615D01*
X173336436Y-53174617D01*
X173336425Y-53174624D01*
X173298908Y-53207132D01*
X173292026Y-53212678D01*
X173281203Y-53220780D01*
X173271654Y-53230329D01*
X173265184Y-53236353D01*
X173227661Y-53268867D01*
X173227654Y-53268876D01*
X173225043Y-53272938D01*
X173208416Y-53293568D01*
X170657868Y-55844116D01*
X170637238Y-55860743D01*
X170633176Y-55863354D01*
X170633167Y-55863361D01*
X170600653Y-55900884D01*
X170594629Y-55907354D01*
X170585080Y-55916903D01*
X170576978Y-55927726D01*
X170571432Y-55934608D01*
X170538924Y-55972125D01*
X170538917Y-55972136D01*
X170536915Y-55976520D01*
X170523400Y-55999299D01*
X170520506Y-56003164D01*
X170520500Y-56003175D01*
X170503151Y-56049691D01*
X170499766Y-56057865D01*
X170479135Y-56103043D01*
X170479133Y-56103050D01*
X170478446Y-56107827D01*
X170471898Y-56133486D01*
X170470210Y-56138013D01*
X170470209Y-56138016D01*
X170466665Y-56187554D01*
X170465720Y-56196345D01*
X170463800Y-56209700D01*
X170463800Y-56223190D01*
X170463484Y-56232037D01*
X170459941Y-56281569D01*
X170459941Y-56281573D01*
X170460966Y-56286285D01*
X170463800Y-56312643D01*
X170463800Y-61538524D01*
X170444115Y-61605563D01*
X170391311Y-61651318D01*
X170322153Y-61661262D01*
X170258597Y-61632237D01*
X170252119Y-61626205D01*
X158999514Y-50373600D01*
X158966029Y-50312277D01*
X158971013Y-50242585D01*
X159012885Y-50186652D01*
X159021918Y-50180492D01*
X159116302Y-50122052D01*
X159273872Y-49978407D01*
X159402366Y-49808255D01*
X159471550Y-49669314D01*
X159497403Y-49617394D01*
X159497403Y-49617393D01*
X159497405Y-49617389D01*
X159555756Y-49412310D01*
X159566529Y-49296047D01*
X159592315Y-49231111D01*
X159634622Y-49200804D01*
X159743130Y-49200804D01*
X159779503Y-49221668D01*
X159811693Y-49283681D01*
X159813470Y-49296047D01*
X159824244Y-49412310D01*
X159871944Y-49579957D01*
X159882596Y-49617392D01*
X159882596Y-49617394D01*
X159977632Y-49808253D01*
X160106127Y-49978406D01*
X160106128Y-49978407D01*
X160263698Y-50122052D01*
X160444981Y-50234298D01*
X160643802Y-50311321D01*
X160853390Y-50350500D01*
X160853392Y-50350500D01*
X161066608Y-50350500D01*
X161066610Y-50350500D01*
X161276198Y-50311321D01*
X161475019Y-50234298D01*
X161656302Y-50122052D01*
X161813872Y-49978407D01*
X161942366Y-49808255D01*
X162011550Y-49669314D01*
X162037403Y-49617394D01*
X162037403Y-49617393D01*
X162037405Y-49617389D01*
X162095756Y-49412310D01*
X162106529Y-49296047D01*
X162132315Y-49231111D01*
X162174622Y-49200804D01*
X162283130Y-49200804D01*
X162319503Y-49221668D01*
X162351693Y-49283681D01*
X162353470Y-49296047D01*
X162364244Y-49412310D01*
X162411944Y-49579957D01*
X162422596Y-49617392D01*
X162422596Y-49617394D01*
X162517632Y-49808253D01*
X162646127Y-49978406D01*
X162646128Y-49978407D01*
X162803698Y-50122052D01*
X162984981Y-50234298D01*
X163183802Y-50311321D01*
X163393390Y-50350500D01*
X163393392Y-50350500D01*
X163606608Y-50350500D01*
X163606610Y-50350500D01*
X163816198Y-50311321D01*
X164015019Y-50234298D01*
X164196302Y-50122052D01*
X164226134Y-50094856D01*
X167429499Y-50094856D01*
X167429501Y-50094882D01*
X167432412Y-50119987D01*
X167432414Y-50119991D01*
X167477792Y-50222764D01*
X167477793Y-50222765D01*
X167557234Y-50302206D01*
X167660008Y-50347585D01*
X167685134Y-50350500D01*
X169474863Y-50350499D01*
X169474878Y-50350497D01*
X169474881Y-50350497D01*
X169499986Y-50347586D01*
X169499987Y-50347585D01*
X169499990Y-50347585D01*
X169602764Y-50302206D01*
X169682205Y-50222765D01*
X169727584Y-50119991D01*
X169730499Y-50094865D01*
X169730498Y-49356046D01*
X169750182Y-49289009D01*
X169802986Y-49243254D01*
X169872145Y-49233310D01*
X169935701Y-49262335D01*
X169973475Y-49321113D01*
X169977969Y-49344606D01*
X169983373Y-49402924D01*
X169984243Y-49412310D01*
X170031943Y-49579957D01*
X170042595Y-49617392D01*
X170042595Y-49617394D01*
X170137631Y-49808253D01*
X170266126Y-49978406D01*
X170266127Y-49978407D01*
X170423697Y-50122052D01*
X170604980Y-50234298D01*
X170803801Y-50311321D01*
X171013389Y-50350500D01*
X171013391Y-50350500D01*
X171226607Y-50350500D01*
X171226609Y-50350500D01*
X171436197Y-50311321D01*
X171635018Y-50234298D01*
X171816301Y-50122052D01*
X171973871Y-49978407D01*
X172102365Y-49808255D01*
X172171549Y-49669314D01*
X172197402Y-49617394D01*
X172197402Y-49617393D01*
X172197404Y-49617389D01*
X172255755Y-49412310D01*
X172266528Y-49296047D01*
X172292314Y-49231111D01*
X172334621Y-49200804D01*
X172443129Y-49200804D01*
X172479502Y-49221668D01*
X172511692Y-49283681D01*
X172513469Y-49296047D01*
X172524243Y-49412310D01*
X172571943Y-49579957D01*
X172582595Y-49617392D01*
X172582595Y-49617394D01*
X172677631Y-49808253D01*
X172806126Y-49978406D01*
X172806127Y-49978407D01*
X172963697Y-50122052D01*
X173144980Y-50234298D01*
X173343801Y-50311321D01*
X173553389Y-50350500D01*
X173553391Y-50350500D01*
X173766607Y-50350500D01*
X173766609Y-50350500D01*
X173976197Y-50311321D01*
X174175018Y-50234298D01*
X174356301Y-50122052D01*
X174513871Y-49978407D01*
X174642365Y-49808255D01*
X174711549Y-49669314D01*
X174737402Y-49617394D01*
X174737402Y-49617393D01*
X174737404Y-49617389D01*
X174795755Y-49412310D01*
X174806528Y-49296047D01*
X174832314Y-49231111D01*
X174876868Y-49199194D01*
X174840496Y-49178331D01*
X174808306Y-49116318D01*
X174806528Y-49103951D01*
X174805848Y-49096613D01*
X174795755Y-48987690D01*
X174737404Y-48782611D01*
X174737402Y-48782606D01*
X174737402Y-48782605D01*
X174642366Y-48591746D01*
X174513871Y-48421593D01*
X174469638Y-48381269D01*
X174356301Y-48277948D01*
X174175018Y-48165702D01*
X174175016Y-48165701D01*
X174060454Y-48121320D01*
X173976197Y-48088679D01*
X173766609Y-48049500D01*
X173553389Y-48049500D01*
X173343801Y-48088679D01*
X173343798Y-48088679D01*
X173343798Y-48088680D01*
X173144981Y-48165701D01*
X173144979Y-48165702D01*
X172963698Y-48277947D01*
X172806126Y-48421593D01*
X172677631Y-48591746D01*
X172582595Y-48782605D01*
X172582595Y-48782607D01*
X172524243Y-48987689D01*
X172513470Y-49103951D01*
X172487684Y-49168888D01*
X172443129Y-49200804D01*
X172334621Y-49200804D01*
X172336868Y-49199194D01*
X172300496Y-49178331D01*
X172268306Y-49116318D01*
X172266528Y-49103951D01*
X172265848Y-49096613D01*
X172255755Y-48987690D01*
X172197404Y-48782611D01*
X172197402Y-48782606D01*
X172197402Y-48782605D01*
X172102366Y-48591746D01*
X171973871Y-48421593D01*
X171929638Y-48381269D01*
X171816301Y-48277948D01*
X171635018Y-48165702D01*
X171635016Y-48165701D01*
X171520454Y-48121320D01*
X171436197Y-48088679D01*
X171226609Y-48049500D01*
X171013389Y-48049500D01*
X170803801Y-48088679D01*
X170803798Y-48088679D01*
X170803798Y-48088680D01*
X170604981Y-48165701D01*
X170604979Y-48165702D01*
X170423698Y-48277947D01*
X170266126Y-48421593D01*
X170137631Y-48591746D01*
X170042595Y-48782605D01*
X170042595Y-48782607D01*
X169984243Y-48987689D01*
X169977969Y-49055394D01*
X169952182Y-49120331D01*
X169895382Y-49161018D01*
X169825601Y-49164538D01*
X169764994Y-49129772D01*
X169732805Y-49067759D01*
X169730498Y-49043952D01*
X169730498Y-48305143D01*
X169730498Y-48305136D01*
X169730496Y-48305117D01*
X169727585Y-48280012D01*
X169727584Y-48280010D01*
X169727584Y-48280009D01*
X169682205Y-48177235D01*
X169602764Y-48097794D01*
X169582123Y-48088680D01*
X169499991Y-48052415D01*
X169474864Y-48049500D01*
X167685142Y-48049500D01*
X167685116Y-48049502D01*
X167660011Y-48052413D01*
X167660007Y-48052415D01*
X167557234Y-48097793D01*
X167477793Y-48177234D01*
X167432414Y-48280006D01*
X167432414Y-48280008D01*
X167429499Y-48305131D01*
X167429499Y-50094856D01*
X164226134Y-50094856D01*
X164353872Y-49978407D01*
X164482366Y-49808255D01*
X164551550Y-49669314D01*
X164577403Y-49617394D01*
X164577403Y-49617393D01*
X164577405Y-49617389D01*
X164635756Y-49412310D01*
X164655429Y-49200000D01*
X164635756Y-48987690D01*
X164577405Y-48782611D01*
X164577403Y-48782606D01*
X164577403Y-48782605D01*
X164482367Y-48591746D01*
X164353872Y-48421593D01*
X164309639Y-48381269D01*
X164196302Y-48277948D01*
X164015019Y-48165702D01*
X164015017Y-48165701D01*
X163900455Y-48121320D01*
X163816198Y-48088679D01*
X163606610Y-48049500D01*
X163393390Y-48049500D01*
X163183802Y-48088679D01*
X163183799Y-48088679D01*
X163183799Y-48088680D01*
X162984982Y-48165701D01*
X162984980Y-48165702D01*
X162803699Y-48277947D01*
X162646127Y-48421593D01*
X162517632Y-48591746D01*
X162422596Y-48782605D01*
X162422596Y-48782607D01*
X162364244Y-48987689D01*
X162353471Y-49103951D01*
X162327685Y-49168888D01*
X162283130Y-49200804D01*
X162174622Y-49200804D01*
X162176869Y-49199194D01*
X162140497Y-49178331D01*
X162108307Y-49116318D01*
X162106529Y-49103951D01*
X162105849Y-49096613D01*
X162095756Y-48987690D01*
X162037405Y-48782611D01*
X162037403Y-48782606D01*
X162037403Y-48782605D01*
X161942367Y-48591746D01*
X161813872Y-48421593D01*
X161769639Y-48381269D01*
X161656302Y-48277948D01*
X161475019Y-48165702D01*
X161475017Y-48165701D01*
X161360455Y-48121320D01*
X161276198Y-48088679D01*
X161066610Y-48049500D01*
X160853390Y-48049500D01*
X160643802Y-48088679D01*
X160643799Y-48088679D01*
X160643799Y-48088680D01*
X160444982Y-48165701D01*
X160444980Y-48165702D01*
X160263699Y-48277947D01*
X160106127Y-48421593D01*
X159977632Y-48591746D01*
X159882596Y-48782605D01*
X159882596Y-48782607D01*
X159824244Y-48987689D01*
X159813471Y-49103951D01*
X159787685Y-49168888D01*
X159743130Y-49200804D01*
X159634622Y-49200804D01*
X159636869Y-49199194D01*
X159600497Y-49178331D01*
X159568307Y-49116318D01*
X159566529Y-49103951D01*
X159565849Y-49096613D01*
X159555756Y-48987690D01*
X159497405Y-48782611D01*
X159497403Y-48782606D01*
X159497403Y-48782605D01*
X159402367Y-48591746D01*
X159273872Y-48421593D01*
X159229639Y-48381269D01*
X159116302Y-48277948D01*
X158935019Y-48165702D01*
X158935017Y-48165701D01*
X158820455Y-48121320D01*
X158736198Y-48088679D01*
X158526610Y-48049500D01*
X158313390Y-48049500D01*
X158103802Y-48088679D01*
X158103799Y-48088679D01*
X158103799Y-48088680D01*
X157904982Y-48165701D01*
X157904980Y-48165702D01*
X157723699Y-48277947D01*
X157566127Y-48421593D01*
X157437632Y-48591746D01*
X157342596Y-48782605D01*
X157342596Y-48782607D01*
X157284244Y-48987689D01*
X157273471Y-49103951D01*
X157247685Y-49168888D01*
X157203130Y-49200804D01*
X157239503Y-49221668D01*
X157271693Y-49283681D01*
X157273470Y-49296047D01*
X157284244Y-49412310D01*
X157331944Y-49579957D01*
X157342596Y-49617392D01*
X157342596Y-49617394D01*
X157437632Y-49808253D01*
X157566127Y-49978406D01*
X157566128Y-49978407D01*
X157723698Y-50122052D01*
X157723700Y-50122053D01*
X157723701Y-50122054D01*
X157860777Y-50206928D01*
X157907413Y-50258956D01*
X157919500Y-50312355D01*
X157919500Y-50434758D01*
X157916667Y-50461106D01*
X157915641Y-50465827D01*
X157915641Y-50465829D01*
X157915641Y-50465830D01*
X157919184Y-50515361D01*
X157919500Y-50524208D01*
X157919500Y-50537697D01*
X157921420Y-50551054D01*
X157922365Y-50559846D01*
X157925909Y-50609386D01*
X157927593Y-50613900D01*
X157934148Y-50639582D01*
X157934834Y-50644355D01*
X157955457Y-50689512D01*
X157958845Y-50697690D01*
X157976203Y-50744229D01*
X157979096Y-50748094D01*
X157992617Y-50770883D01*
X157994619Y-50775267D01*
X157994622Y-50775272D01*
X157994623Y-50775273D01*
X158027144Y-50812804D01*
X158032688Y-50819685D01*
X158040779Y-50830493D01*
X158050333Y-50840047D01*
X158056353Y-50846514D01*
X158088872Y-50884043D01*
X158088874Y-50884045D01*
X158092928Y-50886650D01*
X158113571Y-50903285D01*
X169737381Y-62527095D01*
X169770866Y-62588418D01*
X169773700Y-62614776D01*
X169773700Y-74707058D01*
X169770867Y-74733406D01*
X169769841Y-74738127D01*
X169769841Y-74738129D01*
X169769841Y-74738130D01*
X169773384Y-74787661D01*
X169773700Y-74796508D01*
X169773700Y-74809997D01*
X169775620Y-74823354D01*
X169776565Y-74832146D01*
X169780109Y-74881686D01*
X169781793Y-74886200D01*
X169788348Y-74911882D01*
X169789034Y-74916655D01*
X169809657Y-74961812D01*
X169813045Y-74969990D01*
X169821886Y-74993695D01*
X169830404Y-75016531D01*
X169831049Y-75017392D01*
X169833296Y-75020394D01*
X169846817Y-75043183D01*
X169848819Y-75047567D01*
X169848822Y-75047572D01*
X169848823Y-75047573D01*
X169881344Y-75085104D01*
X169886888Y-75091985D01*
X169894979Y-75102793D01*
X169904533Y-75112347D01*
X169910553Y-75118814D01*
X169943072Y-75156343D01*
X169943074Y-75156345D01*
X169947128Y-75158950D01*
X169967771Y-75175585D01*
X170897888Y-76105702D01*
X171813181Y-77020994D01*
X171846666Y-77082317D01*
X171849500Y-77108675D01*
X171849500Y-78293102D01*
X171851874Y-78312869D01*
X171860122Y-78381561D01*
X171860122Y-78381563D01*
X171860123Y-78381564D01*
X171860288Y-78381982D01*
X171915639Y-78522343D01*
X172007077Y-78642922D01*
X172127656Y-78734360D01*
X172127657Y-78734360D01*
X172127658Y-78734361D01*
X172268436Y-78789877D01*
X172356898Y-78800500D01*
X172356903Y-78800500D01*
X173643097Y-78800500D01*
X173643102Y-78800500D01*
X173731564Y-78789877D01*
X173872342Y-78734361D01*
X173992922Y-78642922D01*
X174084361Y-78522342D01*
X174136075Y-78391204D01*
X174178980Y-78336062D01*
X174244888Y-78312869D01*
X174312872Y-78328989D01*
X174353004Y-78365573D01*
X174461886Y-78521073D01*
X174461891Y-78521079D01*
X174628917Y-78688105D01*
X174822421Y-78823600D01*
X175036507Y-78923429D01*
X175036516Y-78923433D01*
X175250000Y-78980634D01*
X175250000Y-77935501D01*
X175357685Y-77984680D01*
X175464237Y-78000000D01*
X175535763Y-78000000D01*
X175642315Y-77984680D01*
X175750000Y-77935501D01*
X175750000Y-78980634D01*
X175963483Y-78923433D01*
X175963492Y-78923429D01*
X176177577Y-78823600D01*
X176177579Y-78823599D01*
X176371073Y-78688113D01*
X176371079Y-78688108D01*
X176538108Y-78521079D01*
X176538113Y-78521073D01*
X176673599Y-78327579D01*
X176673600Y-78327577D01*
X176773429Y-78113492D01*
X176773433Y-78113483D01*
X176834567Y-77885326D01*
X176834569Y-77885315D01*
X176846407Y-77750000D01*
X175933686Y-77750000D01*
X175959493Y-77709844D01*
X176000000Y-77571889D01*
X176000000Y-77428111D01*
X175959493Y-77290156D01*
X175933686Y-77250000D01*
X176846407Y-77250000D01*
X176846407Y-77249999D01*
X176834569Y-77114684D01*
X176834567Y-77114673D01*
X176773433Y-76886516D01*
X176773429Y-76886507D01*
X176673600Y-76672422D01*
X176673599Y-76672420D01*
X176538113Y-76478926D01*
X176538108Y-76478920D01*
X176371082Y-76311894D01*
X176177578Y-76176399D01*
X175963492Y-76076570D01*
X175963486Y-76076567D01*
X175750000Y-76019364D01*
X175750000Y-77064498D01*
X175642315Y-77015320D01*
X175535763Y-77000000D01*
X175464237Y-77000000D01*
X175357685Y-77015320D01*
X175250000Y-77064498D01*
X175250000Y-76019364D01*
X175249999Y-76019364D01*
X175036513Y-76076567D01*
X175036507Y-76076570D01*
X174822422Y-76176399D01*
X174822420Y-76176400D01*
X174628926Y-76311886D01*
X174628920Y-76311891D01*
X174461891Y-76478920D01*
X174461890Y-76478922D01*
X174353004Y-76634427D01*
X174298427Y-76678051D01*
X174228928Y-76685244D01*
X174166574Y-76653722D01*
X174136075Y-76608793D01*
X174084362Y-76477660D01*
X174084361Y-76477658D01*
X173992922Y-76357077D01*
X173872343Y-76265639D01*
X173776192Y-76227722D01*
X173731564Y-76210123D01*
X173731563Y-76210122D01*
X173731561Y-76210122D01*
X173685926Y-76204642D01*
X173643102Y-76199500D01*
X173643097Y-76199500D01*
X172458675Y-76199500D01*
X172391636Y-76179815D01*
X172370994Y-76163181D01*
X170811019Y-74603205D01*
X170777534Y-74541882D01*
X170774700Y-74515524D01*
X170774700Y-65781876D01*
X170794385Y-65714837D01*
X170847189Y-65669082D01*
X170916347Y-65659138D01*
X170979903Y-65688163D01*
X170986381Y-65694195D01*
X171813181Y-66520995D01*
X171846666Y-66582318D01*
X171849500Y-66608676D01*
X171849500Y-67768102D01*
X171853640Y-67802577D01*
X171860122Y-67856561D01*
X171915639Y-67997343D01*
X172007077Y-68117922D01*
X172127656Y-68209360D01*
X172127657Y-68209360D01*
X172127658Y-68209361D01*
X172268436Y-68264877D01*
X172356898Y-68275500D01*
X172356903Y-68275500D01*
X173643097Y-68275500D01*
X173643102Y-68275500D01*
X173731564Y-68264877D01*
X173872342Y-68209361D01*
X173992922Y-68117922D01*
X174084361Y-67997342D01*
X174139877Y-67856564D01*
X174150500Y-67768102D01*
X174150500Y-67475000D01*
X174170185Y-67407962D01*
X174222989Y-67362207D01*
X174292147Y-67352263D01*
X174355703Y-67381288D01*
X174393477Y-67440066D01*
X174393742Y-67440983D01*
X174397981Y-67455880D01*
X174422596Y-67542392D01*
X174422596Y-67542394D01*
X174517632Y-67733253D01*
X174646127Y-67903406D01*
X174646128Y-67903407D01*
X174803698Y-68047052D01*
X174984981Y-68159298D01*
X175183802Y-68236321D01*
X175393390Y-68275500D01*
X175393392Y-68275500D01*
X175606608Y-68275500D01*
X175606610Y-68275500D01*
X175816198Y-68236321D01*
X176015019Y-68159298D01*
X176196302Y-68047052D01*
X176353872Y-67903407D01*
X176482366Y-67733255D01*
X176528668Y-67640266D01*
X176576168Y-67589031D01*
X176643831Y-67571609D01*
X176710172Y-67593534D01*
X176752049Y-67643134D01*
X176826399Y-67802577D01*
X176826400Y-67802579D01*
X176961886Y-67996073D01*
X176961891Y-67996079D01*
X177128917Y-68163105D01*
X177322421Y-68298600D01*
X177536507Y-68398429D01*
X177536516Y-68398433D01*
X177750000Y-68455634D01*
X177750000Y-67408018D01*
X177864801Y-67460446D01*
X177966025Y-67475000D01*
X178033975Y-67475000D01*
X178135199Y-67460446D01*
X178250000Y-67408018D01*
X178250000Y-68455633D01*
X178463483Y-68398433D01*
X178463492Y-68398429D01*
X178677577Y-68298600D01*
X178677579Y-68298599D01*
X178871073Y-68163113D01*
X178871079Y-68163108D01*
X179038108Y-67996079D01*
X179038113Y-67996073D01*
X179173599Y-67802579D01*
X179173600Y-67802577D01*
X179273429Y-67588492D01*
X179273433Y-67588483D01*
X179334567Y-67360326D01*
X179334569Y-67360316D01*
X179344221Y-67250000D01*
X178403969Y-67250000D01*
X178436519Y-67199351D01*
X178475000Y-67068295D01*
X178475000Y-66931705D01*
X178436519Y-66800649D01*
X178403969Y-66750000D01*
X179344221Y-66750000D01*
X179334569Y-66639683D01*
X179334567Y-66639673D01*
X179273433Y-66411516D01*
X179273429Y-66411507D01*
X179173600Y-66197422D01*
X179173599Y-66197420D01*
X179038113Y-66003926D01*
X179038108Y-66003920D01*
X178871082Y-65836894D01*
X178677578Y-65701399D01*
X178463492Y-65601570D01*
X178463486Y-65601567D01*
X178250000Y-65544364D01*
X178250000Y-66591981D01*
X178135199Y-66539554D01*
X178033975Y-66525000D01*
X177966025Y-66525000D01*
X177864801Y-66539554D01*
X177750000Y-66591981D01*
X177750000Y-65544364D01*
X177749999Y-65544364D01*
X177536513Y-65601567D01*
X177536507Y-65601570D01*
X177322422Y-65701399D01*
X177322420Y-65701400D01*
X177128926Y-65836886D01*
X177128920Y-65836891D01*
X176961891Y-66003920D01*
X176961886Y-66003926D01*
X176826400Y-66197420D01*
X176826399Y-66197422D01*
X176752049Y-66356865D01*
X176705876Y-66409304D01*
X176638682Y-66428456D01*
X176571801Y-66408240D01*
X176528668Y-66359733D01*
X176482366Y-66266745D01*
X176469881Y-66250213D01*
X176353872Y-66096593D01*
X176322355Y-66067861D01*
X176196302Y-65952948D01*
X176015019Y-65840702D01*
X176015017Y-65840701D01*
X175910525Y-65800221D01*
X175816198Y-65763679D01*
X175606610Y-65724500D01*
X175393390Y-65724500D01*
X175183802Y-65763679D01*
X175183799Y-65763679D01*
X175183799Y-65763680D01*
X175106117Y-65793774D01*
X175036493Y-65799636D01*
X174974753Y-65766926D01*
X174973642Y-65765828D01*
X172191119Y-62983305D01*
X172157634Y-62921982D01*
X172154800Y-62895624D01*
X172154800Y-59092369D01*
X172174485Y-59025330D01*
X172227289Y-58979575D01*
X172291404Y-58969011D01*
X172350021Y-58974999D01*
X172749999Y-58974999D01*
X172750000Y-58974998D01*
X172750000Y-57908018D01*
X172864801Y-57960446D01*
X172966025Y-57975000D01*
X173033975Y-57975000D01*
X173135199Y-57960446D01*
X173250000Y-57908018D01*
X173250000Y-58974999D01*
X173649972Y-58974999D01*
X173649986Y-58974998D01*
X173752697Y-58964505D01*
X173919119Y-58909358D01*
X173919124Y-58909356D01*
X174068345Y-58817315D01*
X174192315Y-58693345D01*
X174284356Y-58544124D01*
X174284358Y-58544119D01*
X174339505Y-58377697D01*
X174339506Y-58377688D01*
X174341648Y-58356727D01*
X174368042Y-58292035D01*
X174425222Y-58251882D01*
X174495033Y-58249018D01*
X174555311Y-58284350D01*
X174563960Y-58294600D01*
X174643032Y-58399308D01*
X174646128Y-58403407D01*
X174803698Y-58547052D01*
X174984981Y-58659298D01*
X175183802Y-58736321D01*
X175393390Y-58775500D01*
X175393392Y-58775500D01*
X175606608Y-58775500D01*
X175606610Y-58775500D01*
X175816198Y-58736321D01*
X176015019Y-58659298D01*
X176196302Y-58547052D01*
X176353872Y-58403407D01*
X176482366Y-58233255D01*
X176486470Y-58225013D01*
X176577403Y-58042394D01*
X176577403Y-58042393D01*
X176577405Y-58042389D01*
X176630734Y-57854959D01*
X176668014Y-57795867D01*
X176731323Y-57766310D01*
X176800563Y-57775672D01*
X176853749Y-57820982D01*
X176869265Y-57854959D01*
X176902140Y-57970500D01*
X176922596Y-58042392D01*
X176922596Y-58042394D01*
X177017632Y-58233253D01*
X177146127Y-58403406D01*
X177146128Y-58403407D01*
X177303698Y-58547052D01*
X177484981Y-58659298D01*
X177683802Y-58736321D01*
X177893390Y-58775500D01*
X177893392Y-58775500D01*
X178106608Y-58775500D01*
X178106610Y-58775500D01*
X178316198Y-58736321D01*
X178515019Y-58659298D01*
X178696302Y-58547052D01*
X178853872Y-58403407D01*
X178982366Y-58233255D01*
X178986470Y-58225013D01*
X179077403Y-58042394D01*
X179077403Y-58042393D01*
X179077405Y-58042389D01*
X179130734Y-57854959D01*
X179168014Y-57795867D01*
X179231323Y-57766310D01*
X179300563Y-57775672D01*
X179353749Y-57820982D01*
X179369265Y-57854959D01*
X179402140Y-57970500D01*
X179422596Y-58042392D01*
X179422596Y-58042394D01*
X179517632Y-58233253D01*
X179646127Y-58403406D01*
X179646128Y-58403407D01*
X179803698Y-58547052D01*
X179984981Y-58659298D01*
X180183802Y-58736321D01*
X180393390Y-58775500D01*
X180393392Y-58775500D01*
X180606608Y-58775500D01*
X180606610Y-58775500D01*
X180816198Y-58736321D01*
X181015019Y-58659298D01*
X181196302Y-58547052D01*
X181353872Y-58403407D01*
X181482366Y-58233255D01*
X181486470Y-58225013D01*
X181564041Y-58069229D01*
X181611543Y-58017992D01*
X181675041Y-58000500D01*
X181734757Y-58000500D01*
X181761115Y-58003334D01*
X181765827Y-58004359D01*
X181800083Y-58001908D01*
X181868354Y-58016758D01*
X181917761Y-58066162D01*
X181932614Y-58134435D01*
X181908199Y-58199900D01*
X181896611Y-58213273D01*
X180670868Y-59439016D01*
X180650238Y-59455643D01*
X180646176Y-59458254D01*
X180646167Y-59458261D01*
X180613653Y-59495784D01*
X180607629Y-59502254D01*
X180598080Y-59511803D01*
X180589978Y-59522626D01*
X180584432Y-59529508D01*
X180551924Y-59567025D01*
X180551917Y-59567036D01*
X180549915Y-59571420D01*
X180536400Y-59594199D01*
X180533506Y-59598064D01*
X180533500Y-59598075D01*
X180516151Y-59644591D01*
X180512766Y-59652765D01*
X180492135Y-59697943D01*
X180492133Y-59697950D01*
X180491446Y-59702727D01*
X180484898Y-59728386D01*
X180483210Y-59732913D01*
X180483209Y-59732916D01*
X180479665Y-59782454D01*
X180478720Y-59791245D01*
X180476800Y-59804600D01*
X180476800Y-59818090D01*
X180476484Y-59826937D01*
X180472941Y-59876469D01*
X180472941Y-59876473D01*
X180473966Y-59881185D01*
X180476800Y-59907543D01*
X180476800Y-63443796D01*
X180457115Y-63510835D01*
X180453315Y-63515854D01*
X180453378Y-63515898D01*
X180352482Y-63662068D01*
X180292160Y-63821125D01*
X180292159Y-63821130D01*
X180271655Y-63990000D01*
X180292159Y-64158869D01*
X180292160Y-64158874D01*
X180352482Y-64317931D01*
X180389966Y-64372235D01*
X180449117Y-64457929D01*
X180554805Y-64551560D01*
X180576450Y-64570736D01*
X180713993Y-64642924D01*
X180727075Y-64649790D01*
X180892244Y-64690500D01*
X181062356Y-64690500D01*
X181227525Y-64649790D01*
X181306992Y-64608081D01*
X181378149Y-64570736D01*
X181378150Y-64570734D01*
X181378152Y-64570734D01*
X181505483Y-64457929D01*
X181602118Y-64317930D01*
X181662440Y-64158872D01*
X181682945Y-63990000D01*
X181662440Y-63821128D01*
X181602118Y-63662070D01*
X181505483Y-63522071D01*
X181505482Y-63522070D01*
X181501222Y-63515898D01*
X181503486Y-63514334D01*
X181479261Y-63462774D01*
X181477800Y-63443796D01*
X181477800Y-60099074D01*
X181497485Y-60032035D01*
X181514114Y-60011398D01*
X192617821Y-48907690D01*
X192679142Y-48874207D01*
X192748834Y-48879191D01*
X192804767Y-48921063D01*
X192829184Y-48986527D01*
X192829500Y-48995373D01*
X192829500Y-50094856D01*
X192829502Y-50094882D01*
X192832413Y-50119987D01*
X192832415Y-50119991D01*
X192877793Y-50222764D01*
X192877794Y-50222765D01*
X192957235Y-50302206D01*
X193060009Y-50347585D01*
X193085135Y-50350500D01*
X193813758Y-50350499D01*
X193880795Y-50370183D01*
X193926550Y-50422987D01*
X193936494Y-50492146D01*
X193907469Y-50555702D01*
X193848691Y-50593476D01*
X193836542Y-50596388D01*
X193780116Y-50606935D01*
X193663802Y-50628679D01*
X193663800Y-50628679D01*
X193663798Y-50628680D01*
X193464982Y-50705701D01*
X193464980Y-50705702D01*
X193283699Y-50817947D01*
X193126127Y-50961593D01*
X192997632Y-51131746D01*
X192902596Y-51322605D01*
X192902596Y-51322607D01*
X192844244Y-51527689D01*
X192824571Y-51739999D01*
X192824571Y-51740000D01*
X192844244Y-51952310D01*
X192902596Y-52157392D01*
X192902596Y-52157394D01*
X192997632Y-52348253D01*
X192997634Y-52348255D01*
X193126128Y-52518407D01*
X193283698Y-52662052D01*
X193464981Y-52774298D01*
X193663802Y-52851321D01*
X193860613Y-52888111D01*
X193922893Y-52919779D01*
X193958166Y-52980092D01*
X193955232Y-53049900D01*
X193915023Y-53107040D01*
X193860613Y-53131888D01*
X193663802Y-53168679D01*
X193663799Y-53168679D01*
X193663799Y-53168680D01*
X193464982Y-53245701D01*
X193464980Y-53245702D01*
X193283699Y-53357947D01*
X193126127Y-53501593D01*
X192997632Y-53671746D01*
X192902596Y-53862605D01*
X192902596Y-53862607D01*
X192844244Y-54067689D01*
X192824571Y-54279999D01*
X192824571Y-54280000D01*
X192844244Y-54492310D01*
X192902596Y-54697392D01*
X192902596Y-54697394D01*
X192997632Y-54888253D01*
X193082929Y-55001203D01*
X193126128Y-55058407D01*
X193283698Y-55202052D01*
X193464981Y-55314298D01*
X193663802Y-55391321D01*
X193860613Y-55428111D01*
X193922893Y-55459779D01*
X193958166Y-55520092D01*
X193955232Y-55589900D01*
X193915023Y-55647040D01*
X193860613Y-55671888D01*
X193663802Y-55708679D01*
X193663799Y-55708679D01*
X193663799Y-55708680D01*
X193464982Y-55785701D01*
X193464980Y-55785702D01*
X193283699Y-55897947D01*
X193126127Y-56041593D01*
X192997632Y-56211746D01*
X192902596Y-56402605D01*
X192902596Y-56402607D01*
X192844244Y-56607689D01*
X192826614Y-56797957D01*
X192824571Y-56820000D01*
X192844244Y-57032310D01*
X192898878Y-57224327D01*
X192902596Y-57237392D01*
X192902596Y-57237394D01*
X192997632Y-57428253D01*
X193126127Y-57598406D01*
X193126128Y-57598407D01*
X193283698Y-57742052D01*
X193464981Y-57854298D01*
X193663802Y-57931321D01*
X193860613Y-57968111D01*
X193922893Y-57999779D01*
X193958166Y-58060092D01*
X193955232Y-58129900D01*
X193915023Y-58187040D01*
X193860613Y-58211888D01*
X193663802Y-58248679D01*
X193663799Y-58248679D01*
X193663799Y-58248680D01*
X193464982Y-58325701D01*
X193464980Y-58325702D01*
X193283699Y-58437947D01*
X193126127Y-58581593D01*
X192997632Y-58751746D01*
X192978201Y-58790771D01*
X192930698Y-58842009D01*
X192867201Y-58859500D01*
X189766043Y-58859500D01*
X189739685Y-58856666D01*
X189734974Y-58855641D01*
X189734970Y-58855641D01*
X189685439Y-58859184D01*
X189676592Y-58859500D01*
X189663100Y-58859500D01*
X189656963Y-58860382D01*
X189649740Y-58861420D01*
X189640954Y-58862365D01*
X189591416Y-58865909D01*
X189591413Y-58865910D01*
X189586886Y-58867598D01*
X189561227Y-58874146D01*
X189556450Y-58874833D01*
X189556443Y-58874835D01*
X189511265Y-58895466D01*
X189503091Y-58898851D01*
X189456575Y-58916200D01*
X189456564Y-58916206D01*
X189452699Y-58919100D01*
X189429920Y-58932615D01*
X189425536Y-58934617D01*
X189425525Y-58934624D01*
X189388008Y-58967132D01*
X189381126Y-58972678D01*
X189370303Y-58980780D01*
X189360754Y-58990329D01*
X189354284Y-58996353D01*
X189316761Y-59028867D01*
X189316754Y-59028876D01*
X189314143Y-59032938D01*
X189297516Y-59053568D01*
X178911005Y-69440081D01*
X178849682Y-69473566D01*
X178823324Y-69476400D01*
X178796944Y-69476400D01*
X178631773Y-69517110D01*
X178481150Y-69596163D01*
X178353816Y-69708972D01*
X178257182Y-69848968D01*
X178196860Y-70008025D01*
X178196859Y-70008030D01*
X178176355Y-70176900D01*
X178196859Y-70345769D01*
X178196860Y-70345774D01*
X178257182Y-70504831D01*
X178319475Y-70595077D01*
X178353817Y-70644829D01*
X178446117Y-70726599D01*
X178481150Y-70757636D01*
X178618838Y-70829900D01*
X178631775Y-70836690D01*
X178796944Y-70877400D01*
X178967056Y-70877400D01*
X179132225Y-70836690D01*
X179278169Y-70760092D01*
X179282849Y-70757636D01*
X179282850Y-70757634D01*
X179282852Y-70757634D01*
X179410183Y-70644829D01*
X179506818Y-70504830D01*
X179508650Y-70500000D01*
X180894785Y-70500000D01*
X180913602Y-70703082D01*
X180969417Y-70899247D01*
X180969422Y-70899260D01*
X181060327Y-71081821D01*
X181183237Y-71244581D01*
X181333958Y-71381980D01*
X181333960Y-71381982D01*
X181433141Y-71443392D01*
X181507363Y-71489348D01*
X181697544Y-71563024D01*
X181898024Y-71600500D01*
X181898026Y-71600500D01*
X182101974Y-71600500D01*
X182101976Y-71600500D01*
X182302456Y-71563024D01*
X182492637Y-71489348D01*
X182666041Y-71381981D01*
X182816764Y-71244579D01*
X182939673Y-71081821D01*
X183030582Y-70899250D01*
X183086397Y-70703083D01*
X183105215Y-70500000D01*
X183086397Y-70296917D01*
X183067464Y-70230375D01*
X183068050Y-70160513D01*
X183099047Y-70108765D01*
X183445695Y-69762119D01*
X183507018Y-69728634D01*
X183533376Y-69725800D01*
X185731983Y-69725800D01*
X185799022Y-69745485D01*
X185844777Y-69798289D01*
X185854721Y-69867447D01*
X185844365Y-69902205D01*
X185773734Y-70053673D01*
X185773730Y-70053682D01*
X185714860Y-70273389D01*
X185714858Y-70273400D01*
X185695034Y-70499997D01*
X185695034Y-70500002D01*
X185714858Y-70726599D01*
X185714860Y-70726610D01*
X185773730Y-70946317D01*
X185773735Y-70946331D01*
X185869863Y-71152478D01*
X185920974Y-71225472D01*
X186602046Y-70544400D01*
X186614835Y-70625148D01*
X186672359Y-70738045D01*
X186761955Y-70827641D01*
X186874852Y-70885165D01*
X186955599Y-70897953D01*
X186274526Y-71579025D01*
X186347513Y-71630132D01*
X186347521Y-71630136D01*
X186553668Y-71726264D01*
X186553682Y-71726269D01*
X186773389Y-71785139D01*
X186773400Y-71785141D01*
X186999998Y-71804966D01*
X187000002Y-71804966D01*
X187226599Y-71785141D01*
X187226610Y-71785139D01*
X187446317Y-71726269D01*
X187446331Y-71726264D01*
X187652478Y-71630136D01*
X187725471Y-71579024D01*
X187044400Y-70897953D01*
X187125148Y-70885165D01*
X187238045Y-70827641D01*
X187327641Y-70738045D01*
X187385165Y-70625148D01*
X187397953Y-70544400D01*
X188079024Y-71225471D01*
X188130136Y-71152478D01*
X188226264Y-70946331D01*
X188226268Y-70946318D01*
X188234000Y-70917462D01*
X188270363Y-70857800D01*
X188333209Y-70827269D01*
X188402585Y-70835561D01*
X188441457Y-70861870D01*
X189083181Y-71503594D01*
X189116666Y-71564917D01*
X189119500Y-71591275D01*
X189119500Y-76446452D01*
X189099815Y-76513491D01*
X189060778Y-76551879D01*
X188953957Y-76618020D01*
X188803237Y-76755418D01*
X188680327Y-76918178D01*
X188589422Y-77100739D01*
X188589417Y-77100752D01*
X188533602Y-77296917D01*
X188514785Y-77499999D01*
X188514785Y-77500000D01*
X188533602Y-77703082D01*
X188589417Y-77899247D01*
X188589422Y-77899260D01*
X188680327Y-78081821D01*
X188803237Y-78244581D01*
X188953958Y-78381980D01*
X188953960Y-78381982D01*
X189050980Y-78442054D01*
X189127363Y-78489348D01*
X189317544Y-78563024D01*
X189518024Y-78600500D01*
X189518026Y-78600500D01*
X189721974Y-78600500D01*
X189721976Y-78600500D01*
X189922456Y-78563024D01*
X190112637Y-78489348D01*
X190286041Y-78381981D01*
X190429371Y-78251319D01*
X190436762Y-78244581D01*
X190447003Y-78231020D01*
X190559673Y-78081821D01*
X190650582Y-77899250D01*
X190706397Y-77703083D01*
X190725215Y-77500000D01*
X190706397Y-77296917D01*
X190650582Y-77100750D01*
X190648512Y-77096593D01*
X190600415Y-77000000D01*
X190559673Y-76918179D01*
X190436764Y-76755421D01*
X190436762Y-76755418D01*
X190286042Y-76618020D01*
X190286041Y-76618019D01*
X190179222Y-76551879D01*
X190132587Y-76499851D01*
X190120500Y-76446452D01*
X190120500Y-71399743D01*
X190123334Y-71373385D01*
X190124359Y-71368673D01*
X190120816Y-71319137D01*
X190120500Y-71310290D01*
X190120500Y-71296801D01*
X190118579Y-71283443D01*
X190117633Y-71274645D01*
X190114091Y-71225117D01*
X190112407Y-71220602D01*
X190105850Y-71194912D01*
X190105165Y-71190143D01*
X190084530Y-71144960D01*
X190081155Y-71136812D01*
X190063796Y-71090269D01*
X190060905Y-71086407D01*
X190047379Y-71063610D01*
X190045377Y-71059227D01*
X190045375Y-71059225D01*
X190045375Y-71059224D01*
X190045374Y-71059222D01*
X190012853Y-71021691D01*
X190007298Y-71014798D01*
X189999223Y-71004011D01*
X189999210Y-71003996D01*
X189989683Y-70994469D01*
X189983650Y-70987990D01*
X189951128Y-70950457D01*
X189947071Y-70947850D01*
X189926427Y-70931214D01*
X187914085Y-68918871D01*
X187897450Y-68898228D01*
X187894845Y-68894174D01*
X187894843Y-68894172D01*
X187857314Y-68861653D01*
X187850843Y-68855629D01*
X187841293Y-68846079D01*
X187830485Y-68837988D01*
X187823604Y-68832444D01*
X187786073Y-68799923D01*
X187786072Y-68799922D01*
X187786067Y-68799919D01*
X187781683Y-68797917D01*
X187758894Y-68784396D01*
X187755031Y-68781504D01*
X187755029Y-68781503D01*
X187708490Y-68764145D01*
X187700322Y-68760761D01*
X187655157Y-68740135D01*
X187655155Y-68740134D01*
X187650382Y-68739448D01*
X187624700Y-68732893D01*
X187620186Y-68731209D01*
X187570646Y-68727665D01*
X187561859Y-68726720D01*
X187548499Y-68724800D01*
X187548497Y-68724800D01*
X187535008Y-68724800D01*
X187526161Y-68724484D01*
X187476629Y-68720941D01*
X187476625Y-68720941D01*
X187471915Y-68721966D01*
X187445557Y-68724800D01*
X183341843Y-68724800D01*
X183315485Y-68721966D01*
X183310774Y-68720941D01*
X183310770Y-68720941D01*
X183261239Y-68724484D01*
X183252392Y-68724800D01*
X183238900Y-68724800D01*
X183232763Y-68725682D01*
X183225540Y-68726720D01*
X183216754Y-68727665D01*
X183167216Y-68731209D01*
X183167213Y-68731210D01*
X183162686Y-68732898D01*
X183137027Y-68739446D01*
X183132250Y-68740133D01*
X183132243Y-68740135D01*
X183087065Y-68760766D01*
X183078891Y-68764151D01*
X183032375Y-68781500D01*
X183032364Y-68781506D01*
X183028499Y-68784400D01*
X183005720Y-68797915D01*
X183001336Y-68799917D01*
X183001325Y-68799924D01*
X182963808Y-68832432D01*
X182956926Y-68837978D01*
X182946103Y-68846080D01*
X182936554Y-68855629D01*
X182930084Y-68861653D01*
X182892561Y-68894167D01*
X182892554Y-68894176D01*
X182889943Y-68898238D01*
X182873316Y-68918868D01*
X182393118Y-69399066D01*
X182331795Y-69432551D01*
X182282652Y-69433274D01*
X182101976Y-69399500D01*
X181898024Y-69399500D01*
X181697544Y-69436976D01*
X181697541Y-69436976D01*
X181697541Y-69436977D01*
X181507364Y-69510651D01*
X181507357Y-69510655D01*
X181333960Y-69618017D01*
X181333958Y-69618019D01*
X181183237Y-69755418D01*
X181060327Y-69918178D01*
X180969422Y-70100739D01*
X180969417Y-70100752D01*
X180913602Y-70296917D01*
X180894785Y-70499999D01*
X180894785Y-70500000D01*
X179508650Y-70500000D01*
X179567140Y-70345772D01*
X179582187Y-70221843D01*
X179609809Y-70157667D01*
X179617591Y-70149121D01*
X189869895Y-59896819D01*
X189931218Y-59863334D01*
X189957576Y-59860500D01*
X192867201Y-59860500D01*
X192934240Y-59880185D01*
X192978201Y-59929229D01*
X192997632Y-59968253D01*
X193096425Y-60099074D01*
X193126128Y-60138407D01*
X193283698Y-60282052D01*
X193464981Y-60394298D01*
X193663802Y-60471321D01*
X193860613Y-60508111D01*
X193922893Y-60539779D01*
X193958166Y-60600092D01*
X193955232Y-60669900D01*
X193915023Y-60727040D01*
X193860613Y-60751888D01*
X193663802Y-60788679D01*
X193663799Y-60788679D01*
X193663799Y-60788680D01*
X193464982Y-60865701D01*
X193464980Y-60865702D01*
X193283699Y-60977947D01*
X193126127Y-61121593D01*
X192997632Y-61291746D01*
X192902596Y-61482605D01*
X192902596Y-61482607D01*
X192844244Y-61687689D01*
X192824571Y-61899999D01*
X192824571Y-61900000D01*
X192844244Y-62112310D01*
X192902596Y-62317392D01*
X192902596Y-62317394D01*
X192997632Y-62508253D01*
X193088771Y-62628939D01*
X193126128Y-62678407D01*
X193283698Y-62822052D01*
X193464981Y-62934298D01*
X193663802Y-63011321D01*
X193860613Y-63048111D01*
X193922893Y-63079779D01*
X193958166Y-63140092D01*
X193955232Y-63209900D01*
X193915023Y-63267040D01*
X193860613Y-63291888D01*
X193663802Y-63328679D01*
X193663799Y-63328679D01*
X193663799Y-63328680D01*
X193464982Y-63405701D01*
X193464980Y-63405702D01*
X193283699Y-63517947D01*
X193126127Y-63661593D01*
X192997632Y-63831746D01*
X192902596Y-64022605D01*
X192902596Y-64022607D01*
X192844244Y-64227689D01*
X192824571Y-64439999D01*
X192824571Y-64440000D01*
X192844244Y-64652310D01*
X192902596Y-64857392D01*
X192902596Y-64857394D01*
X192997632Y-65048253D01*
X193126127Y-65218406D01*
X193126128Y-65218407D01*
X193283698Y-65362052D01*
X193464981Y-65474298D01*
X193663802Y-65551321D01*
X193860613Y-65588111D01*
X193922893Y-65619779D01*
X193958166Y-65680092D01*
X193955232Y-65749900D01*
X193915023Y-65807040D01*
X193860613Y-65831888D01*
X193663802Y-65868679D01*
X193663799Y-65868679D01*
X193663799Y-65868680D01*
X193464982Y-65945701D01*
X193464980Y-65945702D01*
X193283699Y-66057947D01*
X193126127Y-66201593D01*
X192997632Y-66371746D01*
X192902596Y-66562605D01*
X192902596Y-66562607D01*
X192844244Y-66767689D01*
X192839230Y-66821806D01*
X192824571Y-66980000D01*
X192844244Y-67192310D01*
X192899362Y-67386028D01*
X192902596Y-67397392D01*
X192902596Y-67397394D01*
X192997632Y-67588253D01*
X193126127Y-67758406D01*
X193126128Y-67758407D01*
X193283698Y-67902052D01*
X193464981Y-68014298D01*
X193663802Y-68091321D01*
X193860613Y-68128111D01*
X193922893Y-68159779D01*
X193958166Y-68220092D01*
X193955232Y-68289900D01*
X193915023Y-68347040D01*
X193860613Y-68371888D01*
X193663802Y-68408679D01*
X193663799Y-68408679D01*
X193663799Y-68408680D01*
X193464982Y-68485701D01*
X193464980Y-68485702D01*
X193283699Y-68597947D01*
X193126127Y-68741593D01*
X192997632Y-68911746D01*
X192902596Y-69102605D01*
X192902596Y-69102607D01*
X192865424Y-69233253D01*
X192844244Y-69307690D01*
X192824571Y-69520000D01*
X192844244Y-69732310D01*
X192889758Y-69892274D01*
X192902596Y-69937392D01*
X192902596Y-69937394D01*
X192997632Y-70128253D01*
X193074756Y-70230380D01*
X193126128Y-70298407D01*
X193283698Y-70442052D01*
X193464981Y-70554298D01*
X193663802Y-70631321D01*
X193860613Y-70668111D01*
X193922893Y-70699779D01*
X193958166Y-70760092D01*
X193955232Y-70829900D01*
X193915023Y-70887040D01*
X193860613Y-70911888D01*
X193663802Y-70948679D01*
X193663799Y-70948679D01*
X193663799Y-70948680D01*
X193464982Y-71025701D01*
X193464980Y-71025702D01*
X193283699Y-71137947D01*
X193126127Y-71281593D01*
X192997632Y-71451746D01*
X192902596Y-71642605D01*
X192902596Y-71642607D01*
X192844244Y-71847689D01*
X192829550Y-72006272D01*
X192824571Y-72060000D01*
X192844244Y-72272310D01*
X192847760Y-72284669D01*
X192902596Y-72477392D01*
X192902596Y-72477394D01*
X192997632Y-72668253D01*
X192997634Y-72668255D01*
X193126128Y-72838407D01*
X193283698Y-72982052D01*
X193464981Y-73094298D01*
X193663802Y-73171321D01*
X193860613Y-73208111D01*
X193922893Y-73239779D01*
X193958166Y-73300092D01*
X193955232Y-73369900D01*
X193915023Y-73427040D01*
X193860613Y-73451888D01*
X193663802Y-73488679D01*
X193663799Y-73488679D01*
X193663799Y-73488680D01*
X193464982Y-73565701D01*
X193464980Y-73565702D01*
X193283699Y-73677947D01*
X193126127Y-73821593D01*
X192997632Y-73991746D01*
X192902596Y-74182605D01*
X192902596Y-74182607D01*
X192844244Y-74387689D01*
X192833054Y-74508457D01*
X192824571Y-74600000D01*
X192844244Y-74812310D01*
X192900983Y-75011725D01*
X192902596Y-75017392D01*
X192902596Y-75017394D01*
X192997632Y-75208253D01*
X192997634Y-75208255D01*
X193126128Y-75378407D01*
X193283698Y-75522052D01*
X193464981Y-75634298D01*
X193663802Y-75711321D01*
X193860613Y-75748111D01*
X193922893Y-75779779D01*
X193958166Y-75840092D01*
X193955232Y-75909900D01*
X193915023Y-75967040D01*
X193860613Y-75991888D01*
X193663802Y-76028679D01*
X193663799Y-76028679D01*
X193663799Y-76028680D01*
X193464982Y-76105701D01*
X193464980Y-76105702D01*
X193283699Y-76217947D01*
X193126127Y-76361593D01*
X192997632Y-76531746D01*
X192902596Y-76722605D01*
X192902596Y-76722607D01*
X192844244Y-76927689D01*
X192830590Y-77075048D01*
X192824571Y-77140000D01*
X192844244Y-77352310D01*
X192897520Y-77539554D01*
X192902596Y-77557392D01*
X192902596Y-77557394D01*
X192997632Y-77748253D01*
X193126127Y-77918406D01*
X193126128Y-77918407D01*
X193283698Y-78062052D01*
X193464981Y-78174298D01*
X193663802Y-78251321D01*
X193860613Y-78288111D01*
X193922893Y-78319779D01*
X193958166Y-78380092D01*
X193955232Y-78449900D01*
X193915023Y-78507040D01*
X193860613Y-78531888D01*
X193663802Y-78568679D01*
X193663799Y-78568679D01*
X193663799Y-78568680D01*
X193464982Y-78645701D01*
X193464980Y-78645702D01*
X193283699Y-78757947D01*
X193126127Y-78901593D01*
X192997632Y-79071746D01*
X192902596Y-79262605D01*
X192902596Y-79262607D01*
X192844244Y-79467689D01*
X192824571Y-79679999D01*
X192824571Y-79680000D01*
X192844244Y-79892310D01*
X192902596Y-80097392D01*
X192902596Y-80097394D01*
X192997632Y-80288253D01*
X192997634Y-80288255D01*
X193126128Y-80458407D01*
X193283698Y-80602052D01*
X193464981Y-80714298D01*
X193663802Y-80791321D01*
X193860613Y-80828111D01*
X193922893Y-80859779D01*
X193958166Y-80920092D01*
X193955232Y-80989900D01*
X193915023Y-81047040D01*
X193860613Y-81071888D01*
X193663802Y-81108679D01*
X193663799Y-81108679D01*
X193663799Y-81108680D01*
X193464982Y-81185701D01*
X193464980Y-81185702D01*
X193283699Y-81297947D01*
X193126127Y-81441593D01*
X192997632Y-81611746D01*
X192902596Y-81802605D01*
X192902596Y-81802607D01*
X192861610Y-81946657D01*
X192844244Y-82007690D01*
X192824571Y-82220000D01*
X192844244Y-82432310D01*
X192881056Y-82561690D01*
X192902596Y-82637392D01*
X192902596Y-82637394D01*
X192997632Y-82828253D01*
X192997634Y-82828255D01*
X193126128Y-82998407D01*
X193283698Y-83142052D01*
X193464981Y-83254298D01*
X193663802Y-83331321D01*
X193860613Y-83368111D01*
X193922893Y-83399779D01*
X193958166Y-83460092D01*
X193955232Y-83529900D01*
X193915023Y-83587040D01*
X193860613Y-83611888D01*
X193663802Y-83648679D01*
X193663799Y-83648679D01*
X193663799Y-83648680D01*
X193464982Y-83725701D01*
X193464980Y-83725702D01*
X193283699Y-83837947D01*
X193126127Y-83981593D01*
X192997632Y-84151746D01*
X192902596Y-84342605D01*
X192902596Y-84342607D01*
X192844244Y-84547689D01*
X192824571Y-84759999D01*
X192824571Y-84760000D01*
X192844244Y-84972310D01*
X192902596Y-85177392D01*
X192902596Y-85177394D01*
X192997632Y-85368253D01*
X193126127Y-85538406D01*
X193126128Y-85538407D01*
X193283698Y-85682052D01*
X193464981Y-85794298D01*
X193663802Y-85871321D01*
X193860613Y-85908111D01*
X193922893Y-85939779D01*
X193958166Y-86000092D01*
X193955232Y-86069900D01*
X193915023Y-86127040D01*
X193860613Y-86151888D01*
X193663802Y-86188679D01*
X193663799Y-86188679D01*
X193663799Y-86188680D01*
X193464982Y-86265701D01*
X193464980Y-86265702D01*
X193283699Y-86377947D01*
X193126127Y-86521593D01*
X192997632Y-86691746D01*
X192902596Y-86882605D01*
X192902596Y-86882607D01*
X192844244Y-87087689D01*
X192824571Y-87299999D01*
X192824571Y-87300000D01*
X192844244Y-87512310D01*
X192902596Y-87717392D01*
X192902596Y-87717394D01*
X192997632Y-87908253D01*
X192997634Y-87908255D01*
X193126128Y-88078407D01*
X193283698Y-88222052D01*
X193464981Y-88334298D01*
X193663802Y-88411321D01*
X193860613Y-88448111D01*
X193922893Y-88479779D01*
X193958166Y-88540092D01*
X193955232Y-88609900D01*
X193915023Y-88667040D01*
X193860613Y-88691888D01*
X193663802Y-88728679D01*
X193663799Y-88728679D01*
X193663799Y-88728680D01*
X193464982Y-88805701D01*
X193464980Y-88805702D01*
X193283699Y-88917947D01*
X193126127Y-89061593D01*
X192997632Y-89231746D01*
X192902596Y-89422605D01*
X192902596Y-89422607D01*
X192844244Y-89627689D01*
X192827880Y-89804294D01*
X192824571Y-89840000D01*
X192844244Y-90052310D01*
X192874792Y-90159675D01*
X192902596Y-90257392D01*
X192902596Y-90257394D01*
X192997632Y-90448253D01*
X193070183Y-90544325D01*
X193126128Y-90618407D01*
X193283698Y-90762052D01*
X193464981Y-90874298D01*
X193493961Y-90885525D01*
X193549362Y-90928095D01*
X193572954Y-90993861D01*
X193557244Y-91061942D01*
X193507222Y-91110722D01*
X193501573Y-91113533D01*
X193302422Y-91206399D01*
X193302420Y-91206400D01*
X193108926Y-91341886D01*
X193108920Y-91341891D01*
X192941891Y-91508920D01*
X192941886Y-91508926D01*
X192806400Y-91702420D01*
X192806399Y-91702422D01*
X192706570Y-91916507D01*
X192706567Y-91916513D01*
X192649364Y-92129999D01*
X192649364Y-92130000D01*
X193546314Y-92130000D01*
X193520507Y-92170156D01*
X193480000Y-92308111D01*
X193480000Y-92451889D01*
X193520507Y-92589844D01*
X193546314Y-92630000D01*
X192649364Y-92630000D01*
X192706567Y-92843486D01*
X192706570Y-92843492D01*
X192806399Y-93057578D01*
X192941894Y-93251082D01*
X193108917Y-93418105D01*
X193302421Y-93553600D01*
X193516507Y-93653429D01*
X193516516Y-93653433D01*
X193730000Y-93710634D01*
X193730000Y-92815501D01*
X193837685Y-92864680D01*
X193944237Y-92880000D01*
X194015763Y-92880000D01*
X194122315Y-92864680D01*
X194230000Y-92815501D01*
X194230000Y-93710633D01*
X194443483Y-93653433D01*
X194443492Y-93653429D01*
X194657578Y-93553600D01*
X194851082Y-93418105D01*
X195018105Y-93251082D01*
X195153600Y-93057578D01*
X195253429Y-92843492D01*
X195253432Y-92843486D01*
X195310636Y-92630000D01*
X194413686Y-92630000D01*
X194439493Y-92589844D01*
X194480000Y-92451889D01*
X194480000Y-92308111D01*
X194439493Y-92170156D01*
X194413686Y-92130000D01*
X195310636Y-92130000D01*
X195310635Y-92129999D01*
X195253432Y-91916513D01*
X195253429Y-91916507D01*
X195153600Y-91702422D01*
X195153599Y-91702420D01*
X195018113Y-91508926D01*
X195018108Y-91508920D01*
X194851082Y-91341894D01*
X194657578Y-91206399D01*
X194458426Y-91113533D01*
X194405987Y-91067360D01*
X194386835Y-91000167D01*
X194407051Y-90933286D01*
X194460216Y-90887951D01*
X194466005Y-90885537D01*
X194495019Y-90874298D01*
X194676302Y-90762052D01*
X194833872Y-90618407D01*
X194962366Y-90448255D01*
X195057405Y-90257389D01*
X195115756Y-90052310D01*
X195126529Y-89936047D01*
X195152315Y-89871111D01*
X195196869Y-89839194D01*
X195160497Y-89818331D01*
X195128307Y-89756318D01*
X195126529Y-89743951D01*
X195122508Y-89700557D01*
X195115756Y-89627690D01*
X195057405Y-89422611D01*
X195057403Y-89422606D01*
X195057403Y-89422605D01*
X194962367Y-89231746D01*
X194833872Y-89061593D01*
X194829900Y-89057972D01*
X194676302Y-88917948D01*
X194495019Y-88805702D01*
X194495017Y-88805701D01*
X194358986Y-88753003D01*
X194296198Y-88728679D01*
X194099385Y-88691888D01*
X194037106Y-88660221D01*
X194001833Y-88599908D01*
X194004767Y-88530100D01*
X194044976Y-88472960D01*
X194099384Y-88448111D01*
X194296198Y-88411321D01*
X194495019Y-88334298D01*
X194676302Y-88222052D01*
X194833872Y-88078407D01*
X194962366Y-87908255D01*
X194964632Y-87903705D01*
X195057403Y-87717394D01*
X195057403Y-87717393D01*
X195057405Y-87717389D01*
X195115756Y-87512310D01*
X195126529Y-87396047D01*
X195152315Y-87331111D01*
X195196869Y-87299194D01*
X195160497Y-87278331D01*
X195128307Y-87216318D01*
X195126529Y-87203951D01*
X195124842Y-87185742D01*
X195115756Y-87087690D01*
X195057405Y-86882611D01*
X195057403Y-86882606D01*
X195057403Y-86882605D01*
X194962367Y-86691746D01*
X194833872Y-86521593D01*
X194793160Y-86484479D01*
X194676302Y-86377948D01*
X194495019Y-86265702D01*
X194495017Y-86265701D01*
X194392615Y-86226031D01*
X194296198Y-86188679D01*
X194099385Y-86151888D01*
X194037106Y-86120221D01*
X194001833Y-86059908D01*
X194004767Y-85990100D01*
X194044976Y-85932960D01*
X194099384Y-85908111D01*
X194296198Y-85871321D01*
X194495019Y-85794298D01*
X194676302Y-85682052D01*
X194833872Y-85538407D01*
X194962366Y-85368255D01*
X195057405Y-85177389D01*
X195115756Y-84972310D01*
X195126529Y-84856047D01*
X195152315Y-84791111D01*
X195196869Y-84759194D01*
X195160497Y-84738331D01*
X195128307Y-84676318D01*
X195126529Y-84663951D01*
X195123384Y-84630008D01*
X195115756Y-84547690D01*
X195057405Y-84342611D01*
X195057403Y-84342606D01*
X195057403Y-84342605D01*
X194962367Y-84151746D01*
X194833872Y-83981593D01*
X194829900Y-83977972D01*
X194676302Y-83837948D01*
X194495019Y-83725702D01*
X194495017Y-83725701D01*
X194395608Y-83687190D01*
X194296198Y-83648679D01*
X194099385Y-83611888D01*
X194037106Y-83580221D01*
X194001833Y-83519908D01*
X194004767Y-83450100D01*
X194044976Y-83392960D01*
X194099384Y-83368111D01*
X194296198Y-83331321D01*
X194495019Y-83254298D01*
X194676302Y-83142052D01*
X194833872Y-82998407D01*
X194962366Y-82828255D01*
X194997420Y-82757857D01*
X195057403Y-82637394D01*
X195057403Y-82637393D01*
X195057405Y-82637389D01*
X195115756Y-82432310D01*
X195126529Y-82316047D01*
X195152315Y-82251111D01*
X195196869Y-82219194D01*
X195160497Y-82198331D01*
X195128307Y-82136318D01*
X195126529Y-82123951D01*
X195124979Y-82107224D01*
X195115756Y-82007690D01*
X195057405Y-81802611D01*
X195057403Y-81802606D01*
X195057403Y-81802605D01*
X194962367Y-81611746D01*
X194833872Y-81441593D01*
X194770372Y-81383705D01*
X194676302Y-81297948D01*
X194495019Y-81185702D01*
X194495017Y-81185701D01*
X194395608Y-81147190D01*
X194296198Y-81108679D01*
X194099385Y-81071888D01*
X194037106Y-81040221D01*
X194001833Y-80979908D01*
X194004767Y-80910100D01*
X194044976Y-80852960D01*
X194099384Y-80828111D01*
X194296198Y-80791321D01*
X194495019Y-80714298D01*
X194676302Y-80602052D01*
X194833872Y-80458407D01*
X194962366Y-80288255D01*
X195057405Y-80097389D01*
X195115756Y-79892310D01*
X195126529Y-79776047D01*
X195152315Y-79711111D01*
X195196869Y-79679194D01*
X195160497Y-79658331D01*
X195128307Y-79596318D01*
X195126529Y-79583951D01*
X195123602Y-79552369D01*
X195115756Y-79467690D01*
X195057405Y-79262611D01*
X195057403Y-79262606D01*
X195057403Y-79262605D01*
X194962367Y-79071746D01*
X194833872Y-78901593D01*
X194829900Y-78897972D01*
X194676302Y-78757948D01*
X194495019Y-78645702D01*
X194495017Y-78645701D01*
X194378338Y-78600500D01*
X194296198Y-78568679D01*
X194099385Y-78531888D01*
X194037106Y-78500221D01*
X194001833Y-78439908D01*
X194004767Y-78370100D01*
X194044976Y-78312960D01*
X194099384Y-78288111D01*
X194296198Y-78251321D01*
X194495019Y-78174298D01*
X194676302Y-78062052D01*
X194833872Y-77918407D01*
X194962366Y-77748255D01*
X194981492Y-77709844D01*
X195057403Y-77557394D01*
X195057403Y-77557393D01*
X195057405Y-77557389D01*
X195115756Y-77352310D01*
X195126529Y-77236047D01*
X195152315Y-77171111D01*
X195196869Y-77139194D01*
X195160497Y-77118331D01*
X195128307Y-77056318D01*
X195126529Y-77043951D01*
X195122456Y-77000000D01*
X195115756Y-76927690D01*
X195057405Y-76722611D01*
X195057403Y-76722606D01*
X195057403Y-76722605D01*
X194962367Y-76531746D01*
X194833872Y-76361593D01*
X194728616Y-76265639D01*
X194676302Y-76217948D01*
X194495019Y-76105702D01*
X194495017Y-76105701D01*
X194395608Y-76067190D01*
X194296198Y-76028679D01*
X194099385Y-75991888D01*
X194037106Y-75960221D01*
X194001833Y-75899908D01*
X194004767Y-75830100D01*
X194044976Y-75772960D01*
X194099384Y-75748111D01*
X194296198Y-75711321D01*
X194495019Y-75634298D01*
X194676302Y-75522052D01*
X194833872Y-75378407D01*
X194962366Y-75208255D01*
X195006901Y-75118816D01*
X195057403Y-75017394D01*
X195057403Y-75017393D01*
X195057405Y-75017389D01*
X195115756Y-74812310D01*
X195126529Y-74696047D01*
X195152315Y-74631111D01*
X195196869Y-74599194D01*
X195160497Y-74578331D01*
X195128307Y-74516318D01*
X195126529Y-74503951D01*
X195124132Y-74478083D01*
X195115756Y-74387690D01*
X195057405Y-74182611D01*
X195057403Y-74182606D01*
X195057403Y-74182605D01*
X194962367Y-73991746D01*
X194833872Y-73821593D01*
X194807506Y-73797557D01*
X194676302Y-73677948D01*
X194495019Y-73565702D01*
X194495017Y-73565701D01*
X194385525Y-73523284D01*
X194296198Y-73488679D01*
X194099385Y-73451888D01*
X194037106Y-73420221D01*
X194001833Y-73359908D01*
X194004767Y-73290100D01*
X194044976Y-73232960D01*
X194099384Y-73208111D01*
X194296198Y-73171321D01*
X194495019Y-73094298D01*
X194676302Y-72982052D01*
X194833872Y-72838407D01*
X194962366Y-72668255D01*
X194962367Y-72668253D01*
X195057403Y-72477394D01*
X195057403Y-72477393D01*
X195057405Y-72477389D01*
X195115756Y-72272310D01*
X195126529Y-72156047D01*
X195152315Y-72091111D01*
X195196869Y-72059194D01*
X195160497Y-72038331D01*
X195128307Y-71976318D01*
X195126529Y-71963951D01*
X195122456Y-71920001D01*
X195115756Y-71847690D01*
X195057405Y-71642611D01*
X195057403Y-71642606D01*
X195057403Y-71642605D01*
X194962367Y-71451746D01*
X194833872Y-71281593D01*
X194793270Y-71244579D01*
X194676302Y-71137948D01*
X194495019Y-71025702D01*
X194495017Y-71025701D01*
X194366412Y-70975880D01*
X194296198Y-70948679D01*
X194099385Y-70911888D01*
X194037106Y-70880221D01*
X194001833Y-70819908D01*
X194004767Y-70750100D01*
X194044976Y-70692960D01*
X194099384Y-70668111D01*
X194296198Y-70631321D01*
X194495019Y-70554298D01*
X194676302Y-70442052D01*
X194833872Y-70298407D01*
X194962366Y-70128255D01*
X195001182Y-70050301D01*
X195057403Y-69937394D01*
X195057403Y-69937393D01*
X195057405Y-69937389D01*
X195115756Y-69732310D01*
X195126529Y-69616047D01*
X195152315Y-69551111D01*
X195196869Y-69519194D01*
X195160497Y-69498331D01*
X195128307Y-69436318D01*
X195126529Y-69423951D01*
X195122242Y-69377688D01*
X195115756Y-69307690D01*
X195057405Y-69102611D01*
X195057403Y-69102606D01*
X195057403Y-69102605D01*
X194962367Y-68911746D01*
X194833872Y-68741593D01*
X194764327Y-68678194D01*
X194676302Y-68597948D01*
X194495019Y-68485702D01*
X194495017Y-68485701D01*
X194355635Y-68431705D01*
X194296198Y-68408679D01*
X194099385Y-68371888D01*
X194037106Y-68340221D01*
X194001833Y-68279908D01*
X194004767Y-68210100D01*
X194044976Y-68152960D01*
X194099384Y-68128111D01*
X194296198Y-68091321D01*
X194495019Y-68014298D01*
X194676302Y-67902052D01*
X194833872Y-67758407D01*
X194962366Y-67588255D01*
X194996037Y-67520634D01*
X195057403Y-67397394D01*
X195057403Y-67397393D01*
X195057405Y-67397389D01*
X195115756Y-67192310D01*
X195126529Y-67076047D01*
X195152315Y-67011111D01*
X195196869Y-66979194D01*
X195160497Y-66958331D01*
X195128307Y-66896318D01*
X195126529Y-66883951D01*
X195120770Y-66821806D01*
X195115756Y-66767690D01*
X195057405Y-66562611D01*
X195057403Y-66562606D01*
X195057403Y-66562605D01*
X194962367Y-66371746D01*
X194833872Y-66201593D01*
X194802529Y-66173020D01*
X194676302Y-66057948D01*
X194495019Y-65945702D01*
X194495017Y-65945701D01*
X194395608Y-65907190D01*
X194296198Y-65868679D01*
X194099385Y-65831888D01*
X194037106Y-65800221D01*
X194001833Y-65739908D01*
X194004767Y-65670100D01*
X194044976Y-65612960D01*
X194099384Y-65588111D01*
X194296198Y-65551321D01*
X194495019Y-65474298D01*
X194676302Y-65362052D01*
X194833872Y-65218407D01*
X194962366Y-65048255D01*
X195031550Y-64909314D01*
X195057403Y-64857394D01*
X195057403Y-64857393D01*
X195057405Y-64857389D01*
X195115756Y-64652310D01*
X195126529Y-64536047D01*
X195152315Y-64471111D01*
X195196869Y-64439194D01*
X195160497Y-64418331D01*
X195128307Y-64356318D01*
X195126529Y-64343951D01*
X195124118Y-64317930D01*
X195115756Y-64227690D01*
X195057405Y-64022611D01*
X195057403Y-64022606D01*
X195057403Y-64022605D01*
X194962367Y-63831746D01*
X194833872Y-63661593D01*
X194676302Y-63517948D01*
X194495019Y-63405702D01*
X194495017Y-63405701D01*
X194395608Y-63367190D01*
X194296198Y-63328679D01*
X194099385Y-63291888D01*
X194037106Y-63260221D01*
X194001833Y-63199908D01*
X194004767Y-63130100D01*
X194044976Y-63072960D01*
X194099384Y-63048111D01*
X194296198Y-63011321D01*
X194495019Y-62934298D01*
X194676302Y-62822052D01*
X194833872Y-62678407D01*
X194962366Y-62508255D01*
X195057405Y-62317389D01*
X195115756Y-62112310D01*
X195126529Y-61996047D01*
X195152315Y-61931111D01*
X195196869Y-61899194D01*
X195160497Y-61878331D01*
X195128307Y-61816318D01*
X195126529Y-61803951D01*
X195125849Y-61796613D01*
X195115756Y-61687690D01*
X195057405Y-61482611D01*
X195057403Y-61482606D01*
X195057403Y-61482605D01*
X194962367Y-61291746D01*
X194833872Y-61121593D01*
X194676302Y-60977948D01*
X194495019Y-60865702D01*
X194495017Y-60865701D01*
X194359128Y-60813058D01*
X194296198Y-60788679D01*
X194099385Y-60751888D01*
X194037106Y-60720221D01*
X194001833Y-60659908D01*
X194004767Y-60590100D01*
X194044976Y-60532960D01*
X194099384Y-60508111D01*
X194296198Y-60471321D01*
X194495019Y-60394298D01*
X194676302Y-60282052D01*
X194833872Y-60138407D01*
X194962366Y-59968255D01*
X194973533Y-59945829D01*
X195057403Y-59777394D01*
X195057403Y-59777393D01*
X195057405Y-59777389D01*
X195115756Y-59572310D01*
X195126529Y-59456047D01*
X195152315Y-59391111D01*
X195196869Y-59359194D01*
X195160497Y-59338331D01*
X195128307Y-59276318D01*
X195126529Y-59263951D01*
X195120543Y-59199351D01*
X195115756Y-59147690D01*
X195057405Y-58942611D01*
X195057403Y-58942606D01*
X195057403Y-58942605D01*
X194962367Y-58751746D01*
X194833872Y-58581593D01*
X194821402Y-58570225D01*
X194676302Y-58437948D01*
X194495019Y-58325702D01*
X194495017Y-58325701D01*
X194349652Y-58269387D01*
X194296198Y-58248679D01*
X194099385Y-58211888D01*
X194037106Y-58180221D01*
X194001833Y-58119908D01*
X194004767Y-58050100D01*
X194044976Y-57992960D01*
X194099384Y-57968111D01*
X194296198Y-57931321D01*
X194495019Y-57854298D01*
X194676302Y-57742052D01*
X194833872Y-57598407D01*
X194962366Y-57428255D01*
X195057405Y-57237389D01*
X195115756Y-57032310D01*
X195126529Y-56916047D01*
X195152315Y-56851111D01*
X195196869Y-56819194D01*
X195160497Y-56798331D01*
X195128307Y-56736318D01*
X195126529Y-56723951D01*
X195122398Y-56679372D01*
X195115756Y-56607690D01*
X195057405Y-56402611D01*
X195057403Y-56402606D01*
X195057403Y-56402605D01*
X194962367Y-56211746D01*
X194833872Y-56041593D01*
X194791723Y-56003169D01*
X194676302Y-55897948D01*
X194495019Y-55785702D01*
X194495017Y-55785701D01*
X194335986Y-55724093D01*
X194296198Y-55708679D01*
X194099385Y-55671888D01*
X194037106Y-55640221D01*
X194001833Y-55579908D01*
X194004767Y-55510100D01*
X194044976Y-55452960D01*
X194099384Y-55428111D01*
X194296198Y-55391321D01*
X194495019Y-55314298D01*
X194676302Y-55202052D01*
X194833872Y-55058407D01*
X194962366Y-54888255D01*
X195024522Y-54763428D01*
X195057403Y-54697394D01*
X195057403Y-54697393D01*
X195057405Y-54697389D01*
X195115756Y-54492310D01*
X195126529Y-54376047D01*
X195152315Y-54311111D01*
X195196869Y-54279194D01*
X195160497Y-54258331D01*
X195128307Y-54196318D01*
X195126529Y-54183951D01*
X195125849Y-54176613D01*
X195115756Y-54067690D01*
X195057405Y-53862611D01*
X195057403Y-53862606D01*
X195057403Y-53862605D01*
X194962367Y-53671746D01*
X194833872Y-53501593D01*
X194676302Y-53357948D01*
X194495019Y-53245702D01*
X194495017Y-53245701D01*
X194373857Y-53198764D01*
X194296198Y-53168679D01*
X194099385Y-53131888D01*
X194037106Y-53100221D01*
X194001833Y-53039908D01*
X194004767Y-52970100D01*
X194044976Y-52912960D01*
X194099384Y-52888111D01*
X194296198Y-52851321D01*
X194495019Y-52774298D01*
X194676302Y-52662052D01*
X194833872Y-52518407D01*
X194962366Y-52348255D01*
X195057405Y-52157389D01*
X195115756Y-51952310D01*
X195126529Y-51836047D01*
X195152315Y-51771111D01*
X195196869Y-51739194D01*
X195160497Y-51718331D01*
X195128307Y-51656318D01*
X195126529Y-51643951D01*
X195125849Y-51636613D01*
X195115756Y-51527690D01*
X195057405Y-51322611D01*
X195057403Y-51322606D01*
X195057403Y-51322605D01*
X194962367Y-51131746D01*
X194833872Y-50961593D01*
X194802529Y-50933020D01*
X194676302Y-50817948D01*
X194495019Y-50705702D01*
X194495017Y-50705701D01*
X194336668Y-50644357D01*
X194296198Y-50628679D01*
X194123456Y-50596387D01*
X194061176Y-50564719D01*
X194025903Y-50504407D01*
X194028837Y-50434599D01*
X194069046Y-50377459D01*
X194133764Y-50351128D01*
X194146233Y-50350499D01*
X194874864Y-50350499D01*
X194874879Y-50350497D01*
X194874882Y-50350497D01*
X194899987Y-50347586D01*
X194899988Y-50347585D01*
X194899991Y-50347585D01*
X195002765Y-50302206D01*
X195082206Y-50222765D01*
X195127585Y-50119991D01*
X195130500Y-50094865D01*
X195130499Y-49356046D01*
X195150183Y-49289009D01*
X195202987Y-49243254D01*
X195272146Y-49233310D01*
X195335702Y-49262335D01*
X195373476Y-49321113D01*
X195377970Y-49344606D01*
X195383374Y-49402924D01*
X195384244Y-49412310D01*
X195431944Y-49579957D01*
X195442596Y-49617392D01*
X195442596Y-49617394D01*
X195537632Y-49808253D01*
X195666127Y-49978406D01*
X195666128Y-49978407D01*
X195823698Y-50122052D01*
X196004981Y-50234298D01*
X196203802Y-50311321D01*
X196400613Y-50348111D01*
X196462893Y-50379779D01*
X196498166Y-50440092D01*
X196495232Y-50509900D01*
X196455023Y-50567040D01*
X196400613Y-50591888D01*
X196203802Y-50628679D01*
X196203799Y-50628679D01*
X196203799Y-50628680D01*
X196004982Y-50705701D01*
X196004980Y-50705702D01*
X195823699Y-50817947D01*
X195666127Y-50961593D01*
X195537632Y-51131746D01*
X195442596Y-51322605D01*
X195442596Y-51322607D01*
X195384244Y-51527689D01*
X195373471Y-51643951D01*
X195347685Y-51708888D01*
X195303130Y-51740804D01*
X195339503Y-51761668D01*
X195371693Y-51823681D01*
X195373471Y-51836048D01*
X195384244Y-51952310D01*
X195442596Y-52157392D01*
X195442596Y-52157394D01*
X195537632Y-52348253D01*
X195537634Y-52348255D01*
X195666128Y-52518407D01*
X195823698Y-52662052D01*
X196004981Y-52774298D01*
X196203802Y-52851321D01*
X196400613Y-52888111D01*
X196462893Y-52919779D01*
X196498166Y-52980092D01*
X196495232Y-53049900D01*
X196455023Y-53107040D01*
X196400613Y-53131888D01*
X196203802Y-53168679D01*
X196203799Y-53168679D01*
X196203799Y-53168680D01*
X196004982Y-53245701D01*
X196004980Y-53245702D01*
X195823699Y-53357947D01*
X195666127Y-53501593D01*
X195537632Y-53671746D01*
X195442596Y-53862605D01*
X195442596Y-53862607D01*
X195384244Y-54067689D01*
X195373471Y-54183951D01*
X195347685Y-54248888D01*
X195303130Y-54280804D01*
X195339503Y-54301668D01*
X195371693Y-54363681D01*
X195373471Y-54376048D01*
X195384244Y-54492310D01*
X195442596Y-54697392D01*
X195442596Y-54697394D01*
X195537632Y-54888253D01*
X195622929Y-55001203D01*
X195666128Y-55058407D01*
X195823698Y-55202052D01*
X196004981Y-55314298D01*
X196203802Y-55391321D01*
X196400613Y-55428111D01*
X196462893Y-55459779D01*
X196498166Y-55520092D01*
X196495232Y-55589900D01*
X196455023Y-55647040D01*
X196400613Y-55671888D01*
X196203802Y-55708679D01*
X196203799Y-55708679D01*
X196203799Y-55708680D01*
X196004982Y-55785701D01*
X196004980Y-55785702D01*
X195823699Y-55897947D01*
X195666127Y-56041593D01*
X195537632Y-56211746D01*
X195442596Y-56402605D01*
X195442596Y-56402607D01*
X195384244Y-56607689D01*
X195373471Y-56723951D01*
X195347685Y-56788888D01*
X195303130Y-56820804D01*
X195339503Y-56841668D01*
X195371693Y-56903681D01*
X195373470Y-56916047D01*
X195384244Y-57032310D01*
X195438878Y-57224327D01*
X195442596Y-57237392D01*
X195442596Y-57237394D01*
X195537632Y-57428253D01*
X195666127Y-57598406D01*
X195666128Y-57598407D01*
X195823698Y-57742052D01*
X196004981Y-57854298D01*
X196203802Y-57931321D01*
X196400613Y-57968111D01*
X196462893Y-57999779D01*
X196498166Y-58060092D01*
X196495232Y-58129900D01*
X196455023Y-58187040D01*
X196400613Y-58211888D01*
X196203802Y-58248679D01*
X196203799Y-58248679D01*
X196203799Y-58248680D01*
X196004982Y-58325701D01*
X196004980Y-58325702D01*
X195823699Y-58437947D01*
X195666127Y-58581593D01*
X195537632Y-58751746D01*
X195442596Y-58942605D01*
X195442596Y-58942607D01*
X195384244Y-59147689D01*
X195373471Y-59263951D01*
X195347685Y-59328888D01*
X195303130Y-59360804D01*
X195339503Y-59381668D01*
X195371693Y-59443681D01*
X195373470Y-59456047D01*
X195384244Y-59572310D01*
X195429941Y-59732917D01*
X195442596Y-59777392D01*
X195442596Y-59777394D01*
X195537632Y-59968253D01*
X195636425Y-60099074D01*
X195666128Y-60138407D01*
X195823698Y-60282052D01*
X196004981Y-60394298D01*
X196203802Y-60471321D01*
X196400613Y-60508111D01*
X196462893Y-60539779D01*
X196498166Y-60600092D01*
X196495232Y-60669900D01*
X196455023Y-60727040D01*
X196400613Y-60751888D01*
X196203802Y-60788679D01*
X196203799Y-60788679D01*
X196203799Y-60788680D01*
X196004982Y-60865701D01*
X196004980Y-60865702D01*
X195823699Y-60977947D01*
X195666127Y-61121593D01*
X195537632Y-61291746D01*
X195442596Y-61482605D01*
X195442596Y-61482607D01*
X195384244Y-61687689D01*
X195373471Y-61803951D01*
X195347685Y-61868888D01*
X195303130Y-61900804D01*
X195339503Y-61921668D01*
X195371693Y-61983681D01*
X195373471Y-61996048D01*
X195384244Y-62112310D01*
X195442596Y-62317392D01*
X195442596Y-62317394D01*
X195537632Y-62508253D01*
X195628771Y-62628939D01*
X195666128Y-62678407D01*
X195823698Y-62822052D01*
X196004981Y-62934298D01*
X196203802Y-63011321D01*
X196400613Y-63048111D01*
X196462893Y-63079779D01*
X196498166Y-63140092D01*
X196495232Y-63209900D01*
X196455023Y-63267040D01*
X196400613Y-63291888D01*
X196203802Y-63328679D01*
X196203799Y-63328679D01*
X196203799Y-63328680D01*
X196004982Y-63405701D01*
X196004980Y-63405702D01*
X195823699Y-63517947D01*
X195666127Y-63661593D01*
X195537632Y-63831746D01*
X195442596Y-64022605D01*
X195442596Y-64022607D01*
X195384244Y-64227689D01*
X195373471Y-64343951D01*
X195347685Y-64408888D01*
X195303130Y-64440804D01*
X195339503Y-64461668D01*
X195371693Y-64523681D01*
X195373471Y-64536048D01*
X195384244Y-64652310D01*
X195442596Y-64857392D01*
X195442596Y-64857394D01*
X195537632Y-65048253D01*
X195666127Y-65218406D01*
X195666128Y-65218407D01*
X195823698Y-65362052D01*
X196004981Y-65474298D01*
X196203802Y-65551321D01*
X196400613Y-65588111D01*
X196462893Y-65619779D01*
X196498166Y-65680092D01*
X196495232Y-65749900D01*
X196455023Y-65807040D01*
X196400613Y-65831888D01*
X196203802Y-65868679D01*
X196203799Y-65868679D01*
X196203799Y-65868680D01*
X196004982Y-65945701D01*
X196004980Y-65945702D01*
X195823699Y-66057947D01*
X195666127Y-66201593D01*
X195537632Y-66371746D01*
X195442596Y-66562605D01*
X195442596Y-66562607D01*
X195384244Y-66767689D01*
X195373471Y-66883951D01*
X195347685Y-66948888D01*
X195303130Y-66980804D01*
X195339503Y-67001668D01*
X195371693Y-67063681D01*
X195373470Y-67076047D01*
X195384244Y-67192310D01*
X195439362Y-67386028D01*
X195442596Y-67397392D01*
X195442596Y-67397394D01*
X195537632Y-67588253D01*
X195666127Y-67758406D01*
X195666128Y-67758407D01*
X195823698Y-67902052D01*
X196004981Y-68014298D01*
X196203802Y-68091321D01*
X196400613Y-68128111D01*
X196462893Y-68159779D01*
X196498166Y-68220092D01*
X196495232Y-68289900D01*
X196455023Y-68347040D01*
X196400613Y-68371888D01*
X196203802Y-68408679D01*
X196203799Y-68408679D01*
X196203799Y-68408680D01*
X196004982Y-68485701D01*
X196004980Y-68485702D01*
X195823699Y-68597947D01*
X195666127Y-68741593D01*
X195537632Y-68911746D01*
X195442596Y-69102605D01*
X195442596Y-69102607D01*
X195384244Y-69307689D01*
X195373471Y-69423951D01*
X195347685Y-69488888D01*
X195303130Y-69520804D01*
X195339503Y-69541668D01*
X195371693Y-69603681D01*
X195373470Y-69616047D01*
X195384244Y-69732310D01*
X195429758Y-69892274D01*
X195442596Y-69937392D01*
X195442596Y-69937394D01*
X195537632Y-70128253D01*
X195614756Y-70230380D01*
X195666128Y-70298407D01*
X195823698Y-70442052D01*
X196004981Y-70554298D01*
X196203802Y-70631321D01*
X196400613Y-70668111D01*
X196462893Y-70699779D01*
X196498166Y-70760092D01*
X196495232Y-70829900D01*
X196455023Y-70887040D01*
X196400613Y-70911888D01*
X196203802Y-70948679D01*
X196203799Y-70948679D01*
X196203799Y-70948680D01*
X196004982Y-71025701D01*
X196004980Y-71025702D01*
X195823699Y-71137947D01*
X195666127Y-71281593D01*
X195537632Y-71451746D01*
X195442596Y-71642605D01*
X195442596Y-71642607D01*
X195384244Y-71847689D01*
X195373471Y-71963951D01*
X195347685Y-72028888D01*
X195303130Y-72060804D01*
X195339503Y-72081668D01*
X195371693Y-72143681D01*
X195373470Y-72156047D01*
X195384244Y-72272310D01*
X195387760Y-72284669D01*
X195442596Y-72477392D01*
X195442596Y-72477394D01*
X195537632Y-72668253D01*
X195537634Y-72668255D01*
X195666128Y-72838407D01*
X195823698Y-72982052D01*
X196004981Y-73094298D01*
X196203802Y-73171321D01*
X196400613Y-73208111D01*
X196462893Y-73239779D01*
X196498166Y-73300092D01*
X196495232Y-73369900D01*
X196455023Y-73427040D01*
X196400613Y-73451888D01*
X196203802Y-73488679D01*
X196203799Y-73488679D01*
X196203799Y-73488680D01*
X196004982Y-73565701D01*
X196004980Y-73565702D01*
X195823699Y-73677947D01*
X195666127Y-73821593D01*
X195537632Y-73991746D01*
X195442596Y-74182605D01*
X195442596Y-74182607D01*
X195384244Y-74387689D01*
X195373471Y-74503951D01*
X195347685Y-74568888D01*
X195303130Y-74600804D01*
X195339503Y-74621668D01*
X195371693Y-74683681D01*
X195373470Y-74696047D01*
X195384244Y-74812310D01*
X195440983Y-75011725D01*
X195442596Y-75017392D01*
X195442596Y-75017394D01*
X195537632Y-75208253D01*
X195537634Y-75208255D01*
X195666128Y-75378407D01*
X195823698Y-75522052D01*
X196004981Y-75634298D01*
X196203802Y-75711321D01*
X196400613Y-75748111D01*
X196462893Y-75779779D01*
X196498166Y-75840092D01*
X196495232Y-75909900D01*
X196455023Y-75967040D01*
X196400613Y-75991888D01*
X196203802Y-76028679D01*
X196203799Y-76028679D01*
X196203799Y-76028680D01*
X196004982Y-76105701D01*
X196004980Y-76105702D01*
X195823699Y-76217947D01*
X195666127Y-76361593D01*
X195537632Y-76531746D01*
X195442596Y-76722605D01*
X195442596Y-76722607D01*
X195384244Y-76927689D01*
X195373471Y-77043951D01*
X195347685Y-77108888D01*
X195303130Y-77140804D01*
X195339503Y-77161668D01*
X195371693Y-77223681D01*
X195373470Y-77236047D01*
X195384244Y-77352310D01*
X195437520Y-77539554D01*
X195442596Y-77557392D01*
X195442596Y-77557394D01*
X195537632Y-77748253D01*
X195666127Y-77918406D01*
X195666128Y-77918407D01*
X195823698Y-78062052D01*
X196004981Y-78174298D01*
X196203802Y-78251321D01*
X196400613Y-78288111D01*
X196462893Y-78319779D01*
X196498166Y-78380092D01*
X196495232Y-78449900D01*
X196455023Y-78507040D01*
X196400613Y-78531888D01*
X196203802Y-78568679D01*
X196203799Y-78568679D01*
X196203799Y-78568680D01*
X196004982Y-78645701D01*
X196004980Y-78645702D01*
X195823699Y-78757947D01*
X195666127Y-78901593D01*
X195537632Y-79071746D01*
X195442596Y-79262605D01*
X195442596Y-79262607D01*
X195384244Y-79467689D01*
X195373471Y-79583951D01*
X195347685Y-79648888D01*
X195303130Y-79680804D01*
X195339503Y-79701668D01*
X195371693Y-79763681D01*
X195373471Y-79776048D01*
X195384244Y-79892310D01*
X195442596Y-80097392D01*
X195442596Y-80097394D01*
X195537632Y-80288253D01*
X195537634Y-80288255D01*
X195666128Y-80458407D01*
X195823698Y-80602052D01*
X196004981Y-80714298D01*
X196203802Y-80791321D01*
X196400613Y-80828111D01*
X196462893Y-80859779D01*
X196498166Y-80920092D01*
X196495232Y-80989900D01*
X196455023Y-81047040D01*
X196400613Y-81071888D01*
X196203802Y-81108679D01*
X196203799Y-81108679D01*
X196203799Y-81108680D01*
X196004982Y-81185701D01*
X196004980Y-81185702D01*
X195823699Y-81297947D01*
X195666127Y-81441593D01*
X195537632Y-81611746D01*
X195442596Y-81802605D01*
X195442596Y-81802607D01*
X195384244Y-82007689D01*
X195373471Y-82123951D01*
X195347685Y-82188888D01*
X195303130Y-82220804D01*
X195339503Y-82241668D01*
X195371693Y-82303681D01*
X195373470Y-82316047D01*
X195384244Y-82432310D01*
X195421056Y-82561690D01*
X195442596Y-82637392D01*
X195442596Y-82637394D01*
X195537632Y-82828253D01*
X195537634Y-82828255D01*
X195666128Y-82998407D01*
X195823698Y-83142052D01*
X196004981Y-83254298D01*
X196203802Y-83331321D01*
X196400613Y-83368111D01*
X196462893Y-83399779D01*
X196498166Y-83460092D01*
X196495232Y-83529900D01*
X196455023Y-83587040D01*
X196400613Y-83611888D01*
X196203802Y-83648679D01*
X196203799Y-83648679D01*
X196203799Y-83648680D01*
X196004982Y-83725701D01*
X196004980Y-83725702D01*
X195823699Y-83837947D01*
X195666127Y-83981593D01*
X195537632Y-84151746D01*
X195442596Y-84342605D01*
X195442596Y-84342607D01*
X195384244Y-84547689D01*
X195373471Y-84663951D01*
X195347685Y-84728888D01*
X195303130Y-84760804D01*
X195339503Y-84781668D01*
X195371693Y-84843681D01*
X195373471Y-84856048D01*
X195384244Y-84972310D01*
X195442596Y-85177392D01*
X195442596Y-85177394D01*
X195537632Y-85368253D01*
X195666127Y-85538406D01*
X195666128Y-85538407D01*
X195823698Y-85682052D01*
X196004981Y-85794298D01*
X196203802Y-85871321D01*
X196400613Y-85908111D01*
X196462893Y-85939779D01*
X196498166Y-86000092D01*
X196495232Y-86069900D01*
X196455023Y-86127040D01*
X196400613Y-86151888D01*
X196203802Y-86188679D01*
X196203799Y-86188679D01*
X196203799Y-86188680D01*
X196004982Y-86265701D01*
X196004980Y-86265702D01*
X195823699Y-86377947D01*
X195666127Y-86521593D01*
X195537632Y-86691746D01*
X195442596Y-86882605D01*
X195442596Y-86882607D01*
X195384244Y-87087689D01*
X195373471Y-87203951D01*
X195347685Y-87268888D01*
X195303130Y-87300804D01*
X195339503Y-87321668D01*
X195371693Y-87383681D01*
X195373471Y-87396048D01*
X195384244Y-87512310D01*
X195442596Y-87717392D01*
X195442596Y-87717394D01*
X195537632Y-87908253D01*
X195537634Y-87908255D01*
X195666128Y-88078407D01*
X195823698Y-88222052D01*
X196004981Y-88334298D01*
X196203802Y-88411321D01*
X196400613Y-88448111D01*
X196462893Y-88479779D01*
X196498166Y-88540092D01*
X196495232Y-88609900D01*
X196455023Y-88667040D01*
X196400613Y-88691888D01*
X196203802Y-88728679D01*
X196203799Y-88728679D01*
X196203799Y-88728680D01*
X196004982Y-88805701D01*
X196004980Y-88805702D01*
X195823699Y-88917947D01*
X195666127Y-89061593D01*
X195537632Y-89231746D01*
X195442596Y-89422605D01*
X195442596Y-89422607D01*
X195384244Y-89627689D01*
X195373471Y-89743951D01*
X195347685Y-89808888D01*
X195303130Y-89840804D01*
X195339503Y-89861668D01*
X195371693Y-89923681D01*
X195373470Y-89936047D01*
X195384244Y-90052310D01*
X195414792Y-90159675D01*
X195442596Y-90257392D01*
X195442596Y-90257394D01*
X195537632Y-90448253D01*
X195610183Y-90544325D01*
X195666128Y-90618407D01*
X195823698Y-90762052D01*
X196004981Y-90874298D01*
X196203802Y-90951321D01*
X196413390Y-90990500D01*
X196413392Y-90990500D01*
X196626608Y-90990500D01*
X196626610Y-90990500D01*
X196836198Y-90951321D01*
X197035019Y-90874298D01*
X197180625Y-90784142D01*
X197247983Y-90765587D01*
X197314682Y-90786395D01*
X197359544Y-90839960D01*
X197369900Y-90889570D01*
X197369900Y-94100124D01*
X197350215Y-94167163D01*
X197333581Y-94187805D01*
X197004705Y-94516681D01*
X196943382Y-94550166D01*
X196917024Y-94553000D01*
X192788461Y-94553000D01*
X192721422Y-94533315D01*
X192675667Y-94480511D01*
X192665723Y-94411353D01*
X192672517Y-94385033D01*
X192678040Y-94370472D01*
X192698545Y-94201600D01*
X192678040Y-94032728D01*
X192675149Y-94025106D01*
X192631088Y-93908924D01*
X192617718Y-93873670D01*
X192521083Y-93733671D01*
X192393752Y-93620866D01*
X192393749Y-93620863D01*
X192243126Y-93541810D01*
X192077956Y-93501100D01*
X192008963Y-93501100D01*
X191965629Y-93493282D01*
X191927190Y-93478945D01*
X191919022Y-93475561D01*
X191873857Y-93454935D01*
X191873855Y-93454934D01*
X191869082Y-93454248D01*
X191843400Y-93447693D01*
X191838886Y-93446009D01*
X191789346Y-93442465D01*
X191780559Y-93441520D01*
X191767199Y-93439600D01*
X191767197Y-93439600D01*
X191753708Y-93439600D01*
X191744861Y-93439284D01*
X191695329Y-93435741D01*
X191695325Y-93435741D01*
X191690615Y-93436766D01*
X191664257Y-93439600D01*
X186538517Y-93439600D01*
X186471478Y-93419915D01*
X186425723Y-93367111D01*
X186415779Y-93297953D01*
X186439563Y-93240873D01*
X186519747Y-93134691D01*
X186559673Y-93081821D01*
X186650582Y-92899250D01*
X186706397Y-92703083D01*
X186725215Y-92500000D01*
X186706397Y-92296917D01*
X186650582Y-92100750D01*
X186645221Y-92089984D01*
X186562185Y-91923224D01*
X186559673Y-91918179D01*
X186446721Y-91768606D01*
X186436762Y-91755418D01*
X186286042Y-91618020D01*
X186286041Y-91618019D01*
X186179695Y-91552172D01*
X186179222Y-91551879D01*
X186132587Y-91499851D01*
X186120500Y-91446452D01*
X186120500Y-91315243D01*
X186123334Y-91288885D01*
X186124359Y-91284173D01*
X186120816Y-91234637D01*
X186120500Y-91225790D01*
X186120500Y-91212301D01*
X186118579Y-91198943D01*
X186117633Y-91190145D01*
X186114091Y-91140617D01*
X186112407Y-91136102D01*
X186105850Y-91110412D01*
X186105165Y-91105643D01*
X186084530Y-91060460D01*
X186081155Y-91052312D01*
X186063796Y-91005769D01*
X186060905Y-91001907D01*
X186047379Y-90979110D01*
X186045377Y-90974727D01*
X186012860Y-90937200D01*
X186007306Y-90930307D01*
X185999228Y-90919516D01*
X185999226Y-90919513D01*
X185999221Y-90919507D01*
X185989677Y-90909963D01*
X185983658Y-90903500D01*
X185951128Y-90865957D01*
X185951125Y-90865954D01*
X185947066Y-90863346D01*
X185926428Y-90846714D01*
X181650376Y-86570662D01*
X181616891Y-86509339D01*
X181621875Y-86439647D01*
X181661901Y-86385948D01*
X181661805Y-86385843D01*
X181662352Y-86385344D01*
X181663340Y-86384019D01*
X181666023Y-86381992D01*
X181666041Y-86381981D01*
X181816764Y-86244579D01*
X181939673Y-86081821D01*
X182030582Y-85899250D01*
X182086397Y-85703083D01*
X182105215Y-85500002D01*
X184695034Y-85500002D01*
X184714858Y-85726599D01*
X184714860Y-85726610D01*
X184773730Y-85946317D01*
X184773735Y-85946331D01*
X184869863Y-86152478D01*
X184920974Y-86225472D01*
X185602046Y-85544400D01*
X185614835Y-85625148D01*
X185672359Y-85738045D01*
X185761955Y-85827641D01*
X185874852Y-85885165D01*
X185955599Y-85897953D01*
X185274526Y-86579025D01*
X185347513Y-86630132D01*
X185347521Y-86630136D01*
X185553668Y-86726264D01*
X185553682Y-86726269D01*
X185773389Y-86785139D01*
X185773400Y-86785141D01*
X185999998Y-86804966D01*
X186000002Y-86804966D01*
X186226599Y-86785141D01*
X186226610Y-86785139D01*
X186446317Y-86726269D01*
X186446331Y-86726264D01*
X186652478Y-86630136D01*
X186725471Y-86579024D01*
X186044400Y-85897953D01*
X186125148Y-85885165D01*
X186238045Y-85827641D01*
X186327641Y-85738045D01*
X186385165Y-85625148D01*
X186397953Y-85544400D01*
X187079024Y-86225471D01*
X187130136Y-86152478D01*
X187226264Y-85946331D01*
X187226269Y-85946317D01*
X187285139Y-85726610D01*
X187285141Y-85726599D01*
X187304966Y-85500002D01*
X187304966Y-85499997D01*
X187285141Y-85273400D01*
X187285139Y-85273389D01*
X187226269Y-85053682D01*
X187226264Y-85053668D01*
X187130136Y-84847521D01*
X187130132Y-84847513D01*
X187079025Y-84774526D01*
X186397953Y-85455598D01*
X186385165Y-85374852D01*
X186327641Y-85261955D01*
X186238045Y-85172359D01*
X186125148Y-85114835D01*
X186044401Y-85102046D01*
X186725472Y-84420974D01*
X186652478Y-84369863D01*
X186446331Y-84273735D01*
X186446317Y-84273730D01*
X186226610Y-84214860D01*
X186226599Y-84214858D01*
X186000002Y-84195034D01*
X185999998Y-84195034D01*
X185773400Y-84214858D01*
X185773389Y-84214860D01*
X185553682Y-84273730D01*
X185553673Y-84273734D01*
X185347516Y-84369866D01*
X185347512Y-84369868D01*
X185274526Y-84420973D01*
X185274526Y-84420974D01*
X185955599Y-85102046D01*
X185874852Y-85114835D01*
X185761955Y-85172359D01*
X185672359Y-85261955D01*
X185614835Y-85374852D01*
X185602046Y-85455598D01*
X184920974Y-84774526D01*
X184920973Y-84774526D01*
X184869868Y-84847512D01*
X184869866Y-84847516D01*
X184773734Y-85053673D01*
X184773730Y-85053682D01*
X184714860Y-85273389D01*
X184714858Y-85273400D01*
X184695034Y-85499997D01*
X184695034Y-85500002D01*
X182105215Y-85500002D01*
X182105215Y-85500000D01*
X182086397Y-85296917D01*
X182030582Y-85100750D01*
X181939673Y-84918179D01*
X181836585Y-84781668D01*
X181816762Y-84755418D01*
X181666042Y-84618020D01*
X181666041Y-84618019D01*
X181559222Y-84551879D01*
X181512587Y-84499851D01*
X181500500Y-84446452D01*
X181500500Y-78758676D01*
X181520185Y-78691637D01*
X181536819Y-78670995D01*
X181606881Y-78600933D01*
X181668204Y-78567448D01*
X181717343Y-78566725D01*
X181898024Y-78600500D01*
X181898026Y-78600500D01*
X182101974Y-78600500D01*
X182101976Y-78600500D01*
X182302456Y-78563024D01*
X182492637Y-78489348D01*
X182666041Y-78381981D01*
X182809371Y-78251319D01*
X182816762Y-78244581D01*
X182827003Y-78231020D01*
X182939673Y-78081821D01*
X183030582Y-77899250D01*
X183086397Y-77703083D01*
X183105215Y-77500000D01*
X183086397Y-77296917D01*
X183030582Y-77100750D01*
X183028512Y-77096593D01*
X182980415Y-77000000D01*
X182939673Y-76918179D01*
X182816764Y-76755421D01*
X182816762Y-76755418D01*
X182666041Y-76618019D01*
X182666039Y-76618017D01*
X182492642Y-76510655D01*
X182492635Y-76510651D01*
X182397546Y-76473814D01*
X182302456Y-76436976D01*
X182101976Y-76399500D01*
X181898024Y-76399500D01*
X181697544Y-76436976D01*
X181697541Y-76436976D01*
X181697541Y-76436977D01*
X181507364Y-76510651D01*
X181507357Y-76510655D01*
X181333960Y-76618017D01*
X181333958Y-76618019D01*
X181183237Y-76755418D01*
X181060327Y-76918178D01*
X180969422Y-77100739D01*
X180969417Y-77100752D01*
X180913602Y-77296917D01*
X180894785Y-77499999D01*
X180894785Y-77500000D01*
X180913602Y-77703079D01*
X180913602Y-77703082D01*
X180913603Y-77703083D01*
X180932534Y-77769622D01*
X180931947Y-77839487D01*
X180900949Y-77891235D01*
X180693568Y-78098616D01*
X180672938Y-78115243D01*
X180668876Y-78117854D01*
X180668867Y-78117861D01*
X180636353Y-78155384D01*
X180630329Y-78161854D01*
X180620780Y-78171403D01*
X180612678Y-78182226D01*
X180607132Y-78189108D01*
X180574624Y-78226625D01*
X180574617Y-78226636D01*
X180572615Y-78231020D01*
X180559100Y-78253799D01*
X180556206Y-78257664D01*
X180556200Y-78257675D01*
X180538851Y-78304191D01*
X180535466Y-78312365D01*
X180514835Y-78357543D01*
X180514833Y-78357550D01*
X180514146Y-78362327D01*
X180507598Y-78387986D01*
X180505910Y-78392513D01*
X180505909Y-78392516D01*
X180502365Y-78442054D01*
X180501420Y-78450845D01*
X180499500Y-78464200D01*
X180499500Y-78477690D01*
X180499184Y-78486537D01*
X180495641Y-78536069D01*
X180495641Y-78536073D01*
X180496666Y-78540785D01*
X180499500Y-78567143D01*
X180499500Y-84446452D01*
X180479815Y-84513491D01*
X180440778Y-84551879D01*
X180333957Y-84618020D01*
X180183237Y-84755418D01*
X180060327Y-84918178D01*
X179969422Y-85100739D01*
X179969417Y-85100752D01*
X179913602Y-85296917D01*
X179894785Y-85499999D01*
X179894785Y-85500000D01*
X179913602Y-85703082D01*
X179969417Y-85899247D01*
X179969422Y-85899260D01*
X180060327Y-86081821D01*
X180183237Y-86244581D01*
X180333955Y-86381978D01*
X180333957Y-86381979D01*
X180333959Y-86381981D01*
X180440779Y-86448121D01*
X180487413Y-86500146D01*
X180499500Y-86553546D01*
X180499500Y-86560958D01*
X180496667Y-86587306D01*
X180495641Y-86592027D01*
X180495641Y-86592029D01*
X180495641Y-86592030D01*
X180499184Y-86641561D01*
X180499500Y-86650408D01*
X180499500Y-86663897D01*
X180501420Y-86677254D01*
X180502365Y-86686046D01*
X180505909Y-86735586D01*
X180507593Y-86740100D01*
X180514148Y-86765782D01*
X180514834Y-86770555D01*
X180535457Y-86815712D01*
X180538845Y-86823890D01*
X180556203Y-86870429D01*
X180559096Y-86874294D01*
X180572617Y-86897083D01*
X180574619Y-86901467D01*
X180574622Y-86901472D01*
X180574623Y-86901473D01*
X180607144Y-86939004D01*
X180612688Y-86945885D01*
X180620779Y-86956693D01*
X180630333Y-86966247D01*
X180636353Y-86972714D01*
X180668872Y-87010243D01*
X180668874Y-87010245D01*
X180672928Y-87012850D01*
X180693571Y-87029485D01*
X185045925Y-91381839D01*
X185079410Y-91443162D01*
X185074426Y-91512854D01*
X185032554Y-91568787D01*
X185023522Y-91574947D01*
X184953957Y-91618020D01*
X184803237Y-91755418D01*
X184680327Y-91918178D01*
X184589422Y-92100739D01*
X184589417Y-92100752D01*
X184533602Y-92296917D01*
X184514785Y-92499999D01*
X184514785Y-92500000D01*
X184533602Y-92703082D01*
X184589417Y-92899247D01*
X184589422Y-92899260D01*
X184680327Y-93081821D01*
X184800437Y-93240873D01*
X184825129Y-93306235D01*
X184810564Y-93374569D01*
X184761366Y-93424182D01*
X184701483Y-93439600D01*
X178918517Y-93439600D01*
X178851478Y-93419915D01*
X178805723Y-93367111D01*
X178795779Y-93297953D01*
X178819563Y-93240873D01*
X178899747Y-93134691D01*
X178939673Y-93081821D01*
X179030582Y-92899250D01*
X179086397Y-92703083D01*
X179105215Y-92500000D01*
X179086397Y-92296917D01*
X179030582Y-92100750D01*
X179025221Y-92089984D01*
X178942185Y-91923224D01*
X178939673Y-91918179D01*
X178826721Y-91768606D01*
X178816762Y-91755418D01*
X178666041Y-91618019D01*
X178666039Y-91618017D01*
X178492642Y-91510655D01*
X178492635Y-91510651D01*
X178350050Y-91455414D01*
X178302456Y-91436976D01*
X178101976Y-91399500D01*
X177898024Y-91399500D01*
X177697544Y-91436976D01*
X177697541Y-91436976D01*
X177697541Y-91436977D01*
X177507364Y-91510651D01*
X177507357Y-91510655D01*
X177333960Y-91618017D01*
X177333958Y-91618019D01*
X177183237Y-91755418D01*
X177060327Y-91918178D01*
X176969422Y-92100739D01*
X176969417Y-92100752D01*
X176913602Y-92296917D01*
X176894785Y-92499999D01*
X176894785Y-92500000D01*
X176913602Y-92703082D01*
X176969417Y-92899247D01*
X176969422Y-92899260D01*
X177060327Y-93081821D01*
X177180437Y-93240873D01*
X177205129Y-93306235D01*
X177190564Y-93374569D01*
X177141366Y-93424182D01*
X177081483Y-93439600D01*
X175583825Y-93439600D01*
X175516786Y-93419915D01*
X175471031Y-93367111D01*
X175461087Y-93297953D01*
X175484870Y-93240875D01*
X175565058Y-93134689D01*
X175664229Y-92935528D01*
X175725115Y-92721536D01*
X175745643Y-92500000D01*
X175725115Y-92278464D01*
X175664229Y-92064472D01*
X175657023Y-92050000D01*
X175565061Y-91865316D01*
X175565056Y-91865308D01*
X175430979Y-91687761D01*
X175266562Y-91537876D01*
X175266560Y-91537874D01*
X175077404Y-91420754D01*
X175077398Y-91420752D01*
X175072708Y-91418935D01*
X174869940Y-91340382D01*
X174651243Y-91299500D01*
X174428757Y-91299500D01*
X174210060Y-91340382D01*
X174090363Y-91386753D01*
X174002601Y-91420752D01*
X174002595Y-91420754D01*
X173813439Y-91537874D01*
X173813437Y-91537876D01*
X173649019Y-91687762D01*
X173622953Y-91722280D01*
X173566844Y-91763915D01*
X173497132Y-91768606D01*
X173435950Y-91734863D01*
X173402724Y-91673400D01*
X173400000Y-91647552D01*
X173400000Y-91552172D01*
X173399999Y-91552155D01*
X173393598Y-91492627D01*
X173393596Y-91492620D01*
X173343354Y-91357913D01*
X173343350Y-91357906D01*
X173257190Y-91242812D01*
X173257187Y-91242809D01*
X173142093Y-91156649D01*
X173142086Y-91156645D01*
X173007379Y-91106403D01*
X173007372Y-91106401D01*
X172947844Y-91100000D01*
X172250000Y-91100000D01*
X172250000Y-92125810D01*
X172197453Y-92089984D01*
X172067827Y-92050000D01*
X171966276Y-92050000D01*
X171865862Y-92065135D01*
X171750000Y-92120931D01*
X171750000Y-91100000D01*
X171052155Y-91100000D01*
X170992627Y-91106401D01*
X170992620Y-91106403D01*
X170857913Y-91156645D01*
X170857906Y-91156649D01*
X170742812Y-91242809D01*
X170742809Y-91242812D01*
X170656649Y-91357906D01*
X170656645Y-91357913D01*
X170606403Y-91492620D01*
X170606401Y-91492627D01*
X170600000Y-91552155D01*
X170600000Y-92250000D01*
X171624722Y-92250000D01*
X171576375Y-92333740D01*
X171546190Y-92465992D01*
X171556327Y-92601265D01*
X171605887Y-92727541D01*
X171623797Y-92750000D01*
X170600000Y-92750000D01*
X170600000Y-93275900D01*
X170580315Y-93342939D01*
X170527511Y-93388694D01*
X170476000Y-93399900D01*
X170281300Y-93399900D01*
X170214261Y-93380215D01*
X170168506Y-93327411D01*
X170157300Y-93275900D01*
X170157300Y-92533138D01*
X170160134Y-92506779D01*
X170161158Y-92502073D01*
X170157616Y-92452547D01*
X170157300Y-92443701D01*
X170157300Y-92430200D01*
X170155379Y-92416845D01*
X170154432Y-92408035D01*
X170150891Y-92358519D01*
X170150891Y-92358515D01*
X170149208Y-92354004D01*
X170142651Y-92328316D01*
X170141965Y-92323543D01*
X170121336Y-92278372D01*
X170117949Y-92270195D01*
X170110416Y-92250000D01*
X170100595Y-92223669D01*
X170097708Y-92219813D01*
X170084179Y-92197012D01*
X170082177Y-92192627D01*
X170049657Y-92155097D01*
X170044104Y-92148206D01*
X170036020Y-92137406D01*
X170036014Y-92137400D01*
X170036010Y-92137395D01*
X170026476Y-92127861D01*
X170020443Y-92121382D01*
X169987929Y-92083858D01*
X169987925Y-92083854D01*
X169983866Y-92081246D01*
X169963228Y-92064614D01*
X164243470Y-86344856D01*
X171899500Y-86344856D01*
X171899502Y-86344882D01*
X171902413Y-86369987D01*
X171902415Y-86369991D01*
X171947793Y-86472764D01*
X171947794Y-86472765D01*
X172027235Y-86552206D01*
X172130009Y-86597585D01*
X172155135Y-86600500D01*
X173844864Y-86600499D01*
X173844879Y-86600497D01*
X173844882Y-86600497D01*
X173869987Y-86597586D01*
X173869988Y-86597585D01*
X173869991Y-86597585D01*
X173972765Y-86552206D01*
X174052206Y-86472765D01*
X174097585Y-86369991D01*
X174100500Y-86344865D01*
X174100499Y-86134151D01*
X174120183Y-86067114D01*
X174172987Y-86021359D01*
X174242145Y-86011415D01*
X174305701Y-86040440D01*
X174336881Y-86081748D01*
X174369864Y-86152480D01*
X174420974Y-86225472D01*
X175102046Y-85544400D01*
X175114835Y-85625148D01*
X175172359Y-85738045D01*
X175261955Y-85827641D01*
X175374852Y-85885165D01*
X175455599Y-85897953D01*
X174774526Y-86579025D01*
X174847513Y-86630132D01*
X174847521Y-86630136D01*
X175053668Y-86726264D01*
X175053682Y-86726269D01*
X175273389Y-86785139D01*
X175273400Y-86785141D01*
X175499998Y-86804966D01*
X175500002Y-86804966D01*
X175726599Y-86785141D01*
X175726610Y-86785139D01*
X175946317Y-86726269D01*
X175946331Y-86726264D01*
X176152478Y-86630136D01*
X176225471Y-86579024D01*
X175544400Y-85897953D01*
X175625148Y-85885165D01*
X175738045Y-85827641D01*
X175827641Y-85738045D01*
X175885165Y-85625148D01*
X175897953Y-85544400D01*
X176579024Y-86225471D01*
X176630136Y-86152478D01*
X176726264Y-85946331D01*
X176726269Y-85946317D01*
X176785139Y-85726610D01*
X176785141Y-85726599D01*
X176804966Y-85500002D01*
X176804966Y-85499997D01*
X176785141Y-85273400D01*
X176785139Y-85273389D01*
X176726269Y-85053682D01*
X176726264Y-85053668D01*
X176630136Y-84847521D01*
X176630132Y-84847513D01*
X176579025Y-84774526D01*
X175897953Y-85455598D01*
X175885165Y-85374852D01*
X175827641Y-85261955D01*
X175738045Y-85172359D01*
X175625148Y-85114835D01*
X175544401Y-85102046D01*
X176225472Y-84420974D01*
X176152478Y-84369863D01*
X175946331Y-84273735D01*
X175946317Y-84273730D01*
X175726610Y-84214860D01*
X175726599Y-84214858D01*
X175500002Y-84195034D01*
X175499998Y-84195034D01*
X175273400Y-84214858D01*
X175273389Y-84214860D01*
X175053682Y-84273730D01*
X175053673Y-84273734D01*
X174847516Y-84369866D01*
X174847512Y-84369868D01*
X174774526Y-84420973D01*
X174774526Y-84420974D01*
X175455599Y-85102046D01*
X175374852Y-85114835D01*
X175261955Y-85172359D01*
X175172359Y-85261955D01*
X175114835Y-85374852D01*
X175102046Y-85455598D01*
X174420974Y-84774526D01*
X174420973Y-84774526D01*
X174369868Y-84847512D01*
X174369866Y-84847517D01*
X174336881Y-84918253D01*
X174290708Y-84970692D01*
X174223515Y-84989844D01*
X174156633Y-84969628D01*
X174111299Y-84916462D01*
X174100499Y-84865848D01*
X174100499Y-84655143D01*
X174100499Y-84655136D01*
X174100497Y-84655117D01*
X174097586Y-84630012D01*
X174097585Y-84630010D01*
X174097585Y-84630009D01*
X174052206Y-84527235D01*
X173972765Y-84447794D01*
X173969726Y-84446452D01*
X173869992Y-84402415D01*
X173844865Y-84399500D01*
X172155143Y-84399500D01*
X172155117Y-84399502D01*
X172130012Y-84402413D01*
X172130008Y-84402415D01*
X172027235Y-84447793D01*
X171947794Y-84527234D01*
X171902415Y-84630006D01*
X171902415Y-84630008D01*
X171899500Y-84655131D01*
X171899500Y-86344856D01*
X164243470Y-86344856D01*
X159282319Y-81383705D01*
X159248834Y-81322382D01*
X159246000Y-81296024D01*
X159246000Y-77500000D01*
X160500000Y-77500000D01*
X169500000Y-77500000D01*
X169500000Y-66500000D01*
X166430090Y-66500000D01*
X166363051Y-66480315D01*
X166317296Y-66427511D01*
X166307352Y-66358353D01*
X166336377Y-66294797D01*
X166395155Y-66257023D01*
X166403129Y-66254967D01*
X166574546Y-66216782D01*
X166574548Y-66216781D01*
X166574553Y-66216780D01*
X166827558Y-66120014D01*
X167063777Y-65987441D01*
X167278177Y-65821888D01*
X167466186Y-65626881D01*
X167623799Y-65406579D01*
X167720545Y-65218407D01*
X167747649Y-65165690D01*
X167747651Y-65165684D01*
X167747656Y-65165675D01*
X167835118Y-64909305D01*
X167884319Y-64642933D01*
X167894212Y-64372235D01*
X167864586Y-64102982D01*
X167796072Y-63840912D01*
X167690130Y-63591610D01*
X167549018Y-63360390D01*
X167522628Y-63328679D01*
X167375746Y-63152180D01*
X167375740Y-63152175D01*
X167174002Y-62971418D01*
X166948092Y-62821957D01*
X166948090Y-62821956D01*
X166702824Y-62706980D01*
X166702819Y-62706978D01*
X166702814Y-62706976D01*
X166443442Y-62628942D01*
X166443428Y-62628939D01*
X166327791Y-62611921D01*
X166175439Y-62589500D01*
X165972369Y-62589500D01*
X165972351Y-62589500D01*
X165769844Y-62604323D01*
X165769831Y-62604325D01*
X165505453Y-62663217D01*
X165505446Y-62663220D01*
X165252439Y-62759987D01*
X165016226Y-62892557D01*
X164801822Y-63058112D01*
X164613822Y-63253109D01*
X164613816Y-63253116D01*
X164456202Y-63473419D01*
X164456199Y-63473424D01*
X164332350Y-63714309D01*
X164332343Y-63714327D01*
X164244884Y-63970685D01*
X164244881Y-63970699D01*
X164195681Y-64237068D01*
X164195680Y-64237075D01*
X164185787Y-64507763D01*
X164215413Y-64777013D01*
X164215415Y-64777024D01*
X164254251Y-64925573D01*
X164283928Y-65039088D01*
X164389870Y-65288390D01*
X164530979Y-65519605D01*
X164530986Y-65519615D01*
X164704253Y-65727819D01*
X164704259Y-65727824D01*
X164792670Y-65807040D01*
X164905998Y-65908582D01*
X165131910Y-66058044D01*
X165377176Y-66173020D01*
X165377183Y-66173022D01*
X165377185Y-66173023D01*
X165636557Y-66251057D01*
X165636564Y-66251058D01*
X165636569Y-66251060D01*
X165651933Y-66253321D01*
X165715392Y-66282557D01*
X165752971Y-66341460D01*
X165752739Y-66411330D01*
X165714770Y-66469982D01*
X165651118Y-66498796D01*
X165633879Y-66500000D01*
X160500000Y-66500000D01*
X160500000Y-77500000D01*
X159246000Y-77500000D01*
X159246000Y-74889843D01*
X159248834Y-74863485D01*
X159249859Y-74858773D01*
X159246316Y-74809237D01*
X159246000Y-74800390D01*
X159246000Y-74786901D01*
X159244079Y-74773543D01*
X159243133Y-74764745D01*
X159239591Y-74715217D01*
X159237907Y-74710702D01*
X159231350Y-74685012D01*
X159230665Y-74680243D01*
X159210030Y-74635060D01*
X159206655Y-74626912D01*
X159189296Y-74580369D01*
X159186405Y-74576507D01*
X159172879Y-74553710D01*
X159170877Y-74549327D01*
X159138360Y-74511800D01*
X159132806Y-74504907D01*
X159124728Y-74494116D01*
X159124726Y-74494113D01*
X159124721Y-74494107D01*
X159115177Y-74484563D01*
X159109158Y-74478100D01*
X159076628Y-74440557D01*
X159076625Y-74440554D01*
X159072566Y-74437946D01*
X159051928Y-74421314D01*
X151048302Y-66417688D01*
X151014817Y-66356365D01*
X151012887Y-66344953D01*
X151010801Y-66327773D01*
X150997840Y-66221028D01*
X150937518Y-66061970D01*
X150840883Y-65921971D01*
X150739201Y-65831889D01*
X150713549Y-65809163D01*
X150562926Y-65730110D01*
X150397756Y-65689400D01*
X150227644Y-65689400D01*
X150114975Y-65717170D01*
X150045172Y-65714101D01*
X149988110Y-65673781D01*
X149961905Y-65609011D01*
X149961300Y-65596773D01*
X149961300Y-60648587D01*
X149972505Y-60597076D01*
X149985165Y-60569357D01*
X149985850Y-60564585D01*
X149992409Y-60538892D01*
X149992411Y-60538886D01*
X149994091Y-60534383D01*
X149997633Y-60484851D01*
X149998580Y-60476048D01*
X149999631Y-60468745D01*
X150000500Y-60462699D01*
X150000500Y-60449197D01*
X150000816Y-60440361D01*
X150000817Y-60440350D01*
X150004359Y-60390827D01*
X150003332Y-60386106D01*
X150000500Y-60359758D01*
X150000500Y-60237355D01*
X150020185Y-60170316D01*
X150059223Y-60131928D01*
X150112284Y-60099074D01*
X150196302Y-60047052D01*
X150353872Y-59903407D01*
X150482366Y-59733255D01*
X150525429Y-59646772D01*
X150577403Y-59542394D01*
X150577403Y-59542393D01*
X150577405Y-59542389D01*
X150635756Y-59337310D01*
X150650500Y-59178194D01*
X150650500Y-58821806D01*
X150635756Y-58662690D01*
X150577405Y-58457611D01*
X150577403Y-58457606D01*
X150577403Y-58457605D01*
X150482367Y-58266746D01*
X150353872Y-58096593D01*
X150318693Y-58064523D01*
X150196302Y-57952948D01*
X150015019Y-57840702D01*
X150015017Y-57840701D01*
X149915608Y-57802190D01*
X149816198Y-57763679D01*
X149606610Y-57724500D01*
X149393390Y-57724500D01*
X149183802Y-57763679D01*
X149183799Y-57763679D01*
X149183799Y-57763680D01*
X148984982Y-57840701D01*
X148984980Y-57840702D01*
X148803699Y-57952947D01*
X148646127Y-58096593D01*
X148517632Y-58266746D01*
X148422596Y-58457605D01*
X148422596Y-58457607D01*
X148369266Y-58645039D01*
X148331986Y-58704132D01*
X148268676Y-58733689D01*
X148199437Y-58724327D01*
X148146251Y-58679017D01*
X148130734Y-58645039D01*
X148113853Y-58585711D01*
X148077405Y-58457611D01*
X148077403Y-58457606D01*
X148077403Y-58457605D01*
X147982367Y-58266746D01*
X147853872Y-58096593D01*
X147818693Y-58064523D01*
X147696302Y-57952948D01*
X147515019Y-57840702D01*
X147515017Y-57840701D01*
X147415608Y-57802190D01*
X147316198Y-57763679D01*
X147106610Y-57724500D01*
X146893390Y-57724500D01*
X146683802Y-57763679D01*
X146683799Y-57763679D01*
X146683799Y-57763680D01*
X146606117Y-57793774D01*
X146536493Y-57799636D01*
X146474753Y-57766926D01*
X146473642Y-57765828D01*
X144942819Y-56235005D01*
X144909334Y-56173682D01*
X144906500Y-56147324D01*
X144906500Y-50474499D01*
X144926185Y-50407460D01*
X144978989Y-50361705D01*
X145030500Y-50350499D01*
X146614856Y-50350499D01*
X146614864Y-50350499D01*
X146614879Y-50350497D01*
X146614882Y-50350497D01*
X146639987Y-50347586D01*
X146639988Y-50347585D01*
X146639991Y-50347585D01*
X146742765Y-50302206D01*
X146822206Y-50222765D01*
X146867585Y-50119991D01*
X146870500Y-50094865D01*
X146870499Y-49356046D01*
X146890183Y-49289009D01*
X146942987Y-49243254D01*
X147012146Y-49233310D01*
X147075702Y-49262335D01*
X147113476Y-49321113D01*
X147117970Y-49344606D01*
X147123374Y-49402924D01*
X147124244Y-49412310D01*
X147171944Y-49579957D01*
X147182596Y-49617392D01*
X147182596Y-49617394D01*
X147277632Y-49808253D01*
X147406127Y-49978406D01*
X147406128Y-49978407D01*
X147563698Y-50122052D01*
X147744981Y-50234298D01*
X147943802Y-50311321D01*
X148153390Y-50350500D01*
X148153392Y-50350500D01*
X148366608Y-50350500D01*
X148366610Y-50350500D01*
X148576198Y-50311321D01*
X148775019Y-50234298D01*
X148956302Y-50122052D01*
X149113872Y-49978407D01*
X149242366Y-49808255D01*
X149311550Y-49669314D01*
X149337403Y-49617394D01*
X149337403Y-49617393D01*
X149337405Y-49617389D01*
X149395756Y-49412310D01*
X149406529Y-49296047D01*
X149432315Y-49231111D01*
X149474622Y-49200804D01*
X149583130Y-49200804D01*
X149619503Y-49221668D01*
X149651693Y-49283681D01*
X149653470Y-49296047D01*
X149664244Y-49412310D01*
X149711944Y-49579957D01*
X149722596Y-49617392D01*
X149722596Y-49617394D01*
X149817632Y-49808253D01*
X149946127Y-49978406D01*
X149946128Y-49978407D01*
X150103698Y-50122052D01*
X150284981Y-50234298D01*
X150483802Y-50311321D01*
X150693390Y-50350500D01*
X150693392Y-50350500D01*
X150906608Y-50350500D01*
X150906610Y-50350500D01*
X151116198Y-50311321D01*
X151315019Y-50234298D01*
X151496302Y-50122052D01*
X151653872Y-49978407D01*
X151782366Y-49808255D01*
X151851550Y-49669314D01*
X151877403Y-49617394D01*
X151877403Y-49617393D01*
X151877405Y-49617389D01*
X151935756Y-49412310D01*
X151946529Y-49296047D01*
X151972315Y-49231111D01*
X152014622Y-49200804D01*
X152123130Y-49200804D01*
X152159503Y-49221668D01*
X152191693Y-49283681D01*
X152193470Y-49296047D01*
X152204244Y-49412310D01*
X152251944Y-49579957D01*
X152262596Y-49617392D01*
X152262596Y-49617394D01*
X152357632Y-49808253D01*
X152486127Y-49978406D01*
X152486128Y-49978407D01*
X152643698Y-50122052D01*
X152824981Y-50234298D01*
X153023802Y-50311321D01*
X153233390Y-50350500D01*
X153233392Y-50350500D01*
X153446608Y-50350500D01*
X153446610Y-50350500D01*
X153656198Y-50311321D01*
X153855019Y-50234298D01*
X154036302Y-50122052D01*
X154193872Y-49978407D01*
X154322366Y-49808255D01*
X154391550Y-49669314D01*
X154417403Y-49617394D01*
X154417403Y-49617393D01*
X154417405Y-49617389D01*
X154475756Y-49412310D01*
X154486529Y-49296047D01*
X154512315Y-49231111D01*
X154554622Y-49200804D01*
X154663130Y-49200804D01*
X154699503Y-49221668D01*
X154731693Y-49283681D01*
X154733470Y-49296047D01*
X154744244Y-49412310D01*
X154791944Y-49579957D01*
X154802596Y-49617392D01*
X154802596Y-49617394D01*
X154897632Y-49808253D01*
X155026127Y-49978406D01*
X155026128Y-49978407D01*
X155183698Y-50122052D01*
X155364981Y-50234298D01*
X155563802Y-50311321D01*
X155773390Y-50350500D01*
X155773392Y-50350500D01*
X155986608Y-50350500D01*
X155986610Y-50350500D01*
X156196198Y-50311321D01*
X156395019Y-50234298D01*
X156576302Y-50122052D01*
X156733872Y-49978407D01*
X156862366Y-49808255D01*
X156931550Y-49669314D01*
X156957403Y-49617394D01*
X156957403Y-49617393D01*
X156957405Y-49617389D01*
X157015756Y-49412310D01*
X157026529Y-49296047D01*
X157052315Y-49231111D01*
X157096869Y-49199194D01*
X157060497Y-49178331D01*
X157028307Y-49116318D01*
X157026529Y-49103951D01*
X157025849Y-49096613D01*
X157015756Y-48987690D01*
X156957405Y-48782611D01*
X156957403Y-48782606D01*
X156957403Y-48782605D01*
X156862367Y-48591746D01*
X156733872Y-48421593D01*
X156689639Y-48381269D01*
X156576302Y-48277948D01*
X156395019Y-48165702D01*
X156395017Y-48165701D01*
X156280455Y-48121320D01*
X156196198Y-48088679D01*
X155986610Y-48049500D01*
X155773390Y-48049500D01*
X155563802Y-48088679D01*
X155563799Y-48088679D01*
X155563799Y-48088680D01*
X155364982Y-48165701D01*
X155364980Y-48165702D01*
X155183699Y-48277947D01*
X155026127Y-48421593D01*
X154897632Y-48591746D01*
X154802596Y-48782605D01*
X154802596Y-48782607D01*
X154744244Y-48987689D01*
X154733471Y-49103951D01*
X154707685Y-49168888D01*
X154663130Y-49200804D01*
X154554622Y-49200804D01*
X154556869Y-49199194D01*
X154520497Y-49178331D01*
X154488307Y-49116318D01*
X154486529Y-49103951D01*
X154485849Y-49096613D01*
X154475756Y-48987690D01*
X154417405Y-48782611D01*
X154417403Y-48782606D01*
X154417403Y-48782605D01*
X154322367Y-48591746D01*
X154193872Y-48421593D01*
X154149639Y-48381269D01*
X154036302Y-48277948D01*
X153855019Y-48165702D01*
X153855017Y-48165701D01*
X153740455Y-48121320D01*
X153656198Y-48088679D01*
X153446610Y-48049500D01*
X153233390Y-48049500D01*
X153023802Y-48088679D01*
X153023799Y-48088679D01*
X153023799Y-48088680D01*
X152824982Y-48165701D01*
X152824980Y-48165702D01*
X152643699Y-48277947D01*
X152486127Y-48421593D01*
X152357632Y-48591746D01*
X152262596Y-48782605D01*
X152262596Y-48782607D01*
X152204244Y-48987689D01*
X152193471Y-49103951D01*
X152167685Y-49168888D01*
X152123130Y-49200804D01*
X152014622Y-49200804D01*
X152016869Y-49199194D01*
X151980497Y-49178331D01*
X151948307Y-49116318D01*
X151946529Y-49103951D01*
X151945849Y-49096613D01*
X151935756Y-48987690D01*
X151877405Y-48782611D01*
X151877403Y-48782606D01*
X151877403Y-48782605D01*
X151782367Y-48591746D01*
X151653872Y-48421593D01*
X151609639Y-48381269D01*
X151496302Y-48277948D01*
X151315019Y-48165702D01*
X151315017Y-48165701D01*
X151200455Y-48121320D01*
X151116198Y-48088679D01*
X150906610Y-48049500D01*
X150693390Y-48049500D01*
X150483802Y-48088679D01*
X150483799Y-48088679D01*
X150483799Y-48088680D01*
X150284982Y-48165701D01*
X150284980Y-48165702D01*
X150103699Y-48277947D01*
X149946127Y-48421593D01*
X149817632Y-48591746D01*
X149722596Y-48782605D01*
X149722596Y-48782607D01*
X149664244Y-48987689D01*
X149653471Y-49103951D01*
X149627685Y-49168888D01*
X149583130Y-49200804D01*
X149474622Y-49200804D01*
X149476869Y-49199194D01*
X149440497Y-49178331D01*
X149408307Y-49116318D01*
X149406529Y-49103951D01*
X149405849Y-49096613D01*
X149395756Y-48987690D01*
X149337405Y-48782611D01*
X149337403Y-48782606D01*
X149337403Y-48782605D01*
X149242367Y-48591746D01*
X149113872Y-48421593D01*
X149069639Y-48381269D01*
X148956302Y-48277948D01*
X148775019Y-48165702D01*
X148775017Y-48165701D01*
X148660455Y-48121320D01*
X148576198Y-48088679D01*
X148366610Y-48049500D01*
X148153390Y-48049500D01*
X147943802Y-48088679D01*
X147943799Y-48088679D01*
X147943799Y-48088680D01*
X147744982Y-48165701D01*
X147744980Y-48165702D01*
X147563699Y-48277947D01*
X147406127Y-48421593D01*
X147277632Y-48591746D01*
X147182596Y-48782605D01*
X147182596Y-48782607D01*
X147124244Y-48987689D01*
X147117970Y-49055394D01*
X147092183Y-49120331D01*
X147035383Y-49161018D01*
X146965602Y-49164538D01*
X146904995Y-49129772D01*
X146872806Y-49067759D01*
X146870499Y-49043952D01*
X146870499Y-48305143D01*
X146870499Y-48305136D01*
X146870497Y-48305117D01*
X146867586Y-48280012D01*
X146867585Y-48280010D01*
X146867585Y-48280009D01*
X146822206Y-48177235D01*
X146742765Y-48097794D01*
X146722124Y-48088680D01*
X146639992Y-48052415D01*
X146614868Y-48049500D01*
X146614865Y-48049500D01*
X145502876Y-48049500D01*
X145435837Y-48029815D01*
X145390082Y-47977011D01*
X145380138Y-47907853D01*
X145409163Y-47844297D01*
X145415195Y-47837819D01*
X145538195Y-47714819D01*
X145599518Y-47681334D01*
X145625876Y-47678500D01*
X192132025Y-47678500D01*
X192199064Y-47698185D01*
G37*
%TD.AperFunction*%
%TD*%
M02*
