%TF.GenerationSoftware,KiCad,Pcbnew,7.0.11+dfsg-1build4*%
%TF.CreationDate,2026-10-07T18:56:29+00:00*%
%TF.ProjectId,shield_jambes,73686965-6c64-45f6-9a61-6d6265732e6b,rev?*%
%TF.SameCoordinates,Original*%
%TF.FileFunction,Legend,Top*%
%TF.FilePolarity,Positive*%
%FSLAX46Y46*%
G04 Gerber Fmt 4.6, Leading zero omitted, Abs format (unit mm)*
G04 Created by KiCad (PCBNEW 7.0.11+dfsg-1build4) date 2026-10-07 18:56:29*
%MOMM*%
%LPD*%
G01*
G04 APERTURE LIST*
G04 Aperture macros list*
%AMRoundRect*
0 Rectangle with rounded corners*
0 $1 Rounding radius*
0 $2 $3 $4 $5 $6 $7 $8 $9 X,Y pos of 4 corners*
0 Add a 4 corners polygon primitive as box body*
4,1,4,$2,$3,$4,$5,$6,$7,$8,$9,$2,$3,0*
0 Add four circle primitives for the rounded corners*
1,1,$1+$1,$2,$3*
1,1,$1+$1,$4,$5*
1,1,$1+$1,$6,$7*
1,1,$1+$1,$8,$9*
0 Add four rect primitives between the rounded corners*
20,1,$1+$1,$2,$3,$4,$5,0*
20,1,$1+$1,$4,$5,$6,$7,0*
20,1,$1+$1,$6,$7,$8,$9,0*
20,1,$1+$1,$8,$9,$2,$3,0*%
G04 Aperture macros list end*
%ADD10C,0.120000*%
%ADD11C,0.135000*%
%ADD12C,0.180000*%
%ADD13C,1.600000*%
%ADD14O,1.600000X1.600000*%
%ADD15C,3.200000*%
%ADD16R,1.700000X1.700000*%
%ADD17O,1.700000X1.700000*%
%ADD18RoundRect,0.250000X-0.600000X-0.725000X0.600000X-0.725000X0.600000X0.725000X-0.600000X0.725000X0*%
%ADD19O,1.700000X1.950000*%
%ADD20RoundRect,0.250000X-0.600000X-0.750000X0.600000X-0.750000X0.600000X0.750000X-0.600000X0.750000X0*%
%ADD21O,1.700000X2.000000*%
%ADD22R,1.800000X1.800000*%
%ADD23C,1.800000*%
%ADD24R,1.600000X1.600000*%
G04 APERTURE END LIST*
D10*
X172280952Y-71163855D02*
X172738095Y-71163855D01*
X172509523Y-71963855D02*
X172509523Y-71163855D01*
X172928571Y-71163855D02*
X173461905Y-71963855D01*
X173461905Y-71163855D02*
X172928571Y-71963855D01*
X174833334Y-71963855D02*
X174566667Y-71582902D01*
X174376191Y-71963855D02*
X174376191Y-71163855D01*
X174376191Y-71163855D02*
X174680953Y-71163855D01*
X174680953Y-71163855D02*
X174757143Y-71201950D01*
X174757143Y-71201950D02*
X174795238Y-71240045D01*
X174795238Y-71240045D02*
X174833334Y-71316236D01*
X174833334Y-71316236D02*
X174833334Y-71430521D01*
X174833334Y-71430521D02*
X174795238Y-71506712D01*
X174795238Y-71506712D02*
X174757143Y-71544807D01*
X174757143Y-71544807D02*
X174680953Y-71582902D01*
X174680953Y-71582902D02*
X174376191Y-71582902D01*
X175100000Y-71163855D02*
X175633334Y-71963855D01*
X175633334Y-71163855D02*
X175100000Y-71963855D01*
X176966667Y-71201950D02*
X176890477Y-71163855D01*
X176890477Y-71163855D02*
X176776191Y-71163855D01*
X176776191Y-71163855D02*
X176661905Y-71201950D01*
X176661905Y-71201950D02*
X176585715Y-71278140D01*
X176585715Y-71278140D02*
X176547620Y-71354331D01*
X176547620Y-71354331D02*
X176509524Y-71506712D01*
X176509524Y-71506712D02*
X176509524Y-71620998D01*
X176509524Y-71620998D02*
X176547620Y-71773379D01*
X176547620Y-71773379D02*
X176585715Y-71849569D01*
X176585715Y-71849569D02*
X176661905Y-71925760D01*
X176661905Y-71925760D02*
X176776191Y-71963855D01*
X176776191Y-71963855D02*
X176852382Y-71963855D01*
X176852382Y-71963855D02*
X176966667Y-71925760D01*
X176966667Y-71925760D02*
X177004763Y-71887664D01*
X177004763Y-71887664D02*
X177004763Y-71620998D01*
X177004763Y-71620998D02*
X176852382Y-71620998D01*
X177347620Y-71963855D02*
X177347620Y-71163855D01*
X177347620Y-71163855D02*
X177804763Y-71963855D01*
X177804763Y-71963855D02*
X177804763Y-71163855D01*
X178185715Y-71963855D02*
X178185715Y-71163855D01*
X178185715Y-71163855D02*
X178376191Y-71163855D01*
X178376191Y-71163855D02*
X178490477Y-71201950D01*
X178490477Y-71201950D02*
X178566667Y-71278140D01*
X178566667Y-71278140D02*
X178604762Y-71354331D01*
X178604762Y-71354331D02*
X178642858Y-71506712D01*
X178642858Y-71506712D02*
X178642858Y-71620998D01*
X178642858Y-71620998D02*
X178604762Y-71773379D01*
X178604762Y-71773379D02*
X178566667Y-71849569D01*
X178566667Y-71849569D02*
X178490477Y-71925760D01*
X178490477Y-71925760D02*
X178376191Y-71963855D01*
X178376191Y-71963855D02*
X178185715Y-71963855D01*
D11*
X138421428Y-73909337D02*
X138421428Y-74552194D01*
X138421428Y-74552194D02*
X138378571Y-74680765D01*
X138378571Y-74680765D02*
X138292857Y-74766480D01*
X138292857Y-74766480D02*
X138164285Y-74809337D01*
X138164285Y-74809337D02*
X138078571Y-74809337D01*
X139321428Y-74809337D02*
X138807142Y-74809337D01*
X139064285Y-74809337D02*
X139064285Y-73909337D01*
X139064285Y-73909337D02*
X138978571Y-74037908D01*
X138978571Y-74037908D02*
X138892856Y-74123622D01*
X138892856Y-74123622D02*
X138807142Y-74166480D01*
X140092857Y-73909337D02*
X139921428Y-73909337D01*
X139921428Y-73909337D02*
X139835714Y-73952194D01*
X139835714Y-73952194D02*
X139792857Y-73995051D01*
X139792857Y-73995051D02*
X139707142Y-74123622D01*
X139707142Y-74123622D02*
X139664285Y-74295051D01*
X139664285Y-74295051D02*
X139664285Y-74637908D01*
X139664285Y-74637908D02*
X139707142Y-74723622D01*
X139707142Y-74723622D02*
X139749999Y-74766480D01*
X139749999Y-74766480D02*
X139835714Y-74809337D01*
X139835714Y-74809337D02*
X140007142Y-74809337D01*
X140007142Y-74809337D02*
X140092857Y-74766480D01*
X140092857Y-74766480D02*
X140135714Y-74723622D01*
X140135714Y-74723622D02*
X140178571Y-74637908D01*
X140178571Y-74637908D02*
X140178571Y-74423622D01*
X140178571Y-74423622D02*
X140135714Y-74337908D01*
X140135714Y-74337908D02*
X140092857Y-74295051D01*
X140092857Y-74295051D02*
X140007142Y-74252194D01*
X140007142Y-74252194D02*
X139835714Y-74252194D01*
X139835714Y-74252194D02*
X139749999Y-74295051D01*
X139749999Y-74295051D02*
X139707142Y-74337908D01*
X139707142Y-74337908D02*
X139664285Y-74423622D01*
X141249999Y-74809337D02*
X141249999Y-73909337D01*
X141249999Y-74337908D02*
X141764285Y-74337908D01*
X141764285Y-74809337D02*
X141764285Y-73909337D01*
X142107142Y-73909337D02*
X142707142Y-74809337D01*
X142707142Y-73909337D02*
X142107142Y-74809337D01*
X143435714Y-73909337D02*
X143264285Y-73909337D01*
X143264285Y-73909337D02*
X143178571Y-73952194D01*
X143178571Y-73952194D02*
X143135714Y-73995051D01*
X143135714Y-73995051D02*
X143049999Y-74123622D01*
X143049999Y-74123622D02*
X143007142Y-74295051D01*
X143007142Y-74295051D02*
X143007142Y-74637908D01*
X143007142Y-74637908D02*
X143049999Y-74723622D01*
X143049999Y-74723622D02*
X143092856Y-74766480D01*
X143092856Y-74766480D02*
X143178571Y-74809337D01*
X143178571Y-74809337D02*
X143349999Y-74809337D01*
X143349999Y-74809337D02*
X143435714Y-74766480D01*
X143435714Y-74766480D02*
X143478571Y-74723622D01*
X143478571Y-74723622D02*
X143521428Y-74637908D01*
X143521428Y-74637908D02*
X143521428Y-74423622D01*
X143521428Y-74423622D02*
X143478571Y-74337908D01*
X143478571Y-74337908D02*
X143435714Y-74295051D01*
X143435714Y-74295051D02*
X143349999Y-74252194D01*
X143349999Y-74252194D02*
X143178571Y-74252194D01*
X143178571Y-74252194D02*
X143092856Y-74295051D01*
X143092856Y-74295051D02*
X143049999Y-74337908D01*
X143049999Y-74337908D02*
X143007142Y-74423622D01*
X144592856Y-74809337D02*
X144592856Y-73909337D01*
X144592856Y-73909337D02*
X144807142Y-73909337D01*
X144807142Y-73909337D02*
X144935713Y-73952194D01*
X144935713Y-73952194D02*
X145021428Y-74037908D01*
X145021428Y-74037908D02*
X145064285Y-74123622D01*
X145064285Y-74123622D02*
X145107142Y-74295051D01*
X145107142Y-74295051D02*
X145107142Y-74423622D01*
X145107142Y-74423622D02*
X145064285Y-74595051D01*
X145064285Y-74595051D02*
X145021428Y-74680765D01*
X145021428Y-74680765D02*
X144935713Y-74766480D01*
X144935713Y-74766480D02*
X144807142Y-74809337D01*
X144807142Y-74809337D02*
X144592856Y-74809337D01*
X146564285Y-74809337D02*
X146564285Y-74337908D01*
X146564285Y-74337908D02*
X146521427Y-74252194D01*
X146521427Y-74252194D02*
X146435713Y-74209337D01*
X146435713Y-74209337D02*
X146264285Y-74209337D01*
X146264285Y-74209337D02*
X146178570Y-74252194D01*
X146564285Y-74766480D02*
X146478570Y-74809337D01*
X146478570Y-74809337D02*
X146264285Y-74809337D01*
X146264285Y-74809337D02*
X146178570Y-74766480D01*
X146178570Y-74766480D02*
X146135713Y-74680765D01*
X146135713Y-74680765D02*
X146135713Y-74595051D01*
X146135713Y-74595051D02*
X146178570Y-74509337D01*
X146178570Y-74509337D02*
X146264285Y-74466480D01*
X146264285Y-74466480D02*
X146478570Y-74466480D01*
X146478570Y-74466480D02*
X146564285Y-74423622D01*
X146992856Y-74809337D02*
X146992856Y-74209337D01*
X146992856Y-74380765D02*
X147035713Y-74295051D01*
X147035713Y-74295051D02*
X147078571Y-74252194D01*
X147078571Y-74252194D02*
X147164285Y-74209337D01*
X147164285Y-74209337D02*
X147249999Y-74209337D01*
X147549999Y-74809337D02*
X147549999Y-74209337D01*
X147549999Y-74380765D02*
X147592856Y-74295051D01*
X147592856Y-74295051D02*
X147635714Y-74252194D01*
X147635714Y-74252194D02*
X147721428Y-74209337D01*
X147721428Y-74209337D02*
X147807142Y-74209337D01*
X148107142Y-74809337D02*
X148107142Y-74209337D01*
X148107142Y-73909337D02*
X148064285Y-73952194D01*
X148064285Y-73952194D02*
X148107142Y-73995051D01*
X148107142Y-73995051D02*
X148149999Y-73952194D01*
X148149999Y-73952194D02*
X148107142Y-73909337D01*
X148107142Y-73909337D02*
X148107142Y-73995051D01*
X148878570Y-74766480D02*
X148792856Y-74809337D01*
X148792856Y-74809337D02*
X148621428Y-74809337D01*
X148621428Y-74809337D02*
X148535713Y-74766480D01*
X148535713Y-74766480D02*
X148492856Y-74680765D01*
X148492856Y-74680765D02*
X148492856Y-74337908D01*
X148492856Y-74337908D02*
X148535713Y-74252194D01*
X148535713Y-74252194D02*
X148621428Y-74209337D01*
X148621428Y-74209337D02*
X148792856Y-74209337D01*
X148792856Y-74209337D02*
X148878570Y-74252194D01*
X148878570Y-74252194D02*
X148921428Y-74337908D01*
X148921428Y-74337908D02*
X148921428Y-74423622D01*
X148921428Y-74423622D02*
X148492856Y-74509337D01*
X148621428Y-73866480D02*
X148749999Y-73995051D01*
X149307142Y-74809337D02*
X149307142Y-74209337D01*
X149307142Y-74380765D02*
X149349999Y-74295051D01*
X149349999Y-74295051D02*
X149392857Y-74252194D01*
X149392857Y-74252194D02*
X149478571Y-74209337D01*
X149478571Y-74209337D02*
X149564285Y-74209337D01*
X150207142Y-74766480D02*
X150121428Y-74809337D01*
X150121428Y-74809337D02*
X149950000Y-74809337D01*
X149950000Y-74809337D02*
X149864285Y-74766480D01*
X149864285Y-74766480D02*
X149821428Y-74680765D01*
X149821428Y-74680765D02*
X149821428Y-74337908D01*
X149821428Y-74337908D02*
X149864285Y-74252194D01*
X149864285Y-74252194D02*
X149950000Y-74209337D01*
X149950000Y-74209337D02*
X150121428Y-74209337D01*
X150121428Y-74209337D02*
X150207142Y-74252194D01*
X150207142Y-74252194D02*
X150250000Y-74337908D01*
X150250000Y-74337908D02*
X150250000Y-74423622D01*
X150250000Y-74423622D02*
X149821428Y-74509337D01*
X150635714Y-74466480D02*
X151321429Y-74466480D01*
X152092857Y-74766480D02*
X152007143Y-74809337D01*
X152007143Y-74809337D02*
X151835715Y-74809337D01*
X151835715Y-74809337D02*
X151750000Y-74766480D01*
X151750000Y-74766480D02*
X151707143Y-74680765D01*
X151707143Y-74680765D02*
X151707143Y-74337908D01*
X151707143Y-74337908D02*
X151750000Y-74252194D01*
X151750000Y-74252194D02*
X151835715Y-74209337D01*
X151835715Y-74209337D02*
X152007143Y-74209337D01*
X152007143Y-74209337D02*
X152092857Y-74252194D01*
X152092857Y-74252194D02*
X152135715Y-74337908D01*
X152135715Y-74337908D02*
X152135715Y-74423622D01*
X152135715Y-74423622D02*
X151707143Y-74509337D01*
X152435715Y-74809337D02*
X152907144Y-74209337D01*
X152435715Y-74209337D02*
X152907144Y-74809337D01*
X153121429Y-74209337D02*
X153464286Y-74209337D01*
X153250000Y-73909337D02*
X153250000Y-74680765D01*
X153250000Y-74680765D02*
X153292857Y-74766480D01*
X153292857Y-74766480D02*
X153378572Y-74809337D01*
X153378572Y-74809337D02*
X153464286Y-74809337D01*
D10*
X141616666Y-72701950D02*
X141540476Y-72663855D01*
X141540476Y-72663855D02*
X141426190Y-72663855D01*
X141426190Y-72663855D02*
X141311904Y-72701950D01*
X141311904Y-72701950D02*
X141235714Y-72778140D01*
X141235714Y-72778140D02*
X141197619Y-72854331D01*
X141197619Y-72854331D02*
X141159523Y-73006712D01*
X141159523Y-73006712D02*
X141159523Y-73120998D01*
X141159523Y-73120998D02*
X141197619Y-73273379D01*
X141197619Y-73273379D02*
X141235714Y-73349569D01*
X141235714Y-73349569D02*
X141311904Y-73425760D01*
X141311904Y-73425760D02*
X141426190Y-73463855D01*
X141426190Y-73463855D02*
X141502381Y-73463855D01*
X141502381Y-73463855D02*
X141616666Y-73425760D01*
X141616666Y-73425760D02*
X141654762Y-73387664D01*
X141654762Y-73387664D02*
X141654762Y-73120998D01*
X141654762Y-73120998D02*
X141502381Y-73120998D01*
X141997619Y-73463855D02*
X141997619Y-72663855D01*
X141997619Y-72663855D02*
X142454762Y-73463855D01*
X142454762Y-73463855D02*
X142454762Y-72663855D01*
X142835714Y-73463855D02*
X142835714Y-72663855D01*
X142835714Y-72663855D02*
X143026190Y-72663855D01*
X143026190Y-72663855D02*
X143140476Y-72701950D01*
X143140476Y-72701950D02*
X143216666Y-72778140D01*
X143216666Y-72778140D02*
X143254761Y-72854331D01*
X143254761Y-72854331D02*
X143292857Y-73006712D01*
X143292857Y-73006712D02*
X143292857Y-73120998D01*
X143292857Y-73120998D02*
X143254761Y-73273379D01*
X143254761Y-73273379D02*
X143216666Y-73349569D01*
X143216666Y-73349569D02*
X143140476Y-73425760D01*
X143140476Y-73425760D02*
X143026190Y-73463855D01*
X143026190Y-73463855D02*
X142835714Y-73463855D01*
X144245238Y-73463855D02*
X144245238Y-72663855D01*
X144245238Y-72663855D02*
X144435714Y-72663855D01*
X144435714Y-72663855D02*
X144550000Y-72701950D01*
X144550000Y-72701950D02*
X144626190Y-72778140D01*
X144626190Y-72778140D02*
X144664285Y-72854331D01*
X144664285Y-72854331D02*
X144702381Y-73006712D01*
X144702381Y-73006712D02*
X144702381Y-73120998D01*
X144702381Y-73120998D02*
X144664285Y-73273379D01*
X144664285Y-73273379D02*
X144626190Y-73349569D01*
X144626190Y-73349569D02*
X144550000Y-73425760D01*
X144550000Y-73425760D02*
X144435714Y-73463855D01*
X144435714Y-73463855D02*
X144245238Y-73463855D01*
X144930952Y-72663855D02*
X145388095Y-72663855D01*
X145159523Y-73463855D02*
X145159523Y-72663855D01*
X146226190Y-73425760D02*
X146340476Y-73463855D01*
X146340476Y-73463855D02*
X146530952Y-73463855D01*
X146530952Y-73463855D02*
X146607143Y-73425760D01*
X146607143Y-73425760D02*
X146645238Y-73387664D01*
X146645238Y-73387664D02*
X146683333Y-73311474D01*
X146683333Y-73311474D02*
X146683333Y-73235283D01*
X146683333Y-73235283D02*
X146645238Y-73159093D01*
X146645238Y-73159093D02*
X146607143Y-73120998D01*
X146607143Y-73120998D02*
X146530952Y-73082902D01*
X146530952Y-73082902D02*
X146378571Y-73044807D01*
X146378571Y-73044807D02*
X146302381Y-73006712D01*
X146302381Y-73006712D02*
X146264286Y-72968617D01*
X146264286Y-72968617D02*
X146226190Y-72892426D01*
X146226190Y-72892426D02*
X146226190Y-72816236D01*
X146226190Y-72816236D02*
X146264286Y-72740045D01*
X146264286Y-72740045D02*
X146302381Y-72701950D01*
X146302381Y-72701950D02*
X146378571Y-72663855D01*
X146378571Y-72663855D02*
X146569048Y-72663855D01*
X146569048Y-72663855D02*
X146683333Y-72701950D01*
X147483334Y-73387664D02*
X147445238Y-73425760D01*
X147445238Y-73425760D02*
X147330953Y-73463855D01*
X147330953Y-73463855D02*
X147254762Y-73463855D01*
X147254762Y-73463855D02*
X147140476Y-73425760D01*
X147140476Y-73425760D02*
X147064286Y-73349569D01*
X147064286Y-73349569D02*
X147026191Y-73273379D01*
X147026191Y-73273379D02*
X146988095Y-73120998D01*
X146988095Y-73120998D02*
X146988095Y-73006712D01*
X146988095Y-73006712D02*
X147026191Y-72854331D01*
X147026191Y-72854331D02*
X147064286Y-72778140D01*
X147064286Y-72778140D02*
X147140476Y-72701950D01*
X147140476Y-72701950D02*
X147254762Y-72663855D01*
X147254762Y-72663855D02*
X147330953Y-72663855D01*
X147330953Y-72663855D02*
X147445238Y-72701950D01*
X147445238Y-72701950D02*
X147483334Y-72740045D01*
X147826191Y-73463855D02*
X147826191Y-72663855D01*
X148283334Y-73463855D02*
X147940476Y-73006712D01*
X148283334Y-72663855D02*
X147826191Y-73120998D01*
X149616667Y-72663855D02*
X149235715Y-72663855D01*
X149235715Y-72663855D02*
X149197619Y-73044807D01*
X149197619Y-73044807D02*
X149235715Y-73006712D01*
X149235715Y-73006712D02*
X149311905Y-72968617D01*
X149311905Y-72968617D02*
X149502381Y-72968617D01*
X149502381Y-72968617D02*
X149578572Y-73006712D01*
X149578572Y-73006712D02*
X149616667Y-73044807D01*
X149616667Y-73044807D02*
X149654762Y-73120998D01*
X149654762Y-73120998D02*
X149654762Y-73311474D01*
X149654762Y-73311474D02*
X149616667Y-73387664D01*
X149616667Y-73387664D02*
X149578572Y-73425760D01*
X149578572Y-73425760D02*
X149502381Y-73463855D01*
X149502381Y-73463855D02*
X149311905Y-73463855D01*
X149311905Y-73463855D02*
X149235715Y-73425760D01*
X149235715Y-73425760D02*
X149197619Y-73387664D01*
X149883334Y-72663855D02*
X150150001Y-73463855D01*
X150150001Y-73463855D02*
X150416667Y-72663855D01*
X123616666Y-91701950D02*
X123540476Y-91663855D01*
X123540476Y-91663855D02*
X123426190Y-91663855D01*
X123426190Y-91663855D02*
X123311904Y-91701950D01*
X123311904Y-91701950D02*
X123235714Y-91778140D01*
X123235714Y-91778140D02*
X123197619Y-91854331D01*
X123197619Y-91854331D02*
X123159523Y-92006712D01*
X123159523Y-92006712D02*
X123159523Y-92120998D01*
X123159523Y-92120998D02*
X123197619Y-92273379D01*
X123197619Y-92273379D02*
X123235714Y-92349569D01*
X123235714Y-92349569D02*
X123311904Y-92425760D01*
X123311904Y-92425760D02*
X123426190Y-92463855D01*
X123426190Y-92463855D02*
X123502381Y-92463855D01*
X123502381Y-92463855D02*
X123616666Y-92425760D01*
X123616666Y-92425760D02*
X123654762Y-92387664D01*
X123654762Y-92387664D02*
X123654762Y-92120998D01*
X123654762Y-92120998D02*
X123502381Y-92120998D01*
X123997619Y-92463855D02*
X123997619Y-91663855D01*
X123997619Y-91663855D02*
X124454762Y-92463855D01*
X124454762Y-92463855D02*
X124454762Y-91663855D01*
X124835714Y-92463855D02*
X124835714Y-91663855D01*
X124835714Y-91663855D02*
X125026190Y-91663855D01*
X125026190Y-91663855D02*
X125140476Y-91701950D01*
X125140476Y-91701950D02*
X125216666Y-91778140D01*
X125216666Y-91778140D02*
X125254761Y-91854331D01*
X125254761Y-91854331D02*
X125292857Y-92006712D01*
X125292857Y-92006712D02*
X125292857Y-92120998D01*
X125292857Y-92120998D02*
X125254761Y-92273379D01*
X125254761Y-92273379D02*
X125216666Y-92349569D01*
X125216666Y-92349569D02*
X125140476Y-92425760D01*
X125140476Y-92425760D02*
X125026190Y-92463855D01*
X125026190Y-92463855D02*
X124835714Y-92463855D01*
X126245238Y-92463855D02*
X126245238Y-91663855D01*
X126245238Y-91663855D02*
X126435714Y-91663855D01*
X126435714Y-91663855D02*
X126550000Y-91701950D01*
X126550000Y-91701950D02*
X126626190Y-91778140D01*
X126626190Y-91778140D02*
X126664285Y-91854331D01*
X126664285Y-91854331D02*
X126702381Y-92006712D01*
X126702381Y-92006712D02*
X126702381Y-92120998D01*
X126702381Y-92120998D02*
X126664285Y-92273379D01*
X126664285Y-92273379D02*
X126626190Y-92349569D01*
X126626190Y-92349569D02*
X126550000Y-92425760D01*
X126550000Y-92425760D02*
X126435714Y-92463855D01*
X126435714Y-92463855D02*
X126245238Y-92463855D01*
X126930952Y-91663855D02*
X127388095Y-91663855D01*
X127159523Y-92463855D02*
X127159523Y-91663855D01*
X128226190Y-92425760D02*
X128340476Y-92463855D01*
X128340476Y-92463855D02*
X128530952Y-92463855D01*
X128530952Y-92463855D02*
X128607143Y-92425760D01*
X128607143Y-92425760D02*
X128645238Y-92387664D01*
X128645238Y-92387664D02*
X128683333Y-92311474D01*
X128683333Y-92311474D02*
X128683333Y-92235283D01*
X128683333Y-92235283D02*
X128645238Y-92159093D01*
X128645238Y-92159093D02*
X128607143Y-92120998D01*
X128607143Y-92120998D02*
X128530952Y-92082902D01*
X128530952Y-92082902D02*
X128378571Y-92044807D01*
X128378571Y-92044807D02*
X128302381Y-92006712D01*
X128302381Y-92006712D02*
X128264286Y-91968617D01*
X128264286Y-91968617D02*
X128226190Y-91892426D01*
X128226190Y-91892426D02*
X128226190Y-91816236D01*
X128226190Y-91816236D02*
X128264286Y-91740045D01*
X128264286Y-91740045D02*
X128302381Y-91701950D01*
X128302381Y-91701950D02*
X128378571Y-91663855D01*
X128378571Y-91663855D02*
X128569048Y-91663855D01*
X128569048Y-91663855D02*
X128683333Y-91701950D01*
X129483334Y-92387664D02*
X129445238Y-92425760D01*
X129445238Y-92425760D02*
X129330953Y-92463855D01*
X129330953Y-92463855D02*
X129254762Y-92463855D01*
X129254762Y-92463855D02*
X129140476Y-92425760D01*
X129140476Y-92425760D02*
X129064286Y-92349569D01*
X129064286Y-92349569D02*
X129026191Y-92273379D01*
X129026191Y-92273379D02*
X128988095Y-92120998D01*
X128988095Y-92120998D02*
X128988095Y-92006712D01*
X128988095Y-92006712D02*
X129026191Y-91854331D01*
X129026191Y-91854331D02*
X129064286Y-91778140D01*
X129064286Y-91778140D02*
X129140476Y-91701950D01*
X129140476Y-91701950D02*
X129254762Y-91663855D01*
X129254762Y-91663855D02*
X129330953Y-91663855D01*
X129330953Y-91663855D02*
X129445238Y-91701950D01*
X129445238Y-91701950D02*
X129483334Y-91740045D01*
X129826191Y-92463855D02*
X129826191Y-91663855D01*
X130283334Y-92463855D02*
X129940476Y-92006712D01*
X130283334Y-91663855D02*
X129826191Y-92120998D01*
X131616667Y-91663855D02*
X131235715Y-91663855D01*
X131235715Y-91663855D02*
X131197619Y-92044807D01*
X131197619Y-92044807D02*
X131235715Y-92006712D01*
X131235715Y-92006712D02*
X131311905Y-91968617D01*
X131311905Y-91968617D02*
X131502381Y-91968617D01*
X131502381Y-91968617D02*
X131578572Y-92006712D01*
X131578572Y-92006712D02*
X131616667Y-92044807D01*
X131616667Y-92044807D02*
X131654762Y-92120998D01*
X131654762Y-92120998D02*
X131654762Y-92311474D01*
X131654762Y-92311474D02*
X131616667Y-92387664D01*
X131616667Y-92387664D02*
X131578572Y-92425760D01*
X131578572Y-92425760D02*
X131502381Y-92463855D01*
X131502381Y-92463855D02*
X131311905Y-92463855D01*
X131311905Y-92463855D02*
X131235715Y-92425760D01*
X131235715Y-92425760D02*
X131197619Y-92387664D01*
X131883334Y-91663855D02*
X132150001Y-92463855D01*
X132150001Y-92463855D02*
X132416667Y-91663855D01*
X141616666Y-91701950D02*
X141540476Y-91663855D01*
X141540476Y-91663855D02*
X141426190Y-91663855D01*
X141426190Y-91663855D02*
X141311904Y-91701950D01*
X141311904Y-91701950D02*
X141235714Y-91778140D01*
X141235714Y-91778140D02*
X141197619Y-91854331D01*
X141197619Y-91854331D02*
X141159523Y-92006712D01*
X141159523Y-92006712D02*
X141159523Y-92120998D01*
X141159523Y-92120998D02*
X141197619Y-92273379D01*
X141197619Y-92273379D02*
X141235714Y-92349569D01*
X141235714Y-92349569D02*
X141311904Y-92425760D01*
X141311904Y-92425760D02*
X141426190Y-92463855D01*
X141426190Y-92463855D02*
X141502381Y-92463855D01*
X141502381Y-92463855D02*
X141616666Y-92425760D01*
X141616666Y-92425760D02*
X141654762Y-92387664D01*
X141654762Y-92387664D02*
X141654762Y-92120998D01*
X141654762Y-92120998D02*
X141502381Y-92120998D01*
X141997619Y-92463855D02*
X141997619Y-91663855D01*
X141997619Y-91663855D02*
X142454762Y-92463855D01*
X142454762Y-92463855D02*
X142454762Y-91663855D01*
X142835714Y-92463855D02*
X142835714Y-91663855D01*
X142835714Y-91663855D02*
X143026190Y-91663855D01*
X143026190Y-91663855D02*
X143140476Y-91701950D01*
X143140476Y-91701950D02*
X143216666Y-91778140D01*
X143216666Y-91778140D02*
X143254761Y-91854331D01*
X143254761Y-91854331D02*
X143292857Y-92006712D01*
X143292857Y-92006712D02*
X143292857Y-92120998D01*
X143292857Y-92120998D02*
X143254761Y-92273379D01*
X143254761Y-92273379D02*
X143216666Y-92349569D01*
X143216666Y-92349569D02*
X143140476Y-92425760D01*
X143140476Y-92425760D02*
X143026190Y-92463855D01*
X143026190Y-92463855D02*
X142835714Y-92463855D01*
X144245238Y-92463855D02*
X144245238Y-91663855D01*
X144245238Y-91663855D02*
X144435714Y-91663855D01*
X144435714Y-91663855D02*
X144550000Y-91701950D01*
X144550000Y-91701950D02*
X144626190Y-91778140D01*
X144626190Y-91778140D02*
X144664285Y-91854331D01*
X144664285Y-91854331D02*
X144702381Y-92006712D01*
X144702381Y-92006712D02*
X144702381Y-92120998D01*
X144702381Y-92120998D02*
X144664285Y-92273379D01*
X144664285Y-92273379D02*
X144626190Y-92349569D01*
X144626190Y-92349569D02*
X144550000Y-92425760D01*
X144550000Y-92425760D02*
X144435714Y-92463855D01*
X144435714Y-92463855D02*
X144245238Y-92463855D01*
X144930952Y-91663855D02*
X145388095Y-91663855D01*
X145159523Y-92463855D02*
X145159523Y-91663855D01*
X146226190Y-92425760D02*
X146340476Y-92463855D01*
X146340476Y-92463855D02*
X146530952Y-92463855D01*
X146530952Y-92463855D02*
X146607143Y-92425760D01*
X146607143Y-92425760D02*
X146645238Y-92387664D01*
X146645238Y-92387664D02*
X146683333Y-92311474D01*
X146683333Y-92311474D02*
X146683333Y-92235283D01*
X146683333Y-92235283D02*
X146645238Y-92159093D01*
X146645238Y-92159093D02*
X146607143Y-92120998D01*
X146607143Y-92120998D02*
X146530952Y-92082902D01*
X146530952Y-92082902D02*
X146378571Y-92044807D01*
X146378571Y-92044807D02*
X146302381Y-92006712D01*
X146302381Y-92006712D02*
X146264286Y-91968617D01*
X146264286Y-91968617D02*
X146226190Y-91892426D01*
X146226190Y-91892426D02*
X146226190Y-91816236D01*
X146226190Y-91816236D02*
X146264286Y-91740045D01*
X146264286Y-91740045D02*
X146302381Y-91701950D01*
X146302381Y-91701950D02*
X146378571Y-91663855D01*
X146378571Y-91663855D02*
X146569048Y-91663855D01*
X146569048Y-91663855D02*
X146683333Y-91701950D01*
X147483334Y-92387664D02*
X147445238Y-92425760D01*
X147445238Y-92425760D02*
X147330953Y-92463855D01*
X147330953Y-92463855D02*
X147254762Y-92463855D01*
X147254762Y-92463855D02*
X147140476Y-92425760D01*
X147140476Y-92425760D02*
X147064286Y-92349569D01*
X147064286Y-92349569D02*
X147026191Y-92273379D01*
X147026191Y-92273379D02*
X146988095Y-92120998D01*
X146988095Y-92120998D02*
X146988095Y-92006712D01*
X146988095Y-92006712D02*
X147026191Y-91854331D01*
X147026191Y-91854331D02*
X147064286Y-91778140D01*
X147064286Y-91778140D02*
X147140476Y-91701950D01*
X147140476Y-91701950D02*
X147254762Y-91663855D01*
X147254762Y-91663855D02*
X147330953Y-91663855D01*
X147330953Y-91663855D02*
X147445238Y-91701950D01*
X147445238Y-91701950D02*
X147483334Y-91740045D01*
X147826191Y-92463855D02*
X147826191Y-91663855D01*
X148283334Y-92463855D02*
X147940476Y-92006712D01*
X148283334Y-91663855D02*
X147826191Y-92120998D01*
X149616667Y-91663855D02*
X149235715Y-91663855D01*
X149235715Y-91663855D02*
X149197619Y-92044807D01*
X149197619Y-92044807D02*
X149235715Y-92006712D01*
X149235715Y-92006712D02*
X149311905Y-91968617D01*
X149311905Y-91968617D02*
X149502381Y-91968617D01*
X149502381Y-91968617D02*
X149578572Y-92006712D01*
X149578572Y-92006712D02*
X149616667Y-92044807D01*
X149616667Y-92044807D02*
X149654762Y-92120998D01*
X149654762Y-92120998D02*
X149654762Y-92311474D01*
X149654762Y-92311474D02*
X149616667Y-92387664D01*
X149616667Y-92387664D02*
X149578572Y-92425760D01*
X149578572Y-92425760D02*
X149502381Y-92463855D01*
X149502381Y-92463855D02*
X149311905Y-92463855D01*
X149311905Y-92463855D02*
X149235715Y-92425760D01*
X149235715Y-92425760D02*
X149197619Y-92387664D01*
X149883334Y-91663855D02*
X150150001Y-92463855D01*
X150150001Y-92463855D02*
X150416667Y-91663855D01*
D11*
X170371428Y-73409337D02*
X170371428Y-74052194D01*
X170371428Y-74052194D02*
X170328571Y-74180765D01*
X170328571Y-74180765D02*
X170242857Y-74266480D01*
X170242857Y-74266480D02*
X170114285Y-74309337D01*
X170114285Y-74309337D02*
X170028571Y-74309337D01*
X170757142Y-73495051D02*
X170799999Y-73452194D01*
X170799999Y-73452194D02*
X170885714Y-73409337D01*
X170885714Y-73409337D02*
X171099999Y-73409337D01*
X171099999Y-73409337D02*
X171185714Y-73452194D01*
X171185714Y-73452194D02*
X171228571Y-73495051D01*
X171228571Y-73495051D02*
X171271428Y-73580765D01*
X171271428Y-73580765D02*
X171271428Y-73666480D01*
X171271428Y-73666480D02*
X171228571Y-73795051D01*
X171228571Y-73795051D02*
X170714285Y-74309337D01*
X170714285Y-74309337D02*
X171271428Y-74309337D01*
X171614285Y-73495051D02*
X171657142Y-73452194D01*
X171657142Y-73452194D02*
X171742857Y-73409337D01*
X171742857Y-73409337D02*
X171957142Y-73409337D01*
X171957142Y-73409337D02*
X172042857Y-73452194D01*
X172042857Y-73452194D02*
X172085714Y-73495051D01*
X172085714Y-73495051D02*
X172128571Y-73580765D01*
X172128571Y-73580765D02*
X172128571Y-73666480D01*
X172128571Y-73666480D02*
X172085714Y-73795051D01*
X172085714Y-73795051D02*
X171571428Y-74309337D01*
X171571428Y-74309337D02*
X172128571Y-74309337D01*
X173585714Y-74309337D02*
X173585714Y-73837908D01*
X173585714Y-73837908D02*
X173542856Y-73752194D01*
X173542856Y-73752194D02*
X173457142Y-73709337D01*
X173457142Y-73709337D02*
X173285714Y-73709337D01*
X173285714Y-73709337D02*
X173199999Y-73752194D01*
X173585714Y-74266480D02*
X173499999Y-74309337D01*
X173499999Y-74309337D02*
X173285714Y-74309337D01*
X173285714Y-74309337D02*
X173199999Y-74266480D01*
X173199999Y-74266480D02*
X173157142Y-74180765D01*
X173157142Y-74180765D02*
X173157142Y-74095051D01*
X173157142Y-74095051D02*
X173199999Y-74009337D01*
X173199999Y-74009337D02*
X173285714Y-73966480D01*
X173285714Y-73966480D02*
X173499999Y-73966480D01*
X173499999Y-73966480D02*
X173585714Y-73923622D01*
X174014285Y-74309337D02*
X174014285Y-73709337D01*
X174014285Y-73880765D02*
X174057142Y-73795051D01*
X174057142Y-73795051D02*
X174100000Y-73752194D01*
X174100000Y-73752194D02*
X174185714Y-73709337D01*
X174185714Y-73709337D02*
X174271428Y-73709337D01*
X174571428Y-74309337D02*
X174571428Y-73709337D01*
X174571428Y-73880765D02*
X174614285Y-73795051D01*
X174614285Y-73795051D02*
X174657143Y-73752194D01*
X174657143Y-73752194D02*
X174742857Y-73709337D01*
X174742857Y-73709337D02*
X174828571Y-73709337D01*
X175471428Y-74266480D02*
X175385714Y-74309337D01*
X175385714Y-74309337D02*
X175214286Y-74309337D01*
X175214286Y-74309337D02*
X175128571Y-74266480D01*
X175128571Y-74266480D02*
X175085714Y-74180765D01*
X175085714Y-74180765D02*
X175085714Y-73837908D01*
X175085714Y-73837908D02*
X175128571Y-73752194D01*
X175128571Y-73752194D02*
X175214286Y-73709337D01*
X175214286Y-73709337D02*
X175385714Y-73709337D01*
X175385714Y-73709337D02*
X175471428Y-73752194D01*
X175471428Y-73752194D02*
X175514286Y-73837908D01*
X175514286Y-73837908D02*
X175514286Y-73923622D01*
X175514286Y-73923622D02*
X175085714Y-74009337D01*
X175128571Y-73495051D02*
X175300000Y-73366480D01*
X175300000Y-73366480D02*
X175471428Y-73495051D01*
X175771429Y-73709337D02*
X176114286Y-73709337D01*
X175900000Y-73409337D02*
X175900000Y-74180765D01*
X175900000Y-74180765D02*
X175942857Y-74266480D01*
X175942857Y-74266480D02*
X176028572Y-74309337D01*
X176028572Y-74309337D02*
X176114286Y-74309337D01*
X177100000Y-74309337D02*
X177100000Y-73409337D01*
X177100000Y-73409337D02*
X177614286Y-74309337D01*
X177614286Y-74309337D02*
X177614286Y-73409337D01*
X178342857Y-73837908D02*
X178042857Y-73837908D01*
X178042857Y-74309337D02*
X178042857Y-73409337D01*
X178042857Y-73409337D02*
X178471429Y-73409337D01*
D10*
X141616666Y-82201950D02*
X141540476Y-82163855D01*
X141540476Y-82163855D02*
X141426190Y-82163855D01*
X141426190Y-82163855D02*
X141311904Y-82201950D01*
X141311904Y-82201950D02*
X141235714Y-82278140D01*
X141235714Y-82278140D02*
X141197619Y-82354331D01*
X141197619Y-82354331D02*
X141159523Y-82506712D01*
X141159523Y-82506712D02*
X141159523Y-82620998D01*
X141159523Y-82620998D02*
X141197619Y-82773379D01*
X141197619Y-82773379D02*
X141235714Y-82849569D01*
X141235714Y-82849569D02*
X141311904Y-82925760D01*
X141311904Y-82925760D02*
X141426190Y-82963855D01*
X141426190Y-82963855D02*
X141502381Y-82963855D01*
X141502381Y-82963855D02*
X141616666Y-82925760D01*
X141616666Y-82925760D02*
X141654762Y-82887664D01*
X141654762Y-82887664D02*
X141654762Y-82620998D01*
X141654762Y-82620998D02*
X141502381Y-82620998D01*
X141997619Y-82963855D02*
X141997619Y-82163855D01*
X141997619Y-82163855D02*
X142454762Y-82963855D01*
X142454762Y-82963855D02*
X142454762Y-82163855D01*
X142835714Y-82963855D02*
X142835714Y-82163855D01*
X142835714Y-82163855D02*
X143026190Y-82163855D01*
X143026190Y-82163855D02*
X143140476Y-82201950D01*
X143140476Y-82201950D02*
X143216666Y-82278140D01*
X143216666Y-82278140D02*
X143254761Y-82354331D01*
X143254761Y-82354331D02*
X143292857Y-82506712D01*
X143292857Y-82506712D02*
X143292857Y-82620998D01*
X143292857Y-82620998D02*
X143254761Y-82773379D01*
X143254761Y-82773379D02*
X143216666Y-82849569D01*
X143216666Y-82849569D02*
X143140476Y-82925760D01*
X143140476Y-82925760D02*
X143026190Y-82963855D01*
X143026190Y-82963855D02*
X142835714Y-82963855D01*
X144245238Y-82963855D02*
X144245238Y-82163855D01*
X144245238Y-82163855D02*
X144435714Y-82163855D01*
X144435714Y-82163855D02*
X144550000Y-82201950D01*
X144550000Y-82201950D02*
X144626190Y-82278140D01*
X144626190Y-82278140D02*
X144664285Y-82354331D01*
X144664285Y-82354331D02*
X144702381Y-82506712D01*
X144702381Y-82506712D02*
X144702381Y-82620998D01*
X144702381Y-82620998D02*
X144664285Y-82773379D01*
X144664285Y-82773379D02*
X144626190Y-82849569D01*
X144626190Y-82849569D02*
X144550000Y-82925760D01*
X144550000Y-82925760D02*
X144435714Y-82963855D01*
X144435714Y-82963855D02*
X144245238Y-82963855D01*
X144930952Y-82163855D02*
X145388095Y-82163855D01*
X145159523Y-82963855D02*
X145159523Y-82163855D01*
X146226190Y-82925760D02*
X146340476Y-82963855D01*
X146340476Y-82963855D02*
X146530952Y-82963855D01*
X146530952Y-82963855D02*
X146607143Y-82925760D01*
X146607143Y-82925760D02*
X146645238Y-82887664D01*
X146645238Y-82887664D02*
X146683333Y-82811474D01*
X146683333Y-82811474D02*
X146683333Y-82735283D01*
X146683333Y-82735283D02*
X146645238Y-82659093D01*
X146645238Y-82659093D02*
X146607143Y-82620998D01*
X146607143Y-82620998D02*
X146530952Y-82582902D01*
X146530952Y-82582902D02*
X146378571Y-82544807D01*
X146378571Y-82544807D02*
X146302381Y-82506712D01*
X146302381Y-82506712D02*
X146264286Y-82468617D01*
X146264286Y-82468617D02*
X146226190Y-82392426D01*
X146226190Y-82392426D02*
X146226190Y-82316236D01*
X146226190Y-82316236D02*
X146264286Y-82240045D01*
X146264286Y-82240045D02*
X146302381Y-82201950D01*
X146302381Y-82201950D02*
X146378571Y-82163855D01*
X146378571Y-82163855D02*
X146569048Y-82163855D01*
X146569048Y-82163855D02*
X146683333Y-82201950D01*
X147483334Y-82887664D02*
X147445238Y-82925760D01*
X147445238Y-82925760D02*
X147330953Y-82963855D01*
X147330953Y-82963855D02*
X147254762Y-82963855D01*
X147254762Y-82963855D02*
X147140476Y-82925760D01*
X147140476Y-82925760D02*
X147064286Y-82849569D01*
X147064286Y-82849569D02*
X147026191Y-82773379D01*
X147026191Y-82773379D02*
X146988095Y-82620998D01*
X146988095Y-82620998D02*
X146988095Y-82506712D01*
X146988095Y-82506712D02*
X147026191Y-82354331D01*
X147026191Y-82354331D02*
X147064286Y-82278140D01*
X147064286Y-82278140D02*
X147140476Y-82201950D01*
X147140476Y-82201950D02*
X147254762Y-82163855D01*
X147254762Y-82163855D02*
X147330953Y-82163855D01*
X147330953Y-82163855D02*
X147445238Y-82201950D01*
X147445238Y-82201950D02*
X147483334Y-82240045D01*
X147826191Y-82963855D02*
X147826191Y-82163855D01*
X148283334Y-82963855D02*
X147940476Y-82506712D01*
X148283334Y-82163855D02*
X147826191Y-82620998D01*
X149616667Y-82163855D02*
X149235715Y-82163855D01*
X149235715Y-82163855D02*
X149197619Y-82544807D01*
X149197619Y-82544807D02*
X149235715Y-82506712D01*
X149235715Y-82506712D02*
X149311905Y-82468617D01*
X149311905Y-82468617D02*
X149502381Y-82468617D01*
X149502381Y-82468617D02*
X149578572Y-82506712D01*
X149578572Y-82506712D02*
X149616667Y-82544807D01*
X149616667Y-82544807D02*
X149654762Y-82620998D01*
X149654762Y-82620998D02*
X149654762Y-82811474D01*
X149654762Y-82811474D02*
X149616667Y-82887664D01*
X149616667Y-82887664D02*
X149578572Y-82925760D01*
X149578572Y-82925760D02*
X149502381Y-82963855D01*
X149502381Y-82963855D02*
X149311905Y-82963855D01*
X149311905Y-82963855D02*
X149235715Y-82925760D01*
X149235715Y-82925760D02*
X149197619Y-82887664D01*
X149883334Y-82163855D02*
X150150001Y-82963855D01*
X150150001Y-82963855D02*
X150416667Y-82163855D01*
D11*
X170764286Y-62909337D02*
X170764286Y-63552194D01*
X170764286Y-63552194D02*
X170721429Y-63680765D01*
X170721429Y-63680765D02*
X170635715Y-63766480D01*
X170635715Y-63766480D02*
X170507143Y-63809337D01*
X170507143Y-63809337D02*
X170421429Y-63809337D01*
X171150000Y-62995051D02*
X171192857Y-62952194D01*
X171192857Y-62952194D02*
X171278572Y-62909337D01*
X171278572Y-62909337D02*
X171492857Y-62909337D01*
X171492857Y-62909337D02*
X171578572Y-62952194D01*
X171578572Y-62952194D02*
X171621429Y-62995051D01*
X171621429Y-62995051D02*
X171664286Y-63080765D01*
X171664286Y-63080765D02*
X171664286Y-63166480D01*
X171664286Y-63166480D02*
X171621429Y-63295051D01*
X171621429Y-63295051D02*
X171107143Y-63809337D01*
X171107143Y-63809337D02*
X171664286Y-63809337D01*
X172521429Y-63809337D02*
X172007143Y-63809337D01*
X172264286Y-63809337D02*
X172264286Y-62909337D01*
X172264286Y-62909337D02*
X172178572Y-63037908D01*
X172178572Y-63037908D02*
X172092857Y-63123622D01*
X172092857Y-63123622D02*
X172007143Y-63166480D01*
X173592857Y-63809337D02*
X173592857Y-62909337D01*
X173592857Y-63252194D02*
X173678572Y-63209337D01*
X173678572Y-63209337D02*
X173850000Y-63209337D01*
X173850000Y-63209337D02*
X173935714Y-63252194D01*
X173935714Y-63252194D02*
X173978572Y-63295051D01*
X173978572Y-63295051D02*
X174021429Y-63380765D01*
X174021429Y-63380765D02*
X174021429Y-63637908D01*
X174021429Y-63637908D02*
X173978572Y-63723622D01*
X173978572Y-63723622D02*
X173935714Y-63766480D01*
X173935714Y-63766480D02*
X173850000Y-63809337D01*
X173850000Y-63809337D02*
X173678572Y-63809337D01*
X173678572Y-63809337D02*
X173592857Y-63766480D01*
X174792858Y-63209337D02*
X174792858Y-63809337D01*
X174407143Y-63209337D02*
X174407143Y-63680765D01*
X174407143Y-63680765D02*
X174450000Y-63766480D01*
X174450000Y-63766480D02*
X174535715Y-63809337D01*
X174535715Y-63809337D02*
X174664286Y-63809337D01*
X174664286Y-63809337D02*
X174750000Y-63766480D01*
X174750000Y-63766480D02*
X174792858Y-63723622D01*
X175178572Y-63766480D02*
X175264286Y-63809337D01*
X175264286Y-63809337D02*
X175435715Y-63809337D01*
X175435715Y-63809337D02*
X175521429Y-63766480D01*
X175521429Y-63766480D02*
X175564286Y-63680765D01*
X175564286Y-63680765D02*
X175564286Y-63637908D01*
X175564286Y-63637908D02*
X175521429Y-63552194D01*
X175521429Y-63552194D02*
X175435715Y-63509337D01*
X175435715Y-63509337D02*
X175307144Y-63509337D01*
X175307144Y-63509337D02*
X175221429Y-63466480D01*
X175221429Y-63466480D02*
X175178572Y-63380765D01*
X175178572Y-63380765D02*
X175178572Y-63337908D01*
X175178572Y-63337908D02*
X175221429Y-63252194D01*
X175221429Y-63252194D02*
X175307144Y-63209337D01*
X175307144Y-63209337D02*
X175435715Y-63209337D01*
X175435715Y-63209337D02*
X175521429Y-63252194D01*
X176592857Y-63766480D02*
X176678571Y-63809337D01*
X176678571Y-63809337D02*
X176850000Y-63809337D01*
X176850000Y-63809337D02*
X176935714Y-63766480D01*
X176935714Y-63766480D02*
X176978571Y-63680765D01*
X176978571Y-63680765D02*
X176978571Y-63637908D01*
X176978571Y-63637908D02*
X176935714Y-63552194D01*
X176935714Y-63552194D02*
X176850000Y-63509337D01*
X176850000Y-63509337D02*
X176721429Y-63509337D01*
X176721429Y-63509337D02*
X176635714Y-63466480D01*
X176635714Y-63466480D02*
X176592857Y-63380765D01*
X176592857Y-63380765D02*
X176592857Y-63337908D01*
X176592857Y-63337908D02*
X176635714Y-63252194D01*
X176635714Y-63252194D02*
X176721429Y-63209337D01*
X176721429Y-63209337D02*
X176850000Y-63209337D01*
X176850000Y-63209337D02*
X176935714Y-63252194D01*
X177707142Y-63766480D02*
X177621428Y-63809337D01*
X177621428Y-63809337D02*
X177450000Y-63809337D01*
X177450000Y-63809337D02*
X177364285Y-63766480D01*
X177364285Y-63766480D02*
X177321428Y-63680765D01*
X177321428Y-63680765D02*
X177321428Y-63337908D01*
X177321428Y-63337908D02*
X177364285Y-63252194D01*
X177364285Y-63252194D02*
X177450000Y-63209337D01*
X177450000Y-63209337D02*
X177621428Y-63209337D01*
X177621428Y-63209337D02*
X177707142Y-63252194D01*
X177707142Y-63252194D02*
X177750000Y-63337908D01*
X177750000Y-63337908D02*
X177750000Y-63423622D01*
X177750000Y-63423622D02*
X177321428Y-63509337D01*
X178135714Y-63809337D02*
X178135714Y-63209337D01*
X178135714Y-63380765D02*
X178178571Y-63295051D01*
X178178571Y-63295051D02*
X178221429Y-63252194D01*
X178221429Y-63252194D02*
X178307143Y-63209337D01*
X178307143Y-63209337D02*
X178392857Y-63209337D01*
X178607143Y-63209337D02*
X178821429Y-63809337D01*
X178821429Y-63809337D02*
X179035714Y-63209337D01*
X179507143Y-63809337D02*
X179421428Y-63766480D01*
X179421428Y-63766480D02*
X179378571Y-63723622D01*
X179378571Y-63723622D02*
X179335714Y-63637908D01*
X179335714Y-63637908D02*
X179335714Y-63380765D01*
X179335714Y-63380765D02*
X179378571Y-63295051D01*
X179378571Y-63295051D02*
X179421428Y-63252194D01*
X179421428Y-63252194D02*
X179507143Y-63209337D01*
X179507143Y-63209337D02*
X179635714Y-63209337D01*
X179635714Y-63209337D02*
X179721428Y-63252194D01*
X179721428Y-63252194D02*
X179764286Y-63295051D01*
X179764286Y-63295051D02*
X179807143Y-63380765D01*
X179807143Y-63380765D02*
X179807143Y-63637908D01*
X179807143Y-63637908D02*
X179764286Y-63723622D01*
X179764286Y-63723622D02*
X179721428Y-63766480D01*
X179721428Y-63766480D02*
X179635714Y-63809337D01*
X179635714Y-63809337D02*
X179507143Y-63809337D01*
X180150000Y-63766480D02*
X180235714Y-63809337D01*
X180235714Y-63809337D02*
X180407143Y-63809337D01*
X180407143Y-63809337D02*
X180492857Y-63766480D01*
X180492857Y-63766480D02*
X180535714Y-63680765D01*
X180535714Y-63680765D02*
X180535714Y-63637908D01*
X180535714Y-63637908D02*
X180492857Y-63552194D01*
X180492857Y-63552194D02*
X180407143Y-63509337D01*
X180407143Y-63509337D02*
X180278572Y-63509337D01*
X180278572Y-63509337D02*
X180192857Y-63466480D01*
X180192857Y-63466480D02*
X180150000Y-63380765D01*
X180150000Y-63380765D02*
X180150000Y-63337908D01*
X180150000Y-63337908D02*
X180192857Y-63252194D01*
X180192857Y-63252194D02*
X180278572Y-63209337D01*
X180278572Y-63209337D02*
X180407143Y-63209337D01*
X180407143Y-63209337D02*
X180492857Y-63252194D01*
X120957142Y-64409337D02*
X120957142Y-65052194D01*
X120957142Y-65052194D02*
X120914285Y-65180765D01*
X120914285Y-65180765D02*
X120828571Y-65266480D01*
X120828571Y-65266480D02*
X120699999Y-65309337D01*
X120699999Y-65309337D02*
X120614285Y-65309337D01*
X121857142Y-65309337D02*
X121342856Y-65309337D01*
X121599999Y-65309337D02*
X121599999Y-64409337D01*
X121599999Y-64409337D02*
X121514285Y-64537908D01*
X121514285Y-64537908D02*
X121428570Y-64623622D01*
X121428570Y-64623622D02*
X121342856Y-64666480D01*
X122714285Y-65309337D02*
X122199999Y-65309337D01*
X122457142Y-65309337D02*
X122457142Y-64409337D01*
X122457142Y-64409337D02*
X122371428Y-64537908D01*
X122371428Y-64537908D02*
X122285713Y-64623622D01*
X122285713Y-64623622D02*
X122199999Y-64666480D01*
X123785713Y-65309337D02*
X123785713Y-64409337D01*
X123785713Y-64837908D02*
X124299999Y-64837908D01*
X124299999Y-65309337D02*
X124299999Y-64409337D01*
X124642856Y-64409337D02*
X125242856Y-65309337D01*
X125242856Y-64409337D02*
X124642856Y-65309337D01*
X126057142Y-65309337D02*
X125542856Y-65309337D01*
X125799999Y-65309337D02*
X125799999Y-64409337D01*
X125799999Y-64409337D02*
X125714285Y-64537908D01*
X125714285Y-64537908D02*
X125628570Y-64623622D01*
X125628570Y-64623622D02*
X125542856Y-64666480D01*
X127599999Y-64452194D02*
X127514285Y-64409337D01*
X127514285Y-64409337D02*
X127385713Y-64409337D01*
X127385713Y-64409337D02*
X127257142Y-64452194D01*
X127257142Y-64452194D02*
X127171427Y-64537908D01*
X127171427Y-64537908D02*
X127128570Y-64623622D01*
X127128570Y-64623622D02*
X127085713Y-64795051D01*
X127085713Y-64795051D02*
X127085713Y-64923622D01*
X127085713Y-64923622D02*
X127128570Y-65095051D01*
X127128570Y-65095051D02*
X127171427Y-65180765D01*
X127171427Y-65180765D02*
X127257142Y-65266480D01*
X127257142Y-65266480D02*
X127385713Y-65309337D01*
X127385713Y-65309337D02*
X127471427Y-65309337D01*
X127471427Y-65309337D02*
X127599999Y-65266480D01*
X127599999Y-65266480D02*
X127642856Y-65223622D01*
X127642856Y-65223622D02*
X127642856Y-64923622D01*
X127642856Y-64923622D02*
X127471427Y-64923622D01*
X129099999Y-65309337D02*
X129099999Y-64837908D01*
X129099999Y-64837908D02*
X129057141Y-64752194D01*
X129057141Y-64752194D02*
X128971427Y-64709337D01*
X128971427Y-64709337D02*
X128799999Y-64709337D01*
X128799999Y-64709337D02*
X128714284Y-64752194D01*
X129099999Y-65266480D02*
X129014284Y-65309337D01*
X129014284Y-65309337D02*
X128799999Y-65309337D01*
X128799999Y-65309337D02*
X128714284Y-65266480D01*
X128714284Y-65266480D02*
X128671427Y-65180765D01*
X128671427Y-65180765D02*
X128671427Y-65095051D01*
X128671427Y-65095051D02*
X128714284Y-65009337D01*
X128714284Y-65009337D02*
X128799999Y-64966480D01*
X128799999Y-64966480D02*
X129014284Y-64966480D01*
X129014284Y-64966480D02*
X129099999Y-64923622D01*
X129442856Y-64709337D02*
X129657142Y-65309337D01*
X129657142Y-65309337D02*
X129871427Y-64709337D01*
X130599999Y-65309337D02*
X130599999Y-64837908D01*
X130599999Y-64837908D02*
X130557141Y-64752194D01*
X130557141Y-64752194D02*
X130471427Y-64709337D01*
X130471427Y-64709337D02*
X130299999Y-64709337D01*
X130299999Y-64709337D02*
X130214284Y-64752194D01*
X130599999Y-65266480D02*
X130514284Y-65309337D01*
X130514284Y-65309337D02*
X130299999Y-65309337D01*
X130299999Y-65309337D02*
X130214284Y-65266480D01*
X130214284Y-65266480D02*
X130171427Y-65180765D01*
X130171427Y-65180765D02*
X130171427Y-65095051D01*
X130171427Y-65095051D02*
X130214284Y-65009337D01*
X130214284Y-65009337D02*
X130299999Y-64966480D01*
X130299999Y-64966480D02*
X130514284Y-64966480D01*
X130514284Y-64966480D02*
X130599999Y-64923622D01*
X131028570Y-64709337D02*
X131028570Y-65309337D01*
X131028570Y-64795051D02*
X131071427Y-64752194D01*
X131071427Y-64752194D02*
X131157142Y-64709337D01*
X131157142Y-64709337D02*
X131285713Y-64709337D01*
X131285713Y-64709337D02*
X131371427Y-64752194D01*
X131371427Y-64752194D02*
X131414285Y-64837908D01*
X131414285Y-64837908D02*
X131414285Y-65309337D01*
X131714285Y-64709337D02*
X132057142Y-64709337D01*
X131842856Y-64409337D02*
X131842856Y-65180765D01*
X131842856Y-65180765D02*
X131885713Y-65266480D01*
X131885713Y-65266480D02*
X131971428Y-65309337D01*
X131971428Y-65309337D02*
X132057142Y-65309337D01*
X132357142Y-64966480D02*
X133042857Y-64966480D01*
X133471428Y-65309337D02*
X133471428Y-64709337D01*
X133471428Y-64409337D02*
X133428571Y-64452194D01*
X133428571Y-64452194D02*
X133471428Y-64495051D01*
X133471428Y-64495051D02*
X133514285Y-64452194D01*
X133514285Y-64452194D02*
X133471428Y-64409337D01*
X133471428Y-64409337D02*
X133471428Y-64495051D01*
X133899999Y-64709337D02*
X133899999Y-65309337D01*
X133899999Y-64795051D02*
X133942856Y-64752194D01*
X133942856Y-64752194D02*
X134028571Y-64709337D01*
X134028571Y-64709337D02*
X134157142Y-64709337D01*
X134157142Y-64709337D02*
X134242856Y-64752194D01*
X134242856Y-64752194D02*
X134285714Y-64837908D01*
X134285714Y-64837908D02*
X134285714Y-65309337D01*
X134585714Y-64709337D02*
X134928571Y-64709337D01*
X134714285Y-64409337D02*
X134714285Y-65180765D01*
X134714285Y-65180765D02*
X134757142Y-65266480D01*
X134757142Y-65266480D02*
X134842857Y-65309337D01*
X134842857Y-65309337D02*
X134928571Y-65309337D01*
X170964286Y-53409337D02*
X170964286Y-54052194D01*
X170964286Y-54052194D02*
X170921429Y-54180765D01*
X170921429Y-54180765D02*
X170835715Y-54266480D01*
X170835715Y-54266480D02*
X170707143Y-54309337D01*
X170707143Y-54309337D02*
X170621429Y-54309337D01*
X171350000Y-53495051D02*
X171392857Y-53452194D01*
X171392857Y-53452194D02*
X171478572Y-53409337D01*
X171478572Y-53409337D02*
X171692857Y-53409337D01*
X171692857Y-53409337D02*
X171778572Y-53452194D01*
X171778572Y-53452194D02*
X171821429Y-53495051D01*
X171821429Y-53495051D02*
X171864286Y-53580765D01*
X171864286Y-53580765D02*
X171864286Y-53666480D01*
X171864286Y-53666480D02*
X171821429Y-53795051D01*
X171821429Y-53795051D02*
X171307143Y-54309337D01*
X171307143Y-54309337D02*
X171864286Y-54309337D01*
X172421429Y-53409337D02*
X172507143Y-53409337D01*
X172507143Y-53409337D02*
X172592857Y-53452194D01*
X172592857Y-53452194D02*
X172635715Y-53495051D01*
X172635715Y-53495051D02*
X172678572Y-53580765D01*
X172678572Y-53580765D02*
X172721429Y-53752194D01*
X172721429Y-53752194D02*
X172721429Y-53966480D01*
X172721429Y-53966480D02*
X172678572Y-54137908D01*
X172678572Y-54137908D02*
X172635715Y-54223622D01*
X172635715Y-54223622D02*
X172592857Y-54266480D01*
X172592857Y-54266480D02*
X172507143Y-54309337D01*
X172507143Y-54309337D02*
X172421429Y-54309337D01*
X172421429Y-54309337D02*
X172335715Y-54266480D01*
X172335715Y-54266480D02*
X172292857Y-54223622D01*
X172292857Y-54223622D02*
X172250000Y-54137908D01*
X172250000Y-54137908D02*
X172207143Y-53966480D01*
X172207143Y-53966480D02*
X172207143Y-53752194D01*
X172207143Y-53752194D02*
X172250000Y-53580765D01*
X172250000Y-53580765D02*
X172292857Y-53495051D01*
X172292857Y-53495051D02*
X172335715Y-53452194D01*
X172335715Y-53452194D02*
X172421429Y-53409337D01*
X174092857Y-53837908D02*
X174221429Y-53880765D01*
X174221429Y-53880765D02*
X174264286Y-53923622D01*
X174264286Y-53923622D02*
X174307143Y-54009337D01*
X174307143Y-54009337D02*
X174307143Y-54137908D01*
X174307143Y-54137908D02*
X174264286Y-54223622D01*
X174264286Y-54223622D02*
X174221429Y-54266480D01*
X174221429Y-54266480D02*
X174135714Y-54309337D01*
X174135714Y-54309337D02*
X173792857Y-54309337D01*
X173792857Y-54309337D02*
X173792857Y-53409337D01*
X173792857Y-53409337D02*
X174092857Y-53409337D01*
X174092857Y-53409337D02*
X174178572Y-53452194D01*
X174178572Y-53452194D02*
X174221429Y-53495051D01*
X174221429Y-53495051D02*
X174264286Y-53580765D01*
X174264286Y-53580765D02*
X174264286Y-53666480D01*
X174264286Y-53666480D02*
X174221429Y-53752194D01*
X174221429Y-53752194D02*
X174178572Y-53795051D01*
X174178572Y-53795051D02*
X174092857Y-53837908D01*
X174092857Y-53837908D02*
X173792857Y-53837908D01*
X174692857Y-54309337D02*
X174692857Y-53409337D01*
X174692857Y-53409337D02*
X175207143Y-54309337D01*
X175207143Y-54309337D02*
X175207143Y-53409337D01*
X175807143Y-53409337D02*
X175978571Y-53409337D01*
X175978571Y-53409337D02*
X176064286Y-53452194D01*
X176064286Y-53452194D02*
X176150000Y-53537908D01*
X176150000Y-53537908D02*
X176192857Y-53709337D01*
X176192857Y-53709337D02*
X176192857Y-54009337D01*
X176192857Y-54009337D02*
X176150000Y-54180765D01*
X176150000Y-54180765D02*
X176064286Y-54266480D01*
X176064286Y-54266480D02*
X175978571Y-54309337D01*
X175978571Y-54309337D02*
X175807143Y-54309337D01*
X175807143Y-54309337D02*
X175721429Y-54266480D01*
X175721429Y-54266480D02*
X175635714Y-54180765D01*
X175635714Y-54180765D02*
X175592857Y-54009337D01*
X175592857Y-54009337D02*
X175592857Y-53709337D01*
X175592857Y-53709337D02*
X175635714Y-53537908D01*
X175635714Y-53537908D02*
X175721429Y-53452194D01*
X175721429Y-53452194D02*
X175807143Y-53409337D01*
X176750000Y-53409337D02*
X176835714Y-53409337D01*
X176835714Y-53409337D02*
X176921428Y-53452194D01*
X176921428Y-53452194D02*
X176964286Y-53495051D01*
X176964286Y-53495051D02*
X177007143Y-53580765D01*
X177007143Y-53580765D02*
X177050000Y-53752194D01*
X177050000Y-53752194D02*
X177050000Y-53966480D01*
X177050000Y-53966480D02*
X177007143Y-54137908D01*
X177007143Y-54137908D02*
X176964286Y-54223622D01*
X176964286Y-54223622D02*
X176921428Y-54266480D01*
X176921428Y-54266480D02*
X176835714Y-54309337D01*
X176835714Y-54309337D02*
X176750000Y-54309337D01*
X176750000Y-54309337D02*
X176664286Y-54266480D01*
X176664286Y-54266480D02*
X176621428Y-54223622D01*
X176621428Y-54223622D02*
X176578571Y-54137908D01*
X176578571Y-54137908D02*
X176535714Y-53966480D01*
X176535714Y-53966480D02*
X176535714Y-53752194D01*
X176535714Y-53752194D02*
X176578571Y-53580765D01*
X176578571Y-53580765D02*
X176621428Y-53495051D01*
X176621428Y-53495051D02*
X176664286Y-53452194D01*
X176664286Y-53452194D02*
X176750000Y-53409337D01*
X177564286Y-53795051D02*
X177478571Y-53752194D01*
X177478571Y-53752194D02*
X177435714Y-53709337D01*
X177435714Y-53709337D02*
X177392857Y-53623622D01*
X177392857Y-53623622D02*
X177392857Y-53580765D01*
X177392857Y-53580765D02*
X177435714Y-53495051D01*
X177435714Y-53495051D02*
X177478571Y-53452194D01*
X177478571Y-53452194D02*
X177564286Y-53409337D01*
X177564286Y-53409337D02*
X177735714Y-53409337D01*
X177735714Y-53409337D02*
X177821429Y-53452194D01*
X177821429Y-53452194D02*
X177864286Y-53495051D01*
X177864286Y-53495051D02*
X177907143Y-53580765D01*
X177907143Y-53580765D02*
X177907143Y-53623622D01*
X177907143Y-53623622D02*
X177864286Y-53709337D01*
X177864286Y-53709337D02*
X177821429Y-53752194D01*
X177821429Y-53752194D02*
X177735714Y-53795051D01*
X177735714Y-53795051D02*
X177564286Y-53795051D01*
X177564286Y-53795051D02*
X177478571Y-53837908D01*
X177478571Y-53837908D02*
X177435714Y-53880765D01*
X177435714Y-53880765D02*
X177392857Y-53966480D01*
X177392857Y-53966480D02*
X177392857Y-54137908D01*
X177392857Y-54137908D02*
X177435714Y-54223622D01*
X177435714Y-54223622D02*
X177478571Y-54266480D01*
X177478571Y-54266480D02*
X177564286Y-54309337D01*
X177564286Y-54309337D02*
X177735714Y-54309337D01*
X177735714Y-54309337D02*
X177821429Y-54266480D01*
X177821429Y-54266480D02*
X177864286Y-54223622D01*
X177864286Y-54223622D02*
X177907143Y-54137908D01*
X177907143Y-54137908D02*
X177907143Y-53966480D01*
X177907143Y-53966480D02*
X177864286Y-53880765D01*
X177864286Y-53880765D02*
X177821429Y-53837908D01*
X177821429Y-53837908D02*
X177735714Y-53795051D01*
X178721429Y-53409337D02*
X178292857Y-53409337D01*
X178292857Y-53409337D02*
X178250000Y-53837908D01*
X178250000Y-53837908D02*
X178292857Y-53795051D01*
X178292857Y-53795051D02*
X178378572Y-53752194D01*
X178378572Y-53752194D02*
X178592857Y-53752194D01*
X178592857Y-53752194D02*
X178678572Y-53795051D01*
X178678572Y-53795051D02*
X178721429Y-53837908D01*
X178721429Y-53837908D02*
X178764286Y-53923622D01*
X178764286Y-53923622D02*
X178764286Y-54137908D01*
X178764286Y-54137908D02*
X178721429Y-54223622D01*
X178721429Y-54223622D02*
X178678572Y-54266480D01*
X178678572Y-54266480D02*
X178592857Y-54309337D01*
X178592857Y-54309337D02*
X178378572Y-54309337D01*
X178378572Y-54309337D02*
X178292857Y-54266480D01*
X178292857Y-54266480D02*
X178250000Y-54223622D01*
X180092857Y-54652194D02*
X180050000Y-54609337D01*
X180050000Y-54609337D02*
X179964286Y-54480765D01*
X179964286Y-54480765D02*
X179921429Y-54395051D01*
X179921429Y-54395051D02*
X179878571Y-54266480D01*
X179878571Y-54266480D02*
X179835714Y-54052194D01*
X179835714Y-54052194D02*
X179835714Y-53880765D01*
X179835714Y-53880765D02*
X179878571Y-53666480D01*
X179878571Y-53666480D02*
X179921429Y-53537908D01*
X179921429Y-53537908D02*
X179964286Y-53452194D01*
X179964286Y-53452194D02*
X180050000Y-53323622D01*
X180050000Y-53323622D02*
X180092857Y-53280765D01*
X180435714Y-54309337D02*
X180435714Y-53409337D01*
X180821428Y-53495051D02*
X180864285Y-53452194D01*
X180864285Y-53452194D02*
X180950000Y-53409337D01*
X180950000Y-53409337D02*
X181164285Y-53409337D01*
X181164285Y-53409337D02*
X181250000Y-53452194D01*
X181250000Y-53452194D02*
X181292857Y-53495051D01*
X181292857Y-53495051D02*
X181335714Y-53580765D01*
X181335714Y-53580765D02*
X181335714Y-53666480D01*
X181335714Y-53666480D02*
X181292857Y-53795051D01*
X181292857Y-53795051D02*
X180778571Y-54309337D01*
X180778571Y-54309337D02*
X181335714Y-54309337D01*
X182235714Y-54223622D02*
X182192857Y-54266480D01*
X182192857Y-54266480D02*
X182064285Y-54309337D01*
X182064285Y-54309337D02*
X181978571Y-54309337D01*
X181978571Y-54309337D02*
X181850000Y-54266480D01*
X181850000Y-54266480D02*
X181764285Y-54180765D01*
X181764285Y-54180765D02*
X181721428Y-54095051D01*
X181721428Y-54095051D02*
X181678571Y-53923622D01*
X181678571Y-53923622D02*
X181678571Y-53795051D01*
X181678571Y-53795051D02*
X181721428Y-53623622D01*
X181721428Y-53623622D02*
X181764285Y-53537908D01*
X181764285Y-53537908D02*
X181850000Y-53452194D01*
X181850000Y-53452194D02*
X181978571Y-53409337D01*
X181978571Y-53409337D02*
X182064285Y-53409337D01*
X182064285Y-53409337D02*
X182192857Y-53452194D01*
X182192857Y-53452194D02*
X182235714Y-53495051D01*
X182535714Y-54652194D02*
X182578571Y-54609337D01*
X182578571Y-54609337D02*
X182664285Y-54480765D01*
X182664285Y-54480765D02*
X182707143Y-54395051D01*
X182707143Y-54395051D02*
X182750000Y-54266480D01*
X182750000Y-54266480D02*
X182792857Y-54052194D01*
X182792857Y-54052194D02*
X182792857Y-53880765D01*
X182792857Y-53880765D02*
X182750000Y-53666480D01*
X182750000Y-53666480D02*
X182707143Y-53537908D01*
X182707143Y-53537908D02*
X182664285Y-53452194D01*
X182664285Y-53452194D02*
X182578571Y-53323622D01*
X182578571Y-53323622D02*
X182535714Y-53280765D01*
D10*
X172273809Y-61701950D02*
X172197619Y-61663855D01*
X172197619Y-61663855D02*
X172083333Y-61663855D01*
X172083333Y-61663855D02*
X171969047Y-61701950D01*
X171969047Y-61701950D02*
X171892857Y-61778140D01*
X171892857Y-61778140D02*
X171854762Y-61854331D01*
X171854762Y-61854331D02*
X171816666Y-62006712D01*
X171816666Y-62006712D02*
X171816666Y-62120998D01*
X171816666Y-62120998D02*
X171854762Y-62273379D01*
X171854762Y-62273379D02*
X171892857Y-62349569D01*
X171892857Y-62349569D02*
X171969047Y-62425760D01*
X171969047Y-62425760D02*
X172083333Y-62463855D01*
X172083333Y-62463855D02*
X172159524Y-62463855D01*
X172159524Y-62463855D02*
X172273809Y-62425760D01*
X172273809Y-62425760D02*
X172311905Y-62387664D01*
X172311905Y-62387664D02*
X172311905Y-62120998D01*
X172311905Y-62120998D02*
X172159524Y-62120998D01*
X172654762Y-62463855D02*
X172654762Y-61663855D01*
X172654762Y-61663855D02*
X173111905Y-62463855D01*
X173111905Y-62463855D02*
X173111905Y-61663855D01*
X173492857Y-62463855D02*
X173492857Y-61663855D01*
X173492857Y-61663855D02*
X173683333Y-61663855D01*
X173683333Y-61663855D02*
X173797619Y-61701950D01*
X173797619Y-61701950D02*
X173873809Y-61778140D01*
X173873809Y-61778140D02*
X173911904Y-61854331D01*
X173911904Y-61854331D02*
X173950000Y-62006712D01*
X173950000Y-62006712D02*
X173950000Y-62120998D01*
X173950000Y-62120998D02*
X173911904Y-62273379D01*
X173911904Y-62273379D02*
X173873809Y-62349569D01*
X173873809Y-62349569D02*
X173797619Y-62425760D01*
X173797619Y-62425760D02*
X173683333Y-62463855D01*
X173683333Y-62463855D02*
X173492857Y-62463855D01*
X175283333Y-61663855D02*
X174902381Y-61663855D01*
X174902381Y-61663855D02*
X174864285Y-62044807D01*
X174864285Y-62044807D02*
X174902381Y-62006712D01*
X174902381Y-62006712D02*
X174978571Y-61968617D01*
X174978571Y-61968617D02*
X175169047Y-61968617D01*
X175169047Y-61968617D02*
X175245238Y-62006712D01*
X175245238Y-62006712D02*
X175283333Y-62044807D01*
X175283333Y-62044807D02*
X175321428Y-62120998D01*
X175321428Y-62120998D02*
X175321428Y-62311474D01*
X175321428Y-62311474D02*
X175283333Y-62387664D01*
X175283333Y-62387664D02*
X175245238Y-62425760D01*
X175245238Y-62425760D02*
X175169047Y-62463855D01*
X175169047Y-62463855D02*
X174978571Y-62463855D01*
X174978571Y-62463855D02*
X174902381Y-62425760D01*
X174902381Y-62425760D02*
X174864285Y-62387664D01*
X175550000Y-61663855D02*
X175816667Y-62463855D01*
X175816667Y-62463855D02*
X176083333Y-61663855D01*
X176921428Y-62425760D02*
X177035714Y-62463855D01*
X177035714Y-62463855D02*
X177226190Y-62463855D01*
X177226190Y-62463855D02*
X177302381Y-62425760D01*
X177302381Y-62425760D02*
X177340476Y-62387664D01*
X177340476Y-62387664D02*
X177378571Y-62311474D01*
X177378571Y-62311474D02*
X177378571Y-62235283D01*
X177378571Y-62235283D02*
X177340476Y-62159093D01*
X177340476Y-62159093D02*
X177302381Y-62120998D01*
X177302381Y-62120998D02*
X177226190Y-62082902D01*
X177226190Y-62082902D02*
X177073809Y-62044807D01*
X177073809Y-62044807D02*
X176997619Y-62006712D01*
X176997619Y-62006712D02*
X176959524Y-61968617D01*
X176959524Y-61968617D02*
X176921428Y-61892426D01*
X176921428Y-61892426D02*
X176921428Y-61816236D01*
X176921428Y-61816236D02*
X176959524Y-61740045D01*
X176959524Y-61740045D02*
X176997619Y-61701950D01*
X176997619Y-61701950D02*
X177073809Y-61663855D01*
X177073809Y-61663855D02*
X177264286Y-61663855D01*
X177264286Y-61663855D02*
X177378571Y-61701950D01*
X177721429Y-62463855D02*
X177721429Y-61663855D01*
X177721429Y-61663855D02*
X177911905Y-61663855D01*
X177911905Y-61663855D02*
X178026191Y-61701950D01*
X178026191Y-61701950D02*
X178102381Y-61778140D01*
X178102381Y-61778140D02*
X178140476Y-61854331D01*
X178140476Y-61854331D02*
X178178572Y-62006712D01*
X178178572Y-62006712D02*
X178178572Y-62120998D01*
X178178572Y-62120998D02*
X178140476Y-62273379D01*
X178140476Y-62273379D02*
X178102381Y-62349569D01*
X178102381Y-62349569D02*
X178026191Y-62425760D01*
X178026191Y-62425760D02*
X177911905Y-62463855D01*
X177911905Y-62463855D02*
X177721429Y-62463855D01*
X178483333Y-62235283D02*
X178864286Y-62235283D01*
X178407143Y-62463855D02*
X178673810Y-61663855D01*
X178673810Y-61663855D02*
X178940476Y-62463855D01*
X179778571Y-62425760D02*
X179892857Y-62463855D01*
X179892857Y-62463855D02*
X180083333Y-62463855D01*
X180083333Y-62463855D02*
X180159524Y-62425760D01*
X180159524Y-62425760D02*
X180197619Y-62387664D01*
X180197619Y-62387664D02*
X180235714Y-62311474D01*
X180235714Y-62311474D02*
X180235714Y-62235283D01*
X180235714Y-62235283D02*
X180197619Y-62159093D01*
X180197619Y-62159093D02*
X180159524Y-62120998D01*
X180159524Y-62120998D02*
X180083333Y-62082902D01*
X180083333Y-62082902D02*
X179930952Y-62044807D01*
X179930952Y-62044807D02*
X179854762Y-62006712D01*
X179854762Y-62006712D02*
X179816667Y-61968617D01*
X179816667Y-61968617D02*
X179778571Y-61892426D01*
X179778571Y-61892426D02*
X179778571Y-61816236D01*
X179778571Y-61816236D02*
X179816667Y-61740045D01*
X179816667Y-61740045D02*
X179854762Y-61701950D01*
X179854762Y-61701950D02*
X179930952Y-61663855D01*
X179930952Y-61663855D02*
X180121429Y-61663855D01*
X180121429Y-61663855D02*
X180235714Y-61701950D01*
X181035715Y-62387664D02*
X180997619Y-62425760D01*
X180997619Y-62425760D02*
X180883334Y-62463855D01*
X180883334Y-62463855D02*
X180807143Y-62463855D01*
X180807143Y-62463855D02*
X180692857Y-62425760D01*
X180692857Y-62425760D02*
X180616667Y-62349569D01*
X180616667Y-62349569D02*
X180578572Y-62273379D01*
X180578572Y-62273379D02*
X180540476Y-62120998D01*
X180540476Y-62120998D02*
X180540476Y-62006712D01*
X180540476Y-62006712D02*
X180578572Y-61854331D01*
X180578572Y-61854331D02*
X180616667Y-61778140D01*
X180616667Y-61778140D02*
X180692857Y-61701950D01*
X180692857Y-61701950D02*
X180807143Y-61663855D01*
X180807143Y-61663855D02*
X180883334Y-61663855D01*
X180883334Y-61663855D02*
X180997619Y-61701950D01*
X180997619Y-61701950D02*
X181035715Y-61740045D01*
X181759524Y-62463855D02*
X181378572Y-62463855D01*
X181378572Y-62463855D02*
X181378572Y-61663855D01*
D11*
X118085713Y-53952194D02*
X118514285Y-53952194D01*
X117999999Y-54209337D02*
X118299999Y-53309337D01*
X118299999Y-53309337D02*
X118599999Y-54209337D01*
X118899999Y-54209337D02*
X118899999Y-53609337D01*
X118899999Y-53780765D02*
X118942856Y-53695051D01*
X118942856Y-53695051D02*
X118985714Y-53652194D01*
X118985714Y-53652194D02*
X119071428Y-53609337D01*
X119071428Y-53609337D02*
X119157142Y-53609337D01*
X119842857Y-54209337D02*
X119842857Y-53309337D01*
X119842857Y-54166480D02*
X119757142Y-54209337D01*
X119757142Y-54209337D02*
X119585714Y-54209337D01*
X119585714Y-54209337D02*
X119499999Y-54166480D01*
X119499999Y-54166480D02*
X119457142Y-54123622D01*
X119457142Y-54123622D02*
X119414285Y-54037908D01*
X119414285Y-54037908D02*
X119414285Y-53780765D01*
X119414285Y-53780765D02*
X119457142Y-53695051D01*
X119457142Y-53695051D02*
X119499999Y-53652194D01*
X119499999Y-53652194D02*
X119585714Y-53609337D01*
X119585714Y-53609337D02*
X119757142Y-53609337D01*
X119757142Y-53609337D02*
X119842857Y-53652194D01*
X120657143Y-53609337D02*
X120657143Y-54209337D01*
X120271428Y-53609337D02*
X120271428Y-54080765D01*
X120271428Y-54080765D02*
X120314285Y-54166480D01*
X120314285Y-54166480D02*
X120400000Y-54209337D01*
X120400000Y-54209337D02*
X120528571Y-54209337D01*
X120528571Y-54209337D02*
X120614285Y-54166480D01*
X120614285Y-54166480D02*
X120657143Y-54123622D01*
X121085714Y-54209337D02*
X121085714Y-53609337D01*
X121085714Y-53309337D02*
X121042857Y-53352194D01*
X121042857Y-53352194D02*
X121085714Y-53395051D01*
X121085714Y-53395051D02*
X121128571Y-53352194D01*
X121128571Y-53352194D02*
X121085714Y-53309337D01*
X121085714Y-53309337D02*
X121085714Y-53395051D01*
X121514285Y-53609337D02*
X121514285Y-54209337D01*
X121514285Y-53695051D02*
X121557142Y-53652194D01*
X121557142Y-53652194D02*
X121642857Y-53609337D01*
X121642857Y-53609337D02*
X121771428Y-53609337D01*
X121771428Y-53609337D02*
X121857142Y-53652194D01*
X121857142Y-53652194D02*
X121900000Y-53737908D01*
X121900000Y-53737908D02*
X121900000Y-54209337D01*
X122457143Y-54209337D02*
X122371428Y-54166480D01*
X122371428Y-54166480D02*
X122328571Y-54123622D01*
X122328571Y-54123622D02*
X122285714Y-54037908D01*
X122285714Y-54037908D02*
X122285714Y-53780765D01*
X122285714Y-53780765D02*
X122328571Y-53695051D01*
X122328571Y-53695051D02*
X122371428Y-53652194D01*
X122371428Y-53652194D02*
X122457143Y-53609337D01*
X122457143Y-53609337D02*
X122585714Y-53609337D01*
X122585714Y-53609337D02*
X122671428Y-53652194D01*
X122671428Y-53652194D02*
X122714286Y-53695051D01*
X122714286Y-53695051D02*
X122757143Y-53780765D01*
X122757143Y-53780765D02*
X122757143Y-54037908D01*
X122757143Y-54037908D02*
X122714286Y-54123622D01*
X122714286Y-54123622D02*
X122671428Y-54166480D01*
X122671428Y-54166480D02*
X122585714Y-54209337D01*
X122585714Y-54209337D02*
X122457143Y-54209337D01*
X123828571Y-54209337D02*
X123828571Y-53309337D01*
X123828571Y-53309337D02*
X124128571Y-53952194D01*
X124128571Y-53952194D02*
X124428571Y-53309337D01*
X124428571Y-53309337D02*
X124428571Y-54209337D01*
X125199999Y-54166480D02*
X125114285Y-54209337D01*
X125114285Y-54209337D02*
X124942857Y-54209337D01*
X124942857Y-54209337D02*
X124857142Y-54166480D01*
X124857142Y-54166480D02*
X124814285Y-54080765D01*
X124814285Y-54080765D02*
X124814285Y-53737908D01*
X124814285Y-53737908D02*
X124857142Y-53652194D01*
X124857142Y-53652194D02*
X124942857Y-53609337D01*
X124942857Y-53609337D02*
X125114285Y-53609337D01*
X125114285Y-53609337D02*
X125199999Y-53652194D01*
X125199999Y-53652194D02*
X125242857Y-53737908D01*
X125242857Y-53737908D02*
X125242857Y-53823622D01*
X125242857Y-53823622D02*
X124814285Y-53909337D01*
X126014286Y-53609337D02*
X126014286Y-54337908D01*
X126014286Y-54337908D02*
X125971428Y-54423622D01*
X125971428Y-54423622D02*
X125928571Y-54466480D01*
X125928571Y-54466480D02*
X125842857Y-54509337D01*
X125842857Y-54509337D02*
X125714286Y-54509337D01*
X125714286Y-54509337D02*
X125628571Y-54466480D01*
X126014286Y-54166480D02*
X125928571Y-54209337D01*
X125928571Y-54209337D02*
X125757143Y-54209337D01*
X125757143Y-54209337D02*
X125671428Y-54166480D01*
X125671428Y-54166480D02*
X125628571Y-54123622D01*
X125628571Y-54123622D02*
X125585714Y-54037908D01*
X125585714Y-54037908D02*
X125585714Y-53780765D01*
X125585714Y-53780765D02*
X125628571Y-53695051D01*
X125628571Y-53695051D02*
X125671428Y-53652194D01*
X125671428Y-53652194D02*
X125757143Y-53609337D01*
X125757143Y-53609337D02*
X125928571Y-53609337D01*
X125928571Y-53609337D02*
X126014286Y-53652194D01*
X126828572Y-54209337D02*
X126828572Y-53737908D01*
X126828572Y-53737908D02*
X126785714Y-53652194D01*
X126785714Y-53652194D02*
X126700000Y-53609337D01*
X126700000Y-53609337D02*
X126528572Y-53609337D01*
X126528572Y-53609337D02*
X126442857Y-53652194D01*
X126828572Y-54166480D02*
X126742857Y-54209337D01*
X126742857Y-54209337D02*
X126528572Y-54209337D01*
X126528572Y-54209337D02*
X126442857Y-54166480D01*
X126442857Y-54166480D02*
X126400000Y-54080765D01*
X126400000Y-54080765D02*
X126400000Y-53995051D01*
X126400000Y-53995051D02*
X126442857Y-53909337D01*
X126442857Y-53909337D02*
X126528572Y-53866480D01*
X126528572Y-53866480D02*
X126742857Y-53866480D01*
X126742857Y-53866480D02*
X126828572Y-53823622D01*
X127942857Y-53609337D02*
X127942857Y-54209337D01*
X127942857Y-53695051D02*
X127985714Y-53652194D01*
X127985714Y-53652194D02*
X128071429Y-53609337D01*
X128071429Y-53609337D02*
X128200000Y-53609337D01*
X128200000Y-53609337D02*
X128285714Y-53652194D01*
X128285714Y-53652194D02*
X128328572Y-53737908D01*
X128328572Y-53737908D02*
X128328572Y-54209337D01*
X128885715Y-53309337D02*
X128800000Y-53352194D01*
X128800000Y-53352194D02*
X128757143Y-53437908D01*
X128757143Y-53437908D02*
X128800000Y-53523622D01*
X128800000Y-53523622D02*
X128885715Y-53566480D01*
X128885715Y-53566480D02*
X128971429Y-53523622D01*
X128971429Y-53523622D02*
X129014286Y-53437908D01*
X129014286Y-53437908D02*
X128971429Y-53352194D01*
X128971429Y-53352194D02*
X128885715Y-53309337D01*
X129400000Y-53395051D02*
X129442857Y-53352194D01*
X129442857Y-53352194D02*
X129528572Y-53309337D01*
X129528572Y-53309337D02*
X129742857Y-53309337D01*
X129742857Y-53309337D02*
X129828572Y-53352194D01*
X129828572Y-53352194D02*
X129871429Y-53395051D01*
X129871429Y-53395051D02*
X129914286Y-53480765D01*
X129914286Y-53480765D02*
X129914286Y-53566480D01*
X129914286Y-53566480D02*
X129871429Y-53695051D01*
X129871429Y-53695051D02*
X129357143Y-54209337D01*
X129357143Y-54209337D02*
X129914286Y-54209337D01*
X120828571Y-54909337D02*
X120828571Y-55552194D01*
X120828571Y-55552194D02*
X120785714Y-55680765D01*
X120785714Y-55680765D02*
X120700000Y-55766480D01*
X120700000Y-55766480D02*
X120571428Y-55809337D01*
X120571428Y-55809337D02*
X120485714Y-55809337D01*
X121728571Y-55809337D02*
X121214285Y-55809337D01*
X121471428Y-55809337D02*
X121471428Y-54909337D01*
X121471428Y-54909337D02*
X121385714Y-55037908D01*
X121385714Y-55037908D02*
X121299999Y-55123622D01*
X121299999Y-55123622D02*
X121214285Y-55166480D01*
X122285714Y-54909337D02*
X122371428Y-54909337D01*
X122371428Y-54909337D02*
X122457142Y-54952194D01*
X122457142Y-54952194D02*
X122500000Y-54995051D01*
X122500000Y-54995051D02*
X122542857Y-55080765D01*
X122542857Y-55080765D02*
X122585714Y-55252194D01*
X122585714Y-55252194D02*
X122585714Y-55466480D01*
X122585714Y-55466480D02*
X122542857Y-55637908D01*
X122542857Y-55637908D02*
X122500000Y-55723622D01*
X122500000Y-55723622D02*
X122457142Y-55766480D01*
X122457142Y-55766480D02*
X122371428Y-55809337D01*
X122371428Y-55809337D02*
X122285714Y-55809337D01*
X122285714Y-55809337D02*
X122200000Y-55766480D01*
X122200000Y-55766480D02*
X122157142Y-55723622D01*
X122157142Y-55723622D02*
X122114285Y-55637908D01*
X122114285Y-55637908D02*
X122071428Y-55466480D01*
X122071428Y-55466480D02*
X122071428Y-55252194D01*
X122071428Y-55252194D02*
X122114285Y-55080765D01*
X122114285Y-55080765D02*
X122157142Y-54995051D01*
X122157142Y-54995051D02*
X122200000Y-54952194D01*
X122200000Y-54952194D02*
X122285714Y-54909337D01*
X123657142Y-55809337D02*
X123657142Y-54909337D01*
X123657142Y-55337908D02*
X124171428Y-55337908D01*
X124171428Y-55809337D02*
X124171428Y-54909337D01*
X124514285Y-54909337D02*
X125114285Y-55809337D01*
X125114285Y-54909337D02*
X124514285Y-55809337D01*
X125628571Y-54909337D02*
X125714285Y-54909337D01*
X125714285Y-54909337D02*
X125799999Y-54952194D01*
X125799999Y-54952194D02*
X125842857Y-54995051D01*
X125842857Y-54995051D02*
X125885714Y-55080765D01*
X125885714Y-55080765D02*
X125928571Y-55252194D01*
X125928571Y-55252194D02*
X125928571Y-55466480D01*
X125928571Y-55466480D02*
X125885714Y-55637908D01*
X125885714Y-55637908D02*
X125842857Y-55723622D01*
X125842857Y-55723622D02*
X125799999Y-55766480D01*
X125799999Y-55766480D02*
X125714285Y-55809337D01*
X125714285Y-55809337D02*
X125628571Y-55809337D01*
X125628571Y-55809337D02*
X125542857Y-55766480D01*
X125542857Y-55766480D02*
X125499999Y-55723622D01*
X125499999Y-55723622D02*
X125457142Y-55637908D01*
X125457142Y-55637908D02*
X125414285Y-55466480D01*
X125414285Y-55466480D02*
X125414285Y-55252194D01*
X125414285Y-55252194D02*
X125457142Y-55080765D01*
X125457142Y-55080765D02*
X125499999Y-54995051D01*
X125499999Y-54995051D02*
X125542857Y-54952194D01*
X125542857Y-54952194D02*
X125628571Y-54909337D01*
X127471428Y-54952194D02*
X127385714Y-54909337D01*
X127385714Y-54909337D02*
X127257142Y-54909337D01*
X127257142Y-54909337D02*
X127128571Y-54952194D01*
X127128571Y-54952194D02*
X127042856Y-55037908D01*
X127042856Y-55037908D02*
X126999999Y-55123622D01*
X126999999Y-55123622D02*
X126957142Y-55295051D01*
X126957142Y-55295051D02*
X126957142Y-55423622D01*
X126957142Y-55423622D02*
X126999999Y-55595051D01*
X126999999Y-55595051D02*
X127042856Y-55680765D01*
X127042856Y-55680765D02*
X127128571Y-55766480D01*
X127128571Y-55766480D02*
X127257142Y-55809337D01*
X127257142Y-55809337D02*
X127342856Y-55809337D01*
X127342856Y-55809337D02*
X127471428Y-55766480D01*
X127471428Y-55766480D02*
X127514285Y-55723622D01*
X127514285Y-55723622D02*
X127514285Y-55423622D01*
X127514285Y-55423622D02*
X127342856Y-55423622D01*
X128971428Y-55809337D02*
X128971428Y-55337908D01*
X128971428Y-55337908D02*
X128928570Y-55252194D01*
X128928570Y-55252194D02*
X128842856Y-55209337D01*
X128842856Y-55209337D02*
X128671428Y-55209337D01*
X128671428Y-55209337D02*
X128585713Y-55252194D01*
X128971428Y-55766480D02*
X128885713Y-55809337D01*
X128885713Y-55809337D02*
X128671428Y-55809337D01*
X128671428Y-55809337D02*
X128585713Y-55766480D01*
X128585713Y-55766480D02*
X128542856Y-55680765D01*
X128542856Y-55680765D02*
X128542856Y-55595051D01*
X128542856Y-55595051D02*
X128585713Y-55509337D01*
X128585713Y-55509337D02*
X128671428Y-55466480D01*
X128671428Y-55466480D02*
X128885713Y-55466480D01*
X128885713Y-55466480D02*
X128971428Y-55423622D01*
X129314285Y-55209337D02*
X129528571Y-55809337D01*
X129528571Y-55809337D02*
X129742856Y-55209337D01*
X130471428Y-55809337D02*
X130471428Y-55337908D01*
X130471428Y-55337908D02*
X130428570Y-55252194D01*
X130428570Y-55252194D02*
X130342856Y-55209337D01*
X130342856Y-55209337D02*
X130171428Y-55209337D01*
X130171428Y-55209337D02*
X130085713Y-55252194D01*
X130471428Y-55766480D02*
X130385713Y-55809337D01*
X130385713Y-55809337D02*
X130171428Y-55809337D01*
X130171428Y-55809337D02*
X130085713Y-55766480D01*
X130085713Y-55766480D02*
X130042856Y-55680765D01*
X130042856Y-55680765D02*
X130042856Y-55595051D01*
X130042856Y-55595051D02*
X130085713Y-55509337D01*
X130085713Y-55509337D02*
X130171428Y-55466480D01*
X130171428Y-55466480D02*
X130385713Y-55466480D01*
X130385713Y-55466480D02*
X130471428Y-55423622D01*
X130899999Y-55209337D02*
X130899999Y-55809337D01*
X130899999Y-55295051D02*
X130942856Y-55252194D01*
X130942856Y-55252194D02*
X131028571Y-55209337D01*
X131028571Y-55209337D02*
X131157142Y-55209337D01*
X131157142Y-55209337D02*
X131242856Y-55252194D01*
X131242856Y-55252194D02*
X131285714Y-55337908D01*
X131285714Y-55337908D02*
X131285714Y-55809337D01*
X131585714Y-55209337D02*
X131928571Y-55209337D01*
X131714285Y-54909337D02*
X131714285Y-55680765D01*
X131714285Y-55680765D02*
X131757142Y-55766480D01*
X131757142Y-55766480D02*
X131842857Y-55809337D01*
X131842857Y-55809337D02*
X131928571Y-55809337D01*
X132228571Y-55466480D02*
X132914286Y-55466480D01*
X133685714Y-55766480D02*
X133600000Y-55809337D01*
X133600000Y-55809337D02*
X133428572Y-55809337D01*
X133428572Y-55809337D02*
X133342857Y-55766480D01*
X133342857Y-55766480D02*
X133300000Y-55680765D01*
X133300000Y-55680765D02*
X133300000Y-55337908D01*
X133300000Y-55337908D02*
X133342857Y-55252194D01*
X133342857Y-55252194D02*
X133428572Y-55209337D01*
X133428572Y-55209337D02*
X133600000Y-55209337D01*
X133600000Y-55209337D02*
X133685714Y-55252194D01*
X133685714Y-55252194D02*
X133728572Y-55337908D01*
X133728572Y-55337908D02*
X133728572Y-55423622D01*
X133728572Y-55423622D02*
X133300000Y-55509337D01*
X134028572Y-55809337D02*
X134500001Y-55209337D01*
X134028572Y-55209337D02*
X134500001Y-55809337D01*
X134714286Y-55209337D02*
X135057143Y-55209337D01*
X134842857Y-54909337D02*
X134842857Y-55680765D01*
X134842857Y-55680765D02*
X134885714Y-55766480D01*
X134885714Y-55766480D02*
X134971429Y-55809337D01*
X134971429Y-55809337D02*
X135057143Y-55809337D01*
D10*
X141616666Y-63201950D02*
X141540476Y-63163855D01*
X141540476Y-63163855D02*
X141426190Y-63163855D01*
X141426190Y-63163855D02*
X141311904Y-63201950D01*
X141311904Y-63201950D02*
X141235714Y-63278140D01*
X141235714Y-63278140D02*
X141197619Y-63354331D01*
X141197619Y-63354331D02*
X141159523Y-63506712D01*
X141159523Y-63506712D02*
X141159523Y-63620998D01*
X141159523Y-63620998D02*
X141197619Y-63773379D01*
X141197619Y-63773379D02*
X141235714Y-63849569D01*
X141235714Y-63849569D02*
X141311904Y-63925760D01*
X141311904Y-63925760D02*
X141426190Y-63963855D01*
X141426190Y-63963855D02*
X141502381Y-63963855D01*
X141502381Y-63963855D02*
X141616666Y-63925760D01*
X141616666Y-63925760D02*
X141654762Y-63887664D01*
X141654762Y-63887664D02*
X141654762Y-63620998D01*
X141654762Y-63620998D02*
X141502381Y-63620998D01*
X141997619Y-63963855D02*
X141997619Y-63163855D01*
X141997619Y-63163855D02*
X142454762Y-63963855D01*
X142454762Y-63963855D02*
X142454762Y-63163855D01*
X142835714Y-63963855D02*
X142835714Y-63163855D01*
X142835714Y-63163855D02*
X143026190Y-63163855D01*
X143026190Y-63163855D02*
X143140476Y-63201950D01*
X143140476Y-63201950D02*
X143216666Y-63278140D01*
X143216666Y-63278140D02*
X143254761Y-63354331D01*
X143254761Y-63354331D02*
X143292857Y-63506712D01*
X143292857Y-63506712D02*
X143292857Y-63620998D01*
X143292857Y-63620998D02*
X143254761Y-63773379D01*
X143254761Y-63773379D02*
X143216666Y-63849569D01*
X143216666Y-63849569D02*
X143140476Y-63925760D01*
X143140476Y-63925760D02*
X143026190Y-63963855D01*
X143026190Y-63963855D02*
X142835714Y-63963855D01*
X144245238Y-63963855D02*
X144245238Y-63163855D01*
X144245238Y-63163855D02*
X144435714Y-63163855D01*
X144435714Y-63163855D02*
X144550000Y-63201950D01*
X144550000Y-63201950D02*
X144626190Y-63278140D01*
X144626190Y-63278140D02*
X144664285Y-63354331D01*
X144664285Y-63354331D02*
X144702381Y-63506712D01*
X144702381Y-63506712D02*
X144702381Y-63620998D01*
X144702381Y-63620998D02*
X144664285Y-63773379D01*
X144664285Y-63773379D02*
X144626190Y-63849569D01*
X144626190Y-63849569D02*
X144550000Y-63925760D01*
X144550000Y-63925760D02*
X144435714Y-63963855D01*
X144435714Y-63963855D02*
X144245238Y-63963855D01*
X144930952Y-63163855D02*
X145388095Y-63163855D01*
X145159523Y-63963855D02*
X145159523Y-63163855D01*
X146226190Y-63925760D02*
X146340476Y-63963855D01*
X146340476Y-63963855D02*
X146530952Y-63963855D01*
X146530952Y-63963855D02*
X146607143Y-63925760D01*
X146607143Y-63925760D02*
X146645238Y-63887664D01*
X146645238Y-63887664D02*
X146683333Y-63811474D01*
X146683333Y-63811474D02*
X146683333Y-63735283D01*
X146683333Y-63735283D02*
X146645238Y-63659093D01*
X146645238Y-63659093D02*
X146607143Y-63620998D01*
X146607143Y-63620998D02*
X146530952Y-63582902D01*
X146530952Y-63582902D02*
X146378571Y-63544807D01*
X146378571Y-63544807D02*
X146302381Y-63506712D01*
X146302381Y-63506712D02*
X146264286Y-63468617D01*
X146264286Y-63468617D02*
X146226190Y-63392426D01*
X146226190Y-63392426D02*
X146226190Y-63316236D01*
X146226190Y-63316236D02*
X146264286Y-63240045D01*
X146264286Y-63240045D02*
X146302381Y-63201950D01*
X146302381Y-63201950D02*
X146378571Y-63163855D01*
X146378571Y-63163855D02*
X146569048Y-63163855D01*
X146569048Y-63163855D02*
X146683333Y-63201950D01*
X147483334Y-63887664D02*
X147445238Y-63925760D01*
X147445238Y-63925760D02*
X147330953Y-63963855D01*
X147330953Y-63963855D02*
X147254762Y-63963855D01*
X147254762Y-63963855D02*
X147140476Y-63925760D01*
X147140476Y-63925760D02*
X147064286Y-63849569D01*
X147064286Y-63849569D02*
X147026191Y-63773379D01*
X147026191Y-63773379D02*
X146988095Y-63620998D01*
X146988095Y-63620998D02*
X146988095Y-63506712D01*
X146988095Y-63506712D02*
X147026191Y-63354331D01*
X147026191Y-63354331D02*
X147064286Y-63278140D01*
X147064286Y-63278140D02*
X147140476Y-63201950D01*
X147140476Y-63201950D02*
X147254762Y-63163855D01*
X147254762Y-63163855D02*
X147330953Y-63163855D01*
X147330953Y-63163855D02*
X147445238Y-63201950D01*
X147445238Y-63201950D02*
X147483334Y-63240045D01*
X147826191Y-63963855D02*
X147826191Y-63163855D01*
X148283334Y-63963855D02*
X147940476Y-63506712D01*
X148283334Y-63163855D02*
X147826191Y-63620998D01*
X149616667Y-63163855D02*
X149235715Y-63163855D01*
X149235715Y-63163855D02*
X149197619Y-63544807D01*
X149197619Y-63544807D02*
X149235715Y-63506712D01*
X149235715Y-63506712D02*
X149311905Y-63468617D01*
X149311905Y-63468617D02*
X149502381Y-63468617D01*
X149502381Y-63468617D02*
X149578572Y-63506712D01*
X149578572Y-63506712D02*
X149616667Y-63544807D01*
X149616667Y-63544807D02*
X149654762Y-63620998D01*
X149654762Y-63620998D02*
X149654762Y-63811474D01*
X149654762Y-63811474D02*
X149616667Y-63887664D01*
X149616667Y-63887664D02*
X149578572Y-63925760D01*
X149578572Y-63925760D02*
X149502381Y-63963855D01*
X149502381Y-63963855D02*
X149311905Y-63963855D01*
X149311905Y-63963855D02*
X149235715Y-63925760D01*
X149235715Y-63925760D02*
X149197619Y-63887664D01*
X149883334Y-63163855D02*
X150150001Y-63963855D01*
X150150001Y-63963855D02*
X150416667Y-63163855D01*
D11*
X120549999Y-83409337D02*
X120549999Y-84052194D01*
X120549999Y-84052194D02*
X120507142Y-84180765D01*
X120507142Y-84180765D02*
X120421428Y-84266480D01*
X120421428Y-84266480D02*
X120292856Y-84309337D01*
X120292856Y-84309337D02*
X120207142Y-84309337D01*
X121449999Y-84309337D02*
X120935713Y-84309337D01*
X121192856Y-84309337D02*
X121192856Y-83409337D01*
X121192856Y-83409337D02*
X121107142Y-83537908D01*
X121107142Y-83537908D02*
X121021427Y-83623622D01*
X121021427Y-83623622D02*
X120935713Y-83666480D01*
X121749999Y-83409337D02*
X122307142Y-83409337D01*
X122307142Y-83409337D02*
X122007142Y-83752194D01*
X122007142Y-83752194D02*
X122135713Y-83752194D01*
X122135713Y-83752194D02*
X122221428Y-83795051D01*
X122221428Y-83795051D02*
X122264285Y-83837908D01*
X122264285Y-83837908D02*
X122307142Y-83923622D01*
X122307142Y-83923622D02*
X122307142Y-84137908D01*
X122307142Y-84137908D02*
X122264285Y-84223622D01*
X122264285Y-84223622D02*
X122221428Y-84266480D01*
X122221428Y-84266480D02*
X122135713Y-84309337D01*
X122135713Y-84309337D02*
X121878570Y-84309337D01*
X121878570Y-84309337D02*
X121792856Y-84266480D01*
X121792856Y-84266480D02*
X121749999Y-84223622D01*
X123378570Y-84309337D02*
X123378570Y-83409337D01*
X123378570Y-83837908D02*
X123892856Y-83837908D01*
X123892856Y-84309337D02*
X123892856Y-83409337D01*
X124235713Y-83409337D02*
X124835713Y-84309337D01*
X124835713Y-83409337D02*
X124235713Y-84309337D01*
X125092856Y-83409337D02*
X125649999Y-83409337D01*
X125649999Y-83409337D02*
X125349999Y-83752194D01*
X125349999Y-83752194D02*
X125478570Y-83752194D01*
X125478570Y-83752194D02*
X125564285Y-83795051D01*
X125564285Y-83795051D02*
X125607142Y-83837908D01*
X125607142Y-83837908D02*
X125649999Y-83923622D01*
X125649999Y-83923622D02*
X125649999Y-84137908D01*
X125649999Y-84137908D02*
X125607142Y-84223622D01*
X125607142Y-84223622D02*
X125564285Y-84266480D01*
X125564285Y-84266480D02*
X125478570Y-84309337D01*
X125478570Y-84309337D02*
X125221427Y-84309337D01*
X125221427Y-84309337D02*
X125135713Y-84266480D01*
X125135713Y-84266480D02*
X125092856Y-84223622D01*
X127192856Y-83452194D02*
X127107142Y-83409337D01*
X127107142Y-83409337D02*
X126978570Y-83409337D01*
X126978570Y-83409337D02*
X126849999Y-83452194D01*
X126849999Y-83452194D02*
X126764284Y-83537908D01*
X126764284Y-83537908D02*
X126721427Y-83623622D01*
X126721427Y-83623622D02*
X126678570Y-83795051D01*
X126678570Y-83795051D02*
X126678570Y-83923622D01*
X126678570Y-83923622D02*
X126721427Y-84095051D01*
X126721427Y-84095051D02*
X126764284Y-84180765D01*
X126764284Y-84180765D02*
X126849999Y-84266480D01*
X126849999Y-84266480D02*
X126978570Y-84309337D01*
X126978570Y-84309337D02*
X127064284Y-84309337D01*
X127064284Y-84309337D02*
X127192856Y-84266480D01*
X127192856Y-84266480D02*
X127235713Y-84223622D01*
X127235713Y-84223622D02*
X127235713Y-83923622D01*
X127235713Y-83923622D02*
X127064284Y-83923622D01*
X128692856Y-84309337D02*
X128692856Y-83837908D01*
X128692856Y-83837908D02*
X128649998Y-83752194D01*
X128649998Y-83752194D02*
X128564284Y-83709337D01*
X128564284Y-83709337D02*
X128392856Y-83709337D01*
X128392856Y-83709337D02*
X128307141Y-83752194D01*
X128692856Y-84266480D02*
X128607141Y-84309337D01*
X128607141Y-84309337D02*
X128392856Y-84309337D01*
X128392856Y-84309337D02*
X128307141Y-84266480D01*
X128307141Y-84266480D02*
X128264284Y-84180765D01*
X128264284Y-84180765D02*
X128264284Y-84095051D01*
X128264284Y-84095051D02*
X128307141Y-84009337D01*
X128307141Y-84009337D02*
X128392856Y-83966480D01*
X128392856Y-83966480D02*
X128607141Y-83966480D01*
X128607141Y-83966480D02*
X128692856Y-83923622D01*
X129121427Y-84309337D02*
X129121427Y-83709337D01*
X129121427Y-83880765D02*
X129164284Y-83795051D01*
X129164284Y-83795051D02*
X129207142Y-83752194D01*
X129207142Y-83752194D02*
X129292856Y-83709337D01*
X129292856Y-83709337D02*
X129378570Y-83709337D01*
X129678570Y-84309337D02*
X129678570Y-83709337D01*
X129678570Y-83880765D02*
X129721427Y-83795051D01*
X129721427Y-83795051D02*
X129764285Y-83752194D01*
X129764285Y-83752194D02*
X129849999Y-83709337D01*
X129849999Y-83709337D02*
X129935713Y-83709337D01*
X130235713Y-84309337D02*
X130235713Y-83709337D01*
X130235713Y-83409337D02*
X130192856Y-83452194D01*
X130192856Y-83452194D02*
X130235713Y-83495051D01*
X130235713Y-83495051D02*
X130278570Y-83452194D01*
X130278570Y-83452194D02*
X130235713Y-83409337D01*
X130235713Y-83409337D02*
X130235713Y-83495051D01*
X131007141Y-84266480D02*
X130921427Y-84309337D01*
X130921427Y-84309337D02*
X130749999Y-84309337D01*
X130749999Y-84309337D02*
X130664284Y-84266480D01*
X130664284Y-84266480D02*
X130621427Y-84180765D01*
X130621427Y-84180765D02*
X130621427Y-83837908D01*
X130621427Y-83837908D02*
X130664284Y-83752194D01*
X130664284Y-83752194D02*
X130749999Y-83709337D01*
X130749999Y-83709337D02*
X130921427Y-83709337D01*
X130921427Y-83709337D02*
X131007141Y-83752194D01*
X131007141Y-83752194D02*
X131049999Y-83837908D01*
X131049999Y-83837908D02*
X131049999Y-83923622D01*
X131049999Y-83923622D02*
X130621427Y-84009337D01*
X130749999Y-83366480D02*
X130878570Y-83495051D01*
X131435713Y-84309337D02*
X131435713Y-83709337D01*
X131435713Y-83880765D02*
X131478570Y-83795051D01*
X131478570Y-83795051D02*
X131521428Y-83752194D01*
X131521428Y-83752194D02*
X131607142Y-83709337D01*
X131607142Y-83709337D02*
X131692856Y-83709337D01*
X132335713Y-84266480D02*
X132249999Y-84309337D01*
X132249999Y-84309337D02*
X132078571Y-84309337D01*
X132078571Y-84309337D02*
X131992856Y-84266480D01*
X131992856Y-84266480D02*
X131949999Y-84180765D01*
X131949999Y-84180765D02*
X131949999Y-83837908D01*
X131949999Y-83837908D02*
X131992856Y-83752194D01*
X131992856Y-83752194D02*
X132078571Y-83709337D01*
X132078571Y-83709337D02*
X132249999Y-83709337D01*
X132249999Y-83709337D02*
X132335713Y-83752194D01*
X132335713Y-83752194D02*
X132378571Y-83837908D01*
X132378571Y-83837908D02*
X132378571Y-83923622D01*
X132378571Y-83923622D02*
X131949999Y-84009337D01*
X132764285Y-83966480D02*
X133450000Y-83966480D01*
X133878571Y-84309337D02*
X133878571Y-83709337D01*
X133878571Y-83409337D02*
X133835714Y-83452194D01*
X133835714Y-83452194D02*
X133878571Y-83495051D01*
X133878571Y-83495051D02*
X133921428Y-83452194D01*
X133921428Y-83452194D02*
X133878571Y-83409337D01*
X133878571Y-83409337D02*
X133878571Y-83495051D01*
X134307142Y-83709337D02*
X134307142Y-84309337D01*
X134307142Y-83795051D02*
X134349999Y-83752194D01*
X134349999Y-83752194D02*
X134435714Y-83709337D01*
X134435714Y-83709337D02*
X134564285Y-83709337D01*
X134564285Y-83709337D02*
X134649999Y-83752194D01*
X134649999Y-83752194D02*
X134692857Y-83837908D01*
X134692857Y-83837908D02*
X134692857Y-84309337D01*
X134992857Y-83709337D02*
X135335714Y-83709337D01*
X135121428Y-83409337D02*
X135121428Y-84180765D01*
X135121428Y-84180765D02*
X135164285Y-84266480D01*
X135164285Y-84266480D02*
X135250000Y-84309337D01*
X135250000Y-84309337D02*
X135335714Y-84309337D01*
D10*
X123616666Y-72701950D02*
X123540476Y-72663855D01*
X123540476Y-72663855D02*
X123426190Y-72663855D01*
X123426190Y-72663855D02*
X123311904Y-72701950D01*
X123311904Y-72701950D02*
X123235714Y-72778140D01*
X123235714Y-72778140D02*
X123197619Y-72854331D01*
X123197619Y-72854331D02*
X123159523Y-73006712D01*
X123159523Y-73006712D02*
X123159523Y-73120998D01*
X123159523Y-73120998D02*
X123197619Y-73273379D01*
X123197619Y-73273379D02*
X123235714Y-73349569D01*
X123235714Y-73349569D02*
X123311904Y-73425760D01*
X123311904Y-73425760D02*
X123426190Y-73463855D01*
X123426190Y-73463855D02*
X123502381Y-73463855D01*
X123502381Y-73463855D02*
X123616666Y-73425760D01*
X123616666Y-73425760D02*
X123654762Y-73387664D01*
X123654762Y-73387664D02*
X123654762Y-73120998D01*
X123654762Y-73120998D02*
X123502381Y-73120998D01*
X123997619Y-73463855D02*
X123997619Y-72663855D01*
X123997619Y-72663855D02*
X124454762Y-73463855D01*
X124454762Y-73463855D02*
X124454762Y-72663855D01*
X124835714Y-73463855D02*
X124835714Y-72663855D01*
X124835714Y-72663855D02*
X125026190Y-72663855D01*
X125026190Y-72663855D02*
X125140476Y-72701950D01*
X125140476Y-72701950D02*
X125216666Y-72778140D01*
X125216666Y-72778140D02*
X125254761Y-72854331D01*
X125254761Y-72854331D02*
X125292857Y-73006712D01*
X125292857Y-73006712D02*
X125292857Y-73120998D01*
X125292857Y-73120998D02*
X125254761Y-73273379D01*
X125254761Y-73273379D02*
X125216666Y-73349569D01*
X125216666Y-73349569D02*
X125140476Y-73425760D01*
X125140476Y-73425760D02*
X125026190Y-73463855D01*
X125026190Y-73463855D02*
X124835714Y-73463855D01*
X126245238Y-73463855D02*
X126245238Y-72663855D01*
X126245238Y-72663855D02*
X126435714Y-72663855D01*
X126435714Y-72663855D02*
X126550000Y-72701950D01*
X126550000Y-72701950D02*
X126626190Y-72778140D01*
X126626190Y-72778140D02*
X126664285Y-72854331D01*
X126664285Y-72854331D02*
X126702381Y-73006712D01*
X126702381Y-73006712D02*
X126702381Y-73120998D01*
X126702381Y-73120998D02*
X126664285Y-73273379D01*
X126664285Y-73273379D02*
X126626190Y-73349569D01*
X126626190Y-73349569D02*
X126550000Y-73425760D01*
X126550000Y-73425760D02*
X126435714Y-73463855D01*
X126435714Y-73463855D02*
X126245238Y-73463855D01*
X126930952Y-72663855D02*
X127388095Y-72663855D01*
X127159523Y-73463855D02*
X127159523Y-72663855D01*
X128226190Y-73425760D02*
X128340476Y-73463855D01*
X128340476Y-73463855D02*
X128530952Y-73463855D01*
X128530952Y-73463855D02*
X128607143Y-73425760D01*
X128607143Y-73425760D02*
X128645238Y-73387664D01*
X128645238Y-73387664D02*
X128683333Y-73311474D01*
X128683333Y-73311474D02*
X128683333Y-73235283D01*
X128683333Y-73235283D02*
X128645238Y-73159093D01*
X128645238Y-73159093D02*
X128607143Y-73120998D01*
X128607143Y-73120998D02*
X128530952Y-73082902D01*
X128530952Y-73082902D02*
X128378571Y-73044807D01*
X128378571Y-73044807D02*
X128302381Y-73006712D01*
X128302381Y-73006712D02*
X128264286Y-72968617D01*
X128264286Y-72968617D02*
X128226190Y-72892426D01*
X128226190Y-72892426D02*
X128226190Y-72816236D01*
X128226190Y-72816236D02*
X128264286Y-72740045D01*
X128264286Y-72740045D02*
X128302381Y-72701950D01*
X128302381Y-72701950D02*
X128378571Y-72663855D01*
X128378571Y-72663855D02*
X128569048Y-72663855D01*
X128569048Y-72663855D02*
X128683333Y-72701950D01*
X129483334Y-73387664D02*
X129445238Y-73425760D01*
X129445238Y-73425760D02*
X129330953Y-73463855D01*
X129330953Y-73463855D02*
X129254762Y-73463855D01*
X129254762Y-73463855D02*
X129140476Y-73425760D01*
X129140476Y-73425760D02*
X129064286Y-73349569D01*
X129064286Y-73349569D02*
X129026191Y-73273379D01*
X129026191Y-73273379D02*
X128988095Y-73120998D01*
X128988095Y-73120998D02*
X128988095Y-73006712D01*
X128988095Y-73006712D02*
X129026191Y-72854331D01*
X129026191Y-72854331D02*
X129064286Y-72778140D01*
X129064286Y-72778140D02*
X129140476Y-72701950D01*
X129140476Y-72701950D02*
X129254762Y-72663855D01*
X129254762Y-72663855D02*
X129330953Y-72663855D01*
X129330953Y-72663855D02*
X129445238Y-72701950D01*
X129445238Y-72701950D02*
X129483334Y-72740045D01*
X129826191Y-73463855D02*
X129826191Y-72663855D01*
X130283334Y-73463855D02*
X129940476Y-73006712D01*
X130283334Y-72663855D02*
X129826191Y-73120998D01*
X131616667Y-72663855D02*
X131235715Y-72663855D01*
X131235715Y-72663855D02*
X131197619Y-73044807D01*
X131197619Y-73044807D02*
X131235715Y-73006712D01*
X131235715Y-73006712D02*
X131311905Y-72968617D01*
X131311905Y-72968617D02*
X131502381Y-72968617D01*
X131502381Y-72968617D02*
X131578572Y-73006712D01*
X131578572Y-73006712D02*
X131616667Y-73044807D01*
X131616667Y-73044807D02*
X131654762Y-73120998D01*
X131654762Y-73120998D02*
X131654762Y-73311474D01*
X131654762Y-73311474D02*
X131616667Y-73387664D01*
X131616667Y-73387664D02*
X131578572Y-73425760D01*
X131578572Y-73425760D02*
X131502381Y-73463855D01*
X131502381Y-73463855D02*
X131311905Y-73463855D01*
X131311905Y-73463855D02*
X131235715Y-73425760D01*
X131235715Y-73425760D02*
X131197619Y-73387664D01*
X131883334Y-72663855D02*
X132150001Y-73463855D01*
X132150001Y-73463855D02*
X132416667Y-72663855D01*
D11*
X138828571Y-54909337D02*
X138828571Y-55552194D01*
X138828571Y-55552194D02*
X138785714Y-55680765D01*
X138785714Y-55680765D02*
X138700000Y-55766480D01*
X138700000Y-55766480D02*
X138571428Y-55809337D01*
X138571428Y-55809337D02*
X138485714Y-55809337D01*
X139728571Y-55809337D02*
X139214285Y-55809337D01*
X139471428Y-55809337D02*
X139471428Y-54909337D01*
X139471428Y-54909337D02*
X139385714Y-55037908D01*
X139385714Y-55037908D02*
X139299999Y-55123622D01*
X139299999Y-55123622D02*
X139214285Y-55166480D01*
X140500000Y-55209337D02*
X140500000Y-55809337D01*
X140285714Y-54866480D02*
X140071428Y-55509337D01*
X140071428Y-55509337D02*
X140628571Y-55509337D01*
X141657142Y-55809337D02*
X141657142Y-54909337D01*
X141657142Y-55337908D02*
X142171428Y-55337908D01*
X142171428Y-55809337D02*
X142171428Y-54909337D01*
X142514285Y-54909337D02*
X143114285Y-55809337D01*
X143114285Y-54909337D02*
X142514285Y-55809337D01*
X143842857Y-55209337D02*
X143842857Y-55809337D01*
X143628571Y-54866480D02*
X143414285Y-55509337D01*
X143414285Y-55509337D02*
X143971428Y-55509337D01*
X144999999Y-55809337D02*
X144999999Y-54909337D01*
X144999999Y-54909337D02*
X145214285Y-54909337D01*
X145214285Y-54909337D02*
X145342856Y-54952194D01*
X145342856Y-54952194D02*
X145428571Y-55037908D01*
X145428571Y-55037908D02*
X145471428Y-55123622D01*
X145471428Y-55123622D02*
X145514285Y-55295051D01*
X145514285Y-55295051D02*
X145514285Y-55423622D01*
X145514285Y-55423622D02*
X145471428Y-55595051D01*
X145471428Y-55595051D02*
X145428571Y-55680765D01*
X145428571Y-55680765D02*
X145342856Y-55766480D01*
X145342856Y-55766480D02*
X145214285Y-55809337D01*
X145214285Y-55809337D02*
X144999999Y-55809337D01*
X146971428Y-55809337D02*
X146971428Y-55337908D01*
X146971428Y-55337908D02*
X146928570Y-55252194D01*
X146928570Y-55252194D02*
X146842856Y-55209337D01*
X146842856Y-55209337D02*
X146671428Y-55209337D01*
X146671428Y-55209337D02*
X146585713Y-55252194D01*
X146971428Y-55766480D02*
X146885713Y-55809337D01*
X146885713Y-55809337D02*
X146671428Y-55809337D01*
X146671428Y-55809337D02*
X146585713Y-55766480D01*
X146585713Y-55766480D02*
X146542856Y-55680765D01*
X146542856Y-55680765D02*
X146542856Y-55595051D01*
X146542856Y-55595051D02*
X146585713Y-55509337D01*
X146585713Y-55509337D02*
X146671428Y-55466480D01*
X146671428Y-55466480D02*
X146885713Y-55466480D01*
X146885713Y-55466480D02*
X146971428Y-55423622D01*
X147314285Y-55209337D02*
X147528571Y-55809337D01*
X147528571Y-55809337D02*
X147742856Y-55209337D01*
X148471428Y-55809337D02*
X148471428Y-55337908D01*
X148471428Y-55337908D02*
X148428570Y-55252194D01*
X148428570Y-55252194D02*
X148342856Y-55209337D01*
X148342856Y-55209337D02*
X148171428Y-55209337D01*
X148171428Y-55209337D02*
X148085713Y-55252194D01*
X148471428Y-55766480D02*
X148385713Y-55809337D01*
X148385713Y-55809337D02*
X148171428Y-55809337D01*
X148171428Y-55809337D02*
X148085713Y-55766480D01*
X148085713Y-55766480D02*
X148042856Y-55680765D01*
X148042856Y-55680765D02*
X148042856Y-55595051D01*
X148042856Y-55595051D02*
X148085713Y-55509337D01*
X148085713Y-55509337D02*
X148171428Y-55466480D01*
X148171428Y-55466480D02*
X148385713Y-55466480D01*
X148385713Y-55466480D02*
X148471428Y-55423622D01*
X148899999Y-55209337D02*
X148899999Y-55809337D01*
X148899999Y-55295051D02*
X148942856Y-55252194D01*
X148942856Y-55252194D02*
X149028571Y-55209337D01*
X149028571Y-55209337D02*
X149157142Y-55209337D01*
X149157142Y-55209337D02*
X149242856Y-55252194D01*
X149242856Y-55252194D02*
X149285714Y-55337908D01*
X149285714Y-55337908D02*
X149285714Y-55809337D01*
X149585714Y-55209337D02*
X149928571Y-55209337D01*
X149714285Y-54909337D02*
X149714285Y-55680765D01*
X149714285Y-55680765D02*
X149757142Y-55766480D01*
X149757142Y-55766480D02*
X149842857Y-55809337D01*
X149842857Y-55809337D02*
X149928571Y-55809337D01*
X150228571Y-55466480D02*
X150914286Y-55466480D01*
X151685714Y-55766480D02*
X151600000Y-55809337D01*
X151600000Y-55809337D02*
X151428572Y-55809337D01*
X151428572Y-55809337D02*
X151342857Y-55766480D01*
X151342857Y-55766480D02*
X151300000Y-55680765D01*
X151300000Y-55680765D02*
X151300000Y-55337908D01*
X151300000Y-55337908D02*
X151342857Y-55252194D01*
X151342857Y-55252194D02*
X151428572Y-55209337D01*
X151428572Y-55209337D02*
X151600000Y-55209337D01*
X151600000Y-55209337D02*
X151685714Y-55252194D01*
X151685714Y-55252194D02*
X151728572Y-55337908D01*
X151728572Y-55337908D02*
X151728572Y-55423622D01*
X151728572Y-55423622D02*
X151300000Y-55509337D01*
X152028572Y-55809337D02*
X152500001Y-55209337D01*
X152028572Y-55209337D02*
X152500001Y-55809337D01*
X152714286Y-55209337D02*
X153057143Y-55209337D01*
X152842857Y-54909337D02*
X152842857Y-55680765D01*
X152842857Y-55680765D02*
X152885714Y-55766480D01*
X152885714Y-55766480D02*
X152971429Y-55809337D01*
X152971429Y-55809337D02*
X153057143Y-55809337D01*
X138957142Y-64409337D02*
X138957142Y-65052194D01*
X138957142Y-65052194D02*
X138914285Y-65180765D01*
X138914285Y-65180765D02*
X138828571Y-65266480D01*
X138828571Y-65266480D02*
X138699999Y-65309337D01*
X138699999Y-65309337D02*
X138614285Y-65309337D01*
X139857142Y-65309337D02*
X139342856Y-65309337D01*
X139599999Y-65309337D02*
X139599999Y-64409337D01*
X139599999Y-64409337D02*
X139514285Y-64537908D01*
X139514285Y-64537908D02*
X139428570Y-64623622D01*
X139428570Y-64623622D02*
X139342856Y-64666480D01*
X140671428Y-64409337D02*
X140242856Y-64409337D01*
X140242856Y-64409337D02*
X140199999Y-64837908D01*
X140199999Y-64837908D02*
X140242856Y-64795051D01*
X140242856Y-64795051D02*
X140328571Y-64752194D01*
X140328571Y-64752194D02*
X140542856Y-64752194D01*
X140542856Y-64752194D02*
X140628571Y-64795051D01*
X140628571Y-64795051D02*
X140671428Y-64837908D01*
X140671428Y-64837908D02*
X140714285Y-64923622D01*
X140714285Y-64923622D02*
X140714285Y-65137908D01*
X140714285Y-65137908D02*
X140671428Y-65223622D01*
X140671428Y-65223622D02*
X140628571Y-65266480D01*
X140628571Y-65266480D02*
X140542856Y-65309337D01*
X140542856Y-65309337D02*
X140328571Y-65309337D01*
X140328571Y-65309337D02*
X140242856Y-65266480D01*
X140242856Y-65266480D02*
X140199999Y-65223622D01*
X141785713Y-65309337D02*
X141785713Y-64409337D01*
X141785713Y-64837908D02*
X142299999Y-64837908D01*
X142299999Y-65309337D02*
X142299999Y-64409337D01*
X142642856Y-64409337D02*
X143242856Y-65309337D01*
X143242856Y-64409337D02*
X142642856Y-65309337D01*
X144014285Y-64409337D02*
X143585713Y-64409337D01*
X143585713Y-64409337D02*
X143542856Y-64837908D01*
X143542856Y-64837908D02*
X143585713Y-64795051D01*
X143585713Y-64795051D02*
X143671428Y-64752194D01*
X143671428Y-64752194D02*
X143885713Y-64752194D01*
X143885713Y-64752194D02*
X143971428Y-64795051D01*
X143971428Y-64795051D02*
X144014285Y-64837908D01*
X144014285Y-64837908D02*
X144057142Y-64923622D01*
X144057142Y-64923622D02*
X144057142Y-65137908D01*
X144057142Y-65137908D02*
X144014285Y-65223622D01*
X144014285Y-65223622D02*
X143971428Y-65266480D01*
X143971428Y-65266480D02*
X143885713Y-65309337D01*
X143885713Y-65309337D02*
X143671428Y-65309337D01*
X143671428Y-65309337D02*
X143585713Y-65266480D01*
X143585713Y-65266480D02*
X143542856Y-65223622D01*
X145128570Y-65309337D02*
X145128570Y-64409337D01*
X145128570Y-64409337D02*
X145342856Y-64409337D01*
X145342856Y-64409337D02*
X145471427Y-64452194D01*
X145471427Y-64452194D02*
X145557142Y-64537908D01*
X145557142Y-64537908D02*
X145599999Y-64623622D01*
X145599999Y-64623622D02*
X145642856Y-64795051D01*
X145642856Y-64795051D02*
X145642856Y-64923622D01*
X145642856Y-64923622D02*
X145599999Y-65095051D01*
X145599999Y-65095051D02*
X145557142Y-65180765D01*
X145557142Y-65180765D02*
X145471427Y-65266480D01*
X145471427Y-65266480D02*
X145342856Y-65309337D01*
X145342856Y-65309337D02*
X145128570Y-65309337D01*
X147099999Y-65309337D02*
X147099999Y-64837908D01*
X147099999Y-64837908D02*
X147057141Y-64752194D01*
X147057141Y-64752194D02*
X146971427Y-64709337D01*
X146971427Y-64709337D02*
X146799999Y-64709337D01*
X146799999Y-64709337D02*
X146714284Y-64752194D01*
X147099999Y-65266480D02*
X147014284Y-65309337D01*
X147014284Y-65309337D02*
X146799999Y-65309337D01*
X146799999Y-65309337D02*
X146714284Y-65266480D01*
X146714284Y-65266480D02*
X146671427Y-65180765D01*
X146671427Y-65180765D02*
X146671427Y-65095051D01*
X146671427Y-65095051D02*
X146714284Y-65009337D01*
X146714284Y-65009337D02*
X146799999Y-64966480D01*
X146799999Y-64966480D02*
X147014284Y-64966480D01*
X147014284Y-64966480D02*
X147099999Y-64923622D01*
X147442856Y-64709337D02*
X147657142Y-65309337D01*
X147657142Y-65309337D02*
X147871427Y-64709337D01*
X148599999Y-65309337D02*
X148599999Y-64837908D01*
X148599999Y-64837908D02*
X148557141Y-64752194D01*
X148557141Y-64752194D02*
X148471427Y-64709337D01*
X148471427Y-64709337D02*
X148299999Y-64709337D01*
X148299999Y-64709337D02*
X148214284Y-64752194D01*
X148599999Y-65266480D02*
X148514284Y-65309337D01*
X148514284Y-65309337D02*
X148299999Y-65309337D01*
X148299999Y-65309337D02*
X148214284Y-65266480D01*
X148214284Y-65266480D02*
X148171427Y-65180765D01*
X148171427Y-65180765D02*
X148171427Y-65095051D01*
X148171427Y-65095051D02*
X148214284Y-65009337D01*
X148214284Y-65009337D02*
X148299999Y-64966480D01*
X148299999Y-64966480D02*
X148514284Y-64966480D01*
X148514284Y-64966480D02*
X148599999Y-64923622D01*
X149028570Y-64709337D02*
X149028570Y-65309337D01*
X149028570Y-64795051D02*
X149071427Y-64752194D01*
X149071427Y-64752194D02*
X149157142Y-64709337D01*
X149157142Y-64709337D02*
X149285713Y-64709337D01*
X149285713Y-64709337D02*
X149371427Y-64752194D01*
X149371427Y-64752194D02*
X149414285Y-64837908D01*
X149414285Y-64837908D02*
X149414285Y-65309337D01*
X149714285Y-64709337D02*
X150057142Y-64709337D01*
X149842856Y-64409337D02*
X149842856Y-65180765D01*
X149842856Y-65180765D02*
X149885713Y-65266480D01*
X149885713Y-65266480D02*
X149971428Y-65309337D01*
X149971428Y-65309337D02*
X150057142Y-65309337D01*
X150357142Y-64966480D02*
X151042857Y-64966480D01*
X151471428Y-65309337D02*
X151471428Y-64709337D01*
X151471428Y-64409337D02*
X151428571Y-64452194D01*
X151428571Y-64452194D02*
X151471428Y-64495051D01*
X151471428Y-64495051D02*
X151514285Y-64452194D01*
X151514285Y-64452194D02*
X151471428Y-64409337D01*
X151471428Y-64409337D02*
X151471428Y-64495051D01*
X151899999Y-64709337D02*
X151899999Y-65309337D01*
X151899999Y-64795051D02*
X151942856Y-64752194D01*
X151942856Y-64752194D02*
X152028571Y-64709337D01*
X152028571Y-64709337D02*
X152157142Y-64709337D01*
X152157142Y-64709337D02*
X152242856Y-64752194D01*
X152242856Y-64752194D02*
X152285714Y-64837908D01*
X152285714Y-64837908D02*
X152285714Y-65309337D01*
X152585714Y-64709337D02*
X152928571Y-64709337D01*
X152714285Y-64409337D02*
X152714285Y-65180765D01*
X152714285Y-65180765D02*
X152757142Y-65266480D01*
X152757142Y-65266480D02*
X152842857Y-65309337D01*
X152842857Y-65309337D02*
X152928571Y-65309337D01*
D12*
X112057142Y-52545782D02*
X112057142Y-51345782D01*
X112628571Y-51745782D02*
X112628571Y-52545782D01*
X112628571Y-51860068D02*
X112685714Y-51802925D01*
X112685714Y-51802925D02*
X112799999Y-51745782D01*
X112799999Y-51745782D02*
X112971428Y-51745782D01*
X112971428Y-51745782D02*
X113085714Y-51802925D01*
X113085714Y-51802925D02*
X113142857Y-51917211D01*
X113142857Y-51917211D02*
X113142857Y-52545782D01*
X113714285Y-52545782D02*
X113714285Y-51345782D01*
X113714285Y-51345782D02*
X114114285Y-52202925D01*
X114114285Y-52202925D02*
X114514285Y-51345782D01*
X114514285Y-51345782D02*
X114514285Y-52545782D01*
X115257142Y-52545782D02*
X115142857Y-52488640D01*
X115142857Y-52488640D02*
X115085714Y-52431497D01*
X115085714Y-52431497D02*
X115028571Y-52317211D01*
X115028571Y-52317211D02*
X115028571Y-51974354D01*
X115028571Y-51974354D02*
X115085714Y-51860068D01*
X115085714Y-51860068D02*
X115142857Y-51802925D01*
X115142857Y-51802925D02*
X115257142Y-51745782D01*
X115257142Y-51745782D02*
X115428571Y-51745782D01*
X115428571Y-51745782D02*
X115542857Y-51802925D01*
X115542857Y-51802925D02*
X115600000Y-51860068D01*
X115600000Y-51860068D02*
X115657142Y-51974354D01*
X115657142Y-51974354D02*
X115657142Y-52317211D01*
X115657142Y-52317211D02*
X115600000Y-52431497D01*
X115600000Y-52431497D02*
X115542857Y-52488640D01*
X115542857Y-52488640D02*
X115428571Y-52545782D01*
X115428571Y-52545782D02*
X115257142Y-52545782D01*
X116342856Y-52545782D02*
X116228571Y-52488640D01*
X116228571Y-52488640D02*
X116171428Y-52431497D01*
X116171428Y-52431497D02*
X116114285Y-52317211D01*
X116114285Y-52317211D02*
X116114285Y-51974354D01*
X116114285Y-51974354D02*
X116171428Y-51860068D01*
X116171428Y-51860068D02*
X116228571Y-51802925D01*
X116228571Y-51802925D02*
X116342856Y-51745782D01*
X116342856Y-51745782D02*
X116514285Y-51745782D01*
X116514285Y-51745782D02*
X116628571Y-51802925D01*
X116628571Y-51802925D02*
X116685714Y-51860068D01*
X116685714Y-51860068D02*
X116742856Y-51974354D01*
X116742856Y-51974354D02*
X116742856Y-52317211D01*
X116742856Y-52317211D02*
X116685714Y-52431497D01*
X116685714Y-52431497D02*
X116628571Y-52488640D01*
X116628571Y-52488640D02*
X116514285Y-52545782D01*
X116514285Y-52545782D02*
X116342856Y-52545782D01*
X117142856Y-51745782D02*
X117428570Y-52545782D01*
X117428570Y-52545782D02*
X117714285Y-51745782D01*
X119257142Y-52031497D02*
X119200000Y-52088640D01*
X119200000Y-52088640D02*
X119257142Y-52145782D01*
X119257142Y-52145782D02*
X119314285Y-52088640D01*
X119314285Y-52088640D02*
X119257142Y-52031497D01*
X119257142Y-52031497D02*
X119257142Y-52145782D01*
X120857143Y-52488640D02*
X120971429Y-52545782D01*
X120971429Y-52545782D02*
X121200000Y-52545782D01*
X121200000Y-52545782D02*
X121314286Y-52488640D01*
X121314286Y-52488640D02*
X121371429Y-52374354D01*
X121371429Y-52374354D02*
X121371429Y-52317211D01*
X121371429Y-52317211D02*
X121314286Y-52202925D01*
X121314286Y-52202925D02*
X121200000Y-52145782D01*
X121200000Y-52145782D02*
X121028572Y-52145782D01*
X121028572Y-52145782D02*
X120914286Y-52088640D01*
X120914286Y-52088640D02*
X120857143Y-51974354D01*
X120857143Y-51974354D02*
X120857143Y-51917211D01*
X120857143Y-51917211D02*
X120914286Y-51802925D01*
X120914286Y-51802925D02*
X121028572Y-51745782D01*
X121028572Y-51745782D02*
X121200000Y-51745782D01*
X121200000Y-51745782D02*
X121314286Y-51802925D01*
X121885715Y-52545782D02*
X121885715Y-51345782D01*
X122400001Y-52545782D02*
X122400001Y-51917211D01*
X122400001Y-51917211D02*
X122342858Y-51802925D01*
X122342858Y-51802925D02*
X122228572Y-51745782D01*
X122228572Y-51745782D02*
X122057143Y-51745782D01*
X122057143Y-51745782D02*
X121942858Y-51802925D01*
X121942858Y-51802925D02*
X121885715Y-51860068D01*
X122971429Y-52545782D02*
X122971429Y-51745782D01*
X122971429Y-51345782D02*
X122914286Y-51402925D01*
X122914286Y-51402925D02*
X122971429Y-51460068D01*
X122971429Y-51460068D02*
X123028572Y-51402925D01*
X123028572Y-51402925D02*
X122971429Y-51345782D01*
X122971429Y-51345782D02*
X122971429Y-51460068D01*
X124000001Y-52488640D02*
X123885715Y-52545782D01*
X123885715Y-52545782D02*
X123657144Y-52545782D01*
X123657144Y-52545782D02*
X123542858Y-52488640D01*
X123542858Y-52488640D02*
X123485715Y-52374354D01*
X123485715Y-52374354D02*
X123485715Y-51917211D01*
X123485715Y-51917211D02*
X123542858Y-51802925D01*
X123542858Y-51802925D02*
X123657144Y-51745782D01*
X123657144Y-51745782D02*
X123885715Y-51745782D01*
X123885715Y-51745782D02*
X124000001Y-51802925D01*
X124000001Y-51802925D02*
X124057144Y-51917211D01*
X124057144Y-51917211D02*
X124057144Y-52031497D01*
X124057144Y-52031497D02*
X123485715Y-52145782D01*
X124742857Y-52545782D02*
X124628572Y-52488640D01*
X124628572Y-52488640D02*
X124571429Y-52374354D01*
X124571429Y-52374354D02*
X124571429Y-51345782D01*
X125714286Y-52545782D02*
X125714286Y-51345782D01*
X125714286Y-52488640D02*
X125600000Y-52545782D01*
X125600000Y-52545782D02*
X125371428Y-52545782D01*
X125371428Y-52545782D02*
X125257143Y-52488640D01*
X125257143Y-52488640D02*
X125200000Y-52431497D01*
X125200000Y-52431497D02*
X125142857Y-52317211D01*
X125142857Y-52317211D02*
X125142857Y-51974354D01*
X125142857Y-51974354D02*
X125200000Y-51860068D01*
X125200000Y-51860068D02*
X125257143Y-51802925D01*
X125257143Y-51802925D02*
X125371428Y-51745782D01*
X125371428Y-51745782D02*
X125600000Y-51745782D01*
X125600000Y-51745782D02*
X125714286Y-51802925D01*
X127200000Y-51745782D02*
X127200000Y-52774354D01*
X127200000Y-52774354D02*
X127142857Y-52888640D01*
X127142857Y-52888640D02*
X127028571Y-52945782D01*
X127028571Y-52945782D02*
X126971428Y-52945782D01*
X127200000Y-51345782D02*
X127142857Y-51402925D01*
X127142857Y-51402925D02*
X127200000Y-51460068D01*
X127200000Y-51460068D02*
X127257143Y-51402925D01*
X127257143Y-51402925D02*
X127200000Y-51345782D01*
X127200000Y-51345782D02*
X127200000Y-51460068D01*
X128285715Y-52545782D02*
X128285715Y-51917211D01*
X128285715Y-51917211D02*
X128228572Y-51802925D01*
X128228572Y-51802925D02*
X128114286Y-51745782D01*
X128114286Y-51745782D02*
X127885715Y-51745782D01*
X127885715Y-51745782D02*
X127771429Y-51802925D01*
X128285715Y-52488640D02*
X128171429Y-52545782D01*
X128171429Y-52545782D02*
X127885715Y-52545782D01*
X127885715Y-52545782D02*
X127771429Y-52488640D01*
X127771429Y-52488640D02*
X127714286Y-52374354D01*
X127714286Y-52374354D02*
X127714286Y-52260068D01*
X127714286Y-52260068D02*
X127771429Y-52145782D01*
X127771429Y-52145782D02*
X127885715Y-52088640D01*
X127885715Y-52088640D02*
X128171429Y-52088640D01*
X128171429Y-52088640D02*
X128285715Y-52031497D01*
X128857143Y-52545782D02*
X128857143Y-51745782D01*
X128857143Y-51860068D02*
X128914286Y-51802925D01*
X128914286Y-51802925D02*
X129028571Y-51745782D01*
X129028571Y-51745782D02*
X129200000Y-51745782D01*
X129200000Y-51745782D02*
X129314286Y-51802925D01*
X129314286Y-51802925D02*
X129371429Y-51917211D01*
X129371429Y-51917211D02*
X129371429Y-52545782D01*
X129371429Y-51917211D02*
X129428571Y-51802925D01*
X129428571Y-51802925D02*
X129542857Y-51745782D01*
X129542857Y-51745782D02*
X129714286Y-51745782D01*
X129714286Y-51745782D02*
X129828571Y-51802925D01*
X129828571Y-51802925D02*
X129885714Y-51917211D01*
X129885714Y-51917211D02*
X129885714Y-52545782D01*
X130457143Y-52545782D02*
X130457143Y-51345782D01*
X130457143Y-51802925D02*
X130571429Y-51745782D01*
X130571429Y-51745782D02*
X130800000Y-51745782D01*
X130800000Y-51745782D02*
X130914286Y-51802925D01*
X130914286Y-51802925D02*
X130971429Y-51860068D01*
X130971429Y-51860068D02*
X131028571Y-51974354D01*
X131028571Y-51974354D02*
X131028571Y-52317211D01*
X131028571Y-52317211D02*
X130971429Y-52431497D01*
X130971429Y-52431497D02*
X130914286Y-52488640D01*
X130914286Y-52488640D02*
X130800000Y-52545782D01*
X130800000Y-52545782D02*
X130571429Y-52545782D01*
X130571429Y-52545782D02*
X130457143Y-52488640D01*
X132000000Y-52488640D02*
X131885714Y-52545782D01*
X131885714Y-52545782D02*
X131657143Y-52545782D01*
X131657143Y-52545782D02*
X131542857Y-52488640D01*
X131542857Y-52488640D02*
X131485714Y-52374354D01*
X131485714Y-52374354D02*
X131485714Y-51917211D01*
X131485714Y-51917211D02*
X131542857Y-51802925D01*
X131542857Y-51802925D02*
X131657143Y-51745782D01*
X131657143Y-51745782D02*
X131885714Y-51745782D01*
X131885714Y-51745782D02*
X132000000Y-51802925D01*
X132000000Y-51802925D02*
X132057143Y-51917211D01*
X132057143Y-51917211D02*
X132057143Y-52031497D01*
X132057143Y-52031497D02*
X131485714Y-52145782D01*
X132514285Y-52488640D02*
X132628571Y-52545782D01*
X132628571Y-52545782D02*
X132857142Y-52545782D01*
X132857142Y-52545782D02*
X132971428Y-52488640D01*
X132971428Y-52488640D02*
X133028571Y-52374354D01*
X133028571Y-52374354D02*
X133028571Y-52317211D01*
X133028571Y-52317211D02*
X132971428Y-52202925D01*
X132971428Y-52202925D02*
X132857142Y-52145782D01*
X132857142Y-52145782D02*
X132685714Y-52145782D01*
X132685714Y-52145782D02*
X132571428Y-52088640D01*
X132571428Y-52088640D02*
X132514285Y-51974354D01*
X132514285Y-51974354D02*
X132514285Y-51917211D01*
X132514285Y-51917211D02*
X132571428Y-51802925D01*
X132571428Y-51802925D02*
X132685714Y-51745782D01*
X132685714Y-51745782D02*
X132857142Y-51745782D01*
X132857142Y-51745782D02*
X132971428Y-51802925D01*
X134342857Y-51745782D02*
X134628571Y-52545782D01*
X134628571Y-52545782D02*
X134914286Y-51745782D01*
X136000000Y-52545782D02*
X135314286Y-52545782D01*
X135657143Y-52545782D02*
X135657143Y-51345782D01*
X135657143Y-51345782D02*
X135542857Y-51517211D01*
X135542857Y-51517211D02*
X135428572Y-51631497D01*
X135428572Y-51631497D02*
X135314286Y-51688640D01*
D11*
X138549999Y-83409337D02*
X138549999Y-84052194D01*
X138549999Y-84052194D02*
X138507142Y-84180765D01*
X138507142Y-84180765D02*
X138421428Y-84266480D01*
X138421428Y-84266480D02*
X138292856Y-84309337D01*
X138292856Y-84309337D02*
X138207142Y-84309337D01*
X139449999Y-84309337D02*
X138935713Y-84309337D01*
X139192856Y-84309337D02*
X139192856Y-83409337D01*
X139192856Y-83409337D02*
X139107142Y-83537908D01*
X139107142Y-83537908D02*
X139021427Y-83623622D01*
X139021427Y-83623622D02*
X138935713Y-83666480D01*
X139749999Y-83409337D02*
X140349999Y-83409337D01*
X140349999Y-83409337D02*
X139964285Y-84309337D01*
X141378570Y-84309337D02*
X141378570Y-83409337D01*
X141378570Y-83837908D02*
X141892856Y-83837908D01*
X141892856Y-84309337D02*
X141892856Y-83409337D01*
X142235713Y-83409337D02*
X142835713Y-84309337D01*
X142835713Y-83409337D02*
X142235713Y-84309337D01*
X143092856Y-83409337D02*
X143692856Y-83409337D01*
X143692856Y-83409337D02*
X143307142Y-84309337D01*
X144721427Y-84309337D02*
X144721427Y-83409337D01*
X144721427Y-83409337D02*
X144935713Y-83409337D01*
X144935713Y-83409337D02*
X145064284Y-83452194D01*
X145064284Y-83452194D02*
X145149999Y-83537908D01*
X145149999Y-83537908D02*
X145192856Y-83623622D01*
X145192856Y-83623622D02*
X145235713Y-83795051D01*
X145235713Y-83795051D02*
X145235713Y-83923622D01*
X145235713Y-83923622D02*
X145192856Y-84095051D01*
X145192856Y-84095051D02*
X145149999Y-84180765D01*
X145149999Y-84180765D02*
X145064284Y-84266480D01*
X145064284Y-84266480D02*
X144935713Y-84309337D01*
X144935713Y-84309337D02*
X144721427Y-84309337D01*
X146692856Y-84309337D02*
X146692856Y-83837908D01*
X146692856Y-83837908D02*
X146649998Y-83752194D01*
X146649998Y-83752194D02*
X146564284Y-83709337D01*
X146564284Y-83709337D02*
X146392856Y-83709337D01*
X146392856Y-83709337D02*
X146307141Y-83752194D01*
X146692856Y-84266480D02*
X146607141Y-84309337D01*
X146607141Y-84309337D02*
X146392856Y-84309337D01*
X146392856Y-84309337D02*
X146307141Y-84266480D01*
X146307141Y-84266480D02*
X146264284Y-84180765D01*
X146264284Y-84180765D02*
X146264284Y-84095051D01*
X146264284Y-84095051D02*
X146307141Y-84009337D01*
X146307141Y-84009337D02*
X146392856Y-83966480D01*
X146392856Y-83966480D02*
X146607141Y-83966480D01*
X146607141Y-83966480D02*
X146692856Y-83923622D01*
X147121427Y-84309337D02*
X147121427Y-83709337D01*
X147121427Y-83880765D02*
X147164284Y-83795051D01*
X147164284Y-83795051D02*
X147207142Y-83752194D01*
X147207142Y-83752194D02*
X147292856Y-83709337D01*
X147292856Y-83709337D02*
X147378570Y-83709337D01*
X147678570Y-84309337D02*
X147678570Y-83709337D01*
X147678570Y-83880765D02*
X147721427Y-83795051D01*
X147721427Y-83795051D02*
X147764285Y-83752194D01*
X147764285Y-83752194D02*
X147849999Y-83709337D01*
X147849999Y-83709337D02*
X147935713Y-83709337D01*
X148235713Y-84309337D02*
X148235713Y-83709337D01*
X148235713Y-83409337D02*
X148192856Y-83452194D01*
X148192856Y-83452194D02*
X148235713Y-83495051D01*
X148235713Y-83495051D02*
X148278570Y-83452194D01*
X148278570Y-83452194D02*
X148235713Y-83409337D01*
X148235713Y-83409337D02*
X148235713Y-83495051D01*
X149007141Y-84266480D02*
X148921427Y-84309337D01*
X148921427Y-84309337D02*
X148749999Y-84309337D01*
X148749999Y-84309337D02*
X148664284Y-84266480D01*
X148664284Y-84266480D02*
X148621427Y-84180765D01*
X148621427Y-84180765D02*
X148621427Y-83837908D01*
X148621427Y-83837908D02*
X148664284Y-83752194D01*
X148664284Y-83752194D02*
X148749999Y-83709337D01*
X148749999Y-83709337D02*
X148921427Y-83709337D01*
X148921427Y-83709337D02*
X149007141Y-83752194D01*
X149007141Y-83752194D02*
X149049999Y-83837908D01*
X149049999Y-83837908D02*
X149049999Y-83923622D01*
X149049999Y-83923622D02*
X148621427Y-84009337D01*
X148749999Y-83366480D02*
X148878570Y-83495051D01*
X149435713Y-84309337D02*
X149435713Y-83709337D01*
X149435713Y-83880765D02*
X149478570Y-83795051D01*
X149478570Y-83795051D02*
X149521428Y-83752194D01*
X149521428Y-83752194D02*
X149607142Y-83709337D01*
X149607142Y-83709337D02*
X149692856Y-83709337D01*
X150335713Y-84266480D02*
X150249999Y-84309337D01*
X150249999Y-84309337D02*
X150078571Y-84309337D01*
X150078571Y-84309337D02*
X149992856Y-84266480D01*
X149992856Y-84266480D02*
X149949999Y-84180765D01*
X149949999Y-84180765D02*
X149949999Y-83837908D01*
X149949999Y-83837908D02*
X149992856Y-83752194D01*
X149992856Y-83752194D02*
X150078571Y-83709337D01*
X150078571Y-83709337D02*
X150249999Y-83709337D01*
X150249999Y-83709337D02*
X150335713Y-83752194D01*
X150335713Y-83752194D02*
X150378571Y-83837908D01*
X150378571Y-83837908D02*
X150378571Y-83923622D01*
X150378571Y-83923622D02*
X149949999Y-84009337D01*
X150764285Y-83966480D02*
X151450000Y-83966480D01*
X151878571Y-84309337D02*
X151878571Y-83709337D01*
X151878571Y-83409337D02*
X151835714Y-83452194D01*
X151835714Y-83452194D02*
X151878571Y-83495051D01*
X151878571Y-83495051D02*
X151921428Y-83452194D01*
X151921428Y-83452194D02*
X151878571Y-83409337D01*
X151878571Y-83409337D02*
X151878571Y-83495051D01*
X152307142Y-83709337D02*
X152307142Y-84309337D01*
X152307142Y-83795051D02*
X152349999Y-83752194D01*
X152349999Y-83752194D02*
X152435714Y-83709337D01*
X152435714Y-83709337D02*
X152564285Y-83709337D01*
X152564285Y-83709337D02*
X152649999Y-83752194D01*
X152649999Y-83752194D02*
X152692857Y-83837908D01*
X152692857Y-83837908D02*
X152692857Y-84309337D01*
X152992857Y-83709337D02*
X153335714Y-83709337D01*
X153121428Y-83409337D02*
X153121428Y-84180765D01*
X153121428Y-84180765D02*
X153164285Y-84266480D01*
X153164285Y-84266480D02*
X153250000Y-84309337D01*
X153250000Y-84309337D02*
X153335714Y-84309337D01*
D10*
X123616666Y-82201950D02*
X123540476Y-82163855D01*
X123540476Y-82163855D02*
X123426190Y-82163855D01*
X123426190Y-82163855D02*
X123311904Y-82201950D01*
X123311904Y-82201950D02*
X123235714Y-82278140D01*
X123235714Y-82278140D02*
X123197619Y-82354331D01*
X123197619Y-82354331D02*
X123159523Y-82506712D01*
X123159523Y-82506712D02*
X123159523Y-82620998D01*
X123159523Y-82620998D02*
X123197619Y-82773379D01*
X123197619Y-82773379D02*
X123235714Y-82849569D01*
X123235714Y-82849569D02*
X123311904Y-82925760D01*
X123311904Y-82925760D02*
X123426190Y-82963855D01*
X123426190Y-82963855D02*
X123502381Y-82963855D01*
X123502381Y-82963855D02*
X123616666Y-82925760D01*
X123616666Y-82925760D02*
X123654762Y-82887664D01*
X123654762Y-82887664D02*
X123654762Y-82620998D01*
X123654762Y-82620998D02*
X123502381Y-82620998D01*
X123997619Y-82963855D02*
X123997619Y-82163855D01*
X123997619Y-82163855D02*
X124454762Y-82963855D01*
X124454762Y-82963855D02*
X124454762Y-82163855D01*
X124835714Y-82963855D02*
X124835714Y-82163855D01*
X124835714Y-82163855D02*
X125026190Y-82163855D01*
X125026190Y-82163855D02*
X125140476Y-82201950D01*
X125140476Y-82201950D02*
X125216666Y-82278140D01*
X125216666Y-82278140D02*
X125254761Y-82354331D01*
X125254761Y-82354331D02*
X125292857Y-82506712D01*
X125292857Y-82506712D02*
X125292857Y-82620998D01*
X125292857Y-82620998D02*
X125254761Y-82773379D01*
X125254761Y-82773379D02*
X125216666Y-82849569D01*
X125216666Y-82849569D02*
X125140476Y-82925760D01*
X125140476Y-82925760D02*
X125026190Y-82963855D01*
X125026190Y-82963855D02*
X124835714Y-82963855D01*
X126245238Y-82963855D02*
X126245238Y-82163855D01*
X126245238Y-82163855D02*
X126435714Y-82163855D01*
X126435714Y-82163855D02*
X126550000Y-82201950D01*
X126550000Y-82201950D02*
X126626190Y-82278140D01*
X126626190Y-82278140D02*
X126664285Y-82354331D01*
X126664285Y-82354331D02*
X126702381Y-82506712D01*
X126702381Y-82506712D02*
X126702381Y-82620998D01*
X126702381Y-82620998D02*
X126664285Y-82773379D01*
X126664285Y-82773379D02*
X126626190Y-82849569D01*
X126626190Y-82849569D02*
X126550000Y-82925760D01*
X126550000Y-82925760D02*
X126435714Y-82963855D01*
X126435714Y-82963855D02*
X126245238Y-82963855D01*
X126930952Y-82163855D02*
X127388095Y-82163855D01*
X127159523Y-82963855D02*
X127159523Y-82163855D01*
X128226190Y-82925760D02*
X128340476Y-82963855D01*
X128340476Y-82963855D02*
X128530952Y-82963855D01*
X128530952Y-82963855D02*
X128607143Y-82925760D01*
X128607143Y-82925760D02*
X128645238Y-82887664D01*
X128645238Y-82887664D02*
X128683333Y-82811474D01*
X128683333Y-82811474D02*
X128683333Y-82735283D01*
X128683333Y-82735283D02*
X128645238Y-82659093D01*
X128645238Y-82659093D02*
X128607143Y-82620998D01*
X128607143Y-82620998D02*
X128530952Y-82582902D01*
X128530952Y-82582902D02*
X128378571Y-82544807D01*
X128378571Y-82544807D02*
X128302381Y-82506712D01*
X128302381Y-82506712D02*
X128264286Y-82468617D01*
X128264286Y-82468617D02*
X128226190Y-82392426D01*
X128226190Y-82392426D02*
X128226190Y-82316236D01*
X128226190Y-82316236D02*
X128264286Y-82240045D01*
X128264286Y-82240045D02*
X128302381Y-82201950D01*
X128302381Y-82201950D02*
X128378571Y-82163855D01*
X128378571Y-82163855D02*
X128569048Y-82163855D01*
X128569048Y-82163855D02*
X128683333Y-82201950D01*
X129483334Y-82887664D02*
X129445238Y-82925760D01*
X129445238Y-82925760D02*
X129330953Y-82963855D01*
X129330953Y-82963855D02*
X129254762Y-82963855D01*
X129254762Y-82963855D02*
X129140476Y-82925760D01*
X129140476Y-82925760D02*
X129064286Y-82849569D01*
X129064286Y-82849569D02*
X129026191Y-82773379D01*
X129026191Y-82773379D02*
X128988095Y-82620998D01*
X128988095Y-82620998D02*
X128988095Y-82506712D01*
X128988095Y-82506712D02*
X129026191Y-82354331D01*
X129026191Y-82354331D02*
X129064286Y-82278140D01*
X129064286Y-82278140D02*
X129140476Y-82201950D01*
X129140476Y-82201950D02*
X129254762Y-82163855D01*
X129254762Y-82163855D02*
X129330953Y-82163855D01*
X129330953Y-82163855D02*
X129445238Y-82201950D01*
X129445238Y-82201950D02*
X129483334Y-82240045D01*
X129826191Y-82963855D02*
X129826191Y-82163855D01*
X130283334Y-82963855D02*
X129940476Y-82506712D01*
X130283334Y-82163855D02*
X129826191Y-82620998D01*
X131616667Y-82163855D02*
X131235715Y-82163855D01*
X131235715Y-82163855D02*
X131197619Y-82544807D01*
X131197619Y-82544807D02*
X131235715Y-82506712D01*
X131235715Y-82506712D02*
X131311905Y-82468617D01*
X131311905Y-82468617D02*
X131502381Y-82468617D01*
X131502381Y-82468617D02*
X131578572Y-82506712D01*
X131578572Y-82506712D02*
X131616667Y-82544807D01*
X131616667Y-82544807D02*
X131654762Y-82620998D01*
X131654762Y-82620998D02*
X131654762Y-82811474D01*
X131654762Y-82811474D02*
X131616667Y-82887664D01*
X131616667Y-82887664D02*
X131578572Y-82925760D01*
X131578572Y-82925760D02*
X131502381Y-82963855D01*
X131502381Y-82963855D02*
X131311905Y-82963855D01*
X131311905Y-82963855D02*
X131235715Y-82925760D01*
X131235715Y-82925760D02*
X131197619Y-82887664D01*
X131883334Y-82163855D02*
X132150001Y-82963855D01*
X132150001Y-82963855D02*
X132416667Y-82163855D01*
D11*
X120421428Y-73909337D02*
X120421428Y-74552194D01*
X120421428Y-74552194D02*
X120378571Y-74680765D01*
X120378571Y-74680765D02*
X120292857Y-74766480D01*
X120292857Y-74766480D02*
X120164285Y-74809337D01*
X120164285Y-74809337D02*
X120078571Y-74809337D01*
X121321428Y-74809337D02*
X120807142Y-74809337D01*
X121064285Y-74809337D02*
X121064285Y-73909337D01*
X121064285Y-73909337D02*
X120978571Y-74037908D01*
X120978571Y-74037908D02*
X120892856Y-74123622D01*
X120892856Y-74123622D02*
X120807142Y-74166480D01*
X121664285Y-73995051D02*
X121707142Y-73952194D01*
X121707142Y-73952194D02*
X121792857Y-73909337D01*
X121792857Y-73909337D02*
X122007142Y-73909337D01*
X122007142Y-73909337D02*
X122092857Y-73952194D01*
X122092857Y-73952194D02*
X122135714Y-73995051D01*
X122135714Y-73995051D02*
X122178571Y-74080765D01*
X122178571Y-74080765D02*
X122178571Y-74166480D01*
X122178571Y-74166480D02*
X122135714Y-74295051D01*
X122135714Y-74295051D02*
X121621428Y-74809337D01*
X121621428Y-74809337D02*
X122178571Y-74809337D01*
X123249999Y-74809337D02*
X123249999Y-73909337D01*
X123249999Y-74337908D02*
X123764285Y-74337908D01*
X123764285Y-74809337D02*
X123764285Y-73909337D01*
X124107142Y-73909337D02*
X124707142Y-74809337D01*
X124707142Y-73909337D02*
X124107142Y-74809337D01*
X125007142Y-73995051D02*
X125049999Y-73952194D01*
X125049999Y-73952194D02*
X125135714Y-73909337D01*
X125135714Y-73909337D02*
X125349999Y-73909337D01*
X125349999Y-73909337D02*
X125435714Y-73952194D01*
X125435714Y-73952194D02*
X125478571Y-73995051D01*
X125478571Y-73995051D02*
X125521428Y-74080765D01*
X125521428Y-74080765D02*
X125521428Y-74166480D01*
X125521428Y-74166480D02*
X125478571Y-74295051D01*
X125478571Y-74295051D02*
X124964285Y-74809337D01*
X124964285Y-74809337D02*
X125521428Y-74809337D01*
X127064285Y-73952194D02*
X126978571Y-73909337D01*
X126978571Y-73909337D02*
X126849999Y-73909337D01*
X126849999Y-73909337D02*
X126721428Y-73952194D01*
X126721428Y-73952194D02*
X126635713Y-74037908D01*
X126635713Y-74037908D02*
X126592856Y-74123622D01*
X126592856Y-74123622D02*
X126549999Y-74295051D01*
X126549999Y-74295051D02*
X126549999Y-74423622D01*
X126549999Y-74423622D02*
X126592856Y-74595051D01*
X126592856Y-74595051D02*
X126635713Y-74680765D01*
X126635713Y-74680765D02*
X126721428Y-74766480D01*
X126721428Y-74766480D02*
X126849999Y-74809337D01*
X126849999Y-74809337D02*
X126935713Y-74809337D01*
X126935713Y-74809337D02*
X127064285Y-74766480D01*
X127064285Y-74766480D02*
X127107142Y-74723622D01*
X127107142Y-74723622D02*
X127107142Y-74423622D01*
X127107142Y-74423622D02*
X126935713Y-74423622D01*
X128564285Y-74809337D02*
X128564285Y-74337908D01*
X128564285Y-74337908D02*
X128521427Y-74252194D01*
X128521427Y-74252194D02*
X128435713Y-74209337D01*
X128435713Y-74209337D02*
X128264285Y-74209337D01*
X128264285Y-74209337D02*
X128178570Y-74252194D01*
X128564285Y-74766480D02*
X128478570Y-74809337D01*
X128478570Y-74809337D02*
X128264285Y-74809337D01*
X128264285Y-74809337D02*
X128178570Y-74766480D01*
X128178570Y-74766480D02*
X128135713Y-74680765D01*
X128135713Y-74680765D02*
X128135713Y-74595051D01*
X128135713Y-74595051D02*
X128178570Y-74509337D01*
X128178570Y-74509337D02*
X128264285Y-74466480D01*
X128264285Y-74466480D02*
X128478570Y-74466480D01*
X128478570Y-74466480D02*
X128564285Y-74423622D01*
X128992856Y-74809337D02*
X128992856Y-74209337D01*
X128992856Y-74380765D02*
X129035713Y-74295051D01*
X129035713Y-74295051D02*
X129078571Y-74252194D01*
X129078571Y-74252194D02*
X129164285Y-74209337D01*
X129164285Y-74209337D02*
X129249999Y-74209337D01*
X129549999Y-74809337D02*
X129549999Y-74209337D01*
X129549999Y-74380765D02*
X129592856Y-74295051D01*
X129592856Y-74295051D02*
X129635714Y-74252194D01*
X129635714Y-74252194D02*
X129721428Y-74209337D01*
X129721428Y-74209337D02*
X129807142Y-74209337D01*
X130107142Y-74809337D02*
X130107142Y-74209337D01*
X130107142Y-73909337D02*
X130064285Y-73952194D01*
X130064285Y-73952194D02*
X130107142Y-73995051D01*
X130107142Y-73995051D02*
X130149999Y-73952194D01*
X130149999Y-73952194D02*
X130107142Y-73909337D01*
X130107142Y-73909337D02*
X130107142Y-73995051D01*
X130878570Y-74766480D02*
X130792856Y-74809337D01*
X130792856Y-74809337D02*
X130621428Y-74809337D01*
X130621428Y-74809337D02*
X130535713Y-74766480D01*
X130535713Y-74766480D02*
X130492856Y-74680765D01*
X130492856Y-74680765D02*
X130492856Y-74337908D01*
X130492856Y-74337908D02*
X130535713Y-74252194D01*
X130535713Y-74252194D02*
X130621428Y-74209337D01*
X130621428Y-74209337D02*
X130792856Y-74209337D01*
X130792856Y-74209337D02*
X130878570Y-74252194D01*
X130878570Y-74252194D02*
X130921428Y-74337908D01*
X130921428Y-74337908D02*
X130921428Y-74423622D01*
X130921428Y-74423622D02*
X130492856Y-74509337D01*
X130621428Y-73866480D02*
X130749999Y-73995051D01*
X131307142Y-74809337D02*
X131307142Y-74209337D01*
X131307142Y-74380765D02*
X131349999Y-74295051D01*
X131349999Y-74295051D02*
X131392857Y-74252194D01*
X131392857Y-74252194D02*
X131478571Y-74209337D01*
X131478571Y-74209337D02*
X131564285Y-74209337D01*
X132207142Y-74766480D02*
X132121428Y-74809337D01*
X132121428Y-74809337D02*
X131950000Y-74809337D01*
X131950000Y-74809337D02*
X131864285Y-74766480D01*
X131864285Y-74766480D02*
X131821428Y-74680765D01*
X131821428Y-74680765D02*
X131821428Y-74337908D01*
X131821428Y-74337908D02*
X131864285Y-74252194D01*
X131864285Y-74252194D02*
X131950000Y-74209337D01*
X131950000Y-74209337D02*
X132121428Y-74209337D01*
X132121428Y-74209337D02*
X132207142Y-74252194D01*
X132207142Y-74252194D02*
X132250000Y-74337908D01*
X132250000Y-74337908D02*
X132250000Y-74423622D01*
X132250000Y-74423622D02*
X131821428Y-74509337D01*
X132635714Y-74466480D02*
X133321429Y-74466480D01*
X134092857Y-74766480D02*
X134007143Y-74809337D01*
X134007143Y-74809337D02*
X133835715Y-74809337D01*
X133835715Y-74809337D02*
X133750000Y-74766480D01*
X133750000Y-74766480D02*
X133707143Y-74680765D01*
X133707143Y-74680765D02*
X133707143Y-74337908D01*
X133707143Y-74337908D02*
X133750000Y-74252194D01*
X133750000Y-74252194D02*
X133835715Y-74209337D01*
X133835715Y-74209337D02*
X134007143Y-74209337D01*
X134007143Y-74209337D02*
X134092857Y-74252194D01*
X134092857Y-74252194D02*
X134135715Y-74337908D01*
X134135715Y-74337908D02*
X134135715Y-74423622D01*
X134135715Y-74423622D02*
X133707143Y-74509337D01*
X134435715Y-74809337D02*
X134907144Y-74209337D01*
X134435715Y-74209337D02*
X134907144Y-74809337D01*
X135121429Y-74209337D02*
X135464286Y-74209337D01*
X135250000Y-73909337D02*
X135250000Y-74680765D01*
X135250000Y-74680765D02*
X135292857Y-74766480D01*
X135292857Y-74766480D02*
X135378572Y-74809337D01*
X135378572Y-74809337D02*
X135464286Y-74809337D01*
D10*
X123616666Y-63201950D02*
X123540476Y-63163855D01*
X123540476Y-63163855D02*
X123426190Y-63163855D01*
X123426190Y-63163855D02*
X123311904Y-63201950D01*
X123311904Y-63201950D02*
X123235714Y-63278140D01*
X123235714Y-63278140D02*
X123197619Y-63354331D01*
X123197619Y-63354331D02*
X123159523Y-63506712D01*
X123159523Y-63506712D02*
X123159523Y-63620998D01*
X123159523Y-63620998D02*
X123197619Y-63773379D01*
X123197619Y-63773379D02*
X123235714Y-63849569D01*
X123235714Y-63849569D02*
X123311904Y-63925760D01*
X123311904Y-63925760D02*
X123426190Y-63963855D01*
X123426190Y-63963855D02*
X123502381Y-63963855D01*
X123502381Y-63963855D02*
X123616666Y-63925760D01*
X123616666Y-63925760D02*
X123654762Y-63887664D01*
X123654762Y-63887664D02*
X123654762Y-63620998D01*
X123654762Y-63620998D02*
X123502381Y-63620998D01*
X123997619Y-63963855D02*
X123997619Y-63163855D01*
X123997619Y-63163855D02*
X124454762Y-63963855D01*
X124454762Y-63963855D02*
X124454762Y-63163855D01*
X124835714Y-63963855D02*
X124835714Y-63163855D01*
X124835714Y-63163855D02*
X125026190Y-63163855D01*
X125026190Y-63163855D02*
X125140476Y-63201950D01*
X125140476Y-63201950D02*
X125216666Y-63278140D01*
X125216666Y-63278140D02*
X125254761Y-63354331D01*
X125254761Y-63354331D02*
X125292857Y-63506712D01*
X125292857Y-63506712D02*
X125292857Y-63620998D01*
X125292857Y-63620998D02*
X125254761Y-63773379D01*
X125254761Y-63773379D02*
X125216666Y-63849569D01*
X125216666Y-63849569D02*
X125140476Y-63925760D01*
X125140476Y-63925760D02*
X125026190Y-63963855D01*
X125026190Y-63963855D02*
X124835714Y-63963855D01*
X126245238Y-63963855D02*
X126245238Y-63163855D01*
X126245238Y-63163855D02*
X126435714Y-63163855D01*
X126435714Y-63163855D02*
X126550000Y-63201950D01*
X126550000Y-63201950D02*
X126626190Y-63278140D01*
X126626190Y-63278140D02*
X126664285Y-63354331D01*
X126664285Y-63354331D02*
X126702381Y-63506712D01*
X126702381Y-63506712D02*
X126702381Y-63620998D01*
X126702381Y-63620998D02*
X126664285Y-63773379D01*
X126664285Y-63773379D02*
X126626190Y-63849569D01*
X126626190Y-63849569D02*
X126550000Y-63925760D01*
X126550000Y-63925760D02*
X126435714Y-63963855D01*
X126435714Y-63963855D02*
X126245238Y-63963855D01*
X126930952Y-63163855D02*
X127388095Y-63163855D01*
X127159523Y-63963855D02*
X127159523Y-63163855D01*
X128226190Y-63925760D02*
X128340476Y-63963855D01*
X128340476Y-63963855D02*
X128530952Y-63963855D01*
X128530952Y-63963855D02*
X128607143Y-63925760D01*
X128607143Y-63925760D02*
X128645238Y-63887664D01*
X128645238Y-63887664D02*
X128683333Y-63811474D01*
X128683333Y-63811474D02*
X128683333Y-63735283D01*
X128683333Y-63735283D02*
X128645238Y-63659093D01*
X128645238Y-63659093D02*
X128607143Y-63620998D01*
X128607143Y-63620998D02*
X128530952Y-63582902D01*
X128530952Y-63582902D02*
X128378571Y-63544807D01*
X128378571Y-63544807D02*
X128302381Y-63506712D01*
X128302381Y-63506712D02*
X128264286Y-63468617D01*
X128264286Y-63468617D02*
X128226190Y-63392426D01*
X128226190Y-63392426D02*
X128226190Y-63316236D01*
X128226190Y-63316236D02*
X128264286Y-63240045D01*
X128264286Y-63240045D02*
X128302381Y-63201950D01*
X128302381Y-63201950D02*
X128378571Y-63163855D01*
X128378571Y-63163855D02*
X128569048Y-63163855D01*
X128569048Y-63163855D02*
X128683333Y-63201950D01*
X129483334Y-63887664D02*
X129445238Y-63925760D01*
X129445238Y-63925760D02*
X129330953Y-63963855D01*
X129330953Y-63963855D02*
X129254762Y-63963855D01*
X129254762Y-63963855D02*
X129140476Y-63925760D01*
X129140476Y-63925760D02*
X129064286Y-63849569D01*
X129064286Y-63849569D02*
X129026191Y-63773379D01*
X129026191Y-63773379D02*
X128988095Y-63620998D01*
X128988095Y-63620998D02*
X128988095Y-63506712D01*
X128988095Y-63506712D02*
X129026191Y-63354331D01*
X129026191Y-63354331D02*
X129064286Y-63278140D01*
X129064286Y-63278140D02*
X129140476Y-63201950D01*
X129140476Y-63201950D02*
X129254762Y-63163855D01*
X129254762Y-63163855D02*
X129330953Y-63163855D01*
X129330953Y-63163855D02*
X129445238Y-63201950D01*
X129445238Y-63201950D02*
X129483334Y-63240045D01*
X129826191Y-63963855D02*
X129826191Y-63163855D01*
X130283334Y-63963855D02*
X129940476Y-63506712D01*
X130283334Y-63163855D02*
X129826191Y-63620998D01*
X131616667Y-63163855D02*
X131235715Y-63163855D01*
X131235715Y-63163855D02*
X131197619Y-63544807D01*
X131197619Y-63544807D02*
X131235715Y-63506712D01*
X131235715Y-63506712D02*
X131311905Y-63468617D01*
X131311905Y-63468617D02*
X131502381Y-63468617D01*
X131502381Y-63468617D02*
X131578572Y-63506712D01*
X131578572Y-63506712D02*
X131616667Y-63544807D01*
X131616667Y-63544807D02*
X131654762Y-63620998D01*
X131654762Y-63620998D02*
X131654762Y-63811474D01*
X131654762Y-63811474D02*
X131616667Y-63887664D01*
X131616667Y-63887664D02*
X131578572Y-63925760D01*
X131578572Y-63925760D02*
X131502381Y-63963855D01*
X131502381Y-63963855D02*
X131311905Y-63963855D01*
X131311905Y-63963855D02*
X131235715Y-63925760D01*
X131235715Y-63925760D02*
X131197619Y-63887664D01*
X131883334Y-63163855D02*
X132150001Y-63963855D01*
X132150001Y-63963855D02*
X132416667Y-63163855D01*
%TO.C,R2*%
X178540000Y-91130000D02*
X185080000Y-91130000D01*
X178540000Y-91460000D02*
X178540000Y-91130000D01*
X178540000Y-93540000D02*
X178540000Y-93870000D01*
X178540000Y-93870000D02*
X185080000Y-93870000D01*
X185080000Y-91130000D02*
X185080000Y-91460000D01*
X185080000Y-93870000D02*
X185080000Y-93540000D01*
%TO.C,J1*%
X126610000Y-98790000D02*
X126610000Y-97460000D01*
X127940000Y-98790000D02*
X126610000Y-98790000D01*
X129210000Y-98790000D02*
X147050000Y-98790000D01*
X129210000Y-98790000D02*
X129210000Y-96130000D01*
X147050000Y-98790000D02*
X147050000Y-96130000D01*
X129210000Y-96130000D02*
X147050000Y-96130000D01*
%TO.C,J13*%
X121150000Y-84750000D02*
X121150000Y-86000000D01*
X121440000Y-85040000D02*
X121440000Y-91010000D01*
X121440000Y-91010000D02*
X134060000Y-91010000D01*
X121450000Y-85050000D02*
X121450000Y-85800000D01*
X121450000Y-85800000D02*
X123250000Y-85800000D01*
X121450000Y-87300000D02*
X122200000Y-87300000D01*
X122200000Y-87300000D02*
X122200000Y-90250000D01*
X122200000Y-90250000D02*
X127750000Y-90250000D01*
X122400000Y-84750000D02*
X121150000Y-84750000D01*
X123250000Y-85050000D02*
X121450000Y-85050000D01*
X123250000Y-85800000D02*
X123250000Y-85050000D01*
X124750000Y-85050000D02*
X124750000Y-85800000D01*
X124750000Y-85800000D02*
X130750000Y-85800000D01*
X130750000Y-85050000D02*
X124750000Y-85050000D01*
X130750000Y-85800000D02*
X130750000Y-85050000D01*
X132250000Y-85050000D02*
X132250000Y-85800000D01*
X132250000Y-85800000D02*
X134050000Y-85800000D01*
X133300000Y-87300000D02*
X133300000Y-90250000D01*
X133300000Y-90250000D02*
X127750000Y-90250000D01*
X134050000Y-85050000D02*
X132250000Y-85050000D01*
X134050000Y-85800000D02*
X134050000Y-85050000D01*
X134050000Y-87300000D02*
X133300000Y-87300000D01*
X134060000Y-85040000D02*
X121440000Y-85040000D01*
X134060000Y-91010000D02*
X134060000Y-85040000D01*
%TO.C,C1*%
X181880000Y-69130000D02*
X181880000Y-69445000D01*
X181880000Y-69130000D02*
X187120000Y-69130000D01*
X181880000Y-71555000D02*
X181880000Y-71870000D01*
X181880000Y-71870000D02*
X187120000Y-71870000D01*
X187120000Y-69130000D02*
X187120000Y-69445000D01*
X187120000Y-71555000D02*
X187120000Y-71870000D01*
%TO.C,J20*%
X170150000Y-54750000D02*
X170150000Y-56000000D01*
X170440000Y-55040000D02*
X170440000Y-61010000D01*
X170440000Y-61010000D02*
X183060000Y-61010000D01*
X170450000Y-55050000D02*
X170450000Y-55800000D01*
X170450000Y-55800000D02*
X172250000Y-55800000D01*
X170450000Y-57300000D02*
X171200000Y-57300000D01*
X171200000Y-57300000D02*
X171200000Y-60250000D01*
X171200000Y-60250000D02*
X176750000Y-60250000D01*
X171400000Y-54750000D02*
X170150000Y-54750000D01*
X172250000Y-55050000D02*
X170450000Y-55050000D01*
X172250000Y-55800000D02*
X172250000Y-55050000D01*
X173750000Y-55050000D02*
X173750000Y-55800000D01*
X173750000Y-55800000D02*
X179750000Y-55800000D01*
X179750000Y-55050000D02*
X173750000Y-55050000D01*
X179750000Y-55800000D02*
X179750000Y-55050000D01*
X181250000Y-55050000D02*
X181250000Y-55800000D01*
X181250000Y-55800000D02*
X183050000Y-55800000D01*
X182300000Y-57300000D02*
X182300000Y-60250000D01*
X182300000Y-60250000D02*
X176750000Y-60250000D01*
X183050000Y-55050000D02*
X181250000Y-55050000D01*
X183050000Y-55800000D02*
X183050000Y-55050000D01*
X183050000Y-57300000D02*
X182300000Y-57300000D01*
X183060000Y-55040000D02*
X170440000Y-55040000D01*
X183060000Y-61010000D02*
X183060000Y-55040000D01*
%TO.C,J4*%
X192650000Y-47870000D02*
X193980000Y-47870000D01*
X192650000Y-49200000D02*
X192650000Y-47870000D01*
X192650000Y-50470000D02*
X192650000Y-93710000D01*
X192650000Y-50470000D02*
X195250000Y-50470000D01*
X192650000Y-93710000D02*
X197850000Y-93710000D01*
X195250000Y-47870000D02*
X197850000Y-47870000D01*
X195250000Y-50470000D02*
X195250000Y-47870000D01*
X197850000Y-47870000D02*
X197850000Y-93710000D01*
%TO.C,J22*%
X170150000Y-74750000D02*
X170150000Y-76000000D01*
X170440000Y-75040000D02*
X170440000Y-81010000D01*
X170440000Y-81010000D02*
X178060000Y-81010000D01*
X170450000Y-75050000D02*
X170450000Y-75800000D01*
X170450000Y-75800000D02*
X172250000Y-75800000D01*
X170450000Y-77300000D02*
X171200000Y-77300000D01*
X171200000Y-77300000D02*
X171200000Y-80250000D01*
X171200000Y-80250000D02*
X174250000Y-80250000D01*
X171400000Y-74750000D02*
X170150000Y-74750000D01*
X172250000Y-75050000D02*
X170450000Y-75050000D01*
X172250000Y-75800000D02*
X172250000Y-75050000D01*
X173750000Y-75050000D02*
X173750000Y-75800000D01*
X173750000Y-75800000D02*
X174750000Y-75800000D01*
X174750000Y-75050000D02*
X173750000Y-75050000D01*
X174750000Y-75800000D02*
X174750000Y-75050000D01*
X176250000Y-75050000D02*
X176250000Y-75800000D01*
X176250000Y-75800000D02*
X178050000Y-75800000D01*
X177300000Y-77300000D02*
X177300000Y-80250000D01*
X177300000Y-80250000D02*
X174250000Y-80250000D01*
X178050000Y-75050000D02*
X176250000Y-75050000D01*
X178050000Y-75800000D02*
X178050000Y-75050000D01*
X178050000Y-77300000D02*
X177300000Y-77300000D01*
X178060000Y-75040000D02*
X170440000Y-75040000D01*
X178060000Y-81010000D02*
X178060000Y-75040000D01*
%TO.C,J15*%
X139150000Y-65750000D02*
X139150000Y-67000000D01*
X139440000Y-66040000D02*
X139440000Y-72010000D01*
X139440000Y-72010000D02*
X152060000Y-72010000D01*
X139450000Y-66050000D02*
X139450000Y-66800000D01*
X139450000Y-66800000D02*
X141250000Y-66800000D01*
X139450000Y-68300000D02*
X140200000Y-68300000D01*
X140200000Y-68300000D02*
X140200000Y-71250000D01*
X140200000Y-71250000D02*
X145750000Y-71250000D01*
X140400000Y-65750000D02*
X139150000Y-65750000D01*
X141250000Y-66050000D02*
X139450000Y-66050000D01*
X141250000Y-66800000D02*
X141250000Y-66050000D01*
X142750000Y-66050000D02*
X142750000Y-66800000D01*
X142750000Y-66800000D02*
X148750000Y-66800000D01*
X148750000Y-66050000D02*
X142750000Y-66050000D01*
X148750000Y-66800000D02*
X148750000Y-66050000D01*
X150250000Y-66050000D02*
X150250000Y-66800000D01*
X150250000Y-66800000D02*
X152050000Y-66800000D01*
X151300000Y-68300000D02*
X151300000Y-71250000D01*
X151300000Y-71250000D02*
X145750000Y-71250000D01*
X152050000Y-66050000D02*
X150250000Y-66050000D01*
X152050000Y-66800000D02*
X152050000Y-66050000D01*
X152050000Y-68300000D02*
X151300000Y-68300000D01*
X152060000Y-66040000D02*
X139440000Y-66040000D01*
X152060000Y-72010000D02*
X152060000Y-66040000D01*
%TO.C,J21*%
X170150000Y-64250000D02*
X170150000Y-65500000D01*
X170440000Y-64540000D02*
X170440000Y-70510000D01*
X170440000Y-70510000D02*
X180560000Y-70510000D01*
X170450000Y-64550000D02*
X170450000Y-65300000D01*
X170450000Y-65300000D02*
X172250000Y-65300000D01*
X170450000Y-66800000D02*
X171200000Y-66800000D01*
X171200000Y-66800000D02*
X171200000Y-69750000D01*
X171200000Y-69750000D02*
X175500000Y-69750000D01*
X171400000Y-64250000D02*
X170150000Y-64250000D01*
X172250000Y-64550000D02*
X170450000Y-64550000D01*
X172250000Y-65300000D02*
X172250000Y-64550000D01*
X173750000Y-64550000D02*
X173750000Y-65300000D01*
X173750000Y-65300000D02*
X177250000Y-65300000D01*
X177250000Y-64550000D02*
X173750000Y-64550000D01*
X177250000Y-65300000D02*
X177250000Y-64550000D01*
X178750000Y-64550000D02*
X178750000Y-65300000D01*
X178750000Y-65300000D02*
X180550000Y-65300000D01*
X179800000Y-66800000D02*
X179800000Y-69750000D01*
X179800000Y-69750000D02*
X175500000Y-69750000D01*
X180550000Y-64550000D02*
X178750000Y-64550000D01*
X180550000Y-65300000D02*
X180550000Y-64550000D01*
X180550000Y-66800000D02*
X179800000Y-66800000D01*
X180560000Y-64540000D02*
X170440000Y-64540000D01*
X180560000Y-70510000D02*
X180560000Y-64540000D01*
%TO.C,D1*%
X171710000Y-91264000D02*
X171710000Y-91420000D01*
X171710000Y-93580000D02*
X171710000Y-93736000D01*
X174942334Y-91421392D02*
G75*
G03*
X171710001Y-91264485I-1672334J-1078608D01*
G01*
X174311129Y-91420164D02*
G75*
G03*
X172229040Y-91420001I-1041129J-1079836D01*
G01*
X172229040Y-93579999D02*
G75*
G03*
X174311129Y-93579836I1040960J1079999D01*
G01*
X171710001Y-93735515D02*
G75*
G03*
X174942334Y-93578608I1559999J1235515D01*
G01*
%TO.C,J14*%
X139150000Y-56250000D02*
X139150000Y-57500000D01*
X139440000Y-56540000D02*
X139440000Y-62510000D01*
X139440000Y-62510000D02*
X152060000Y-62510000D01*
X139450000Y-56550000D02*
X139450000Y-57300000D01*
X139450000Y-57300000D02*
X141250000Y-57300000D01*
X139450000Y-58800000D02*
X140200000Y-58800000D01*
X140200000Y-58800000D02*
X140200000Y-61750000D01*
X140200000Y-61750000D02*
X145750000Y-61750000D01*
X140400000Y-56250000D02*
X139150000Y-56250000D01*
X141250000Y-56550000D02*
X139450000Y-56550000D01*
X141250000Y-57300000D02*
X141250000Y-56550000D01*
X142750000Y-56550000D02*
X142750000Y-57300000D01*
X142750000Y-57300000D02*
X148750000Y-57300000D01*
X148750000Y-56550000D02*
X142750000Y-56550000D01*
X148750000Y-57300000D02*
X148750000Y-56550000D01*
X150250000Y-56550000D02*
X150250000Y-57300000D01*
X150250000Y-57300000D02*
X152050000Y-57300000D01*
X151300000Y-58800000D02*
X151300000Y-61750000D01*
X151300000Y-61750000D02*
X145750000Y-61750000D01*
X152050000Y-56550000D02*
X150250000Y-56550000D01*
X152050000Y-57300000D02*
X152050000Y-56550000D01*
X152050000Y-58800000D02*
X151300000Y-58800000D01*
X152060000Y-56540000D02*
X139440000Y-56540000D01*
X152060000Y-62510000D02*
X152060000Y-56540000D01*
%TO.C,C2*%
X170749759Y-83661000D02*
X171379759Y-83661000D01*
X171064759Y-83346000D02*
X171064759Y-83976000D01*
X174250000Y-82270000D02*
X174250000Y-88730000D01*
X174290000Y-82270000D02*
X174290000Y-88730000D01*
X174330000Y-82270000D02*
X174330000Y-88730000D01*
X174370000Y-82272000D02*
X174370000Y-88728000D01*
X174410000Y-82273000D02*
X174410000Y-88727000D01*
X174450000Y-82276000D02*
X174450000Y-88724000D01*
X174490000Y-82278000D02*
X174490000Y-84460000D01*
X174490000Y-86540000D02*
X174490000Y-88722000D01*
X174530000Y-82282000D02*
X174530000Y-84460000D01*
X174530000Y-86540000D02*
X174530000Y-88718000D01*
X174570000Y-82285000D02*
X174570000Y-84460000D01*
X174570000Y-86540000D02*
X174570000Y-88715000D01*
X174610000Y-82289000D02*
X174610000Y-84460000D01*
X174610000Y-86540000D02*
X174610000Y-88711000D01*
X174650000Y-82294000D02*
X174650000Y-84460000D01*
X174650000Y-86540000D02*
X174650000Y-88706000D01*
X174690000Y-82299000D02*
X174690000Y-84460000D01*
X174690000Y-86540000D02*
X174690000Y-88701000D01*
X174730000Y-82305000D02*
X174730000Y-84460000D01*
X174730000Y-86540000D02*
X174730000Y-88695000D01*
X174770000Y-82311000D02*
X174770000Y-84460000D01*
X174770000Y-86540000D02*
X174770000Y-88689000D01*
X174810000Y-82318000D02*
X174810000Y-84460000D01*
X174810000Y-86540000D02*
X174810000Y-88682000D01*
X174850000Y-82325000D02*
X174850000Y-84460000D01*
X174850000Y-86540000D02*
X174850000Y-88675000D01*
X174890000Y-82333000D02*
X174890000Y-84460000D01*
X174890000Y-86540000D02*
X174890000Y-88667000D01*
X174930000Y-82341000D02*
X174930000Y-84460000D01*
X174930000Y-86540000D02*
X174930000Y-88659000D01*
X174971000Y-82350000D02*
X174971000Y-84460000D01*
X174971000Y-86540000D02*
X174971000Y-88650000D01*
X175011000Y-82359000D02*
X175011000Y-84460000D01*
X175011000Y-86540000D02*
X175011000Y-88641000D01*
X175051000Y-82369000D02*
X175051000Y-84460000D01*
X175051000Y-86540000D02*
X175051000Y-88631000D01*
X175091000Y-82379000D02*
X175091000Y-84460000D01*
X175091000Y-86540000D02*
X175091000Y-88621000D01*
X175131000Y-82390000D02*
X175131000Y-84460000D01*
X175131000Y-86540000D02*
X175131000Y-88610000D01*
X175171000Y-82402000D02*
X175171000Y-84460000D01*
X175171000Y-86540000D02*
X175171000Y-88598000D01*
X175211000Y-82414000D02*
X175211000Y-84460000D01*
X175211000Y-86540000D02*
X175211000Y-88586000D01*
X175251000Y-82426000D02*
X175251000Y-84460000D01*
X175251000Y-86540000D02*
X175251000Y-88574000D01*
X175291000Y-82439000D02*
X175291000Y-84460000D01*
X175291000Y-86540000D02*
X175291000Y-88561000D01*
X175331000Y-82453000D02*
X175331000Y-84460000D01*
X175331000Y-86540000D02*
X175331000Y-88547000D01*
X175371000Y-82467000D02*
X175371000Y-84460000D01*
X175371000Y-86540000D02*
X175371000Y-88533000D01*
X175411000Y-82482000D02*
X175411000Y-84460000D01*
X175411000Y-86540000D02*
X175411000Y-88518000D01*
X175451000Y-82498000D02*
X175451000Y-84460000D01*
X175451000Y-86540000D02*
X175451000Y-88502000D01*
X175491000Y-82514000D02*
X175491000Y-84460000D01*
X175491000Y-86540000D02*
X175491000Y-88486000D01*
X175531000Y-82530000D02*
X175531000Y-84460000D01*
X175531000Y-86540000D02*
X175531000Y-88470000D01*
X175571000Y-82548000D02*
X175571000Y-84460000D01*
X175571000Y-86540000D02*
X175571000Y-88452000D01*
X175611000Y-82566000D02*
X175611000Y-84460000D01*
X175611000Y-86540000D02*
X175611000Y-88434000D01*
X175651000Y-82584000D02*
X175651000Y-84460000D01*
X175651000Y-86540000D02*
X175651000Y-88416000D01*
X175691000Y-82604000D02*
X175691000Y-84460000D01*
X175691000Y-86540000D02*
X175691000Y-88396000D01*
X175731000Y-82624000D02*
X175731000Y-84460000D01*
X175731000Y-86540000D02*
X175731000Y-88376000D01*
X175771000Y-82644000D02*
X175771000Y-84460000D01*
X175771000Y-86540000D02*
X175771000Y-88356000D01*
X175811000Y-82666000D02*
X175811000Y-84460000D01*
X175811000Y-86540000D02*
X175811000Y-88334000D01*
X175851000Y-82688000D02*
X175851000Y-84460000D01*
X175851000Y-86540000D02*
X175851000Y-88312000D01*
X175891000Y-82710000D02*
X175891000Y-84460000D01*
X175891000Y-86540000D02*
X175891000Y-88290000D01*
X175931000Y-82734000D02*
X175931000Y-84460000D01*
X175931000Y-86540000D02*
X175931000Y-88266000D01*
X175971000Y-82758000D02*
X175971000Y-84460000D01*
X175971000Y-86540000D02*
X175971000Y-88242000D01*
X176011000Y-82784000D02*
X176011000Y-84460000D01*
X176011000Y-86540000D02*
X176011000Y-88216000D01*
X176051000Y-82810000D02*
X176051000Y-84460000D01*
X176051000Y-86540000D02*
X176051000Y-88190000D01*
X176091000Y-82836000D02*
X176091000Y-84460000D01*
X176091000Y-86540000D02*
X176091000Y-88164000D01*
X176131000Y-82864000D02*
X176131000Y-84460000D01*
X176131000Y-86540000D02*
X176131000Y-88136000D01*
X176171000Y-82893000D02*
X176171000Y-84460000D01*
X176171000Y-86540000D02*
X176171000Y-88107000D01*
X176211000Y-82922000D02*
X176211000Y-84460000D01*
X176211000Y-86540000D02*
X176211000Y-88078000D01*
X176251000Y-82952000D02*
X176251000Y-84460000D01*
X176251000Y-86540000D02*
X176251000Y-88048000D01*
X176291000Y-82984000D02*
X176291000Y-84460000D01*
X176291000Y-86540000D02*
X176291000Y-88016000D01*
X176331000Y-83016000D02*
X176331000Y-84460000D01*
X176331000Y-86540000D02*
X176331000Y-87984000D01*
X176371000Y-83050000D02*
X176371000Y-84460000D01*
X176371000Y-86540000D02*
X176371000Y-87950000D01*
X176411000Y-83084000D02*
X176411000Y-84460000D01*
X176411000Y-86540000D02*
X176411000Y-87916000D01*
X176451000Y-83120000D02*
X176451000Y-84460000D01*
X176451000Y-86540000D02*
X176451000Y-87880000D01*
X176491000Y-83157000D02*
X176491000Y-84460000D01*
X176491000Y-86540000D02*
X176491000Y-87843000D01*
X176531000Y-83195000D02*
X176531000Y-84460000D01*
X176531000Y-86540000D02*
X176531000Y-87805000D01*
X176571000Y-83235000D02*
X176571000Y-87765000D01*
X176611000Y-83276000D02*
X176611000Y-87724000D01*
X176651000Y-83318000D02*
X176651000Y-87682000D01*
X176691000Y-83363000D02*
X176691000Y-87637000D01*
X176731000Y-83408000D02*
X176731000Y-87592000D01*
X176771000Y-83456000D02*
X176771000Y-87544000D01*
X176811000Y-83505000D02*
X176811000Y-87495000D01*
X176851000Y-83556000D02*
X176851000Y-87444000D01*
X176891000Y-83610000D02*
X176891000Y-87390000D01*
X176931000Y-83666000D02*
X176931000Y-87334000D01*
X176971000Y-83724000D02*
X176971000Y-87276000D01*
X177011000Y-83786000D02*
X177011000Y-87214000D01*
X177051000Y-83850000D02*
X177051000Y-87150000D01*
X177091000Y-83919000D02*
X177091000Y-87081000D01*
X177131000Y-83991000D02*
X177131000Y-87009000D01*
X177171000Y-84068000D02*
X177171000Y-86932000D01*
X177211000Y-84150000D02*
X177211000Y-86850000D01*
X177251000Y-84238000D02*
X177251000Y-86762000D01*
X177291000Y-84335000D02*
X177291000Y-86665000D01*
X177331000Y-84441000D02*
X177331000Y-86559000D01*
X177371000Y-84560000D02*
X177371000Y-86440000D01*
X177411000Y-84698000D02*
X177411000Y-86302000D01*
X177451000Y-84867000D02*
X177451000Y-86133000D01*
X177491000Y-85098000D02*
X177491000Y-85902000D01*
X177520000Y-85500000D02*
G75*
G03*
X170980000Y-85500000I-3270000J0D01*
G01*
X170980000Y-85500000D02*
G75*
G03*
X177520000Y-85500000I3270000J0D01*
G01*
%TO.C,J11*%
X121150000Y-65750000D02*
X121150000Y-67000000D01*
X121440000Y-66040000D02*
X121440000Y-72010000D01*
X121440000Y-72010000D02*
X134060000Y-72010000D01*
X121450000Y-66050000D02*
X121450000Y-66800000D01*
X121450000Y-66800000D02*
X123250000Y-66800000D01*
X121450000Y-68300000D02*
X122200000Y-68300000D01*
X122200000Y-68300000D02*
X122200000Y-71250000D01*
X122200000Y-71250000D02*
X127750000Y-71250000D01*
X122400000Y-65750000D02*
X121150000Y-65750000D01*
X123250000Y-66050000D02*
X121450000Y-66050000D01*
X123250000Y-66800000D02*
X123250000Y-66050000D01*
X124750000Y-66050000D02*
X124750000Y-66800000D01*
X124750000Y-66800000D02*
X130750000Y-66800000D01*
X130750000Y-66050000D02*
X124750000Y-66050000D01*
X130750000Y-66800000D02*
X130750000Y-66050000D01*
X132250000Y-66050000D02*
X132250000Y-66800000D01*
X132250000Y-66800000D02*
X134050000Y-66800000D01*
X133300000Y-68300000D02*
X133300000Y-71250000D01*
X133300000Y-71250000D02*
X127750000Y-71250000D01*
X134050000Y-66050000D02*
X132250000Y-66050000D01*
X134050000Y-66800000D02*
X134050000Y-66050000D01*
X134050000Y-68300000D02*
X133300000Y-68300000D01*
X134060000Y-66040000D02*
X121440000Y-66040000D01*
X134060000Y-72010000D02*
X134060000Y-66040000D01*
%TO.C,J12*%
X121150000Y-75250000D02*
X121150000Y-76500000D01*
X121440000Y-75540000D02*
X121440000Y-81510000D01*
X121440000Y-81510000D02*
X134060000Y-81510000D01*
X121450000Y-75550000D02*
X121450000Y-76300000D01*
X121450000Y-76300000D02*
X123250000Y-76300000D01*
X121450000Y-77800000D02*
X122200000Y-77800000D01*
X122200000Y-77800000D02*
X122200000Y-80750000D01*
X122200000Y-80750000D02*
X127750000Y-80750000D01*
X122400000Y-75250000D02*
X121150000Y-75250000D01*
X123250000Y-75550000D02*
X121450000Y-75550000D01*
X123250000Y-76300000D02*
X123250000Y-75550000D01*
X124750000Y-75550000D02*
X124750000Y-76300000D01*
X124750000Y-76300000D02*
X130750000Y-76300000D01*
X130750000Y-75550000D02*
X124750000Y-75550000D01*
X130750000Y-76300000D02*
X130750000Y-75550000D01*
X132250000Y-75550000D02*
X132250000Y-76300000D01*
X132250000Y-76300000D02*
X134050000Y-76300000D01*
X133300000Y-77800000D02*
X133300000Y-80750000D01*
X133300000Y-80750000D02*
X127750000Y-80750000D01*
X134050000Y-75550000D02*
X132250000Y-75550000D01*
X134050000Y-76300000D02*
X134050000Y-75550000D01*
X134050000Y-77800000D02*
X133300000Y-77800000D01*
X134060000Y-75540000D02*
X121440000Y-75540000D01*
X134060000Y-81510000D02*
X134060000Y-75540000D01*
%TO.C,C3*%
X180880000Y-84130000D02*
X180880000Y-84445000D01*
X180880000Y-84130000D02*
X186120000Y-84130000D01*
X180880000Y-86555000D02*
X180880000Y-86870000D01*
X180880000Y-86870000D02*
X186120000Y-86870000D01*
X186120000Y-84130000D02*
X186120000Y-84445000D01*
X186120000Y-86555000D02*
X186120000Y-86870000D01*
%TO.C,J16*%
X139150000Y-75250000D02*
X139150000Y-76500000D01*
X139440000Y-75540000D02*
X139440000Y-81510000D01*
X139440000Y-81510000D02*
X152060000Y-81510000D01*
X139450000Y-75550000D02*
X139450000Y-76300000D01*
X139450000Y-76300000D02*
X141250000Y-76300000D01*
X139450000Y-77800000D02*
X140200000Y-77800000D01*
X140200000Y-77800000D02*
X140200000Y-80750000D01*
X140200000Y-80750000D02*
X145750000Y-80750000D01*
X140400000Y-75250000D02*
X139150000Y-75250000D01*
X141250000Y-75550000D02*
X139450000Y-75550000D01*
X141250000Y-76300000D02*
X141250000Y-75550000D01*
X142750000Y-75550000D02*
X142750000Y-76300000D01*
X142750000Y-76300000D02*
X148750000Y-76300000D01*
X148750000Y-75550000D02*
X142750000Y-75550000D01*
X148750000Y-76300000D02*
X148750000Y-75550000D01*
X150250000Y-75550000D02*
X150250000Y-76300000D01*
X150250000Y-76300000D02*
X152050000Y-76300000D01*
X151300000Y-77800000D02*
X151300000Y-80750000D01*
X151300000Y-80750000D02*
X145750000Y-80750000D01*
X152050000Y-75550000D02*
X150250000Y-75550000D01*
X152050000Y-76300000D02*
X152050000Y-75550000D01*
X152050000Y-77800000D02*
X151300000Y-77800000D01*
X152060000Y-75540000D02*
X139440000Y-75540000D01*
X152060000Y-81510000D02*
X152060000Y-75540000D01*
%TO.C,J10*%
X121150000Y-56250000D02*
X121150000Y-57500000D01*
X121440000Y-56540000D02*
X121440000Y-62510000D01*
X121440000Y-62510000D02*
X134060000Y-62510000D01*
X121450000Y-56550000D02*
X121450000Y-57300000D01*
X121450000Y-57300000D02*
X123250000Y-57300000D01*
X121450000Y-58800000D02*
X122200000Y-58800000D01*
X122200000Y-58800000D02*
X122200000Y-61750000D01*
X122200000Y-61750000D02*
X127750000Y-61750000D01*
X122400000Y-56250000D02*
X121150000Y-56250000D01*
X123250000Y-56550000D02*
X121450000Y-56550000D01*
X123250000Y-57300000D02*
X123250000Y-56550000D01*
X124750000Y-56550000D02*
X124750000Y-57300000D01*
X124750000Y-57300000D02*
X130750000Y-57300000D01*
X130750000Y-56550000D02*
X124750000Y-56550000D01*
X130750000Y-57300000D02*
X130750000Y-56550000D01*
X132250000Y-56550000D02*
X132250000Y-57300000D01*
X132250000Y-57300000D02*
X134050000Y-57300000D01*
X133300000Y-58800000D02*
X133300000Y-61750000D01*
X133300000Y-61750000D02*
X127750000Y-61750000D01*
X134050000Y-56550000D02*
X132250000Y-56550000D01*
X134050000Y-57300000D02*
X134050000Y-56550000D01*
X134050000Y-58800000D02*
X133300000Y-58800000D01*
X134060000Y-56540000D02*
X121440000Y-56540000D01*
X134060000Y-62510000D02*
X134060000Y-56540000D01*
%TO.C,J2*%
X144390000Y-50530000D02*
X144390000Y-49200000D01*
X145720000Y-50530000D02*
X144390000Y-50530000D01*
X146990000Y-50530000D02*
X164830000Y-50530000D01*
X146990000Y-50530000D02*
X146990000Y-47870000D01*
X164830000Y-50530000D02*
X164830000Y-47870000D01*
X146990000Y-47870000D02*
X164830000Y-47870000D01*
%TO.C,R1*%
X182540000Y-76130000D02*
X189080000Y-76130000D01*
X182540000Y-76460000D02*
X182540000Y-76130000D01*
X182540000Y-78540000D02*
X182540000Y-78870000D01*
X182540000Y-78870000D02*
X189080000Y-78870000D01*
X189080000Y-76130000D02*
X189080000Y-76460000D01*
X189080000Y-78870000D02*
X189080000Y-78540000D01*
%TO.C,J3*%
X167249999Y-50530000D02*
X167249999Y-49200000D01*
X168579999Y-50530000D02*
X167249999Y-50530000D01*
X169849999Y-50530000D02*
X187689999Y-50530000D01*
X169849999Y-50530000D02*
X169849999Y-47870000D01*
X187689999Y-50530000D02*
X187689999Y-47870000D01*
X169849999Y-47870000D02*
X187689999Y-47870000D01*
%TO.C,J17*%
X139150000Y-84750000D02*
X139150000Y-86000000D01*
X139440000Y-85040000D02*
X139440000Y-91010000D01*
X139440000Y-91010000D02*
X152060000Y-91010000D01*
X139450000Y-85050000D02*
X139450000Y-85800000D01*
X139450000Y-85800000D02*
X141250000Y-85800000D01*
X139450000Y-87300000D02*
X140200000Y-87300000D01*
X140200000Y-87300000D02*
X140200000Y-90250000D01*
X140200000Y-90250000D02*
X145750000Y-90250000D01*
X140400000Y-84750000D02*
X139150000Y-84750000D01*
X141250000Y-85050000D02*
X139450000Y-85050000D01*
X141250000Y-85800000D02*
X141250000Y-85050000D01*
X142750000Y-85050000D02*
X142750000Y-85800000D01*
X142750000Y-85800000D02*
X148750000Y-85800000D01*
X148750000Y-85050000D02*
X142750000Y-85050000D01*
X148750000Y-85800000D02*
X148750000Y-85050000D01*
X150250000Y-85050000D02*
X150250000Y-85800000D01*
X150250000Y-85800000D02*
X152050000Y-85800000D01*
X151300000Y-87300000D02*
X151300000Y-90250000D01*
X151300000Y-90250000D02*
X145750000Y-90250000D01*
X152050000Y-85050000D02*
X150250000Y-85050000D01*
X152050000Y-85800000D02*
X152050000Y-85050000D01*
X152050000Y-87300000D02*
X151300000Y-87300000D01*
X152060000Y-85040000D02*
X139440000Y-85040000D01*
X152060000Y-91010000D02*
X152060000Y-85040000D01*
%TD*%
%LPC*%
D13*
%TO.C,R2*%
X178000000Y-92500000D03*
D14*
X185620000Y-92500000D03*
%TD*%
D15*
%TO.C,H2*%
X115240000Y-49200000D03*
%TD*%
D16*
%TO.C,J1*%
X127940000Y-97460000D03*
D17*
X130480000Y-97460000D03*
X133020000Y-97460000D03*
X135560000Y-97460000D03*
X138100000Y-97460000D03*
X140640000Y-97460000D03*
X143180000Y-97460000D03*
X145720000Y-97460000D03*
%TD*%
D18*
%TO.C,J13*%
X124000000Y-87500000D03*
D19*
X126500000Y-87500000D03*
X129000000Y-87500000D03*
X131500000Y-87500000D03*
%TD*%
D13*
%TO.C,C1*%
X182000000Y-70500000D03*
X187000000Y-70500000D03*
%TD*%
D15*
%TO.C,H1*%
X113970000Y-97460000D03*
%TD*%
D18*
%TO.C,J20*%
X173000000Y-57500000D03*
D19*
X175500000Y-57500000D03*
X178000000Y-57500000D03*
X180500000Y-57500000D03*
%TD*%
D16*
%TO.C,J4*%
X193980000Y-49200000D03*
D17*
X196520000Y-49200000D03*
X193980000Y-51740000D03*
X196520000Y-51740000D03*
X193980000Y-54280000D03*
X196520000Y-54280000D03*
X193980000Y-56820000D03*
X196520000Y-56820000D03*
X193980000Y-59360000D03*
X196520000Y-59360000D03*
X193980000Y-61900000D03*
X196520000Y-61900000D03*
X193980000Y-64440000D03*
X196520000Y-64440000D03*
X193980000Y-66980000D03*
X196520000Y-66980000D03*
X193980000Y-69520000D03*
X196520000Y-69520000D03*
X193980000Y-72060000D03*
X196520000Y-72060000D03*
X193980000Y-74600000D03*
X196520000Y-74600000D03*
X193980000Y-77140000D03*
X196520000Y-77140000D03*
X193980000Y-79680000D03*
X196520000Y-79680000D03*
X193980000Y-82220000D03*
X196520000Y-82220000D03*
X193980000Y-84760000D03*
X196520000Y-84760000D03*
X193980000Y-87300000D03*
X196520000Y-87300000D03*
X193980000Y-89840000D03*
X196520000Y-89840000D03*
X193980000Y-92380000D03*
X196520000Y-92380000D03*
%TD*%
D20*
%TO.C,J22*%
X173000000Y-77500000D03*
D21*
X175500000Y-77500000D03*
%TD*%
D15*
%TO.C,H4*%
X166040000Y-64440000D03*
%TD*%
%TO.C,H3*%
X166040000Y-92380000D03*
%TD*%
D18*
%TO.C,J15*%
X142000000Y-68500000D03*
D19*
X144500000Y-68500000D03*
X147000000Y-68500000D03*
X149500000Y-68500000D03*
%TD*%
D18*
%TO.C,J21*%
X173000000Y-67000000D03*
D19*
X175500000Y-67000000D03*
X178000000Y-67000000D03*
%TD*%
D22*
%TO.C,D1*%
X172000000Y-92500000D03*
D23*
X174540000Y-92500000D03*
%TD*%
D18*
%TO.C,J14*%
X142000000Y-59000000D03*
D19*
X144500000Y-59000000D03*
X147000000Y-59000000D03*
X149500000Y-59000000D03*
%TD*%
D24*
%TO.C,C2*%
X173000000Y-85500000D03*
D13*
X175500000Y-85500000D03*
%TD*%
D18*
%TO.C,J11*%
X124000000Y-68500000D03*
D19*
X126500000Y-68500000D03*
X129000000Y-68500000D03*
X131500000Y-68500000D03*
%TD*%
D18*
%TO.C,J12*%
X124000000Y-78000000D03*
D19*
X126500000Y-78000000D03*
X129000000Y-78000000D03*
X131500000Y-78000000D03*
%TD*%
D13*
%TO.C,C3*%
X181000000Y-85500000D03*
X186000000Y-85500000D03*
%TD*%
D18*
%TO.C,J16*%
X142000000Y-78000000D03*
D19*
X144500000Y-78000000D03*
X147000000Y-78000000D03*
X149500000Y-78000000D03*
%TD*%
D18*
%TO.C,J10*%
X124000000Y-59000000D03*
D19*
X126500000Y-59000000D03*
X129000000Y-59000000D03*
X131500000Y-59000000D03*
%TD*%
D16*
%TO.C,J2*%
X145720000Y-49200000D03*
D17*
X148260000Y-49200000D03*
X150800000Y-49200000D03*
X153340000Y-49200000D03*
X155880000Y-49200000D03*
X158420000Y-49200000D03*
X160960000Y-49200000D03*
X163500000Y-49200000D03*
%TD*%
D13*
%TO.C,R1*%
X182000000Y-77500000D03*
D14*
X189620000Y-77500000D03*
%TD*%
D16*
%TO.C,J3*%
X168579999Y-49200000D03*
D17*
X171119999Y-49200000D03*
X173659999Y-49200000D03*
X176199999Y-49200000D03*
X178739999Y-49200000D03*
X181279999Y-49200000D03*
X183819999Y-49200000D03*
X186359999Y-49200000D03*
%TD*%
D18*
%TO.C,J17*%
X142000000Y-87500000D03*
D19*
X144500000Y-87500000D03*
X147000000Y-87500000D03*
X149500000Y-87500000D03*
%TD*%
%LPD*%
M02*
