%TF.GenerationSoftware,KiCad,Pcbnew,7.0.11+dfsg-1build4*%
%TF.CreationDate,2026-10-07T18:56:29+00:00*%
%TF.ProjectId,shield_jambes,73686965-6c64-45f6-9a61-6d6265732e6b,rev?*%
%TF.SameCoordinates,Original*%
%TF.FileFunction,Copper,L1,Top*%
%TF.FilePolarity,Positive*%
%FSLAX46Y46*%
G04 Gerber Fmt 4.6, Leading zero omitted, Abs format (unit mm)*
G04 Created by KiCad (PCBNEW 7.0.11+dfsg-1build4) date 2026-10-07 18:56:29*
%MOMM*%
%LPD*%
G01*
G04 APERTURE LIST*
G04 Aperture macros list*
%AMRoundRect*
0 Rectangle with rounded corners*
0 $1 Rounding radius*
0 $2 $3 $4 $5 $6 $7 $8 $9 X,Y pos of 4 corners*
0 Add a 4 corners polygon primitive as box body*
4,1,4,$2,$3,$4,$5,$6,$7,$8,$9,$2,$3,0*
0 Add four circle primitives for the rounded corners*
1,1,$1+$1,$2,$3*
1,1,$1+$1,$4,$5*
1,1,$1+$1,$6,$7*
1,1,$1+$1,$8,$9*
0 Add four rect primitives between the rounded corners*
20,1,$1+$1,$2,$3,$4,$5,0*
20,1,$1+$1,$4,$5,$6,$7,0*
20,1,$1+$1,$6,$7,$8,$9,0*
20,1,$1+$1,$8,$9,$2,$3,0*%
G04 Aperture macros list end*
%TA.AperFunction,ComponentPad*%
%ADD10C,1.600000*%
%TD*%
%TA.AperFunction,ComponentPad*%
%ADD11O,1.600000X1.600000*%
%TD*%
%TA.AperFunction,ComponentPad*%
%ADD12R,1.700000X1.700000*%
%TD*%
%TA.AperFunction,ComponentPad*%
%ADD13O,1.700000X1.700000*%
%TD*%
%TA.AperFunction,ComponentPad*%
%ADD14RoundRect,0.250000X-0.600000X-0.725000X0.600000X-0.725000X0.600000X0.725000X-0.600000X0.725000X0*%
%TD*%
%TA.AperFunction,ComponentPad*%
%ADD15O,1.700000X1.950000*%
%TD*%
%TA.AperFunction,ComponentPad*%
%ADD16RoundRect,0.250000X-0.600000X-0.750000X0.600000X-0.750000X0.600000X0.750000X-0.600000X0.750000X0*%
%TD*%
%TA.AperFunction,ComponentPad*%
%ADD17O,1.700000X2.000000*%
%TD*%
%TA.AperFunction,ComponentPad*%
%ADD18R,1.800000X1.800000*%
%TD*%
%TA.AperFunction,ComponentPad*%
%ADD19C,1.800000*%
%TD*%
%TA.AperFunction,ComponentPad*%
%ADD20R,1.600000X1.600000*%
%TD*%
%TA.AperFunction,ViaPad*%
%ADD21C,0.800000*%
%TD*%
%TA.AperFunction,Conductor*%
%ADD22C,0.400000*%
%TD*%
%TA.AperFunction,Conductor*%
%ADD23C,0.300000*%
%TD*%
%TA.AperFunction,Conductor*%
%ADD24C,0.200000*%
%TD*%
G04 APERTURE END LIST*
D10*
%TO.P,R2,1*%
%TO.N,LED_A*%
X178000000Y-92500000D03*
D11*
%TO.P,R2,2*%
%TO.N,+5V*%
X185620000Y-92500000D03*
%TD*%
D12*
%TO.P,J1,1*%
%TO.N,N/C*%
X127940000Y-97460000D03*
D13*
%TO.P,J1,2*%
X130480000Y-97460000D03*
%TO.P,J1,3*%
X133020000Y-97460000D03*
%TO.P,J1,4*%
X135560000Y-97460000D03*
%TO.P,J1,5*%
%TO.N,+5V*%
X138100000Y-97460000D03*
%TO.P,J1,6*%
%TO.N,GND*%
X140640000Y-97460000D03*
%TO.P,J1,7*%
X143180000Y-97460000D03*
%TO.P,J1,8*%
%TO.N,N/C*%
X145720000Y-97460000D03*
%TD*%
D14*
%TO.P,J13,1*%
%TO.N,GND*%
X124000000Y-87500000D03*
D15*
%TO.P,J13,2*%
%TO.N,HX3_DT*%
X126500000Y-87500000D03*
%TO.P,J13,3*%
%TO.N,HX3_SCK*%
X129000000Y-87500000D03*
%TO.P,J13,4*%
%TO.N,+5V*%
X131500000Y-87500000D03*
%TD*%
D10*
%TO.P,C1,1*%
%TO.N,ARRET*%
X182000000Y-70500000D03*
%TO.P,C1,2*%
%TO.N,GND*%
X187000000Y-70500000D03*
%TD*%
D14*
%TO.P,J20,1*%
%TO.N,GND*%
X173000000Y-57500000D03*
D15*
%TO.P,J20,2*%
%TO.N,+5V*%
X175500000Y-57500000D03*
%TO.P,J20,3*%
%TO.N,SDA*%
X178000000Y-57500000D03*
%TO.P,J20,4*%
%TO.N,SCL*%
X180500000Y-57500000D03*
%TD*%
D12*
%TO.P,J4,1*%
%TO.N,+5V*%
X193980000Y-49200000D03*
D13*
%TO.P,J4,2*%
X196520000Y-49200000D03*
%TO.P,J4,3*%
%TO.N,HX0_DT*%
X193980000Y-51740000D03*
%TO.P,J4,4*%
%TO.N,HX0_SCK*%
X196520000Y-51740000D03*
%TO.P,J4,5*%
%TO.N,HX1_DT*%
X193980000Y-54280000D03*
%TO.P,J4,6*%
%TO.N,HX1_SCK*%
X196520000Y-54280000D03*
%TO.P,J4,7*%
%TO.N,HX2_DT*%
X193980000Y-56820000D03*
%TO.P,J4,8*%
%TO.N,HX2_SCK*%
X196520000Y-56820000D03*
%TO.P,J4,9*%
%TO.N,HX3_DT*%
X193980000Y-59360000D03*
%TO.P,J4,10*%
%TO.N,HX3_SCK*%
X196520000Y-59360000D03*
%TO.P,J4,11*%
%TO.N,HX4_DT*%
X193980000Y-61900000D03*
%TO.P,J4,12*%
%TO.N,HX4_SCK*%
X196520000Y-61900000D03*
%TO.P,J4,13*%
%TO.N,HX5_DT*%
X193980000Y-64440000D03*
%TO.P,J4,14*%
%TO.N,HX5_SCK*%
X196520000Y-64440000D03*
%TO.P,J4,15*%
%TO.N,HX6_DT*%
X193980000Y-66980000D03*
%TO.P,J4,16*%
%TO.N,HX6_SCK*%
X196520000Y-66980000D03*
%TO.P,J4,17*%
%TO.N,HX7_DT*%
X193980000Y-69520000D03*
%TO.P,J4,18*%
%TO.N,HX7_SCK*%
X196520000Y-69520000D03*
%TO.P,J4,19*%
%TO.N,N/C*%
X193980000Y-72060000D03*
%TO.P,J4,20*%
X196520000Y-72060000D03*
%TO.P,J4,21*%
X193980000Y-74600000D03*
%TO.P,J4,22*%
X196520000Y-74600000D03*
%TO.P,J4,23*%
X193980000Y-77140000D03*
%TO.P,J4,24*%
X196520000Y-77140000D03*
%TO.P,J4,25*%
X193980000Y-79680000D03*
%TO.P,J4,26*%
X196520000Y-79680000D03*
%TO.P,J4,27*%
X193980000Y-82220000D03*
%TO.P,J4,28*%
X196520000Y-82220000D03*
%TO.P,J4,29*%
X193980000Y-84760000D03*
%TO.P,J4,30*%
X196520000Y-84760000D03*
%TO.P,J4,31*%
X193980000Y-87300000D03*
%TO.P,J4,32*%
X196520000Y-87300000D03*
%TO.P,J4,33*%
X193980000Y-89840000D03*
%TO.P,J4,34*%
X196520000Y-89840000D03*
%TO.P,J4,35*%
%TO.N,GND*%
X193980000Y-92380000D03*
%TO.P,J4,36*%
X196520000Y-92380000D03*
%TD*%
D16*
%TO.P,J22,1*%
%TO.N,ARRET*%
X173000000Y-77500000D03*
D17*
%TO.P,J22,2*%
%TO.N,GND*%
X175500000Y-77500000D03*
%TD*%
D14*
%TO.P,J15,1*%
%TO.N,GND*%
X142000000Y-68500000D03*
D15*
%TO.P,J15,2*%
%TO.N,HX5_DT*%
X144500000Y-68500000D03*
%TO.P,J15,3*%
%TO.N,HX5_SCK*%
X147000000Y-68500000D03*
%TO.P,J15,4*%
%TO.N,+5V*%
X149500000Y-68500000D03*
%TD*%
D14*
%TO.P,J21,1*%
%TO.N,TX1*%
X173000000Y-67000000D03*
D15*
%TO.P,J21,2*%
%TO.N,RX1*%
X175500000Y-67000000D03*
%TO.P,J21,3*%
%TO.N,GND*%
X178000000Y-67000000D03*
%TD*%
D18*
%TO.P,D1,1*%
%TO.N,GND*%
X172000000Y-92500000D03*
D19*
%TO.P,D1,2*%
%TO.N,LED_A*%
X174540000Y-92500000D03*
%TD*%
D14*
%TO.P,J14,1*%
%TO.N,GND*%
X142000000Y-59000000D03*
D15*
%TO.P,J14,2*%
%TO.N,HX4_DT*%
X144500000Y-59000000D03*
%TO.P,J14,3*%
%TO.N,HX4_SCK*%
X147000000Y-59000000D03*
%TO.P,J14,4*%
%TO.N,+5V*%
X149500000Y-59000000D03*
%TD*%
D20*
%TO.P,C2,1*%
%TO.N,+5V*%
X173000000Y-85500000D03*
D10*
%TO.P,C2,2*%
%TO.N,GND*%
X175500000Y-85500000D03*
%TD*%
D14*
%TO.P,J11,1*%
%TO.N,GND*%
X124000000Y-68500000D03*
D15*
%TO.P,J11,2*%
%TO.N,HX1_DT*%
X126500000Y-68500000D03*
%TO.P,J11,3*%
%TO.N,HX1_SCK*%
X129000000Y-68500000D03*
%TO.P,J11,4*%
%TO.N,+5V*%
X131500000Y-68500000D03*
%TD*%
D14*
%TO.P,J12,1*%
%TO.N,GND*%
X124000000Y-78000000D03*
D15*
%TO.P,J12,2*%
%TO.N,HX2_DT*%
X126500000Y-78000000D03*
%TO.P,J12,3*%
%TO.N,HX2_SCK*%
X129000000Y-78000000D03*
%TO.P,J12,4*%
%TO.N,+5V*%
X131500000Y-78000000D03*
%TD*%
D10*
%TO.P,C3,1*%
%TO.N,+5V*%
X181000000Y-85500000D03*
%TO.P,C3,2*%
%TO.N,GND*%
X186000000Y-85500000D03*
%TD*%
D14*
%TO.P,J16,1*%
%TO.N,GND*%
X142000000Y-78000000D03*
D15*
%TO.P,J16,2*%
%TO.N,HX6_DT*%
X144500000Y-78000000D03*
%TO.P,J16,3*%
%TO.N,HX6_SCK*%
X147000000Y-78000000D03*
%TO.P,J16,4*%
%TO.N,+5V*%
X149500000Y-78000000D03*
%TD*%
D14*
%TO.P,J10,1*%
%TO.N,GND*%
X124000000Y-59000000D03*
D15*
%TO.P,J10,2*%
%TO.N,HX0_DT*%
X126500000Y-59000000D03*
%TO.P,J10,3*%
%TO.N,HX0_SCK*%
X129000000Y-59000000D03*
%TO.P,J10,4*%
%TO.N,+5V*%
X131500000Y-59000000D03*
%TD*%
D12*
%TO.P,J2,1*%
%TO.N,N/C*%
X145720000Y-49200000D03*
D13*
%TO.P,J2,2*%
X148260000Y-49200000D03*
%TO.P,J2,3*%
X150800000Y-49200000D03*
%TO.P,J2,4*%
X153340000Y-49200000D03*
%TO.P,J2,5*%
X155880000Y-49200000D03*
%TO.P,J2,6*%
%TO.N,ARRET*%
X158420000Y-49200000D03*
%TO.P,J2,7*%
%TO.N,N/C*%
X160960000Y-49200000D03*
%TO.P,J2,8*%
X163500000Y-49200000D03*
%TD*%
D10*
%TO.P,R1,1*%
%TO.N,+5V*%
X182000000Y-77500000D03*
D11*
%TO.P,R1,2*%
%TO.N,ARRET*%
X189620000Y-77500000D03*
%TD*%
D12*
%TO.P,J3,1*%
%TO.N,N/C*%
X168579999Y-49200000D03*
D13*
%TO.P,J3,2*%
X171119999Y-49200000D03*
%TO.P,J3,3*%
X173659999Y-49200000D03*
%TO.P,J3,4*%
X176199999Y-49200000D03*
%TO.P,J3,5*%
%TO.N,TX1*%
X178739999Y-49200000D03*
%TO.P,J3,6*%
%TO.N,RX1*%
X181279999Y-49200000D03*
%TO.P,J3,7*%
%TO.N,SDA*%
X183819999Y-49200000D03*
%TO.P,J3,8*%
%TO.N,SCL*%
X186359999Y-49200000D03*
%TD*%
D14*
%TO.P,J17,1*%
%TO.N,GND*%
X142000000Y-87500000D03*
D15*
%TO.P,J17,2*%
%TO.N,HX7_DT*%
X144500000Y-87500000D03*
%TO.P,J17,3*%
%TO.N,HX7_SCK*%
X147000000Y-87500000D03*
%TO.P,J17,4*%
%TO.N,+5V*%
X149500000Y-87500000D03*
%TD*%
D21*
%TO.N,+5V*%
X181010000Y-50950000D03*
%TO.N,HX1_SCK*%
X133146400Y-47365400D03*
X132260899Y-66939900D03*
%TO.N,HX2_SCK*%
X180977300Y-63990000D03*
%TO.N,HX3_DT*%
X178882000Y-70176900D03*
%TO.N,HX3_SCK*%
X199261100Y-59477900D03*
%TO.N,HX5_SCK*%
X150312700Y-66389900D03*
X191992900Y-94201600D03*
%TO.N,HX6_SCK*%
X148692100Y-84058000D03*
%TD*%
D22*
%TO.N,+5V*%
X179745700Y-84245700D02*
X181000000Y-85500000D01*
X174254300Y-84245700D02*
X179745700Y-84245700D01*
X193980000Y-49200000D02*
X192678100Y-49200000D01*
X174000000Y-59000000D02*
X149500000Y-59000000D01*
X192678100Y-49200000D02*
X190928100Y-50950000D01*
X173000000Y-85500000D02*
X152801900Y-85500000D01*
X131500000Y-78000000D02*
X132801900Y-78000000D01*
X173000000Y-85500000D02*
X174254300Y-84245700D01*
X190928100Y-50950000D02*
X181010000Y-50950000D01*
X147393300Y-80106700D02*
X149500000Y-78000000D01*
X132801900Y-87500000D02*
X132801900Y-82213400D01*
X132801900Y-78000000D02*
X134908600Y-80106700D01*
X134908600Y-80106700D02*
X147393300Y-80106700D01*
X175500000Y-57500000D02*
X174000000Y-59000000D01*
X131500000Y-87500000D02*
X132801900Y-87500000D01*
X132801900Y-82213400D02*
X134908600Y-80106700D01*
X152801900Y-85500000D02*
X150801900Y-87500000D01*
X196520000Y-49200000D02*
X193980000Y-49200000D01*
X149500000Y-87500000D02*
X150801900Y-87500000D01*
%TO.N,GND*%
X196520000Y-92380000D02*
X193980000Y-92380000D01*
X142000000Y-59000000D02*
X143500000Y-57500000D01*
X143180000Y-97460000D02*
X140640000Y-97460000D01*
X143500000Y-57500000D02*
X173000000Y-57500000D01*
%TO.N,ARRET*%
X173000000Y-77500000D02*
X180000000Y-70500000D01*
X180000000Y-70500000D02*
X182000000Y-70500000D01*
%TO.N,HX0_DT*%
X126500000Y-59000000D02*
X127936500Y-60436500D01*
X192616200Y-51801900D02*
X192678100Y-51740000D01*
X193980000Y-51740000D02*
X192678100Y-51740000D01*
X140664200Y-51801900D02*
X192616200Y-51801900D01*
X132029600Y-60436500D02*
X140664200Y-51801900D01*
X127936500Y-60436500D02*
X132029600Y-60436500D01*
%TO.N,HX0_SCK*%
X197850500Y-48679500D02*
X197850500Y-50409500D01*
X140101900Y-47898100D02*
X197069100Y-47898100D01*
X129000000Y-59000000D02*
X140101900Y-47898100D01*
X197069100Y-47898100D02*
X197850500Y-48679500D01*
X197850500Y-50409500D02*
X196520000Y-51740000D01*
%TO.N,HX1_DT*%
X140719900Y-54280100D02*
X192678100Y-54280100D01*
X192678100Y-54280100D02*
X192678100Y-54280000D01*
X193980000Y-54280000D02*
X192678100Y-54280000D01*
X126500000Y-68500000D02*
X140719900Y-54280100D01*
%TO.N,HX1_SCK*%
X197538300Y-47445500D02*
X198522500Y-48429700D01*
X129000000Y-68500000D02*
X130560100Y-66939900D01*
D23*
X133146400Y-47247700D02*
X197340500Y-47247700D01*
D22*
X198522500Y-48429700D02*
X198522500Y-52277500D01*
X130560100Y-66939900D02*
X131224500Y-66939900D01*
D23*
X131224500Y-66939900D02*
X132260899Y-66939900D01*
D22*
X198522500Y-52277500D02*
X196520000Y-54280000D01*
X133146400Y-47365400D02*
X133146400Y-47247700D01*
D23*
X197340500Y-47247700D02*
X197538300Y-47445500D01*
D22*
%TO.N,HX2_DT*%
X191924000Y-56065900D02*
X142558300Y-56065900D01*
X136326600Y-62297600D02*
X136326600Y-68173400D01*
X136326600Y-68173400D02*
X126500000Y-78000000D01*
X142558300Y-56065900D02*
X136326600Y-62297600D01*
X192678100Y-56820000D02*
X191924000Y-56065900D01*
X193980000Y-56820000D02*
X192678100Y-56820000D01*
%TO.N,HX2_SCK*%
X135803800Y-71196200D02*
X149464800Y-71196200D01*
X149464800Y-71196200D02*
X151386000Y-69275000D01*
X151386000Y-69275000D02*
X166731300Y-69275000D01*
X172016300Y-63990000D02*
X180977300Y-63990000D01*
X129000000Y-78000000D02*
X135803800Y-71196200D01*
X166731300Y-69275000D02*
X172016300Y-63990000D01*
%TO.N,HX3_DT*%
X158571500Y-72335000D02*
X148620600Y-82285900D01*
X176723900Y-72335000D02*
X158571500Y-72335000D01*
X144895300Y-82285900D02*
X138219600Y-88961600D01*
X178882000Y-70176900D02*
X176723900Y-72335000D01*
X148620600Y-82285900D02*
X144895300Y-82285900D01*
X127961600Y-88961600D02*
X126500000Y-87500000D01*
X138219600Y-88961600D02*
X127961600Y-88961600D01*
%TO.N,HX3_SCK*%
X197939800Y-59477900D02*
X197821900Y-59360000D01*
X196520000Y-59360000D02*
X197821900Y-59360000D01*
X199261100Y-59477900D02*
X197939800Y-59477900D01*
%TO.N,HX4_DT*%
X191884300Y-61106200D02*
X146606200Y-61106200D01*
X146606200Y-61106200D02*
X144500000Y-59000000D01*
X192678100Y-61900000D02*
X191884300Y-61106200D01*
X193980000Y-61900000D02*
X192678100Y-61900000D01*
D23*
%TO.N,HX5_DT*%
X159218900Y-65588000D02*
X148961700Y-65588000D01*
D24*
X145930900Y-67399900D02*
X146257200Y-67073600D01*
X145473600Y-67399900D02*
X145930900Y-67399900D01*
D22*
X145473600Y-67526400D02*
X145473600Y-67399900D01*
X147241000Y-66089800D02*
X148459900Y-66089800D01*
D23*
X148961700Y-65588000D02*
X148459900Y-66089800D01*
D22*
X193980000Y-64440000D02*
X192678100Y-64440000D01*
X146257200Y-67073600D02*
X147241000Y-66089800D01*
X190331400Y-62093300D02*
X163717200Y-62093300D01*
X144500000Y-68500000D02*
X145473600Y-67526400D01*
D23*
X159720700Y-66089800D02*
X159218900Y-65588000D01*
D22*
X163717200Y-62093300D02*
X159720700Y-66089800D01*
X192678100Y-64440000D02*
X190331400Y-62093300D01*
%TO.N,HX5_SCK*%
X199234400Y-92839100D02*
X199234400Y-67154400D01*
X199234400Y-67154400D02*
X196520000Y-64440000D01*
D23*
X149628000Y-67074600D02*
X150312700Y-66389900D01*
D22*
X148394900Y-67105100D02*
X148394900Y-67074600D01*
X192167300Y-94376000D02*
X197697500Y-94376000D01*
X147000000Y-68500000D02*
X148394900Y-67105100D01*
D23*
X148394900Y-67074600D02*
X149628000Y-67074600D01*
D22*
X197697500Y-94376000D02*
X199234400Y-92839100D01*
X191992900Y-94201600D02*
X192167300Y-94376000D01*
%TO.N,HX6_DT*%
X171045200Y-70578800D02*
X171698600Y-69925400D01*
D23*
X173197600Y-68426400D02*
X171698600Y-69925400D01*
D22*
X193980000Y-66980000D02*
X192678100Y-66980000D01*
X144500000Y-78000000D02*
X151921200Y-70578800D01*
X191231700Y-68426400D02*
X179731900Y-68426400D01*
D23*
X179731900Y-68426400D02*
X173197600Y-68426400D01*
D22*
X151921200Y-70578800D02*
X171045200Y-70578800D01*
X192678100Y-66980000D02*
X191231700Y-68426400D01*
%TO.N,HX6_SCK*%
X193923300Y-93702200D02*
X193901400Y-93724100D01*
X192010900Y-93329600D02*
X182269500Y-83588200D01*
D23*
X197471300Y-93680400D02*
X193945100Y-93680400D01*
D22*
X198548800Y-69008800D02*
X198548800Y-92190200D01*
D23*
X193945100Y-93680400D02*
X193923300Y-93702200D01*
D22*
X182269500Y-83588200D02*
X149161900Y-83588200D01*
X193901400Y-93724100D02*
X193485100Y-93724100D01*
X197590300Y-93561400D02*
X197471300Y-93680400D01*
D23*
X198548800Y-92190200D02*
X197590300Y-93148700D01*
D22*
X197590300Y-93355100D02*
X197590300Y-93561400D01*
X149161900Y-83588200D02*
X148692100Y-84058000D01*
D23*
X197590300Y-93148700D02*
X197590300Y-93355100D01*
D22*
X196520000Y-66980000D02*
X198548800Y-69008800D01*
D23*
X193485100Y-93724100D02*
X193090600Y-93329600D01*
X193090600Y-93329600D02*
X192707000Y-93329600D01*
D22*
X192707000Y-93329600D02*
X192010900Y-93329600D01*
%TO.N,HX7_DT*%
X149542400Y-82285900D02*
X148890500Y-82937800D01*
X193980000Y-69520000D02*
X192678100Y-69520000D01*
X179912200Y-82285900D02*
X149542400Y-82285900D01*
X148890500Y-82937800D02*
X147635300Y-82937800D01*
X144500000Y-87500000D02*
X144500000Y-86073100D01*
X192678100Y-69520000D02*
X179912200Y-82285900D01*
X147635300Y-82937800D02*
X144500000Y-86073100D01*
%TO.N,LED_A*%
X174540000Y-92500000D02*
X178000000Y-92500000D01*
%TD*%
%TA.AperFunction,Conductor*%
%TO.N,GND*%
G36*
X142720507Y-97250156D02*
G01*
X142680000Y-97388111D01*
X142680000Y-97531889D01*
X142720507Y-97669844D01*
X142746314Y-97710000D01*
X141073686Y-97710000D01*
X141099493Y-97669844D01*
X141140000Y-97531889D01*
X141140000Y-97388111D01*
X141099493Y-97250156D01*
X141073686Y-97210000D01*
X142746314Y-97210000D01*
X142720507Y-97250156D01*
G37*
%TD.AperFunction*%
%TA.AperFunction,Conductor*%
G36*
X114827166Y-47179685D02*
G01*
X114872921Y-47232489D01*
X114882865Y-47301647D01*
X114853840Y-47365203D01*
X114795062Y-47402977D01*
X114787089Y-47405033D01*
X114705451Y-47423218D01*
X114705446Y-47423220D01*
X114452439Y-47519987D01*
X114216226Y-47652557D01*
X114001822Y-47818112D01*
X113813822Y-48013109D01*
X113813816Y-48013116D01*
X113656202Y-48233419D01*
X113656199Y-48233424D01*
X113532350Y-48474309D01*
X113532343Y-48474327D01*
X113444884Y-48730685D01*
X113444881Y-48730699D01*
X113395681Y-48997068D01*
X113395680Y-48997075D01*
X113385787Y-49267763D01*
X113415413Y-49537013D01*
X113415415Y-49537024D01*
X113483926Y-49799082D01*
X113483928Y-49799088D01*
X113589870Y-50048390D01*
X113709431Y-50244297D01*
X113730979Y-50279605D01*
X113730986Y-50279615D01*
X113904253Y-50487819D01*
X113904259Y-50487824D01*
X113992670Y-50567040D01*
X114105998Y-50668582D01*
X114331910Y-50818044D01*
X114577176Y-50933020D01*
X114577183Y-50933022D01*
X114577185Y-50933023D01*
X114836557Y-51011057D01*
X114836564Y-51011058D01*
X114836569Y-51011060D01*
X115104561Y-51050500D01*
X115104566Y-51050500D01*
X115307629Y-51050500D01*
X115307631Y-51050500D01*
X115307636Y-51050499D01*
X115307648Y-51050499D01*
X115345191Y-51047750D01*
X115510156Y-51035677D01*
X115622758Y-51010593D01*
X115774546Y-50976782D01*
X115774548Y-50976781D01*
X115774553Y-50976780D01*
X116027558Y-50880014D01*
X116263777Y-50747441D01*
X116478177Y-50581888D01*
X116666186Y-50386881D01*
X116823799Y-50166579D01*
X116920545Y-49978407D01*
X116947649Y-49925690D01*
X116947651Y-49925684D01*
X116947656Y-49925675D01*
X117035118Y-49669305D01*
X117084319Y-49402933D01*
X117094212Y-49132235D01*
X117064586Y-48862982D01*
X116996072Y-48600912D01*
X116890130Y-48351610D01*
X116749018Y-48120390D01*
X116725028Y-48091563D01*
X116575746Y-47912180D01*
X116575740Y-47912175D01*
X116374002Y-47731418D01*
X116148092Y-47581957D01*
X116148090Y-47581956D01*
X115902824Y-47466980D01*
X115902819Y-47466978D01*
X115902814Y-47466976D01*
X115689309Y-47402742D01*
X115630783Y-47364578D01*
X115602181Y-47300831D01*
X115612583Y-47231740D01*
X115658688Y-47179242D01*
X115725033Y-47160000D01*
X132325728Y-47160000D01*
X132392767Y-47179685D01*
X132438522Y-47232489D01*
X132448824Y-47298947D01*
X132440755Y-47365399D01*
X132461259Y-47534269D01*
X132461260Y-47534274D01*
X132521582Y-47693331D01*
X132574979Y-47770689D01*
X132618217Y-47833329D01*
X132704627Y-47909881D01*
X132745550Y-47946136D01*
X132873170Y-48013116D01*
X132896175Y-48025190D01*
X133061344Y-48065900D01*
X133231456Y-48065900D01*
X133396625Y-48025190D01*
X133476092Y-47983481D01*
X133547249Y-47946136D01*
X133547250Y-47946134D01*
X133547252Y-47946134D01*
X133674583Y-47833329D01*
X133730886Y-47751759D01*
X133785169Y-47707770D01*
X133832936Y-47698200D01*
X139294624Y-47698200D01*
X139361663Y-47717885D01*
X139407418Y-47770689D01*
X139417362Y-47839847D01*
X139388337Y-47903403D01*
X139382305Y-47909881D01*
X129526357Y-57765827D01*
X129465034Y-57799312D01*
X129395342Y-57794328D01*
X129393883Y-57793773D01*
X129316203Y-57763680D01*
X129316198Y-57763679D01*
X129106610Y-57724500D01*
X128893390Y-57724500D01*
X128683802Y-57763679D01*
X128683799Y-57763679D01*
X128683799Y-57763680D01*
X128484982Y-57840701D01*
X128484980Y-57840702D01*
X128303699Y-57952947D01*
X128146127Y-58096593D01*
X128017632Y-58266746D01*
X127922596Y-58457605D01*
X127922596Y-58457607D01*
X127869266Y-58645039D01*
X127831986Y-58704132D01*
X127768676Y-58733689D01*
X127699437Y-58724327D01*
X127646251Y-58679017D01*
X127630734Y-58645039D01*
X127615680Y-58592133D01*
X127577405Y-58457611D01*
X127577403Y-58457606D01*
X127577403Y-58457605D01*
X127482367Y-58266746D01*
X127353872Y-58096593D01*
X127196302Y-57952948D01*
X127015019Y-57840702D01*
X127015017Y-57840701D01*
X126908178Y-57799312D01*
X126816198Y-57763679D01*
X126606610Y-57724500D01*
X126393390Y-57724500D01*
X126183802Y-57763679D01*
X126183799Y-57763679D01*
X126183799Y-57763680D01*
X125984982Y-57840701D01*
X125984980Y-57840702D01*
X125803699Y-57952947D01*
X125646126Y-58096594D01*
X125563959Y-58205400D01*
X125507850Y-58247035D01*
X125438138Y-58251726D01*
X125376956Y-58217983D01*
X125343730Y-58156520D01*
X125341648Y-58143273D01*
X125339505Y-58122303D01*
X125284358Y-57955880D01*
X125284356Y-57955875D01*
X125192315Y-57806654D01*
X125068345Y-57682684D01*
X124919124Y-57590643D01*
X124919119Y-57590641D01*
X124752697Y-57535494D01*
X124752690Y-57535493D01*
X124649986Y-57525000D01*
X124250000Y-57525000D01*
X124250000Y-58591981D01*
X124135199Y-58539554D01*
X124033975Y-58525000D01*
X123966025Y-58525000D01*
X123864801Y-58539554D01*
X123750000Y-58591981D01*
X123750000Y-57525000D01*
X123350028Y-57525000D01*
X123350012Y-57525001D01*
X123247302Y-57535494D01*
X123080880Y-57590641D01*
X123080875Y-57590643D01*
X122931654Y-57682684D01*
X122807684Y-57806654D01*
X122715643Y-57955875D01*
X122715641Y-57955880D01*
X122660494Y-58122302D01*
X122660493Y-58122309D01*
X122650000Y-58225013D01*
X122650000Y-58750000D01*
X123596031Y-58750000D01*
X123563481Y-58800649D01*
X123525000Y-58931705D01*
X123525000Y-59068295D01*
X123563481Y-59199351D01*
X123596031Y-59250000D01*
X122650001Y-59250000D01*
X122650001Y-59774986D01*
X122660494Y-59877697D01*
X122715641Y-60044119D01*
X122715643Y-60044124D01*
X122807684Y-60193345D01*
X122931654Y-60317315D01*
X123080875Y-60409356D01*
X123080880Y-60409358D01*
X123247302Y-60464505D01*
X123247309Y-60464506D01*
X123350019Y-60474999D01*
X123749999Y-60474999D01*
X123750000Y-60474998D01*
X123750000Y-59408018D01*
X123864801Y-59460446D01*
X123966025Y-59475000D01*
X124033975Y-59475000D01*
X124135199Y-59460446D01*
X124250000Y-59408018D01*
X124250000Y-60474999D01*
X124649972Y-60474999D01*
X124649986Y-60474998D01*
X124752697Y-60464505D01*
X124919119Y-60409358D01*
X124919124Y-60409356D01*
X125068345Y-60317315D01*
X125192315Y-60193345D01*
X125284356Y-60044124D01*
X125284358Y-60044119D01*
X125339505Y-59877697D01*
X125339506Y-59877688D01*
X125341648Y-59856727D01*
X125368042Y-59792035D01*
X125425222Y-59751882D01*
X125495033Y-59749018D01*
X125555311Y-59784350D01*
X125563960Y-59794600D01*
X125626712Y-59877697D01*
X125646128Y-59903407D01*
X125803698Y-60047052D01*
X125984981Y-60159298D01*
X126183802Y-60236321D01*
X126393390Y-60275500D01*
X126393392Y-60275500D01*
X126606608Y-60275500D01*
X126606610Y-60275500D01*
X126816198Y-60236321D01*
X126893885Y-60206224D01*
X126963503Y-60200362D01*
X127025243Y-60233071D01*
X127026356Y-60234170D01*
X127535114Y-60742928D01*
X127551746Y-60763566D01*
X127554354Y-60767625D01*
X127554357Y-60767628D01*
X127591900Y-60800158D01*
X127598361Y-60806175D01*
X127607907Y-60815721D01*
X127607913Y-60815726D01*
X127607916Y-60815728D01*
X127618707Y-60823806D01*
X127625600Y-60829360D01*
X127663127Y-60861877D01*
X127667510Y-60863879D01*
X127690307Y-60877405D01*
X127694169Y-60880296D01*
X127740712Y-60897655D01*
X127748860Y-60901030D01*
X127776173Y-60913504D01*
X127794040Y-60921664D01*
X127794041Y-60921664D01*
X127794043Y-60921665D01*
X127798812Y-60922350D01*
X127824502Y-60928907D01*
X127829017Y-60930591D01*
X127878549Y-60934133D01*
X127887343Y-60935079D01*
X127900701Y-60937000D01*
X127914192Y-60937000D01*
X127923038Y-60937315D01*
X127972573Y-60940859D01*
X127977285Y-60939834D01*
X128003643Y-60937000D01*
X131962457Y-60937000D01*
X131988815Y-60939834D01*
X131993527Y-60940859D01*
X132043061Y-60937315D01*
X132051908Y-60937000D01*
X132065399Y-60937000D01*
X132078756Y-60935079D01*
X132087551Y-60934133D01*
X132137083Y-60930591D01*
X132141592Y-60928908D01*
X132167285Y-60922350D01*
X132172057Y-60921665D01*
X132217237Y-60901030D01*
X132225401Y-60897649D01*
X132271931Y-60880296D01*
X132275789Y-60877407D01*
X132298595Y-60863875D01*
X132302973Y-60861877D01*
X132340499Y-60829359D01*
X132347378Y-60823816D01*
X132358193Y-60815721D01*
X132367755Y-60806158D01*
X132374217Y-60800143D01*
X132411743Y-60767628D01*
X132414351Y-60763568D01*
X132430981Y-60742931D01*
X140835195Y-52338719D01*
X140896518Y-52305234D01*
X140922876Y-52302400D01*
X192549057Y-52302400D01*
X192575415Y-52305234D01*
X192580127Y-52306259D01*
X192629661Y-52302715D01*
X192638508Y-52302400D01*
X192651999Y-52302400D01*
X192665356Y-52300479D01*
X192674151Y-52299533D01*
X192723683Y-52295991D01*
X192728192Y-52294308D01*
X192753885Y-52287750D01*
X192758657Y-52287065D01*
X192803837Y-52266430D01*
X192811999Y-52263050D01*
X192828196Y-52257009D01*
X192897884Y-52252024D01*
X192959208Y-52285508D01*
X192982528Y-52317918D01*
X192997635Y-52348257D01*
X193092074Y-52473313D01*
X193126128Y-52518407D01*
X193283698Y-52662052D01*
X193464981Y-52774298D01*
X193663802Y-52851321D01*
X193860613Y-52888111D01*
X193922893Y-52919779D01*
X193958166Y-52980092D01*
X193955232Y-53049900D01*
X193915023Y-53107040D01*
X193860613Y-53131888D01*
X193663802Y-53168679D01*
X193663799Y-53168679D01*
X193663799Y-53168680D01*
X193464982Y-53245701D01*
X193464980Y-53245702D01*
X193283699Y-53357947D01*
X193126127Y-53501593D01*
X192997632Y-53671746D01*
X192978201Y-53710771D01*
X192930698Y-53762009D01*
X192867201Y-53779500D01*
X192597985Y-53779500D01*
X192596585Y-53779600D01*
X140787038Y-53779600D01*
X140760681Y-53776766D01*
X140755976Y-53775742D01*
X140755968Y-53775742D01*
X140706447Y-53779284D01*
X140697601Y-53779600D01*
X140684097Y-53779600D01*
X140670735Y-53781521D01*
X140661945Y-53782466D01*
X140612417Y-53786009D01*
X140612414Y-53786010D01*
X140607896Y-53787695D01*
X140582220Y-53794248D01*
X140577441Y-53794935D01*
X140532267Y-53815565D01*
X140524094Y-53818951D01*
X140477567Y-53836305D01*
X140477567Y-53836306D01*
X140473702Y-53839199D01*
X140450920Y-53852716D01*
X140446531Y-53854720D01*
X140446530Y-53854721D01*
X140446528Y-53854722D01*
X140446527Y-53854723D01*
X140437424Y-53862611D01*
X140408989Y-53887249D01*
X140402115Y-53892788D01*
X140391306Y-53900880D01*
X140391302Y-53900883D01*
X140381753Y-53910431D01*
X140375287Y-53916450D01*
X140337762Y-53948966D01*
X140337754Y-53948976D01*
X140335143Y-53953038D01*
X140318516Y-53973668D01*
X127026357Y-67265827D01*
X126965034Y-67299312D01*
X126895342Y-67294328D01*
X126893883Y-67293773D01*
X126816203Y-67263680D01*
X126816198Y-67263679D01*
X126606610Y-67224500D01*
X126393390Y-67224500D01*
X126183802Y-67263679D01*
X126183799Y-67263679D01*
X126183799Y-67263680D01*
X125984982Y-67340701D01*
X125984980Y-67340702D01*
X125803699Y-67452947D01*
X125646126Y-67596594D01*
X125563959Y-67705400D01*
X125507850Y-67747035D01*
X125438138Y-67751726D01*
X125376956Y-67717983D01*
X125343730Y-67656520D01*
X125341648Y-67643273D01*
X125339505Y-67622303D01*
X125284358Y-67455880D01*
X125284356Y-67455875D01*
X125192315Y-67306654D01*
X125068345Y-67182684D01*
X124919124Y-67090643D01*
X124919119Y-67090641D01*
X124752697Y-67035494D01*
X124752690Y-67035493D01*
X124649986Y-67025000D01*
X124250000Y-67025000D01*
X124250000Y-68091981D01*
X124135199Y-68039554D01*
X124033975Y-68025000D01*
X123966025Y-68025000D01*
X123864801Y-68039554D01*
X123750000Y-68091981D01*
X123750000Y-67025000D01*
X123350028Y-67025000D01*
X123350012Y-67025001D01*
X123247302Y-67035494D01*
X123080880Y-67090641D01*
X123080875Y-67090643D01*
X122931654Y-67182684D01*
X122807684Y-67306654D01*
X122715643Y-67455875D01*
X122715641Y-67455880D01*
X122660494Y-67622302D01*
X122660493Y-67622309D01*
X122650000Y-67725013D01*
X122650000Y-68250000D01*
X123596031Y-68250000D01*
X123563481Y-68300649D01*
X123525000Y-68431705D01*
X123525000Y-68568295D01*
X123563481Y-68699351D01*
X123596031Y-68750000D01*
X122650001Y-68750000D01*
X122650001Y-69274986D01*
X122660494Y-69377697D01*
X122715641Y-69544119D01*
X122715643Y-69544124D01*
X122807684Y-69693345D01*
X122931654Y-69817315D01*
X123080875Y-69909356D01*
X123080880Y-69909358D01*
X123247302Y-69964505D01*
X123247309Y-69964506D01*
X123350019Y-69974999D01*
X123749999Y-69974999D01*
X123750000Y-69974998D01*
X123750000Y-68908018D01*
X123864801Y-68960446D01*
X123966025Y-68975000D01*
X124033975Y-68975000D01*
X124135199Y-68960446D01*
X124250000Y-68908018D01*
X124250000Y-69974999D01*
X124649972Y-69974999D01*
X124649986Y-69974998D01*
X124752697Y-69964505D01*
X124919119Y-69909358D01*
X124919124Y-69909356D01*
X125068345Y-69817315D01*
X125192315Y-69693345D01*
X125284356Y-69544124D01*
X125284358Y-69544119D01*
X125339505Y-69377697D01*
X125339506Y-69377688D01*
X125341648Y-69356727D01*
X125368042Y-69292035D01*
X125425222Y-69251882D01*
X125495033Y-69249018D01*
X125555311Y-69284350D01*
X125563960Y-69294600D01*
X125643177Y-69399500D01*
X125646128Y-69403407D01*
X125803698Y-69547052D01*
X125984981Y-69659298D01*
X126183802Y-69736321D01*
X126393390Y-69775500D01*
X126393392Y-69775500D01*
X126606608Y-69775500D01*
X126606610Y-69775500D01*
X126816198Y-69736321D01*
X127015019Y-69659298D01*
X127196302Y-69547052D01*
X127353872Y-69403407D01*
X127482366Y-69233255D01*
X127508986Y-69179795D01*
X127577403Y-69042394D01*
X127577403Y-69042393D01*
X127577405Y-69042389D01*
X127630734Y-68854959D01*
X127668014Y-68795867D01*
X127731323Y-68766310D01*
X127800563Y-68775672D01*
X127853749Y-68820982D01*
X127869265Y-68854959D01*
X127919710Y-69032251D01*
X127922596Y-69042392D01*
X127922596Y-69042394D01*
X128017632Y-69233253D01*
X128146127Y-69403406D01*
X128146128Y-69403407D01*
X128303698Y-69547052D01*
X128484981Y-69659298D01*
X128683802Y-69736321D01*
X128893390Y-69775500D01*
X128893392Y-69775500D01*
X129106608Y-69775500D01*
X129106610Y-69775500D01*
X129316198Y-69736321D01*
X129515019Y-69659298D01*
X129696302Y-69547052D01*
X129853872Y-69403407D01*
X129982366Y-69233255D01*
X130008986Y-69179795D01*
X130077403Y-69042394D01*
X130077403Y-69042393D01*
X130077405Y-69042389D01*
X130130734Y-68854959D01*
X130168014Y-68795867D01*
X130231323Y-68766310D01*
X130300563Y-68775672D01*
X130353749Y-68820982D01*
X130369265Y-68854959D01*
X130419710Y-69032251D01*
X130422596Y-69042392D01*
X130422596Y-69042394D01*
X130517632Y-69233253D01*
X130646127Y-69403406D01*
X130646128Y-69403407D01*
X130803698Y-69547052D01*
X130984981Y-69659298D01*
X131183802Y-69736321D01*
X131393390Y-69775500D01*
X131393392Y-69775500D01*
X131606608Y-69775500D01*
X131606610Y-69775500D01*
X131816198Y-69736321D01*
X132015019Y-69659298D01*
X132196302Y-69547052D01*
X132353872Y-69403407D01*
X132482366Y-69233255D01*
X132508986Y-69179795D01*
X132577403Y-69042394D01*
X132577403Y-69042393D01*
X132577405Y-69042389D01*
X132635756Y-68837310D01*
X132650500Y-68678194D01*
X132650500Y-68321806D01*
X132635756Y-68162690D01*
X132577405Y-67957611D01*
X132577403Y-67957606D01*
X132577403Y-67957605D01*
X132487558Y-67777172D01*
X132482366Y-67766745D01*
X132482359Y-67766736D01*
X132481445Y-67765258D01*
X132481220Y-67764444D01*
X132479811Y-67761613D01*
X132480364Y-67761337D01*
X132462886Y-67697898D01*
X132483692Y-67631198D01*
X132529239Y-67590182D01*
X132661751Y-67520634D01*
X132789082Y-67407829D01*
X132885717Y-67267830D01*
X132946039Y-67108772D01*
X132966544Y-66939900D01*
X132946039Y-66771028D01*
X132945516Y-66769650D01*
X132899712Y-66648872D01*
X132885717Y-66611970D01*
X132883512Y-66608776D01*
X132835417Y-66539099D01*
X132789082Y-66471971D01*
X132661751Y-66359166D01*
X132661748Y-66359163D01*
X132511125Y-66280110D01*
X132345955Y-66239400D01*
X132175843Y-66239400D01*
X132010672Y-66280110D01*
X131860048Y-66359164D01*
X131860046Y-66359166D01*
X131748243Y-66458215D01*
X131685010Y-66487937D01*
X131666016Y-66489400D01*
X131469836Y-66489400D01*
X131418325Y-66478194D01*
X131382885Y-66462009D01*
X131366956Y-66454734D01*
X131287111Y-66443255D01*
X131260299Y-66439400D01*
X131260297Y-66439400D01*
X130627243Y-66439400D01*
X130600885Y-66436566D01*
X130596174Y-66435541D01*
X130596170Y-66435541D01*
X130546639Y-66439084D01*
X130537792Y-66439400D01*
X130524300Y-66439400D01*
X130518163Y-66440282D01*
X130510940Y-66441320D01*
X130502154Y-66442265D01*
X130452616Y-66445809D01*
X130452613Y-66445810D01*
X130448086Y-66447498D01*
X130422427Y-66454046D01*
X130417650Y-66454733D01*
X130417643Y-66454735D01*
X130372465Y-66475366D01*
X130364291Y-66478751D01*
X130317775Y-66496100D01*
X130317764Y-66496106D01*
X130313899Y-66499000D01*
X130291120Y-66512515D01*
X130286736Y-66514517D01*
X130286725Y-66514524D01*
X130249208Y-66547032D01*
X130242326Y-66552578D01*
X130231503Y-66560680D01*
X130221954Y-66570229D01*
X130215484Y-66576253D01*
X130177961Y-66608767D01*
X130177954Y-66608776D01*
X130175343Y-66612838D01*
X130158716Y-66633468D01*
X129526357Y-67265827D01*
X129465034Y-67299312D01*
X129395342Y-67294328D01*
X129393883Y-67293773D01*
X129316203Y-67263680D01*
X129316198Y-67263679D01*
X129106610Y-67224500D01*
X128893390Y-67224500D01*
X128782645Y-67245201D01*
X128713132Y-67238171D01*
X128658453Y-67194673D01*
X128635971Y-67128520D01*
X128652824Y-67060713D01*
X128672181Y-67035632D01*
X134274548Y-61433266D01*
X140890895Y-54816919D01*
X140952218Y-54783434D01*
X140978576Y-54780600D01*
X192758215Y-54780600D01*
X192759615Y-54780500D01*
X192867201Y-54780500D01*
X192934240Y-54800185D01*
X192978201Y-54849229D01*
X192997632Y-54888253D01*
X192997634Y-54888255D01*
X193126128Y-55058407D01*
X193283698Y-55202052D01*
X193464981Y-55314298D01*
X193663802Y-55391321D01*
X193860613Y-55428111D01*
X193922893Y-55459779D01*
X193958166Y-55520092D01*
X193955232Y-55589900D01*
X193915023Y-55647040D01*
X193860613Y-55671888D01*
X193663802Y-55708679D01*
X193663799Y-55708679D01*
X193663799Y-55708680D01*
X193464982Y-55785701D01*
X193464980Y-55785702D01*
X193283699Y-55897947D01*
X193126127Y-56041593D01*
X192997629Y-56211751D01*
X192995926Y-56214502D01*
X192994768Y-56215539D01*
X192994179Y-56216320D01*
X192994026Y-56216204D01*
X192943898Y-56261138D01*
X192874916Y-56272241D01*
X192810882Y-56244287D01*
X192802819Y-56236905D01*
X192325385Y-55759471D01*
X192308750Y-55738828D01*
X192306145Y-55734774D01*
X192306143Y-55734772D01*
X192268614Y-55702253D01*
X192262143Y-55696229D01*
X192252593Y-55686679D01*
X192241785Y-55678588D01*
X192234904Y-55673044D01*
X192197373Y-55640523D01*
X192197372Y-55640522D01*
X192197367Y-55640519D01*
X192192983Y-55638517D01*
X192170194Y-55624996D01*
X192166331Y-55622104D01*
X192166329Y-55622103D01*
X192119790Y-55604745D01*
X192111622Y-55601361D01*
X192066457Y-55580735D01*
X192066455Y-55580734D01*
X192061682Y-55580048D01*
X192036000Y-55573493D01*
X192031486Y-55571809D01*
X191981946Y-55568265D01*
X191973159Y-55567320D01*
X191959799Y-55565400D01*
X191959797Y-55565400D01*
X191946308Y-55565400D01*
X191937461Y-55565084D01*
X191887929Y-55561541D01*
X191887925Y-55561541D01*
X191883215Y-55562566D01*
X191856857Y-55565400D01*
X142625443Y-55565400D01*
X142599085Y-55562566D01*
X142594374Y-55561541D01*
X142594370Y-55561541D01*
X142544839Y-55565084D01*
X142535992Y-55565400D01*
X142522500Y-55565400D01*
X142516363Y-55566282D01*
X142509140Y-55567320D01*
X142500354Y-55568265D01*
X142450816Y-55571809D01*
X142450813Y-55571810D01*
X142446286Y-55573498D01*
X142420627Y-55580046D01*
X142415850Y-55580733D01*
X142415843Y-55580735D01*
X142370665Y-55601366D01*
X142362491Y-55604751D01*
X142315975Y-55622100D01*
X142315964Y-55622106D01*
X142312099Y-55625000D01*
X142289320Y-55638515D01*
X142284936Y-55640517D01*
X142284925Y-55640524D01*
X142247408Y-55673032D01*
X142240526Y-55678578D01*
X142229703Y-55686680D01*
X142220154Y-55696229D01*
X142213684Y-55702253D01*
X142176161Y-55734767D01*
X142176154Y-55734776D01*
X142173543Y-55738838D01*
X142156916Y-55759468D01*
X136020168Y-61896216D01*
X135999538Y-61912843D01*
X135995476Y-61915454D01*
X135995467Y-61915461D01*
X135962953Y-61952984D01*
X135956929Y-61959454D01*
X135947380Y-61969003D01*
X135939278Y-61979826D01*
X135933732Y-61986708D01*
X135901224Y-62024225D01*
X135901217Y-62024236D01*
X135899215Y-62028620D01*
X135885700Y-62051399D01*
X135882806Y-62055264D01*
X135882800Y-62055275D01*
X135865451Y-62101791D01*
X135862066Y-62109965D01*
X135841435Y-62155143D01*
X135841433Y-62155150D01*
X135840746Y-62159927D01*
X135834198Y-62185586D01*
X135832510Y-62190113D01*
X135832509Y-62190116D01*
X135828965Y-62239654D01*
X135828020Y-62248445D01*
X135826100Y-62261800D01*
X135826100Y-62275290D01*
X135825784Y-62284137D01*
X135822241Y-62333669D01*
X135822241Y-62333673D01*
X135823266Y-62338385D01*
X135826100Y-62364743D01*
X135826100Y-67914723D01*
X135806415Y-67981762D01*
X135789781Y-68002404D01*
X127026357Y-76765827D01*
X126965034Y-76799312D01*
X126895342Y-76794328D01*
X126893883Y-76793773D01*
X126816203Y-76763680D01*
X126816198Y-76763679D01*
X126606610Y-76724500D01*
X126393390Y-76724500D01*
X126183802Y-76763679D01*
X126183799Y-76763679D01*
X126183799Y-76763680D01*
X125984982Y-76840701D01*
X125984980Y-76840702D01*
X125803699Y-76952947D01*
X125646126Y-77096594D01*
X125563959Y-77205400D01*
X125507850Y-77247035D01*
X125438138Y-77251726D01*
X125376956Y-77217983D01*
X125343730Y-77156520D01*
X125341648Y-77143273D01*
X125339505Y-77122303D01*
X125284358Y-76955880D01*
X125284356Y-76955875D01*
X125192315Y-76806654D01*
X125068345Y-76682684D01*
X124919124Y-76590643D01*
X124919119Y-76590641D01*
X124752697Y-76535494D01*
X124752690Y-76535493D01*
X124649986Y-76525000D01*
X124250000Y-76525000D01*
X124250000Y-77591981D01*
X124135199Y-77539554D01*
X124033975Y-77525000D01*
X123966025Y-77525000D01*
X123864801Y-77539554D01*
X123750000Y-77591981D01*
X123750000Y-76525000D01*
X123350028Y-76525000D01*
X123350012Y-76525001D01*
X123247302Y-76535494D01*
X123080880Y-76590641D01*
X123080875Y-76590643D01*
X122931654Y-76682684D01*
X122807684Y-76806654D01*
X122715643Y-76955875D01*
X122715641Y-76955880D01*
X122660494Y-77122302D01*
X122660493Y-77122309D01*
X122650000Y-77225013D01*
X122650000Y-77750000D01*
X123596031Y-77750000D01*
X123563481Y-77800649D01*
X123525000Y-77931705D01*
X123525000Y-78068295D01*
X123563481Y-78199351D01*
X123596031Y-78250000D01*
X122650001Y-78250000D01*
X122650001Y-78774986D01*
X122660494Y-78877697D01*
X122715641Y-79044119D01*
X122715643Y-79044124D01*
X122807684Y-79193345D01*
X122931654Y-79317315D01*
X123080875Y-79409356D01*
X123080880Y-79409358D01*
X123247302Y-79464505D01*
X123247309Y-79464506D01*
X123350019Y-79474999D01*
X123749999Y-79474999D01*
X123750000Y-79474998D01*
X123750000Y-78408018D01*
X123864801Y-78460446D01*
X123966025Y-78475000D01*
X124033975Y-78475000D01*
X124135199Y-78460446D01*
X124250000Y-78408018D01*
X124250000Y-79474999D01*
X124649972Y-79474999D01*
X124649986Y-79474998D01*
X124752697Y-79464505D01*
X124919119Y-79409358D01*
X124919124Y-79409356D01*
X125068345Y-79317315D01*
X125192315Y-79193345D01*
X125284356Y-79044124D01*
X125284358Y-79044119D01*
X125339505Y-78877697D01*
X125339506Y-78877688D01*
X125341648Y-78856727D01*
X125368042Y-78792035D01*
X125425222Y-78751882D01*
X125495033Y-78749018D01*
X125555311Y-78784350D01*
X125563960Y-78794600D01*
X125626712Y-78877697D01*
X125646128Y-78903407D01*
X125803698Y-79047052D01*
X125984981Y-79159298D01*
X126183802Y-79236321D01*
X126393390Y-79275500D01*
X126393392Y-79275500D01*
X126606608Y-79275500D01*
X126606610Y-79275500D01*
X126816198Y-79236321D01*
X127015019Y-79159298D01*
X127196302Y-79047052D01*
X127353872Y-78903407D01*
X127482366Y-78733255D01*
X127543493Y-78610494D01*
X127577403Y-78542394D01*
X127577403Y-78542393D01*
X127577405Y-78542389D01*
X127630734Y-78354959D01*
X127668014Y-78295867D01*
X127731323Y-78266310D01*
X127800563Y-78275672D01*
X127853749Y-78320982D01*
X127869265Y-78354959D01*
X127919607Y-78531889D01*
X127922596Y-78542392D01*
X127922596Y-78542394D01*
X128017632Y-78733253D01*
X128144758Y-78901593D01*
X128146128Y-78903407D01*
X128303698Y-79047052D01*
X128484981Y-79159298D01*
X128683802Y-79236321D01*
X128893390Y-79275500D01*
X128893392Y-79275500D01*
X129106608Y-79275500D01*
X129106610Y-79275500D01*
X129316198Y-79236321D01*
X129515019Y-79159298D01*
X129696302Y-79047052D01*
X129853872Y-78903407D01*
X129982366Y-78733255D01*
X130043493Y-78610494D01*
X130077403Y-78542394D01*
X130077403Y-78542393D01*
X130077405Y-78542389D01*
X130130734Y-78354959D01*
X130168014Y-78295867D01*
X130231323Y-78266310D01*
X130300563Y-78275672D01*
X130353749Y-78320982D01*
X130369265Y-78354959D01*
X130419607Y-78531889D01*
X130422596Y-78542392D01*
X130422596Y-78542394D01*
X130517632Y-78733253D01*
X130644758Y-78901593D01*
X130646128Y-78903407D01*
X130803698Y-79047052D01*
X130984981Y-79159298D01*
X131183802Y-79236321D01*
X131393390Y-79275500D01*
X131393392Y-79275500D01*
X131606608Y-79275500D01*
X131606610Y-79275500D01*
X131816198Y-79236321D01*
X132015019Y-79159298D01*
X132196302Y-79047052D01*
X132353872Y-78903407D01*
X132482366Y-78733255D01*
X132504844Y-78688113D01*
X132520223Y-78657228D01*
X132567725Y-78605991D01*
X132635388Y-78588569D01*
X132701729Y-78610494D01*
X132718904Y-78624818D01*
X134113104Y-80019018D01*
X134146589Y-80080341D01*
X134141605Y-80150033D01*
X134113104Y-80194380D01*
X132495468Y-81812016D01*
X132474838Y-81828643D01*
X132470776Y-81831254D01*
X132470767Y-81831261D01*
X132438253Y-81868784D01*
X132432229Y-81875254D01*
X132422680Y-81884803D01*
X132414578Y-81895626D01*
X132409032Y-81902508D01*
X132376524Y-81940025D01*
X132376517Y-81940036D01*
X132374515Y-81944420D01*
X132361000Y-81967199D01*
X132358106Y-81971064D01*
X132358100Y-81971075D01*
X132340751Y-82017591D01*
X132337366Y-82025765D01*
X132316735Y-82070943D01*
X132316733Y-82070950D01*
X132316046Y-82075727D01*
X132309498Y-82101386D01*
X132307810Y-82105913D01*
X132307809Y-82105916D01*
X132304265Y-82155454D01*
X132303320Y-82164245D01*
X132301400Y-82177600D01*
X132301400Y-82191090D01*
X132301084Y-82199937D01*
X132297541Y-82249469D01*
X132297541Y-82249473D01*
X132298566Y-82254185D01*
X132301400Y-82280543D01*
X132301400Y-86295399D01*
X132281715Y-86362438D01*
X132228911Y-86408193D01*
X132159753Y-86418137D01*
X132112122Y-86400826D01*
X132081686Y-86381981D01*
X132015019Y-86340702D01*
X132015017Y-86340701D01*
X131841541Y-86273497D01*
X131816198Y-86263679D01*
X131606610Y-86224500D01*
X131393390Y-86224500D01*
X131183802Y-86263679D01*
X131183799Y-86263679D01*
X131183799Y-86263680D01*
X130984982Y-86340701D01*
X130984980Y-86340702D01*
X130803699Y-86452947D01*
X130646127Y-86596593D01*
X130517632Y-86766746D01*
X130422596Y-86957605D01*
X130422596Y-86957607D01*
X130369266Y-87145039D01*
X130331986Y-87204132D01*
X130268676Y-87233689D01*
X130199437Y-87224327D01*
X130146251Y-87179017D01*
X130130734Y-87145039D01*
X130096579Y-87025000D01*
X130077405Y-86957611D01*
X130077403Y-86957606D01*
X130077403Y-86957605D01*
X129982367Y-86766746D01*
X129853872Y-86596593D01*
X129817049Y-86563024D01*
X129696302Y-86452948D01*
X129515019Y-86340702D01*
X129515017Y-86340701D01*
X129341541Y-86273497D01*
X129316198Y-86263679D01*
X129106610Y-86224500D01*
X128893390Y-86224500D01*
X128683802Y-86263679D01*
X128683799Y-86263679D01*
X128683799Y-86263680D01*
X128484982Y-86340701D01*
X128484980Y-86340702D01*
X128303699Y-86452947D01*
X128146127Y-86596593D01*
X128017632Y-86766746D01*
X127922596Y-86957605D01*
X127922596Y-86957607D01*
X127869266Y-87145039D01*
X127831986Y-87204132D01*
X127768676Y-87233689D01*
X127699437Y-87224327D01*
X127646251Y-87179017D01*
X127630734Y-87145039D01*
X127596579Y-87025000D01*
X127577405Y-86957611D01*
X127577403Y-86957606D01*
X127577403Y-86957605D01*
X127482367Y-86766746D01*
X127353872Y-86596593D01*
X127317049Y-86563024D01*
X127196302Y-86452948D01*
X127015019Y-86340702D01*
X127015017Y-86340701D01*
X126841541Y-86273497D01*
X126816198Y-86263679D01*
X126606610Y-86224500D01*
X126393390Y-86224500D01*
X126183802Y-86263679D01*
X126183799Y-86263679D01*
X126183799Y-86263680D01*
X125984982Y-86340701D01*
X125984980Y-86340702D01*
X125803699Y-86452947D01*
X125646126Y-86596594D01*
X125563959Y-86705400D01*
X125507850Y-86747035D01*
X125438138Y-86751726D01*
X125376956Y-86717983D01*
X125343730Y-86656520D01*
X125341648Y-86643273D01*
X125339505Y-86622303D01*
X125284358Y-86455880D01*
X125284356Y-86455875D01*
X125192315Y-86306654D01*
X125068345Y-86182684D01*
X124919124Y-86090643D01*
X124919119Y-86090641D01*
X124752697Y-86035494D01*
X124752690Y-86035493D01*
X124649986Y-86025000D01*
X124250000Y-86025000D01*
X124250000Y-87091981D01*
X124135199Y-87039554D01*
X124033975Y-87025000D01*
X123966025Y-87025000D01*
X123864801Y-87039554D01*
X123750000Y-87091981D01*
X123750000Y-86025000D01*
X123350028Y-86025000D01*
X123350012Y-86025001D01*
X123247302Y-86035494D01*
X123080880Y-86090641D01*
X123080875Y-86090643D01*
X122931654Y-86182684D01*
X122807684Y-86306654D01*
X122715643Y-86455875D01*
X122715641Y-86455880D01*
X122660494Y-86622302D01*
X122660493Y-86622309D01*
X122650000Y-86725013D01*
X122650000Y-87250000D01*
X123596031Y-87250000D01*
X123563481Y-87300649D01*
X123525000Y-87431705D01*
X123525000Y-87568295D01*
X123563481Y-87699351D01*
X123596031Y-87750000D01*
X122650001Y-87750000D01*
X122650001Y-88274986D01*
X122660494Y-88377697D01*
X122715641Y-88544119D01*
X122715643Y-88544124D01*
X122807684Y-88693345D01*
X122931654Y-88817315D01*
X123080875Y-88909356D01*
X123080880Y-88909358D01*
X123247302Y-88964505D01*
X123247309Y-88964506D01*
X123350019Y-88974999D01*
X123749999Y-88974999D01*
X123750000Y-88974998D01*
X123750000Y-87908018D01*
X123864801Y-87960446D01*
X123966025Y-87975000D01*
X124033975Y-87975000D01*
X124135199Y-87960446D01*
X124250000Y-87908018D01*
X124250000Y-88974999D01*
X124649972Y-88974999D01*
X124649986Y-88974998D01*
X124752697Y-88964505D01*
X124919119Y-88909358D01*
X124919124Y-88909356D01*
X125068345Y-88817315D01*
X125192315Y-88693345D01*
X125284356Y-88544124D01*
X125284358Y-88544119D01*
X125339505Y-88377697D01*
X125339506Y-88377688D01*
X125341648Y-88356727D01*
X125368042Y-88292035D01*
X125425222Y-88251882D01*
X125495033Y-88249018D01*
X125555311Y-88284350D01*
X125563960Y-88294600D01*
X125640586Y-88396069D01*
X125646128Y-88403407D01*
X125803698Y-88547052D01*
X125984981Y-88659298D01*
X126183802Y-88736321D01*
X126393390Y-88775500D01*
X126393392Y-88775500D01*
X126606608Y-88775500D01*
X126606610Y-88775500D01*
X126816198Y-88736321D01*
X126893885Y-88706224D01*
X126963503Y-88700362D01*
X127025243Y-88733071D01*
X127026356Y-88734170D01*
X127560214Y-89268028D01*
X127576846Y-89288666D01*
X127579454Y-89292725D01*
X127579457Y-89292728D01*
X127617000Y-89325258D01*
X127623461Y-89331275D01*
X127633007Y-89340821D01*
X127633013Y-89340826D01*
X127633016Y-89340828D01*
X127643807Y-89348906D01*
X127650700Y-89354460D01*
X127688227Y-89386977D01*
X127692610Y-89388979D01*
X127715407Y-89402505D01*
X127719269Y-89405396D01*
X127765812Y-89422755D01*
X127773960Y-89426130D01*
X127801273Y-89438604D01*
X127819140Y-89446764D01*
X127819141Y-89446764D01*
X127819143Y-89446765D01*
X127823912Y-89447450D01*
X127849602Y-89454007D01*
X127854117Y-89455691D01*
X127903649Y-89459233D01*
X127912443Y-89460179D01*
X127925801Y-89462100D01*
X127939292Y-89462100D01*
X127948138Y-89462415D01*
X127997673Y-89465959D01*
X128002385Y-89464934D01*
X128028743Y-89462100D01*
X138152457Y-89462100D01*
X138178815Y-89464934D01*
X138183527Y-89465959D01*
X138233061Y-89462415D01*
X138241908Y-89462100D01*
X138255399Y-89462100D01*
X138268756Y-89460179D01*
X138277551Y-89459233D01*
X138327083Y-89455691D01*
X138331592Y-89454008D01*
X138357285Y-89447450D01*
X138362057Y-89446765D01*
X138407237Y-89426130D01*
X138415401Y-89422749D01*
X138461931Y-89405396D01*
X138465789Y-89402507D01*
X138488595Y-89388975D01*
X138492973Y-89386977D01*
X138530499Y-89354459D01*
X138537378Y-89348916D01*
X138548193Y-89340821D01*
X138557755Y-89331258D01*
X138564217Y-89325243D01*
X138601743Y-89292728D01*
X138604351Y-89288668D01*
X138620981Y-89268031D01*
X140602695Y-87286317D01*
X140664016Y-87252834D01*
X140690374Y-87250000D01*
X141596031Y-87250000D01*
X141563481Y-87300649D01*
X141525000Y-87431705D01*
X141525000Y-87568295D01*
X141563481Y-87699351D01*
X141596031Y-87750000D01*
X140650001Y-87750000D01*
X140650001Y-88274986D01*
X140660494Y-88377697D01*
X140715641Y-88544119D01*
X140715643Y-88544124D01*
X140807684Y-88693345D01*
X140931654Y-88817315D01*
X141080875Y-88909356D01*
X141080880Y-88909358D01*
X141247302Y-88964505D01*
X141247309Y-88964506D01*
X141350019Y-88974999D01*
X141749999Y-88974999D01*
X141750000Y-88974998D01*
X141750000Y-87908018D01*
X141864801Y-87960446D01*
X141966025Y-87975000D01*
X142033975Y-87975000D01*
X142135199Y-87960446D01*
X142250000Y-87908018D01*
X142250000Y-88974999D01*
X142649972Y-88974999D01*
X142649986Y-88974998D01*
X142752697Y-88964505D01*
X142919119Y-88909358D01*
X142919124Y-88909356D01*
X143068345Y-88817315D01*
X143192315Y-88693345D01*
X143284356Y-88544124D01*
X143284358Y-88544119D01*
X143339505Y-88377697D01*
X143339506Y-88377688D01*
X143341648Y-88356727D01*
X143368042Y-88292035D01*
X143425222Y-88251882D01*
X143495033Y-88249018D01*
X143555311Y-88284350D01*
X143563960Y-88294600D01*
X143640586Y-88396069D01*
X143646128Y-88403407D01*
X143803698Y-88547052D01*
X143984981Y-88659298D01*
X144183802Y-88736321D01*
X144393390Y-88775500D01*
X144393392Y-88775500D01*
X144606608Y-88775500D01*
X144606610Y-88775500D01*
X144816198Y-88736321D01*
X145015019Y-88659298D01*
X145196302Y-88547052D01*
X145353872Y-88403407D01*
X145482366Y-88233255D01*
X145487944Y-88222052D01*
X145577403Y-88042394D01*
X145577403Y-88042393D01*
X145577405Y-88042389D01*
X145630734Y-87854959D01*
X145668014Y-87795867D01*
X145731323Y-87766310D01*
X145800563Y-87775672D01*
X145853749Y-87820982D01*
X145869265Y-87854959D01*
X145907418Y-87989050D01*
X145922596Y-88042392D01*
X145922596Y-88042394D01*
X146017632Y-88233253D01*
X146146127Y-88403406D01*
X146146128Y-88403407D01*
X146303698Y-88547052D01*
X146484981Y-88659298D01*
X146683802Y-88736321D01*
X146893390Y-88775500D01*
X146893392Y-88775500D01*
X147106608Y-88775500D01*
X147106610Y-88775500D01*
X147316198Y-88736321D01*
X147515019Y-88659298D01*
X147696302Y-88547052D01*
X147853872Y-88403407D01*
X147982366Y-88233255D01*
X147987944Y-88222052D01*
X148077403Y-88042394D01*
X148077403Y-88042393D01*
X148077405Y-88042389D01*
X148130734Y-87854959D01*
X148168014Y-87795867D01*
X148231323Y-87766310D01*
X148300563Y-87775672D01*
X148353749Y-87820982D01*
X148369265Y-87854959D01*
X148407418Y-87989050D01*
X148422596Y-88042392D01*
X148422596Y-88042394D01*
X148517632Y-88233253D01*
X148646127Y-88403406D01*
X148646128Y-88403407D01*
X148803698Y-88547052D01*
X148984981Y-88659298D01*
X149183802Y-88736321D01*
X149393390Y-88775500D01*
X149393392Y-88775500D01*
X149606608Y-88775500D01*
X149606610Y-88775500D01*
X149816198Y-88736321D01*
X150015019Y-88659298D01*
X150196302Y-88547052D01*
X150353872Y-88403407D01*
X150482366Y-88233255D01*
X150487944Y-88222052D01*
X150564041Y-88069229D01*
X150611543Y-88017992D01*
X150675041Y-88000500D01*
X150734757Y-88000500D01*
X150761115Y-88003334D01*
X150765827Y-88004359D01*
X150815361Y-88000815D01*
X150824208Y-88000500D01*
X150837699Y-88000500D01*
X150851056Y-87998579D01*
X150859851Y-87997633D01*
X150909383Y-87994091D01*
X150913892Y-87992408D01*
X150939585Y-87985850D01*
X150944357Y-87985165D01*
X150989537Y-87964530D01*
X150997701Y-87961149D01*
X151044231Y-87943796D01*
X151048089Y-87940907D01*
X151070895Y-87927375D01*
X151075273Y-87925377D01*
X151112799Y-87892859D01*
X151119678Y-87887316D01*
X151130493Y-87879221D01*
X151140055Y-87869658D01*
X151146505Y-87863653D01*
X151184043Y-87831128D01*
X151186651Y-87827068D01*
X151203281Y-87806431D01*
X152972895Y-86036819D01*
X153034218Y-86003334D01*
X153060576Y-86000500D01*
X171775501Y-86000500D01*
X171842540Y-86020185D01*
X171888295Y-86072989D01*
X171899501Y-86124500D01*
X171899501Y-86344856D01*
X171899502Y-86344882D01*
X171902413Y-86369987D01*
X171902415Y-86369991D01*
X171947793Y-86472764D01*
X171947794Y-86472765D01*
X172027235Y-86552206D01*
X172130009Y-86597585D01*
X172155135Y-86600500D01*
X173844864Y-86600499D01*
X173844879Y-86600497D01*
X173844882Y-86600497D01*
X173869987Y-86597586D01*
X173869988Y-86597585D01*
X173869991Y-86597585D01*
X173972765Y-86552206D01*
X174052206Y-86472765D01*
X174097585Y-86369991D01*
X174100500Y-86344865D01*
X174100499Y-86134151D01*
X174120183Y-86067114D01*
X174172987Y-86021359D01*
X174242145Y-86011415D01*
X174305701Y-86040440D01*
X174336881Y-86081748D01*
X174369864Y-86152480D01*
X174420974Y-86225472D01*
X175102046Y-85544400D01*
X175114835Y-85625148D01*
X175172359Y-85738045D01*
X175261955Y-85827641D01*
X175374852Y-85885165D01*
X175455599Y-85897953D01*
X174774526Y-86579025D01*
X174847513Y-86630132D01*
X174847521Y-86630136D01*
X175053668Y-86726264D01*
X175053682Y-86726269D01*
X175273389Y-86785139D01*
X175273400Y-86785141D01*
X175499998Y-86804966D01*
X175500002Y-86804966D01*
X175726599Y-86785141D01*
X175726610Y-86785139D01*
X175946317Y-86726269D01*
X175946331Y-86726264D01*
X176152478Y-86630136D01*
X176225471Y-86579024D01*
X175544400Y-85897953D01*
X175625148Y-85885165D01*
X175738045Y-85827641D01*
X175827641Y-85738045D01*
X175885165Y-85625148D01*
X175897953Y-85544400D01*
X176579024Y-86225471D01*
X176630136Y-86152478D01*
X176726264Y-85946331D01*
X176726269Y-85946317D01*
X176785139Y-85726610D01*
X176785141Y-85726599D01*
X176804966Y-85500002D01*
X176804966Y-85499997D01*
X176785141Y-85273400D01*
X176785139Y-85273389D01*
X176726269Y-85053682D01*
X176726265Y-85053673D01*
X176665148Y-84922605D01*
X176654656Y-84853527D01*
X176683176Y-84789743D01*
X176741652Y-84751504D01*
X176777530Y-84746200D01*
X179487024Y-84746200D01*
X179554063Y-84765885D01*
X179574705Y-84782519D01*
X179900949Y-85108763D01*
X179934434Y-85170086D01*
X179932535Y-85230377D01*
X179913602Y-85296919D01*
X179894785Y-85499999D01*
X179894785Y-85500000D01*
X179913602Y-85703082D01*
X179969417Y-85899247D01*
X179969422Y-85899260D01*
X180060327Y-86081821D01*
X180183237Y-86244581D01*
X180333958Y-86381980D01*
X180333960Y-86381982D01*
X180376293Y-86408193D01*
X180507363Y-86489348D01*
X180697544Y-86563024D01*
X180898024Y-86600500D01*
X180898026Y-86600500D01*
X181101974Y-86600500D01*
X181101976Y-86600500D01*
X181302456Y-86563024D01*
X181492637Y-86489348D01*
X181666041Y-86381981D01*
X181816764Y-86244579D01*
X181939673Y-86081821D01*
X182030582Y-85899250D01*
X182086397Y-85703083D01*
X182105215Y-85500000D01*
X182086397Y-85296917D01*
X182030582Y-85100750D01*
X182017572Y-85074623D01*
X181981592Y-85002365D01*
X181939673Y-84918179D01*
X181842683Y-84789743D01*
X181816762Y-84755418D01*
X181666041Y-84618019D01*
X181666039Y-84618017D01*
X181492642Y-84510655D01*
X181492635Y-84510651D01*
X181397546Y-84473814D01*
X181302456Y-84436976D01*
X181101976Y-84399500D01*
X180898024Y-84399500D01*
X180853524Y-84407818D01*
X180717345Y-84433274D01*
X180647830Y-84426243D01*
X180606880Y-84399066D01*
X180508195Y-84300381D01*
X180474710Y-84239058D01*
X180479694Y-84169366D01*
X180521566Y-84113433D01*
X180587030Y-84089016D01*
X180595876Y-84088700D01*
X182010824Y-84088700D01*
X182077863Y-84108385D01*
X182098505Y-84125019D01*
X191500124Y-93526638D01*
X191533609Y-93587961D01*
X191528625Y-93657653D01*
X191494671Y-93707134D01*
X191464716Y-93733671D01*
X191368082Y-93873668D01*
X191307760Y-94032725D01*
X191307759Y-94032730D01*
X191287255Y-94201600D01*
X191307759Y-94370469D01*
X191307760Y-94370474D01*
X191368082Y-94529531D01*
X191430375Y-94619777D01*
X191464717Y-94669529D01*
X191561444Y-94755221D01*
X191592050Y-94782336D01*
X191742244Y-94861164D01*
X191742675Y-94861390D01*
X191907844Y-94902100D01*
X192077954Y-94902100D01*
X192077956Y-94902100D01*
X192155534Y-94882978D01*
X192194053Y-94879692D01*
X192203373Y-94880359D01*
X192208091Y-94879332D01*
X192234443Y-94876500D01*
X197630357Y-94876500D01*
X197656715Y-94879334D01*
X197661427Y-94880359D01*
X197710961Y-94876815D01*
X197719808Y-94876500D01*
X197733299Y-94876500D01*
X197746656Y-94874579D01*
X197755451Y-94873633D01*
X197804983Y-94870091D01*
X197809492Y-94868408D01*
X197835185Y-94861850D01*
X197839957Y-94861165D01*
X197885137Y-94840530D01*
X197893301Y-94837149D01*
X197939831Y-94819796D01*
X197943689Y-94816907D01*
X197966495Y-94803375D01*
X197970873Y-94801377D01*
X198008399Y-94768859D01*
X198015278Y-94763316D01*
X198026093Y-94755221D01*
X198035655Y-94745658D01*
X198042105Y-94739653D01*
X198079643Y-94707128D01*
X198082251Y-94703068D01*
X198098881Y-94682431D01*
X199540831Y-93240481D01*
X199561468Y-93223851D01*
X199565528Y-93221243D01*
X199598053Y-93183705D01*
X199604058Y-93177255D01*
X199613621Y-93167693D01*
X199621716Y-93156878D01*
X199627259Y-93149999D01*
X199659777Y-93112473D01*
X199661775Y-93108095D01*
X199675307Y-93085289D01*
X199678196Y-93081431D01*
X199695549Y-93034901D01*
X199698934Y-93026730D01*
X199702925Y-93017991D01*
X199719565Y-92981557D01*
X199720250Y-92976785D01*
X199726809Y-92951092D01*
X199727216Y-92950000D01*
X199728491Y-92946583D01*
X199732033Y-92897051D01*
X199732980Y-92888248D01*
X199734900Y-92874899D01*
X199734900Y-92861408D01*
X199735216Y-92852561D01*
X199736894Y-92829100D01*
X199738759Y-92803027D01*
X199737732Y-92798306D01*
X199734900Y-92771958D01*
X199734900Y-67221543D01*
X199737734Y-67195185D01*
X199738759Y-67190473D01*
X199735216Y-67140937D01*
X199734900Y-67132090D01*
X199734900Y-67118601D01*
X199732979Y-67105243D01*
X199732033Y-67096445D01*
X199728491Y-67046917D01*
X199726807Y-67042402D01*
X199720250Y-67016712D01*
X199719565Y-67011943D01*
X199714872Y-67001668D01*
X199704976Y-66979999D01*
X199698930Y-66966760D01*
X199695555Y-66958612D01*
X199678196Y-66912069D01*
X199675305Y-66908207D01*
X199661779Y-66885410D01*
X199659777Y-66881027D01*
X199659775Y-66881025D01*
X199659775Y-66881024D01*
X199659774Y-66881022D01*
X199627253Y-66843491D01*
X199621698Y-66836598D01*
X199613623Y-66825811D01*
X199613610Y-66825796D01*
X199604083Y-66816269D01*
X199598050Y-66809790D01*
X199590129Y-66800649D01*
X199565528Y-66772257D01*
X199561469Y-66769648D01*
X199540827Y-66753014D01*
X197659519Y-64871705D01*
X197626034Y-64810382D01*
X197627933Y-64750091D01*
X197655756Y-64652310D01*
X197675429Y-64440000D01*
X197655756Y-64227690D01*
X197597405Y-64022611D01*
X197597403Y-64022606D01*
X197597403Y-64022605D01*
X197502367Y-63831746D01*
X197373872Y-63661593D01*
X197335216Y-63626353D01*
X197216302Y-63517948D01*
X197035019Y-63405702D01*
X197035017Y-63405701D01*
X196935608Y-63367190D01*
X196836198Y-63328679D01*
X196639385Y-63291888D01*
X196577106Y-63260221D01*
X196541833Y-63199908D01*
X196544767Y-63130100D01*
X196584976Y-63072960D01*
X196639384Y-63048111D01*
X196836198Y-63011321D01*
X197035019Y-62934298D01*
X197216302Y-62822052D01*
X197373872Y-62678407D01*
X197502366Y-62508255D01*
X197511836Y-62489236D01*
X197597403Y-62317394D01*
X197597403Y-62317393D01*
X197597405Y-62317389D01*
X197655756Y-62112310D01*
X197675429Y-61900000D01*
X197655756Y-61687690D01*
X197597405Y-61482611D01*
X197597403Y-61482606D01*
X197597403Y-61482605D01*
X197502367Y-61291746D01*
X197373872Y-61121593D01*
X197216302Y-60977948D01*
X197035019Y-60865702D01*
X197035017Y-60865701D01*
X196906002Y-60815721D01*
X196836198Y-60788679D01*
X196639385Y-60751888D01*
X196577106Y-60720221D01*
X196541833Y-60659908D01*
X196544767Y-60590100D01*
X196584976Y-60532960D01*
X196639384Y-60508111D01*
X196836198Y-60471321D01*
X197035019Y-60394298D01*
X197216302Y-60282052D01*
X197373872Y-60138407D01*
X197502366Y-59968255D01*
X197505675Y-59961608D01*
X197553174Y-59910371D01*
X197620836Y-59892946D01*
X197668154Y-59904066D01*
X197668958Y-59904433D01*
X197670779Y-59905264D01*
X197693607Y-59918805D01*
X197697469Y-59921696D01*
X197744012Y-59939055D01*
X197752160Y-59942430D01*
X197779473Y-59954904D01*
X197797340Y-59963064D01*
X197797341Y-59963064D01*
X197797343Y-59963065D01*
X197802112Y-59963750D01*
X197827802Y-59970307D01*
X197832317Y-59971991D01*
X197881849Y-59975533D01*
X197890643Y-59976479D01*
X197904001Y-59978400D01*
X197917492Y-59978400D01*
X197926338Y-59978715D01*
X197975873Y-59982259D01*
X197980585Y-59981234D01*
X198006943Y-59978400D01*
X198722655Y-59978400D01*
X198789694Y-59998085D01*
X198804879Y-60009582D01*
X198860248Y-60058634D01*
X199010875Y-60137690D01*
X199176044Y-60178400D01*
X199346156Y-60178400D01*
X199511325Y-60137690D01*
X199590792Y-60095981D01*
X199661949Y-60058636D01*
X199661950Y-60058634D01*
X199661952Y-60058634D01*
X199789283Y-59945829D01*
X199885918Y-59805830D01*
X199946240Y-59646772D01*
X199966745Y-59477900D01*
X199946240Y-59309028D01*
X199885918Y-59149970D01*
X199884344Y-59147690D01*
X199829541Y-59068295D01*
X199789283Y-59009971D01*
X199683442Y-58916204D01*
X199661949Y-58897163D01*
X199511326Y-58818110D01*
X199346156Y-58777400D01*
X199176044Y-58777400D01*
X199010873Y-58818110D01*
X198860250Y-58897164D01*
X198860248Y-58897166D01*
X198808956Y-58942607D01*
X198804882Y-58946216D01*
X198741649Y-58975937D01*
X198722655Y-58977400D01*
X198190890Y-58977400D01*
X198123851Y-58957715D01*
X198109688Y-58947113D01*
X198095276Y-58934625D01*
X198095267Y-58934619D01*
X198090883Y-58932617D01*
X198068094Y-58919096D01*
X198064231Y-58916204D01*
X198064229Y-58916203D01*
X198017690Y-58898845D01*
X198009522Y-58895461D01*
X197964357Y-58874835D01*
X197964355Y-58874834D01*
X197959582Y-58874148D01*
X197933900Y-58867593D01*
X197929386Y-58865909D01*
X197879846Y-58862365D01*
X197871059Y-58861420D01*
X197857699Y-58859500D01*
X197857697Y-58859500D01*
X197844208Y-58859500D01*
X197835361Y-58859184D01*
X197785829Y-58855641D01*
X197785825Y-58855641D01*
X197781115Y-58856666D01*
X197754757Y-58859500D01*
X197632799Y-58859500D01*
X197565760Y-58839815D01*
X197521799Y-58790771D01*
X197502367Y-58751746D01*
X197373872Y-58581593D01*
X197216302Y-58437948D01*
X197035019Y-58325702D01*
X197035017Y-58325701D01*
X196935608Y-58287190D01*
X196836198Y-58248679D01*
X196639385Y-58211888D01*
X196577106Y-58180221D01*
X196541833Y-58119908D01*
X196544767Y-58050100D01*
X196584976Y-57992960D01*
X196639384Y-57968111D01*
X196836198Y-57931321D01*
X197035019Y-57854298D01*
X197216302Y-57742052D01*
X197373872Y-57598407D01*
X197502366Y-57428255D01*
X197502367Y-57428253D01*
X197597403Y-57237394D01*
X197597403Y-57237393D01*
X197597405Y-57237389D01*
X197655756Y-57032310D01*
X197675429Y-56820000D01*
X197655756Y-56607690D01*
X197597405Y-56402611D01*
X197597403Y-56402606D01*
X197597403Y-56402605D01*
X197502367Y-56211746D01*
X197373872Y-56041593D01*
X197216302Y-55897948D01*
X197035019Y-55785702D01*
X197035017Y-55785701D01*
X196903563Y-55734776D01*
X196836198Y-55708679D01*
X196639385Y-55671888D01*
X196577106Y-55640221D01*
X196541833Y-55579908D01*
X196544767Y-55510100D01*
X196584976Y-55452960D01*
X196639384Y-55428111D01*
X196836198Y-55391321D01*
X197035019Y-55314298D01*
X197216302Y-55202052D01*
X197373872Y-55058407D01*
X197502366Y-54888255D01*
X197502367Y-54888253D01*
X197597403Y-54697394D01*
X197597403Y-54697393D01*
X197597405Y-54697389D01*
X197655756Y-54492310D01*
X197675429Y-54280000D01*
X197655756Y-54067690D01*
X197627934Y-53969908D01*
X197628520Y-53900042D01*
X197659517Y-53848295D01*
X198828931Y-52678881D01*
X198849568Y-52662251D01*
X198853628Y-52659643D01*
X198886153Y-52622105D01*
X198892158Y-52615655D01*
X198901721Y-52606093D01*
X198909816Y-52595278D01*
X198915359Y-52588399D01*
X198947877Y-52550873D01*
X198949875Y-52546495D01*
X198963407Y-52523689D01*
X198966296Y-52519831D01*
X198983649Y-52473301D01*
X198987034Y-52465130D01*
X199007665Y-52419957D01*
X199008350Y-52415185D01*
X199014909Y-52389492D01*
X199016591Y-52384983D01*
X199020133Y-52335451D01*
X199021080Y-52326648D01*
X199023000Y-52313299D01*
X199023000Y-52299808D01*
X199023316Y-52290961D01*
X199025070Y-52266434D01*
X199026859Y-52241427D01*
X199025832Y-52236706D01*
X199023000Y-52210358D01*
X199023000Y-48496843D01*
X199025834Y-48470485D01*
X199026859Y-48465773D01*
X199023316Y-48416237D01*
X199023000Y-48407390D01*
X199023000Y-48393901D01*
X199021079Y-48380543D01*
X199020133Y-48371745D01*
X199018693Y-48351610D01*
X199016591Y-48322217D01*
X199014907Y-48317702D01*
X199008350Y-48292012D01*
X199007665Y-48287243D01*
X198987030Y-48242060D01*
X198983655Y-48233912D01*
X198966296Y-48187369D01*
X198963405Y-48183507D01*
X198949879Y-48160710D01*
X198947877Y-48156327D01*
X198916741Y-48120394D01*
X198915360Y-48118800D01*
X198909806Y-48111907D01*
X198901728Y-48101116D01*
X198901726Y-48101113D01*
X198901721Y-48101107D01*
X198892177Y-48091563D01*
X198886158Y-48085100D01*
X198853628Y-48047557D01*
X198853625Y-48047554D01*
X198849566Y-48044946D01*
X198828928Y-48028314D01*
X198172295Y-47371681D01*
X198138810Y-47310358D01*
X198143794Y-47240666D01*
X198185666Y-47184733D01*
X198251130Y-47160316D01*
X198259976Y-47160000D01*
X200976000Y-47160000D01*
X201043039Y-47179685D01*
X201088794Y-47232489D01*
X201100000Y-47284000D01*
X201100000Y-99376000D01*
X201080315Y-99443039D01*
X201027511Y-99488794D01*
X200976000Y-99500000D01*
X114449873Y-99500000D01*
X114382834Y-99480315D01*
X114337079Y-99427511D01*
X114327135Y-99358353D01*
X114356160Y-99294797D01*
X114414938Y-99257023D01*
X114422911Y-99254967D01*
X114488112Y-99240442D01*
X114504553Y-99236780D01*
X114757558Y-99140014D01*
X114993777Y-99007441D01*
X115208177Y-98841888D01*
X115396186Y-98646881D01*
X115553799Y-98426579D01*
X115590674Y-98354856D01*
X126789500Y-98354856D01*
X126789502Y-98354882D01*
X126792413Y-98379987D01*
X126792415Y-98379991D01*
X126837793Y-98482764D01*
X126837794Y-98482765D01*
X126917235Y-98562206D01*
X127020009Y-98607585D01*
X127045135Y-98610500D01*
X128834864Y-98610499D01*
X128834879Y-98610497D01*
X128834882Y-98610497D01*
X128859987Y-98607586D01*
X128859988Y-98607585D01*
X128859991Y-98607585D01*
X128962765Y-98562206D01*
X129042206Y-98482765D01*
X129087585Y-98379991D01*
X129090500Y-98354865D01*
X129090499Y-97616046D01*
X129110183Y-97549009D01*
X129162987Y-97503254D01*
X129232146Y-97493310D01*
X129295702Y-97522335D01*
X129333476Y-97581113D01*
X129337970Y-97604606D01*
X129344244Y-97672310D01*
X129402596Y-97877392D01*
X129402596Y-97877394D01*
X129497632Y-98068253D01*
X129626127Y-98238406D01*
X129626128Y-98238407D01*
X129783698Y-98382052D01*
X129964981Y-98494298D01*
X130163802Y-98571321D01*
X130373390Y-98610500D01*
X130373392Y-98610500D01*
X130586608Y-98610500D01*
X130586610Y-98610500D01*
X130796198Y-98571321D01*
X130995019Y-98494298D01*
X131176302Y-98382052D01*
X131333872Y-98238407D01*
X131462366Y-98068255D01*
X131516270Y-97960000D01*
X131557403Y-97877394D01*
X131557403Y-97877393D01*
X131557405Y-97877389D01*
X131615756Y-97672310D01*
X131626529Y-97556047D01*
X131652315Y-97491111D01*
X131694622Y-97460804D01*
X131803130Y-97460804D01*
X131839503Y-97481668D01*
X131871693Y-97543681D01*
X131873471Y-97556048D01*
X131884244Y-97672310D01*
X131942596Y-97877392D01*
X131942596Y-97877394D01*
X132037632Y-98068253D01*
X132166127Y-98238406D01*
X132166128Y-98238407D01*
X132323698Y-98382052D01*
X132504981Y-98494298D01*
X132703802Y-98571321D01*
X132913390Y-98610500D01*
X132913392Y-98610500D01*
X133126608Y-98610500D01*
X133126610Y-98610500D01*
X133336198Y-98571321D01*
X133535019Y-98494298D01*
X133716302Y-98382052D01*
X133873872Y-98238407D01*
X134002366Y-98068255D01*
X134056270Y-97960000D01*
X134097403Y-97877394D01*
X134097403Y-97877393D01*
X134097405Y-97877389D01*
X134155756Y-97672310D01*
X134166529Y-97556047D01*
X134192315Y-97491111D01*
X134234622Y-97460804D01*
X134343130Y-97460804D01*
X134379503Y-97481668D01*
X134411693Y-97543681D01*
X134413471Y-97556048D01*
X134424244Y-97672310D01*
X134482596Y-97877392D01*
X134482596Y-97877394D01*
X134577632Y-98068253D01*
X134706127Y-98238406D01*
X134706128Y-98238407D01*
X134863698Y-98382052D01*
X135044981Y-98494298D01*
X135243802Y-98571321D01*
X135453390Y-98610500D01*
X135453392Y-98610500D01*
X135666608Y-98610500D01*
X135666610Y-98610500D01*
X135876198Y-98571321D01*
X136075019Y-98494298D01*
X136256302Y-98382052D01*
X136413872Y-98238407D01*
X136542366Y-98068255D01*
X136596270Y-97960000D01*
X136637403Y-97877394D01*
X136637403Y-97877393D01*
X136637405Y-97877389D01*
X136695756Y-97672310D01*
X136706529Y-97556047D01*
X136732315Y-97491111D01*
X136774622Y-97460804D01*
X136883130Y-97460804D01*
X136919503Y-97481668D01*
X136951693Y-97543681D01*
X136953471Y-97556048D01*
X136964244Y-97672310D01*
X137022596Y-97877392D01*
X137022596Y-97877394D01*
X137117632Y-98068253D01*
X137246127Y-98238406D01*
X137246128Y-98238407D01*
X137403698Y-98382052D01*
X137584981Y-98494298D01*
X137783802Y-98571321D01*
X137993390Y-98610500D01*
X137993392Y-98610500D01*
X138206608Y-98610500D01*
X138206610Y-98610500D01*
X138416198Y-98571321D01*
X138615019Y-98494298D01*
X138796302Y-98382052D01*
X138953872Y-98238407D01*
X139082366Y-98068255D01*
X139149325Y-97933781D01*
X139196825Y-97882548D01*
X139264488Y-97865126D01*
X139330828Y-97887051D01*
X139372705Y-97936651D01*
X139466399Y-98137578D01*
X139601894Y-98331082D01*
X139768917Y-98498105D01*
X139962421Y-98633600D01*
X140176507Y-98733429D01*
X140176516Y-98733433D01*
X140390000Y-98790634D01*
X140390000Y-97895501D01*
X140497685Y-97944680D01*
X140604237Y-97960000D01*
X140675763Y-97960000D01*
X140782315Y-97944680D01*
X140890000Y-97895501D01*
X140890000Y-98790633D01*
X141103483Y-98733433D01*
X141103492Y-98733429D01*
X141317578Y-98633600D01*
X141511082Y-98498105D01*
X141678105Y-98331082D01*
X141808425Y-98144968D01*
X141863002Y-98101344D01*
X141932501Y-98094151D01*
X141994855Y-98125673D01*
X142011575Y-98144968D01*
X142141894Y-98331082D01*
X142308917Y-98498105D01*
X142502421Y-98633600D01*
X142716507Y-98733429D01*
X142716516Y-98733433D01*
X142930000Y-98790634D01*
X142930000Y-97895501D01*
X143037685Y-97944680D01*
X143144237Y-97960000D01*
X143215763Y-97960000D01*
X143322315Y-97944680D01*
X143430000Y-97895501D01*
X143430000Y-98790633D01*
X143643483Y-98733433D01*
X143643492Y-98733429D01*
X143857578Y-98633600D01*
X144051082Y-98498105D01*
X144218105Y-98331082D01*
X144353600Y-98137578D01*
X144447294Y-97936651D01*
X144493466Y-97884212D01*
X144560660Y-97865060D01*
X144627541Y-97885276D01*
X144670676Y-97933785D01*
X144737632Y-98068253D01*
X144866127Y-98238406D01*
X144866128Y-98238407D01*
X145023698Y-98382052D01*
X145204981Y-98494298D01*
X145403802Y-98571321D01*
X145613390Y-98610500D01*
X145613392Y-98610500D01*
X145826608Y-98610500D01*
X145826610Y-98610500D01*
X146036198Y-98571321D01*
X146235019Y-98494298D01*
X146416302Y-98382052D01*
X146573872Y-98238407D01*
X146702366Y-98068255D01*
X146756270Y-97960000D01*
X146797403Y-97877394D01*
X146797403Y-97877393D01*
X146797405Y-97877389D01*
X146855756Y-97672310D01*
X146875429Y-97460000D01*
X146855756Y-97247690D01*
X146797405Y-97042611D01*
X146797403Y-97042606D01*
X146797403Y-97042605D01*
X146702367Y-96851746D01*
X146573872Y-96681593D01*
X146416302Y-96537948D01*
X146235019Y-96425702D01*
X146235017Y-96425701D01*
X146135608Y-96387190D01*
X146036198Y-96348679D01*
X145826610Y-96309500D01*
X145613390Y-96309500D01*
X145403802Y-96348679D01*
X145403799Y-96348679D01*
X145403799Y-96348680D01*
X145204982Y-96425701D01*
X145204980Y-96425702D01*
X145023699Y-96537947D01*
X144866127Y-96681593D01*
X144737634Y-96851744D01*
X144670676Y-96986215D01*
X144623173Y-97037452D01*
X144555510Y-97054873D01*
X144489170Y-97032947D01*
X144447294Y-96983348D01*
X144353600Y-96782422D01*
X144353599Y-96782420D01*
X144218113Y-96588926D01*
X144218108Y-96588920D01*
X144051082Y-96421894D01*
X143857578Y-96286399D01*
X143643492Y-96186570D01*
X143643486Y-96186567D01*
X143430000Y-96129364D01*
X143430000Y-97024498D01*
X143322315Y-96975320D01*
X143215763Y-96960000D01*
X143144237Y-96960000D01*
X143037685Y-96975320D01*
X142930000Y-97024498D01*
X142930000Y-96129364D01*
X142929999Y-96129364D01*
X142716513Y-96186567D01*
X142716507Y-96186570D01*
X142502422Y-96286399D01*
X142502420Y-96286400D01*
X142308926Y-96421886D01*
X142308920Y-96421891D01*
X142141891Y-96588920D01*
X142141890Y-96588922D01*
X142011575Y-96775031D01*
X141956998Y-96818655D01*
X141887499Y-96825848D01*
X141825145Y-96794326D01*
X141808425Y-96775031D01*
X141678109Y-96588922D01*
X141678108Y-96588920D01*
X141511082Y-96421894D01*
X141317578Y-96286399D01*
X141103492Y-96186570D01*
X141103486Y-96186567D01*
X140890000Y-96129364D01*
X140890000Y-97024498D01*
X140782315Y-96975320D01*
X140675763Y-96960000D01*
X140604237Y-96960000D01*
X140497685Y-96975320D01*
X140390000Y-97024498D01*
X140390000Y-96129364D01*
X140389999Y-96129364D01*
X140176513Y-96186567D01*
X140176507Y-96186570D01*
X139962422Y-96286399D01*
X139962420Y-96286400D01*
X139768926Y-96421886D01*
X139768920Y-96421891D01*
X139601891Y-96588920D01*
X139601886Y-96588926D01*
X139466400Y-96782420D01*
X139466399Y-96782422D01*
X139372705Y-96983348D01*
X139326532Y-97035787D01*
X139259339Y-97054939D01*
X139192457Y-97034723D01*
X139149323Y-96986215D01*
X139082366Y-96851745D01*
X139062809Y-96825848D01*
X138953872Y-96681593D01*
X138796302Y-96537948D01*
X138615019Y-96425702D01*
X138615017Y-96425701D01*
X138515608Y-96387190D01*
X138416198Y-96348679D01*
X138206610Y-96309500D01*
X137993390Y-96309500D01*
X137783802Y-96348679D01*
X137783799Y-96348679D01*
X137783799Y-96348680D01*
X137584982Y-96425701D01*
X137584980Y-96425702D01*
X137403699Y-96537947D01*
X137246127Y-96681593D01*
X137117632Y-96851746D01*
X137022596Y-97042605D01*
X137022596Y-97042607D01*
X136964244Y-97247689D01*
X136953471Y-97363951D01*
X136927685Y-97428888D01*
X136883130Y-97460804D01*
X136774622Y-97460804D01*
X136776869Y-97459194D01*
X136740497Y-97438331D01*
X136708307Y-97376318D01*
X136706529Y-97363951D01*
X136703175Y-97327759D01*
X136695756Y-97247690D01*
X136637405Y-97042611D01*
X136637403Y-97042606D01*
X136637403Y-97042605D01*
X136542367Y-96851746D01*
X136413872Y-96681593D01*
X136256302Y-96537948D01*
X136075019Y-96425702D01*
X136075017Y-96425701D01*
X135975608Y-96387190D01*
X135876198Y-96348679D01*
X135666610Y-96309500D01*
X135453390Y-96309500D01*
X135243802Y-96348679D01*
X135243799Y-96348679D01*
X135243799Y-96348680D01*
X135044982Y-96425701D01*
X135044980Y-96425702D01*
X134863699Y-96537947D01*
X134706127Y-96681593D01*
X134577632Y-96851746D01*
X134482596Y-97042605D01*
X134482596Y-97042607D01*
X134424244Y-97247689D01*
X134413471Y-97363951D01*
X134387685Y-97428888D01*
X134343130Y-97460804D01*
X134234622Y-97460804D01*
X134236869Y-97459194D01*
X134200497Y-97438331D01*
X134168307Y-97376318D01*
X134166529Y-97363951D01*
X134163175Y-97327759D01*
X134155756Y-97247690D01*
X134097405Y-97042611D01*
X134097403Y-97042606D01*
X134097403Y-97042605D01*
X134002367Y-96851746D01*
X133873872Y-96681593D01*
X133716302Y-96537948D01*
X133535019Y-96425702D01*
X133535017Y-96425701D01*
X133435608Y-96387190D01*
X133336198Y-96348679D01*
X133126610Y-96309500D01*
X132913390Y-96309500D01*
X132703802Y-96348679D01*
X132703799Y-96348679D01*
X132703799Y-96348680D01*
X132504982Y-96425701D01*
X132504980Y-96425702D01*
X132323699Y-96537947D01*
X132166127Y-96681593D01*
X132037632Y-96851746D01*
X131942596Y-97042605D01*
X131942596Y-97042607D01*
X131884244Y-97247689D01*
X131873471Y-97363951D01*
X131847685Y-97428888D01*
X131803130Y-97460804D01*
X131694622Y-97460804D01*
X131696869Y-97459194D01*
X131660497Y-97438331D01*
X131628307Y-97376318D01*
X131626529Y-97363951D01*
X131623175Y-97327759D01*
X131615756Y-97247690D01*
X131557405Y-97042611D01*
X131557403Y-97042606D01*
X131557403Y-97042605D01*
X131462367Y-96851746D01*
X131333872Y-96681593D01*
X131176302Y-96537948D01*
X130995019Y-96425702D01*
X130995017Y-96425701D01*
X130895608Y-96387190D01*
X130796198Y-96348679D01*
X130586610Y-96309500D01*
X130373390Y-96309500D01*
X130163802Y-96348679D01*
X130163799Y-96348679D01*
X130163799Y-96348680D01*
X129964982Y-96425701D01*
X129964980Y-96425702D01*
X129783699Y-96537947D01*
X129626127Y-96681593D01*
X129497632Y-96851746D01*
X129402596Y-97042605D01*
X129402596Y-97042607D01*
X129344244Y-97247689D01*
X129337970Y-97315394D01*
X129312183Y-97380331D01*
X129255383Y-97421018D01*
X129185602Y-97424538D01*
X129124995Y-97389772D01*
X129092806Y-97327759D01*
X129090499Y-97303952D01*
X129090499Y-96565143D01*
X129090499Y-96565136D01*
X129090497Y-96565117D01*
X129087586Y-96540012D01*
X129087585Y-96540010D01*
X129087585Y-96540009D01*
X129042206Y-96437235D01*
X128962765Y-96357794D01*
X128942124Y-96348680D01*
X128859992Y-96312415D01*
X128834865Y-96309500D01*
X127045143Y-96309500D01*
X127045117Y-96309502D01*
X127020012Y-96312413D01*
X127020008Y-96312415D01*
X126917235Y-96357793D01*
X126837794Y-96437234D01*
X126792415Y-96540006D01*
X126792415Y-96540008D01*
X126789500Y-96565131D01*
X126789500Y-98354856D01*
X115590674Y-98354856D01*
X115650545Y-98238407D01*
X115677649Y-98185690D01*
X115677651Y-98185684D01*
X115677656Y-98185675D01*
X115765118Y-97929305D01*
X115814319Y-97662933D01*
X115824212Y-97392235D01*
X115794586Y-97122982D01*
X115726072Y-96860912D01*
X115620130Y-96611610D01*
X115479018Y-96380390D01*
X115422449Y-96312415D01*
X115305746Y-96172180D01*
X115305740Y-96172175D01*
X115104002Y-95991418D01*
X114878092Y-95841957D01*
X114878090Y-95841956D01*
X114632824Y-95726980D01*
X114632819Y-95726978D01*
X114632814Y-95726976D01*
X114373442Y-95648942D01*
X114373428Y-95648939D01*
X114257791Y-95631921D01*
X114105439Y-95609500D01*
X113902369Y-95609500D01*
X113902351Y-95609500D01*
X113699844Y-95624323D01*
X113699831Y-95624325D01*
X113435453Y-95683217D01*
X113435446Y-95683220D01*
X113182439Y-95779987D01*
X112946226Y-95912557D01*
X112731822Y-96078112D01*
X112543822Y-96273109D01*
X112543816Y-96273116D01*
X112386202Y-96493419D01*
X112386199Y-96493424D01*
X112262350Y-96734309D01*
X112262343Y-96734327D01*
X112174884Y-96990685D01*
X112174881Y-96990699D01*
X112125681Y-97257068D01*
X112125680Y-97257075D01*
X112115787Y-97527763D01*
X112145413Y-97797013D01*
X112145415Y-97797024D01*
X112188023Y-97960000D01*
X112213928Y-98059088D01*
X112319870Y-98308390D01*
X112435652Y-98498105D01*
X112460979Y-98539605D01*
X112460986Y-98539615D01*
X112634253Y-98747819D01*
X112634259Y-98747824D01*
X112835998Y-98928582D01*
X113061910Y-99078044D01*
X113307176Y-99193020D01*
X113307183Y-99193022D01*
X113307185Y-99193023D01*
X113520691Y-99257258D01*
X113579217Y-99295422D01*
X113607819Y-99359169D01*
X113597417Y-99428260D01*
X113551312Y-99480758D01*
X113484967Y-99500000D01*
X100624000Y-99500000D01*
X100556961Y-99480315D01*
X100511206Y-99427511D01*
X100500000Y-99376000D01*
X100500000Y-92447763D01*
X164185787Y-92447763D01*
X164215413Y-92717013D01*
X164215415Y-92717024D01*
X164283328Y-92976793D01*
X164283928Y-92979088D01*
X164389870Y-93228390D01*
X164441042Y-93312238D01*
X164530979Y-93459605D01*
X164530986Y-93459615D01*
X164704253Y-93667819D01*
X164704259Y-93667824D01*
X164905998Y-93848582D01*
X165131910Y-93998044D01*
X165377176Y-94113020D01*
X165377183Y-94113022D01*
X165377185Y-94113023D01*
X165636557Y-94191057D01*
X165636564Y-94191058D01*
X165636569Y-94191060D01*
X165904561Y-94230500D01*
X165904566Y-94230500D01*
X166107629Y-94230500D01*
X166107631Y-94230500D01*
X166107636Y-94230499D01*
X166107648Y-94230499D01*
X166145191Y-94227750D01*
X166310156Y-94215677D01*
X166422758Y-94190593D01*
X166574546Y-94156782D01*
X166574548Y-94156781D01*
X166574553Y-94156780D01*
X166827558Y-94060014D01*
X167063777Y-93927441D01*
X167278177Y-93761888D01*
X167466186Y-93566881D01*
X167551350Y-93447844D01*
X170600000Y-93447844D01*
X170606401Y-93507372D01*
X170606403Y-93507379D01*
X170656645Y-93642086D01*
X170656649Y-93642093D01*
X170742809Y-93757187D01*
X170742812Y-93757190D01*
X170857906Y-93843350D01*
X170857913Y-93843354D01*
X170992620Y-93893596D01*
X170992627Y-93893598D01*
X171052155Y-93899999D01*
X171052172Y-93900000D01*
X171750000Y-93900000D01*
X171750000Y-92874189D01*
X171802547Y-92910016D01*
X171932173Y-92950000D01*
X172033724Y-92950000D01*
X172134138Y-92934865D01*
X172250000Y-92879068D01*
X172250000Y-93900000D01*
X172947828Y-93900000D01*
X172947844Y-93899999D01*
X173007372Y-93893598D01*
X173007379Y-93893596D01*
X173142086Y-93843354D01*
X173142093Y-93843350D01*
X173257187Y-93757190D01*
X173257190Y-93757187D01*
X173343350Y-93642093D01*
X173343354Y-93642086D01*
X173393596Y-93507379D01*
X173393598Y-93507372D01*
X173399999Y-93447844D01*
X173400000Y-93447827D01*
X173400000Y-93352447D01*
X173419685Y-93285408D01*
X173472489Y-93239653D01*
X173541647Y-93229709D01*
X173605203Y-93258734D01*
X173622954Y-93277721D01*
X173649017Y-93312234D01*
X173649019Y-93312237D01*
X173813437Y-93462123D01*
X173813439Y-93462125D01*
X174002595Y-93579245D01*
X174002596Y-93579245D01*
X174002599Y-93579247D01*
X174210060Y-93659618D01*
X174428757Y-93700500D01*
X174428759Y-93700500D01*
X174651241Y-93700500D01*
X174651243Y-93700500D01*
X174869940Y-93659618D01*
X175077401Y-93579247D01*
X175266562Y-93462124D01*
X175430981Y-93312236D01*
X175565058Y-93134689D01*
X175565063Y-93134679D01*
X175597654Y-93069229D01*
X175645157Y-93017991D01*
X175708654Y-93000500D01*
X176943056Y-93000500D01*
X177010095Y-93020185D01*
X177054055Y-93069226D01*
X177060326Y-93081821D01*
X177183237Y-93244581D01*
X177333958Y-93381980D01*
X177333960Y-93381982D01*
X177433141Y-93443392D01*
X177507363Y-93489348D01*
X177697544Y-93563024D01*
X177898024Y-93600500D01*
X177898026Y-93600500D01*
X178101974Y-93600500D01*
X178101976Y-93600500D01*
X178302456Y-93563024D01*
X178492637Y-93489348D01*
X178666041Y-93381981D01*
X178816764Y-93244579D01*
X178939673Y-93081821D01*
X179030582Y-92899250D01*
X179086397Y-92703083D01*
X179105215Y-92500000D01*
X184514785Y-92500000D01*
X184533602Y-92703082D01*
X184589417Y-92899247D01*
X184589422Y-92899260D01*
X184680327Y-93081821D01*
X184803237Y-93244581D01*
X184953958Y-93381980D01*
X184953960Y-93381982D01*
X185053141Y-93443392D01*
X185127363Y-93489348D01*
X185317544Y-93563024D01*
X185518024Y-93600500D01*
X185518026Y-93600500D01*
X185721974Y-93600500D01*
X185721976Y-93600500D01*
X185922456Y-93563024D01*
X186112637Y-93489348D01*
X186286041Y-93381981D01*
X186436764Y-93244579D01*
X186559673Y-93081821D01*
X186650582Y-92899250D01*
X186706397Y-92703083D01*
X186725215Y-92500000D01*
X186706397Y-92296917D01*
X186650582Y-92100750D01*
X186645221Y-92089984D01*
X186578031Y-91955048D01*
X186559673Y-91918179D01*
X186446721Y-91768606D01*
X186436762Y-91755418D01*
X186286041Y-91618019D01*
X186286039Y-91618017D01*
X186112642Y-91510655D01*
X186112635Y-91510651D01*
X186017546Y-91473814D01*
X185922456Y-91436976D01*
X185721976Y-91399500D01*
X185518024Y-91399500D01*
X185317544Y-91436976D01*
X185317541Y-91436976D01*
X185317541Y-91436977D01*
X185127364Y-91510651D01*
X185127357Y-91510655D01*
X184953960Y-91618017D01*
X184953958Y-91618019D01*
X184803237Y-91755418D01*
X184680327Y-91918178D01*
X184589422Y-92100739D01*
X184589417Y-92100752D01*
X184533602Y-92296917D01*
X184514785Y-92499999D01*
X184514785Y-92500000D01*
X179105215Y-92500000D01*
X179086397Y-92296917D01*
X179030582Y-92100750D01*
X179025221Y-92089984D01*
X178958031Y-91955048D01*
X178939673Y-91918179D01*
X178826721Y-91768606D01*
X178816762Y-91755418D01*
X178666041Y-91618019D01*
X178666039Y-91618017D01*
X178492642Y-91510655D01*
X178492635Y-91510651D01*
X178397546Y-91473814D01*
X178302456Y-91436976D01*
X178101976Y-91399500D01*
X177898024Y-91399500D01*
X177697544Y-91436976D01*
X177697541Y-91436976D01*
X177697541Y-91436977D01*
X177507364Y-91510651D01*
X177507357Y-91510655D01*
X177333960Y-91618017D01*
X177333958Y-91618019D01*
X177183237Y-91755418D01*
X177060326Y-91918178D01*
X177054055Y-91930774D01*
X177006551Y-91982010D01*
X176943056Y-91999500D01*
X175708654Y-91999500D01*
X175641615Y-91979815D01*
X175597654Y-91930771D01*
X175565063Y-91865320D01*
X175565056Y-91865308D01*
X175430979Y-91687761D01*
X175266562Y-91537876D01*
X175266560Y-91537874D01*
X175077404Y-91420754D01*
X175077398Y-91420752D01*
X174869940Y-91340382D01*
X174651243Y-91299500D01*
X174428757Y-91299500D01*
X174210060Y-91340382D01*
X174078864Y-91391207D01*
X174002601Y-91420752D01*
X174002595Y-91420754D01*
X173813439Y-91537874D01*
X173813437Y-91537876D01*
X173649019Y-91687762D01*
X173622953Y-91722280D01*
X173566844Y-91763915D01*
X173497132Y-91768606D01*
X173435950Y-91734863D01*
X173402724Y-91673400D01*
X173400000Y-91647552D01*
X173400000Y-91552172D01*
X173399999Y-91552155D01*
X173393598Y-91492627D01*
X173393596Y-91492620D01*
X173343354Y-91357913D01*
X173343350Y-91357906D01*
X173257190Y-91242812D01*
X173257187Y-91242809D01*
X173142093Y-91156649D01*
X173142086Y-91156645D01*
X173007379Y-91106403D01*
X173007372Y-91106401D01*
X172947844Y-91100000D01*
X172250000Y-91100000D01*
X172250000Y-92125810D01*
X172197453Y-92089984D01*
X172067827Y-92050000D01*
X171966276Y-92050000D01*
X171865862Y-92065135D01*
X171750000Y-92120931D01*
X171750000Y-91100000D01*
X171052155Y-91100000D01*
X170992627Y-91106401D01*
X170992620Y-91106403D01*
X170857913Y-91156645D01*
X170857906Y-91156649D01*
X170742812Y-91242809D01*
X170742809Y-91242812D01*
X170656649Y-91357906D01*
X170656645Y-91357913D01*
X170606403Y-91492620D01*
X170606401Y-91492627D01*
X170600000Y-91552155D01*
X170600000Y-92250000D01*
X171624722Y-92250000D01*
X171576375Y-92333740D01*
X171546190Y-92465992D01*
X171556327Y-92601265D01*
X171605887Y-92727541D01*
X171623797Y-92750000D01*
X170600000Y-92750000D01*
X170600000Y-93447844D01*
X167551350Y-93447844D01*
X167623799Y-93346579D01*
X167713073Y-93172939D01*
X167747649Y-93105690D01*
X167747651Y-93105684D01*
X167747656Y-93105675D01*
X167835118Y-92849305D01*
X167884319Y-92582933D01*
X167894212Y-92312235D01*
X167864586Y-92042982D01*
X167796072Y-91780912D01*
X167690130Y-91531610D01*
X167549018Y-91300390D01*
X167547845Y-91298981D01*
X167375746Y-91092180D01*
X167375740Y-91092175D01*
X167174002Y-90911418D01*
X166948092Y-90761957D01*
X166948090Y-90761956D01*
X166702824Y-90646980D01*
X166702819Y-90646978D01*
X166702814Y-90646976D01*
X166443442Y-90568942D01*
X166443428Y-90568939D01*
X166327791Y-90551921D01*
X166175439Y-90529500D01*
X165972369Y-90529500D01*
X165972351Y-90529500D01*
X165769844Y-90544323D01*
X165769831Y-90544325D01*
X165505453Y-90603217D01*
X165505446Y-90603220D01*
X165252439Y-90699987D01*
X165016226Y-90832557D01*
X165016224Y-90832558D01*
X165016223Y-90832559D01*
X164953893Y-90880688D01*
X164801822Y-90998112D01*
X164613822Y-91193109D01*
X164613816Y-91193116D01*
X164456202Y-91413419D01*
X164456199Y-91413424D01*
X164332350Y-91654309D01*
X164332343Y-91654327D01*
X164244884Y-91910685D01*
X164244881Y-91910699D01*
X164195681Y-92177068D01*
X164195680Y-92177075D01*
X164185787Y-92447763D01*
X100500000Y-92447763D01*
X100500000Y-47284000D01*
X100519685Y-47216961D01*
X100572489Y-47171206D01*
X100624000Y-47160000D01*
X114760127Y-47160000D01*
X114827166Y-47179685D01*
G37*
%TD.AperFunction*%
%TA.AperFunction,Conductor*%
G36*
X195474240Y-49720185D02*
G01*
X195518201Y-49769229D01*
X195537632Y-49808253D01*
X195633052Y-49934608D01*
X195666128Y-49978407D01*
X195823698Y-50122052D01*
X196004981Y-50234298D01*
X196203802Y-50311321D01*
X196400613Y-50348111D01*
X196462893Y-50379779D01*
X196498166Y-50440092D01*
X196495232Y-50509900D01*
X196455023Y-50567040D01*
X196400613Y-50591888D01*
X196203802Y-50628679D01*
X196203799Y-50628679D01*
X196203799Y-50628680D01*
X196004982Y-50705701D01*
X196004980Y-50705702D01*
X195823699Y-50817947D01*
X195666127Y-50961593D01*
X195537632Y-51131746D01*
X195442596Y-51322605D01*
X195442596Y-51322607D01*
X195384244Y-51527689D01*
X195373471Y-51643951D01*
X195347685Y-51708888D01*
X195303130Y-51740804D01*
X195339503Y-51761668D01*
X195371693Y-51823681D01*
X195373470Y-51836047D01*
X195384244Y-51952310D01*
X195422243Y-52085862D01*
X195442596Y-52157392D01*
X195442596Y-52157394D01*
X195537632Y-52348253D01*
X195632074Y-52473313D01*
X195666128Y-52518407D01*
X195823698Y-52662052D01*
X196004981Y-52774298D01*
X196203802Y-52851321D01*
X196400613Y-52888111D01*
X196462893Y-52919779D01*
X196498166Y-52980092D01*
X196495232Y-53049900D01*
X196455023Y-53107040D01*
X196400613Y-53131888D01*
X196203802Y-53168679D01*
X196203799Y-53168679D01*
X196203799Y-53168680D01*
X196004982Y-53245701D01*
X196004980Y-53245702D01*
X195823699Y-53357947D01*
X195666127Y-53501593D01*
X195537632Y-53671746D01*
X195442596Y-53862605D01*
X195442596Y-53862607D01*
X195384244Y-54067689D01*
X195373471Y-54183951D01*
X195347685Y-54248888D01*
X195303130Y-54280804D01*
X195339503Y-54301668D01*
X195371693Y-54363681D01*
X195373471Y-54376048D01*
X195384244Y-54492310D01*
X195442596Y-54697392D01*
X195442596Y-54697394D01*
X195537632Y-54888253D01*
X195537634Y-54888255D01*
X195666128Y-55058407D01*
X195823698Y-55202052D01*
X196004981Y-55314298D01*
X196203802Y-55391321D01*
X196400613Y-55428111D01*
X196462893Y-55459779D01*
X196498166Y-55520092D01*
X196495232Y-55589900D01*
X196455023Y-55647040D01*
X196400613Y-55671888D01*
X196203802Y-55708679D01*
X196203799Y-55708679D01*
X196203799Y-55708680D01*
X196004982Y-55785701D01*
X196004980Y-55785702D01*
X195823699Y-55897947D01*
X195666127Y-56041593D01*
X195537632Y-56211746D01*
X195442596Y-56402605D01*
X195442596Y-56402607D01*
X195384244Y-56607689D01*
X195373471Y-56723951D01*
X195347685Y-56788888D01*
X195303130Y-56820804D01*
X195339503Y-56841668D01*
X195371693Y-56903681D01*
X195373470Y-56916047D01*
X195384244Y-57032310D01*
X195438878Y-57224327D01*
X195442596Y-57237392D01*
X195442596Y-57237394D01*
X195537632Y-57428253D01*
X195643388Y-57568295D01*
X195666128Y-57598407D01*
X195823698Y-57742052D01*
X196004981Y-57854298D01*
X196203802Y-57931321D01*
X196400613Y-57968111D01*
X196462893Y-57999779D01*
X196498166Y-58060092D01*
X196495232Y-58129900D01*
X196455023Y-58187040D01*
X196400613Y-58211888D01*
X196203802Y-58248679D01*
X196203799Y-58248679D01*
X196203799Y-58248680D01*
X196004982Y-58325701D01*
X196004980Y-58325702D01*
X195823699Y-58437947D01*
X195666127Y-58581593D01*
X195537632Y-58751746D01*
X195442596Y-58942605D01*
X195442596Y-58942607D01*
X195384244Y-59147689D01*
X195373471Y-59263951D01*
X195347685Y-59328888D01*
X195303130Y-59360804D01*
X195339503Y-59381668D01*
X195371693Y-59443681D01*
X195373470Y-59456047D01*
X195373943Y-59461145D01*
X195384244Y-59572310D01*
X195442596Y-59777392D01*
X195442596Y-59777394D01*
X195537632Y-59968253D01*
X195666127Y-60138406D01*
X195666128Y-60138407D01*
X195823698Y-60282052D01*
X196004981Y-60394298D01*
X196203802Y-60471321D01*
X196400613Y-60508111D01*
X196462893Y-60539779D01*
X196498166Y-60600092D01*
X196495232Y-60669900D01*
X196455023Y-60727040D01*
X196400613Y-60751888D01*
X196203802Y-60788679D01*
X196203799Y-60788679D01*
X196203799Y-60788680D01*
X196004982Y-60865701D01*
X196004980Y-60865702D01*
X195823699Y-60977947D01*
X195666127Y-61121593D01*
X195537632Y-61291746D01*
X195442596Y-61482605D01*
X195442596Y-61482607D01*
X195384244Y-61687689D01*
X195373471Y-61803951D01*
X195347685Y-61868888D01*
X195303130Y-61900804D01*
X195339503Y-61921668D01*
X195371693Y-61983681D01*
X195373470Y-61996047D01*
X195384244Y-62112310D01*
X195434791Y-62289963D01*
X195442596Y-62317392D01*
X195442596Y-62317394D01*
X195537632Y-62508253D01*
X195628772Y-62628940D01*
X195666128Y-62678407D01*
X195823698Y-62822052D01*
X196004981Y-62934298D01*
X196203802Y-63011321D01*
X196400613Y-63048111D01*
X196462893Y-63079779D01*
X196498166Y-63140092D01*
X196495232Y-63209900D01*
X196455023Y-63267040D01*
X196400613Y-63291888D01*
X196203802Y-63328679D01*
X196203799Y-63328679D01*
X196203799Y-63328680D01*
X196004982Y-63405701D01*
X196004980Y-63405702D01*
X195823699Y-63517947D01*
X195666127Y-63661593D01*
X195537632Y-63831746D01*
X195442596Y-64022605D01*
X195442596Y-64022607D01*
X195384244Y-64227689D01*
X195373471Y-64343951D01*
X195347685Y-64408888D01*
X195303130Y-64440804D01*
X195339503Y-64461668D01*
X195371693Y-64523681D01*
X195373470Y-64536047D01*
X195384244Y-64652310D01*
X195434791Y-64829963D01*
X195442596Y-64857392D01*
X195442596Y-64857394D01*
X195537632Y-65048253D01*
X195666127Y-65218406D01*
X195666128Y-65218407D01*
X195823698Y-65362052D01*
X196004981Y-65474298D01*
X196203802Y-65551321D01*
X196400613Y-65588111D01*
X196462893Y-65619779D01*
X196498166Y-65680092D01*
X196495232Y-65749900D01*
X196455023Y-65807040D01*
X196400613Y-65831888D01*
X196203802Y-65868679D01*
X196203799Y-65868679D01*
X196203799Y-65868680D01*
X196004982Y-65945701D01*
X196004980Y-65945702D01*
X195823699Y-66057947D01*
X195666127Y-66201593D01*
X195537632Y-66371746D01*
X195442596Y-66562605D01*
X195442596Y-66562607D01*
X195384244Y-66767689D01*
X195373471Y-66883951D01*
X195347685Y-66948888D01*
X195303130Y-66980804D01*
X195339503Y-67001668D01*
X195371693Y-67063681D01*
X195373470Y-67076047D01*
X195384244Y-67192310D01*
X195432049Y-67360326D01*
X195442596Y-67397392D01*
X195442596Y-67397394D01*
X195537632Y-67588253D01*
X195666127Y-67758406D01*
X195666128Y-67758407D01*
X195823698Y-67902052D01*
X196004981Y-68014298D01*
X196203802Y-68091321D01*
X196400613Y-68128111D01*
X196462893Y-68159779D01*
X196498166Y-68220092D01*
X196495232Y-68289900D01*
X196455023Y-68347040D01*
X196400613Y-68371888D01*
X196203802Y-68408679D01*
X196203799Y-68408679D01*
X196203799Y-68408680D01*
X196004982Y-68485701D01*
X196004980Y-68485702D01*
X195823699Y-68597947D01*
X195666127Y-68741593D01*
X195537632Y-68911746D01*
X195442596Y-69102605D01*
X195442596Y-69102607D01*
X195384244Y-69307689D01*
X195373471Y-69423951D01*
X195347685Y-69488888D01*
X195303130Y-69520804D01*
X195339503Y-69541668D01*
X195371693Y-69603681D01*
X195373470Y-69616047D01*
X195384244Y-69732310D01*
X195417437Y-69848971D01*
X195442596Y-69937392D01*
X195442596Y-69937394D01*
X195537632Y-70128253D01*
X195646464Y-70272368D01*
X195666128Y-70298407D01*
X195823698Y-70442052D01*
X196004981Y-70554298D01*
X196203802Y-70631321D01*
X196400613Y-70668111D01*
X196462893Y-70699779D01*
X196498166Y-70760092D01*
X196495232Y-70829900D01*
X196455023Y-70887040D01*
X196400613Y-70911888D01*
X196203802Y-70948679D01*
X196203799Y-70948679D01*
X196203799Y-70948680D01*
X196004982Y-71025701D01*
X196004980Y-71025702D01*
X195823699Y-71137947D01*
X195666127Y-71281593D01*
X195537632Y-71451746D01*
X195442596Y-71642605D01*
X195442596Y-71642607D01*
X195384244Y-71847689D01*
X195373471Y-71963951D01*
X195347685Y-72028888D01*
X195303130Y-72060804D01*
X195339503Y-72081668D01*
X195371693Y-72143681D01*
X195373471Y-72156048D01*
X195384244Y-72272310D01*
X195442596Y-72477392D01*
X195442596Y-72477394D01*
X195537632Y-72668253D01*
X195666066Y-72838325D01*
X195666128Y-72838407D01*
X195823698Y-72982052D01*
X196004981Y-73094298D01*
X196203802Y-73171321D01*
X196400613Y-73208111D01*
X196462893Y-73239779D01*
X196498166Y-73300092D01*
X196495232Y-73369900D01*
X196455023Y-73427040D01*
X196400613Y-73451888D01*
X196203802Y-73488679D01*
X196203799Y-73488679D01*
X196203799Y-73488680D01*
X196004982Y-73565701D01*
X196004980Y-73565702D01*
X195823699Y-73677947D01*
X195666127Y-73821593D01*
X195537632Y-73991746D01*
X195442596Y-74182605D01*
X195442596Y-74182607D01*
X195384244Y-74387689D01*
X195373471Y-74503951D01*
X195347685Y-74568888D01*
X195303130Y-74600804D01*
X195339503Y-74621668D01*
X195371693Y-74683681D01*
X195373471Y-74696048D01*
X195384244Y-74812310D01*
X195442596Y-75017392D01*
X195442596Y-75017394D01*
X195537632Y-75208253D01*
X195537634Y-75208255D01*
X195666128Y-75378407D01*
X195823698Y-75522052D01*
X196004981Y-75634298D01*
X196203802Y-75711321D01*
X196400613Y-75748111D01*
X196462893Y-75779779D01*
X196498166Y-75840092D01*
X196495232Y-75909900D01*
X196455023Y-75967040D01*
X196400613Y-75991888D01*
X196203802Y-76028679D01*
X196203799Y-76028679D01*
X196203799Y-76028680D01*
X196004982Y-76105701D01*
X196004980Y-76105702D01*
X195823699Y-76217947D01*
X195666127Y-76361593D01*
X195537632Y-76531746D01*
X195442596Y-76722605D01*
X195442596Y-76722607D01*
X195384244Y-76927689D01*
X195373471Y-77043951D01*
X195347685Y-77108888D01*
X195303130Y-77140804D01*
X195339503Y-77161668D01*
X195371693Y-77223681D01*
X195373470Y-77236047D01*
X195384244Y-77352310D01*
X195437520Y-77539554D01*
X195442596Y-77557392D01*
X195442596Y-77557394D01*
X195537632Y-77748253D01*
X195666127Y-77918406D01*
X195666128Y-77918407D01*
X195823698Y-78062052D01*
X196004981Y-78174298D01*
X196203802Y-78251321D01*
X196400613Y-78288111D01*
X196462893Y-78319779D01*
X196498166Y-78380092D01*
X196495232Y-78449900D01*
X196455023Y-78507040D01*
X196400613Y-78531888D01*
X196203802Y-78568679D01*
X196203799Y-78568679D01*
X196203799Y-78568680D01*
X196004982Y-78645701D01*
X196004980Y-78645702D01*
X195823699Y-78757947D01*
X195666127Y-78901593D01*
X195537632Y-79071746D01*
X195442596Y-79262605D01*
X195442596Y-79262607D01*
X195384244Y-79467689D01*
X195373471Y-79583951D01*
X195347685Y-79648888D01*
X195303130Y-79680804D01*
X195339503Y-79701668D01*
X195371693Y-79763681D01*
X195373471Y-79776048D01*
X195384244Y-79892310D01*
X195442596Y-80097392D01*
X195442596Y-80097394D01*
X195537632Y-80288253D01*
X195537634Y-80288255D01*
X195666128Y-80458407D01*
X195823698Y-80602052D01*
X196004981Y-80714298D01*
X196203802Y-80791321D01*
X196400613Y-80828111D01*
X196462893Y-80859779D01*
X196498166Y-80920092D01*
X196495232Y-80989900D01*
X196455023Y-81047040D01*
X196400613Y-81071888D01*
X196203802Y-81108679D01*
X196203799Y-81108679D01*
X196203799Y-81108680D01*
X196004982Y-81185701D01*
X196004980Y-81185702D01*
X195823699Y-81297947D01*
X195666127Y-81441593D01*
X195537632Y-81611746D01*
X195442596Y-81802605D01*
X195442596Y-81802607D01*
X195384244Y-82007689D01*
X195373471Y-82123951D01*
X195347685Y-82188888D01*
X195303130Y-82220804D01*
X195339503Y-82241668D01*
X195371693Y-82303681D01*
X195373471Y-82316048D01*
X195384244Y-82432310D01*
X195442596Y-82637392D01*
X195442596Y-82637394D01*
X195537632Y-82828253D01*
X195660990Y-82991603D01*
X195666128Y-82998407D01*
X195823698Y-83142052D01*
X196004981Y-83254298D01*
X196203802Y-83331321D01*
X196400613Y-83368111D01*
X196462893Y-83399779D01*
X196498166Y-83460092D01*
X196495232Y-83529900D01*
X196455023Y-83587040D01*
X196400613Y-83611888D01*
X196203802Y-83648679D01*
X196203799Y-83648679D01*
X196203799Y-83648680D01*
X196004982Y-83725701D01*
X196004980Y-83725702D01*
X195823699Y-83837947D01*
X195666127Y-83981593D01*
X195537632Y-84151746D01*
X195442596Y-84342605D01*
X195442596Y-84342607D01*
X195384244Y-84547689D01*
X195373471Y-84663951D01*
X195347685Y-84728888D01*
X195303130Y-84760804D01*
X195339503Y-84781668D01*
X195371693Y-84843681D01*
X195373471Y-84856048D01*
X195384244Y-84972310D01*
X195442596Y-85177392D01*
X195442596Y-85177394D01*
X195537632Y-85368253D01*
X195666127Y-85538406D01*
X195666128Y-85538407D01*
X195823698Y-85682052D01*
X196004981Y-85794298D01*
X196203802Y-85871321D01*
X196400613Y-85908111D01*
X196462893Y-85939779D01*
X196498166Y-86000092D01*
X196495232Y-86069900D01*
X196455023Y-86127040D01*
X196400613Y-86151888D01*
X196203802Y-86188679D01*
X196203799Y-86188679D01*
X196203799Y-86188680D01*
X196004982Y-86265701D01*
X196004980Y-86265702D01*
X195823699Y-86377947D01*
X195666127Y-86521593D01*
X195537632Y-86691746D01*
X195442596Y-86882605D01*
X195442596Y-86882607D01*
X195384244Y-87087689D01*
X195373471Y-87203951D01*
X195347685Y-87268888D01*
X195303130Y-87300804D01*
X195339503Y-87321668D01*
X195371693Y-87383681D01*
X195373470Y-87396047D01*
X195384244Y-87512310D01*
X195401216Y-87571961D01*
X195442596Y-87717392D01*
X195442596Y-87717394D01*
X195537632Y-87908253D01*
X195607533Y-88000816D01*
X195666128Y-88078407D01*
X195823698Y-88222052D01*
X196004981Y-88334298D01*
X196203802Y-88411321D01*
X196400613Y-88448111D01*
X196462893Y-88479779D01*
X196498166Y-88540092D01*
X196495232Y-88609900D01*
X196455023Y-88667040D01*
X196400613Y-88691888D01*
X196203802Y-88728679D01*
X196203799Y-88728679D01*
X196203799Y-88728680D01*
X196004982Y-88805701D01*
X196004980Y-88805702D01*
X195823699Y-88917947D01*
X195666127Y-89061593D01*
X195537632Y-89231746D01*
X195442596Y-89422605D01*
X195442596Y-89422607D01*
X195384244Y-89627689D01*
X195373471Y-89743951D01*
X195347685Y-89808888D01*
X195303130Y-89840804D01*
X195339503Y-89861668D01*
X195371693Y-89923681D01*
X195373471Y-89936048D01*
X195384244Y-90052310D01*
X195442596Y-90257392D01*
X195442596Y-90257394D01*
X195537632Y-90448253D01*
X195610183Y-90544325D01*
X195666128Y-90618407D01*
X195823698Y-90762052D01*
X196004981Y-90874298D01*
X196203802Y-90951321D01*
X196413390Y-90990500D01*
X196413392Y-90990500D01*
X196626608Y-90990500D01*
X196626610Y-90990500D01*
X196836198Y-90951321D01*
X197035019Y-90874298D01*
X197216302Y-90762052D01*
X197373872Y-90618407D01*
X197502366Y-90448255D01*
X197597405Y-90257389D01*
X197655756Y-90052310D01*
X197675429Y-89840000D01*
X197655756Y-89627690D01*
X197597405Y-89422611D01*
X197597403Y-89422606D01*
X197597403Y-89422605D01*
X197502367Y-89231746D01*
X197373872Y-89061593D01*
X197216302Y-88917948D01*
X197035019Y-88805702D01*
X197035017Y-88805701D01*
X196855924Y-88736321D01*
X196836198Y-88728679D01*
X196639385Y-88691888D01*
X196577106Y-88660221D01*
X196541833Y-88599908D01*
X196544767Y-88530100D01*
X196584976Y-88472960D01*
X196639384Y-88448111D01*
X196836198Y-88411321D01*
X197035019Y-88334298D01*
X197216302Y-88222052D01*
X197373872Y-88078407D01*
X197502366Y-87908255D01*
X197521576Y-87869675D01*
X197597403Y-87717394D01*
X197597403Y-87717393D01*
X197597405Y-87717389D01*
X197655756Y-87512310D01*
X197675429Y-87300000D01*
X197655756Y-87087690D01*
X197597405Y-86882611D01*
X197597403Y-86882606D01*
X197597403Y-86882605D01*
X197502367Y-86691746D01*
X197373872Y-86521593D01*
X197338497Y-86489344D01*
X197216302Y-86377948D01*
X197035019Y-86265702D01*
X197035017Y-86265701D01*
X196935608Y-86227190D01*
X196836198Y-86188679D01*
X196639385Y-86151888D01*
X196577106Y-86120221D01*
X196541833Y-86059908D01*
X196544767Y-85990100D01*
X196584976Y-85932960D01*
X196639384Y-85908111D01*
X196836198Y-85871321D01*
X197035019Y-85794298D01*
X197216302Y-85682052D01*
X197373872Y-85538407D01*
X197502366Y-85368255D01*
X197569153Y-85234128D01*
X197597403Y-85177394D01*
X197597403Y-85177393D01*
X197597405Y-85177389D01*
X197655756Y-84972310D01*
X197675429Y-84760000D01*
X197655756Y-84547690D01*
X197597405Y-84342611D01*
X197597403Y-84342606D01*
X197597403Y-84342605D01*
X197502367Y-84151746D01*
X197373872Y-83981593D01*
X197216302Y-83837948D01*
X197035019Y-83725702D01*
X197035017Y-83725701D01*
X196935608Y-83687190D01*
X196836198Y-83648679D01*
X196639385Y-83611888D01*
X196577106Y-83580221D01*
X196541833Y-83519908D01*
X196544767Y-83450100D01*
X196584976Y-83392960D01*
X196639384Y-83368111D01*
X196836198Y-83331321D01*
X197035019Y-83254298D01*
X197216302Y-83142052D01*
X197373872Y-82998407D01*
X197502366Y-82828255D01*
X197529557Y-82773648D01*
X197597403Y-82637394D01*
X197597403Y-82637393D01*
X197597405Y-82637389D01*
X197655756Y-82432310D01*
X197675429Y-82220000D01*
X197655756Y-82007690D01*
X197597405Y-81802611D01*
X197597403Y-81802606D01*
X197597403Y-81802605D01*
X197502367Y-81611746D01*
X197373872Y-81441593D01*
X197216302Y-81297948D01*
X197035019Y-81185702D01*
X197035017Y-81185701D01*
X196935608Y-81147190D01*
X196836198Y-81108679D01*
X196639385Y-81071888D01*
X196577106Y-81040221D01*
X196541833Y-80979908D01*
X196544767Y-80910100D01*
X196584976Y-80852960D01*
X196639384Y-80828111D01*
X196836198Y-80791321D01*
X197035019Y-80714298D01*
X197216302Y-80602052D01*
X197373872Y-80458407D01*
X197502366Y-80288255D01*
X197597405Y-80097389D01*
X197655756Y-79892310D01*
X197675429Y-79680000D01*
X197655756Y-79467690D01*
X197597405Y-79262611D01*
X197597403Y-79262606D01*
X197597403Y-79262605D01*
X197502367Y-79071746D01*
X197373872Y-78901593D01*
X197216302Y-78757948D01*
X197035019Y-78645702D01*
X197035017Y-78645701D01*
X196887540Y-78588569D01*
X196836198Y-78568679D01*
X196639385Y-78531888D01*
X196577106Y-78500221D01*
X196541833Y-78439908D01*
X196544767Y-78370100D01*
X196584976Y-78312960D01*
X196639384Y-78288111D01*
X196836198Y-78251321D01*
X197035019Y-78174298D01*
X197216302Y-78062052D01*
X197373872Y-77918407D01*
X197502366Y-77748255D01*
X197521492Y-77709844D01*
X197597403Y-77557394D01*
X197597403Y-77557393D01*
X197597405Y-77557389D01*
X197655756Y-77352310D01*
X197675429Y-77140000D01*
X197655756Y-76927690D01*
X197597405Y-76722611D01*
X197597403Y-76722606D01*
X197597403Y-76722605D01*
X197502367Y-76531746D01*
X197373872Y-76361593D01*
X197268616Y-76265639D01*
X197216302Y-76217948D01*
X197035019Y-76105702D01*
X197035017Y-76105701D01*
X196935608Y-76067190D01*
X196836198Y-76028679D01*
X196639385Y-75991888D01*
X196577106Y-75960221D01*
X196541833Y-75899908D01*
X196544767Y-75830100D01*
X196584976Y-75772960D01*
X196639384Y-75748111D01*
X196836198Y-75711321D01*
X197035019Y-75634298D01*
X197216302Y-75522052D01*
X197373872Y-75378407D01*
X197502366Y-75208255D01*
X197597405Y-75017389D01*
X197655756Y-74812310D01*
X197675429Y-74600000D01*
X197655756Y-74387690D01*
X197597405Y-74182611D01*
X197597403Y-74182606D01*
X197597403Y-74182605D01*
X197502367Y-73991746D01*
X197373872Y-73821593D01*
X197216302Y-73677948D01*
X197035019Y-73565702D01*
X197035017Y-73565701D01*
X196935608Y-73527190D01*
X196836198Y-73488679D01*
X196639385Y-73451888D01*
X196577106Y-73420221D01*
X196541833Y-73359908D01*
X196544767Y-73290100D01*
X196584976Y-73232960D01*
X196639384Y-73208111D01*
X196836198Y-73171321D01*
X197035019Y-73094298D01*
X197216302Y-72982052D01*
X197373872Y-72838407D01*
X197502366Y-72668255D01*
X197597405Y-72477389D01*
X197655756Y-72272310D01*
X197675429Y-72060000D01*
X197655756Y-71847690D01*
X197597405Y-71642611D01*
X197597403Y-71642606D01*
X197597403Y-71642605D01*
X197502367Y-71451746D01*
X197373872Y-71281593D01*
X197333270Y-71244579D01*
X197216302Y-71137948D01*
X197035019Y-71025702D01*
X197035017Y-71025701D01*
X196881190Y-70966109D01*
X196836198Y-70948679D01*
X196639385Y-70911888D01*
X196577106Y-70880221D01*
X196541833Y-70819908D01*
X196544767Y-70750100D01*
X196584976Y-70692960D01*
X196639384Y-70668111D01*
X196836198Y-70631321D01*
X197035019Y-70554298D01*
X197216302Y-70442052D01*
X197373872Y-70298407D01*
X197502366Y-70128255D01*
X197526284Y-70080220D01*
X197597403Y-69937394D01*
X197597403Y-69937393D01*
X197597405Y-69937389D01*
X197655756Y-69732310D01*
X197675429Y-69520000D01*
X197655756Y-69307690D01*
X197597405Y-69102611D01*
X197597402Y-69102605D01*
X197596386Y-69099981D01*
X197596272Y-69098631D01*
X197595836Y-69097098D01*
X197596136Y-69097012D01*
X197590525Y-69030358D01*
X197623235Y-68968618D01*
X197684132Y-68934364D01*
X197753881Y-68938471D01*
X197799694Y-68967508D01*
X198011981Y-69179795D01*
X198045466Y-69241118D01*
X198048300Y-69267476D01*
X198048300Y-92002234D01*
X198028615Y-92069273D01*
X198011981Y-92089915D01*
X197294563Y-92807332D01*
X197284198Y-92816595D01*
X197256333Y-92838817D01*
X197256330Y-92838821D01*
X197224123Y-92886057D01*
X197221444Y-92889832D01*
X197187506Y-92935818D01*
X197183516Y-92943367D01*
X197179828Y-92951025D01*
X197162973Y-93005667D01*
X197161525Y-93010068D01*
X197142653Y-93064004D01*
X197141071Y-93072359D01*
X197139800Y-93080800D01*
X197139800Y-93105900D01*
X197120115Y-93172939D01*
X197067311Y-93218694D01*
X197015800Y-93229900D01*
X195267886Y-93229900D01*
X195200847Y-93210215D01*
X195155092Y-93157411D01*
X195145148Y-93088253D01*
X195155504Y-93053495D01*
X195253429Y-92843492D01*
X195253432Y-92843486D01*
X195310636Y-92630000D01*
X194413686Y-92630000D01*
X194439493Y-92589844D01*
X194480000Y-92451889D01*
X194480000Y-92308111D01*
X194439493Y-92170156D01*
X194413686Y-92130000D01*
X195310636Y-92130000D01*
X195310635Y-92129999D01*
X195253432Y-91916513D01*
X195253429Y-91916507D01*
X195153600Y-91702422D01*
X195153599Y-91702420D01*
X195018113Y-91508926D01*
X195018108Y-91508920D01*
X194851082Y-91341894D01*
X194657578Y-91206399D01*
X194458426Y-91113533D01*
X194405987Y-91067360D01*
X194386835Y-91000167D01*
X194407051Y-90933286D01*
X194460216Y-90887951D01*
X194466005Y-90885537D01*
X194495019Y-90874298D01*
X194676302Y-90762052D01*
X194833872Y-90618407D01*
X194962366Y-90448255D01*
X195057405Y-90257389D01*
X195115756Y-90052310D01*
X195126529Y-89936047D01*
X195152315Y-89871111D01*
X195196869Y-89839194D01*
X195160497Y-89818331D01*
X195128307Y-89756318D01*
X195126529Y-89743951D01*
X195125849Y-89736613D01*
X195115756Y-89627690D01*
X195057405Y-89422611D01*
X195057403Y-89422606D01*
X195057403Y-89422605D01*
X194962367Y-89231746D01*
X194833872Y-89061593D01*
X194676302Y-88917948D01*
X194495019Y-88805702D01*
X194495017Y-88805701D01*
X194315924Y-88736321D01*
X194296198Y-88728679D01*
X194099385Y-88691888D01*
X194037106Y-88660221D01*
X194001833Y-88599908D01*
X194004767Y-88530100D01*
X194044976Y-88472960D01*
X194099384Y-88448111D01*
X194296198Y-88411321D01*
X194495019Y-88334298D01*
X194676302Y-88222052D01*
X194833872Y-88078407D01*
X194962366Y-87908255D01*
X194981576Y-87869675D01*
X195057403Y-87717394D01*
X195057403Y-87717393D01*
X195057405Y-87717389D01*
X195115756Y-87512310D01*
X195126529Y-87396047D01*
X195152315Y-87331111D01*
X195196869Y-87299194D01*
X195160497Y-87278331D01*
X195128307Y-87216318D01*
X195126529Y-87203951D01*
X195124842Y-87185742D01*
X195115756Y-87087690D01*
X195057405Y-86882611D01*
X195057403Y-86882606D01*
X195057403Y-86882605D01*
X194962367Y-86691746D01*
X194833872Y-86521593D01*
X194798497Y-86489344D01*
X194676302Y-86377948D01*
X194495019Y-86265702D01*
X194495017Y-86265701D01*
X194395608Y-86227190D01*
X194296198Y-86188679D01*
X194099385Y-86151888D01*
X194037106Y-86120221D01*
X194001833Y-86059908D01*
X194004767Y-85990100D01*
X194044976Y-85932960D01*
X194099384Y-85908111D01*
X194296198Y-85871321D01*
X194495019Y-85794298D01*
X194676302Y-85682052D01*
X194833872Y-85538407D01*
X194962366Y-85368255D01*
X195029153Y-85234128D01*
X195057403Y-85177394D01*
X195057403Y-85177393D01*
X195057405Y-85177389D01*
X195115756Y-84972310D01*
X195126529Y-84856047D01*
X195152315Y-84791111D01*
X195196869Y-84759194D01*
X195160497Y-84738331D01*
X195128307Y-84676318D01*
X195126529Y-84663951D01*
X195123384Y-84630008D01*
X195115756Y-84547690D01*
X195057405Y-84342611D01*
X195057403Y-84342606D01*
X195057403Y-84342605D01*
X194962367Y-84151746D01*
X194833872Y-83981593D01*
X194676302Y-83837948D01*
X194495019Y-83725702D01*
X194495017Y-83725701D01*
X194395608Y-83687190D01*
X194296198Y-83648679D01*
X194099385Y-83611888D01*
X194037106Y-83580221D01*
X194001833Y-83519908D01*
X194004767Y-83450100D01*
X194044976Y-83392960D01*
X194099384Y-83368111D01*
X194296198Y-83331321D01*
X194495019Y-83254298D01*
X194676302Y-83142052D01*
X194833872Y-82998407D01*
X194962366Y-82828255D01*
X194989557Y-82773648D01*
X195057403Y-82637394D01*
X195057403Y-82637393D01*
X195057405Y-82637389D01*
X195115756Y-82432310D01*
X195126529Y-82316047D01*
X195152315Y-82251111D01*
X195196869Y-82219194D01*
X195160497Y-82198331D01*
X195128307Y-82136318D01*
X195126529Y-82123951D01*
X195124858Y-82105916D01*
X195115756Y-82007690D01*
X195057405Y-81802611D01*
X195057403Y-81802606D01*
X195057403Y-81802605D01*
X194962367Y-81611746D01*
X194833872Y-81441593D01*
X194676302Y-81297948D01*
X194495019Y-81185702D01*
X194495017Y-81185701D01*
X194395608Y-81147190D01*
X194296198Y-81108679D01*
X194099385Y-81071888D01*
X194037106Y-81040221D01*
X194001833Y-80979908D01*
X194004767Y-80910100D01*
X194044976Y-80852960D01*
X194099384Y-80828111D01*
X194296198Y-80791321D01*
X194495019Y-80714298D01*
X194676302Y-80602052D01*
X194833872Y-80458407D01*
X194962366Y-80288255D01*
X195057405Y-80097389D01*
X195115756Y-79892310D01*
X195126529Y-79776047D01*
X195152315Y-79711111D01*
X195196869Y-79679194D01*
X195160497Y-79658331D01*
X195128307Y-79596318D01*
X195126529Y-79583951D01*
X195124463Y-79561654D01*
X195115756Y-79467690D01*
X195057405Y-79262611D01*
X195057403Y-79262606D01*
X195057403Y-79262605D01*
X194962367Y-79071746D01*
X194833872Y-78901593D01*
X194676302Y-78757948D01*
X194495019Y-78645702D01*
X194495017Y-78645701D01*
X194347540Y-78588569D01*
X194296198Y-78568679D01*
X194099385Y-78531888D01*
X194037106Y-78500221D01*
X194001833Y-78439908D01*
X194004767Y-78370100D01*
X194044976Y-78312960D01*
X194099384Y-78288111D01*
X194296198Y-78251321D01*
X194495019Y-78174298D01*
X194676302Y-78062052D01*
X194833872Y-77918407D01*
X194962366Y-77748255D01*
X194981492Y-77709844D01*
X195057403Y-77557394D01*
X195057403Y-77557393D01*
X195057405Y-77557389D01*
X195115756Y-77352310D01*
X195126529Y-77236047D01*
X195152315Y-77171111D01*
X195196869Y-77139194D01*
X195160497Y-77118331D01*
X195128307Y-77056318D01*
X195126529Y-77043951D01*
X195122456Y-77000000D01*
X195115756Y-76927690D01*
X195057405Y-76722611D01*
X195057403Y-76722606D01*
X195057403Y-76722605D01*
X194962367Y-76531746D01*
X194833872Y-76361593D01*
X194728616Y-76265639D01*
X194676302Y-76217948D01*
X194495019Y-76105702D01*
X194495017Y-76105701D01*
X194395608Y-76067190D01*
X194296198Y-76028679D01*
X194099385Y-75991888D01*
X194037106Y-75960221D01*
X194001833Y-75899908D01*
X194004767Y-75830100D01*
X194044976Y-75772960D01*
X194099384Y-75748111D01*
X194296198Y-75711321D01*
X194495019Y-75634298D01*
X194676302Y-75522052D01*
X194833872Y-75378407D01*
X194962366Y-75208255D01*
X195057405Y-75017389D01*
X195115756Y-74812310D01*
X195126529Y-74696047D01*
X195152315Y-74631111D01*
X195196869Y-74599194D01*
X195160497Y-74578331D01*
X195128307Y-74516318D01*
X195126529Y-74503951D01*
X195125849Y-74496613D01*
X195115756Y-74387690D01*
X195057405Y-74182611D01*
X195057403Y-74182606D01*
X195057403Y-74182605D01*
X194962367Y-73991746D01*
X194833872Y-73821593D01*
X194676302Y-73677948D01*
X194495019Y-73565702D01*
X194495017Y-73565701D01*
X194395608Y-73527190D01*
X194296198Y-73488679D01*
X194099385Y-73451888D01*
X194037106Y-73420221D01*
X194001833Y-73359908D01*
X194004767Y-73290100D01*
X194044976Y-73232960D01*
X194099384Y-73208111D01*
X194296198Y-73171321D01*
X194495019Y-73094298D01*
X194676302Y-72982052D01*
X194833872Y-72838407D01*
X194962366Y-72668255D01*
X195057405Y-72477389D01*
X195115756Y-72272310D01*
X195126529Y-72156047D01*
X195152315Y-72091111D01*
X195196869Y-72059194D01*
X195160497Y-72038331D01*
X195128307Y-71976318D01*
X195126529Y-71963951D01*
X195121495Y-71909624D01*
X195115756Y-71847690D01*
X195057405Y-71642611D01*
X195057403Y-71642606D01*
X195057403Y-71642605D01*
X194962367Y-71451746D01*
X194833872Y-71281593D01*
X194793270Y-71244579D01*
X194676302Y-71137948D01*
X194495019Y-71025702D01*
X194495017Y-71025701D01*
X194341190Y-70966109D01*
X194296198Y-70948679D01*
X194099385Y-70911888D01*
X194037106Y-70880221D01*
X194001833Y-70819908D01*
X194004767Y-70750100D01*
X194044976Y-70692960D01*
X194099384Y-70668111D01*
X194296198Y-70631321D01*
X194495019Y-70554298D01*
X194676302Y-70442052D01*
X194833872Y-70298407D01*
X194962366Y-70128255D01*
X194986284Y-70080220D01*
X195057403Y-69937394D01*
X195057403Y-69937393D01*
X195057405Y-69937389D01*
X195115756Y-69732310D01*
X195126529Y-69616047D01*
X195152315Y-69551111D01*
X195196869Y-69519194D01*
X195160497Y-69498331D01*
X195128307Y-69436318D01*
X195126529Y-69423951D01*
X195122242Y-69377688D01*
X195115756Y-69307690D01*
X195057405Y-69102611D01*
X195057403Y-69102606D01*
X195057403Y-69102605D01*
X194962367Y-68911746D01*
X194833872Y-68741593D01*
X194764327Y-68678194D01*
X194676302Y-68597948D01*
X194495019Y-68485702D01*
X194495017Y-68485701D01*
X194351916Y-68430264D01*
X194296198Y-68408679D01*
X194099385Y-68371888D01*
X194037106Y-68340221D01*
X194001833Y-68279908D01*
X194004767Y-68210100D01*
X194044976Y-68152960D01*
X194099384Y-68128111D01*
X194296198Y-68091321D01*
X194495019Y-68014298D01*
X194676302Y-67902052D01*
X194833872Y-67758407D01*
X194962366Y-67588255D01*
X194996037Y-67520634D01*
X195057403Y-67397394D01*
X195057403Y-67397393D01*
X195057405Y-67397389D01*
X195115756Y-67192310D01*
X195126529Y-67076047D01*
X195152315Y-67011111D01*
X195196869Y-66979194D01*
X195160497Y-66958331D01*
X195128307Y-66896318D01*
X195126529Y-66883951D01*
X195123985Y-66856499D01*
X195115756Y-66767690D01*
X195057405Y-66562611D01*
X195057403Y-66562606D01*
X195057403Y-66562605D01*
X194962367Y-66371746D01*
X194833872Y-66201593D01*
X194770077Y-66143436D01*
X194676302Y-66057948D01*
X194495019Y-65945702D01*
X194495017Y-65945701D01*
X194330785Y-65882078D01*
X194296198Y-65868679D01*
X194099385Y-65831888D01*
X194037106Y-65800221D01*
X194001833Y-65739908D01*
X194004767Y-65670100D01*
X194044976Y-65612960D01*
X194099384Y-65588111D01*
X194296198Y-65551321D01*
X194495019Y-65474298D01*
X194676302Y-65362052D01*
X194833872Y-65218407D01*
X194962366Y-65048255D01*
X194966934Y-65039082D01*
X195057403Y-64857394D01*
X195057403Y-64857393D01*
X195057405Y-64857389D01*
X195115756Y-64652310D01*
X195126529Y-64536047D01*
X195152315Y-64471111D01*
X195196869Y-64439194D01*
X195160497Y-64418331D01*
X195128307Y-64356318D01*
X195126529Y-64343951D01*
X195124118Y-64317930D01*
X195115756Y-64227690D01*
X195057405Y-64022611D01*
X195057403Y-64022606D01*
X195057403Y-64022605D01*
X194962367Y-63831746D01*
X194833872Y-63661593D01*
X194795216Y-63626353D01*
X194676302Y-63517948D01*
X194495019Y-63405702D01*
X194495017Y-63405701D01*
X194395608Y-63367190D01*
X194296198Y-63328679D01*
X194099385Y-63291888D01*
X194037106Y-63260221D01*
X194001833Y-63199908D01*
X194004767Y-63130100D01*
X194044976Y-63072960D01*
X194099384Y-63048111D01*
X194296198Y-63011321D01*
X194495019Y-62934298D01*
X194676302Y-62822052D01*
X194833872Y-62678407D01*
X194962366Y-62508255D01*
X194971836Y-62489236D01*
X195057403Y-62317394D01*
X195057403Y-62317393D01*
X195057405Y-62317389D01*
X195115756Y-62112310D01*
X195126529Y-61996047D01*
X195152315Y-61931111D01*
X195196869Y-61899194D01*
X195160497Y-61878331D01*
X195128307Y-61816318D01*
X195126529Y-61803951D01*
X195124073Y-61777443D01*
X195115756Y-61687690D01*
X195057405Y-61482611D01*
X195057403Y-61482606D01*
X195057403Y-61482605D01*
X194962367Y-61291746D01*
X194833872Y-61121593D01*
X194676302Y-60977948D01*
X194495019Y-60865702D01*
X194495017Y-60865701D01*
X194366002Y-60815721D01*
X194296198Y-60788679D01*
X194099385Y-60751888D01*
X194037106Y-60720221D01*
X194001833Y-60659908D01*
X194004767Y-60590100D01*
X194044976Y-60532960D01*
X194099384Y-60508111D01*
X194296198Y-60471321D01*
X194495019Y-60394298D01*
X194676302Y-60282052D01*
X194833872Y-60138407D01*
X194962366Y-59968255D01*
X194985549Y-59921697D01*
X195057403Y-59777394D01*
X195057403Y-59777393D01*
X195057405Y-59777389D01*
X195115756Y-59572310D01*
X195126529Y-59456047D01*
X195152315Y-59391111D01*
X195196869Y-59359194D01*
X195160497Y-59338331D01*
X195128307Y-59276318D01*
X195126529Y-59263951D01*
X195120543Y-59199351D01*
X195115756Y-59147690D01*
X195057405Y-58942611D01*
X195057403Y-58942606D01*
X195057403Y-58942605D01*
X194962367Y-58751746D01*
X194833872Y-58581593D01*
X194676302Y-58437948D01*
X194495019Y-58325702D01*
X194495017Y-58325701D01*
X194395608Y-58287190D01*
X194296198Y-58248679D01*
X194099385Y-58211888D01*
X194037106Y-58180221D01*
X194001833Y-58119908D01*
X194004767Y-58050100D01*
X194044976Y-57992960D01*
X194099384Y-57968111D01*
X194296198Y-57931321D01*
X194495019Y-57854298D01*
X194676302Y-57742052D01*
X194833872Y-57598407D01*
X194962366Y-57428255D01*
X194962367Y-57428253D01*
X195057403Y-57237394D01*
X195057403Y-57237393D01*
X195057405Y-57237389D01*
X195115756Y-57032310D01*
X195126529Y-56916047D01*
X195152315Y-56851111D01*
X195196869Y-56819194D01*
X195160497Y-56798331D01*
X195128307Y-56736318D01*
X195126529Y-56723951D01*
X195124288Y-56699769D01*
X195115756Y-56607690D01*
X195057405Y-56402611D01*
X195057403Y-56402606D01*
X195057403Y-56402605D01*
X194962367Y-56211746D01*
X194833872Y-56041593D01*
X194676302Y-55897948D01*
X194495019Y-55785702D01*
X194495017Y-55785701D01*
X194363563Y-55734776D01*
X194296198Y-55708679D01*
X194099385Y-55671888D01*
X194037106Y-55640221D01*
X194001833Y-55579908D01*
X194004767Y-55510100D01*
X194044976Y-55452960D01*
X194099384Y-55428111D01*
X194296198Y-55391321D01*
X194495019Y-55314298D01*
X194676302Y-55202052D01*
X194833872Y-55058407D01*
X194962366Y-54888255D01*
X194962367Y-54888253D01*
X195057403Y-54697394D01*
X195057403Y-54697393D01*
X195057405Y-54697389D01*
X195115756Y-54492310D01*
X195126529Y-54376047D01*
X195152315Y-54311111D01*
X195196869Y-54279194D01*
X195160497Y-54258331D01*
X195128307Y-54196318D01*
X195126529Y-54183951D01*
X195125849Y-54176613D01*
X195115756Y-54067690D01*
X195057405Y-53862611D01*
X195057403Y-53862606D01*
X195057403Y-53862605D01*
X194962367Y-53671746D01*
X194833872Y-53501593D01*
X194676302Y-53357948D01*
X194495019Y-53245702D01*
X194495017Y-53245701D01*
X194359128Y-53193058D01*
X194296198Y-53168679D01*
X194099385Y-53131888D01*
X194037106Y-53100221D01*
X194001833Y-53039908D01*
X194004767Y-52970100D01*
X194044976Y-52912960D01*
X194099384Y-52888111D01*
X194296198Y-52851321D01*
X194495019Y-52774298D01*
X194676302Y-52662052D01*
X194833872Y-52518407D01*
X194962366Y-52348255D01*
X194983788Y-52305234D01*
X195057403Y-52157394D01*
X195057403Y-52157393D01*
X195057405Y-52157389D01*
X195115756Y-51952310D01*
X195126529Y-51836047D01*
X195152315Y-51771111D01*
X195196869Y-51739194D01*
X195160497Y-51718331D01*
X195128307Y-51656318D01*
X195126529Y-51643951D01*
X195125849Y-51636613D01*
X195115756Y-51527690D01*
X195057405Y-51322611D01*
X195057403Y-51322606D01*
X195057403Y-51322605D01*
X194962367Y-51131746D01*
X194833872Y-50961593D01*
X194802529Y-50933020D01*
X194676302Y-50817948D01*
X194495019Y-50705702D01*
X194495017Y-50705701D01*
X194359128Y-50653058D01*
X194296198Y-50628679D01*
X194123456Y-50596387D01*
X194061176Y-50564719D01*
X194025903Y-50504407D01*
X194028837Y-50434599D01*
X194069046Y-50377459D01*
X194133764Y-50351128D01*
X194146233Y-50350499D01*
X194874864Y-50350499D01*
X194874879Y-50350497D01*
X194874882Y-50350497D01*
X194899987Y-50347586D01*
X194899988Y-50347585D01*
X194899991Y-50347585D01*
X195002765Y-50302206D01*
X195082206Y-50222765D01*
X195127585Y-50119991D01*
X195130500Y-50094865D01*
X195130500Y-49824500D01*
X195150185Y-49757461D01*
X195202989Y-49711706D01*
X195254500Y-49700500D01*
X195407201Y-49700500D01*
X195474240Y-49720185D01*
G37*
%TD.AperFunction*%
%TA.AperFunction,Conductor*%
G36*
X192933834Y-70074593D02*
G01*
X192989767Y-70116465D01*
X192995930Y-70125503D01*
X192997633Y-70128253D01*
X192997634Y-70128255D01*
X193051496Y-70199579D01*
X193099346Y-70262943D01*
X193126128Y-70298407D01*
X193283698Y-70442052D01*
X193464981Y-70554298D01*
X193663802Y-70631321D01*
X193860613Y-70668111D01*
X193922893Y-70699779D01*
X193958166Y-70760092D01*
X193955232Y-70829900D01*
X193915023Y-70887040D01*
X193860613Y-70911888D01*
X193663802Y-70948679D01*
X193663799Y-70948679D01*
X193663799Y-70948680D01*
X193464982Y-71025701D01*
X193464980Y-71025702D01*
X193283699Y-71137947D01*
X193126127Y-71281593D01*
X192997632Y-71451746D01*
X192902596Y-71642605D01*
X192902596Y-71642607D01*
X192844244Y-71847689D01*
X192824571Y-72059999D01*
X192824571Y-72060000D01*
X192844244Y-72272310D01*
X192902596Y-72477392D01*
X192902596Y-72477394D01*
X192997632Y-72668253D01*
X193126066Y-72838325D01*
X193126128Y-72838407D01*
X193283698Y-72982052D01*
X193464981Y-73094298D01*
X193663802Y-73171321D01*
X193860613Y-73208111D01*
X193922893Y-73239779D01*
X193958166Y-73300092D01*
X193955232Y-73369900D01*
X193915023Y-73427040D01*
X193860613Y-73451888D01*
X193663802Y-73488679D01*
X193663799Y-73488679D01*
X193663799Y-73488680D01*
X193464982Y-73565701D01*
X193464980Y-73565702D01*
X193283699Y-73677947D01*
X193126127Y-73821593D01*
X192997632Y-73991746D01*
X192902596Y-74182605D01*
X192902596Y-74182607D01*
X192844244Y-74387689D01*
X192824571Y-74599999D01*
X192824571Y-74600000D01*
X192844244Y-74812310D01*
X192902596Y-75017392D01*
X192902596Y-75017394D01*
X192997632Y-75208253D01*
X192997634Y-75208255D01*
X193126128Y-75378407D01*
X193283698Y-75522052D01*
X193464981Y-75634298D01*
X193663802Y-75711321D01*
X193860613Y-75748111D01*
X193922893Y-75779779D01*
X193958166Y-75840092D01*
X193955232Y-75909900D01*
X193915023Y-75967040D01*
X193860613Y-75991888D01*
X193663802Y-76028679D01*
X193663799Y-76028679D01*
X193663799Y-76028680D01*
X193464982Y-76105701D01*
X193464980Y-76105702D01*
X193283699Y-76217947D01*
X193126127Y-76361593D01*
X192997632Y-76531746D01*
X192902596Y-76722605D01*
X192902596Y-76722607D01*
X192844244Y-76927689D01*
X192830590Y-77075048D01*
X192824571Y-77140000D01*
X192844244Y-77352310D01*
X192897520Y-77539554D01*
X192902596Y-77557392D01*
X192902596Y-77557394D01*
X192997632Y-77748253D01*
X193126127Y-77918406D01*
X193126128Y-77918407D01*
X193283698Y-78062052D01*
X193464981Y-78174298D01*
X193663802Y-78251321D01*
X193860613Y-78288111D01*
X193922893Y-78319779D01*
X193958166Y-78380092D01*
X193955232Y-78449900D01*
X193915023Y-78507040D01*
X193860613Y-78531888D01*
X193663802Y-78568679D01*
X193663799Y-78568679D01*
X193663799Y-78568680D01*
X193464982Y-78645701D01*
X193464980Y-78645702D01*
X193283699Y-78757947D01*
X193126127Y-78901593D01*
X192997632Y-79071746D01*
X192902596Y-79262605D01*
X192902596Y-79262607D01*
X192844244Y-79467689D01*
X192824571Y-79679999D01*
X192824571Y-79680000D01*
X192844244Y-79892310D01*
X192902596Y-80097392D01*
X192902596Y-80097394D01*
X192997632Y-80288253D01*
X192997634Y-80288255D01*
X193126128Y-80458407D01*
X193283698Y-80602052D01*
X193464981Y-80714298D01*
X193663802Y-80791321D01*
X193860613Y-80828111D01*
X193922893Y-80859779D01*
X193958166Y-80920092D01*
X193955232Y-80989900D01*
X193915023Y-81047040D01*
X193860613Y-81071888D01*
X193663802Y-81108679D01*
X193663799Y-81108679D01*
X193663799Y-81108680D01*
X193464982Y-81185701D01*
X193464980Y-81185702D01*
X193283699Y-81297947D01*
X193126127Y-81441593D01*
X192997632Y-81611746D01*
X192902596Y-81802605D01*
X192902596Y-81802607D01*
X192844244Y-82007689D01*
X192824571Y-82219999D01*
X192824571Y-82220000D01*
X192844244Y-82432310D01*
X192902596Y-82637392D01*
X192902596Y-82637394D01*
X192997632Y-82828253D01*
X193120990Y-82991603D01*
X193126128Y-82998407D01*
X193283698Y-83142052D01*
X193464981Y-83254298D01*
X193663802Y-83331321D01*
X193860613Y-83368111D01*
X193922893Y-83399779D01*
X193958166Y-83460092D01*
X193955232Y-83529900D01*
X193915023Y-83587040D01*
X193860613Y-83611888D01*
X193663802Y-83648679D01*
X193663799Y-83648679D01*
X193663799Y-83648680D01*
X193464982Y-83725701D01*
X193464980Y-83725702D01*
X193283699Y-83837947D01*
X193126127Y-83981593D01*
X192997632Y-84151746D01*
X192902596Y-84342605D01*
X192902596Y-84342607D01*
X192844244Y-84547689D01*
X192824571Y-84759999D01*
X192824571Y-84760000D01*
X192844244Y-84972310D01*
X192902596Y-85177392D01*
X192902596Y-85177394D01*
X192997632Y-85368253D01*
X193126127Y-85538406D01*
X193126128Y-85538407D01*
X193283698Y-85682052D01*
X193464981Y-85794298D01*
X193663802Y-85871321D01*
X193860613Y-85908111D01*
X193922893Y-85939779D01*
X193958166Y-86000092D01*
X193955232Y-86069900D01*
X193915023Y-86127040D01*
X193860613Y-86151888D01*
X193663802Y-86188679D01*
X193663799Y-86188679D01*
X193663799Y-86188680D01*
X193464982Y-86265701D01*
X193464980Y-86265702D01*
X193283699Y-86377947D01*
X193126127Y-86521593D01*
X192997632Y-86691746D01*
X192902596Y-86882605D01*
X192902596Y-86882607D01*
X192869337Y-86999500D01*
X192844244Y-87087690D01*
X192824571Y-87300000D01*
X192844244Y-87512310D01*
X192861216Y-87571961D01*
X192902596Y-87717392D01*
X192902596Y-87717394D01*
X192997632Y-87908253D01*
X193067533Y-88000816D01*
X193126128Y-88078407D01*
X193283698Y-88222052D01*
X193464981Y-88334298D01*
X193663802Y-88411321D01*
X193860613Y-88448111D01*
X193922893Y-88479779D01*
X193958166Y-88540092D01*
X193955232Y-88609900D01*
X193915023Y-88667040D01*
X193860613Y-88691888D01*
X193663802Y-88728679D01*
X193663799Y-88728679D01*
X193663799Y-88728680D01*
X193464982Y-88805701D01*
X193464980Y-88805702D01*
X193283699Y-88917947D01*
X193126127Y-89061593D01*
X192997632Y-89231746D01*
X192902596Y-89422605D01*
X192902596Y-89422607D01*
X192844244Y-89627689D01*
X192824571Y-89839999D01*
X192824571Y-89840000D01*
X192844244Y-90052310D01*
X192902596Y-90257392D01*
X192902596Y-90257394D01*
X192997632Y-90448253D01*
X193070183Y-90544325D01*
X193126128Y-90618407D01*
X193283698Y-90762052D01*
X193464981Y-90874298D01*
X193493961Y-90885525D01*
X193549362Y-90928095D01*
X193572954Y-90993861D01*
X193557244Y-91061942D01*
X193507222Y-91110722D01*
X193501573Y-91113533D01*
X193302422Y-91206399D01*
X193302420Y-91206400D01*
X193108926Y-91341886D01*
X193108920Y-91341891D01*
X192941891Y-91508920D01*
X192941886Y-91508926D01*
X192806400Y-91702420D01*
X192806399Y-91702422D01*
X192706570Y-91916507D01*
X192706567Y-91916513D01*
X192649364Y-92129999D01*
X192649364Y-92130000D01*
X193546314Y-92130000D01*
X193520507Y-92170156D01*
X193480000Y-92308111D01*
X193480000Y-92451889D01*
X193520507Y-92589844D01*
X193546314Y-92630000D01*
X192649364Y-92630000D01*
X192660888Y-92673006D01*
X192659225Y-92742856D01*
X192620063Y-92800718D01*
X192555835Y-92828223D01*
X192541113Y-92829100D01*
X192269576Y-92829100D01*
X192202537Y-92809415D01*
X192181895Y-92792781D01*
X186337186Y-86948072D01*
X186303701Y-86886749D01*
X186308685Y-86817057D01*
X186350557Y-86761124D01*
X186392774Y-86740616D01*
X186446317Y-86726269D01*
X186446331Y-86726264D01*
X186652478Y-86630136D01*
X186725471Y-86579024D01*
X186044400Y-85897953D01*
X186125148Y-85885165D01*
X186238045Y-85827641D01*
X186327641Y-85738045D01*
X186385165Y-85625148D01*
X186397953Y-85544400D01*
X187079024Y-86225471D01*
X187130136Y-86152478D01*
X187226264Y-85946331D01*
X187226269Y-85946317D01*
X187285139Y-85726610D01*
X187285141Y-85726599D01*
X187304966Y-85500002D01*
X187304966Y-85499997D01*
X187285141Y-85273400D01*
X187285139Y-85273389D01*
X187226269Y-85053682D01*
X187226264Y-85053668D01*
X187130136Y-84847521D01*
X187130132Y-84847513D01*
X187079025Y-84774526D01*
X186397953Y-85455598D01*
X186385165Y-85374852D01*
X186327641Y-85261955D01*
X186238045Y-85172359D01*
X186125148Y-85114835D01*
X186044401Y-85102046D01*
X186725472Y-84420974D01*
X186652478Y-84369863D01*
X186446331Y-84273735D01*
X186446317Y-84273730D01*
X186226610Y-84214860D01*
X186226599Y-84214858D01*
X186000002Y-84195034D01*
X185999998Y-84195034D01*
X185773400Y-84214858D01*
X185773389Y-84214860D01*
X185553682Y-84273730D01*
X185553673Y-84273734D01*
X185347516Y-84369866D01*
X185347512Y-84369868D01*
X185274526Y-84420973D01*
X185274526Y-84420974D01*
X185955599Y-85102046D01*
X185874852Y-85114835D01*
X185761955Y-85172359D01*
X185672359Y-85261955D01*
X185614835Y-85374852D01*
X185602046Y-85455598D01*
X184920974Y-84774526D01*
X184920973Y-84774526D01*
X184869868Y-84847512D01*
X184869866Y-84847516D01*
X184773734Y-85053673D01*
X184773728Y-85053688D01*
X184759382Y-85107227D01*
X184723017Y-85166887D01*
X184660169Y-85197415D01*
X184590794Y-85189120D01*
X184551927Y-85162813D01*
X182670885Y-83281771D01*
X182654250Y-83261128D01*
X182651645Y-83257074D01*
X182651643Y-83257072D01*
X182614114Y-83224553D01*
X182607647Y-83218533D01*
X182598093Y-83208979D01*
X182587285Y-83200888D01*
X182580404Y-83195344D01*
X182542873Y-83162823D01*
X182542872Y-83162822D01*
X182542867Y-83162819D01*
X182538483Y-83160817D01*
X182515694Y-83147296D01*
X182511831Y-83144404D01*
X182511829Y-83144403D01*
X182465290Y-83127045D01*
X182457122Y-83123661D01*
X182411957Y-83103035D01*
X182411955Y-83103034D01*
X182407182Y-83102348D01*
X182381500Y-83095793D01*
X182376986Y-83094109D01*
X182327446Y-83090565D01*
X182318659Y-83089620D01*
X182305299Y-83087700D01*
X182305297Y-83087700D01*
X182291808Y-83087700D01*
X182282961Y-83087384D01*
X182233429Y-83083841D01*
X182233425Y-83083841D01*
X182228715Y-83084866D01*
X182202357Y-83087700D01*
X149747776Y-83087700D01*
X149680737Y-83068015D01*
X149634982Y-83015211D01*
X149625038Y-82946053D01*
X149654063Y-82882497D01*
X149660095Y-82876019D01*
X149713395Y-82822719D01*
X149774718Y-82789234D01*
X149801076Y-82786400D01*
X179845057Y-82786400D01*
X179871415Y-82789234D01*
X179876127Y-82790259D01*
X179925661Y-82786715D01*
X179934508Y-82786400D01*
X179947999Y-82786400D01*
X179961356Y-82784479D01*
X179970151Y-82783533D01*
X180019683Y-82779991D01*
X180024192Y-82778308D01*
X180049885Y-82771750D01*
X180054657Y-82771065D01*
X180099837Y-82750430D01*
X180108001Y-82747049D01*
X180154531Y-82729696D01*
X180158389Y-82726807D01*
X180181195Y-82713275D01*
X180185573Y-82711277D01*
X180223099Y-82678759D01*
X180229978Y-82673216D01*
X180240793Y-82665121D01*
X180250355Y-82655558D01*
X180256805Y-82649553D01*
X180294343Y-82617028D01*
X180296951Y-82612968D01*
X180313581Y-82592331D01*
X185405912Y-77500000D01*
X188514785Y-77500000D01*
X188533602Y-77703082D01*
X188589417Y-77899247D01*
X188589422Y-77899260D01*
X188680327Y-78081821D01*
X188803237Y-78244581D01*
X188953958Y-78381980D01*
X188953960Y-78381982D01*
X189053141Y-78443392D01*
X189127363Y-78489348D01*
X189317544Y-78563024D01*
X189518024Y-78600500D01*
X189518026Y-78600500D01*
X189721974Y-78600500D01*
X189721976Y-78600500D01*
X189922456Y-78563024D01*
X190112637Y-78489348D01*
X190286041Y-78381981D01*
X190429371Y-78251319D01*
X190436762Y-78244581D01*
X190436764Y-78244579D01*
X190559673Y-78081821D01*
X190650582Y-77899250D01*
X190706397Y-77703083D01*
X190725215Y-77500000D01*
X190706397Y-77296917D01*
X190650582Y-77100750D01*
X190648512Y-77096593D01*
X190600415Y-77000000D01*
X190559673Y-76918179D01*
X190436764Y-76755421D01*
X190436762Y-76755418D01*
X190286041Y-76618019D01*
X190286039Y-76618017D01*
X190112642Y-76510655D01*
X190112635Y-76510651D01*
X190017546Y-76473814D01*
X189922456Y-76436976D01*
X189721976Y-76399500D01*
X189518024Y-76399500D01*
X189317544Y-76436976D01*
X189317541Y-76436976D01*
X189317541Y-76436977D01*
X189127364Y-76510651D01*
X189127357Y-76510655D01*
X188953960Y-76618017D01*
X188953958Y-76618019D01*
X188803237Y-76755418D01*
X188680327Y-76918178D01*
X188589422Y-77100739D01*
X188589417Y-77100752D01*
X188533602Y-77296917D01*
X188514785Y-77499999D01*
X188514785Y-77500000D01*
X185405912Y-77500000D01*
X192802821Y-70103092D01*
X192864142Y-70069609D01*
X192933834Y-70074593D01*
G37*
%TD.AperFunction*%
%TA.AperFunction,Conductor*%
G36*
X192933834Y-67534593D02*
G01*
X192989767Y-67576465D01*
X192995930Y-67585503D01*
X192997633Y-67588253D01*
X192997634Y-67588255D01*
X193036914Y-67640269D01*
X193121082Y-67751726D01*
X193126128Y-67758407D01*
X193283698Y-67902052D01*
X193464981Y-68014298D01*
X193663802Y-68091321D01*
X193860613Y-68128111D01*
X193922893Y-68159779D01*
X193958166Y-68220092D01*
X193955232Y-68289900D01*
X193915023Y-68347040D01*
X193860613Y-68371888D01*
X193663802Y-68408679D01*
X193663799Y-68408679D01*
X193663799Y-68408680D01*
X193464982Y-68485701D01*
X193464980Y-68485702D01*
X193283699Y-68597947D01*
X193126127Y-68741593D01*
X192997632Y-68911746D01*
X192978201Y-68950771D01*
X192930698Y-69002009D01*
X192867201Y-69019500D01*
X192745243Y-69019500D01*
X192718885Y-69016666D01*
X192714174Y-69015641D01*
X192714170Y-69015641D01*
X192664639Y-69019184D01*
X192655792Y-69019500D01*
X192642300Y-69019500D01*
X192636163Y-69020382D01*
X192628940Y-69021420D01*
X192620154Y-69022365D01*
X192570616Y-69025909D01*
X192570613Y-69025910D01*
X192566086Y-69027598D01*
X192540427Y-69034146D01*
X192535650Y-69034833D01*
X192535643Y-69034835D01*
X192490465Y-69055466D01*
X192482291Y-69058851D01*
X192435775Y-69076200D01*
X192435764Y-69076206D01*
X192431899Y-69079100D01*
X192409120Y-69092615D01*
X192404736Y-69094617D01*
X192404725Y-69094624D01*
X192367208Y-69127132D01*
X192360326Y-69132678D01*
X192349503Y-69140780D01*
X192339954Y-69150329D01*
X192333484Y-69156353D01*
X192295961Y-69188867D01*
X192295954Y-69188876D01*
X192293343Y-69192938D01*
X192276716Y-69213568D01*
X179741205Y-81749081D01*
X179679882Y-81782566D01*
X179653524Y-81785400D01*
X150128276Y-81785400D01*
X150061237Y-81765715D01*
X150015482Y-81712911D01*
X150005538Y-81643753D01*
X150034563Y-81580197D01*
X150040595Y-81573719D01*
X158742495Y-72871819D01*
X158803818Y-72838334D01*
X158830176Y-72835500D01*
X176656757Y-72835500D01*
X176683070Y-72838324D01*
X176683544Y-72838427D01*
X176744875Y-72871892D01*
X176778380Y-72933204D01*
X176773418Y-73002898D01*
X176744903Y-73047282D01*
X173629005Y-76163181D01*
X173567682Y-76196666D01*
X173541324Y-76199500D01*
X172356898Y-76199500D01*
X172317853Y-76204188D01*
X172268438Y-76210122D01*
X172127656Y-76265639D01*
X172007077Y-76357077D01*
X171915639Y-76477656D01*
X171860122Y-76618438D01*
X171854188Y-76667853D01*
X171849500Y-76706898D01*
X171849500Y-78293102D01*
X171851874Y-78312869D01*
X171860122Y-78381561D01*
X171860122Y-78381563D01*
X171860123Y-78381564D01*
X171860288Y-78381982D01*
X171915639Y-78522343D01*
X172007077Y-78642922D01*
X172127656Y-78734360D01*
X172127657Y-78734360D01*
X172127658Y-78734361D01*
X172268436Y-78789877D01*
X172356898Y-78800500D01*
X172356903Y-78800500D01*
X173643097Y-78800500D01*
X173643102Y-78800500D01*
X173731564Y-78789877D01*
X173872342Y-78734361D01*
X173992922Y-78642922D01*
X174084361Y-78522342D01*
X174136075Y-78391204D01*
X174178980Y-78336062D01*
X174244888Y-78312869D01*
X174312872Y-78328989D01*
X174353004Y-78365573D01*
X174461886Y-78521073D01*
X174461891Y-78521079D01*
X174628917Y-78688105D01*
X174822421Y-78823600D01*
X175036507Y-78923429D01*
X175036516Y-78923433D01*
X175250000Y-78980634D01*
X175250000Y-77935501D01*
X175357685Y-77984680D01*
X175464237Y-78000000D01*
X175535763Y-78000000D01*
X175642315Y-77984680D01*
X175750000Y-77935501D01*
X175750000Y-78980634D01*
X175963483Y-78923433D01*
X175963492Y-78923429D01*
X176177577Y-78823600D01*
X176177579Y-78823599D01*
X176371073Y-78688113D01*
X176371079Y-78688108D01*
X176538108Y-78521079D01*
X176538113Y-78521073D01*
X176673599Y-78327579D01*
X176673600Y-78327577D01*
X176773429Y-78113492D01*
X176773433Y-78113483D01*
X176834567Y-77885326D01*
X176834569Y-77885315D01*
X176846407Y-77750000D01*
X175933686Y-77750000D01*
X175959493Y-77709844D01*
X176000000Y-77571889D01*
X176000000Y-77500000D01*
X180894785Y-77500000D01*
X180913602Y-77703082D01*
X180969417Y-77899247D01*
X180969422Y-77899260D01*
X181060327Y-78081821D01*
X181183237Y-78244581D01*
X181333958Y-78381980D01*
X181333960Y-78381982D01*
X181433141Y-78443392D01*
X181507363Y-78489348D01*
X181697544Y-78563024D01*
X181898024Y-78600500D01*
X181898026Y-78600500D01*
X182101974Y-78600500D01*
X182101976Y-78600500D01*
X182302456Y-78563024D01*
X182492637Y-78489348D01*
X182666041Y-78381981D01*
X182809371Y-78251319D01*
X182816762Y-78244581D01*
X182816764Y-78244579D01*
X182939673Y-78081821D01*
X183030582Y-77899250D01*
X183086397Y-77703083D01*
X183105215Y-77500000D01*
X183086397Y-77296917D01*
X183030582Y-77100750D01*
X183028512Y-77096593D01*
X182980415Y-77000000D01*
X182939673Y-76918179D01*
X182816764Y-76755421D01*
X182816762Y-76755418D01*
X182666041Y-76618019D01*
X182666039Y-76618017D01*
X182492642Y-76510655D01*
X182492635Y-76510651D01*
X182397546Y-76473814D01*
X182302456Y-76436976D01*
X182101976Y-76399500D01*
X181898024Y-76399500D01*
X181697544Y-76436976D01*
X181697541Y-76436976D01*
X181697541Y-76436977D01*
X181507364Y-76510651D01*
X181507357Y-76510655D01*
X181333960Y-76618017D01*
X181333958Y-76618019D01*
X181183237Y-76755418D01*
X181060327Y-76918178D01*
X180969422Y-77100739D01*
X180969417Y-77100752D01*
X180913602Y-77296917D01*
X180894785Y-77499999D01*
X180894785Y-77500000D01*
X176000000Y-77500000D01*
X176000000Y-77428111D01*
X175959493Y-77290156D01*
X175933686Y-77250000D01*
X176846407Y-77250000D01*
X176846407Y-77249999D01*
X176834569Y-77114684D01*
X176834567Y-77114673D01*
X176773433Y-76886516D01*
X176773429Y-76886507D01*
X176673600Y-76672422D01*
X176673599Y-76672420D01*
X176538113Y-76478926D01*
X176538108Y-76478920D01*
X176371082Y-76311894D01*
X176177578Y-76176399D01*
X175963492Y-76076570D01*
X175963486Y-76076567D01*
X175750000Y-76019364D01*
X175750000Y-77064498D01*
X175642315Y-77015320D01*
X175535763Y-77000000D01*
X175464237Y-77000000D01*
X175357685Y-77015320D01*
X175250000Y-77064498D01*
X175250000Y-76009175D01*
X175269685Y-75942136D01*
X175286314Y-75921499D01*
X180170995Y-71036819D01*
X180232318Y-71003334D01*
X180258676Y-71000500D01*
X180943056Y-71000500D01*
X181010095Y-71020185D01*
X181054055Y-71069226D01*
X181060326Y-71081821D01*
X181183237Y-71244581D01*
X181333958Y-71381980D01*
X181333960Y-71381982D01*
X181433141Y-71443392D01*
X181507363Y-71489348D01*
X181697544Y-71563024D01*
X181898024Y-71600500D01*
X181898026Y-71600500D01*
X182101974Y-71600500D01*
X182101976Y-71600500D01*
X182302456Y-71563024D01*
X182492637Y-71489348D01*
X182666041Y-71381981D01*
X182816764Y-71244579D01*
X182939673Y-71081821D01*
X183030582Y-70899250D01*
X183086397Y-70703083D01*
X183105215Y-70500002D01*
X185695034Y-70500002D01*
X185714858Y-70726599D01*
X185714860Y-70726610D01*
X185773730Y-70946317D01*
X185773735Y-70946331D01*
X185869863Y-71152478D01*
X185920974Y-71225472D01*
X186602046Y-70544400D01*
X186614835Y-70625148D01*
X186672359Y-70738045D01*
X186761955Y-70827641D01*
X186874852Y-70885165D01*
X186955599Y-70897953D01*
X186274526Y-71579025D01*
X186347513Y-71630132D01*
X186347521Y-71630136D01*
X186553668Y-71726264D01*
X186553682Y-71726269D01*
X186773389Y-71785139D01*
X186773400Y-71785141D01*
X186999998Y-71804966D01*
X187000002Y-71804966D01*
X187226599Y-71785141D01*
X187226610Y-71785139D01*
X187446317Y-71726269D01*
X187446331Y-71726264D01*
X187652478Y-71630136D01*
X187725471Y-71579024D01*
X187044400Y-70897953D01*
X187125148Y-70885165D01*
X187238045Y-70827641D01*
X187327641Y-70738045D01*
X187385165Y-70625148D01*
X187397953Y-70544400D01*
X188079024Y-71225471D01*
X188130136Y-71152478D01*
X188226264Y-70946331D01*
X188226269Y-70946317D01*
X188285139Y-70726610D01*
X188285141Y-70726599D01*
X188304966Y-70500002D01*
X188304966Y-70499997D01*
X188285141Y-70273400D01*
X188285139Y-70273389D01*
X188226269Y-70053682D01*
X188226264Y-70053668D01*
X188130136Y-69847521D01*
X188130132Y-69847513D01*
X188079025Y-69774526D01*
X187397953Y-70455598D01*
X187385165Y-70374852D01*
X187327641Y-70261955D01*
X187238045Y-70172359D01*
X187125148Y-70114835D01*
X187044401Y-70102046D01*
X187725472Y-69420974D01*
X187652478Y-69369863D01*
X187446331Y-69273735D01*
X187446317Y-69273730D01*
X187226610Y-69214860D01*
X187226599Y-69214858D01*
X187000002Y-69195034D01*
X186999998Y-69195034D01*
X186773400Y-69214858D01*
X186773389Y-69214860D01*
X186553682Y-69273730D01*
X186553673Y-69273734D01*
X186347516Y-69369866D01*
X186347512Y-69369868D01*
X186274526Y-69420973D01*
X186274526Y-69420974D01*
X186955599Y-70102046D01*
X186874852Y-70114835D01*
X186761955Y-70172359D01*
X186672359Y-70261955D01*
X186614835Y-70374852D01*
X186602046Y-70455598D01*
X185920974Y-69774526D01*
X185920973Y-69774526D01*
X185869868Y-69847512D01*
X185869866Y-69847516D01*
X185773734Y-70053673D01*
X185773730Y-70053682D01*
X185714860Y-70273389D01*
X185714858Y-70273400D01*
X185695034Y-70499997D01*
X185695034Y-70500002D01*
X183105215Y-70500002D01*
X183105215Y-70500000D01*
X183099845Y-70442052D01*
X183086397Y-70296917D01*
X183073542Y-70251738D01*
X183030582Y-70100750D01*
X183027039Y-70093635D01*
X182981592Y-70002365D01*
X182939673Y-69918179D01*
X182834841Y-69779359D01*
X182816762Y-69755418D01*
X182666041Y-69618019D01*
X182666039Y-69618017D01*
X182492642Y-69510655D01*
X182492635Y-69510651D01*
X182397546Y-69473814D01*
X182302456Y-69436976D01*
X182101976Y-69399500D01*
X181898024Y-69399500D01*
X181697544Y-69436976D01*
X181697541Y-69436976D01*
X181697541Y-69436977D01*
X181507364Y-69510651D01*
X181507357Y-69510655D01*
X181333960Y-69618017D01*
X181333958Y-69618019D01*
X181183237Y-69755418D01*
X181060326Y-69918178D01*
X181054055Y-69930774D01*
X181006551Y-69982010D01*
X180943056Y-69999500D01*
X180067143Y-69999500D01*
X180040785Y-69996666D01*
X180036074Y-69995641D01*
X180036070Y-69995641D01*
X179986539Y-69999184D01*
X179977692Y-69999500D01*
X179964200Y-69999500D01*
X179958063Y-70000382D01*
X179950840Y-70001420D01*
X179942054Y-70002365D01*
X179892516Y-70005909D01*
X179892513Y-70005910D01*
X179887986Y-70007598D01*
X179862327Y-70014146D01*
X179857550Y-70014833D01*
X179857543Y-70014835D01*
X179812365Y-70035466D01*
X179804191Y-70038851D01*
X179757675Y-70056200D01*
X179757662Y-70056207D01*
X179755336Y-70057949D01*
X179752617Y-70058962D01*
X179749888Y-70060453D01*
X179749673Y-70060060D01*
X179689868Y-70082357D01*
X179621598Y-70067496D01*
X179572199Y-70018084D01*
X179565097Y-70002642D01*
X179564872Y-70002050D01*
X179506818Y-69848970D01*
X179505814Y-69847516D01*
X179456105Y-69775500D01*
X179410183Y-69708971D01*
X179282852Y-69596166D01*
X179282849Y-69596163D01*
X179132226Y-69517110D01*
X178967056Y-69476400D01*
X178796944Y-69476400D01*
X178631773Y-69517110D01*
X178481150Y-69596163D01*
X178353816Y-69708972D01*
X178257182Y-69848968D01*
X178257182Y-69848969D01*
X178196860Y-70008024D01*
X178196859Y-70008029D01*
X178181811Y-70131956D01*
X178154188Y-70196134D01*
X178146396Y-70204689D01*
X176552905Y-71798181D01*
X176491582Y-71831666D01*
X176465224Y-71834500D01*
X158638643Y-71834500D01*
X158612285Y-71831666D01*
X158607574Y-71830641D01*
X158607570Y-71830641D01*
X158558039Y-71834184D01*
X158549192Y-71834500D01*
X158535700Y-71834500D01*
X158529563Y-71835382D01*
X158522340Y-71836420D01*
X158513554Y-71837365D01*
X158464016Y-71840909D01*
X158464013Y-71840910D01*
X158459486Y-71842598D01*
X158433827Y-71849146D01*
X158429050Y-71849833D01*
X158429043Y-71849835D01*
X158383865Y-71870466D01*
X158375691Y-71873851D01*
X158329175Y-71891200D01*
X158329164Y-71891206D01*
X158325299Y-71894100D01*
X158302520Y-71907615D01*
X158298136Y-71909617D01*
X158298125Y-71909624D01*
X158260608Y-71942132D01*
X158253726Y-71947678D01*
X158242903Y-71955780D01*
X158233354Y-71965329D01*
X158226884Y-71971353D01*
X158189361Y-72003867D01*
X158189354Y-72003876D01*
X158186743Y-72007938D01*
X158170116Y-72028568D01*
X148449605Y-81749081D01*
X148388282Y-81782566D01*
X148361924Y-81785400D01*
X144962438Y-81785400D01*
X144936081Y-81782566D01*
X144931376Y-81781542D01*
X144931368Y-81781542D01*
X144881847Y-81785084D01*
X144873001Y-81785400D01*
X144859497Y-81785400D01*
X144846135Y-81787321D01*
X144837345Y-81788266D01*
X144787817Y-81791809D01*
X144787814Y-81791810D01*
X144783296Y-81793495D01*
X144757620Y-81800048D01*
X144752841Y-81800735D01*
X144707667Y-81821365D01*
X144699494Y-81824751D01*
X144652967Y-81842105D01*
X144652967Y-81842106D01*
X144649102Y-81844999D01*
X144626320Y-81858516D01*
X144621931Y-81860520D01*
X144621930Y-81860521D01*
X144621928Y-81860522D01*
X144621927Y-81860523D01*
X144604926Y-81875254D01*
X144584389Y-81893049D01*
X144577515Y-81898588D01*
X144566706Y-81906680D01*
X144566702Y-81906683D01*
X144557153Y-81916231D01*
X144550687Y-81922250D01*
X144513162Y-81954766D01*
X144513154Y-81954776D01*
X144510543Y-81958838D01*
X144493916Y-81979468D01*
X138048605Y-88424781D01*
X137987282Y-88458266D01*
X137960924Y-88461100D01*
X132559331Y-88461100D01*
X132492292Y-88441415D01*
X132446537Y-88388611D01*
X132436593Y-88319453D01*
X132460377Y-88262373D01*
X132470462Y-88249018D01*
X132482366Y-88233255D01*
X132487944Y-88222052D01*
X132564041Y-88069229D01*
X132611543Y-88017992D01*
X132675041Y-88000500D01*
X132873860Y-88000500D01*
X132873861Y-88000500D01*
X132900053Y-87992809D01*
X132917336Y-87989050D01*
X132926391Y-87987748D01*
X132944357Y-87985165D01*
X132969187Y-87973824D01*
X132985762Y-87967642D01*
X133011953Y-87959953D01*
X133034920Y-87945192D01*
X133050440Y-87936717D01*
X133075273Y-87925377D01*
X133095906Y-87907497D01*
X133110048Y-87896910D01*
X133133028Y-87882143D01*
X133150915Y-87861499D01*
X133163399Y-87849015D01*
X133184043Y-87831128D01*
X133198810Y-87808148D01*
X133209397Y-87794006D01*
X133227277Y-87773373D01*
X133238617Y-87748540D01*
X133247092Y-87733020D01*
X133261853Y-87710053D01*
X133269542Y-87683862D01*
X133275724Y-87667287D01*
X133287065Y-87642457D01*
X133290950Y-87615436D01*
X133294709Y-87598153D01*
X133302400Y-87571961D01*
X133302400Y-87428039D01*
X133302400Y-82472076D01*
X133322085Y-82405037D01*
X133338719Y-82384395D01*
X135079595Y-80643519D01*
X135140918Y-80610034D01*
X135167276Y-80607200D01*
X147326157Y-80607200D01*
X147352515Y-80610034D01*
X147357227Y-80611059D01*
X147406761Y-80607515D01*
X147415608Y-80607200D01*
X147429099Y-80607200D01*
X147442456Y-80605279D01*
X147451251Y-80604333D01*
X147500783Y-80600791D01*
X147505292Y-80599108D01*
X147530985Y-80592550D01*
X147535757Y-80591865D01*
X147580937Y-80571230D01*
X147589101Y-80567849D01*
X147635631Y-80550496D01*
X147639489Y-80547607D01*
X147662295Y-80534075D01*
X147666673Y-80532077D01*
X147704199Y-80499559D01*
X147711078Y-80494016D01*
X147721893Y-80485921D01*
X147731455Y-80476358D01*
X147737905Y-80470353D01*
X147775443Y-80437828D01*
X147778051Y-80433768D01*
X147794681Y-80413131D01*
X148973643Y-79234169D01*
X149034964Y-79200686D01*
X149104656Y-79205670D01*
X149106115Y-79206225D01*
X149183802Y-79236321D01*
X149393390Y-79275500D01*
X149393392Y-79275500D01*
X149606608Y-79275500D01*
X149606610Y-79275500D01*
X149816198Y-79236321D01*
X150015019Y-79159298D01*
X150196302Y-79047052D01*
X150353872Y-78903407D01*
X150482366Y-78733255D01*
X150543493Y-78610494D01*
X150577403Y-78542394D01*
X150577403Y-78542393D01*
X150577405Y-78542389D01*
X150635756Y-78337310D01*
X150650500Y-78178194D01*
X150650500Y-77821806D01*
X150635756Y-77662690D01*
X150577405Y-77457611D01*
X150577403Y-77457606D01*
X150577403Y-77457605D01*
X150482367Y-77266746D01*
X150353872Y-77096593D01*
X150310785Y-77057314D01*
X150196302Y-76952948D01*
X150015019Y-76840702D01*
X150015017Y-76840701D01*
X149893880Y-76793773D01*
X149816198Y-76763679D01*
X149606610Y-76724500D01*
X149393390Y-76724500D01*
X149183802Y-76763679D01*
X149183799Y-76763679D01*
X149183799Y-76763680D01*
X148984982Y-76840701D01*
X148984980Y-76840702D01*
X148803699Y-76952947D01*
X148646127Y-77096593D01*
X148517632Y-77266746D01*
X148422596Y-77457605D01*
X148422596Y-77457607D01*
X148369266Y-77645039D01*
X148331986Y-77704132D01*
X148268676Y-77733689D01*
X148199437Y-77724327D01*
X148146251Y-77679017D01*
X148130734Y-77645039D01*
X148110697Y-77574619D01*
X148077405Y-77457611D01*
X148077403Y-77457606D01*
X148077403Y-77457605D01*
X147982367Y-77266746D01*
X147853872Y-77096593D01*
X147810785Y-77057314D01*
X147696302Y-76952948D01*
X147515019Y-76840702D01*
X147515017Y-76840701D01*
X147393880Y-76793773D01*
X147316198Y-76763679D01*
X147106610Y-76724500D01*
X146893390Y-76724500D01*
X146782645Y-76745201D01*
X146713132Y-76738171D01*
X146658453Y-76694673D01*
X146635971Y-76628520D01*
X146652824Y-76560713D01*
X146672181Y-76535632D01*
X149025203Y-74182611D01*
X152092195Y-71115619D01*
X152153518Y-71082134D01*
X152179876Y-71079300D01*
X170978057Y-71079300D01*
X171004415Y-71082134D01*
X171009127Y-71083159D01*
X171058661Y-71079615D01*
X171067508Y-71079300D01*
X171080999Y-71079300D01*
X171094356Y-71077379D01*
X171103151Y-71076433D01*
X171152683Y-71072891D01*
X171157192Y-71071208D01*
X171182885Y-71064650D01*
X171187657Y-71063965D01*
X171232837Y-71043330D01*
X171241001Y-71039949D01*
X171287531Y-71022596D01*
X171291389Y-71019707D01*
X171314195Y-71006175D01*
X171318573Y-71004177D01*
X171356099Y-70971659D01*
X171362978Y-70966116D01*
X171373793Y-70958021D01*
X171383355Y-70948458D01*
X171389805Y-70942453D01*
X171427343Y-70909928D01*
X171429951Y-70905868D01*
X171446581Y-70885231D01*
X172077821Y-70253993D01*
X172142396Y-70167731D01*
X172162130Y-70114819D01*
X172190628Y-70070474D01*
X173347884Y-68913219D01*
X173409207Y-68879734D01*
X173435565Y-68876900D01*
X179486564Y-68876900D01*
X179538074Y-68888105D01*
X179589443Y-68911565D01*
X179696101Y-68926900D01*
X191164557Y-68926900D01*
X191190915Y-68929734D01*
X191195627Y-68930759D01*
X191245161Y-68927215D01*
X191254008Y-68926900D01*
X191267499Y-68926900D01*
X191280856Y-68924979D01*
X191289651Y-68924033D01*
X191339183Y-68920491D01*
X191343692Y-68918808D01*
X191369385Y-68912250D01*
X191374157Y-68911565D01*
X191419337Y-68890930D01*
X191427501Y-68887549D01*
X191474031Y-68870196D01*
X191477889Y-68867307D01*
X191500695Y-68853775D01*
X191505073Y-68851777D01*
X191542599Y-68819259D01*
X191549478Y-68813716D01*
X191560293Y-68805621D01*
X191569855Y-68796058D01*
X191576305Y-68790053D01*
X191613843Y-68757528D01*
X191616451Y-68753468D01*
X191633081Y-68732831D01*
X192802821Y-67563092D01*
X192864142Y-67529609D01*
X192933834Y-67534593D01*
G37*
%TD.AperFunction*%
%TA.AperFunction,Conductor*%
G36*
X165141287Y-62613485D02*
G01*
X165187042Y-62666289D01*
X165196986Y-62735447D01*
X165167961Y-62799003D01*
X165134936Y-62825934D01*
X165016226Y-62892557D01*
X164801822Y-63058112D01*
X164613822Y-63253109D01*
X164613816Y-63253116D01*
X164456202Y-63473419D01*
X164456199Y-63473424D01*
X164332350Y-63714309D01*
X164332343Y-63714327D01*
X164244884Y-63970685D01*
X164244881Y-63970699D01*
X164195681Y-64237068D01*
X164195680Y-64237075D01*
X164185787Y-64507763D01*
X164215413Y-64777013D01*
X164215415Y-64777024D01*
X164283926Y-65039082D01*
X164283928Y-65039088D01*
X164389870Y-65288390D01*
X164530979Y-65519605D01*
X164530986Y-65519615D01*
X164704253Y-65727819D01*
X164704259Y-65727824D01*
X164792670Y-65807040D01*
X164905998Y-65908582D01*
X165131910Y-66058044D01*
X165377176Y-66173020D01*
X165377183Y-66173022D01*
X165377185Y-66173023D01*
X165636557Y-66251057D01*
X165636564Y-66251058D01*
X165636569Y-66251060D01*
X165904561Y-66290500D01*
X165904566Y-66290500D01*
X166107629Y-66290500D01*
X166107631Y-66290500D01*
X166107636Y-66290499D01*
X166107648Y-66290499D01*
X166145191Y-66287750D01*
X166310156Y-66275677D01*
X166473009Y-66239400D01*
X166574546Y-66216782D01*
X166574548Y-66216781D01*
X166574553Y-66216780D01*
X166827558Y-66120014D01*
X167063777Y-65987441D01*
X167278177Y-65821888D01*
X167466186Y-65626881D01*
X167623799Y-65406579D01*
X167719459Y-65220519D01*
X167747649Y-65165690D01*
X167747651Y-65165684D01*
X167747656Y-65165675D01*
X167835118Y-64909305D01*
X167884319Y-64642933D01*
X167894212Y-64372235D01*
X167864586Y-64102982D01*
X167796072Y-63840912D01*
X167690130Y-63591610D01*
X167549018Y-63360390D01*
X167522628Y-63328679D01*
X167375746Y-63152180D01*
X167375740Y-63152175D01*
X167174002Y-62971418D01*
X167117895Y-62934298D01*
X166948090Y-62821956D01*
X166948088Y-62821955D01*
X166946971Y-62821216D01*
X166901921Y-62767809D01*
X166892897Y-62698524D01*
X166922764Y-62635360D01*
X166982039Y-62598369D01*
X167015390Y-62593800D01*
X190072724Y-62593800D01*
X190139763Y-62613485D01*
X190160405Y-62630119D01*
X192276714Y-64746428D01*
X192293346Y-64767066D01*
X192295954Y-64771125D01*
X192295957Y-64771128D01*
X192333500Y-64803658D01*
X192339963Y-64809677D01*
X192349507Y-64819221D01*
X192349513Y-64819226D01*
X192349516Y-64819228D01*
X192360307Y-64827306D01*
X192367200Y-64832860D01*
X192404727Y-64865377D01*
X192409110Y-64867379D01*
X192431907Y-64880905D01*
X192435769Y-64883796D01*
X192482312Y-64901155D01*
X192490460Y-64904530D01*
X192517773Y-64917004D01*
X192535640Y-64925164D01*
X192535641Y-64925164D01*
X192535643Y-64925165D01*
X192540412Y-64925850D01*
X192566102Y-64932407D01*
X192570617Y-64934091D01*
X192620149Y-64937633D01*
X192628943Y-64938579D01*
X192642301Y-64940500D01*
X192655792Y-64940500D01*
X192664638Y-64940815D01*
X192714173Y-64944359D01*
X192718885Y-64943334D01*
X192745243Y-64940500D01*
X192867201Y-64940500D01*
X192934240Y-64960185D01*
X192978201Y-65009229D01*
X192997632Y-65048253D01*
X193126127Y-65218406D01*
X193126128Y-65218407D01*
X193283698Y-65362052D01*
X193464981Y-65474298D01*
X193663802Y-65551321D01*
X193860613Y-65588111D01*
X193922893Y-65619779D01*
X193958166Y-65680092D01*
X193955232Y-65749900D01*
X193915023Y-65807040D01*
X193860613Y-65831888D01*
X193663802Y-65868679D01*
X193663799Y-65868679D01*
X193663799Y-65868680D01*
X193464982Y-65945701D01*
X193464980Y-65945702D01*
X193283699Y-66057947D01*
X193126127Y-66201593D01*
X192997632Y-66371746D01*
X192978201Y-66410771D01*
X192930698Y-66462009D01*
X192867201Y-66479500D01*
X192745238Y-66479500D01*
X192718881Y-66476666D01*
X192714176Y-66475642D01*
X192714168Y-66475642D01*
X192664647Y-66479184D01*
X192655801Y-66479500D01*
X192642297Y-66479500D01*
X192628935Y-66481421D01*
X192620145Y-66482366D01*
X192570617Y-66485909D01*
X192570614Y-66485910D01*
X192566096Y-66487595D01*
X192540420Y-66494148D01*
X192535641Y-66494835D01*
X192490465Y-66515466D01*
X192482291Y-66518852D01*
X192435768Y-66536204D01*
X192435765Y-66536206D01*
X192431901Y-66539099D01*
X192409120Y-66552616D01*
X192404726Y-66554622D01*
X192404725Y-66554623D01*
X192367201Y-66587137D01*
X192360320Y-66592683D01*
X192349508Y-66600778D01*
X192339953Y-66610331D01*
X192333487Y-66616350D01*
X192295962Y-66648866D01*
X192295954Y-66648876D01*
X192293343Y-66652938D01*
X192276716Y-66673568D01*
X191060705Y-67889581D01*
X190999382Y-67923066D01*
X190973024Y-67925900D01*
X179696101Y-67925900D01*
X179682694Y-67927827D01*
X179589443Y-67941234D01*
X179553585Y-67957611D01*
X179538074Y-67964694D01*
X179486564Y-67975900D01*
X179287420Y-67975900D01*
X179220381Y-67956215D01*
X179174626Y-67903411D01*
X179164682Y-67834253D01*
X179175038Y-67799495D01*
X179273429Y-67588492D01*
X179273433Y-67588483D01*
X179334567Y-67360326D01*
X179334569Y-67360316D01*
X179344221Y-67250000D01*
X178403969Y-67250000D01*
X178436519Y-67199351D01*
X178475000Y-67068295D01*
X178475000Y-66931705D01*
X178436519Y-66800649D01*
X178403969Y-66750000D01*
X179344221Y-66750000D01*
X179334569Y-66639683D01*
X179334567Y-66639673D01*
X179273433Y-66411516D01*
X179273429Y-66411507D01*
X179173600Y-66197422D01*
X179173599Y-66197420D01*
X179038113Y-66003926D01*
X179038108Y-66003920D01*
X178871082Y-65836894D01*
X178677578Y-65701399D01*
X178463492Y-65601570D01*
X178463486Y-65601567D01*
X178250000Y-65544364D01*
X178250000Y-66591981D01*
X178135199Y-66539554D01*
X178033975Y-66525000D01*
X177966025Y-66525000D01*
X177864801Y-66539554D01*
X177750000Y-66591981D01*
X177750000Y-65544364D01*
X177749999Y-65544364D01*
X177536513Y-65601567D01*
X177536507Y-65601570D01*
X177322422Y-65701399D01*
X177322420Y-65701400D01*
X177128926Y-65836886D01*
X177128920Y-65836891D01*
X176961891Y-66003920D01*
X176961886Y-66003926D01*
X176826400Y-66197420D01*
X176826399Y-66197422D01*
X176752049Y-66356865D01*
X176705876Y-66409304D01*
X176638682Y-66428456D01*
X176571801Y-66408240D01*
X176528668Y-66359733D01*
X176482366Y-66266745D01*
X176469283Y-66249421D01*
X176353872Y-66096593D01*
X176329986Y-66074818D01*
X176196302Y-65952948D01*
X176015019Y-65840702D01*
X176015017Y-65840701D01*
X175885790Y-65790639D01*
X175816198Y-65763679D01*
X175606610Y-65724500D01*
X175393390Y-65724500D01*
X175183802Y-65763679D01*
X175183799Y-65763679D01*
X175183799Y-65763680D01*
X174984982Y-65840701D01*
X174984980Y-65840702D01*
X174803699Y-65952947D01*
X174646127Y-66096593D01*
X174517632Y-66266746D01*
X174422596Y-66457605D01*
X174422596Y-66457607D01*
X174416580Y-66478751D01*
X174394313Y-66557012D01*
X174393766Y-66558933D01*
X174356486Y-66618026D01*
X174293177Y-66647583D01*
X174223937Y-66638221D01*
X174170751Y-66592911D01*
X174150504Y-66526039D01*
X174150500Y-66524998D01*
X174150500Y-66231903D01*
X174150500Y-66231898D01*
X174139877Y-66143436D01*
X174084361Y-66002658D01*
X174084360Y-66002657D01*
X174084360Y-66002656D01*
X173992922Y-65882077D01*
X173872343Y-65790639D01*
X173731561Y-65735122D01*
X173685926Y-65729642D01*
X173643102Y-65724500D01*
X172356898Y-65724500D01*
X172317853Y-65729188D01*
X172268438Y-65735122D01*
X172127656Y-65790639D01*
X172007077Y-65882077D01*
X171915639Y-66002656D01*
X171860122Y-66143438D01*
X171854188Y-66192853D01*
X171849500Y-66231898D01*
X171849500Y-67768102D01*
X171853074Y-67797863D01*
X171860122Y-67856561D01*
X171860122Y-67856563D01*
X171860123Y-67856564D01*
X171873143Y-67889581D01*
X171915639Y-67997343D01*
X172007077Y-68117922D01*
X172127656Y-68209360D01*
X172127657Y-68209360D01*
X172127658Y-68209361D01*
X172268436Y-68264877D01*
X172356898Y-68275500D01*
X172412035Y-68275500D01*
X172479074Y-68295185D01*
X172524829Y-68347989D01*
X172534773Y-68417147D01*
X172505748Y-68480703D01*
X172499716Y-68487181D01*
X171553528Y-69433367D01*
X171509183Y-69461867D01*
X171456269Y-69481603D01*
X171456268Y-69481604D01*
X171370008Y-69546178D01*
X171369996Y-69546188D01*
X170874205Y-70041981D01*
X170812882Y-70075466D01*
X170786524Y-70078300D01*
X151988343Y-70078300D01*
X151961985Y-70075466D01*
X151957274Y-70074441D01*
X151957270Y-70074441D01*
X151907739Y-70077984D01*
X151898892Y-70078300D01*
X151885400Y-70078300D01*
X151879263Y-70079182D01*
X151872040Y-70080220D01*
X151863254Y-70081165D01*
X151813716Y-70084709D01*
X151813713Y-70084710D01*
X151809186Y-70086398D01*
X151783527Y-70092946D01*
X151778750Y-70093633D01*
X151778743Y-70093635D01*
X151733565Y-70114266D01*
X151725391Y-70117651D01*
X151678875Y-70135000D01*
X151678864Y-70135006D01*
X151674999Y-70137900D01*
X151652220Y-70151415D01*
X151647836Y-70153417D01*
X151647825Y-70153424D01*
X151610308Y-70185932D01*
X151603426Y-70191478D01*
X151592603Y-70199580D01*
X151583054Y-70209129D01*
X151576584Y-70215153D01*
X151539061Y-70247667D01*
X151539054Y-70247676D01*
X151536443Y-70251738D01*
X151519816Y-70272368D01*
X145026357Y-76765827D01*
X144965034Y-76799312D01*
X144895342Y-76794328D01*
X144893883Y-76793773D01*
X144816203Y-76763680D01*
X144816198Y-76763679D01*
X144606610Y-76724500D01*
X144393390Y-76724500D01*
X144183802Y-76763679D01*
X144183799Y-76763679D01*
X144183799Y-76763680D01*
X143984982Y-76840701D01*
X143984980Y-76840702D01*
X143803699Y-76952947D01*
X143646126Y-77096594D01*
X143563959Y-77205400D01*
X143507850Y-77247035D01*
X143438138Y-77251726D01*
X143376956Y-77217983D01*
X143343730Y-77156520D01*
X143341648Y-77143273D01*
X143339505Y-77122303D01*
X143284358Y-76955880D01*
X143284356Y-76955875D01*
X143192315Y-76806654D01*
X143068345Y-76682684D01*
X142919124Y-76590643D01*
X142919119Y-76590641D01*
X142752697Y-76535494D01*
X142752690Y-76535493D01*
X142649986Y-76525000D01*
X142250000Y-76525000D01*
X142250000Y-77591981D01*
X142135199Y-77539554D01*
X142033975Y-77525000D01*
X141966025Y-77525000D01*
X141864801Y-77539554D01*
X141750000Y-77591981D01*
X141750000Y-76525000D01*
X141350028Y-76525000D01*
X141350012Y-76525001D01*
X141247302Y-76535494D01*
X141080880Y-76590641D01*
X141080875Y-76590643D01*
X140931654Y-76682684D01*
X140807684Y-76806654D01*
X140715643Y-76955875D01*
X140715641Y-76955880D01*
X140660494Y-77122302D01*
X140660493Y-77122309D01*
X140650000Y-77225013D01*
X140650000Y-77750000D01*
X141596031Y-77750000D01*
X141563481Y-77800649D01*
X141525000Y-77931705D01*
X141525000Y-78068295D01*
X141563481Y-78199351D01*
X141596031Y-78250000D01*
X140650001Y-78250000D01*
X140650001Y-78774986D01*
X140660494Y-78877697D01*
X140715641Y-79044119D01*
X140715643Y-79044124D01*
X140807684Y-79193345D01*
X140931654Y-79317315D01*
X141027869Y-79376661D01*
X141074593Y-79428609D01*
X141085816Y-79497572D01*
X141057972Y-79561654D01*
X140999904Y-79600510D01*
X140962772Y-79606200D01*
X135167276Y-79606200D01*
X135100237Y-79586515D01*
X135079595Y-79569881D01*
X133203285Y-77693571D01*
X133186650Y-77672928D01*
X133184045Y-77668874D01*
X133184043Y-77668872D01*
X133146514Y-77636353D01*
X133140047Y-77630333D01*
X133130493Y-77620779D01*
X133119685Y-77612688D01*
X133112804Y-77607144D01*
X133075273Y-77574623D01*
X133075272Y-77574622D01*
X133075267Y-77574619D01*
X133070883Y-77572617D01*
X133048094Y-77559096D01*
X133044231Y-77556204D01*
X133044229Y-77556203D01*
X132997690Y-77538845D01*
X132989522Y-77535461D01*
X132944357Y-77514835D01*
X132944355Y-77514834D01*
X132939582Y-77514148D01*
X132913900Y-77507593D01*
X132909386Y-77505909D01*
X132859846Y-77502365D01*
X132851059Y-77501420D01*
X132837699Y-77499500D01*
X132837697Y-77499500D01*
X132824208Y-77499500D01*
X132815361Y-77499184D01*
X132765829Y-77495641D01*
X132765825Y-77495641D01*
X132761115Y-77496666D01*
X132734757Y-77499500D01*
X132675041Y-77499500D01*
X132608002Y-77479815D01*
X132564041Y-77430771D01*
X132482367Y-77266746D01*
X132353872Y-77096593D01*
X132310785Y-77057314D01*
X132196302Y-76952948D01*
X132015019Y-76840702D01*
X132015017Y-76840701D01*
X131893880Y-76793773D01*
X131816198Y-76763679D01*
X131606610Y-76724500D01*
X131393390Y-76724500D01*
X131282645Y-76745201D01*
X131213131Y-76738171D01*
X131158452Y-76694673D01*
X131135970Y-76628519D01*
X131152823Y-76560713D01*
X131172176Y-76535636D01*
X135974794Y-71733019D01*
X136036117Y-71699534D01*
X136062475Y-71696700D01*
X149397657Y-71696700D01*
X149424015Y-71699534D01*
X149428727Y-71700559D01*
X149478261Y-71697015D01*
X149487108Y-71696700D01*
X149500599Y-71696700D01*
X149513956Y-71694779D01*
X149522751Y-71693833D01*
X149572283Y-71690291D01*
X149576792Y-71688608D01*
X149602485Y-71682050D01*
X149607257Y-71681365D01*
X149652437Y-71660730D01*
X149660601Y-71657349D01*
X149707131Y-71639996D01*
X149710989Y-71637107D01*
X149733795Y-71623575D01*
X149738173Y-71621577D01*
X149775699Y-71589059D01*
X149782578Y-71583516D01*
X149793393Y-71575421D01*
X149802955Y-71565858D01*
X149809405Y-71559853D01*
X149846943Y-71527328D01*
X149849551Y-71523268D01*
X149866181Y-71502631D01*
X151556995Y-69811819D01*
X151618318Y-69778334D01*
X151644676Y-69775500D01*
X166664157Y-69775500D01*
X166690515Y-69778334D01*
X166695227Y-69779359D01*
X166744761Y-69775815D01*
X166753608Y-69775500D01*
X166767099Y-69775500D01*
X166780456Y-69773579D01*
X166789251Y-69772633D01*
X166838783Y-69769091D01*
X166843292Y-69767408D01*
X166868985Y-69760850D01*
X166873757Y-69760165D01*
X166918937Y-69739530D01*
X166927101Y-69736149D01*
X166973631Y-69718796D01*
X166977489Y-69715907D01*
X167000295Y-69702375D01*
X167004673Y-69700377D01*
X167042199Y-69667859D01*
X167049078Y-69662316D01*
X167059893Y-69654221D01*
X167069455Y-69644658D01*
X167075905Y-69638653D01*
X167113443Y-69606128D01*
X167116051Y-69602068D01*
X167132681Y-69581431D01*
X172187295Y-64526819D01*
X172248618Y-64493334D01*
X172274976Y-64490500D01*
X180438855Y-64490500D01*
X180505894Y-64510185D01*
X180521079Y-64521682D01*
X180576448Y-64570734D01*
X180727075Y-64649790D01*
X180892244Y-64690500D01*
X181062356Y-64690500D01*
X181227525Y-64649790D01*
X181306992Y-64608081D01*
X181378149Y-64570736D01*
X181378150Y-64570734D01*
X181378152Y-64570734D01*
X181505483Y-64457929D01*
X181602118Y-64317930D01*
X181662440Y-64158872D01*
X181682945Y-63990000D01*
X181662440Y-63821128D01*
X181602118Y-63662070D01*
X181599913Y-63658876D01*
X181557294Y-63597132D01*
X181505483Y-63522071D01*
X181378152Y-63409266D01*
X181378149Y-63409263D01*
X181227526Y-63330210D01*
X181062356Y-63289500D01*
X180892244Y-63289500D01*
X180727073Y-63330210D01*
X180576450Y-63409264D01*
X180521082Y-63458316D01*
X180457849Y-63488037D01*
X180438855Y-63489500D01*
X172083443Y-63489500D01*
X172057085Y-63486666D01*
X172052374Y-63485641D01*
X172052370Y-63485641D01*
X172002839Y-63489184D01*
X171993992Y-63489500D01*
X171980500Y-63489500D01*
X171974363Y-63490382D01*
X171967140Y-63491420D01*
X171958354Y-63492365D01*
X171908816Y-63495909D01*
X171908813Y-63495910D01*
X171904286Y-63497598D01*
X171878627Y-63504146D01*
X171873850Y-63504833D01*
X171873843Y-63504835D01*
X171828665Y-63525466D01*
X171820491Y-63528851D01*
X171773975Y-63546200D01*
X171773964Y-63546206D01*
X171770099Y-63549100D01*
X171747320Y-63562615D01*
X171742936Y-63564617D01*
X171742925Y-63564624D01*
X171705408Y-63597132D01*
X171698526Y-63602678D01*
X171687703Y-63610780D01*
X171678154Y-63620329D01*
X171671684Y-63626353D01*
X171634161Y-63658867D01*
X171634154Y-63658876D01*
X171631543Y-63662938D01*
X171614916Y-63683568D01*
X166560305Y-68738181D01*
X166498982Y-68771666D01*
X166472624Y-68774500D01*
X151453143Y-68774500D01*
X151426785Y-68771666D01*
X151422074Y-68770641D01*
X151422070Y-68770641D01*
X151372539Y-68774184D01*
X151363692Y-68774500D01*
X151350200Y-68774500D01*
X151344063Y-68775382D01*
X151336840Y-68776420D01*
X151328054Y-68777365D01*
X151278516Y-68780909D01*
X151278513Y-68780910D01*
X151273986Y-68782598D01*
X151248327Y-68789146D01*
X151243550Y-68789833D01*
X151243543Y-68789835D01*
X151198365Y-68810466D01*
X151190191Y-68813851D01*
X151143675Y-68831200D01*
X151143664Y-68831206D01*
X151139799Y-68834100D01*
X151117020Y-68847615D01*
X151112636Y-68849617D01*
X151112625Y-68849624D01*
X151075108Y-68882132D01*
X151068226Y-68887678D01*
X151057403Y-68895780D01*
X151047854Y-68905329D01*
X151041384Y-68911353D01*
X151003861Y-68943867D01*
X151003854Y-68943876D01*
X151001243Y-68947938D01*
X150984616Y-68968568D01*
X150782224Y-69170961D01*
X150720901Y-69204446D01*
X150651210Y-69199462D01*
X150595276Y-69157591D01*
X150570859Y-69092126D01*
X150577433Y-69048356D01*
X150575836Y-69047902D01*
X150579554Y-69034835D01*
X150635756Y-68837310D01*
X150650500Y-68678194D01*
X150650500Y-68321806D01*
X150635756Y-68162690D01*
X150577405Y-67957611D01*
X150577403Y-67957606D01*
X150577403Y-67957605D01*
X150482367Y-67766746D01*
X150353872Y-67596593D01*
X150344726Y-67588255D01*
X150196302Y-67452948D01*
X150138225Y-67416988D01*
X150091590Y-67364960D01*
X150080486Y-67295978D01*
X150108439Y-67231944D01*
X150115807Y-67223896D01*
X150212986Y-67126718D01*
X150274309Y-67093234D01*
X150300666Y-67090400D01*
X150397756Y-67090400D01*
X150562925Y-67049690D01*
X150695709Y-66979999D01*
X150713549Y-66970636D01*
X150713550Y-66970634D01*
X150713552Y-66970634D01*
X150840883Y-66857829D01*
X150937518Y-66717830D01*
X150997840Y-66558772D01*
X151018345Y-66389900D01*
X150997840Y-66221028D01*
X150992318Y-66206469D01*
X150986952Y-66136809D01*
X151020099Y-66075302D01*
X151081237Y-66041481D01*
X151108261Y-66038500D01*
X158980934Y-66038500D01*
X159047973Y-66058185D01*
X159068615Y-66074819D01*
X159219907Y-66226111D01*
X159241339Y-66259456D01*
X159242684Y-66258723D01*
X159315905Y-66392817D01*
X159315911Y-66392825D01*
X159417674Y-66494588D01*
X159417681Y-66494594D01*
X159493888Y-66536206D01*
X159543994Y-66563566D01*
X159684627Y-66594159D01*
X159828183Y-66583891D01*
X159963031Y-66533596D01*
X160049293Y-66469021D01*
X163888195Y-62630119D01*
X163949518Y-62596634D01*
X163975876Y-62593800D01*
X165074248Y-62593800D01*
X165141287Y-62613485D01*
G37*
%TD.AperFunction*%
%TA.AperFunction,Conductor*%
G36*
X141563481Y-58800649D02*
G01*
X141525000Y-58931705D01*
X141525000Y-59068295D01*
X141563481Y-59199351D01*
X141596031Y-59250000D01*
X140650001Y-59250000D01*
X140650001Y-59774986D01*
X140660494Y-59877697D01*
X140715641Y-60044119D01*
X140715643Y-60044124D01*
X140807684Y-60193345D01*
X140931654Y-60317315D01*
X141080875Y-60409356D01*
X141080880Y-60409358D01*
X141247302Y-60464505D01*
X141247309Y-60464506D01*
X141350019Y-60474999D01*
X141749999Y-60474999D01*
X141750000Y-60474998D01*
X141750000Y-59408018D01*
X141864801Y-59460446D01*
X141966025Y-59475000D01*
X142033975Y-59475000D01*
X142135199Y-59460446D01*
X142250000Y-59408018D01*
X142250000Y-60474999D01*
X142649972Y-60474999D01*
X142649986Y-60474998D01*
X142752697Y-60464505D01*
X142919119Y-60409358D01*
X142919124Y-60409356D01*
X143068345Y-60317315D01*
X143192315Y-60193345D01*
X143284356Y-60044124D01*
X143284358Y-60044119D01*
X143339505Y-59877697D01*
X143339506Y-59877688D01*
X143341648Y-59856727D01*
X143368042Y-59792035D01*
X143425222Y-59751882D01*
X143495033Y-59749018D01*
X143555311Y-59784350D01*
X143563960Y-59794600D01*
X143626712Y-59877697D01*
X143646128Y-59903407D01*
X143803698Y-60047052D01*
X143984981Y-60159298D01*
X144183802Y-60236321D01*
X144393390Y-60275500D01*
X144393392Y-60275500D01*
X144606608Y-60275500D01*
X144606610Y-60275500D01*
X144816198Y-60236321D01*
X144893885Y-60206224D01*
X144963503Y-60200362D01*
X145025243Y-60233071D01*
X145026356Y-60234170D01*
X146204814Y-61412628D01*
X146221446Y-61433266D01*
X146224054Y-61437325D01*
X146224057Y-61437328D01*
X146261600Y-61469858D01*
X146268063Y-61475877D01*
X146277607Y-61485421D01*
X146277613Y-61485426D01*
X146277616Y-61485428D01*
X146288407Y-61493506D01*
X146295300Y-61499060D01*
X146332827Y-61531577D01*
X146337210Y-61533579D01*
X146360007Y-61547105D01*
X146363869Y-61549996D01*
X146410412Y-61567355D01*
X146418560Y-61570730D01*
X146445873Y-61583204D01*
X146463740Y-61591364D01*
X146463741Y-61591364D01*
X146463743Y-61591365D01*
X146468512Y-61592050D01*
X146494202Y-61598607D01*
X146498717Y-61600291D01*
X146548249Y-61603833D01*
X146557043Y-61604779D01*
X146570401Y-61606700D01*
X146583892Y-61606700D01*
X146592738Y-61607015D01*
X146642273Y-61610559D01*
X146646985Y-61609534D01*
X146673343Y-61606700D01*
X163196623Y-61606700D01*
X163263662Y-61626385D01*
X163309417Y-61679189D01*
X163319361Y-61748347D01*
X163290336Y-61811903D01*
X163284304Y-61818381D01*
X159773025Y-65329660D01*
X159711702Y-65363145D01*
X159642010Y-65358161D01*
X159597663Y-65329660D01*
X159560268Y-65292265D01*
X159551002Y-65281897D01*
X159537568Y-65265051D01*
X159528779Y-65254030D01*
X159528778Y-65254029D01*
X159528777Y-65254028D01*
X159503250Y-65236624D01*
X159481533Y-65221818D01*
X159477769Y-65219147D01*
X159431786Y-65185209D01*
X159424197Y-65181198D01*
X159416575Y-65177528D01*
X159361949Y-65160679D01*
X159357544Y-65159230D01*
X159353960Y-65157976D01*
X159345956Y-65155175D01*
X159303595Y-65140352D01*
X159295226Y-65138768D01*
X159286804Y-65137500D01*
X159286802Y-65137500D01*
X159229638Y-65137500D01*
X159225001Y-65137413D01*
X159222985Y-65137337D01*
X159167889Y-65135275D01*
X159158656Y-65136316D01*
X159158562Y-65135486D01*
X159143264Y-65137500D01*
X148993962Y-65137500D01*
X148980079Y-65136720D01*
X148975070Y-65136155D01*
X148944663Y-65132729D01*
X148888510Y-65143354D01*
X148883941Y-65144131D01*
X148827415Y-65152651D01*
X148819232Y-65155175D01*
X148811229Y-65157976D01*
X148760685Y-65184689D01*
X148756548Y-65186777D01*
X148705058Y-65211573D01*
X148698038Y-65216359D01*
X148691160Y-65221435D01*
X148650758Y-65261837D01*
X148647422Y-65265051D01*
X148605504Y-65303946D01*
X148599713Y-65311208D01*
X148599060Y-65310687D01*
X148589667Y-65322929D01*
X148359616Y-65552981D01*
X148298293Y-65586466D01*
X148271935Y-65589300D01*
X147308143Y-65589300D01*
X147281785Y-65586466D01*
X147277074Y-65585441D01*
X147277070Y-65585441D01*
X147227539Y-65588984D01*
X147218692Y-65589300D01*
X147205200Y-65589300D01*
X147199063Y-65590182D01*
X147191840Y-65591220D01*
X147183054Y-65592165D01*
X147133516Y-65595709D01*
X147133513Y-65595710D01*
X147128986Y-65597398D01*
X147103327Y-65603946D01*
X147098550Y-65604633D01*
X147098543Y-65604635D01*
X147053365Y-65625266D01*
X147045191Y-65628651D01*
X146998675Y-65646000D01*
X146998668Y-65646004D01*
X146994800Y-65648900D01*
X146972019Y-65662416D01*
X146967627Y-65664423D01*
X146931733Y-65695524D01*
X146930098Y-65696941D01*
X146923219Y-65702484D01*
X146912409Y-65710577D01*
X146902860Y-65720125D01*
X146896395Y-65726143D01*
X146858859Y-65758670D01*
X146858856Y-65758673D01*
X146856245Y-65762736D01*
X146839615Y-65783370D01*
X145877988Y-66744996D01*
X145877978Y-66745008D01*
X145813404Y-66831268D01*
X145813403Y-66831270D01*
X145804406Y-66855391D01*
X145762533Y-66911323D01*
X145697068Y-66935738D01*
X145653291Y-66931031D01*
X145545564Y-66899400D01*
X145545561Y-66899400D01*
X145401639Y-66899400D01*
X145401636Y-66899400D01*
X145263549Y-66939945D01*
X145142473Y-67017756D01*
X145048223Y-67126526D01*
X145048222Y-67126528D01*
X145008692Y-67213086D01*
X144962937Y-67265890D01*
X144895897Y-67285574D01*
X144851106Y-67277201D01*
X144816205Y-67263680D01*
X144704110Y-67242726D01*
X144606610Y-67224500D01*
X144393390Y-67224500D01*
X144183802Y-67263679D01*
X144183799Y-67263679D01*
X144183799Y-67263680D01*
X143984982Y-67340701D01*
X143984980Y-67340702D01*
X143803699Y-67452947D01*
X143646126Y-67596594D01*
X143563959Y-67705400D01*
X143507850Y-67747035D01*
X143438138Y-67751726D01*
X143376956Y-67717983D01*
X143343730Y-67656520D01*
X143341648Y-67643273D01*
X143339505Y-67622303D01*
X143284358Y-67455880D01*
X143284356Y-67455875D01*
X143192315Y-67306654D01*
X143068345Y-67182684D01*
X142919124Y-67090643D01*
X142919119Y-67090641D01*
X142752697Y-67035494D01*
X142752690Y-67035493D01*
X142649986Y-67025000D01*
X142250000Y-67025000D01*
X142250000Y-68091981D01*
X142135199Y-68039554D01*
X142033975Y-68025000D01*
X141966025Y-68025000D01*
X141864801Y-68039554D01*
X141750000Y-68091981D01*
X141750000Y-67025000D01*
X141350028Y-67025000D01*
X141350012Y-67025001D01*
X141247302Y-67035494D01*
X141080880Y-67090641D01*
X141080875Y-67090643D01*
X140931654Y-67182684D01*
X140807684Y-67306654D01*
X140715643Y-67455875D01*
X140715641Y-67455880D01*
X140660494Y-67622302D01*
X140660493Y-67622309D01*
X140650000Y-67725013D01*
X140650000Y-68250000D01*
X141596031Y-68250000D01*
X141563481Y-68300649D01*
X141525000Y-68431705D01*
X141525000Y-68568295D01*
X141563481Y-68699351D01*
X141596031Y-68750000D01*
X140650001Y-68750000D01*
X140650001Y-69274986D01*
X140660494Y-69377697D01*
X140715641Y-69544119D01*
X140715643Y-69544124D01*
X140807684Y-69693345D01*
X140931654Y-69817315D01*
X141080875Y-69909356D01*
X141080880Y-69909358D01*
X141247302Y-69964505D01*
X141247309Y-69964506D01*
X141350019Y-69974999D01*
X141749999Y-69974999D01*
X141750000Y-69974998D01*
X141750000Y-68908018D01*
X141864801Y-68960446D01*
X141966025Y-68975000D01*
X142033975Y-68975000D01*
X142135199Y-68960446D01*
X142250000Y-68908018D01*
X142250000Y-69974999D01*
X142649972Y-69974999D01*
X142649986Y-69974998D01*
X142752697Y-69964505D01*
X142919119Y-69909358D01*
X142919124Y-69909356D01*
X143068345Y-69817315D01*
X143192315Y-69693345D01*
X143284356Y-69544124D01*
X143284358Y-69544119D01*
X143339505Y-69377697D01*
X143339506Y-69377688D01*
X143341648Y-69356727D01*
X143368042Y-69292035D01*
X143425222Y-69251882D01*
X143495033Y-69249018D01*
X143555311Y-69284350D01*
X143563960Y-69294600D01*
X143643177Y-69399500D01*
X143646128Y-69403407D01*
X143803698Y-69547052D01*
X143984981Y-69659298D01*
X144183802Y-69736321D01*
X144393390Y-69775500D01*
X144393392Y-69775500D01*
X144606608Y-69775500D01*
X144606610Y-69775500D01*
X144816198Y-69736321D01*
X145015019Y-69659298D01*
X145196302Y-69547052D01*
X145353872Y-69403407D01*
X145482366Y-69233255D01*
X145508986Y-69179795D01*
X145577403Y-69042394D01*
X145577403Y-69042393D01*
X145577405Y-69042389D01*
X145630734Y-68854959D01*
X145668014Y-68795867D01*
X145731323Y-68766310D01*
X145800563Y-68775672D01*
X145853749Y-68820982D01*
X145869265Y-68854959D01*
X145919710Y-69032251D01*
X145922596Y-69042392D01*
X145922596Y-69042394D01*
X146017632Y-69233253D01*
X146146127Y-69403406D01*
X146146128Y-69403407D01*
X146303698Y-69547052D01*
X146484981Y-69659298D01*
X146683802Y-69736321D01*
X146893390Y-69775500D01*
X146893392Y-69775500D01*
X147106608Y-69775500D01*
X147106610Y-69775500D01*
X147316198Y-69736321D01*
X147515019Y-69659298D01*
X147696302Y-69547052D01*
X147853872Y-69403407D01*
X147982366Y-69233255D01*
X148008986Y-69179795D01*
X148077403Y-69042394D01*
X148077403Y-69042393D01*
X148077405Y-69042389D01*
X148130734Y-68854959D01*
X148168014Y-68795867D01*
X148231323Y-68766310D01*
X148300563Y-68775672D01*
X148353749Y-68820982D01*
X148369265Y-68854959D01*
X148419710Y-69032251D01*
X148422596Y-69042392D01*
X148422596Y-69042394D01*
X148517632Y-69233253D01*
X148646127Y-69403406D01*
X148646128Y-69403407D01*
X148803698Y-69547052D01*
X148984981Y-69659298D01*
X149183802Y-69736321D01*
X149393390Y-69775500D01*
X149393392Y-69775500D01*
X149606608Y-69775500D01*
X149606610Y-69775500D01*
X149816198Y-69736321D01*
X149886797Y-69708971D01*
X149922113Y-69695290D01*
X149991736Y-69689427D01*
X150053476Y-69722137D01*
X150087731Y-69783033D01*
X150083626Y-69852782D01*
X150054588Y-69898597D01*
X149293805Y-70659381D01*
X149232482Y-70692866D01*
X149206124Y-70695700D01*
X135870943Y-70695700D01*
X135844585Y-70692866D01*
X135839874Y-70691841D01*
X135839870Y-70691841D01*
X135790339Y-70695384D01*
X135781492Y-70695700D01*
X135768000Y-70695700D01*
X135761863Y-70696582D01*
X135754640Y-70697620D01*
X135745854Y-70698565D01*
X135696316Y-70702109D01*
X135696313Y-70702110D01*
X135691786Y-70703798D01*
X135666127Y-70710346D01*
X135661350Y-70711033D01*
X135661343Y-70711035D01*
X135616165Y-70731666D01*
X135607991Y-70735051D01*
X135561475Y-70752400D01*
X135561468Y-70752404D01*
X135557600Y-70755300D01*
X135534819Y-70768816D01*
X135530427Y-70770823D01*
X135494533Y-70801924D01*
X135492898Y-70803341D01*
X135486019Y-70808884D01*
X135475209Y-70816977D01*
X135465660Y-70826525D01*
X135459195Y-70832543D01*
X135421659Y-70865070D01*
X135421656Y-70865073D01*
X135419045Y-70869136D01*
X135402415Y-70889770D01*
X129526357Y-76765827D01*
X129465034Y-76799312D01*
X129395342Y-76794328D01*
X129393883Y-76793773D01*
X129316203Y-76763680D01*
X129316198Y-76763679D01*
X129106610Y-76724500D01*
X128893390Y-76724500D01*
X128782645Y-76745201D01*
X128713131Y-76738171D01*
X128658452Y-76694673D01*
X128635970Y-76628519D01*
X128652823Y-76560713D01*
X128672176Y-76535636D01*
X136633031Y-68574781D01*
X136653668Y-68558151D01*
X136657728Y-68555543D01*
X136690253Y-68518005D01*
X136696258Y-68511555D01*
X136705821Y-68501993D01*
X136713916Y-68491178D01*
X136719459Y-68484299D01*
X136751977Y-68446773D01*
X136753975Y-68442395D01*
X136767507Y-68419589D01*
X136770396Y-68415731D01*
X136787749Y-68369201D01*
X136791134Y-68361030D01*
X136797090Y-68347989D01*
X136811765Y-68315857D01*
X136812450Y-68311085D01*
X136819009Y-68285392D01*
X136820691Y-68280883D01*
X136824233Y-68231351D01*
X136825180Y-68222548D01*
X136825534Y-68220092D01*
X136827100Y-68209199D01*
X136827100Y-68195708D01*
X136827416Y-68186861D01*
X136827496Y-68185742D01*
X136830959Y-68137327D01*
X136829932Y-68132606D01*
X136827100Y-68106258D01*
X136827100Y-62556275D01*
X136846785Y-62489236D01*
X136863414Y-62468599D01*
X140545696Y-58786317D01*
X140607017Y-58752834D01*
X140633375Y-58750000D01*
X141596031Y-58750000D01*
X141563481Y-58800649D01*
G37*
%TD.AperFunction*%
%TA.AperFunction,Conductor*%
G36*
X171595930Y-56586085D02*
G01*
X171641685Y-56638889D01*
X171652249Y-56703001D01*
X171650000Y-56725008D01*
X171650000Y-57250000D01*
X172596031Y-57250000D01*
X172563481Y-57300649D01*
X172525000Y-57431705D01*
X172525000Y-57568295D01*
X172563481Y-57699351D01*
X172596031Y-57750000D01*
X171650001Y-57750000D01*
X171650001Y-58274989D01*
X171658982Y-58362899D01*
X171646212Y-58431592D01*
X171598331Y-58482476D01*
X171535624Y-58499500D01*
X150675041Y-58499500D01*
X150608002Y-58479815D01*
X150564041Y-58430771D01*
X150482367Y-58266746D01*
X150353872Y-58096593D01*
X150196302Y-57952948D01*
X150015019Y-57840702D01*
X150015017Y-57840701D01*
X149908178Y-57799312D01*
X149816198Y-57763679D01*
X149606610Y-57724500D01*
X149393390Y-57724500D01*
X149183802Y-57763679D01*
X149183799Y-57763679D01*
X149183799Y-57763680D01*
X148984982Y-57840701D01*
X148984980Y-57840702D01*
X148803699Y-57952947D01*
X148646127Y-58096593D01*
X148517632Y-58266746D01*
X148422596Y-58457605D01*
X148422596Y-58457607D01*
X148369266Y-58645039D01*
X148331986Y-58704132D01*
X148268676Y-58733689D01*
X148199437Y-58724327D01*
X148146251Y-58679017D01*
X148130734Y-58645039D01*
X148115680Y-58592133D01*
X148077405Y-58457611D01*
X148077403Y-58457606D01*
X148077403Y-58457605D01*
X147982367Y-58266746D01*
X147853872Y-58096593D01*
X147696302Y-57952948D01*
X147515019Y-57840702D01*
X147515017Y-57840701D01*
X147408178Y-57799312D01*
X147316198Y-57763679D01*
X147106610Y-57724500D01*
X146893390Y-57724500D01*
X146683802Y-57763679D01*
X146683799Y-57763679D01*
X146683799Y-57763680D01*
X146484982Y-57840701D01*
X146484980Y-57840702D01*
X146303699Y-57952947D01*
X146146127Y-58096593D01*
X146017632Y-58266746D01*
X145922596Y-58457605D01*
X145922596Y-58457607D01*
X145869266Y-58645039D01*
X145831986Y-58704132D01*
X145768676Y-58733689D01*
X145699437Y-58724327D01*
X145646251Y-58679017D01*
X145630734Y-58645039D01*
X145615680Y-58592133D01*
X145577405Y-58457611D01*
X145577403Y-58457606D01*
X145577403Y-58457605D01*
X145482367Y-58266746D01*
X145353872Y-58096593D01*
X145196302Y-57952948D01*
X145015019Y-57840702D01*
X145015017Y-57840701D01*
X144908178Y-57799312D01*
X144816198Y-57763679D01*
X144606610Y-57724500D01*
X144393390Y-57724500D01*
X144183802Y-57763679D01*
X144183799Y-57763679D01*
X144183799Y-57763680D01*
X143984982Y-57840701D01*
X143984980Y-57840702D01*
X143803699Y-57952947D01*
X143646126Y-58096594D01*
X143563959Y-58205400D01*
X143507850Y-58247035D01*
X143438138Y-58251726D01*
X143376956Y-58217983D01*
X143343730Y-58156520D01*
X143341648Y-58143273D01*
X143339505Y-58122303D01*
X143284358Y-57955880D01*
X143284356Y-57955875D01*
X143192315Y-57806654D01*
X143068345Y-57682684D01*
X142919124Y-57590643D01*
X142919119Y-57590641D01*
X142752697Y-57535494D01*
X142752690Y-57535493D01*
X142649986Y-57525000D01*
X142106375Y-57525000D01*
X142039336Y-57505315D01*
X141993581Y-57452511D01*
X141983637Y-57383353D01*
X142012662Y-57319797D01*
X142018680Y-57313333D01*
X142729295Y-56602719D01*
X142790618Y-56569234D01*
X142816976Y-56566400D01*
X171528891Y-56566400D01*
X171595930Y-56586085D01*
G37*
%TD.AperFunction*%
%TD*%
M02*
