%TF.GenerationSoftware,KiCad,Pcbnew,7.0.11+dfsg-1build4*%
%TF.CreationDate,2026-10-07T18:56:29+00:00*%
%TF.ProjectId,shield_jambes,73686965-6c64-45f6-9a61-6d6265732e6b,rev?*%
%TF.SameCoordinates,Original*%
%TF.FileFunction,Soldermask,Top*%
%TF.FilePolarity,Negative*%
%FSLAX46Y46*%
G04 Gerber Fmt 4.6, Leading zero omitted, Abs format (unit mm)*
G04 Created by KiCad (PCBNEW 7.0.11+dfsg-1build4) date 2026-10-07 18:56:29*
%MOMM*%
%LPD*%
G01*
G04 APERTURE LIST*
G04 Aperture macros list*
%AMRoundRect*
0 Rectangle with rounded corners*
0 $1 Rounding radius*
0 $2 $3 $4 $5 $6 $7 $8 $9 X,Y pos of 4 corners*
0 Add a 4 corners polygon primitive as box body*
4,1,4,$2,$3,$4,$5,$6,$7,$8,$9,$2,$3,0*
0 Add four circle primitives for the rounded corners*
1,1,$1+$1,$2,$3*
1,1,$1+$1,$4,$5*
1,1,$1+$1,$6,$7*
1,1,$1+$1,$8,$9*
0 Add four rect primitives between the rounded corners*
20,1,$1+$1,$2,$3,$4,$5,0*
20,1,$1+$1,$4,$5,$6,$7,0*
20,1,$1+$1,$6,$7,$8,$9,0*
20,1,$1+$1,$8,$9,$2,$3,0*%
G04 Aperture macros list end*
%ADD10C,1.600000*%
%ADD11O,1.600000X1.600000*%
%ADD12C,3.200000*%
%ADD13R,1.700000X1.700000*%
%ADD14O,1.700000X1.700000*%
%ADD15RoundRect,0.250000X-0.600000X-0.725000X0.600000X-0.725000X0.600000X0.725000X-0.600000X0.725000X0*%
%ADD16O,1.700000X1.950000*%
%ADD17RoundRect,0.250000X-0.600000X-0.750000X0.600000X-0.750000X0.600000X0.750000X-0.600000X0.750000X0*%
%ADD18O,1.700000X2.000000*%
%ADD19R,1.800000X1.800000*%
%ADD20C,1.800000*%
%ADD21R,1.600000X1.600000*%
G04 APERTURE END LIST*
D10*
%TO.C,R2*%
X178000000Y-92500000D03*
D11*
X185620000Y-92500000D03*
%TD*%
D12*
%TO.C,H2*%
X115240000Y-49200000D03*
%TD*%
D13*
%TO.C,J1*%
X127940000Y-97460000D03*
D14*
X130480000Y-97460000D03*
X133020000Y-97460000D03*
X135560000Y-97460000D03*
X138100000Y-97460000D03*
X140640000Y-97460000D03*
X143180000Y-97460000D03*
X145720000Y-97460000D03*
%TD*%
D15*
%TO.C,J13*%
X124000000Y-87500000D03*
D16*
X126500000Y-87500000D03*
X129000000Y-87500000D03*
X131500000Y-87500000D03*
%TD*%
D10*
%TO.C,C1*%
X182000000Y-70500000D03*
X187000000Y-70500000D03*
%TD*%
D12*
%TO.C,H1*%
X113970000Y-97460000D03*
%TD*%
D15*
%TO.C,J20*%
X173000000Y-57500000D03*
D16*
X175500000Y-57500000D03*
X178000000Y-57500000D03*
X180500000Y-57500000D03*
%TD*%
D13*
%TO.C,J4*%
X193980000Y-49200000D03*
D14*
X196520000Y-49200000D03*
X193980000Y-51740000D03*
X196520000Y-51740000D03*
X193980000Y-54280000D03*
X196520000Y-54280000D03*
X193980000Y-56820000D03*
X196520000Y-56820000D03*
X193980000Y-59360000D03*
X196520000Y-59360000D03*
X193980000Y-61900000D03*
X196520000Y-61900000D03*
X193980000Y-64440000D03*
X196520000Y-64440000D03*
X193980000Y-66980000D03*
X196520000Y-66980000D03*
X193980000Y-69520000D03*
X196520000Y-69520000D03*
X193980000Y-72060000D03*
X196520000Y-72060000D03*
X193980000Y-74600000D03*
X196520000Y-74600000D03*
X193980000Y-77140000D03*
X196520000Y-77140000D03*
X193980000Y-79680000D03*
X196520000Y-79680000D03*
X193980000Y-82220000D03*
X196520000Y-82220000D03*
X193980000Y-84760000D03*
X196520000Y-84760000D03*
X193980000Y-87300000D03*
X196520000Y-87300000D03*
X193980000Y-89840000D03*
X196520000Y-89840000D03*
X193980000Y-92380000D03*
X196520000Y-92380000D03*
%TD*%
D17*
%TO.C,J22*%
X173000000Y-77500000D03*
D18*
X175500000Y-77500000D03*
%TD*%
D12*
%TO.C,H4*%
X166040000Y-64440000D03*
%TD*%
%TO.C,H3*%
X166040000Y-92380000D03*
%TD*%
D15*
%TO.C,J15*%
X142000000Y-68500000D03*
D16*
X144500000Y-68500000D03*
X147000000Y-68500000D03*
X149500000Y-68500000D03*
%TD*%
D15*
%TO.C,J21*%
X173000000Y-67000000D03*
D16*
X175500000Y-67000000D03*
X178000000Y-67000000D03*
%TD*%
D19*
%TO.C,D1*%
X172000000Y-92500000D03*
D20*
X174540000Y-92500000D03*
%TD*%
D15*
%TO.C,J14*%
X142000000Y-59000000D03*
D16*
X144500000Y-59000000D03*
X147000000Y-59000000D03*
X149500000Y-59000000D03*
%TD*%
D21*
%TO.C,C2*%
X173000000Y-85500000D03*
D10*
X175500000Y-85500000D03*
%TD*%
D15*
%TO.C,J11*%
X124000000Y-68500000D03*
D16*
X126500000Y-68500000D03*
X129000000Y-68500000D03*
X131500000Y-68500000D03*
%TD*%
D15*
%TO.C,J12*%
X124000000Y-78000000D03*
D16*
X126500000Y-78000000D03*
X129000000Y-78000000D03*
X131500000Y-78000000D03*
%TD*%
D10*
%TO.C,C3*%
X181000000Y-85500000D03*
X186000000Y-85500000D03*
%TD*%
D15*
%TO.C,J16*%
X142000000Y-78000000D03*
D16*
X144500000Y-78000000D03*
X147000000Y-78000000D03*
X149500000Y-78000000D03*
%TD*%
D15*
%TO.C,J10*%
X124000000Y-59000000D03*
D16*
X126500000Y-59000000D03*
X129000000Y-59000000D03*
X131500000Y-59000000D03*
%TD*%
D13*
%TO.C,J2*%
X145720000Y-49200000D03*
D14*
X148260000Y-49200000D03*
X150800000Y-49200000D03*
X153340000Y-49200000D03*
X155880000Y-49200000D03*
X158420000Y-49200000D03*
X160960000Y-49200000D03*
X163500000Y-49200000D03*
%TD*%
D10*
%TO.C,R1*%
X182000000Y-77500000D03*
D11*
X189620000Y-77500000D03*
%TD*%
D13*
%TO.C,J3*%
X168579999Y-49200000D03*
D14*
X171119999Y-49200000D03*
X173659999Y-49200000D03*
X176199999Y-49200000D03*
X178739999Y-49200000D03*
X181279999Y-49200000D03*
X183819999Y-49200000D03*
X186359999Y-49200000D03*
%TD*%
D15*
%TO.C,J17*%
X142000000Y-87500000D03*
D16*
X144500000Y-87500000D03*
X147000000Y-87500000D03*
X149500000Y-87500000D03*
%TD*%
M02*
