%TF.GenerationSoftware,KiCad,Pcbnew,7.0.11+dfsg-1build4*%
%TF.CreationDate,2026-10-07T18:56:29+00:00*%
%TF.ProjectId,shield_jambes,73686965-6c64-45f6-9a61-6d6265732e6b,rev?*%
%TF.SameCoordinates,Original*%
%TF.FileFunction,Legend,Bot*%
%TF.FilePolarity,Positive*%
%FSLAX46Y46*%
G04 Gerber Fmt 4.6, Leading zero omitted, Abs format (unit mm)*
G04 Created by KiCad (PCBNEW 7.0.11+dfsg-1build4) date 2026-10-07 18:56:29*
%MOMM*%
%LPD*%
G01*
G04 APERTURE LIST*
G04 Aperture macros list*
%AMRoundRect*
0 Rectangle with rounded corners*
0 $1 Rounding radius*
0 $2 $3 $4 $5 $6 $7 $8 $9 X,Y pos of 4 corners*
0 Add a 4 corners polygon primitive as box body*
4,1,4,$2,$3,$4,$5,$6,$7,$8,$9,$2,$3,0*
0 Add four circle primitives for the rounded corners*
1,1,$1+$1,$2,$3*
1,1,$1+$1,$4,$5*
1,1,$1+$1,$6,$7*
1,1,$1+$1,$8,$9*
0 Add four rect primitives between the rounded corners*
20,1,$1+$1,$2,$3,$4,$5,0*
20,1,$1+$1,$4,$5,$6,$7,0*
20,1,$1+$1,$6,$7,$8,$9,0*
20,1,$1+$1,$8,$9,$2,$3,0*%
G04 Aperture macros list end*
%ADD10C,0.120000*%
%ADD11C,1.600000*%
%ADD12O,1.600000X1.600000*%
%ADD13C,3.200000*%
%ADD14R,1.700000X1.700000*%
%ADD15O,1.700000X1.700000*%
%ADD16RoundRect,0.250000X-0.600000X-0.725000X0.600000X-0.725000X0.600000X0.725000X-0.600000X0.725000X0*%
%ADD17O,1.700000X1.950000*%
%ADD18RoundRect,0.250000X-0.600000X-0.750000X0.600000X-0.750000X0.600000X0.750000X-0.600000X0.750000X0*%
%ADD19O,1.700000X2.000000*%
%ADD20R,1.800000X1.800000*%
%ADD21C,1.800000*%
%ADD22R,1.600000X1.600000*%
G04 APERTURE END LIST*
D10*
X103363855Y-84590478D02*
X102563855Y-84590478D01*
X103325760Y-84247622D02*
X103363855Y-84171431D01*
X103363855Y-84171431D02*
X103363855Y-84019050D01*
X103363855Y-84019050D02*
X103325760Y-83942860D01*
X103325760Y-83942860D02*
X103249569Y-83904764D01*
X103249569Y-83904764D02*
X103211474Y-83904764D01*
X103211474Y-83904764D02*
X103135283Y-83942860D01*
X103135283Y-83942860D02*
X103097188Y-84019050D01*
X103097188Y-84019050D02*
X103097188Y-84133336D01*
X103097188Y-84133336D02*
X103059093Y-84209526D01*
X103059093Y-84209526D02*
X102982902Y-84247622D01*
X102982902Y-84247622D02*
X102944807Y-84247622D01*
X102944807Y-84247622D02*
X102868617Y-84209526D01*
X102868617Y-84209526D02*
X102830521Y-84133336D01*
X102830521Y-84133336D02*
X102830521Y-84019050D01*
X102830521Y-84019050D02*
X102868617Y-83942860D01*
X103363855Y-83447622D02*
X103325760Y-83523812D01*
X103325760Y-83523812D02*
X103287664Y-83561907D01*
X103287664Y-83561907D02*
X103211474Y-83600003D01*
X103211474Y-83600003D02*
X102982902Y-83600003D01*
X102982902Y-83600003D02*
X102906712Y-83561907D01*
X102906712Y-83561907D02*
X102868617Y-83523812D01*
X102868617Y-83523812D02*
X102830521Y-83447622D01*
X102830521Y-83447622D02*
X102830521Y-83333336D01*
X102830521Y-83333336D02*
X102868617Y-83257145D01*
X102868617Y-83257145D02*
X102906712Y-83219050D01*
X102906712Y-83219050D02*
X102982902Y-83180955D01*
X102982902Y-83180955D02*
X103211474Y-83180955D01*
X103211474Y-83180955D02*
X103287664Y-83219050D01*
X103287664Y-83219050D02*
X103325760Y-83257145D01*
X103325760Y-83257145D02*
X103363855Y-83333336D01*
X103363855Y-83333336D02*
X103363855Y-83447622D01*
X103363855Y-82723812D02*
X103325760Y-82800002D01*
X103325760Y-82800002D02*
X103249569Y-82838097D01*
X103249569Y-82838097D02*
X102563855Y-82838097D01*
X103325760Y-82114287D02*
X103363855Y-82190478D01*
X103363855Y-82190478D02*
X103363855Y-82342859D01*
X103363855Y-82342859D02*
X103325760Y-82419049D01*
X103325760Y-82419049D02*
X103249569Y-82457145D01*
X103249569Y-82457145D02*
X102944807Y-82457145D01*
X102944807Y-82457145D02*
X102868617Y-82419049D01*
X102868617Y-82419049D02*
X102830521Y-82342859D01*
X102830521Y-82342859D02*
X102830521Y-82190478D01*
X102830521Y-82190478D02*
X102868617Y-82114287D01*
X102868617Y-82114287D02*
X102944807Y-82076192D01*
X102944807Y-82076192D02*
X103020998Y-82076192D01*
X103020998Y-82076192D02*
X103097188Y-82457145D01*
X103363855Y-81733335D02*
X102830521Y-81733335D01*
X102982902Y-81733335D02*
X102906712Y-81695240D01*
X102906712Y-81695240D02*
X102868617Y-81657145D01*
X102868617Y-81657145D02*
X102830521Y-81580954D01*
X102830521Y-81580954D02*
X102830521Y-81504764D01*
X103325760Y-80666669D02*
X103363855Y-80590478D01*
X103363855Y-80590478D02*
X103363855Y-80438097D01*
X103363855Y-80438097D02*
X103325760Y-80361907D01*
X103325760Y-80361907D02*
X103249569Y-80323811D01*
X103249569Y-80323811D02*
X103211474Y-80323811D01*
X103211474Y-80323811D02*
X103135283Y-80361907D01*
X103135283Y-80361907D02*
X103097188Y-80438097D01*
X103097188Y-80438097D02*
X103097188Y-80552383D01*
X103097188Y-80552383D02*
X103059093Y-80628573D01*
X103059093Y-80628573D02*
X102982902Y-80666669D01*
X102982902Y-80666669D02*
X102944807Y-80666669D01*
X102944807Y-80666669D02*
X102868617Y-80628573D01*
X102868617Y-80628573D02*
X102830521Y-80552383D01*
X102830521Y-80552383D02*
X102830521Y-80438097D01*
X102830521Y-80438097D02*
X102868617Y-80361907D01*
X103363855Y-79866669D02*
X103325760Y-79942859D01*
X103325760Y-79942859D02*
X103287664Y-79980954D01*
X103287664Y-79980954D02*
X103211474Y-80019050D01*
X103211474Y-80019050D02*
X102982902Y-80019050D01*
X102982902Y-80019050D02*
X102906712Y-79980954D01*
X102906712Y-79980954D02*
X102868617Y-79942859D01*
X102868617Y-79942859D02*
X102830521Y-79866669D01*
X102830521Y-79866669D02*
X102830521Y-79752383D01*
X102830521Y-79752383D02*
X102868617Y-79676192D01*
X102868617Y-79676192D02*
X102906712Y-79638097D01*
X102906712Y-79638097D02*
X102982902Y-79600002D01*
X102982902Y-79600002D02*
X103211474Y-79600002D01*
X103211474Y-79600002D02*
X103287664Y-79638097D01*
X103287664Y-79638097D02*
X103325760Y-79676192D01*
X103325760Y-79676192D02*
X103363855Y-79752383D01*
X103363855Y-79752383D02*
X103363855Y-79866669D01*
X102830521Y-78914287D02*
X103363855Y-78914287D01*
X102830521Y-79257144D02*
X103249569Y-79257144D01*
X103249569Y-79257144D02*
X103325760Y-79219049D01*
X103325760Y-79219049D02*
X103363855Y-79142859D01*
X103363855Y-79142859D02*
X103363855Y-79028573D01*
X103363855Y-79028573D02*
X103325760Y-78952382D01*
X103325760Y-78952382D02*
X103287664Y-78914287D01*
X103325760Y-78571430D02*
X103363855Y-78495239D01*
X103363855Y-78495239D02*
X103363855Y-78342858D01*
X103363855Y-78342858D02*
X103325760Y-78266668D01*
X103325760Y-78266668D02*
X103249569Y-78228572D01*
X103249569Y-78228572D02*
X103211474Y-78228572D01*
X103211474Y-78228572D02*
X103135283Y-78266668D01*
X103135283Y-78266668D02*
X103097188Y-78342858D01*
X103097188Y-78342858D02*
X103097188Y-78457144D01*
X103097188Y-78457144D02*
X103059093Y-78533334D01*
X103059093Y-78533334D02*
X102982902Y-78571430D01*
X102982902Y-78571430D02*
X102944807Y-78571430D01*
X102944807Y-78571430D02*
X102868617Y-78533334D01*
X102868617Y-78533334D02*
X102830521Y-78457144D01*
X102830521Y-78457144D02*
X102830521Y-78342858D01*
X102830521Y-78342858D02*
X102868617Y-78266668D01*
X103363855Y-77161906D02*
X103325760Y-77238096D01*
X103325760Y-77238096D02*
X103249569Y-77276191D01*
X103249569Y-77276191D02*
X102563855Y-77276191D01*
X103363855Y-76514286D02*
X102944807Y-76514286D01*
X102944807Y-76514286D02*
X102868617Y-76552381D01*
X102868617Y-76552381D02*
X102830521Y-76628572D01*
X102830521Y-76628572D02*
X102830521Y-76780953D01*
X102830521Y-76780953D02*
X102868617Y-76857143D01*
X103325760Y-76514286D02*
X103363855Y-76590477D01*
X103363855Y-76590477D02*
X103363855Y-76780953D01*
X103363855Y-76780953D02*
X103325760Y-76857143D01*
X103325760Y-76857143D02*
X103249569Y-76895239D01*
X103249569Y-76895239D02*
X103173379Y-76895239D01*
X103173379Y-76895239D02*
X103097188Y-76857143D01*
X103097188Y-76857143D02*
X103059093Y-76780953D01*
X103059093Y-76780953D02*
X103059093Y-76590477D01*
X103059093Y-76590477D02*
X103020998Y-76514286D01*
X103325760Y-75180952D02*
X103363855Y-75257143D01*
X103363855Y-75257143D02*
X103363855Y-75409524D01*
X103363855Y-75409524D02*
X103325760Y-75485714D01*
X103325760Y-75485714D02*
X103287664Y-75523809D01*
X103287664Y-75523809D02*
X103211474Y-75561905D01*
X103211474Y-75561905D02*
X102982902Y-75561905D01*
X102982902Y-75561905D02*
X102906712Y-75523809D01*
X102906712Y-75523809D02*
X102868617Y-75485714D01*
X102868617Y-75485714D02*
X102830521Y-75409524D01*
X102830521Y-75409524D02*
X102830521Y-75257143D01*
X102830521Y-75257143D02*
X102868617Y-75180952D01*
X103363855Y-74495238D02*
X102944807Y-74495238D01*
X102944807Y-74495238D02*
X102868617Y-74533333D01*
X102868617Y-74533333D02*
X102830521Y-74609524D01*
X102830521Y-74609524D02*
X102830521Y-74761905D01*
X102830521Y-74761905D02*
X102868617Y-74838095D01*
X103325760Y-74495238D02*
X103363855Y-74571429D01*
X103363855Y-74571429D02*
X103363855Y-74761905D01*
X103363855Y-74761905D02*
X103325760Y-74838095D01*
X103325760Y-74838095D02*
X103249569Y-74876191D01*
X103249569Y-74876191D02*
X103173379Y-74876191D01*
X103173379Y-74876191D02*
X103097188Y-74838095D01*
X103097188Y-74838095D02*
X103059093Y-74761905D01*
X103059093Y-74761905D02*
X103059093Y-74571429D01*
X103059093Y-74571429D02*
X103020998Y-74495238D01*
X103363855Y-74114285D02*
X102830521Y-74114285D01*
X102982902Y-74114285D02*
X102906712Y-74076190D01*
X102906712Y-74076190D02*
X102868617Y-74038095D01*
X102868617Y-74038095D02*
X102830521Y-73961904D01*
X102830521Y-73961904D02*
X102830521Y-73885714D01*
X102830521Y-73733333D02*
X102830521Y-73428571D01*
X102563855Y-73619047D02*
X103249569Y-73619047D01*
X103249569Y-73619047D02*
X103325760Y-73580952D01*
X103325760Y-73580952D02*
X103363855Y-73504762D01*
X103363855Y-73504762D02*
X103363855Y-73428571D01*
X103325760Y-72857142D02*
X103363855Y-72933333D01*
X103363855Y-72933333D02*
X103363855Y-73085714D01*
X103363855Y-73085714D02*
X103325760Y-73161904D01*
X103325760Y-73161904D02*
X103249569Y-73200000D01*
X103249569Y-73200000D02*
X102944807Y-73200000D01*
X102944807Y-73200000D02*
X102868617Y-73161904D01*
X102868617Y-73161904D02*
X102830521Y-73085714D01*
X102830521Y-73085714D02*
X102830521Y-72933333D01*
X102830521Y-72933333D02*
X102868617Y-72857142D01*
X102868617Y-72857142D02*
X102944807Y-72819047D01*
X102944807Y-72819047D02*
X103020998Y-72819047D01*
X103020998Y-72819047D02*
X103097188Y-73200000D01*
X103363855Y-71523809D02*
X102944807Y-71523809D01*
X102944807Y-71523809D02*
X102868617Y-71561904D01*
X102868617Y-71561904D02*
X102830521Y-71638095D01*
X102830521Y-71638095D02*
X102830521Y-71790476D01*
X102830521Y-71790476D02*
X102868617Y-71866666D01*
X103325760Y-71523809D02*
X103363855Y-71600000D01*
X103363855Y-71600000D02*
X103363855Y-71790476D01*
X103363855Y-71790476D02*
X103325760Y-71866666D01*
X103325760Y-71866666D02*
X103249569Y-71904762D01*
X103249569Y-71904762D02*
X103173379Y-71904762D01*
X103173379Y-71904762D02*
X103097188Y-71866666D01*
X103097188Y-71866666D02*
X103059093Y-71790476D01*
X103059093Y-71790476D02*
X103059093Y-71600000D01*
X103059093Y-71600000D02*
X103020998Y-71523809D01*
X102830521Y-70799999D02*
X103363855Y-70799999D01*
X102830521Y-71142856D02*
X103249569Y-71142856D01*
X103249569Y-71142856D02*
X103325760Y-71104761D01*
X103325760Y-71104761D02*
X103363855Y-71028571D01*
X103363855Y-71028571D02*
X103363855Y-70914285D01*
X103363855Y-70914285D02*
X103325760Y-70838094D01*
X103325760Y-70838094D02*
X103287664Y-70799999D01*
X103059093Y-70419046D02*
X103059093Y-69809523D01*
X103363855Y-69085713D02*
X102563855Y-69085713D01*
X103325760Y-69085713D02*
X103363855Y-69161904D01*
X103363855Y-69161904D02*
X103363855Y-69314285D01*
X103363855Y-69314285D02*
X103325760Y-69390475D01*
X103325760Y-69390475D02*
X103287664Y-69428570D01*
X103287664Y-69428570D02*
X103211474Y-69466666D01*
X103211474Y-69466666D02*
X102982902Y-69466666D01*
X102982902Y-69466666D02*
X102906712Y-69428570D01*
X102906712Y-69428570D02*
X102868617Y-69390475D01*
X102868617Y-69390475D02*
X102830521Y-69314285D01*
X102830521Y-69314285D02*
X102830521Y-69161904D01*
X102830521Y-69161904D02*
X102868617Y-69085713D01*
X103325760Y-68399998D02*
X103363855Y-68476189D01*
X103363855Y-68476189D02*
X103363855Y-68628570D01*
X103363855Y-68628570D02*
X103325760Y-68704760D01*
X103325760Y-68704760D02*
X103249569Y-68742856D01*
X103249569Y-68742856D02*
X102944807Y-68742856D01*
X102944807Y-68742856D02*
X102868617Y-68704760D01*
X102868617Y-68704760D02*
X102830521Y-68628570D01*
X102830521Y-68628570D02*
X102830521Y-68476189D01*
X102830521Y-68476189D02*
X102868617Y-68399998D01*
X102868617Y-68399998D02*
X102944807Y-68361903D01*
X102944807Y-68361903D02*
X103020998Y-68361903D01*
X103020998Y-68361903D02*
X103097188Y-68742856D01*
X103325760Y-68057142D02*
X103363855Y-67980951D01*
X103363855Y-67980951D02*
X103363855Y-67828570D01*
X103363855Y-67828570D02*
X103325760Y-67752380D01*
X103325760Y-67752380D02*
X103249569Y-67714284D01*
X103249569Y-67714284D02*
X103211474Y-67714284D01*
X103211474Y-67714284D02*
X103135283Y-67752380D01*
X103135283Y-67752380D02*
X103097188Y-67828570D01*
X103097188Y-67828570D02*
X103097188Y-67942856D01*
X103097188Y-67942856D02*
X103059093Y-68019046D01*
X103059093Y-68019046D02*
X102982902Y-68057142D01*
X102982902Y-68057142D02*
X102944807Y-68057142D01*
X102944807Y-68057142D02*
X102868617Y-68019046D01*
X102868617Y-68019046D02*
X102830521Y-67942856D01*
X102830521Y-67942856D02*
X102830521Y-67828570D01*
X102830521Y-67828570D02*
X102868617Y-67752380D01*
X103325760Y-67409523D02*
X103363855Y-67333332D01*
X103363855Y-67333332D02*
X103363855Y-67180951D01*
X103363855Y-67180951D02*
X103325760Y-67104761D01*
X103325760Y-67104761D02*
X103249569Y-67066665D01*
X103249569Y-67066665D02*
X103211474Y-67066665D01*
X103211474Y-67066665D02*
X103135283Y-67104761D01*
X103135283Y-67104761D02*
X103097188Y-67180951D01*
X103097188Y-67180951D02*
X103097188Y-67295237D01*
X103097188Y-67295237D02*
X103059093Y-67371427D01*
X103059093Y-67371427D02*
X102982902Y-67409523D01*
X102982902Y-67409523D02*
X102944807Y-67409523D01*
X102944807Y-67409523D02*
X102868617Y-67371427D01*
X102868617Y-67371427D02*
X102830521Y-67295237D01*
X102830521Y-67295237D02*
X102830521Y-67180951D01*
X102830521Y-67180951D02*
X102868617Y-67104761D01*
X102830521Y-66380951D02*
X103363855Y-66380951D01*
X102830521Y-66723808D02*
X103249569Y-66723808D01*
X103249569Y-66723808D02*
X103325760Y-66685713D01*
X103325760Y-66685713D02*
X103363855Y-66609523D01*
X103363855Y-66609523D02*
X103363855Y-66495237D01*
X103363855Y-66495237D02*
X103325760Y-66419046D01*
X103325760Y-66419046D02*
X103287664Y-66380951D01*
X103325760Y-66038094D02*
X103363855Y-65961903D01*
X103363855Y-65961903D02*
X103363855Y-65809522D01*
X103363855Y-65809522D02*
X103325760Y-65733332D01*
X103325760Y-65733332D02*
X103249569Y-65695236D01*
X103249569Y-65695236D02*
X103211474Y-65695236D01*
X103211474Y-65695236D02*
X103135283Y-65733332D01*
X103135283Y-65733332D02*
X103097188Y-65809522D01*
X103097188Y-65809522D02*
X103097188Y-65923808D01*
X103097188Y-65923808D02*
X103059093Y-65999998D01*
X103059093Y-65999998D02*
X102982902Y-66038094D01*
X102982902Y-66038094D02*
X102944807Y-66038094D01*
X102944807Y-66038094D02*
X102868617Y-65999998D01*
X102868617Y-65999998D02*
X102830521Y-65923808D01*
X102830521Y-65923808D02*
X102830521Y-65809522D01*
X102830521Y-65809522D02*
X102868617Y-65733332D01*
X103363855Y-64399998D02*
X102563855Y-64399998D01*
X103325760Y-64399998D02*
X103363855Y-64476189D01*
X103363855Y-64476189D02*
X103363855Y-64628570D01*
X103363855Y-64628570D02*
X103325760Y-64704760D01*
X103325760Y-64704760D02*
X103287664Y-64742855D01*
X103287664Y-64742855D02*
X103211474Y-64780951D01*
X103211474Y-64780951D02*
X102982902Y-64780951D01*
X102982902Y-64780951D02*
X102906712Y-64742855D01*
X102906712Y-64742855D02*
X102868617Y-64704760D01*
X102868617Y-64704760D02*
X102830521Y-64628570D01*
X102830521Y-64628570D02*
X102830521Y-64476189D01*
X102830521Y-64476189D02*
X102868617Y-64399998D01*
X103325760Y-63714283D02*
X103363855Y-63790474D01*
X103363855Y-63790474D02*
X103363855Y-63942855D01*
X103363855Y-63942855D02*
X103325760Y-64019045D01*
X103325760Y-64019045D02*
X103249569Y-64057141D01*
X103249569Y-64057141D02*
X102944807Y-64057141D01*
X102944807Y-64057141D02*
X102868617Y-64019045D01*
X102868617Y-64019045D02*
X102830521Y-63942855D01*
X102830521Y-63942855D02*
X102830521Y-63790474D01*
X102830521Y-63790474D02*
X102868617Y-63714283D01*
X102868617Y-63714283D02*
X102944807Y-63676188D01*
X102944807Y-63676188D02*
X103020998Y-63676188D01*
X103020998Y-63676188D02*
X103097188Y-64057141D01*
X103363855Y-62609522D02*
X103325760Y-62685712D01*
X103325760Y-62685712D02*
X103249569Y-62723807D01*
X103249569Y-62723807D02*
X102563855Y-62723807D01*
X103363855Y-61961902D02*
X102944807Y-61961902D01*
X102944807Y-61961902D02*
X102868617Y-61999997D01*
X102868617Y-61999997D02*
X102830521Y-62076188D01*
X102830521Y-62076188D02*
X102830521Y-62228569D01*
X102830521Y-62228569D02*
X102868617Y-62304759D01*
X103325760Y-61961902D02*
X103363855Y-62038093D01*
X103363855Y-62038093D02*
X103363855Y-62228569D01*
X103363855Y-62228569D02*
X103325760Y-62304759D01*
X103325760Y-62304759D02*
X103249569Y-62342855D01*
X103249569Y-62342855D02*
X103173379Y-62342855D01*
X103173379Y-62342855D02*
X103097188Y-62304759D01*
X103097188Y-62304759D02*
X103059093Y-62228569D01*
X103059093Y-62228569D02*
X103059093Y-62038093D01*
X103059093Y-62038093D02*
X103020998Y-61961902D01*
X102830521Y-60971425D02*
X103630521Y-60971425D01*
X102868617Y-60971425D02*
X102830521Y-60895235D01*
X102830521Y-60895235D02*
X102830521Y-60742854D01*
X102830521Y-60742854D02*
X102868617Y-60666663D01*
X102868617Y-60666663D02*
X102906712Y-60628568D01*
X102906712Y-60628568D02*
X102982902Y-60590473D01*
X102982902Y-60590473D02*
X103211474Y-60590473D01*
X103211474Y-60590473D02*
X103287664Y-60628568D01*
X103287664Y-60628568D02*
X103325760Y-60666663D01*
X103325760Y-60666663D02*
X103363855Y-60742854D01*
X103363855Y-60742854D02*
X103363855Y-60895235D01*
X103363855Y-60895235D02*
X103325760Y-60971425D01*
X103363855Y-60247615D02*
X102830521Y-60247615D01*
X102982902Y-60247615D02*
X102906712Y-60209520D01*
X102906712Y-60209520D02*
X102868617Y-60171425D01*
X102868617Y-60171425D02*
X102830521Y-60095234D01*
X102830521Y-60095234D02*
X102830521Y-60019044D01*
X103363855Y-59752377D02*
X102830521Y-59752377D01*
X102563855Y-59752377D02*
X102601950Y-59790473D01*
X102601950Y-59790473D02*
X102640045Y-59752377D01*
X102640045Y-59752377D02*
X102601950Y-59714282D01*
X102601950Y-59714282D02*
X102563855Y-59752377D01*
X102563855Y-59752377D02*
X102640045Y-59752377D01*
X103325760Y-59409521D02*
X103363855Y-59333330D01*
X103363855Y-59333330D02*
X103363855Y-59180949D01*
X103363855Y-59180949D02*
X103325760Y-59104759D01*
X103325760Y-59104759D02*
X103249569Y-59066663D01*
X103249569Y-59066663D02*
X103211474Y-59066663D01*
X103211474Y-59066663D02*
X103135283Y-59104759D01*
X103135283Y-59104759D02*
X103097188Y-59180949D01*
X103097188Y-59180949D02*
X103097188Y-59295235D01*
X103097188Y-59295235D02*
X103059093Y-59371425D01*
X103059093Y-59371425D02*
X102982902Y-59409521D01*
X102982902Y-59409521D02*
X102944807Y-59409521D01*
X102944807Y-59409521D02*
X102868617Y-59371425D01*
X102868617Y-59371425D02*
X102830521Y-59295235D01*
X102830521Y-59295235D02*
X102830521Y-59180949D01*
X102830521Y-59180949D02*
X102868617Y-59104759D01*
X103325760Y-58419044D02*
X103363855Y-58495235D01*
X103363855Y-58495235D02*
X103363855Y-58647616D01*
X103363855Y-58647616D02*
X103325760Y-58723806D01*
X103325760Y-58723806D02*
X103249569Y-58761902D01*
X103249569Y-58761902D02*
X102944807Y-58761902D01*
X102944807Y-58761902D02*
X102868617Y-58723806D01*
X102868617Y-58723806D02*
X102830521Y-58647616D01*
X102830521Y-58647616D02*
X102830521Y-58495235D01*
X102830521Y-58495235D02*
X102868617Y-58419044D01*
X102868617Y-58419044D02*
X102944807Y-58380949D01*
X102944807Y-58380949D02*
X103020998Y-58380949D01*
X103020998Y-58380949D02*
X103097188Y-58761902D01*
X102563855Y-57428568D02*
X103211474Y-57428568D01*
X103211474Y-57428568D02*
X103287664Y-57390473D01*
X103287664Y-57390473D02*
X103325760Y-57352378D01*
X103325760Y-57352378D02*
X103363855Y-57276187D01*
X103363855Y-57276187D02*
X103363855Y-57123806D01*
X103363855Y-57123806D02*
X103325760Y-57047616D01*
X103325760Y-57047616D02*
X103287664Y-57009521D01*
X103287664Y-57009521D02*
X103211474Y-56971425D01*
X103211474Y-56971425D02*
X102563855Y-56971425D01*
X103325760Y-56628569D02*
X103363855Y-56514283D01*
X103363855Y-56514283D02*
X103363855Y-56323807D01*
X103363855Y-56323807D02*
X103325760Y-56247616D01*
X103325760Y-56247616D02*
X103287664Y-56209521D01*
X103287664Y-56209521D02*
X103211474Y-56171426D01*
X103211474Y-56171426D02*
X103135283Y-56171426D01*
X103135283Y-56171426D02*
X103059093Y-56209521D01*
X103059093Y-56209521D02*
X103020998Y-56247616D01*
X103020998Y-56247616D02*
X102982902Y-56323807D01*
X102982902Y-56323807D02*
X102944807Y-56476188D01*
X102944807Y-56476188D02*
X102906712Y-56552378D01*
X102906712Y-56552378D02*
X102868617Y-56590473D01*
X102868617Y-56590473D02*
X102792426Y-56628569D01*
X102792426Y-56628569D02*
X102716236Y-56628569D01*
X102716236Y-56628569D02*
X102640045Y-56590473D01*
X102640045Y-56590473D02*
X102601950Y-56552378D01*
X102601950Y-56552378D02*
X102563855Y-56476188D01*
X102563855Y-56476188D02*
X102563855Y-56285711D01*
X102563855Y-56285711D02*
X102601950Y-56171426D01*
X102944807Y-55561902D02*
X102982902Y-55447616D01*
X102982902Y-55447616D02*
X103020998Y-55409521D01*
X103020998Y-55409521D02*
X103097188Y-55371425D01*
X103097188Y-55371425D02*
X103211474Y-55371425D01*
X103211474Y-55371425D02*
X103287664Y-55409521D01*
X103287664Y-55409521D02*
X103325760Y-55447616D01*
X103325760Y-55447616D02*
X103363855Y-55523806D01*
X103363855Y-55523806D02*
X103363855Y-55828568D01*
X103363855Y-55828568D02*
X102563855Y-55828568D01*
X102563855Y-55828568D02*
X102563855Y-55561902D01*
X102563855Y-55561902D02*
X102601950Y-55485711D01*
X102601950Y-55485711D02*
X102640045Y-55447616D01*
X102640045Y-55447616D02*
X102716236Y-55409521D01*
X102716236Y-55409521D02*
X102792426Y-55409521D01*
X102792426Y-55409521D02*
X102868617Y-55447616D01*
X102868617Y-55447616D02*
X102906712Y-55485711D01*
X102906712Y-55485711D02*
X102944807Y-55561902D01*
X102944807Y-55561902D02*
X102944807Y-55828568D01*
%LPC*%
D11*
%TO.C,R2*%
X178000000Y-92500000D03*
D12*
X185620000Y-92500000D03*
%TD*%
D13*
%TO.C,H2*%
X115240000Y-49200000D03*
%TD*%
D14*
%TO.C,J1*%
X127940000Y-97460000D03*
D15*
X130480000Y-97460000D03*
X133020000Y-97460000D03*
X135560000Y-97460000D03*
X138100000Y-97460000D03*
X140640000Y-97460000D03*
X143180000Y-97460000D03*
X145720000Y-97460000D03*
%TD*%
D16*
%TO.C,J13*%
X124000000Y-87500000D03*
D17*
X126500000Y-87500000D03*
X129000000Y-87500000D03*
X131500000Y-87500000D03*
%TD*%
D11*
%TO.C,C1*%
X182000000Y-70500000D03*
X187000000Y-70500000D03*
%TD*%
D13*
%TO.C,H1*%
X113970000Y-97460000D03*
%TD*%
D16*
%TO.C,J20*%
X173000000Y-57500000D03*
D17*
X175500000Y-57500000D03*
X178000000Y-57500000D03*
X180500000Y-57500000D03*
%TD*%
D14*
%TO.C,J4*%
X193980000Y-49200000D03*
D15*
X196520000Y-49200000D03*
X193980000Y-51740000D03*
X196520000Y-51740000D03*
X193980000Y-54280000D03*
X196520000Y-54280000D03*
X193980000Y-56820000D03*
X196520000Y-56820000D03*
X193980000Y-59360000D03*
X196520000Y-59360000D03*
X193980000Y-61900000D03*
X196520000Y-61900000D03*
X193980000Y-64440000D03*
X196520000Y-64440000D03*
X193980000Y-66980000D03*
X196520000Y-66980000D03*
X193980000Y-69520000D03*
X196520000Y-69520000D03*
X193980000Y-72060000D03*
X196520000Y-72060000D03*
X193980000Y-74600000D03*
X196520000Y-74600000D03*
X193980000Y-77140000D03*
X196520000Y-77140000D03*
X193980000Y-79680000D03*
X196520000Y-79680000D03*
X193980000Y-82220000D03*
X196520000Y-82220000D03*
X193980000Y-84760000D03*
X196520000Y-84760000D03*
X193980000Y-87300000D03*
X196520000Y-87300000D03*
X193980000Y-89840000D03*
X196520000Y-89840000D03*
X193980000Y-92380000D03*
X196520000Y-92380000D03*
%TD*%
D18*
%TO.C,J22*%
X173000000Y-77500000D03*
D19*
X175500000Y-77500000D03*
%TD*%
D13*
%TO.C,H4*%
X166040000Y-64440000D03*
%TD*%
%TO.C,H3*%
X166040000Y-92380000D03*
%TD*%
D16*
%TO.C,J15*%
X142000000Y-68500000D03*
D17*
X144500000Y-68500000D03*
X147000000Y-68500000D03*
X149500000Y-68500000D03*
%TD*%
D16*
%TO.C,J21*%
X173000000Y-67000000D03*
D17*
X175500000Y-67000000D03*
X178000000Y-67000000D03*
%TD*%
D20*
%TO.C,D1*%
X172000000Y-92500000D03*
D21*
X174540000Y-92500000D03*
%TD*%
D16*
%TO.C,J14*%
X142000000Y-59000000D03*
D17*
X144500000Y-59000000D03*
X147000000Y-59000000D03*
X149500000Y-59000000D03*
%TD*%
D22*
%TO.C,C2*%
X173000000Y-85500000D03*
D11*
X175500000Y-85500000D03*
%TD*%
D16*
%TO.C,J11*%
X124000000Y-68500000D03*
D17*
X126500000Y-68500000D03*
X129000000Y-68500000D03*
X131500000Y-68500000D03*
%TD*%
D16*
%TO.C,J12*%
X124000000Y-78000000D03*
D17*
X126500000Y-78000000D03*
X129000000Y-78000000D03*
X131500000Y-78000000D03*
%TD*%
D11*
%TO.C,C3*%
X181000000Y-85500000D03*
X186000000Y-85500000D03*
%TD*%
D16*
%TO.C,J16*%
X142000000Y-78000000D03*
D17*
X144500000Y-78000000D03*
X147000000Y-78000000D03*
X149500000Y-78000000D03*
%TD*%
D16*
%TO.C,J10*%
X124000000Y-59000000D03*
D17*
X126500000Y-59000000D03*
X129000000Y-59000000D03*
X131500000Y-59000000D03*
%TD*%
D14*
%TO.C,J2*%
X145720000Y-49200000D03*
D15*
X148260000Y-49200000D03*
X150800000Y-49200000D03*
X153340000Y-49200000D03*
X155880000Y-49200000D03*
X158420000Y-49200000D03*
X160960000Y-49200000D03*
X163500000Y-49200000D03*
%TD*%
D11*
%TO.C,R1*%
X182000000Y-77500000D03*
D12*
X189620000Y-77500000D03*
%TD*%
D14*
%TO.C,J3*%
X168579999Y-49200000D03*
D15*
X171119999Y-49200000D03*
X173659999Y-49200000D03*
X176199999Y-49200000D03*
X178739999Y-49200000D03*
X181279999Y-49200000D03*
X183819999Y-49200000D03*
X186359999Y-49200000D03*
%TD*%
D16*
%TO.C,J17*%
X142000000Y-87500000D03*
D17*
X144500000Y-87500000D03*
X147000000Y-87500000D03*
X149500000Y-87500000D03*
%TD*%
%LPD*%
M02*
