%TF.GenerationSoftware,KiCad,Pcbnew,7.0.11+dfsg-1build4*%
%TF.CreationDate,2026-10-07T20:18:35+00:00*%
%TF.ProjectId,hat_capteurs,6861745f-6361-4707-9465-7572732e6b69,rev?*%
%TF.SameCoordinates,Original*%
%TF.FileFunction,Soldermask,Bot*%
%TF.FilePolarity,Negative*%
%FSLAX46Y46*%
G04 Gerber Fmt 4.6, Leading zero omitted, Abs format (unit mm)*
G04 Created by KiCad (PCBNEW 7.0.11+dfsg-1build4) date 2026-10-07 20:18:35*
%MOMM*%
%LPD*%
G01*
G04 APERTURE LIST*
G04 Aperture macros list*
%AMRoundRect*
0 Rectangle with rounded corners*
0 $1 Rounding radius*
0 $2 $3 $4 $5 $6 $7 $8 $9 X,Y pos of 4 corners*
0 Add a 4 corners polygon primitive as box body*
4,1,4,$2,$3,$4,$5,$6,$7,$8,$9,$2,$3,0*
0 Add four circle primitives for the rounded corners*
1,1,$1+$1,$2,$3*
1,1,$1+$1,$4,$5*
1,1,$1+$1,$6,$7*
1,1,$1+$1,$8,$9*
0 Add four rect primitives between the rounded corners*
20,1,$1+$1,$2,$3,$4,$5,0*
20,1,$1+$1,$4,$5,$6,$7,0*
20,1,$1+$1,$6,$7,$8,$9,0*
20,1,$1+$1,$8,$9,$2,$3,0*%
G04 Aperture macros list end*
%ADD10RoundRect,0.250000X-0.600000X-0.750000X0.600000X-0.750000X0.600000X0.750000X-0.600000X0.750000X0*%
%ADD11O,1.700000X2.000000*%
%ADD12C,2.700000*%
%ADD13RoundRect,0.250000X-0.725000X0.600000X-0.725000X-0.600000X0.725000X-0.600000X0.725000X0.600000X0*%
%ADD14O,1.950000X1.700000*%
%ADD15R,1.700000X1.700000*%
%ADD16O,1.700000X1.700000*%
G04 APERTURE END LIST*
D10*
%TO.C,J17*%
X126000000Y-144500000D03*
D11*
X128500000Y-144500000D03*
%TD*%
D10*
%TO.C,J11*%
X116000000Y-133500000D03*
D11*
X118500000Y-133500000D03*
%TD*%
D12*
%TO.C,H4*%
X161500000Y-152500000D03*
%TD*%
D10*
%TO.C,J14*%
X146000000Y-133500000D03*
D11*
X148500000Y-133500000D03*
%TD*%
D10*
%TO.C,J12*%
X126000000Y-133500000D03*
D11*
X128500000Y-133500000D03*
%TD*%
D10*
%TO.C,J19*%
X146000000Y-144500000D03*
D11*
X148500000Y-144500000D03*
%TD*%
D10*
%TO.C,J10*%
X106000000Y-133500000D03*
D11*
X108500000Y-133500000D03*
%TD*%
D13*
%TO.C,J2*%
X157000000Y-110500000D03*
D14*
X157000000Y-113000000D03*
X157000000Y-115500000D03*
X157000000Y-118000000D03*
%TD*%
D13*
%TO.C,J3*%
X157000000Y-124500000D03*
D14*
X157000000Y-127000000D03*
X157000000Y-129500000D03*
X157000000Y-132000000D03*
%TD*%
D13*
%TO.C,J4*%
X157000000Y-138500000D03*
D14*
X157000000Y-141000000D03*
X157000000Y-143500000D03*
X157000000Y-146000000D03*
%TD*%
D10*
%TO.C,J15*%
X106000000Y-144500000D03*
D11*
X108500000Y-144500000D03*
%TD*%
D12*
%TO.C,H2*%
X161500000Y-103500000D03*
%TD*%
%TO.C,H1*%
X103500000Y-103500000D03*
%TD*%
%TO.C,H3*%
X103500000Y-152500000D03*
%TD*%
D10*
%TO.C,J18*%
X136000000Y-144500000D03*
D11*
X138500000Y-144500000D03*
%TD*%
D10*
%TO.C,J13*%
X136000000Y-133500000D03*
D11*
X138500000Y-133500000D03*
%TD*%
D10*
%TO.C,J16*%
X116000000Y-144500000D03*
D11*
X118500000Y-144500000D03*
%TD*%
D15*
%TO.C,J1*%
X108370000Y-104770000D03*
D16*
X108370000Y-102230000D03*
X110910000Y-104770000D03*
X110910000Y-102230000D03*
X113450000Y-104770000D03*
X113450000Y-102230000D03*
X115990000Y-104770000D03*
X115990000Y-102230000D03*
X118530000Y-104770000D03*
X118530000Y-102230000D03*
X121070000Y-104770000D03*
X121070000Y-102230000D03*
X123610000Y-104770000D03*
X123610000Y-102230000D03*
X126150000Y-104770000D03*
X126150000Y-102230000D03*
X128690000Y-104770000D03*
X128690000Y-102230000D03*
X131230000Y-104770000D03*
X131230000Y-102230000D03*
X133770000Y-104770000D03*
X133770000Y-102230000D03*
X136310000Y-104770000D03*
X136310000Y-102230000D03*
X138850000Y-104770000D03*
X138850000Y-102230000D03*
X141390000Y-104770000D03*
X141390000Y-102230000D03*
X143930000Y-104770000D03*
X143930000Y-102230000D03*
X146470000Y-104770000D03*
X146470000Y-102230000D03*
X149010000Y-104770000D03*
X149010000Y-102230000D03*
X151550000Y-104770000D03*
X151550000Y-102230000D03*
X154090000Y-104770000D03*
X154090000Y-102230000D03*
X156630000Y-104770000D03*
X156630000Y-102230000D03*
%TD*%
M02*
