M48
; DRILL file {KiCad 7.0.11+dfsg-1build4} date Wed Oct  7 20:18:35 2026
; FORMAT={-:-/ absolute / metric / decimal}
; #@! TF.CreationDate,2026-10-07T20:18:35+00:00
; #@! TF.GenerationSoftware,Kicad,Pcbnew,7.0.11+dfsg-1build4
; #@! TF.FileFunction,Plated,1,2,PTH
FMAT,2
METRIC
; #@! TA.AperFunction,Plated,PTH,ViaDrill
T1C0.350
; #@! TA.AperFunction,Plated,PTH,ViaDrill
T2C0.400
; #@! TA.AperFunction,Plated,PTH,ComponentDrill
T3C0.950
; #@! TA.AperFunction,Plated,PTH,ComponentDrill
T4C1.000
%
G90
G05
T1
X102.0Y-128.0
X102.0Y-133.0
X102.0Y-138.0
X102.0Y-143.0
X102.0Y-148.0
X105.0Y-108.0
X105.0Y-113.0
X105.0Y-123.0
X105.047Y-118.082
X107.0Y-153.0
X112.0Y-114.699
X112.0Y-133.0
X112.0Y-138.0
X112.0Y-143.0
X112.0Y-148.0
X112.0Y-153.0
X115.0Y-108.0
X115.0Y-123.0
X117.0Y-153.0
X117.036Y-115.103
X118.675Y-113.2
X119.758Y-117.129
X119.857Y-118.227
X120.0Y-108.0
X122.0Y-133.0
X122.0Y-138.0
X122.0Y-143.0
X122.0Y-148.0
X122.0Y-153.0
X125.0Y-108.0
X125.637Y-121.388
X127.0Y-153.0
X127.926Y-117.488
X128.075Y-127.6
X129.375Y-139.9
X130.0Y-108.0
X132.0Y-133.0
X132.0Y-138.0
X132.0Y-143.0
X132.0Y-148.0
X132.0Y-153.0
X132.248Y-116.1
X132.375Y-111.9
X135.0Y-108.0
X135.0Y-113.0
X135.0Y-118.0
X135.932Y-124.694
X137.0Y-153.0
X139.375Y-139.9
X140.0Y-108.0
X140.0Y-123.0
X141.568Y-116.59
X142.0Y-128.0
X142.0Y-133.0
X142.0Y-138.0
X142.0Y-143.0
X142.0Y-148.0
X142.0Y-153.0
X142.795Y-121.388
X143.237Y-114.438
X145.0Y-108.0
X147.0Y-153.0
X147.375Y-111.9
X149.375Y-139.9
X150.0Y-108.0
X150.0Y-113.0
X150.0Y-118.0
X150.0Y-123.0
X152.0Y-128.0
X152.0Y-133.0
X152.0Y-138.0
X152.0Y-143.0
X152.0Y-148.0
X152.0Y-153.0
X157.0Y-153.0
X162.0Y-138.0
X162.0Y-148.0
T2
X108.3Y-117.0
X123.3Y-117.0
X138.3Y-117.0
T3
X157.0Y-110.5
X157.0Y-113.0
X157.0Y-115.5
X157.0Y-118.0
X157.0Y-124.5
X157.0Y-127.0
X157.0Y-129.5
X157.0Y-132.0
X157.0Y-138.5
X157.0Y-141.0
X157.0Y-143.5
X157.0Y-146.0
T4
X106.0Y-133.5
X106.0Y-144.5
X108.37Y-102.23
X108.37Y-104.77
X108.5Y-133.5
X108.5Y-144.5
X110.91Y-102.23
X110.91Y-104.77
X113.45Y-102.23
X113.45Y-104.77
X115.99Y-102.23
X115.99Y-104.77
X116.0Y-133.5
X116.0Y-144.5
X118.5Y-133.5
X118.5Y-144.5
X118.53Y-102.23
X118.53Y-104.77
X121.07Y-102.23
X121.07Y-104.77
X123.61Y-102.23
X123.61Y-104.77
X126.0Y-133.5
X126.0Y-144.5
X126.15Y-102.23
X126.15Y-104.77
X128.5Y-133.5
X128.5Y-144.5
X128.69Y-102.23
X128.69Y-104.77
X131.23Y-102.23
X131.23Y-104.77
X133.77Y-102.23
X133.77Y-104.77
X136.0Y-133.5
X136.0Y-144.5
X136.31Y-102.23
X136.31Y-104.77
X138.5Y-133.5
X138.5Y-144.5
X138.85Y-102.23
X138.85Y-104.77
X141.39Y-102.23
X141.39Y-104.77
X143.93Y-102.23
X143.93Y-104.77
X146.0Y-133.5
X146.0Y-144.5
X146.47Y-102.23
X146.47Y-104.77
X148.5Y-133.5
X148.5Y-144.5
X149.01Y-102.23
X149.01Y-104.77
X151.55Y-102.23
X151.55Y-104.77
X154.09Y-102.23
X154.09Y-104.77
X156.63Y-102.23
X156.63Y-104.77
M30
