%TF.GenerationSoftware,KiCad,Pcbnew,7.0.11+dfsg-1build4*%
%TF.CreationDate,2026-10-07T20:18:35+00:00*%
%TF.ProjectId,hat_capteurs,6861745f-6361-4707-9465-7572732e6b69,rev?*%
%TF.SameCoordinates,Original*%
%TF.FileFunction,Copper,L2,Bot*%
%TF.FilePolarity,Positive*%
%FSLAX46Y46*%
G04 Gerber Fmt 4.6, Leading zero omitted, Abs format (unit mm)*
G04 Created by KiCad (PCBNEW 7.0.11+dfsg-1build4) date 2026-10-07 20:18:35*
%MOMM*%
%LPD*%
G01*
G04 APERTURE LIST*
G04 Aperture macros list*
%AMRoundRect*
0 Rectangle with rounded corners*
0 $1 Rounding radius*
0 $2 $3 $4 $5 $6 $7 $8 $9 X,Y pos of 4 corners*
0 Add a 4 corners polygon primitive as box body*
4,1,4,$2,$3,$4,$5,$6,$7,$8,$9,$2,$3,0*
0 Add four circle primitives for the rounded corners*
1,1,$1+$1,$2,$3*
1,1,$1+$1,$4,$5*
1,1,$1+$1,$6,$7*
1,1,$1+$1,$8,$9*
0 Add four rect primitives between the rounded corners*
20,1,$1+$1,$2,$3,$4,$5,0*
20,1,$1+$1,$4,$5,$6,$7,0*
20,1,$1+$1,$6,$7,$8,$9,0*
20,1,$1+$1,$8,$9,$2,$3,0*%
G04 Aperture macros list end*
%TA.AperFunction,ComponentPad*%
%ADD10RoundRect,0.250000X-0.600000X-0.750000X0.600000X-0.750000X0.600000X0.750000X-0.600000X0.750000X0*%
%TD*%
%TA.AperFunction,ComponentPad*%
%ADD11O,1.700000X2.000000*%
%TD*%
%TA.AperFunction,ComponentPad*%
%ADD12RoundRect,0.250000X-0.725000X0.600000X-0.725000X-0.600000X0.725000X-0.600000X0.725000X0.600000X0*%
%TD*%
%TA.AperFunction,ComponentPad*%
%ADD13O,1.950000X1.700000*%
%TD*%
%TA.AperFunction,ComponentPad*%
%ADD14R,1.700000X1.700000*%
%TD*%
%TA.AperFunction,ComponentPad*%
%ADD15O,1.700000X1.700000*%
%TD*%
%TA.AperFunction,ViaPad*%
%ADD16C,0.700000*%
%TD*%
%TA.AperFunction,ViaPad*%
%ADD17C,0.800000*%
%TD*%
%TA.AperFunction,Conductor*%
%ADD18C,0.300000*%
%TD*%
%TA.AperFunction,Conductor*%
%ADD19C,0.180000*%
%TD*%
%TA.AperFunction,Conductor*%
%ADD20C,0.225000*%
%TD*%
G04 APERTURE END LIST*
D10*
%TO.P,J17,1*%
%TO.N,+3V3*%
X126000000Y-144500000D03*
D11*
%TO.P,J17,2*%
%TO.N,U2_A3*%
X128500000Y-144500000D03*
%TD*%
D10*
%TO.P,J11,1*%
%TO.N,+3V3*%
X116000000Y-133500000D03*
D11*
%TO.P,J11,2*%
%TO.N,U1_A1*%
X118500000Y-133500000D03*
%TD*%
D10*
%TO.P,J14,1*%
%TO.N,+3V3*%
X146000000Y-133500000D03*
D11*
%TO.P,J14,2*%
%TO.N,U2_A0*%
X148500000Y-133500000D03*
%TD*%
D10*
%TO.P,J12,1*%
%TO.N,+3V3*%
X126000000Y-133500000D03*
D11*
%TO.P,J12,2*%
%TO.N,U1_A2*%
X128500000Y-133500000D03*
%TD*%
D10*
%TO.P,J19,1*%
%TO.N,+3V3*%
X146000000Y-144500000D03*
D11*
%TO.P,J19,2*%
%TO.N,U3_A1*%
X148500000Y-144500000D03*
%TD*%
D10*
%TO.P,J10,1*%
%TO.N,+3V3*%
X106000000Y-133500000D03*
D11*
%TO.P,J10,2*%
%TO.N,U1_A0*%
X108500000Y-133500000D03*
%TD*%
D12*
%TO.P,J2,1*%
%TO.N,GND*%
X157000000Y-110500000D03*
D13*
%TO.P,J2,2*%
%TO.N,+3V3*%
X157000000Y-113000000D03*
%TO.P,J2,3*%
%TO.N,SDA*%
X157000000Y-115500000D03*
%TO.P,J2,4*%
%TO.N,SCL*%
X157000000Y-118000000D03*
%TD*%
D12*
%TO.P,J3,1*%
%TO.N,GND*%
X157000000Y-124500000D03*
D13*
%TO.P,J3,2*%
%TO.N,+3V3*%
X157000000Y-127000000D03*
%TO.P,J3,3*%
%TO.N,SDA*%
X157000000Y-129500000D03*
%TO.P,J3,4*%
%TO.N,SCL*%
X157000000Y-132000000D03*
%TD*%
D12*
%TO.P,J4,1*%
%TO.N,GND*%
X157000000Y-138500000D03*
D13*
%TO.P,J4,2*%
%TO.N,+3V3*%
X157000000Y-141000000D03*
%TO.P,J4,3*%
%TO.N,SDA*%
X157000000Y-143500000D03*
%TO.P,J4,4*%
%TO.N,SCL*%
X157000000Y-146000000D03*
%TD*%
D10*
%TO.P,J15,1*%
%TO.N,+3V3*%
X106000000Y-144500000D03*
D11*
%TO.P,J15,2*%
%TO.N,U2_A1*%
X108500000Y-144500000D03*
%TD*%
D10*
%TO.P,J18,1*%
%TO.N,+3V3*%
X136000000Y-144500000D03*
D11*
%TO.P,J18,2*%
%TO.N,U3_A0*%
X138500000Y-144500000D03*
%TD*%
D10*
%TO.P,J13,1*%
%TO.N,+3V3*%
X136000000Y-133500000D03*
D11*
%TO.P,J13,2*%
%TO.N,U1_A3*%
X138500000Y-133500000D03*
%TD*%
D10*
%TO.P,J16,1*%
%TO.N,+3V3*%
X116000000Y-144500000D03*
D11*
%TO.P,J16,2*%
%TO.N,U2_A2*%
X118500000Y-144500000D03*
%TD*%
D14*
%TO.P,J1,1*%
%TO.N,+3V3*%
X108370000Y-104770000D03*
D15*
%TO.P,J1,2*%
%TO.N,N/C*%
X108370000Y-102230000D03*
%TO.P,J1,3*%
%TO.N,SDA*%
X110910000Y-104770000D03*
%TO.P,J1,4*%
%TO.N,N/C*%
X110910000Y-102230000D03*
%TO.P,J1,5*%
%TO.N,SCL*%
X113450000Y-104770000D03*
%TO.P,J1,6*%
%TO.N,GND*%
X113450000Y-102230000D03*
%TO.P,J1,7*%
%TO.N,N/C*%
X115990000Y-104770000D03*
%TO.P,J1,8*%
X115990000Y-102230000D03*
%TO.P,J1,9*%
%TO.N,GND*%
X118530000Y-104770000D03*
%TO.P,J1,10*%
%TO.N,N/C*%
X118530000Y-102230000D03*
%TO.P,J1,11*%
X121070000Y-104770000D03*
%TO.P,J1,12*%
X121070000Y-102230000D03*
%TO.P,J1,13*%
X123610000Y-104770000D03*
%TO.P,J1,14*%
%TO.N,GND*%
X123610000Y-102230000D03*
%TO.P,J1,15*%
%TO.N,N/C*%
X126150000Y-104770000D03*
%TO.P,J1,16*%
X126150000Y-102230000D03*
%TO.P,J1,17*%
%TO.N,+3V3*%
X128690000Y-104770000D03*
%TO.P,J1,18*%
%TO.N,N/C*%
X128690000Y-102230000D03*
%TO.P,J1,19*%
X131230000Y-104770000D03*
%TO.P,J1,20*%
%TO.N,GND*%
X131230000Y-102230000D03*
%TO.P,J1,21*%
%TO.N,N/C*%
X133770000Y-104770000D03*
%TO.P,J1,22*%
X133770000Y-102230000D03*
%TO.P,J1,23*%
X136310000Y-104770000D03*
%TO.P,J1,24*%
X136310000Y-102230000D03*
%TO.P,J1,25*%
%TO.N,GND*%
X138850000Y-104770000D03*
%TO.P,J1,26*%
%TO.N,N/C*%
X138850000Y-102230000D03*
%TO.P,J1,27*%
X141390000Y-104770000D03*
%TO.P,J1,28*%
X141390000Y-102230000D03*
%TO.P,J1,29*%
X143930000Y-104770000D03*
%TO.P,J1,30*%
%TO.N,GND*%
X143930000Y-102230000D03*
%TO.P,J1,31*%
%TO.N,N/C*%
X146470000Y-104770000D03*
%TO.P,J1,32*%
X146470000Y-102230000D03*
%TO.P,J1,33*%
X149010000Y-104770000D03*
%TO.P,J1,34*%
%TO.N,GND*%
X149010000Y-102230000D03*
%TO.P,J1,35*%
%TO.N,N/C*%
X151550000Y-104770000D03*
%TO.P,J1,36*%
X151550000Y-102230000D03*
%TO.P,J1,37*%
X154090000Y-104770000D03*
%TO.P,J1,38*%
X154090000Y-102230000D03*
%TO.P,J1,39*%
%TO.N,GND*%
X156630000Y-104770000D03*
%TO.P,J1,40*%
%TO.N,N/C*%
X156630000Y-102230000D03*
%TD*%
D16*
%TO.N,+3V3*%
X143237100Y-114438100D03*
X141568200Y-116589600D03*
%TO.N,SDA*%
X112000000Y-114699100D03*
X132248400Y-116100500D03*
%TO.N,SCL*%
X117036500Y-115102600D03*
%TO.N,GND*%
X102000000Y-138000000D03*
X140000000Y-108000000D03*
X105000000Y-108000000D03*
X147375000Y-111900000D03*
X102000000Y-133000000D03*
D17*
X123300000Y-117000000D03*
D16*
X152000000Y-143000000D03*
X115000000Y-123000000D03*
X150000000Y-123000000D03*
X139375000Y-139900000D03*
X132000000Y-153000000D03*
X147000000Y-153000000D03*
X142000000Y-148000000D03*
X150000000Y-118000000D03*
X105000000Y-123000000D03*
X112000000Y-133000000D03*
D17*
X108300000Y-117000000D03*
D16*
X152000000Y-138000000D03*
X152000000Y-128000000D03*
X152000000Y-148000000D03*
X142000000Y-133000000D03*
X150000000Y-113000000D03*
X132000000Y-133000000D03*
X122000000Y-148000000D03*
X140000000Y-123000000D03*
X142000000Y-128000000D03*
X135000000Y-118000000D03*
X130000000Y-108000000D03*
X102000000Y-128000000D03*
X117000000Y-153000000D03*
X132375000Y-111900000D03*
D17*
X138300000Y-117000000D03*
D16*
X112000000Y-148000000D03*
X120000000Y-108000000D03*
X102000000Y-143000000D03*
X149375000Y-139900000D03*
X152000000Y-153000000D03*
X112000000Y-153000000D03*
X132000000Y-143000000D03*
X112000000Y-138000000D03*
X132000000Y-148000000D03*
X102000000Y-148000000D03*
X135000000Y-113000000D03*
X122000000Y-138000000D03*
X118675000Y-113200000D03*
X145000000Y-108000000D03*
X137000000Y-153000000D03*
X142000000Y-153000000D03*
X115000000Y-108000000D03*
X122000000Y-133000000D03*
X135000000Y-108000000D03*
X162000000Y-148000000D03*
X150000000Y-108000000D03*
X157000000Y-153000000D03*
X122000000Y-143000000D03*
X152000000Y-133000000D03*
X132000000Y-138000000D03*
X127000000Y-153000000D03*
X112000000Y-143000000D03*
X122000000Y-153000000D03*
X162000000Y-138000000D03*
X125000000Y-108000000D03*
X142000000Y-143000000D03*
X129375000Y-139900000D03*
X128074999Y-127600000D03*
X107000000Y-153000000D03*
X105000000Y-113000000D03*
X142000000Y-138000000D03*
%TO.N,U1_A0*%
X105047400Y-118082100D03*
%TO.N,U1_A3*%
X119757900Y-117129400D03*
%TO.N,U2_A0*%
X127926400Y-117487600D03*
%TO.N,U2_A1*%
X119856800Y-118227100D03*
%TO.N,U2_A2*%
X125637000Y-121388000D03*
%TO.N,U3_A0*%
X135931800Y-124693900D03*
%TO.N,U3_A1*%
X142795000Y-121388000D03*
%TD*%
D18*
%TO.N,+3V3*%
X157000000Y-113000000D02*
X157000000Y-114201900D01*
X106000000Y-144500000D02*
X106000000Y-133500000D01*
X157000000Y-139798100D02*
X156098600Y-139798100D01*
X157000000Y-141000000D02*
X157000000Y-139798100D01*
X156454800Y-128201900D02*
X155673600Y-127420700D01*
X157000000Y-127000000D02*
X157000000Y-128201900D01*
X156454800Y-128201900D02*
X157000000Y-128201900D01*
D19*
X155673600Y-115078900D02*
X155673600Y-114828600D01*
D18*
X116000000Y-144500000D02*
X116000000Y-133500000D01*
X156098600Y-139798100D02*
X155617400Y-139316900D01*
X141568200Y-116107000D02*
X141568200Y-116589600D01*
X156300300Y-114201900D02*
X157000000Y-114201900D01*
X155673600Y-127420700D02*
X155673600Y-126393800D01*
X146000000Y-144500000D02*
X146000000Y-133500000D01*
X143237100Y-114438100D02*
X141568200Y-116107000D01*
D20*
X155673600Y-126393800D02*
X155673600Y-115078900D01*
D18*
X126000000Y-133500000D02*
X126000000Y-144500000D01*
X155673600Y-114828600D02*
X156300300Y-114201900D01*
X155617400Y-129039300D02*
X156454800Y-128201900D01*
X136000000Y-133500000D02*
X136000000Y-144500000D01*
X155617400Y-139316900D02*
X155617400Y-129039300D01*
%TO.N,SDA*%
X131749400Y-116599500D02*
X132248400Y-116100500D01*
X157000000Y-115500000D02*
X157000000Y-116701900D01*
X158354000Y-128146000D02*
X158354000Y-117510700D01*
X110910000Y-104770000D02*
X110910000Y-113609100D01*
X157000000Y-129500000D02*
X158354000Y-128146000D01*
X158393000Y-131549700D02*
X157545200Y-130701900D01*
X158354000Y-117510700D02*
X157545200Y-116701900D01*
X110910000Y-113609100D02*
X112000000Y-114699100D01*
X125337500Y-115941400D02*
X125995600Y-116599500D01*
X112000000Y-114699100D02*
X113242300Y-115941400D01*
X157545200Y-130701900D02*
X157000000Y-130701900D01*
X157000000Y-129500000D02*
X157000000Y-130701900D01*
X113242300Y-115941400D02*
X125337500Y-115941400D01*
X157000000Y-142298100D02*
X157600900Y-142298100D01*
X158393000Y-141506000D02*
X158393000Y-131549700D01*
X157545200Y-116701900D02*
X157000000Y-116701900D01*
X157600900Y-142298100D02*
X158393000Y-141506000D01*
X125995600Y-116599500D02*
X131749400Y-116599500D01*
X157000000Y-143500000D02*
X157000000Y-142298100D01*
%TO.N,SCL*%
X113450000Y-111516100D02*
X117036500Y-115102600D01*
X113450000Y-104770000D02*
X113450000Y-111516100D01*
%TO.N,U1_A0*%
X108500000Y-121534700D02*
X108500000Y-133500000D01*
X105047400Y-118082100D02*
X108500000Y-121534700D01*
%TO.N,U1_A3*%
X123427600Y-118188000D02*
X123664100Y-118188000D01*
X119757900Y-117129400D02*
X119936200Y-117129400D01*
D20*
X122990000Y-117750400D02*
X123427600Y-118188000D01*
D18*
X128987100Y-123511000D02*
X135750200Y-123511000D01*
D20*
X120557200Y-117750400D02*
X122990000Y-117750400D01*
D18*
X123664100Y-118188000D02*
X128987100Y-123511000D01*
X135750200Y-123511000D02*
X138500000Y-126260800D01*
X138500000Y-126260800D02*
X138500000Y-133500000D01*
X119936200Y-117129400D02*
X120557200Y-117750400D01*
%TO.N,U2_A0*%
X130799700Y-120360900D02*
X142854400Y-120360900D01*
X142854400Y-120360900D02*
X148500000Y-126006500D01*
X127926400Y-117487600D02*
X130799700Y-120360900D01*
X148500000Y-126006500D02*
X148500000Y-133500000D01*
%TO.N,U2_A1*%
X119856800Y-118227100D02*
X119856800Y-127067300D01*
X119856800Y-127067300D02*
X108500000Y-138424100D01*
X108500000Y-138424100D02*
X108500000Y-144500000D01*
%TO.N,U2_A2*%
X125637000Y-121388000D02*
X125637000Y-131287100D01*
X118500000Y-138424100D02*
X118500000Y-144500000D01*
X125637000Y-131287100D02*
X118500000Y-138424100D01*
%TO.N,U3_A0*%
X135931800Y-124693900D02*
X137298100Y-126060200D01*
X138500000Y-144500000D02*
X137298100Y-144500000D01*
X137298100Y-126060200D02*
X137298100Y-144500000D01*
%TO.N,U3_A1*%
X148500000Y-144500000D02*
X147298100Y-144500000D01*
X142795000Y-121388000D02*
X147298100Y-125891100D01*
X147298100Y-125891100D02*
X147298100Y-144500000D01*
%TD*%
%TA.AperFunction,Conductor*%
%TO.N,GND*%
G36*
X157877468Y-132964295D02*
G01*
X157927081Y-133013492D01*
X157942500Y-133073377D01*
X157942500Y-137127808D01*
X157922815Y-137194847D01*
X157870011Y-137240602D01*
X157808776Y-137251426D01*
X157790660Y-137250001D01*
X157790634Y-137250000D01*
X157300000Y-137250000D01*
X157300000Y-138131435D01*
X157259445Y-138096295D01*
X157135199Y-138039554D01*
X157033975Y-138025000D01*
X156966025Y-138025000D01*
X156864801Y-138039554D01*
X156740555Y-138096295D01*
X156700000Y-138131435D01*
X156700000Y-137250000D01*
X156209340Y-137250000D01*
X156201624Y-137250608D01*
X156133248Y-137236242D01*
X156083493Y-137187188D01*
X156067900Y-137126990D01*
X156067900Y-133081230D01*
X156087585Y-133014191D01*
X156140389Y-132968436D01*
X156209547Y-132958492D01*
X156261400Y-132980102D01*
X156261868Y-132979347D01*
X156266563Y-132982254D01*
X156266637Y-132982285D01*
X156266745Y-132982366D01*
X156266748Y-132982367D01*
X156266749Y-132982368D01*
X156457606Y-133077403D01*
X156457608Y-133077403D01*
X156457611Y-133077405D01*
X156662690Y-133135756D01*
X156821806Y-133150500D01*
X156821810Y-133150500D01*
X157178190Y-133150500D01*
X157178194Y-133150500D01*
X157337310Y-133135756D01*
X157542389Y-133077405D01*
X157542393Y-133077403D01*
X157542394Y-133077403D01*
X157695754Y-133001039D01*
X157733255Y-132982366D01*
X157743772Y-132974424D01*
X157809133Y-132949731D01*
X157877468Y-132964295D01*
G37*
%TD.AperFunction*%
%TA.AperFunction,Conductor*%
G36*
X156265871Y-118981931D02*
G01*
X156457606Y-119077403D01*
X156457608Y-119077403D01*
X156457611Y-119077405D01*
X156662690Y-119135756D01*
X156821806Y-119150500D01*
X156821810Y-119150500D01*
X157178190Y-119150500D01*
X157178194Y-119150500D01*
X157337310Y-119135756D01*
X157542389Y-119077405D01*
X157724230Y-118986859D01*
X157793014Y-118974599D01*
X157857509Y-119001472D01*
X157897236Y-119058948D01*
X157903500Y-119097860D01*
X157903500Y-123126000D01*
X157883815Y-123193039D01*
X157831011Y-123238794D01*
X157779500Y-123250000D01*
X157300000Y-123250000D01*
X157300000Y-124131435D01*
X157259445Y-124096295D01*
X157135199Y-124039554D01*
X157033975Y-124025000D01*
X156966025Y-124025000D01*
X156864801Y-124039554D01*
X156740555Y-124096295D01*
X156700000Y-124131435D01*
X156700000Y-123250000D01*
X156210600Y-123250000D01*
X156143561Y-123230315D01*
X156097806Y-123177511D01*
X156086600Y-123126000D01*
X156086600Y-119092931D01*
X156106285Y-119025892D01*
X156159089Y-118980137D01*
X156228247Y-118970193D01*
X156265871Y-118981931D01*
G37*
%TD.AperFunction*%
%TA.AperFunction,Conductor*%
G36*
X122834607Y-118183085D02*
G01*
X122855249Y-118199719D01*
X122990025Y-118334495D01*
X123017772Y-118376872D01*
X123033048Y-118415794D01*
X123113463Y-118516630D01*
X123117722Y-118521971D01*
X123117723Y-118521972D01*
X123229924Y-118598470D01*
X123229927Y-118598472D01*
X123359698Y-118638500D01*
X123426134Y-118638500D01*
X123493173Y-118658185D01*
X123513815Y-118674819D01*
X125422972Y-120583976D01*
X125456457Y-120645299D01*
X125451473Y-120714991D01*
X125409601Y-120770924D01*
X125392918Y-120781453D01*
X125264761Y-120848716D01*
X125264760Y-120848717D01*
X125146995Y-120953047D01*
X125146516Y-120953471D01*
X125056781Y-121083475D01*
X125056780Y-121083476D01*
X125000762Y-121231181D01*
X124981722Y-121387999D01*
X124981722Y-121388000D01*
X125000762Y-121544818D01*
X125056780Y-121692523D01*
X125056781Y-121692524D01*
X125146518Y-121822532D01*
X125151491Y-121828145D01*
X125150044Y-121829426D01*
X125181850Y-121880120D01*
X125186500Y-121913759D01*
X125186500Y-131049134D01*
X125166815Y-131116173D01*
X125150181Y-131136815D01*
X118204263Y-138082732D01*
X118193898Y-138091995D01*
X118166033Y-138114217D01*
X118166030Y-138114221D01*
X118133823Y-138161457D01*
X118131144Y-138165232D01*
X118097206Y-138211218D01*
X118093216Y-138218767D01*
X118089528Y-138226425D01*
X118072673Y-138281067D01*
X118071225Y-138285468D01*
X118052353Y-138339404D01*
X118050771Y-138347759D01*
X118049500Y-138356200D01*
X118049500Y-138413360D01*
X118049413Y-138417997D01*
X118047275Y-138475109D01*
X118048316Y-138484343D01*
X118047485Y-138484436D01*
X118049500Y-138499735D01*
X118049500Y-143206797D01*
X118029815Y-143273836D01*
X117988654Y-143310744D01*
X117989855Y-143312684D01*
X117803699Y-143427947D01*
X117646127Y-143571593D01*
X117517632Y-143741746D01*
X117422596Y-143932605D01*
X117422596Y-143932607D01*
X117393766Y-144033933D01*
X117356486Y-144093026D01*
X117293177Y-144122583D01*
X117223937Y-144113221D01*
X117170751Y-144067911D01*
X117150504Y-144001039D01*
X117150500Y-143999998D01*
X117150500Y-143706903D01*
X117150500Y-143706898D01*
X117139877Y-143618436D01*
X117084361Y-143477658D01*
X117084360Y-143477657D01*
X117084360Y-143477656D01*
X116992922Y-143357077D01*
X116872343Y-143265639D01*
X116731561Y-143210122D01*
X116685926Y-143204642D01*
X116643102Y-143199500D01*
X116643097Y-143199500D01*
X116574500Y-143199500D01*
X116507461Y-143179815D01*
X116461706Y-143127011D01*
X116450500Y-143075500D01*
X116450500Y-134924500D01*
X116470185Y-134857461D01*
X116522989Y-134811706D01*
X116574500Y-134800500D01*
X116643097Y-134800500D01*
X116643102Y-134800500D01*
X116731564Y-134789877D01*
X116872342Y-134734361D01*
X116992922Y-134642922D01*
X117084361Y-134522342D01*
X117139877Y-134381564D01*
X117150500Y-134293102D01*
X117150500Y-134000001D01*
X117170185Y-133932962D01*
X117222989Y-133887207D01*
X117292147Y-133877263D01*
X117355703Y-133906288D01*
X117393477Y-133965066D01*
X117393766Y-133966066D01*
X117422596Y-134067392D01*
X117422596Y-134067394D01*
X117517632Y-134258253D01*
X117517634Y-134258255D01*
X117646128Y-134428407D01*
X117803698Y-134572052D01*
X117984981Y-134684298D01*
X118183802Y-134761321D01*
X118393390Y-134800500D01*
X118393392Y-134800500D01*
X118606608Y-134800500D01*
X118606610Y-134800500D01*
X118816198Y-134761321D01*
X119015019Y-134684298D01*
X119196302Y-134572052D01*
X119353872Y-134428407D01*
X119482366Y-134258255D01*
X119577405Y-134067389D01*
X119635756Y-133862310D01*
X119650500Y-133703194D01*
X119650500Y-133296806D01*
X119635756Y-133137690D01*
X119577405Y-132932611D01*
X119577403Y-132932606D01*
X119577403Y-132932605D01*
X119482367Y-132741746D01*
X119353872Y-132571593D01*
X119251399Y-132478176D01*
X119196302Y-132427948D01*
X119015019Y-132315702D01*
X119015017Y-132315701D01*
X118860602Y-132255881D01*
X118816198Y-132238679D01*
X118606610Y-132199500D01*
X118393390Y-132199500D01*
X118183802Y-132238679D01*
X118183799Y-132238679D01*
X118183799Y-132238680D01*
X117984982Y-132315701D01*
X117984980Y-132315702D01*
X117803699Y-132427947D01*
X117646127Y-132571593D01*
X117517632Y-132741746D01*
X117422596Y-132932605D01*
X117422596Y-132932607D01*
X117393766Y-133033933D01*
X117356486Y-133093026D01*
X117293177Y-133122583D01*
X117223937Y-133113221D01*
X117170751Y-133067911D01*
X117150504Y-133001039D01*
X117150500Y-132999998D01*
X117150500Y-132706903D01*
X117150500Y-132706898D01*
X117139877Y-132618436D01*
X117084361Y-132477658D01*
X117084360Y-132477657D01*
X117084360Y-132477656D01*
X116992922Y-132357077D01*
X116872343Y-132265639D01*
X116731561Y-132210122D01*
X116685926Y-132204642D01*
X116643102Y-132199500D01*
X116643097Y-132199500D01*
X115661065Y-132199500D01*
X115594026Y-132179815D01*
X115548271Y-132127011D01*
X115538327Y-132057853D01*
X115567352Y-131994297D01*
X115573384Y-131987819D01*
X116700994Y-130860209D01*
X120152544Y-127408657D01*
X120162893Y-127399409D01*
X120190770Y-127377179D01*
X120222998Y-127329907D01*
X120225612Y-127326223D01*
X120259593Y-127280182D01*
X120259593Y-127280179D01*
X120259595Y-127280178D01*
X120263587Y-127272624D01*
X120267271Y-127264975D01*
X120284124Y-127210335D01*
X120285562Y-127205962D01*
X120304446Y-127151999D01*
X120304446Y-127151996D01*
X120306028Y-127143636D01*
X120307300Y-127135199D01*
X120307300Y-127078054D01*
X120307387Y-127073416D01*
X120309525Y-127016290D01*
X120308485Y-127007058D01*
X120309313Y-127006964D01*
X120307300Y-126991661D01*
X120307300Y-118752859D01*
X120326985Y-118685820D01*
X120342646Y-118667544D01*
X120342309Y-118667245D01*
X120347281Y-118661632D01*
X120347281Y-118661631D01*
X120347283Y-118661630D01*
X120437020Y-118531623D01*
X120493037Y-118383918D01*
X120501881Y-118311072D01*
X120529502Y-118246897D01*
X120587436Y-118207839D01*
X120602930Y-118204539D01*
X120608207Y-118203124D01*
X120608210Y-118203125D01*
X120739387Y-118167976D01*
X120739387Y-118167975D01*
X120740696Y-118167625D01*
X120772790Y-118163400D01*
X122767568Y-118163400D01*
X122834607Y-118183085D01*
G37*
%TD.AperFunction*%
%TA.AperFunction,Conductor*%
G36*
X162003472Y-100300695D02*
G01*
X162295306Y-100317084D01*
X162309103Y-100318638D01*
X162593827Y-100367015D01*
X162607384Y-100370109D01*
X162884899Y-100450060D01*
X162898025Y-100454653D01*
X163164841Y-100565172D01*
X163177355Y-100571198D01*
X163343444Y-100662992D01*
X163430125Y-100710899D01*
X163441899Y-100718297D01*
X163677430Y-100885415D01*
X163688302Y-100894085D01*
X163903642Y-101086524D01*
X163913475Y-101096357D01*
X164105914Y-101311697D01*
X164114584Y-101322569D01*
X164281702Y-101558100D01*
X164289100Y-101569874D01*
X164428797Y-101822637D01*
X164434830Y-101835165D01*
X164545346Y-102101975D01*
X164549939Y-102115100D01*
X164629890Y-102392615D01*
X164632984Y-102406172D01*
X164681359Y-102690885D01*
X164682916Y-102704703D01*
X164699305Y-102996527D01*
X164699500Y-103003480D01*
X164699500Y-152996519D01*
X164699305Y-153003472D01*
X164682916Y-153295296D01*
X164681359Y-153309114D01*
X164632984Y-153593827D01*
X164629890Y-153607384D01*
X164549939Y-153884899D01*
X164545346Y-153898024D01*
X164434830Y-154164834D01*
X164428797Y-154177362D01*
X164289100Y-154430125D01*
X164281702Y-154441899D01*
X164114584Y-154677430D01*
X164105914Y-154688302D01*
X163913475Y-154903642D01*
X163903642Y-154913475D01*
X163688302Y-155105914D01*
X163677430Y-155114584D01*
X163441899Y-155281702D01*
X163430125Y-155289100D01*
X163177362Y-155428797D01*
X163164834Y-155434830D01*
X162898024Y-155545346D01*
X162884899Y-155549939D01*
X162607384Y-155629890D01*
X162593827Y-155632984D01*
X162309114Y-155681359D01*
X162295296Y-155682916D01*
X162003472Y-155699305D01*
X161996519Y-155699500D01*
X103003481Y-155699500D01*
X102996528Y-155699305D01*
X102704703Y-155682916D01*
X102690885Y-155681359D01*
X102406172Y-155632984D01*
X102392615Y-155629890D01*
X102115100Y-155549939D01*
X102101975Y-155545346D01*
X101835165Y-155434830D01*
X101822637Y-155428797D01*
X101569874Y-155289100D01*
X101558100Y-155281702D01*
X101322569Y-155114584D01*
X101311697Y-155105914D01*
X101096357Y-154913475D01*
X101086524Y-154903642D01*
X100894085Y-154688302D01*
X100885415Y-154677430D01*
X100718297Y-154441899D01*
X100710899Y-154430125D01*
X100571202Y-154177362D01*
X100565172Y-154164841D01*
X100454653Y-153898024D01*
X100450060Y-153884899D01*
X100370109Y-153607384D01*
X100367015Y-153593827D01*
X100353965Y-153517020D01*
X100318638Y-153309103D01*
X100317084Y-153295306D01*
X100300695Y-153003472D01*
X100300500Y-152996519D01*
X100300500Y-152500000D01*
X101894551Y-152500000D01*
X101914317Y-152751151D01*
X101973126Y-152996110D01*
X102069533Y-153228859D01*
X102201160Y-153443653D01*
X102201161Y-153443656D01*
X102201164Y-153443659D01*
X102364776Y-153635224D01*
X102513066Y-153761875D01*
X102556343Y-153798838D01*
X102556346Y-153798839D01*
X102771140Y-153930466D01*
X103003889Y-154026873D01*
X103248852Y-154085683D01*
X103437118Y-154100500D01*
X103437126Y-154100500D01*
X103562874Y-154100500D01*
X103562882Y-154100500D01*
X103751148Y-154085683D01*
X103996111Y-154026873D01*
X104228859Y-153930466D01*
X104443659Y-153798836D01*
X104635224Y-153635224D01*
X104798836Y-153443659D01*
X104930466Y-153228859D01*
X105026873Y-152996111D01*
X105085683Y-152751148D01*
X105105449Y-152500000D01*
X159894551Y-152500000D01*
X159914317Y-152751151D01*
X159973126Y-152996110D01*
X160069533Y-153228859D01*
X160201160Y-153443653D01*
X160201161Y-153443656D01*
X160201164Y-153443659D01*
X160364776Y-153635224D01*
X160513066Y-153761875D01*
X160556343Y-153798838D01*
X160556346Y-153798839D01*
X160771140Y-153930466D01*
X161003889Y-154026873D01*
X161248852Y-154085683D01*
X161437118Y-154100500D01*
X161437126Y-154100500D01*
X161562874Y-154100500D01*
X161562882Y-154100500D01*
X161751148Y-154085683D01*
X161996111Y-154026873D01*
X162228859Y-153930466D01*
X162443659Y-153798836D01*
X162635224Y-153635224D01*
X162798836Y-153443659D01*
X162930466Y-153228859D01*
X163026873Y-152996111D01*
X163085683Y-152751148D01*
X163105449Y-152500000D01*
X163085683Y-152248852D01*
X163026873Y-152003889D01*
X162930466Y-151771141D01*
X162930466Y-151771140D01*
X162798839Y-151556346D01*
X162798838Y-151556343D01*
X162761875Y-151513066D01*
X162635224Y-151364776D01*
X162508571Y-151256604D01*
X162443656Y-151201161D01*
X162443653Y-151201160D01*
X162228859Y-151069533D01*
X161996110Y-150973126D01*
X161751151Y-150914317D01*
X161562887Y-150899500D01*
X161562882Y-150899500D01*
X161437118Y-150899500D01*
X161437112Y-150899500D01*
X161248848Y-150914317D01*
X161003889Y-150973126D01*
X160771140Y-151069533D01*
X160556346Y-151201160D01*
X160556343Y-151201161D01*
X160364776Y-151364776D01*
X160201161Y-151556343D01*
X160201160Y-151556346D01*
X160069533Y-151771140D01*
X159973126Y-152003889D01*
X159914317Y-152248848D01*
X159894551Y-152500000D01*
X105105449Y-152500000D01*
X105085683Y-152248852D01*
X105026873Y-152003889D01*
X104930466Y-151771141D01*
X104930466Y-151771140D01*
X104798839Y-151556346D01*
X104798838Y-151556343D01*
X104761875Y-151513066D01*
X104635224Y-151364776D01*
X104508571Y-151256604D01*
X104443656Y-151201161D01*
X104443653Y-151201160D01*
X104228859Y-151069533D01*
X103996110Y-150973126D01*
X103751151Y-150914317D01*
X103562887Y-150899500D01*
X103562882Y-150899500D01*
X103437118Y-150899500D01*
X103437112Y-150899500D01*
X103248848Y-150914317D01*
X103003889Y-150973126D01*
X102771140Y-151069533D01*
X102556346Y-151201160D01*
X102556343Y-151201161D01*
X102364776Y-151364776D01*
X102201161Y-151556343D01*
X102201160Y-151556346D01*
X102069533Y-151771140D01*
X101973126Y-152003889D01*
X101914317Y-152248848D01*
X101894551Y-152500000D01*
X100300500Y-152500000D01*
X100300500Y-118082100D01*
X104392122Y-118082100D01*
X104411162Y-118238918D01*
X104438528Y-118311075D01*
X104467180Y-118386623D01*
X104556917Y-118516630D01*
X104675160Y-118621383D01*
X104675162Y-118621384D01*
X104815034Y-118694796D01*
X104968414Y-118732600D01*
X104968415Y-118732600D01*
X105009434Y-118732600D01*
X105076473Y-118752285D01*
X105097115Y-118768919D01*
X108013181Y-121684984D01*
X108046666Y-121746307D01*
X108049500Y-121772665D01*
X108049500Y-132206797D01*
X108029815Y-132273836D01*
X107988654Y-132310744D01*
X107989855Y-132312684D01*
X107803699Y-132427947D01*
X107646127Y-132571593D01*
X107517632Y-132741746D01*
X107422596Y-132932605D01*
X107422596Y-132932607D01*
X107393766Y-133033933D01*
X107356486Y-133093026D01*
X107293177Y-133122583D01*
X107223937Y-133113221D01*
X107170751Y-133067911D01*
X107150504Y-133001039D01*
X107150500Y-132999998D01*
X107150500Y-132706903D01*
X107150500Y-132706898D01*
X107139877Y-132618436D01*
X107084361Y-132477658D01*
X107084360Y-132477657D01*
X107084360Y-132477656D01*
X106992922Y-132357077D01*
X106872343Y-132265639D01*
X106731561Y-132210122D01*
X106685926Y-132204642D01*
X106643102Y-132199500D01*
X105356898Y-132199500D01*
X105317853Y-132204188D01*
X105268438Y-132210122D01*
X105127656Y-132265639D01*
X105007077Y-132357077D01*
X104915639Y-132477656D01*
X104860122Y-132618438D01*
X104854188Y-132667853D01*
X104849500Y-132706898D01*
X104849500Y-134293102D01*
X104855126Y-134339954D01*
X104860122Y-134381561D01*
X104915639Y-134522343D01*
X105007077Y-134642922D01*
X105127656Y-134734360D01*
X105127657Y-134734360D01*
X105127658Y-134734361D01*
X105268436Y-134789877D01*
X105356898Y-134800500D01*
X105425500Y-134800500D01*
X105492539Y-134820185D01*
X105538294Y-134872989D01*
X105549500Y-134924500D01*
X105549500Y-143075500D01*
X105529815Y-143142539D01*
X105477011Y-143188294D01*
X105425500Y-143199500D01*
X105356898Y-143199500D01*
X105317853Y-143204188D01*
X105268438Y-143210122D01*
X105127656Y-143265639D01*
X105007077Y-143357077D01*
X104915639Y-143477656D01*
X104860122Y-143618438D01*
X104854188Y-143667853D01*
X104849500Y-143706898D01*
X104849500Y-145293102D01*
X104850773Y-145303699D01*
X104860122Y-145381561D01*
X104915639Y-145522343D01*
X105007077Y-145642922D01*
X105127656Y-145734360D01*
X105127657Y-145734360D01*
X105127658Y-145734361D01*
X105268436Y-145789877D01*
X105356898Y-145800500D01*
X105356903Y-145800500D01*
X106643097Y-145800500D01*
X106643102Y-145800500D01*
X106731564Y-145789877D01*
X106872342Y-145734361D01*
X106992922Y-145642922D01*
X107084361Y-145522342D01*
X107139877Y-145381564D01*
X107150500Y-145293102D01*
X107150500Y-145000001D01*
X107170185Y-144932962D01*
X107222989Y-144887207D01*
X107292147Y-144877263D01*
X107355703Y-144906288D01*
X107393477Y-144965066D01*
X107393742Y-144965983D01*
X107408102Y-145016451D01*
X107422596Y-145067392D01*
X107422596Y-145067394D01*
X107517632Y-145258253D01*
X107517634Y-145258255D01*
X107646128Y-145428407D01*
X107803698Y-145572052D01*
X107984981Y-145684298D01*
X108183802Y-145761321D01*
X108393390Y-145800500D01*
X108393392Y-145800500D01*
X108606608Y-145800500D01*
X108606610Y-145800500D01*
X108816198Y-145761321D01*
X109015019Y-145684298D01*
X109196302Y-145572052D01*
X109353872Y-145428407D01*
X109482366Y-145258255D01*
X109538199Y-145146127D01*
X109577403Y-145067394D01*
X109577403Y-145067393D01*
X109577405Y-145067389D01*
X109635756Y-144862310D01*
X109650500Y-144703194D01*
X109650500Y-144296806D01*
X109635756Y-144137690D01*
X109577405Y-143932611D01*
X109577403Y-143932606D01*
X109577403Y-143932605D01*
X109482367Y-143741746D01*
X109353872Y-143571593D01*
X109251399Y-143478176D01*
X109196302Y-143427948D01*
X109015019Y-143315702D01*
X109010145Y-143312684D01*
X109011441Y-143310589D01*
X108967969Y-143270257D01*
X108950500Y-143206797D01*
X108950500Y-138662065D01*
X108970185Y-138595026D01*
X108986819Y-138574384D01*
X114637819Y-132923384D01*
X114699142Y-132889899D01*
X114768834Y-132894883D01*
X114824767Y-132936755D01*
X114849184Y-133002219D01*
X114849500Y-133011065D01*
X114849500Y-134293102D01*
X114855126Y-134339954D01*
X114860122Y-134381561D01*
X114915639Y-134522343D01*
X115007077Y-134642922D01*
X115127656Y-134734360D01*
X115127657Y-134734360D01*
X115127658Y-134734361D01*
X115268436Y-134789877D01*
X115356898Y-134800500D01*
X115425500Y-134800500D01*
X115492539Y-134820185D01*
X115538294Y-134872989D01*
X115549500Y-134924500D01*
X115549500Y-143075500D01*
X115529815Y-143142539D01*
X115477011Y-143188294D01*
X115425500Y-143199500D01*
X115356898Y-143199500D01*
X115317853Y-143204188D01*
X115268438Y-143210122D01*
X115127656Y-143265639D01*
X115007077Y-143357077D01*
X114915639Y-143477656D01*
X114860122Y-143618438D01*
X114854188Y-143667853D01*
X114849500Y-143706898D01*
X114849500Y-145293102D01*
X114850773Y-145303699D01*
X114860122Y-145381561D01*
X114915639Y-145522343D01*
X115007077Y-145642922D01*
X115127656Y-145734360D01*
X115127657Y-145734360D01*
X115127658Y-145734361D01*
X115268436Y-145789877D01*
X115356898Y-145800500D01*
X115356903Y-145800500D01*
X116643097Y-145800500D01*
X116643102Y-145800500D01*
X116731564Y-145789877D01*
X116872342Y-145734361D01*
X116992922Y-145642922D01*
X117084361Y-145522342D01*
X117139877Y-145381564D01*
X117150500Y-145293102D01*
X117150500Y-145000001D01*
X117170185Y-144932962D01*
X117222989Y-144887207D01*
X117292147Y-144877263D01*
X117355703Y-144906288D01*
X117393477Y-144965066D01*
X117393742Y-144965983D01*
X117408102Y-145016451D01*
X117422596Y-145067392D01*
X117422596Y-145067394D01*
X117517632Y-145258253D01*
X117517634Y-145258255D01*
X117646128Y-145428407D01*
X117803698Y-145572052D01*
X117984981Y-145684298D01*
X118183802Y-145761321D01*
X118393390Y-145800500D01*
X118393392Y-145800500D01*
X118606608Y-145800500D01*
X118606610Y-145800500D01*
X118816198Y-145761321D01*
X119015019Y-145684298D01*
X119196302Y-145572052D01*
X119353872Y-145428407D01*
X119482366Y-145258255D01*
X119538199Y-145146127D01*
X119577403Y-145067394D01*
X119577403Y-145067393D01*
X119577405Y-145067389D01*
X119635756Y-144862310D01*
X119650500Y-144703194D01*
X119650500Y-144296806D01*
X119635756Y-144137690D01*
X119577405Y-143932611D01*
X119577403Y-143932606D01*
X119577403Y-143932605D01*
X119482367Y-143741746D01*
X119353872Y-143571593D01*
X119251399Y-143478176D01*
X119196302Y-143427948D01*
X119015019Y-143315702D01*
X119010145Y-143312684D01*
X119011441Y-143310589D01*
X118967969Y-143270257D01*
X118950500Y-143206797D01*
X118950500Y-138662065D01*
X118970185Y-138595026D01*
X118986819Y-138574384D01*
X124637819Y-132923384D01*
X124699142Y-132889899D01*
X124768834Y-132894883D01*
X124824767Y-132936755D01*
X124849184Y-133002219D01*
X124849500Y-133011065D01*
X124849500Y-134293102D01*
X124855126Y-134339954D01*
X124860122Y-134381561D01*
X124915639Y-134522343D01*
X125007077Y-134642922D01*
X125127656Y-134734360D01*
X125127657Y-134734360D01*
X125127658Y-134734361D01*
X125268436Y-134789877D01*
X125356898Y-134800500D01*
X125425500Y-134800500D01*
X125492539Y-134820185D01*
X125538294Y-134872989D01*
X125549500Y-134924500D01*
X125549500Y-143075500D01*
X125529815Y-143142539D01*
X125477011Y-143188294D01*
X125425500Y-143199500D01*
X125356898Y-143199500D01*
X125317853Y-143204188D01*
X125268438Y-143210122D01*
X125127656Y-143265639D01*
X125007077Y-143357077D01*
X124915639Y-143477656D01*
X124860122Y-143618438D01*
X124854188Y-143667853D01*
X124849500Y-143706898D01*
X124849500Y-145293102D01*
X124850773Y-145303699D01*
X124860122Y-145381561D01*
X124915639Y-145522343D01*
X125007077Y-145642922D01*
X125127656Y-145734360D01*
X125127657Y-145734360D01*
X125127658Y-145734361D01*
X125268436Y-145789877D01*
X125356898Y-145800500D01*
X125356903Y-145800500D01*
X126643097Y-145800500D01*
X126643102Y-145800500D01*
X126731564Y-145789877D01*
X126872342Y-145734361D01*
X126992922Y-145642922D01*
X127084361Y-145522342D01*
X127139877Y-145381564D01*
X127150500Y-145293102D01*
X127150500Y-145000001D01*
X127170185Y-144932962D01*
X127222989Y-144887207D01*
X127292147Y-144877263D01*
X127355703Y-144906288D01*
X127393477Y-144965066D01*
X127393742Y-144965983D01*
X127408102Y-145016451D01*
X127422596Y-145067392D01*
X127422596Y-145067394D01*
X127517632Y-145258253D01*
X127517634Y-145258255D01*
X127646128Y-145428407D01*
X127803698Y-145572052D01*
X127984981Y-145684298D01*
X128183802Y-145761321D01*
X128393390Y-145800500D01*
X128393392Y-145800500D01*
X128606608Y-145800500D01*
X128606610Y-145800500D01*
X128816198Y-145761321D01*
X129015019Y-145684298D01*
X129196302Y-145572052D01*
X129353872Y-145428407D01*
X129482366Y-145258255D01*
X129538199Y-145146127D01*
X129577403Y-145067394D01*
X129577403Y-145067393D01*
X129577405Y-145067389D01*
X129635756Y-144862310D01*
X129650500Y-144703194D01*
X129650500Y-144296806D01*
X129635756Y-144137690D01*
X129577405Y-143932611D01*
X129577403Y-143932606D01*
X129577403Y-143932605D01*
X129482367Y-143741746D01*
X129353872Y-143571593D01*
X129251399Y-143478176D01*
X129196302Y-143427948D01*
X129015019Y-143315702D01*
X129015017Y-143315701D01*
X128818162Y-143239440D01*
X128816198Y-143238679D01*
X128606610Y-143199500D01*
X128393390Y-143199500D01*
X128183802Y-143238679D01*
X128183799Y-143238679D01*
X128183799Y-143238680D01*
X127984982Y-143315701D01*
X127984980Y-143315702D01*
X127803699Y-143427947D01*
X127646127Y-143571593D01*
X127517632Y-143741746D01*
X127422596Y-143932605D01*
X127422596Y-143932607D01*
X127393766Y-144033933D01*
X127356486Y-144093026D01*
X127293177Y-144122583D01*
X127223937Y-144113221D01*
X127170751Y-144067911D01*
X127150504Y-144001039D01*
X127150500Y-143999998D01*
X127150500Y-143706903D01*
X127150500Y-143706898D01*
X127139877Y-143618436D01*
X127084361Y-143477658D01*
X127084360Y-143477657D01*
X127084360Y-143477656D01*
X126992922Y-143357077D01*
X126872343Y-143265639D01*
X126731561Y-143210122D01*
X126685926Y-143204642D01*
X126643102Y-143199500D01*
X126643097Y-143199500D01*
X126574500Y-143199500D01*
X126507461Y-143179815D01*
X126461706Y-143127011D01*
X126450500Y-143075500D01*
X126450500Y-134924500D01*
X126470185Y-134857461D01*
X126522989Y-134811706D01*
X126574500Y-134800500D01*
X126643097Y-134800500D01*
X126643102Y-134800500D01*
X126731564Y-134789877D01*
X126872342Y-134734361D01*
X126992922Y-134642922D01*
X127084361Y-134522342D01*
X127139877Y-134381564D01*
X127150500Y-134293102D01*
X127150500Y-134000001D01*
X127170185Y-133932962D01*
X127222989Y-133887207D01*
X127292147Y-133877263D01*
X127355703Y-133906288D01*
X127393477Y-133965066D01*
X127393766Y-133966066D01*
X127422596Y-134067392D01*
X127422596Y-134067394D01*
X127517632Y-134258253D01*
X127517634Y-134258255D01*
X127646128Y-134428407D01*
X127803698Y-134572052D01*
X127984981Y-134684298D01*
X128183802Y-134761321D01*
X128393390Y-134800500D01*
X128393392Y-134800500D01*
X128606608Y-134800500D01*
X128606610Y-134800500D01*
X128816198Y-134761321D01*
X129015019Y-134684298D01*
X129196302Y-134572052D01*
X129353872Y-134428407D01*
X129482366Y-134258255D01*
X129577405Y-134067389D01*
X129635756Y-133862310D01*
X129650500Y-133703194D01*
X129650500Y-133296806D01*
X129635756Y-133137690D01*
X129577405Y-132932611D01*
X129577403Y-132932606D01*
X129577403Y-132932605D01*
X129482367Y-132741746D01*
X129353872Y-132571593D01*
X129251399Y-132478176D01*
X129196302Y-132427948D01*
X129015019Y-132315702D01*
X129015017Y-132315701D01*
X128860602Y-132255881D01*
X128816198Y-132238679D01*
X128606610Y-132199500D01*
X128393390Y-132199500D01*
X128183802Y-132238679D01*
X128183799Y-132238679D01*
X128183799Y-132238680D01*
X127984982Y-132315701D01*
X127984980Y-132315702D01*
X127803699Y-132427947D01*
X127646127Y-132571593D01*
X127517632Y-132741746D01*
X127422596Y-132932605D01*
X127422596Y-132932607D01*
X127393766Y-133033933D01*
X127356486Y-133093026D01*
X127293177Y-133122583D01*
X127223937Y-133113221D01*
X127170751Y-133067911D01*
X127150504Y-133001039D01*
X127150500Y-132999998D01*
X127150500Y-132706903D01*
X127150500Y-132706898D01*
X127139877Y-132618436D01*
X127084361Y-132477658D01*
X127084360Y-132477657D01*
X127084360Y-132477656D01*
X126992922Y-132357077D01*
X126872343Y-132265639D01*
X126731561Y-132210122D01*
X126685926Y-132204642D01*
X126643102Y-132199500D01*
X126643097Y-132199500D01*
X125661065Y-132199500D01*
X125594026Y-132179815D01*
X125548271Y-132127011D01*
X125538327Y-132057853D01*
X125567352Y-131994297D01*
X125573384Y-131987819D01*
X125669360Y-131891841D01*
X125932744Y-131628457D01*
X125943093Y-131619209D01*
X125970970Y-131596979D01*
X126003198Y-131549707D01*
X126005812Y-131546023D01*
X126039793Y-131499982D01*
X126039793Y-131499979D01*
X126039795Y-131499978D01*
X126043778Y-131492441D01*
X126047468Y-131484777D01*
X126047472Y-131484773D01*
X126064330Y-131430118D01*
X126065761Y-131425768D01*
X126084646Y-131371800D01*
X126084646Y-131371798D01*
X126086228Y-131363436D01*
X126087500Y-131354999D01*
X126087500Y-131297838D01*
X126087587Y-131293200D01*
X126089724Y-131236092D01*
X126088684Y-131226861D01*
X126089513Y-131226767D01*
X126087500Y-131211466D01*
X126087500Y-121913759D01*
X126107185Y-121846720D01*
X126122846Y-121828444D01*
X126122509Y-121828145D01*
X126127481Y-121822532D01*
X126127481Y-121822531D01*
X126127483Y-121822530D01*
X126217220Y-121692523D01*
X126235633Y-121643970D01*
X126277810Y-121588268D01*
X126343408Y-121564210D01*
X126411598Y-121579436D01*
X126439256Y-121600260D01*
X128645730Y-123806733D01*
X128654995Y-123817100D01*
X128677221Y-123844970D01*
X128677223Y-123844972D01*
X128724463Y-123877180D01*
X128728245Y-123879863D01*
X128774218Y-123913793D01*
X128781754Y-123917776D01*
X128789419Y-123921467D01*
X128789427Y-123921472D01*
X128814288Y-123929140D01*
X128844080Y-123938330D01*
X128848471Y-123939774D01*
X128902401Y-123958646D01*
X128902405Y-123958646D01*
X128910798Y-123960234D01*
X128919195Y-123961500D01*
X128919198Y-123961500D01*
X128976345Y-123961500D01*
X128980983Y-123961587D01*
X129038109Y-123963725D01*
X129038109Y-123963724D01*
X129038110Y-123963725D01*
X129038110Y-123963724D01*
X129047342Y-123962685D01*
X129047435Y-123963513D01*
X129062739Y-123961500D01*
X135450583Y-123961500D01*
X135517622Y-123981185D01*
X135563377Y-124033989D01*
X135573321Y-124103147D01*
X135544296Y-124166703D01*
X135532816Y-124178309D01*
X135441317Y-124259370D01*
X135441316Y-124259371D01*
X135351581Y-124389375D01*
X135351580Y-124389376D01*
X135295562Y-124537081D01*
X135276522Y-124693899D01*
X135276522Y-124693900D01*
X135295562Y-124850718D01*
X135315658Y-124903705D01*
X135351580Y-124998423D01*
X135441317Y-125128430D01*
X135559560Y-125233183D01*
X135559562Y-125233184D01*
X135699434Y-125306596D01*
X135852814Y-125344400D01*
X135852815Y-125344400D01*
X135893834Y-125344400D01*
X135960873Y-125364085D01*
X135981515Y-125380719D01*
X136811281Y-126210484D01*
X136844766Y-126271807D01*
X136847600Y-126298165D01*
X136847600Y-132084275D01*
X136827915Y-132151314D01*
X136775111Y-132197069D01*
X136708818Y-132207391D01*
X136674154Y-132203229D01*
X136643102Y-132199500D01*
X135356898Y-132199500D01*
X135317853Y-132204188D01*
X135268438Y-132210122D01*
X135127656Y-132265639D01*
X135007077Y-132357077D01*
X134915639Y-132477656D01*
X134860122Y-132618438D01*
X134854188Y-132667853D01*
X134849500Y-132706898D01*
X134849500Y-134293102D01*
X134855126Y-134339954D01*
X134860122Y-134381561D01*
X134915639Y-134522343D01*
X135007077Y-134642922D01*
X135127656Y-134734360D01*
X135127657Y-134734360D01*
X135127658Y-134734361D01*
X135268436Y-134789877D01*
X135356898Y-134800500D01*
X135425500Y-134800500D01*
X135492539Y-134820185D01*
X135538294Y-134872989D01*
X135549500Y-134924500D01*
X135549500Y-143075500D01*
X135529815Y-143142539D01*
X135477011Y-143188294D01*
X135425500Y-143199500D01*
X135356898Y-143199500D01*
X135317853Y-143204188D01*
X135268438Y-143210122D01*
X135127656Y-143265639D01*
X135007077Y-143357077D01*
X134915639Y-143477656D01*
X134860122Y-143618438D01*
X134854188Y-143667853D01*
X134849500Y-143706898D01*
X134849500Y-145293102D01*
X134850773Y-145303699D01*
X134860122Y-145381561D01*
X134915639Y-145522343D01*
X135007077Y-145642922D01*
X135127656Y-145734360D01*
X135127657Y-145734360D01*
X135127658Y-145734361D01*
X135268436Y-145789877D01*
X135356898Y-145800500D01*
X135356903Y-145800500D01*
X136643097Y-145800500D01*
X136643102Y-145800500D01*
X136731564Y-145789877D01*
X136872342Y-145734361D01*
X136992922Y-145642922D01*
X137084361Y-145522342D01*
X137139877Y-145381564D01*
X137150500Y-145293102D01*
X137150500Y-145077880D01*
X137170185Y-145010841D01*
X137222989Y-144965086D01*
X137265226Y-144954227D01*
X137286926Y-144952600D01*
X137355247Y-144967216D01*
X137404822Y-145016451D01*
X137415462Y-145042318D01*
X137422596Y-145067393D01*
X137422596Y-145067394D01*
X137517632Y-145258253D01*
X137517634Y-145258255D01*
X137646128Y-145428407D01*
X137803698Y-145572052D01*
X137984981Y-145684298D01*
X138183802Y-145761321D01*
X138393390Y-145800500D01*
X138393392Y-145800500D01*
X138606608Y-145800500D01*
X138606610Y-145800500D01*
X138816198Y-145761321D01*
X139015019Y-145684298D01*
X139196302Y-145572052D01*
X139353872Y-145428407D01*
X139482366Y-145258255D01*
X139538199Y-145146127D01*
X139577403Y-145067394D01*
X139577403Y-145067393D01*
X139577405Y-145067389D01*
X139635756Y-144862310D01*
X139650500Y-144703194D01*
X139650500Y-144296806D01*
X139635756Y-144137690D01*
X139577405Y-143932611D01*
X139577403Y-143932606D01*
X139577403Y-143932605D01*
X139482367Y-143741746D01*
X139353872Y-143571593D01*
X139251399Y-143478176D01*
X139196302Y-143427948D01*
X139015019Y-143315702D01*
X139015017Y-143315701D01*
X138818162Y-143239440D01*
X138816198Y-143238679D01*
X138606610Y-143199500D01*
X138393390Y-143199500D01*
X138183802Y-143238679D01*
X138183799Y-143238679D01*
X138183799Y-143238680D01*
X137984982Y-143315701D01*
X137984975Y-143315705D01*
X137937877Y-143344867D01*
X137870516Y-143363422D01*
X137803817Y-143342614D01*
X137758956Y-143289049D01*
X137748600Y-143239440D01*
X137748600Y-134760559D01*
X137768285Y-134693520D01*
X137821089Y-134647765D01*
X137890247Y-134637821D01*
X137937878Y-134655133D01*
X137984981Y-134684298D01*
X138183802Y-134761321D01*
X138393390Y-134800500D01*
X138393392Y-134800500D01*
X138606608Y-134800500D01*
X138606610Y-134800500D01*
X138816198Y-134761321D01*
X139015019Y-134684298D01*
X139196302Y-134572052D01*
X139353872Y-134428407D01*
X139482366Y-134258255D01*
X139577405Y-134067389D01*
X139635756Y-133862310D01*
X139650500Y-133703194D01*
X139650500Y-133296806D01*
X139635756Y-133137690D01*
X139577405Y-132932611D01*
X139577403Y-132932606D01*
X139577403Y-132932605D01*
X139482367Y-132741746D01*
X139353872Y-132571593D01*
X139251399Y-132478176D01*
X139196302Y-132427948D01*
X139015019Y-132315702D01*
X139010145Y-132312684D01*
X139011441Y-132310589D01*
X138967969Y-132270257D01*
X138950500Y-132206797D01*
X138950500Y-126293061D01*
X138951280Y-126279176D01*
X138955270Y-126243766D01*
X138955270Y-126243765D01*
X138944633Y-126187553D01*
X138943864Y-126183019D01*
X138938361Y-126146504D01*
X138935348Y-126126513D01*
X138935346Y-126126509D01*
X138932836Y-126118371D01*
X138930024Y-126110334D01*
X138930023Y-126110328D01*
X138903285Y-126059741D01*
X138901223Y-126055654D01*
X138876425Y-126004158D01*
X138876423Y-126004156D01*
X138876423Y-126004155D01*
X138871642Y-125997142D01*
X138866566Y-125990265D01*
X138866565Y-125990262D01*
X138826165Y-125949862D01*
X138822947Y-125946521D01*
X138784060Y-125904609D01*
X138776792Y-125898814D01*
X138777312Y-125898161D01*
X138765067Y-125888764D01*
X136091568Y-123215265D01*
X136082302Y-123204897D01*
X136060079Y-123177030D01*
X136060078Y-123177029D01*
X136060077Y-123177028D01*
X136034550Y-123159624D01*
X136012833Y-123144818D01*
X136009069Y-123142147D01*
X135963086Y-123108209D01*
X135955497Y-123104198D01*
X135947875Y-123100528D01*
X135893249Y-123083679D01*
X135888844Y-123082230D01*
X135834895Y-123063352D01*
X135826526Y-123061768D01*
X135818104Y-123060500D01*
X135818102Y-123060500D01*
X135760938Y-123060500D01*
X135756301Y-123060413D01*
X135754285Y-123060337D01*
X135699189Y-123058275D01*
X135689956Y-123059316D01*
X135689862Y-123058486D01*
X135674564Y-123060500D01*
X129225065Y-123060500D01*
X129158026Y-123040815D01*
X129137384Y-123024181D01*
X124005468Y-117892265D01*
X123996202Y-117881897D01*
X123973977Y-117854028D01*
X123948450Y-117836624D01*
X123926733Y-117821818D01*
X123922969Y-117819147D01*
X123876986Y-117785209D01*
X123869397Y-117781198D01*
X123861775Y-117777528D01*
X123807149Y-117760679D01*
X123802744Y-117759230D01*
X123748795Y-117740352D01*
X123740426Y-117738768D01*
X123732004Y-117737500D01*
X123732002Y-117737500D01*
X123674838Y-117737500D01*
X123670201Y-117737413D01*
X123667787Y-117737322D01*
X123605471Y-117734990D01*
X123539214Y-117712812D01*
X123522428Y-117698758D01*
X123259052Y-117435382D01*
X123235781Y-117412111D01*
X123235780Y-117412110D01*
X123215149Y-117401598D01*
X123198564Y-117391434D01*
X123179839Y-117377830D01*
X123179836Y-117377828D01*
X123179835Y-117377828D01*
X123157810Y-117370671D01*
X123139843Y-117363228D01*
X123119213Y-117352717D01*
X123119214Y-117352717D01*
X123096345Y-117349094D01*
X123077435Y-117344554D01*
X123055419Y-117337401D01*
X123055414Y-117337400D01*
X123055413Y-117337400D01*
X123055409Y-117337400D01*
X120832665Y-117337400D01*
X120765626Y-117317715D01*
X120744984Y-117301081D01*
X120399305Y-116955402D01*
X120371044Y-116911692D01*
X120369290Y-116907068D01*
X120338120Y-116824877D01*
X120334226Y-116819236D01*
X120248383Y-116694870D01*
X120151134Y-116608716D01*
X120114007Y-116549526D01*
X120114775Y-116479661D01*
X120153192Y-116421301D01*
X120217063Y-116392976D01*
X120233361Y-116391900D01*
X125099534Y-116391900D01*
X125166573Y-116411585D01*
X125187215Y-116428219D01*
X125654230Y-116895233D01*
X125663495Y-116905600D01*
X125685721Y-116933470D01*
X125685723Y-116933472D01*
X125732963Y-116965680D01*
X125736745Y-116968363D01*
X125782718Y-117002293D01*
X125790254Y-117006276D01*
X125797919Y-117009967D01*
X125797927Y-117009972D01*
X125822768Y-117017634D01*
X125852580Y-117026830D01*
X125856971Y-117028274D01*
X125910901Y-117047146D01*
X125910905Y-117047146D01*
X125919279Y-117048730D01*
X125927696Y-117049999D01*
X125927698Y-117050000D01*
X125984862Y-117050000D01*
X125989498Y-117050086D01*
X126046610Y-117052224D01*
X126055844Y-117051184D01*
X126055937Y-117052013D01*
X126071236Y-117050000D01*
X127217005Y-117050000D01*
X127284044Y-117069685D01*
X127329799Y-117122489D01*
X127339743Y-117191647D01*
X127332948Y-117217964D01*
X127321649Y-117247760D01*
X127290162Y-117330782D01*
X127271122Y-117487599D01*
X127271122Y-117487600D01*
X127290162Y-117644418D01*
X127333705Y-117759230D01*
X127346180Y-117792123D01*
X127435917Y-117922130D01*
X127554160Y-118026883D01*
X127554162Y-118026884D01*
X127694034Y-118100296D01*
X127847414Y-118138100D01*
X127847415Y-118138100D01*
X127888434Y-118138100D01*
X127955473Y-118157785D01*
X127976115Y-118174419D01*
X130458330Y-120656633D01*
X130467595Y-120667000D01*
X130489821Y-120694870D01*
X130489823Y-120694872D01*
X130537063Y-120727080D01*
X130540845Y-120729763D01*
X130586818Y-120763693D01*
X130594354Y-120767676D01*
X130602019Y-120771367D01*
X130602027Y-120771372D01*
X130626888Y-120779040D01*
X130656680Y-120788230D01*
X130661071Y-120789674D01*
X130715001Y-120808546D01*
X130715005Y-120808546D01*
X130723398Y-120810134D01*
X130731795Y-120811400D01*
X130731798Y-120811400D01*
X130788945Y-120811400D01*
X130793583Y-120811487D01*
X130850709Y-120813625D01*
X130850709Y-120813624D01*
X130850710Y-120813625D01*
X130850710Y-120813624D01*
X130859942Y-120812585D01*
X130860035Y-120813413D01*
X130875339Y-120811400D01*
X142166319Y-120811400D01*
X142233358Y-120831085D01*
X142279113Y-120883889D01*
X142289057Y-120953047D01*
X142268369Y-121005840D01*
X142214781Y-121083475D01*
X142214780Y-121083476D01*
X142158762Y-121231181D01*
X142139722Y-121387999D01*
X142139722Y-121388000D01*
X142158762Y-121544818D01*
X142211921Y-121684984D01*
X142214780Y-121692523D01*
X142304517Y-121822530D01*
X142422760Y-121927283D01*
X142422762Y-121927284D01*
X142562634Y-122000696D01*
X142716014Y-122038500D01*
X142716015Y-122038500D01*
X142757034Y-122038500D01*
X142824073Y-122058185D01*
X142844715Y-122074819D01*
X146811281Y-126041384D01*
X146844766Y-126102707D01*
X146847600Y-126129065D01*
X146847600Y-132084275D01*
X146827915Y-132151314D01*
X146775111Y-132197069D01*
X146708818Y-132207391D01*
X146674154Y-132203229D01*
X146643102Y-132199500D01*
X145356898Y-132199500D01*
X145317853Y-132204188D01*
X145268438Y-132210122D01*
X145127656Y-132265639D01*
X145007077Y-132357077D01*
X144915639Y-132477656D01*
X144860122Y-132618438D01*
X144854188Y-132667853D01*
X144849500Y-132706898D01*
X144849500Y-134293102D01*
X144855126Y-134339954D01*
X144860122Y-134381561D01*
X144915639Y-134522343D01*
X145007077Y-134642922D01*
X145127656Y-134734360D01*
X145127657Y-134734360D01*
X145127658Y-134734361D01*
X145268436Y-134789877D01*
X145356898Y-134800500D01*
X145425500Y-134800500D01*
X145492539Y-134820185D01*
X145538294Y-134872989D01*
X145549500Y-134924500D01*
X145549500Y-143075500D01*
X145529815Y-143142539D01*
X145477011Y-143188294D01*
X145425500Y-143199500D01*
X145356898Y-143199500D01*
X145317853Y-143204188D01*
X145268438Y-143210122D01*
X145127656Y-143265639D01*
X145007077Y-143357077D01*
X144915639Y-143477656D01*
X144860122Y-143618438D01*
X144854188Y-143667853D01*
X144849500Y-143706898D01*
X144849500Y-145293102D01*
X144850773Y-145303699D01*
X144860122Y-145381561D01*
X144915639Y-145522343D01*
X145007077Y-145642922D01*
X145127656Y-145734360D01*
X145127657Y-145734360D01*
X145127658Y-145734361D01*
X145268436Y-145789877D01*
X145356898Y-145800500D01*
X145356903Y-145800500D01*
X146643097Y-145800500D01*
X146643102Y-145800500D01*
X146731564Y-145789877D01*
X146872342Y-145734361D01*
X146992922Y-145642922D01*
X147084361Y-145522342D01*
X147139877Y-145381564D01*
X147150500Y-145293102D01*
X147150500Y-145077880D01*
X147170185Y-145010841D01*
X147222989Y-144965086D01*
X147265226Y-144954227D01*
X147286926Y-144952600D01*
X147355247Y-144967216D01*
X147404822Y-145016451D01*
X147415462Y-145042318D01*
X147422596Y-145067393D01*
X147422596Y-145067394D01*
X147517632Y-145258253D01*
X147517634Y-145258255D01*
X147646128Y-145428407D01*
X147803698Y-145572052D01*
X147984981Y-145684298D01*
X148183802Y-145761321D01*
X148393390Y-145800500D01*
X148393392Y-145800500D01*
X148606608Y-145800500D01*
X148606610Y-145800500D01*
X148816198Y-145761321D01*
X149015019Y-145684298D01*
X149196302Y-145572052D01*
X149353872Y-145428407D01*
X149482366Y-145258255D01*
X149538199Y-145146127D01*
X149577403Y-145067394D01*
X149577403Y-145067393D01*
X149577405Y-145067389D01*
X149635756Y-144862310D01*
X149650500Y-144703194D01*
X149650500Y-144296806D01*
X149635756Y-144137690D01*
X149577405Y-143932611D01*
X149577403Y-143932606D01*
X149577403Y-143932605D01*
X149482367Y-143741746D01*
X149353872Y-143571593D01*
X149251399Y-143478176D01*
X149196302Y-143427948D01*
X149015019Y-143315702D01*
X149015017Y-143315701D01*
X148818162Y-143239440D01*
X148816198Y-143238679D01*
X148606610Y-143199500D01*
X148393390Y-143199500D01*
X148183802Y-143238679D01*
X148183799Y-143238679D01*
X148183799Y-143238680D01*
X147984982Y-143315701D01*
X147984975Y-143315705D01*
X147937877Y-143344867D01*
X147870516Y-143363422D01*
X147803817Y-143342614D01*
X147758956Y-143289049D01*
X147748600Y-143239440D01*
X147748600Y-139333936D01*
X155162129Y-139333936D01*
X155172755Y-139390096D01*
X155173532Y-139394665D01*
X155182052Y-139451191D01*
X155184562Y-139459327D01*
X155187376Y-139467370D01*
X155214088Y-139517911D01*
X155216176Y-139522049D01*
X155240974Y-139573541D01*
X155245762Y-139580565D01*
X155250831Y-139587432D01*
X155250834Y-139587438D01*
X155250838Y-139587442D01*
X155291246Y-139627850D01*
X155294463Y-139631189D01*
X155333347Y-139673096D01*
X155340610Y-139678888D01*
X155340089Y-139679541D01*
X155352330Y-139688934D01*
X155757230Y-140093833D01*
X155766495Y-140104200D01*
X155788721Y-140132070D01*
X155788723Y-140132072D01*
X155835963Y-140164280D01*
X155839745Y-140166963D01*
X155883588Y-140199321D01*
X155925839Y-140254969D01*
X155931296Y-140324625D01*
X155915381Y-140364368D01*
X155840705Y-140484975D01*
X155840701Y-140484982D01*
X155763680Y-140683799D01*
X155763679Y-140683802D01*
X155724500Y-140893390D01*
X155724500Y-141106610D01*
X155763679Y-141316198D01*
X155840702Y-141515019D01*
X155952948Y-141696302D01*
X156018898Y-141768645D01*
X156096593Y-141853872D01*
X156266746Y-141982367D01*
X156457605Y-142077403D01*
X156457609Y-142077404D01*
X156457611Y-142077405D01*
X156463489Y-142079077D01*
X156522583Y-142116351D01*
X156552144Y-142179659D01*
X156549103Y-142220742D01*
X156550885Y-142221011D01*
X156549500Y-142230199D01*
X156549500Y-142233368D01*
X156546391Y-142260960D01*
X156545684Y-142264054D01*
X156547921Y-142293892D01*
X156533302Y-142362215D01*
X156484066Y-142411789D01*
X156462931Y-142420482D01*
X156462949Y-142420527D01*
X156460810Y-142421355D01*
X156458215Y-142422423D01*
X156457607Y-142422595D01*
X156457604Y-142422596D01*
X156266746Y-142517632D01*
X156096593Y-142646127D01*
X155952947Y-142803699D01*
X155840702Y-142984980D01*
X155840701Y-142984982D01*
X155763680Y-143183799D01*
X155763679Y-143183802D01*
X155724500Y-143393390D01*
X155724500Y-143606610D01*
X155763679Y-143816198D01*
X155840702Y-144015019D01*
X155952948Y-144196302D01*
X156044570Y-144296806D01*
X156096593Y-144353872D01*
X156266746Y-144482367D01*
X156457606Y-144577403D01*
X156457608Y-144577403D01*
X156457611Y-144577405D01*
X156591971Y-144615634D01*
X156645039Y-144630734D01*
X156704132Y-144668014D01*
X156733689Y-144731324D01*
X156724327Y-144800563D01*
X156679017Y-144853749D01*
X156645039Y-144869266D01*
X156457607Y-144922596D01*
X156457605Y-144922596D01*
X156266746Y-145017632D01*
X156096593Y-145146127D01*
X155952947Y-145303699D01*
X155840702Y-145484980D01*
X155840701Y-145484982D01*
X155779516Y-145642922D01*
X155763679Y-145683802D01*
X155724500Y-145893390D01*
X155724500Y-146106610D01*
X155763679Y-146316198D01*
X155840702Y-146515019D01*
X155952948Y-146696302D01*
X156096593Y-146853872D01*
X156266746Y-146982367D01*
X156457606Y-147077403D01*
X156457608Y-147077403D01*
X156457611Y-147077405D01*
X156662690Y-147135756D01*
X156821806Y-147150500D01*
X156821810Y-147150500D01*
X157178190Y-147150500D01*
X157178194Y-147150500D01*
X157337310Y-147135756D01*
X157542389Y-147077405D01*
X157542393Y-147077403D01*
X157542394Y-147077403D01*
X157733253Y-146982367D01*
X157733253Y-146982366D01*
X157733255Y-146982366D01*
X157903407Y-146853872D01*
X158047052Y-146696302D01*
X158159298Y-146515019D01*
X158236321Y-146316198D01*
X158275500Y-146106610D01*
X158275500Y-145893390D01*
X158236321Y-145683802D01*
X158159298Y-145484981D01*
X158047052Y-145303698D01*
X157903407Y-145146128D01*
X157813033Y-145077880D01*
X157733253Y-145017632D01*
X157542393Y-144922596D01*
X157354960Y-144869266D01*
X157295867Y-144831986D01*
X157266310Y-144768677D01*
X157275672Y-144699437D01*
X157320982Y-144646251D01*
X157354960Y-144630734D01*
X157542389Y-144577405D01*
X157542393Y-144577403D01*
X157542394Y-144577403D01*
X157733253Y-144482367D01*
X157733253Y-144482366D01*
X157733255Y-144482366D01*
X157903407Y-144353872D01*
X158047052Y-144196302D01*
X158159298Y-144015019D01*
X158236321Y-143816198D01*
X158275500Y-143606610D01*
X158275500Y-143393390D01*
X158236321Y-143183802D01*
X158159298Y-142984981D01*
X158047052Y-142803698D01*
X157976766Y-142726599D01*
X157946149Y-142663796D01*
X157954346Y-142594409D01*
X157980719Y-142555383D01*
X158688744Y-141847357D01*
X158699093Y-141838109D01*
X158726970Y-141815879D01*
X158759198Y-141768607D01*
X158761812Y-141764923D01*
X158795793Y-141718882D01*
X158795793Y-141718879D01*
X158795795Y-141718878D01*
X158799787Y-141711324D01*
X158803471Y-141703675D01*
X158820324Y-141649035D01*
X158821762Y-141644662D01*
X158840646Y-141590699D01*
X158840646Y-141590696D01*
X158842228Y-141582336D01*
X158843500Y-141573899D01*
X158843500Y-141516754D01*
X158843587Y-141512116D01*
X158845725Y-141454990D01*
X158844685Y-141445758D01*
X158845513Y-141445664D01*
X158843500Y-141430361D01*
X158843500Y-131581961D01*
X158844280Y-131568076D01*
X158848270Y-131532666D01*
X158848270Y-131532665D01*
X158837633Y-131476453D01*
X158836864Y-131471919D01*
X158828348Y-131415415D01*
X158828348Y-131415413D01*
X158828346Y-131415409D01*
X158825836Y-131407271D01*
X158823024Y-131399234D01*
X158823023Y-131399228D01*
X158796285Y-131348641D01*
X158794223Y-131344554D01*
X158769425Y-131293058D01*
X158769423Y-131293056D01*
X158769423Y-131293055D01*
X158764642Y-131286042D01*
X158759566Y-131279165D01*
X158759565Y-131279162D01*
X158719165Y-131238762D01*
X158715947Y-131235421D01*
X158677060Y-131193509D01*
X158669792Y-131187714D01*
X158670312Y-131187061D01*
X158658067Y-131177664D01*
X157954160Y-130473757D01*
X157920675Y-130412434D01*
X157925659Y-130342742D01*
X157950201Y-130302541D01*
X158047052Y-130196302D01*
X158159298Y-130015019D01*
X158236321Y-129816198D01*
X158275500Y-129606610D01*
X158275500Y-129393390D01*
X158236321Y-129183802D01*
X158186480Y-129055148D01*
X158180619Y-128985527D01*
X158213329Y-128923786D01*
X158214352Y-128922750D01*
X158649744Y-128487357D01*
X158660093Y-128478109D01*
X158687970Y-128455879D01*
X158720198Y-128408607D01*
X158722812Y-128404923D01*
X158756793Y-128358882D01*
X158756793Y-128358879D01*
X158756795Y-128358878D01*
X158760787Y-128351324D01*
X158764471Y-128343675D01*
X158781324Y-128289035D01*
X158782762Y-128284662D01*
X158801646Y-128230699D01*
X158801646Y-128230696D01*
X158803232Y-128222311D01*
X158804500Y-128213904D01*
X158804500Y-128156738D01*
X158804587Y-128152100D01*
X158806724Y-128094992D01*
X158805684Y-128085761D01*
X158806513Y-128085667D01*
X158804500Y-128070366D01*
X158804500Y-117542961D01*
X158805280Y-117529076D01*
X158809270Y-117493665D01*
X158798632Y-117437441D01*
X158797870Y-117432953D01*
X158789348Y-117376413D01*
X158789347Y-117376411D01*
X158789347Y-117376409D01*
X158786829Y-117368245D01*
X158784023Y-117360224D01*
X158757306Y-117309678D01*
X158755213Y-117305533D01*
X158730425Y-117254058D01*
X158725620Y-117247010D01*
X158720567Y-117240165D01*
X158720566Y-117240162D01*
X158680152Y-117199748D01*
X158676935Y-117196408D01*
X158638057Y-117154507D01*
X158630790Y-117148712D01*
X158631310Y-117148059D01*
X158619070Y-117138666D01*
X158299640Y-116819236D01*
X157954159Y-116473756D01*
X157920675Y-116412434D01*
X157925659Y-116342743D01*
X157950201Y-116302541D01*
X158047052Y-116196302D01*
X158159298Y-116015019D01*
X158236321Y-115816198D01*
X158275500Y-115606610D01*
X158275500Y-115393390D01*
X158236321Y-115183802D01*
X158159298Y-114984981D01*
X158047052Y-114803698D01*
X157903407Y-114646128D01*
X157863137Y-114615717D01*
X157733253Y-114517632D01*
X157542395Y-114422596D01*
X157536496Y-114420918D01*
X157477406Y-114383634D01*
X157447853Y-114320322D01*
X157450900Y-114279261D01*
X157449115Y-114278992D01*
X157450500Y-114269803D01*
X157450500Y-114266633D01*
X157453609Y-114239039D01*
X157454315Y-114235946D01*
X157452078Y-114206106D01*
X157466695Y-114137786D01*
X157515931Y-114088212D01*
X157537067Y-114079518D01*
X157537050Y-114079473D01*
X157539241Y-114078624D01*
X157541793Y-114077574D01*
X157542389Y-114077405D01*
X157733255Y-113982366D01*
X157903407Y-113853872D01*
X158047052Y-113696302D01*
X158159298Y-113515019D01*
X158236321Y-113316198D01*
X158275500Y-113106610D01*
X158275500Y-112893390D01*
X158236321Y-112683802D01*
X158159298Y-112484981D01*
X158047052Y-112303698D01*
X157903407Y-112146128D01*
X157903406Y-112146127D01*
X157733257Y-112017635D01*
X157733255Y-112017634D01*
X157667715Y-111984999D01*
X157616480Y-111937498D01*
X157599058Y-111869835D01*
X157620983Y-111803495D01*
X157675294Y-111759539D01*
X157722988Y-111750000D01*
X157790634Y-111750000D01*
X157790649Y-111749999D01*
X157827489Y-111747100D01*
X157827495Y-111747099D01*
X157985193Y-111701283D01*
X157985196Y-111701282D01*
X158126552Y-111617685D01*
X158126561Y-111617678D01*
X158242678Y-111501561D01*
X158242685Y-111501552D01*
X158326282Y-111360196D01*
X158326283Y-111360193D01*
X158372099Y-111202495D01*
X158372100Y-111202489D01*
X158374999Y-111165649D01*
X158375000Y-111165634D01*
X158375000Y-110800000D01*
X157371836Y-110800000D01*
X157436519Y-110699351D01*
X157475000Y-110568295D01*
X157475000Y-110431705D01*
X157436519Y-110300649D01*
X157371836Y-110200000D01*
X158375000Y-110200000D01*
X158375000Y-109834365D01*
X158374999Y-109834350D01*
X158372100Y-109797510D01*
X158372099Y-109797504D01*
X158326283Y-109639806D01*
X158326282Y-109639803D01*
X158242685Y-109498447D01*
X158242678Y-109498438D01*
X158126561Y-109382321D01*
X158126552Y-109382314D01*
X157985196Y-109298717D01*
X157985193Y-109298716D01*
X157827495Y-109252900D01*
X157827489Y-109252899D01*
X157790649Y-109250000D01*
X157300000Y-109250000D01*
X157300000Y-110131435D01*
X157259445Y-110096295D01*
X157135199Y-110039554D01*
X157033975Y-110025000D01*
X156966025Y-110025000D01*
X156864801Y-110039554D01*
X156740555Y-110096295D01*
X156700000Y-110131435D01*
X156700000Y-109250000D01*
X156209350Y-109250000D01*
X156172510Y-109252899D01*
X156172504Y-109252900D01*
X156014806Y-109298716D01*
X156014803Y-109298717D01*
X155873447Y-109382314D01*
X155873438Y-109382321D01*
X155757321Y-109498438D01*
X155757314Y-109498447D01*
X155673717Y-109639803D01*
X155673716Y-109639806D01*
X155627900Y-109797504D01*
X155627899Y-109797510D01*
X155625000Y-109834350D01*
X155625000Y-110200000D01*
X156628164Y-110200000D01*
X156563481Y-110300649D01*
X156525000Y-110431705D01*
X156525000Y-110568295D01*
X156563481Y-110699351D01*
X156628164Y-110800000D01*
X155625000Y-110800000D01*
X155625000Y-111165649D01*
X155627899Y-111202489D01*
X155627900Y-111202495D01*
X155673716Y-111360193D01*
X155673717Y-111360196D01*
X155757314Y-111501552D01*
X155757321Y-111501561D01*
X155873438Y-111617678D01*
X155873447Y-111617685D01*
X156014803Y-111701282D01*
X156014806Y-111701283D01*
X156172504Y-111747099D01*
X156172510Y-111747100D01*
X156209350Y-111749999D01*
X156209366Y-111750000D01*
X156277012Y-111750000D01*
X156344051Y-111769685D01*
X156389806Y-111822489D01*
X156399750Y-111891647D01*
X156370725Y-111955203D01*
X156332285Y-111984999D01*
X156293593Y-112004265D01*
X156266742Y-112017635D01*
X156096593Y-112146127D01*
X155952947Y-112303699D01*
X155840702Y-112484980D01*
X155840701Y-112484982D01*
X155763680Y-112683799D01*
X155763679Y-112683802D01*
X155724500Y-112893390D01*
X155724500Y-113106610D01*
X155763679Y-113316198D01*
X155840702Y-113515019D01*
X155945689Y-113684579D01*
X155952949Y-113696303D01*
X155975503Y-113721044D01*
X156006120Y-113783848D01*
X155997923Y-113853235D01*
X155968210Y-113895478D01*
X155944105Y-113917845D01*
X155938313Y-113925108D01*
X155937662Y-113924588D01*
X155928267Y-113936828D01*
X155331171Y-114533924D01*
X155270807Y-114615716D01*
X155270807Y-114615717D01*
X155225953Y-114743900D01*
X155220875Y-114879608D01*
X155256375Y-115012097D01*
X155260600Y-115044190D01*
X155260600Y-126185633D01*
X155255091Y-126222181D01*
X155223100Y-126325894D01*
X155223100Y-127388438D01*
X155222320Y-127402323D01*
X155218329Y-127437736D01*
X155228955Y-127493896D01*
X155229732Y-127498465D01*
X155238252Y-127554991D01*
X155240762Y-127563127D01*
X155243576Y-127571170D01*
X155270288Y-127621711D01*
X155272376Y-127625849D01*
X155297174Y-127677341D01*
X155301962Y-127684365D01*
X155307031Y-127691232D01*
X155307034Y-127691238D01*
X155307038Y-127691242D01*
X155347446Y-127731650D01*
X155350663Y-127734989D01*
X155389547Y-127776896D01*
X155396810Y-127782688D01*
X155396289Y-127783341D01*
X155408530Y-127792734D01*
X155730015Y-128114219D01*
X155763500Y-128175542D01*
X155758516Y-128245234D01*
X155730015Y-128289581D01*
X155321663Y-128697932D01*
X155311298Y-128707195D01*
X155283433Y-128729417D01*
X155283430Y-128729421D01*
X155251223Y-128776657D01*
X155248544Y-128780432D01*
X155214606Y-128826418D01*
X155210616Y-128833967D01*
X155206928Y-128841625D01*
X155190073Y-128896267D01*
X155188625Y-128900668D01*
X155169753Y-128954604D01*
X155168171Y-128962959D01*
X155166900Y-128971400D01*
X155166900Y-129028560D01*
X155166813Y-129033197D01*
X155164675Y-129090309D01*
X155165716Y-129099543D01*
X155164885Y-129099636D01*
X155166900Y-129114935D01*
X155166900Y-139284638D01*
X155166120Y-139298523D01*
X155162129Y-139333936D01*
X147748600Y-139333936D01*
X147748600Y-134760559D01*
X147768285Y-134693520D01*
X147821089Y-134647765D01*
X147890247Y-134637821D01*
X147937878Y-134655133D01*
X147984981Y-134684298D01*
X148183802Y-134761321D01*
X148393390Y-134800500D01*
X148393392Y-134800500D01*
X148606608Y-134800500D01*
X148606610Y-134800500D01*
X148816198Y-134761321D01*
X149015019Y-134684298D01*
X149196302Y-134572052D01*
X149353872Y-134428407D01*
X149482366Y-134258255D01*
X149577405Y-134067389D01*
X149635756Y-133862310D01*
X149650500Y-133703194D01*
X149650500Y-133296806D01*
X149635756Y-133137690D01*
X149577405Y-132932611D01*
X149577403Y-132932606D01*
X149577403Y-132932605D01*
X149482367Y-132741746D01*
X149353872Y-132571593D01*
X149251399Y-132478176D01*
X149196302Y-132427948D01*
X149015019Y-132315702D01*
X149010145Y-132312684D01*
X149011441Y-132310589D01*
X148967969Y-132270257D01*
X148950500Y-132206797D01*
X148950500Y-126038761D01*
X148951280Y-126024876D01*
X148955270Y-125989466D01*
X148947464Y-125948213D01*
X148944633Y-125933253D01*
X148943864Y-125928719D01*
X148942941Y-125922595D01*
X148935348Y-125872213D01*
X148935346Y-125872209D01*
X148932833Y-125864061D01*
X148930021Y-125856023D01*
X148903312Y-125805489D01*
X148901221Y-125801347D01*
X148876425Y-125749858D01*
X148871624Y-125742816D01*
X148866567Y-125735965D01*
X148866566Y-125735962D01*
X148826151Y-125695547D01*
X148822933Y-125692207D01*
X148784053Y-125650304D01*
X148776790Y-125644512D01*
X148777310Y-125643859D01*
X148765070Y-125634466D01*
X143195768Y-120065165D01*
X143186502Y-120054797D01*
X143164277Y-120026928D01*
X143138750Y-120009524D01*
X143117033Y-119994718D01*
X143113269Y-119992047D01*
X143067286Y-119958109D01*
X143059697Y-119954098D01*
X143052075Y-119950428D01*
X142997449Y-119933579D01*
X142993044Y-119932130D01*
X142939095Y-119913252D01*
X142930726Y-119911668D01*
X142922304Y-119910400D01*
X142922302Y-119910400D01*
X142865138Y-119910400D01*
X142860501Y-119910313D01*
X142858485Y-119910237D01*
X142803389Y-119908175D01*
X142794156Y-119909216D01*
X142794062Y-119908386D01*
X142778764Y-119910400D01*
X131037666Y-119910400D01*
X130970627Y-119890715D01*
X130949985Y-119874081D01*
X128614447Y-117538544D01*
X128580962Y-117477221D01*
X128579032Y-117465809D01*
X128575337Y-117435381D01*
X128562637Y-117330782D01*
X128519852Y-117217969D01*
X128514486Y-117148308D01*
X128547633Y-117086802D01*
X128608771Y-117052981D01*
X128635795Y-117050000D01*
X131717138Y-117050000D01*
X131731020Y-117050779D01*
X131734608Y-117051184D01*
X131766433Y-117054770D01*
X131766433Y-117054769D01*
X131766435Y-117054770D01*
X131822636Y-117044135D01*
X131827126Y-117043372D01*
X131883687Y-117034848D01*
X131883691Y-117034845D01*
X131891847Y-117032330D01*
X131899869Y-117029524D01*
X131899870Y-117029523D01*
X131899872Y-117029523D01*
X131950488Y-117002770D01*
X131954493Y-117000748D01*
X132006042Y-116975925D01*
X132006043Y-116975923D01*
X132006045Y-116975923D01*
X132013095Y-116971116D01*
X132019934Y-116966067D01*
X132019938Y-116966066D01*
X132060374Y-116925628D01*
X132063660Y-116922462D01*
X132105594Y-116883555D01*
X132105596Y-116883550D01*
X132111387Y-116876290D01*
X132112043Y-116876813D01*
X132121436Y-116864567D01*
X132198687Y-116787318D01*
X132260010Y-116753833D01*
X132286367Y-116751000D01*
X132327385Y-116751000D01*
X132480765Y-116713196D01*
X132547946Y-116677936D01*
X132620640Y-116639783D01*
X132677286Y-116589600D01*
X140912922Y-116589600D01*
X140931962Y-116746418D01*
X140975118Y-116860209D01*
X140987980Y-116894123D01*
X141077717Y-117024130D01*
X141195960Y-117128883D01*
X141195962Y-117128884D01*
X141335834Y-117202296D01*
X141489214Y-117240100D01*
X141489215Y-117240100D01*
X141647185Y-117240100D01*
X141800565Y-117202296D01*
X141808560Y-117198100D01*
X141940440Y-117128883D01*
X142058683Y-117024130D01*
X142148420Y-116894123D01*
X142204437Y-116746418D01*
X142223478Y-116589600D01*
X142222382Y-116580569D01*
X142204437Y-116432781D01*
X142156954Y-116307580D01*
X142148420Y-116285077D01*
X142148419Y-116285075D01*
X142145760Y-116278064D01*
X142147322Y-116277471D01*
X142135381Y-116217888D01*
X142160868Y-116152833D01*
X142171214Y-116141088D01*
X143187384Y-115124919D01*
X143248707Y-115091434D01*
X143275065Y-115088600D01*
X143316085Y-115088600D01*
X143469465Y-115050796D01*
X143477846Y-115046397D01*
X143609340Y-114977383D01*
X143727583Y-114872630D01*
X143817320Y-114742623D01*
X143873337Y-114594918D01*
X143892378Y-114438100D01*
X143890496Y-114422596D01*
X143873337Y-114281281D01*
X143827271Y-114159817D01*
X143817320Y-114133577D01*
X143727583Y-114003570D01*
X143609340Y-113898817D01*
X143609338Y-113898816D01*
X143609337Y-113898815D01*
X143469465Y-113825403D01*
X143316086Y-113787600D01*
X143316085Y-113787600D01*
X143158115Y-113787600D01*
X143158114Y-113787600D01*
X143004734Y-113825403D01*
X142864862Y-113898815D01*
X142746616Y-114003571D01*
X142656881Y-114133575D01*
X142656880Y-114133576D01*
X142600863Y-114281280D01*
X142584467Y-114416308D01*
X142556845Y-114480486D01*
X142549052Y-114489042D01*
X141272463Y-115765632D01*
X141262098Y-115774895D01*
X141234233Y-115797117D01*
X141234230Y-115797121D01*
X141202023Y-115844357D01*
X141199344Y-115848132D01*
X141165406Y-115894118D01*
X141161416Y-115901667D01*
X141157728Y-115909325D01*
X141140873Y-115963967D01*
X141139425Y-115968368D01*
X141120553Y-116022304D01*
X141118971Y-116030659D01*
X141117700Y-116039100D01*
X141117700Y-116063840D01*
X141098015Y-116130879D01*
X141082353Y-116149156D01*
X141082691Y-116149456D01*
X141077715Y-116155072D01*
X140987981Y-116285075D01*
X140987980Y-116285076D01*
X140931962Y-116432781D01*
X140912922Y-116589599D01*
X140912922Y-116589600D01*
X132677286Y-116589600D01*
X132738883Y-116535030D01*
X132828620Y-116405023D01*
X132884637Y-116257318D01*
X132903678Y-116100500D01*
X132895226Y-116030886D01*
X132884637Y-115943681D01*
X132863392Y-115887664D01*
X132828620Y-115795977D01*
X132738883Y-115665970D01*
X132620640Y-115561217D01*
X132620638Y-115561216D01*
X132620637Y-115561215D01*
X132480765Y-115487803D01*
X132327386Y-115450000D01*
X132327385Y-115450000D01*
X132169415Y-115450000D01*
X132169414Y-115450000D01*
X132016034Y-115487803D01*
X131876162Y-115561215D01*
X131757916Y-115665971D01*
X131668181Y-115795975D01*
X131668180Y-115795976D01*
X131612163Y-115943680D01*
X131600474Y-116039947D01*
X131572852Y-116104125D01*
X131514918Y-116143181D01*
X131477378Y-116149000D01*
X126233566Y-116149000D01*
X126166527Y-116129315D01*
X126145885Y-116112681D01*
X125678868Y-115645665D01*
X125669602Y-115635297D01*
X125647377Y-115607428D01*
X125621850Y-115590024D01*
X125600133Y-115575218D01*
X125596369Y-115572547D01*
X125550386Y-115538609D01*
X125542797Y-115534598D01*
X125535175Y-115530928D01*
X125480549Y-115514079D01*
X125476144Y-115512630D01*
X125422195Y-115493752D01*
X125413826Y-115492168D01*
X125405404Y-115490900D01*
X125405402Y-115490900D01*
X125348238Y-115490900D01*
X125343601Y-115490813D01*
X125341585Y-115490737D01*
X125286489Y-115488675D01*
X125277256Y-115489716D01*
X125277162Y-115488886D01*
X125261864Y-115490900D01*
X117764593Y-115490900D01*
X117697554Y-115471215D01*
X117651799Y-115418411D01*
X117641855Y-115349253D01*
X117648651Y-115322929D01*
X117656621Y-115301911D01*
X117672737Y-115259418D01*
X117691778Y-115102600D01*
X117677497Y-114984980D01*
X117672737Y-114945781D01*
X117647641Y-114879610D01*
X117616720Y-114798077D01*
X117526983Y-114668070D01*
X117408740Y-114563317D01*
X117408738Y-114563316D01*
X117408737Y-114563315D01*
X117268865Y-114489903D01*
X117115486Y-114452100D01*
X117115485Y-114452100D01*
X117074466Y-114452100D01*
X117007427Y-114432415D01*
X116986785Y-114415781D01*
X113936819Y-111365815D01*
X113903334Y-111304492D01*
X113900500Y-111278134D01*
X113900500Y-105913202D01*
X113920185Y-105846163D01*
X113961351Y-105809265D01*
X113960144Y-105807316D01*
X113965016Y-105804298D01*
X113965019Y-105804298D01*
X114146302Y-105692052D01*
X114303872Y-105548407D01*
X114432366Y-105378255D01*
X114486270Y-105270000D01*
X114527403Y-105187394D01*
X114527403Y-105187393D01*
X114527405Y-105187389D01*
X114585756Y-104982310D01*
X114596529Y-104866047D01*
X114622315Y-104801111D01*
X114664622Y-104770804D01*
X114773130Y-104770804D01*
X114809503Y-104791668D01*
X114841693Y-104853681D01*
X114843470Y-104866047D01*
X114854244Y-104982310D01*
X114866923Y-105026873D01*
X114912596Y-105187392D01*
X114912596Y-105187394D01*
X115007632Y-105378253D01*
X115136127Y-105548406D01*
X115136128Y-105548407D01*
X115293698Y-105692052D01*
X115474981Y-105804298D01*
X115673802Y-105881321D01*
X115883390Y-105920500D01*
X115883392Y-105920500D01*
X116096608Y-105920500D01*
X116096610Y-105920500D01*
X116306198Y-105881321D01*
X116505019Y-105804298D01*
X116686302Y-105692052D01*
X116843872Y-105548407D01*
X116972366Y-105378255D01*
X117026270Y-105270000D01*
X117067403Y-105187394D01*
X117067403Y-105187393D01*
X117067405Y-105187389D01*
X117125756Y-104982310D01*
X117145429Y-104770000D01*
X117125756Y-104557690D01*
X117067405Y-104352611D01*
X117067403Y-104352606D01*
X117067403Y-104352605D01*
X116972367Y-104161746D01*
X116843872Y-103991593D01*
X116716133Y-103875143D01*
X116686302Y-103847948D01*
X116505019Y-103735702D01*
X116505017Y-103735701D01*
X116369838Y-103683333D01*
X116306198Y-103658679D01*
X116109385Y-103621888D01*
X116047106Y-103590221D01*
X116011833Y-103529908D01*
X116014767Y-103460100D01*
X116054976Y-103402960D01*
X116109384Y-103378111D01*
X116306198Y-103341321D01*
X116505019Y-103264298D01*
X116686302Y-103152052D01*
X116843872Y-103008407D01*
X116972366Y-102838255D01*
X116977956Y-102827028D01*
X117067403Y-102647394D01*
X117067403Y-102647393D01*
X117067405Y-102647389D01*
X117125756Y-102442310D01*
X117136529Y-102326047D01*
X117162315Y-102261111D01*
X117204622Y-102230804D01*
X117313130Y-102230804D01*
X117349503Y-102251668D01*
X117381693Y-102313681D01*
X117383471Y-102326048D01*
X117394244Y-102442310D01*
X117452596Y-102647392D01*
X117452596Y-102647394D01*
X117547632Y-102838253D01*
X117669779Y-103000000D01*
X117676128Y-103008407D01*
X117833698Y-103152052D01*
X118014981Y-103264298D01*
X118213802Y-103341321D01*
X118423390Y-103380500D01*
X118423392Y-103380500D01*
X118636608Y-103380500D01*
X118636610Y-103380500D01*
X118846198Y-103341321D01*
X119045019Y-103264298D01*
X119226302Y-103152052D01*
X119383872Y-103008407D01*
X119512366Y-102838255D01*
X119517956Y-102827028D01*
X119607403Y-102647394D01*
X119607403Y-102647393D01*
X119607405Y-102647389D01*
X119665756Y-102442310D01*
X119676529Y-102326047D01*
X119702315Y-102261111D01*
X119744622Y-102230804D01*
X119853130Y-102230804D01*
X119889503Y-102251668D01*
X119921693Y-102313681D01*
X119923471Y-102326048D01*
X119934244Y-102442310D01*
X119992596Y-102647392D01*
X119992596Y-102647394D01*
X120087632Y-102838253D01*
X120209779Y-103000000D01*
X120216128Y-103008407D01*
X120373698Y-103152052D01*
X120554981Y-103264298D01*
X120753802Y-103341321D01*
X120950613Y-103378111D01*
X121012893Y-103409779D01*
X121048166Y-103470092D01*
X121045232Y-103539900D01*
X121005023Y-103597040D01*
X120950613Y-103621888D01*
X120753802Y-103658679D01*
X120753799Y-103658679D01*
X120753799Y-103658680D01*
X120554982Y-103735701D01*
X120554980Y-103735702D01*
X120373699Y-103847947D01*
X120216127Y-103991593D01*
X120087632Y-104161746D01*
X119992596Y-104352605D01*
X119992596Y-104352607D01*
X119934244Y-104557689D01*
X119927060Y-104635224D01*
X119914571Y-104770000D01*
X119934244Y-104982310D01*
X119946923Y-105026873D01*
X119992596Y-105187392D01*
X119992596Y-105187394D01*
X120087632Y-105378253D01*
X120216127Y-105548406D01*
X120216128Y-105548407D01*
X120373698Y-105692052D01*
X120554981Y-105804298D01*
X120753802Y-105881321D01*
X120963390Y-105920500D01*
X120963392Y-105920500D01*
X121176608Y-105920500D01*
X121176610Y-105920500D01*
X121386198Y-105881321D01*
X121585019Y-105804298D01*
X121766302Y-105692052D01*
X121923872Y-105548407D01*
X122052366Y-105378255D01*
X122106270Y-105270000D01*
X122147403Y-105187394D01*
X122147403Y-105187393D01*
X122147405Y-105187389D01*
X122205756Y-104982310D01*
X122216529Y-104866047D01*
X122242315Y-104801111D01*
X122284622Y-104770804D01*
X122393130Y-104770804D01*
X122429503Y-104791668D01*
X122461693Y-104853681D01*
X122463470Y-104866047D01*
X122474244Y-104982310D01*
X122486923Y-105026873D01*
X122532596Y-105187392D01*
X122532596Y-105187394D01*
X122627632Y-105378253D01*
X122756127Y-105548406D01*
X122756128Y-105548407D01*
X122913698Y-105692052D01*
X123094981Y-105804298D01*
X123293802Y-105881321D01*
X123503390Y-105920500D01*
X123503392Y-105920500D01*
X123716608Y-105920500D01*
X123716610Y-105920500D01*
X123926198Y-105881321D01*
X124125019Y-105804298D01*
X124306302Y-105692052D01*
X124463872Y-105548407D01*
X124592366Y-105378255D01*
X124646270Y-105270000D01*
X124687403Y-105187394D01*
X124687403Y-105187393D01*
X124687405Y-105187389D01*
X124745756Y-104982310D01*
X124756529Y-104866047D01*
X124782315Y-104801111D01*
X124824622Y-104770804D01*
X124933130Y-104770804D01*
X124969503Y-104791668D01*
X125001693Y-104853681D01*
X125003470Y-104866047D01*
X125014244Y-104982310D01*
X125026923Y-105026873D01*
X125072596Y-105187392D01*
X125072596Y-105187394D01*
X125167632Y-105378253D01*
X125296127Y-105548406D01*
X125296128Y-105548407D01*
X125453698Y-105692052D01*
X125634981Y-105804298D01*
X125833802Y-105881321D01*
X126043390Y-105920500D01*
X126043392Y-105920500D01*
X126256608Y-105920500D01*
X126256610Y-105920500D01*
X126466198Y-105881321D01*
X126665019Y-105804298D01*
X126846302Y-105692052D01*
X127003872Y-105548407D01*
X127132366Y-105378255D01*
X127186270Y-105270000D01*
X127227403Y-105187394D01*
X127227403Y-105187393D01*
X127227405Y-105187389D01*
X127285756Y-104982310D01*
X127296529Y-104866047D01*
X127322315Y-104801111D01*
X127364622Y-104770804D01*
X127473130Y-104770804D01*
X127509503Y-104791668D01*
X127541693Y-104853681D01*
X127543470Y-104866047D01*
X127554244Y-104982310D01*
X127566923Y-105026873D01*
X127612596Y-105187392D01*
X127612596Y-105187394D01*
X127707632Y-105378253D01*
X127836127Y-105548406D01*
X127836128Y-105548407D01*
X127993698Y-105692052D01*
X128174981Y-105804298D01*
X128373802Y-105881321D01*
X128583390Y-105920500D01*
X128583392Y-105920500D01*
X128796608Y-105920500D01*
X128796610Y-105920500D01*
X129006198Y-105881321D01*
X129205019Y-105804298D01*
X129386302Y-105692052D01*
X129543872Y-105548407D01*
X129672366Y-105378255D01*
X129726270Y-105270000D01*
X129767403Y-105187394D01*
X129767403Y-105187393D01*
X129767405Y-105187389D01*
X129825756Y-104982310D01*
X129836529Y-104866047D01*
X129862315Y-104801111D01*
X129904622Y-104770804D01*
X130013130Y-104770804D01*
X130049503Y-104791668D01*
X130081693Y-104853681D01*
X130083470Y-104866047D01*
X130094244Y-104982310D01*
X130106923Y-105026873D01*
X130152596Y-105187392D01*
X130152596Y-105187394D01*
X130247632Y-105378253D01*
X130376127Y-105548406D01*
X130376128Y-105548407D01*
X130533698Y-105692052D01*
X130714981Y-105804298D01*
X130913802Y-105881321D01*
X131123390Y-105920500D01*
X131123392Y-105920500D01*
X131336608Y-105920500D01*
X131336610Y-105920500D01*
X131546198Y-105881321D01*
X131745019Y-105804298D01*
X131926302Y-105692052D01*
X132083872Y-105548407D01*
X132212366Y-105378255D01*
X132266270Y-105270000D01*
X132307403Y-105187394D01*
X132307403Y-105187393D01*
X132307405Y-105187389D01*
X132365756Y-104982310D01*
X132376529Y-104866047D01*
X132402315Y-104801111D01*
X132444622Y-104770804D01*
X132553130Y-104770804D01*
X132589503Y-104791668D01*
X132621693Y-104853681D01*
X132623470Y-104866047D01*
X132634244Y-104982310D01*
X132646923Y-105026873D01*
X132692596Y-105187392D01*
X132692596Y-105187394D01*
X132787632Y-105378253D01*
X132916127Y-105548406D01*
X132916128Y-105548407D01*
X133073698Y-105692052D01*
X133254981Y-105804298D01*
X133453802Y-105881321D01*
X133663390Y-105920500D01*
X133663392Y-105920500D01*
X133876608Y-105920500D01*
X133876610Y-105920500D01*
X134086198Y-105881321D01*
X134285019Y-105804298D01*
X134466302Y-105692052D01*
X134623872Y-105548407D01*
X134752366Y-105378255D01*
X134806270Y-105270000D01*
X134847403Y-105187394D01*
X134847403Y-105187393D01*
X134847405Y-105187389D01*
X134905756Y-104982310D01*
X134916529Y-104866047D01*
X134942315Y-104801111D01*
X134984622Y-104770804D01*
X135093130Y-104770804D01*
X135129503Y-104791668D01*
X135161693Y-104853681D01*
X135163470Y-104866047D01*
X135174244Y-104982310D01*
X135186923Y-105026873D01*
X135232596Y-105187392D01*
X135232596Y-105187394D01*
X135327632Y-105378253D01*
X135456127Y-105548406D01*
X135456128Y-105548407D01*
X135613698Y-105692052D01*
X135794981Y-105804298D01*
X135993802Y-105881321D01*
X136203390Y-105920500D01*
X136203392Y-105920500D01*
X136416608Y-105920500D01*
X136416610Y-105920500D01*
X136626198Y-105881321D01*
X136825019Y-105804298D01*
X137006302Y-105692052D01*
X137163872Y-105548407D01*
X137292366Y-105378255D01*
X137346270Y-105270000D01*
X137387403Y-105187394D01*
X137387403Y-105187393D01*
X137387405Y-105187389D01*
X137445756Y-104982310D01*
X137465429Y-104770000D01*
X137445756Y-104557690D01*
X137387405Y-104352611D01*
X137387403Y-104352606D01*
X137387403Y-104352605D01*
X137292367Y-104161746D01*
X137163872Y-103991593D01*
X137036133Y-103875143D01*
X137006302Y-103847948D01*
X136825019Y-103735702D01*
X136825017Y-103735701D01*
X136689838Y-103683333D01*
X136626198Y-103658679D01*
X136429385Y-103621888D01*
X136367106Y-103590221D01*
X136331833Y-103529908D01*
X136334767Y-103460100D01*
X136374976Y-103402960D01*
X136429384Y-103378111D01*
X136626198Y-103341321D01*
X136825019Y-103264298D01*
X137006302Y-103152052D01*
X137163872Y-103008407D01*
X137292366Y-102838255D01*
X137297956Y-102827028D01*
X137387403Y-102647394D01*
X137387403Y-102647393D01*
X137387405Y-102647389D01*
X137445756Y-102442310D01*
X137456529Y-102326047D01*
X137482315Y-102261111D01*
X137524622Y-102230804D01*
X137633130Y-102230804D01*
X137669503Y-102251668D01*
X137701693Y-102313681D01*
X137703471Y-102326048D01*
X137714244Y-102442310D01*
X137772596Y-102647392D01*
X137772596Y-102647394D01*
X137867632Y-102838253D01*
X137989779Y-103000000D01*
X137996128Y-103008407D01*
X138153698Y-103152052D01*
X138334981Y-103264298D01*
X138533802Y-103341321D01*
X138743390Y-103380500D01*
X138743392Y-103380500D01*
X138956608Y-103380500D01*
X138956610Y-103380500D01*
X139166198Y-103341321D01*
X139365019Y-103264298D01*
X139546302Y-103152052D01*
X139703872Y-103008407D01*
X139832366Y-102838255D01*
X139837956Y-102827028D01*
X139927403Y-102647394D01*
X139927403Y-102647393D01*
X139927405Y-102647389D01*
X139985756Y-102442310D01*
X139996529Y-102326047D01*
X140022315Y-102261111D01*
X140064622Y-102230804D01*
X140173130Y-102230804D01*
X140209503Y-102251668D01*
X140241693Y-102313681D01*
X140243471Y-102326048D01*
X140254244Y-102442310D01*
X140312596Y-102647392D01*
X140312596Y-102647394D01*
X140407632Y-102838253D01*
X140529779Y-103000000D01*
X140536128Y-103008407D01*
X140693698Y-103152052D01*
X140874981Y-103264298D01*
X141073802Y-103341321D01*
X141270613Y-103378111D01*
X141332893Y-103409779D01*
X141368166Y-103470092D01*
X141365232Y-103539900D01*
X141325023Y-103597040D01*
X141270613Y-103621888D01*
X141073802Y-103658679D01*
X141073799Y-103658679D01*
X141073799Y-103658680D01*
X140874982Y-103735701D01*
X140874980Y-103735702D01*
X140693699Y-103847947D01*
X140536127Y-103991593D01*
X140407632Y-104161746D01*
X140312596Y-104352605D01*
X140312596Y-104352607D01*
X140254244Y-104557689D01*
X140247060Y-104635224D01*
X140234571Y-104770000D01*
X140254244Y-104982310D01*
X140266923Y-105026873D01*
X140312596Y-105187392D01*
X140312596Y-105187394D01*
X140407632Y-105378253D01*
X140536127Y-105548406D01*
X140536128Y-105548407D01*
X140693698Y-105692052D01*
X140874981Y-105804298D01*
X141073802Y-105881321D01*
X141283390Y-105920500D01*
X141283392Y-105920500D01*
X141496608Y-105920500D01*
X141496610Y-105920500D01*
X141706198Y-105881321D01*
X141905019Y-105804298D01*
X142086302Y-105692052D01*
X142243872Y-105548407D01*
X142372366Y-105378255D01*
X142426270Y-105270000D01*
X142467403Y-105187394D01*
X142467403Y-105187393D01*
X142467405Y-105187389D01*
X142525756Y-104982310D01*
X142536529Y-104866047D01*
X142562315Y-104801111D01*
X142604622Y-104770804D01*
X142713130Y-104770804D01*
X142749503Y-104791668D01*
X142781693Y-104853681D01*
X142783470Y-104866047D01*
X142794244Y-104982310D01*
X142806923Y-105026873D01*
X142852596Y-105187392D01*
X142852596Y-105187394D01*
X142947632Y-105378253D01*
X143076127Y-105548406D01*
X143076128Y-105548407D01*
X143233698Y-105692052D01*
X143414981Y-105804298D01*
X143613802Y-105881321D01*
X143823390Y-105920500D01*
X143823392Y-105920500D01*
X144036608Y-105920500D01*
X144036610Y-105920500D01*
X144246198Y-105881321D01*
X144445019Y-105804298D01*
X144626302Y-105692052D01*
X144783872Y-105548407D01*
X144912366Y-105378255D01*
X144966270Y-105270000D01*
X145007403Y-105187394D01*
X145007403Y-105187393D01*
X145007405Y-105187389D01*
X145065756Y-104982310D01*
X145076529Y-104866047D01*
X145102315Y-104801111D01*
X145144622Y-104770804D01*
X145253130Y-104770804D01*
X145289503Y-104791668D01*
X145321693Y-104853681D01*
X145323470Y-104866047D01*
X145334244Y-104982310D01*
X145346923Y-105026873D01*
X145392596Y-105187392D01*
X145392596Y-105187394D01*
X145487632Y-105378253D01*
X145616127Y-105548406D01*
X145616128Y-105548407D01*
X145773698Y-105692052D01*
X145954981Y-105804298D01*
X146153802Y-105881321D01*
X146363390Y-105920500D01*
X146363392Y-105920500D01*
X146576608Y-105920500D01*
X146576610Y-105920500D01*
X146786198Y-105881321D01*
X146985019Y-105804298D01*
X147166302Y-105692052D01*
X147323872Y-105548407D01*
X147452366Y-105378255D01*
X147506270Y-105270000D01*
X147547403Y-105187394D01*
X147547403Y-105187393D01*
X147547405Y-105187389D01*
X147605756Y-104982310D01*
X147616529Y-104866047D01*
X147642315Y-104801111D01*
X147684622Y-104770804D01*
X147793130Y-104770804D01*
X147829503Y-104791668D01*
X147861693Y-104853681D01*
X147863470Y-104866047D01*
X147874244Y-104982310D01*
X147886923Y-105026873D01*
X147932596Y-105187392D01*
X147932596Y-105187394D01*
X148027632Y-105378253D01*
X148156127Y-105548406D01*
X148156128Y-105548407D01*
X148313698Y-105692052D01*
X148494981Y-105804298D01*
X148693802Y-105881321D01*
X148903390Y-105920500D01*
X148903392Y-105920500D01*
X149116608Y-105920500D01*
X149116610Y-105920500D01*
X149326198Y-105881321D01*
X149525019Y-105804298D01*
X149706302Y-105692052D01*
X149863872Y-105548407D01*
X149992366Y-105378255D01*
X150046270Y-105270000D01*
X150087403Y-105187394D01*
X150087403Y-105187393D01*
X150087405Y-105187389D01*
X150145756Y-104982310D01*
X150156529Y-104866047D01*
X150182315Y-104801111D01*
X150224622Y-104770804D01*
X150333130Y-104770804D01*
X150369503Y-104791668D01*
X150401693Y-104853681D01*
X150403470Y-104866047D01*
X150414244Y-104982310D01*
X150426923Y-105026873D01*
X150472596Y-105187392D01*
X150472596Y-105187394D01*
X150567632Y-105378253D01*
X150696127Y-105548406D01*
X150696128Y-105548407D01*
X150853698Y-105692052D01*
X151034981Y-105804298D01*
X151233802Y-105881321D01*
X151443390Y-105920500D01*
X151443392Y-105920500D01*
X151656608Y-105920500D01*
X151656610Y-105920500D01*
X151866198Y-105881321D01*
X152065019Y-105804298D01*
X152246302Y-105692052D01*
X152403872Y-105548407D01*
X152532366Y-105378255D01*
X152586270Y-105270000D01*
X152627403Y-105187394D01*
X152627403Y-105187393D01*
X152627405Y-105187389D01*
X152685756Y-104982310D01*
X152696529Y-104866047D01*
X152722315Y-104801111D01*
X152764622Y-104770804D01*
X152873130Y-104770804D01*
X152909503Y-104791668D01*
X152941693Y-104853681D01*
X152943470Y-104866047D01*
X152954244Y-104982310D01*
X152966923Y-105026873D01*
X153012596Y-105187392D01*
X153012596Y-105187394D01*
X153107632Y-105378253D01*
X153236127Y-105548406D01*
X153236128Y-105548407D01*
X153393698Y-105692052D01*
X153574981Y-105804298D01*
X153773802Y-105881321D01*
X153983390Y-105920500D01*
X153983392Y-105920500D01*
X154196608Y-105920500D01*
X154196610Y-105920500D01*
X154406198Y-105881321D01*
X154605019Y-105804298D01*
X154786302Y-105692052D01*
X154943872Y-105548407D01*
X155072366Y-105378255D01*
X155126270Y-105270000D01*
X155167403Y-105187394D01*
X155167403Y-105187392D01*
X155167405Y-105187389D01*
X155188928Y-105111744D01*
X155226206Y-105052653D01*
X155289515Y-105023095D01*
X155358755Y-105032457D01*
X155411942Y-105077766D01*
X155427968Y-105113587D01*
X155450894Y-105199150D01*
X155450898Y-105199159D01*
X155543333Y-105397387D01*
X155668787Y-105576554D01*
X155823445Y-105731212D01*
X156002612Y-105856666D01*
X156200840Y-105949101D01*
X156200851Y-105949106D01*
X156329999Y-105983710D01*
X156330000Y-105983709D01*
X156330000Y-105171643D01*
X156356900Y-105194952D01*
X156487685Y-105254680D01*
X156594237Y-105270000D01*
X156665763Y-105270000D01*
X156772315Y-105254680D01*
X156903100Y-105194952D01*
X156930000Y-105171643D01*
X156930000Y-105983710D01*
X157059148Y-105949106D01*
X157059159Y-105949101D01*
X157257387Y-105856666D01*
X157436554Y-105731212D01*
X157591212Y-105576554D01*
X157716666Y-105397387D01*
X157809101Y-105199159D01*
X157809104Y-105199153D01*
X157843711Y-105070000D01*
X157031554Y-105070000D01*
X157089493Y-104979844D01*
X157130000Y-104841889D01*
X157130000Y-104698111D01*
X157089493Y-104560156D01*
X157031554Y-104470000D01*
X157843711Y-104470000D01*
X157843710Y-104469999D01*
X157809104Y-104340846D01*
X157809101Y-104340840D01*
X157716666Y-104142612D01*
X157716664Y-104142608D01*
X157591216Y-103963450D01*
X157591211Y-103963444D01*
X157436554Y-103808787D01*
X157257387Y-103683333D01*
X157059159Y-103590898D01*
X157059150Y-103590894D01*
X156978263Y-103569221D01*
X156918602Y-103532856D01*
X156902642Y-103500000D01*
X159894551Y-103500000D01*
X159914317Y-103751151D01*
X159973126Y-103996110D01*
X160069533Y-104228859D01*
X160201160Y-104443653D01*
X160201161Y-104443656D01*
X160201164Y-104443659D01*
X160364776Y-104635224D01*
X160481058Y-104734538D01*
X160556343Y-104798838D01*
X160556345Y-104798838D01*
X160563642Y-104803310D01*
X160771140Y-104930466D01*
X160896304Y-104982310D01*
X161003889Y-105026873D01*
X161248852Y-105085683D01*
X161437118Y-105100500D01*
X161437126Y-105100500D01*
X161562874Y-105100500D01*
X161562882Y-105100500D01*
X161751148Y-105085683D01*
X161996111Y-105026873D01*
X162228859Y-104930466D01*
X162443659Y-104798836D01*
X162635224Y-104635224D01*
X162798836Y-104443659D01*
X162930466Y-104228859D01*
X163026873Y-103996111D01*
X163085683Y-103751148D01*
X163105449Y-103500000D01*
X163085683Y-103248852D01*
X163026873Y-103003889D01*
X163001995Y-102943827D01*
X162930466Y-102771140D01*
X162798839Y-102556346D01*
X162798838Y-102556343D01*
X162701444Y-102442310D01*
X162635224Y-102364776D01*
X162477422Y-102230000D01*
X162443656Y-102201161D01*
X162443653Y-102201160D01*
X162228859Y-102069533D01*
X161996110Y-101973126D01*
X161751151Y-101914317D01*
X161562887Y-101899500D01*
X161562882Y-101899500D01*
X161437118Y-101899500D01*
X161437112Y-101899500D01*
X161248848Y-101914317D01*
X161003889Y-101973126D01*
X160771140Y-102069533D01*
X160556346Y-102201160D01*
X160556343Y-102201161D01*
X160364776Y-102364776D01*
X160201161Y-102556343D01*
X160201160Y-102556346D01*
X160069533Y-102771140D01*
X159973126Y-103003889D01*
X159914317Y-103248848D01*
X159894551Y-103500000D01*
X156902642Y-103500000D01*
X156888073Y-103470009D01*
X156896368Y-103400634D01*
X156940853Y-103346756D01*
X156965558Y-103333820D01*
X157145019Y-103264298D01*
X157326302Y-103152052D01*
X157483872Y-103008407D01*
X157612366Y-102838255D01*
X157617956Y-102827028D01*
X157707403Y-102647394D01*
X157707403Y-102647393D01*
X157707405Y-102647389D01*
X157765756Y-102442310D01*
X157785429Y-102230000D01*
X157765756Y-102017690D01*
X157707405Y-101812611D01*
X157707403Y-101812606D01*
X157707403Y-101812605D01*
X157612367Y-101621746D01*
X157483872Y-101451593D01*
X157342340Y-101322569D01*
X157326302Y-101307948D01*
X157145019Y-101195702D01*
X157145017Y-101195701D01*
X157045608Y-101157190D01*
X156946198Y-101118679D01*
X156736610Y-101079500D01*
X156523390Y-101079500D01*
X156313802Y-101118679D01*
X156313799Y-101118679D01*
X156313799Y-101118680D01*
X156114982Y-101195701D01*
X156114980Y-101195702D01*
X155933699Y-101307947D01*
X155776127Y-101451593D01*
X155647632Y-101621746D01*
X155552596Y-101812605D01*
X155552596Y-101812607D01*
X155494244Y-102017689D01*
X155483471Y-102133951D01*
X155457685Y-102198888D01*
X155413130Y-102230804D01*
X155449503Y-102251668D01*
X155481693Y-102313681D01*
X155483471Y-102326048D01*
X155494244Y-102442310D01*
X155552596Y-102647392D01*
X155552596Y-102647394D01*
X155647632Y-102838253D01*
X155769779Y-103000000D01*
X155776128Y-103008407D01*
X155933698Y-103152052D01*
X156114981Y-103264298D01*
X156294437Y-103333819D01*
X156349838Y-103376392D01*
X156373429Y-103442159D01*
X156357718Y-103510239D01*
X156307694Y-103559018D01*
X156281737Y-103569221D01*
X156200847Y-103590895D01*
X156200840Y-103590898D01*
X156002612Y-103683333D01*
X156002608Y-103683335D01*
X155823450Y-103808783D01*
X155823444Y-103808788D01*
X155668788Y-103963444D01*
X155668783Y-103963450D01*
X155543335Y-104142608D01*
X155543333Y-104142612D01*
X155450898Y-104340840D01*
X155450895Y-104340847D01*
X155427968Y-104426413D01*
X155391603Y-104486073D01*
X155328756Y-104516602D01*
X155259380Y-104508307D01*
X155205502Y-104463822D01*
X155188927Y-104428253D01*
X155167405Y-104352611D01*
X155167403Y-104352608D01*
X155167403Y-104352605D01*
X155072367Y-104161746D01*
X154943872Y-103991593D01*
X154816133Y-103875143D01*
X154786302Y-103847948D01*
X154605019Y-103735702D01*
X154605017Y-103735701D01*
X154469838Y-103683333D01*
X154406198Y-103658679D01*
X154209385Y-103621888D01*
X154147106Y-103590221D01*
X154111833Y-103529908D01*
X154114767Y-103460100D01*
X154154976Y-103402960D01*
X154209384Y-103378111D01*
X154406198Y-103341321D01*
X154605019Y-103264298D01*
X154786302Y-103152052D01*
X154943872Y-103008407D01*
X155072366Y-102838255D01*
X155077956Y-102827028D01*
X155167403Y-102647394D01*
X155167403Y-102647393D01*
X155167405Y-102647389D01*
X155225756Y-102442310D01*
X155236529Y-102326047D01*
X155262315Y-102261111D01*
X155306869Y-102229194D01*
X155270497Y-102208331D01*
X155238307Y-102146318D01*
X155236529Y-102133951D01*
X155233566Y-102101975D01*
X155225756Y-102017690D01*
X155167405Y-101812611D01*
X155167403Y-101812606D01*
X155167403Y-101812605D01*
X155072367Y-101621746D01*
X154943872Y-101451593D01*
X154802340Y-101322569D01*
X154786302Y-101307948D01*
X154605019Y-101195702D01*
X154605017Y-101195701D01*
X154505608Y-101157190D01*
X154406198Y-101118679D01*
X154196610Y-101079500D01*
X153983390Y-101079500D01*
X153773802Y-101118679D01*
X153773799Y-101118679D01*
X153773799Y-101118680D01*
X153574982Y-101195701D01*
X153574980Y-101195702D01*
X153393699Y-101307947D01*
X153236127Y-101451593D01*
X153107632Y-101621746D01*
X153012596Y-101812605D01*
X153012596Y-101812607D01*
X152954244Y-102017689D01*
X152943471Y-102133951D01*
X152917685Y-102198888D01*
X152873130Y-102230804D01*
X152909503Y-102251668D01*
X152941693Y-102313681D01*
X152943471Y-102326048D01*
X152954244Y-102442310D01*
X153012596Y-102647392D01*
X153012596Y-102647394D01*
X153107632Y-102838253D01*
X153229779Y-103000000D01*
X153236128Y-103008407D01*
X153393698Y-103152052D01*
X153574981Y-103264298D01*
X153773802Y-103341321D01*
X153970613Y-103378111D01*
X154032893Y-103409779D01*
X154068166Y-103470092D01*
X154065232Y-103539900D01*
X154025023Y-103597040D01*
X153970613Y-103621888D01*
X153773802Y-103658679D01*
X153773799Y-103658679D01*
X153773799Y-103658680D01*
X153574982Y-103735701D01*
X153574980Y-103735702D01*
X153393699Y-103847947D01*
X153236127Y-103991593D01*
X153107632Y-104161746D01*
X153012596Y-104352605D01*
X153012596Y-104352607D01*
X152954244Y-104557689D01*
X152943471Y-104673951D01*
X152917685Y-104738888D01*
X152873130Y-104770804D01*
X152764622Y-104770804D01*
X152766869Y-104769194D01*
X152730497Y-104748331D01*
X152698307Y-104686318D01*
X152696529Y-104673951D01*
X152692940Y-104635223D01*
X152685756Y-104557690D01*
X152627405Y-104352611D01*
X152627403Y-104352606D01*
X152627403Y-104352605D01*
X152532367Y-104161746D01*
X152403872Y-103991593D01*
X152276133Y-103875143D01*
X152246302Y-103847948D01*
X152065019Y-103735702D01*
X152065017Y-103735701D01*
X151929838Y-103683333D01*
X151866198Y-103658679D01*
X151669385Y-103621888D01*
X151607106Y-103590221D01*
X151571833Y-103529908D01*
X151574767Y-103460100D01*
X151614976Y-103402960D01*
X151669384Y-103378111D01*
X151866198Y-103341321D01*
X152065019Y-103264298D01*
X152246302Y-103152052D01*
X152403872Y-103008407D01*
X152532366Y-102838255D01*
X152537956Y-102827028D01*
X152627403Y-102647394D01*
X152627403Y-102647393D01*
X152627405Y-102647389D01*
X152685756Y-102442310D01*
X152696529Y-102326047D01*
X152722315Y-102261111D01*
X152766869Y-102229194D01*
X152730497Y-102208331D01*
X152698307Y-102146318D01*
X152696529Y-102133951D01*
X152693566Y-102101975D01*
X152685756Y-102017690D01*
X152627405Y-101812611D01*
X152627403Y-101812606D01*
X152627403Y-101812605D01*
X152532367Y-101621746D01*
X152403872Y-101451593D01*
X152262340Y-101322569D01*
X152246302Y-101307948D01*
X152065019Y-101195702D01*
X152065017Y-101195701D01*
X151965608Y-101157190D01*
X151866198Y-101118679D01*
X151656610Y-101079500D01*
X151443390Y-101079500D01*
X151233802Y-101118679D01*
X151233799Y-101118679D01*
X151233799Y-101118680D01*
X151034982Y-101195701D01*
X151034980Y-101195702D01*
X150853699Y-101307947D01*
X150696127Y-101451593D01*
X150567632Y-101621746D01*
X150472596Y-101812605D01*
X150472596Y-101812607D01*
X150414244Y-102017689D01*
X150394571Y-102229999D01*
X150394571Y-102230000D01*
X150414244Y-102442310D01*
X150472596Y-102647392D01*
X150472596Y-102647394D01*
X150567632Y-102838253D01*
X150689779Y-103000000D01*
X150696128Y-103008407D01*
X150853698Y-103152052D01*
X151034981Y-103264298D01*
X151233802Y-103341321D01*
X151430613Y-103378111D01*
X151492893Y-103409779D01*
X151528166Y-103470092D01*
X151525232Y-103539900D01*
X151485023Y-103597040D01*
X151430613Y-103621888D01*
X151233802Y-103658679D01*
X151233799Y-103658679D01*
X151233799Y-103658680D01*
X151034982Y-103735701D01*
X151034980Y-103735702D01*
X150853699Y-103847947D01*
X150696127Y-103991593D01*
X150567632Y-104161746D01*
X150472596Y-104352605D01*
X150472596Y-104352607D01*
X150414244Y-104557689D01*
X150403471Y-104673951D01*
X150377685Y-104738888D01*
X150333130Y-104770804D01*
X150224622Y-104770804D01*
X150226869Y-104769194D01*
X150190497Y-104748331D01*
X150158307Y-104686318D01*
X150156529Y-104673951D01*
X150152940Y-104635223D01*
X150145756Y-104557690D01*
X150087405Y-104352611D01*
X150087403Y-104352606D01*
X150087403Y-104352605D01*
X149992367Y-104161746D01*
X149863872Y-103991593D01*
X149736133Y-103875143D01*
X149706302Y-103847948D01*
X149525019Y-103735702D01*
X149525017Y-103735701D01*
X149389838Y-103683333D01*
X149326198Y-103658679D01*
X149116610Y-103619500D01*
X148903390Y-103619500D01*
X148693802Y-103658679D01*
X148693799Y-103658679D01*
X148693799Y-103658680D01*
X148494982Y-103735701D01*
X148494980Y-103735702D01*
X148313699Y-103847947D01*
X148156127Y-103991593D01*
X148027632Y-104161746D01*
X147932596Y-104352605D01*
X147932596Y-104352607D01*
X147874244Y-104557689D01*
X147863471Y-104673951D01*
X147837685Y-104738888D01*
X147793130Y-104770804D01*
X147684622Y-104770804D01*
X147686869Y-104769194D01*
X147650497Y-104748331D01*
X147618307Y-104686318D01*
X147616529Y-104673951D01*
X147612940Y-104635223D01*
X147605756Y-104557690D01*
X147547405Y-104352611D01*
X147547403Y-104352606D01*
X147547403Y-104352605D01*
X147452367Y-104161746D01*
X147323872Y-103991593D01*
X147196133Y-103875143D01*
X147166302Y-103847948D01*
X146985019Y-103735702D01*
X146985017Y-103735701D01*
X146849838Y-103683333D01*
X146786198Y-103658679D01*
X146589385Y-103621888D01*
X146527106Y-103590221D01*
X146491833Y-103529908D01*
X146494767Y-103460100D01*
X146534976Y-103402960D01*
X146589384Y-103378111D01*
X146786198Y-103341321D01*
X146985019Y-103264298D01*
X147166302Y-103152052D01*
X147323872Y-103008407D01*
X147452366Y-102838255D01*
X147457956Y-102827028D01*
X147547403Y-102647394D01*
X147547403Y-102647393D01*
X147547405Y-102647389D01*
X147605756Y-102442310D01*
X147625429Y-102230000D01*
X147605756Y-102017690D01*
X147547405Y-101812611D01*
X147547403Y-101812606D01*
X147547403Y-101812605D01*
X147452367Y-101621746D01*
X147323872Y-101451593D01*
X147182340Y-101322569D01*
X147166302Y-101307948D01*
X146985019Y-101195702D01*
X146985017Y-101195701D01*
X146885608Y-101157190D01*
X146786198Y-101118679D01*
X146576610Y-101079500D01*
X146363390Y-101079500D01*
X146153802Y-101118679D01*
X146153799Y-101118679D01*
X146153799Y-101118680D01*
X145954982Y-101195701D01*
X145954980Y-101195702D01*
X145773699Y-101307947D01*
X145616127Y-101451593D01*
X145487632Y-101621746D01*
X145392596Y-101812605D01*
X145392596Y-101812607D01*
X145334244Y-102017689D01*
X145314571Y-102229999D01*
X145314571Y-102230000D01*
X145334244Y-102442310D01*
X145392596Y-102647392D01*
X145392596Y-102647394D01*
X145487632Y-102838253D01*
X145609779Y-103000000D01*
X145616128Y-103008407D01*
X145773698Y-103152052D01*
X145954981Y-103264298D01*
X146153802Y-103341321D01*
X146350613Y-103378111D01*
X146412893Y-103409779D01*
X146448166Y-103470092D01*
X146445232Y-103539900D01*
X146405023Y-103597040D01*
X146350613Y-103621888D01*
X146153802Y-103658679D01*
X146153799Y-103658679D01*
X146153799Y-103658680D01*
X145954982Y-103735701D01*
X145954980Y-103735702D01*
X145773699Y-103847947D01*
X145616127Y-103991593D01*
X145487632Y-104161746D01*
X145392596Y-104352605D01*
X145392596Y-104352607D01*
X145334244Y-104557689D01*
X145323471Y-104673951D01*
X145297685Y-104738888D01*
X145253130Y-104770804D01*
X145144622Y-104770804D01*
X145146869Y-104769194D01*
X145110497Y-104748331D01*
X145078307Y-104686318D01*
X145076529Y-104673951D01*
X145072940Y-104635223D01*
X145065756Y-104557690D01*
X145007405Y-104352611D01*
X145007403Y-104352606D01*
X145007403Y-104352605D01*
X144912367Y-104161746D01*
X144783872Y-103991593D01*
X144656133Y-103875143D01*
X144626302Y-103847948D01*
X144445019Y-103735702D01*
X144445017Y-103735701D01*
X144309838Y-103683333D01*
X144246198Y-103658679D01*
X144036610Y-103619500D01*
X143823390Y-103619500D01*
X143613802Y-103658679D01*
X143613799Y-103658679D01*
X143613799Y-103658680D01*
X143414982Y-103735701D01*
X143414980Y-103735702D01*
X143233699Y-103847947D01*
X143076127Y-103991593D01*
X142947632Y-104161746D01*
X142852596Y-104352605D01*
X142852596Y-104352607D01*
X142794244Y-104557689D01*
X142783471Y-104673951D01*
X142757685Y-104738888D01*
X142713130Y-104770804D01*
X142604622Y-104770804D01*
X142606869Y-104769194D01*
X142570497Y-104748331D01*
X142538307Y-104686318D01*
X142536529Y-104673951D01*
X142532940Y-104635223D01*
X142525756Y-104557690D01*
X142467405Y-104352611D01*
X142467403Y-104352606D01*
X142467403Y-104352605D01*
X142372367Y-104161746D01*
X142243872Y-103991593D01*
X142116133Y-103875143D01*
X142086302Y-103847948D01*
X141905019Y-103735702D01*
X141905017Y-103735701D01*
X141769838Y-103683333D01*
X141706198Y-103658679D01*
X141509385Y-103621888D01*
X141447106Y-103590221D01*
X141411833Y-103529908D01*
X141414767Y-103460100D01*
X141454976Y-103402960D01*
X141509384Y-103378111D01*
X141706198Y-103341321D01*
X141905019Y-103264298D01*
X142086302Y-103152052D01*
X142243872Y-103008407D01*
X142372366Y-102838255D01*
X142377956Y-102827028D01*
X142467403Y-102647394D01*
X142467403Y-102647393D01*
X142467405Y-102647389D01*
X142525756Y-102442310D01*
X142545429Y-102230000D01*
X142525756Y-102017690D01*
X142467405Y-101812611D01*
X142467403Y-101812606D01*
X142467403Y-101812605D01*
X142372367Y-101621746D01*
X142243872Y-101451593D01*
X142102340Y-101322569D01*
X142086302Y-101307948D01*
X141905019Y-101195702D01*
X141905017Y-101195701D01*
X141805608Y-101157190D01*
X141706198Y-101118679D01*
X141496610Y-101079500D01*
X141283390Y-101079500D01*
X141073802Y-101118679D01*
X141073799Y-101118679D01*
X141073799Y-101118680D01*
X140874982Y-101195701D01*
X140874980Y-101195702D01*
X140693699Y-101307947D01*
X140536127Y-101451593D01*
X140407632Y-101621746D01*
X140312596Y-101812605D01*
X140312596Y-101812607D01*
X140254244Y-102017689D01*
X140243471Y-102133951D01*
X140217685Y-102198888D01*
X140173130Y-102230804D01*
X140064622Y-102230804D01*
X140066869Y-102229194D01*
X140030497Y-102208331D01*
X139998307Y-102146318D01*
X139996529Y-102133951D01*
X139993566Y-102101975D01*
X139985756Y-102017690D01*
X139927405Y-101812611D01*
X139927403Y-101812606D01*
X139927403Y-101812605D01*
X139832367Y-101621746D01*
X139703872Y-101451593D01*
X139562340Y-101322569D01*
X139546302Y-101307948D01*
X139365019Y-101195702D01*
X139365017Y-101195701D01*
X139265608Y-101157190D01*
X139166198Y-101118679D01*
X138956610Y-101079500D01*
X138743390Y-101079500D01*
X138533802Y-101118679D01*
X138533799Y-101118679D01*
X138533799Y-101118680D01*
X138334982Y-101195701D01*
X138334980Y-101195702D01*
X138153699Y-101307947D01*
X137996127Y-101451593D01*
X137867632Y-101621746D01*
X137772596Y-101812605D01*
X137772596Y-101812607D01*
X137714244Y-102017689D01*
X137703471Y-102133951D01*
X137677685Y-102198888D01*
X137633130Y-102230804D01*
X137524622Y-102230804D01*
X137526869Y-102229194D01*
X137490497Y-102208331D01*
X137458307Y-102146318D01*
X137456529Y-102133951D01*
X137453566Y-102101975D01*
X137445756Y-102017690D01*
X137387405Y-101812611D01*
X137387403Y-101812606D01*
X137387403Y-101812605D01*
X137292367Y-101621746D01*
X137163872Y-101451593D01*
X137022340Y-101322569D01*
X137006302Y-101307948D01*
X136825019Y-101195702D01*
X136825017Y-101195701D01*
X136725608Y-101157190D01*
X136626198Y-101118679D01*
X136416610Y-101079500D01*
X136203390Y-101079500D01*
X135993802Y-101118679D01*
X135993799Y-101118679D01*
X135993799Y-101118680D01*
X135794982Y-101195701D01*
X135794980Y-101195702D01*
X135613699Y-101307947D01*
X135456127Y-101451593D01*
X135327632Y-101621746D01*
X135232596Y-101812605D01*
X135232596Y-101812607D01*
X135174244Y-102017689D01*
X135163471Y-102133951D01*
X135137685Y-102198888D01*
X135093130Y-102230804D01*
X135129503Y-102251668D01*
X135161693Y-102313681D01*
X135163471Y-102326048D01*
X135174244Y-102442310D01*
X135232596Y-102647392D01*
X135232596Y-102647394D01*
X135327632Y-102838253D01*
X135449779Y-103000000D01*
X135456128Y-103008407D01*
X135613698Y-103152052D01*
X135794981Y-103264298D01*
X135993802Y-103341321D01*
X136190613Y-103378111D01*
X136252893Y-103409779D01*
X136288166Y-103470092D01*
X136285232Y-103539900D01*
X136245023Y-103597040D01*
X136190613Y-103621888D01*
X135993802Y-103658679D01*
X135993799Y-103658679D01*
X135993799Y-103658680D01*
X135794982Y-103735701D01*
X135794980Y-103735702D01*
X135613699Y-103847947D01*
X135456127Y-103991593D01*
X135327632Y-104161746D01*
X135232596Y-104352605D01*
X135232596Y-104352607D01*
X135174244Y-104557689D01*
X135163471Y-104673951D01*
X135137685Y-104738888D01*
X135093130Y-104770804D01*
X134984622Y-104770804D01*
X134986869Y-104769194D01*
X134950497Y-104748331D01*
X134918307Y-104686318D01*
X134916529Y-104673951D01*
X134912940Y-104635223D01*
X134905756Y-104557690D01*
X134847405Y-104352611D01*
X134847403Y-104352606D01*
X134847403Y-104352605D01*
X134752367Y-104161746D01*
X134623872Y-103991593D01*
X134496133Y-103875143D01*
X134466302Y-103847948D01*
X134285019Y-103735702D01*
X134285017Y-103735701D01*
X134149838Y-103683333D01*
X134086198Y-103658679D01*
X133889385Y-103621888D01*
X133827106Y-103590221D01*
X133791833Y-103529908D01*
X133794767Y-103460100D01*
X133834976Y-103402960D01*
X133889384Y-103378111D01*
X134086198Y-103341321D01*
X134285019Y-103264298D01*
X134466302Y-103152052D01*
X134623872Y-103008407D01*
X134752366Y-102838255D01*
X134757956Y-102827028D01*
X134847403Y-102647394D01*
X134847403Y-102647393D01*
X134847405Y-102647389D01*
X134905756Y-102442310D01*
X134916529Y-102326047D01*
X134942315Y-102261111D01*
X134986869Y-102229194D01*
X134950497Y-102208331D01*
X134918307Y-102146318D01*
X134916529Y-102133951D01*
X134913566Y-102101975D01*
X134905756Y-102017690D01*
X134847405Y-101812611D01*
X134847403Y-101812606D01*
X134847403Y-101812605D01*
X134752367Y-101621746D01*
X134623872Y-101451593D01*
X134482340Y-101322569D01*
X134466302Y-101307948D01*
X134285019Y-101195702D01*
X134285017Y-101195701D01*
X134185608Y-101157190D01*
X134086198Y-101118679D01*
X133876610Y-101079500D01*
X133663390Y-101079500D01*
X133453802Y-101118679D01*
X133453799Y-101118679D01*
X133453799Y-101118680D01*
X133254982Y-101195701D01*
X133254980Y-101195702D01*
X133073699Y-101307947D01*
X132916127Y-101451593D01*
X132787632Y-101621746D01*
X132692596Y-101812605D01*
X132692596Y-101812607D01*
X132634244Y-102017689D01*
X132614571Y-102229999D01*
X132614571Y-102230000D01*
X132634244Y-102442310D01*
X132692596Y-102647392D01*
X132692596Y-102647394D01*
X132787632Y-102838253D01*
X132909779Y-103000000D01*
X132916128Y-103008407D01*
X133073698Y-103152052D01*
X133254981Y-103264298D01*
X133453802Y-103341321D01*
X133650613Y-103378111D01*
X133712893Y-103409779D01*
X133748166Y-103470092D01*
X133745232Y-103539900D01*
X133705023Y-103597040D01*
X133650613Y-103621888D01*
X133453802Y-103658679D01*
X133453799Y-103658679D01*
X133453799Y-103658680D01*
X133254982Y-103735701D01*
X133254980Y-103735702D01*
X133073699Y-103847947D01*
X132916127Y-103991593D01*
X132787632Y-104161746D01*
X132692596Y-104352605D01*
X132692596Y-104352607D01*
X132634244Y-104557689D01*
X132623471Y-104673951D01*
X132597685Y-104738888D01*
X132553130Y-104770804D01*
X132444622Y-104770804D01*
X132446869Y-104769194D01*
X132410497Y-104748331D01*
X132378307Y-104686318D01*
X132376529Y-104673951D01*
X132372940Y-104635223D01*
X132365756Y-104557690D01*
X132307405Y-104352611D01*
X132307403Y-104352606D01*
X132307403Y-104352605D01*
X132212367Y-104161746D01*
X132083872Y-103991593D01*
X131956133Y-103875143D01*
X131926302Y-103847948D01*
X131745019Y-103735702D01*
X131745017Y-103735701D01*
X131609838Y-103683333D01*
X131546198Y-103658679D01*
X131336610Y-103619500D01*
X131123390Y-103619500D01*
X130913802Y-103658679D01*
X130913799Y-103658679D01*
X130913799Y-103658680D01*
X130714982Y-103735701D01*
X130714980Y-103735702D01*
X130533699Y-103847947D01*
X130376127Y-103991593D01*
X130247632Y-104161746D01*
X130152596Y-104352605D01*
X130152596Y-104352607D01*
X130094244Y-104557689D01*
X130083471Y-104673951D01*
X130057685Y-104738888D01*
X130013130Y-104770804D01*
X129904622Y-104770804D01*
X129906869Y-104769194D01*
X129870497Y-104748331D01*
X129838307Y-104686318D01*
X129836529Y-104673951D01*
X129832940Y-104635223D01*
X129825756Y-104557690D01*
X129767405Y-104352611D01*
X129767403Y-104352606D01*
X129767403Y-104352605D01*
X129672367Y-104161746D01*
X129543872Y-103991593D01*
X129416133Y-103875143D01*
X129386302Y-103847948D01*
X129205019Y-103735702D01*
X129205017Y-103735701D01*
X129069838Y-103683333D01*
X129006198Y-103658679D01*
X128809385Y-103621888D01*
X128747106Y-103590221D01*
X128711833Y-103529908D01*
X128714767Y-103460100D01*
X128754976Y-103402960D01*
X128809384Y-103378111D01*
X129006198Y-103341321D01*
X129205019Y-103264298D01*
X129386302Y-103152052D01*
X129543872Y-103008407D01*
X129672366Y-102838255D01*
X129677956Y-102827028D01*
X129767403Y-102647394D01*
X129767403Y-102647393D01*
X129767405Y-102647389D01*
X129825756Y-102442310D01*
X129845429Y-102230000D01*
X129825756Y-102017690D01*
X129767405Y-101812611D01*
X129767403Y-101812606D01*
X129767403Y-101812605D01*
X129672367Y-101621746D01*
X129543872Y-101451593D01*
X129402340Y-101322569D01*
X129386302Y-101307948D01*
X129205019Y-101195702D01*
X129205017Y-101195701D01*
X129105608Y-101157190D01*
X129006198Y-101118679D01*
X128796610Y-101079500D01*
X128583390Y-101079500D01*
X128373802Y-101118679D01*
X128373799Y-101118679D01*
X128373799Y-101118680D01*
X128174982Y-101195701D01*
X128174980Y-101195702D01*
X127993699Y-101307947D01*
X127836127Y-101451593D01*
X127707632Y-101621746D01*
X127612596Y-101812605D01*
X127612596Y-101812607D01*
X127554244Y-102017689D01*
X127543471Y-102133951D01*
X127517685Y-102198888D01*
X127473130Y-102230804D01*
X127509503Y-102251668D01*
X127541693Y-102313681D01*
X127543471Y-102326048D01*
X127554244Y-102442310D01*
X127612596Y-102647392D01*
X127612596Y-102647394D01*
X127707632Y-102838253D01*
X127829779Y-103000000D01*
X127836128Y-103008407D01*
X127993698Y-103152052D01*
X128174981Y-103264298D01*
X128373802Y-103341321D01*
X128570613Y-103378111D01*
X128632893Y-103409779D01*
X128668166Y-103470092D01*
X128665232Y-103539900D01*
X128625023Y-103597040D01*
X128570613Y-103621888D01*
X128373802Y-103658679D01*
X128373799Y-103658679D01*
X128373799Y-103658680D01*
X128174982Y-103735701D01*
X128174980Y-103735702D01*
X127993699Y-103847947D01*
X127836127Y-103991593D01*
X127707632Y-104161746D01*
X127612596Y-104352605D01*
X127612596Y-104352607D01*
X127554244Y-104557689D01*
X127543471Y-104673951D01*
X127517685Y-104738888D01*
X127473130Y-104770804D01*
X127364622Y-104770804D01*
X127366869Y-104769194D01*
X127330497Y-104748331D01*
X127298307Y-104686318D01*
X127296529Y-104673951D01*
X127292940Y-104635223D01*
X127285756Y-104557690D01*
X127227405Y-104352611D01*
X127227403Y-104352606D01*
X127227403Y-104352605D01*
X127132367Y-104161746D01*
X127003872Y-103991593D01*
X126876133Y-103875143D01*
X126846302Y-103847948D01*
X126665019Y-103735702D01*
X126665017Y-103735701D01*
X126529838Y-103683333D01*
X126466198Y-103658679D01*
X126269385Y-103621888D01*
X126207106Y-103590221D01*
X126171833Y-103529908D01*
X126174767Y-103460100D01*
X126214976Y-103402960D01*
X126269384Y-103378111D01*
X126466198Y-103341321D01*
X126665019Y-103264298D01*
X126846302Y-103152052D01*
X127003872Y-103008407D01*
X127132366Y-102838255D01*
X127137956Y-102827028D01*
X127227403Y-102647394D01*
X127227403Y-102647393D01*
X127227405Y-102647389D01*
X127285756Y-102442310D01*
X127296529Y-102326047D01*
X127322315Y-102261111D01*
X127366869Y-102229194D01*
X127330497Y-102208331D01*
X127298307Y-102146318D01*
X127296529Y-102133951D01*
X127293566Y-102101975D01*
X127285756Y-102017690D01*
X127227405Y-101812611D01*
X127227403Y-101812606D01*
X127227403Y-101812605D01*
X127132367Y-101621746D01*
X127003872Y-101451593D01*
X126862340Y-101322569D01*
X126846302Y-101307948D01*
X126665019Y-101195702D01*
X126665017Y-101195701D01*
X126565608Y-101157190D01*
X126466198Y-101118679D01*
X126256610Y-101079500D01*
X126043390Y-101079500D01*
X125833802Y-101118679D01*
X125833799Y-101118679D01*
X125833799Y-101118680D01*
X125634982Y-101195701D01*
X125634980Y-101195702D01*
X125453699Y-101307947D01*
X125296127Y-101451593D01*
X125167632Y-101621746D01*
X125072596Y-101812605D01*
X125072596Y-101812607D01*
X125014244Y-102017689D01*
X124994571Y-102229999D01*
X124994571Y-102230000D01*
X125014244Y-102442310D01*
X125072596Y-102647392D01*
X125072596Y-102647394D01*
X125167632Y-102838253D01*
X125289779Y-103000000D01*
X125296128Y-103008407D01*
X125453698Y-103152052D01*
X125634981Y-103264298D01*
X125833802Y-103341321D01*
X126030613Y-103378111D01*
X126092893Y-103409779D01*
X126128166Y-103470092D01*
X126125232Y-103539900D01*
X126085023Y-103597040D01*
X126030613Y-103621888D01*
X125833802Y-103658679D01*
X125833799Y-103658679D01*
X125833799Y-103658680D01*
X125634982Y-103735701D01*
X125634980Y-103735702D01*
X125453699Y-103847947D01*
X125296127Y-103991593D01*
X125167632Y-104161746D01*
X125072596Y-104352605D01*
X125072596Y-104352607D01*
X125014244Y-104557689D01*
X125003471Y-104673951D01*
X124977685Y-104738888D01*
X124933130Y-104770804D01*
X124824622Y-104770804D01*
X124826869Y-104769194D01*
X124790497Y-104748331D01*
X124758307Y-104686318D01*
X124756529Y-104673951D01*
X124752940Y-104635223D01*
X124745756Y-104557690D01*
X124687405Y-104352611D01*
X124687403Y-104352606D01*
X124687403Y-104352605D01*
X124592367Y-104161746D01*
X124463872Y-103991593D01*
X124336133Y-103875143D01*
X124306302Y-103847948D01*
X124125019Y-103735702D01*
X124125017Y-103735701D01*
X123989838Y-103683333D01*
X123926198Y-103658679D01*
X123716610Y-103619500D01*
X123503390Y-103619500D01*
X123293802Y-103658679D01*
X123293799Y-103658679D01*
X123293799Y-103658680D01*
X123094982Y-103735701D01*
X123094980Y-103735702D01*
X122913699Y-103847947D01*
X122756127Y-103991593D01*
X122627632Y-104161746D01*
X122532596Y-104352605D01*
X122532596Y-104352607D01*
X122474244Y-104557689D01*
X122463471Y-104673951D01*
X122437685Y-104738888D01*
X122393130Y-104770804D01*
X122284622Y-104770804D01*
X122286869Y-104769194D01*
X122250497Y-104748331D01*
X122218307Y-104686318D01*
X122216529Y-104673951D01*
X122212940Y-104635223D01*
X122205756Y-104557690D01*
X122147405Y-104352611D01*
X122147403Y-104352606D01*
X122147403Y-104352605D01*
X122052367Y-104161746D01*
X121923872Y-103991593D01*
X121796133Y-103875143D01*
X121766302Y-103847948D01*
X121585019Y-103735702D01*
X121585017Y-103735701D01*
X121449838Y-103683333D01*
X121386198Y-103658679D01*
X121189385Y-103621888D01*
X121127106Y-103590221D01*
X121091833Y-103529908D01*
X121094767Y-103460100D01*
X121134976Y-103402960D01*
X121189384Y-103378111D01*
X121386198Y-103341321D01*
X121585019Y-103264298D01*
X121766302Y-103152052D01*
X121923872Y-103008407D01*
X122052366Y-102838255D01*
X122057956Y-102827028D01*
X122147403Y-102647394D01*
X122147403Y-102647393D01*
X122147405Y-102647389D01*
X122205756Y-102442310D01*
X122225429Y-102230000D01*
X122205756Y-102017690D01*
X122147405Y-101812611D01*
X122147403Y-101812606D01*
X122147403Y-101812605D01*
X122052367Y-101621746D01*
X121923872Y-101451593D01*
X121782340Y-101322569D01*
X121766302Y-101307948D01*
X121585019Y-101195702D01*
X121585017Y-101195701D01*
X121485608Y-101157190D01*
X121386198Y-101118679D01*
X121176610Y-101079500D01*
X120963390Y-101079500D01*
X120753802Y-101118679D01*
X120753799Y-101118679D01*
X120753799Y-101118680D01*
X120554982Y-101195701D01*
X120554980Y-101195702D01*
X120373699Y-101307947D01*
X120216127Y-101451593D01*
X120087632Y-101621746D01*
X119992596Y-101812605D01*
X119992596Y-101812607D01*
X119934244Y-102017689D01*
X119923471Y-102133951D01*
X119897685Y-102198888D01*
X119853130Y-102230804D01*
X119744622Y-102230804D01*
X119746869Y-102229194D01*
X119710497Y-102208331D01*
X119678307Y-102146318D01*
X119676529Y-102133951D01*
X119673566Y-102101975D01*
X119665756Y-102017690D01*
X119607405Y-101812611D01*
X119607403Y-101812606D01*
X119607403Y-101812605D01*
X119512367Y-101621746D01*
X119383872Y-101451593D01*
X119242340Y-101322569D01*
X119226302Y-101307948D01*
X119045019Y-101195702D01*
X119045017Y-101195701D01*
X118945608Y-101157190D01*
X118846198Y-101118679D01*
X118636610Y-101079500D01*
X118423390Y-101079500D01*
X118213802Y-101118679D01*
X118213799Y-101118679D01*
X118213799Y-101118680D01*
X118014982Y-101195701D01*
X118014980Y-101195702D01*
X117833699Y-101307947D01*
X117676127Y-101451593D01*
X117547632Y-101621746D01*
X117452596Y-101812605D01*
X117452596Y-101812607D01*
X117394244Y-102017689D01*
X117383471Y-102133951D01*
X117357685Y-102198888D01*
X117313130Y-102230804D01*
X117204622Y-102230804D01*
X117206869Y-102229194D01*
X117170497Y-102208331D01*
X117138307Y-102146318D01*
X117136529Y-102133951D01*
X117133566Y-102101975D01*
X117125756Y-102017690D01*
X117067405Y-101812611D01*
X117067403Y-101812606D01*
X117067403Y-101812605D01*
X116972367Y-101621746D01*
X116843872Y-101451593D01*
X116702340Y-101322569D01*
X116686302Y-101307948D01*
X116505019Y-101195702D01*
X116505017Y-101195701D01*
X116405608Y-101157190D01*
X116306198Y-101118679D01*
X116096610Y-101079500D01*
X115883390Y-101079500D01*
X115673802Y-101118679D01*
X115673799Y-101118679D01*
X115673799Y-101118680D01*
X115474982Y-101195701D01*
X115474980Y-101195702D01*
X115293699Y-101307947D01*
X115136127Y-101451593D01*
X115007632Y-101621746D01*
X114912596Y-101812605D01*
X114912596Y-101812607D01*
X114854244Y-102017689D01*
X114834571Y-102229999D01*
X114834571Y-102230000D01*
X114854244Y-102442310D01*
X114912596Y-102647392D01*
X114912596Y-102647394D01*
X115007632Y-102838253D01*
X115129779Y-103000000D01*
X115136128Y-103008407D01*
X115293698Y-103152052D01*
X115474981Y-103264298D01*
X115673802Y-103341321D01*
X115870613Y-103378111D01*
X115932893Y-103409779D01*
X115968166Y-103470092D01*
X115965232Y-103539900D01*
X115925023Y-103597040D01*
X115870613Y-103621888D01*
X115673802Y-103658679D01*
X115673799Y-103658679D01*
X115673799Y-103658680D01*
X115474982Y-103735701D01*
X115474980Y-103735702D01*
X115293699Y-103847947D01*
X115136127Y-103991593D01*
X115007632Y-104161746D01*
X114912596Y-104352605D01*
X114912596Y-104352607D01*
X114854244Y-104557689D01*
X114843471Y-104673951D01*
X114817685Y-104738888D01*
X114773130Y-104770804D01*
X114664622Y-104770804D01*
X114666869Y-104769194D01*
X114630497Y-104748331D01*
X114598307Y-104686318D01*
X114596529Y-104673951D01*
X114592940Y-104635223D01*
X114585756Y-104557690D01*
X114527405Y-104352611D01*
X114527403Y-104352606D01*
X114527403Y-104352605D01*
X114432367Y-104161746D01*
X114303872Y-103991593D01*
X114176133Y-103875143D01*
X114146302Y-103847948D01*
X113965019Y-103735702D01*
X113965017Y-103735701D01*
X113829838Y-103683333D01*
X113766198Y-103658679D01*
X113556610Y-103619500D01*
X113343390Y-103619500D01*
X113133802Y-103658679D01*
X113133799Y-103658679D01*
X113133799Y-103658680D01*
X112934982Y-103735701D01*
X112934980Y-103735702D01*
X112753699Y-103847947D01*
X112596127Y-103991593D01*
X112467632Y-104161746D01*
X112372596Y-104352605D01*
X112372596Y-104352607D01*
X112314244Y-104557689D01*
X112303471Y-104673951D01*
X112277685Y-104738888D01*
X112233130Y-104770804D01*
X112269503Y-104791668D01*
X112301693Y-104853681D01*
X112303470Y-104866047D01*
X112314244Y-104982310D01*
X112326923Y-105026873D01*
X112372596Y-105187392D01*
X112372596Y-105187394D01*
X112467632Y-105378253D01*
X112596127Y-105548406D01*
X112596128Y-105548407D01*
X112753698Y-105692052D01*
X112934981Y-105804298D01*
X112934983Y-105804298D01*
X112939856Y-105807316D01*
X112938553Y-105809419D01*
X112982003Y-105849695D01*
X112999500Y-105913202D01*
X112999500Y-111483838D01*
X112998720Y-111497723D01*
X112994729Y-111533136D01*
X113005355Y-111589296D01*
X113006132Y-111593865D01*
X113014652Y-111650391D01*
X113017162Y-111658527D01*
X113019976Y-111666570D01*
X113019976Y-111666571D01*
X113019977Y-111666572D01*
X113038322Y-111701283D01*
X113046688Y-111717111D01*
X113048776Y-111721249D01*
X113073574Y-111772741D01*
X113078383Y-111779796D01*
X113083432Y-111786636D01*
X113123844Y-111827047D01*
X113127064Y-111830389D01*
X113165944Y-111872293D01*
X113173207Y-111878085D01*
X113172685Y-111878738D01*
X113184930Y-111888134D01*
X116348452Y-115051655D01*
X116381937Y-115112978D01*
X116383867Y-115124389D01*
X116400263Y-115259419D01*
X116424349Y-115322929D01*
X116429716Y-115392593D01*
X116396568Y-115454099D01*
X116335430Y-115487920D01*
X116308407Y-115490900D01*
X113480265Y-115490900D01*
X113413226Y-115471215D01*
X113392584Y-115454581D01*
X112688047Y-114750044D01*
X112654562Y-114688721D01*
X112652632Y-114677309D01*
X112648846Y-114646127D01*
X112636237Y-114542282D01*
X112580220Y-114394577D01*
X112490483Y-114264570D01*
X112372240Y-114159817D01*
X112372238Y-114159816D01*
X112372237Y-114159815D01*
X112232365Y-114086403D01*
X112078986Y-114048600D01*
X112078985Y-114048600D01*
X112037965Y-114048600D01*
X111970926Y-114028915D01*
X111950284Y-114012281D01*
X111396819Y-113458816D01*
X111363334Y-113397493D01*
X111360500Y-113371135D01*
X111360500Y-105913202D01*
X111380185Y-105846163D01*
X111421351Y-105809265D01*
X111420144Y-105807316D01*
X111425016Y-105804298D01*
X111425019Y-105804298D01*
X111606302Y-105692052D01*
X111763872Y-105548407D01*
X111892366Y-105378255D01*
X111946270Y-105270000D01*
X111987403Y-105187394D01*
X111987403Y-105187393D01*
X111987405Y-105187389D01*
X112045756Y-104982310D01*
X112056529Y-104866047D01*
X112082315Y-104801111D01*
X112126869Y-104769194D01*
X112090497Y-104748331D01*
X112058307Y-104686318D01*
X112056529Y-104673951D01*
X112052940Y-104635223D01*
X112045756Y-104557690D01*
X111987405Y-104352611D01*
X111987403Y-104352606D01*
X111987403Y-104352605D01*
X111892367Y-104161746D01*
X111763872Y-103991593D01*
X111636133Y-103875143D01*
X111606302Y-103847948D01*
X111425019Y-103735702D01*
X111425017Y-103735701D01*
X111289838Y-103683333D01*
X111226198Y-103658679D01*
X111029385Y-103621888D01*
X110967106Y-103590221D01*
X110931833Y-103529908D01*
X110934767Y-103460100D01*
X110974976Y-103402960D01*
X111029384Y-103378111D01*
X111226198Y-103341321D01*
X111425019Y-103264298D01*
X111606302Y-103152052D01*
X111763872Y-103008407D01*
X111892366Y-102838255D01*
X111897956Y-102827028D01*
X111987403Y-102647394D01*
X111987403Y-102647393D01*
X111987405Y-102647389D01*
X112045756Y-102442310D01*
X112065429Y-102230000D01*
X112045756Y-102017690D01*
X111987405Y-101812611D01*
X111987403Y-101812606D01*
X111987403Y-101812605D01*
X111892367Y-101621746D01*
X111763872Y-101451593D01*
X111622340Y-101322569D01*
X111606302Y-101307948D01*
X111425019Y-101195702D01*
X111425017Y-101195701D01*
X111325608Y-101157190D01*
X111226198Y-101118679D01*
X111016610Y-101079500D01*
X110803390Y-101079500D01*
X110593802Y-101118679D01*
X110593799Y-101118679D01*
X110593799Y-101118680D01*
X110394982Y-101195701D01*
X110394980Y-101195702D01*
X110213699Y-101307947D01*
X110056127Y-101451593D01*
X109927632Y-101621746D01*
X109832596Y-101812605D01*
X109832596Y-101812607D01*
X109774244Y-102017689D01*
X109763471Y-102133951D01*
X109737685Y-102198888D01*
X109693130Y-102230804D01*
X109729503Y-102251668D01*
X109761693Y-102313681D01*
X109763471Y-102326048D01*
X109774244Y-102442310D01*
X109832596Y-102647392D01*
X109832596Y-102647394D01*
X109927632Y-102838253D01*
X110049779Y-103000000D01*
X110056128Y-103008407D01*
X110213698Y-103152052D01*
X110394981Y-103264298D01*
X110593802Y-103341321D01*
X110790613Y-103378111D01*
X110852893Y-103409779D01*
X110888166Y-103470092D01*
X110885232Y-103539900D01*
X110845023Y-103597040D01*
X110790613Y-103621888D01*
X110593802Y-103658679D01*
X110593799Y-103658679D01*
X110593799Y-103658680D01*
X110394982Y-103735701D01*
X110394980Y-103735702D01*
X110213699Y-103847947D01*
X110056127Y-103991593D01*
X109927632Y-104161746D01*
X109832596Y-104352605D01*
X109832596Y-104352607D01*
X109774244Y-104557689D01*
X109767970Y-104625394D01*
X109742183Y-104690331D01*
X109685383Y-104731018D01*
X109615602Y-104734538D01*
X109554995Y-104699772D01*
X109522806Y-104637759D01*
X109520499Y-104613952D01*
X109520499Y-103875143D01*
X109520499Y-103875136D01*
X109520497Y-103875117D01*
X109517586Y-103850012D01*
X109517585Y-103850010D01*
X109517585Y-103850009D01*
X109472206Y-103747235D01*
X109392765Y-103667794D01*
X109372124Y-103658680D01*
X109289992Y-103622415D01*
X109264868Y-103619500D01*
X108536243Y-103619500D01*
X108469204Y-103599815D01*
X108423449Y-103547011D01*
X108413505Y-103477853D01*
X108442530Y-103414297D01*
X108501308Y-103376523D01*
X108513441Y-103373614D01*
X108686198Y-103341321D01*
X108885019Y-103264298D01*
X109066302Y-103152052D01*
X109223872Y-103008407D01*
X109352366Y-102838255D01*
X109357956Y-102827028D01*
X109447403Y-102647394D01*
X109447403Y-102647393D01*
X109447405Y-102647389D01*
X109505756Y-102442310D01*
X109516529Y-102326047D01*
X109542315Y-102261111D01*
X109586869Y-102229194D01*
X109550497Y-102208331D01*
X109518307Y-102146318D01*
X109516529Y-102133951D01*
X109513566Y-102101975D01*
X109505756Y-102017690D01*
X109447405Y-101812611D01*
X109447403Y-101812606D01*
X109447403Y-101812605D01*
X109352367Y-101621746D01*
X109223872Y-101451593D01*
X109082340Y-101322569D01*
X109066302Y-101307948D01*
X108885019Y-101195702D01*
X108885017Y-101195701D01*
X108785608Y-101157190D01*
X108686198Y-101118679D01*
X108476610Y-101079500D01*
X108263390Y-101079500D01*
X108053802Y-101118679D01*
X108053799Y-101118679D01*
X108053799Y-101118680D01*
X107854982Y-101195701D01*
X107854980Y-101195702D01*
X107673699Y-101307947D01*
X107516127Y-101451593D01*
X107387632Y-101621746D01*
X107292596Y-101812605D01*
X107292596Y-101812607D01*
X107234244Y-102017689D01*
X107214571Y-102229999D01*
X107214571Y-102230000D01*
X107234244Y-102442310D01*
X107292596Y-102647392D01*
X107292596Y-102647394D01*
X107387632Y-102838253D01*
X107509779Y-103000000D01*
X107516128Y-103008407D01*
X107673698Y-103152052D01*
X107854981Y-103264298D01*
X108053802Y-103341321D01*
X108226544Y-103373612D01*
X108288823Y-103405279D01*
X108324096Y-103465591D01*
X108321162Y-103535400D01*
X108280953Y-103592540D01*
X108216235Y-103618871D01*
X108203757Y-103619500D01*
X107475143Y-103619500D01*
X107475117Y-103619502D01*
X107450012Y-103622413D01*
X107450008Y-103622415D01*
X107347235Y-103667793D01*
X107267794Y-103747234D01*
X107222415Y-103850006D01*
X107222415Y-103850008D01*
X107219500Y-103875131D01*
X107219500Y-105664856D01*
X107219502Y-105664882D01*
X107222413Y-105689987D01*
X107222415Y-105689991D01*
X107267793Y-105792764D01*
X107267794Y-105792765D01*
X107347235Y-105872206D01*
X107450009Y-105917585D01*
X107475135Y-105920500D01*
X109264864Y-105920499D01*
X109264879Y-105920497D01*
X109264882Y-105920497D01*
X109289987Y-105917586D01*
X109289988Y-105917585D01*
X109289991Y-105917585D01*
X109392765Y-105872206D01*
X109472206Y-105792765D01*
X109517585Y-105689991D01*
X109520500Y-105664865D01*
X109520499Y-104926046D01*
X109540183Y-104859009D01*
X109592987Y-104813254D01*
X109662146Y-104803310D01*
X109725702Y-104832335D01*
X109763476Y-104891113D01*
X109767970Y-104914606D01*
X109769440Y-104930466D01*
X109774244Y-104982310D01*
X109786923Y-105026873D01*
X109832596Y-105187392D01*
X109832596Y-105187394D01*
X109927632Y-105378253D01*
X110056127Y-105548406D01*
X110056128Y-105548407D01*
X110213698Y-105692052D01*
X110394981Y-105804298D01*
X110394983Y-105804298D01*
X110399856Y-105807316D01*
X110398553Y-105809419D01*
X110442003Y-105849695D01*
X110459500Y-105913202D01*
X110459500Y-113576838D01*
X110458720Y-113590723D01*
X110454729Y-113626136D01*
X110465355Y-113682296D01*
X110466132Y-113686865D01*
X110474652Y-113743391D01*
X110477162Y-113751527D01*
X110479976Y-113759570D01*
X110506688Y-113810111D01*
X110508776Y-113814249D01*
X110533574Y-113865741D01*
X110538362Y-113872765D01*
X110543431Y-113879632D01*
X110543434Y-113879638D01*
X110543438Y-113879642D01*
X110583846Y-113920050D01*
X110587063Y-113923389D01*
X110625947Y-113965296D01*
X110633210Y-113971088D01*
X110632689Y-113971741D01*
X110644930Y-113981134D01*
X111311952Y-114648156D01*
X111345437Y-114709479D01*
X111347367Y-114720890D01*
X111363763Y-114855919D01*
X111409829Y-114977384D01*
X111419780Y-115003623D01*
X111509517Y-115133630D01*
X111627760Y-115238383D01*
X111627762Y-115238384D01*
X111767634Y-115311796D01*
X111921014Y-115349600D01*
X111921015Y-115349600D01*
X111962034Y-115349600D01*
X112029073Y-115369285D01*
X112049715Y-115385919D01*
X112900930Y-116237133D01*
X112910195Y-116247500D01*
X112932421Y-116275370D01*
X112932423Y-116275372D01*
X112979663Y-116307580D01*
X112983445Y-116310263D01*
X113029418Y-116344193D01*
X113036954Y-116348176D01*
X113044619Y-116351867D01*
X113044627Y-116351872D01*
X113069488Y-116359540D01*
X113099280Y-116368730D01*
X113103671Y-116370174D01*
X113157601Y-116389046D01*
X113157605Y-116389046D01*
X113165998Y-116390634D01*
X113174395Y-116391900D01*
X113174398Y-116391900D01*
X113231545Y-116391900D01*
X113236183Y-116391987D01*
X113293309Y-116394125D01*
X113293309Y-116394124D01*
X113293310Y-116394125D01*
X113293310Y-116394124D01*
X113302542Y-116393085D01*
X113302635Y-116393913D01*
X113317939Y-116391900D01*
X119282439Y-116391900D01*
X119349478Y-116411585D01*
X119395233Y-116464389D01*
X119405177Y-116533547D01*
X119376152Y-116597103D01*
X119364666Y-116608716D01*
X119267416Y-116694870D01*
X119177681Y-116824875D01*
X119177680Y-116824876D01*
X119121662Y-116972581D01*
X119102622Y-117129399D01*
X119102622Y-117129400D01*
X119121662Y-117286218D01*
X119161566Y-117391434D01*
X119177680Y-117433923D01*
X119267417Y-117563930D01*
X119344493Y-117632213D01*
X119381619Y-117691401D01*
X119380852Y-117761267D01*
X119364316Y-117795468D01*
X119276581Y-117922575D01*
X119276580Y-117922576D01*
X119220562Y-118070281D01*
X119201522Y-118227099D01*
X119201522Y-118227100D01*
X119220562Y-118383918D01*
X119276580Y-118531623D01*
X119276581Y-118531624D01*
X119366318Y-118661632D01*
X119371291Y-118667245D01*
X119369844Y-118668526D01*
X119401650Y-118719220D01*
X119406300Y-118752859D01*
X119406300Y-126829334D01*
X119386615Y-126896373D01*
X119369981Y-126917015D01*
X108204263Y-138082732D01*
X108193898Y-138091995D01*
X108166033Y-138114217D01*
X108166030Y-138114221D01*
X108133823Y-138161457D01*
X108131144Y-138165232D01*
X108097206Y-138211218D01*
X108093216Y-138218767D01*
X108089528Y-138226425D01*
X108072673Y-138281067D01*
X108071225Y-138285468D01*
X108052353Y-138339404D01*
X108050771Y-138347759D01*
X108049500Y-138356200D01*
X108049500Y-138413360D01*
X108049413Y-138417997D01*
X108047275Y-138475109D01*
X108048316Y-138484343D01*
X108047485Y-138484436D01*
X108049500Y-138499735D01*
X108049500Y-143206797D01*
X108029815Y-143273836D01*
X107988654Y-143310744D01*
X107989855Y-143312684D01*
X107803699Y-143427947D01*
X107646127Y-143571593D01*
X107517632Y-143741746D01*
X107422596Y-143932605D01*
X107422596Y-143932607D01*
X107393766Y-144033933D01*
X107356486Y-144093026D01*
X107293177Y-144122583D01*
X107223937Y-144113221D01*
X107170751Y-144067911D01*
X107150504Y-144001039D01*
X107150500Y-143999998D01*
X107150500Y-143706903D01*
X107150500Y-143706898D01*
X107139877Y-143618436D01*
X107084361Y-143477658D01*
X107084360Y-143477657D01*
X107084360Y-143477656D01*
X106992922Y-143357077D01*
X106872343Y-143265639D01*
X106731561Y-143210122D01*
X106685926Y-143204642D01*
X106643102Y-143199500D01*
X106643097Y-143199500D01*
X106574500Y-143199500D01*
X106507461Y-143179815D01*
X106461706Y-143127011D01*
X106450500Y-143075500D01*
X106450500Y-134924500D01*
X106470185Y-134857461D01*
X106522989Y-134811706D01*
X106574500Y-134800500D01*
X106643097Y-134800500D01*
X106643102Y-134800500D01*
X106731564Y-134789877D01*
X106872342Y-134734361D01*
X106992922Y-134642922D01*
X107084361Y-134522342D01*
X107139877Y-134381564D01*
X107150500Y-134293102D01*
X107150500Y-134000001D01*
X107170185Y-133932962D01*
X107222989Y-133887207D01*
X107292147Y-133877263D01*
X107355703Y-133906288D01*
X107393477Y-133965066D01*
X107393766Y-133966066D01*
X107422596Y-134067392D01*
X107422596Y-134067394D01*
X107517632Y-134258253D01*
X107517634Y-134258255D01*
X107646128Y-134428407D01*
X107803698Y-134572052D01*
X107984981Y-134684298D01*
X108183802Y-134761321D01*
X108393390Y-134800500D01*
X108393392Y-134800500D01*
X108606608Y-134800500D01*
X108606610Y-134800500D01*
X108816198Y-134761321D01*
X109015019Y-134684298D01*
X109196302Y-134572052D01*
X109353872Y-134428407D01*
X109482366Y-134258255D01*
X109577405Y-134067389D01*
X109635756Y-133862310D01*
X109650500Y-133703194D01*
X109650500Y-133296806D01*
X109635756Y-133137690D01*
X109577405Y-132932611D01*
X109577403Y-132932606D01*
X109577403Y-132932605D01*
X109482367Y-132741746D01*
X109353872Y-132571593D01*
X109251399Y-132478176D01*
X109196302Y-132427948D01*
X109015019Y-132315702D01*
X109010145Y-132312684D01*
X109011441Y-132310589D01*
X108967969Y-132270257D01*
X108950500Y-132206797D01*
X108950500Y-121566961D01*
X108951280Y-121553076D01*
X108952211Y-121544818D01*
X108955270Y-121517665D01*
X108944637Y-121461470D01*
X108943864Y-121456917D01*
X108935347Y-121400409D01*
X108932831Y-121392252D01*
X108930024Y-121384228D01*
X108903306Y-121333677D01*
X108901215Y-121329535D01*
X108876424Y-121278056D01*
X108871642Y-121271042D01*
X108866567Y-121264166D01*
X108866566Y-121264163D01*
X108826165Y-121223762D01*
X108822947Y-121220421D01*
X108784060Y-121178509D01*
X108776792Y-121172714D01*
X108777312Y-121172061D01*
X108765067Y-121162664D01*
X105735447Y-118133044D01*
X105701962Y-118071721D01*
X105700032Y-118060309D01*
X105683637Y-117925282D01*
X105627620Y-117777577D01*
X105537883Y-117647570D01*
X105419640Y-117542817D01*
X105419638Y-117542816D01*
X105419637Y-117542815D01*
X105279765Y-117469403D01*
X105126386Y-117431600D01*
X105126385Y-117431600D01*
X104968415Y-117431600D01*
X104968414Y-117431600D01*
X104815034Y-117469403D01*
X104675162Y-117542815D01*
X104556916Y-117647571D01*
X104467181Y-117777575D01*
X104467180Y-117777576D01*
X104411162Y-117925281D01*
X104392122Y-118082099D01*
X104392122Y-118082100D01*
X100300500Y-118082100D01*
X100300500Y-103500000D01*
X101894551Y-103500000D01*
X101914317Y-103751151D01*
X101973126Y-103996110D01*
X102069533Y-104228859D01*
X102201160Y-104443653D01*
X102201161Y-104443656D01*
X102201164Y-104443659D01*
X102364776Y-104635224D01*
X102481058Y-104734538D01*
X102556343Y-104798838D01*
X102556345Y-104798838D01*
X102563642Y-104803310D01*
X102771140Y-104930466D01*
X102896304Y-104982310D01*
X103003889Y-105026873D01*
X103248852Y-105085683D01*
X103437118Y-105100500D01*
X103437126Y-105100500D01*
X103562874Y-105100500D01*
X103562882Y-105100500D01*
X103751148Y-105085683D01*
X103996111Y-105026873D01*
X104228859Y-104930466D01*
X104443659Y-104798836D01*
X104635224Y-104635224D01*
X104798836Y-104443659D01*
X104930466Y-104228859D01*
X105026873Y-103996111D01*
X105085683Y-103751148D01*
X105105449Y-103500000D01*
X105085683Y-103248852D01*
X105026873Y-103003889D01*
X105001995Y-102943827D01*
X104930466Y-102771140D01*
X104798839Y-102556346D01*
X104798838Y-102556343D01*
X104701444Y-102442310D01*
X104635224Y-102364776D01*
X104477422Y-102230000D01*
X104443656Y-102201161D01*
X104443653Y-102201160D01*
X104228859Y-102069533D01*
X103996110Y-101973126D01*
X103751151Y-101914317D01*
X103562887Y-101899500D01*
X103562882Y-101899500D01*
X103437118Y-101899500D01*
X103437112Y-101899500D01*
X103248848Y-101914317D01*
X103003889Y-101973126D01*
X102771140Y-102069533D01*
X102556346Y-102201160D01*
X102556343Y-102201161D01*
X102364776Y-102364776D01*
X102201161Y-102556343D01*
X102201160Y-102556346D01*
X102069533Y-102771140D01*
X101973126Y-103003889D01*
X101914317Y-103248848D01*
X101894551Y-103500000D01*
X100300500Y-103500000D01*
X100300500Y-103003480D01*
X100300695Y-102996527D01*
X100302064Y-102972156D01*
X100317084Y-102704691D01*
X100318638Y-102690898D01*
X100367015Y-102406167D01*
X100370109Y-102392615D01*
X100378130Y-102364776D01*
X100450061Y-102115096D01*
X100454653Y-102101975D01*
X100565175Y-101835151D01*
X100571195Y-101822651D01*
X100710902Y-101569868D01*
X100718297Y-101558100D01*
X100793868Y-101451593D01*
X100885422Y-101322559D01*
X100894077Y-101311705D01*
X101086534Y-101096346D01*
X101096346Y-101086534D01*
X101311705Y-100894077D01*
X101322559Y-100885422D01*
X101558105Y-100718293D01*
X101569868Y-100710902D01*
X101822651Y-100571195D01*
X101835151Y-100565175D01*
X102101979Y-100454651D01*
X102115096Y-100450061D01*
X102392621Y-100370107D01*
X102406167Y-100367015D01*
X102690898Y-100318638D01*
X102704691Y-100317084D01*
X102996528Y-100300695D01*
X103003481Y-100300500D01*
X103047595Y-100300500D01*
X161952405Y-100300500D01*
X161996519Y-100300500D01*
X162003472Y-100300695D01*
G37*
%TD.AperFunction*%
%TD*%
M02*
