%TF.GenerationSoftware,KiCad,Pcbnew,7.0.11+dfsg-1build4*%
%TF.CreationDate,2026-10-07T20:18:35+00:00*%
%TF.ProjectId,hat_capteurs,6861745f-6361-4707-9465-7572732e6b69,rev?*%
%TF.SameCoordinates,Original*%
%TF.FileFunction,Legend,Top*%
%TF.FilePolarity,Positive*%
%FSLAX46Y46*%
G04 Gerber Fmt 4.6, Leading zero omitted, Abs format (unit mm)*
G04 Created by KiCad (PCBNEW 7.0.11+dfsg-1build4) date 2026-10-07 20:18:35*
%MOMM*%
%LPD*%
G01*
G04 APERTURE LIST*
G04 Aperture macros list*
%AMRoundRect*
0 Rectangle with rounded corners*
0 $1 Rounding radius*
0 $2 $3 $4 $5 $6 $7 $8 $9 X,Y pos of 4 corners*
0 Add a 4 corners polygon primitive as box body*
4,1,4,$2,$3,$4,$5,$6,$7,$8,$9,$2,$3,0*
0 Add four circle primitives for the rounded corners*
1,1,$1+$1,$2,$3*
1,1,$1+$1,$4,$5*
1,1,$1+$1,$6,$7*
1,1,$1+$1,$8,$9*
0 Add four rect primitives between the rounded corners*
20,1,$1+$1,$2,$3,$4,$5,0*
20,1,$1+$1,$4,$5,$6,$7,0*
20,1,$1+$1,$6,$7,$8,$9,0*
20,1,$1+$1,$8,$9,$2,$3,0*%
G04 Aperture macros list end*
%ADD10C,0.150000*%
%ADD11C,0.320000*%
%ADD12C,0.120000*%
%ADD13RoundRect,0.250000X-0.600000X-0.750000X0.600000X-0.750000X0.600000X0.750000X-0.600000X0.750000X0*%
%ADD14O,1.700000X2.000000*%
%ADD15RoundRect,0.200000X-0.200000X-0.275000X0.200000X-0.275000X0.200000X0.275000X-0.200000X0.275000X0*%
%ADD16R,1.100000X0.250000*%
%ADD17C,2.700000*%
%ADD18RoundRect,0.225000X-0.225000X-0.250000X0.225000X-0.250000X0.225000X0.250000X-0.225000X0.250000X0*%
%ADD19RoundRect,0.250000X-0.725000X0.600000X-0.725000X-0.600000X0.725000X-0.600000X0.725000X0.600000X0*%
%ADD20O,1.950000X1.700000*%
%ADD21R,1.700000X1.700000*%
%ADD22O,1.700000X1.700000*%
G04 APERTURE END LIST*
D10*
X143516666Y-149862295D02*
X143516666Y-149062295D01*
X143516666Y-149062295D02*
X143707142Y-149062295D01*
X143707142Y-149062295D02*
X143821428Y-149100390D01*
X143821428Y-149100390D02*
X143897618Y-149176580D01*
X143897618Y-149176580D02*
X143935713Y-149252771D01*
X143935713Y-149252771D02*
X143973809Y-149405152D01*
X143973809Y-149405152D02*
X143973809Y-149519438D01*
X143973809Y-149519438D02*
X143935713Y-149671819D01*
X143935713Y-149671819D02*
X143897618Y-149748009D01*
X143897618Y-149748009D02*
X143821428Y-149824200D01*
X143821428Y-149824200D02*
X143707142Y-149862295D01*
X143707142Y-149862295D02*
X143516666Y-149862295D01*
X145269047Y-149862295D02*
X145269047Y-149443247D01*
X145269047Y-149443247D02*
X145230952Y-149367057D01*
X145230952Y-149367057D02*
X145154761Y-149328961D01*
X145154761Y-149328961D02*
X145002380Y-149328961D01*
X145002380Y-149328961D02*
X144926190Y-149367057D01*
X145269047Y-149824200D02*
X145192856Y-149862295D01*
X145192856Y-149862295D02*
X145002380Y-149862295D01*
X145002380Y-149862295D02*
X144926190Y-149824200D01*
X144926190Y-149824200D02*
X144888094Y-149748009D01*
X144888094Y-149748009D02*
X144888094Y-149671819D01*
X144888094Y-149671819D02*
X144926190Y-149595628D01*
X144926190Y-149595628D02*
X145002380Y-149557533D01*
X145002380Y-149557533D02*
X145192856Y-149557533D01*
X145192856Y-149557533D02*
X145269047Y-149519438D01*
X145992857Y-149328961D02*
X145992857Y-149862295D01*
X145650000Y-149328961D02*
X145650000Y-149748009D01*
X145650000Y-149748009D02*
X145688095Y-149824200D01*
X145688095Y-149824200D02*
X145764285Y-149862295D01*
X145764285Y-149862295D02*
X145878571Y-149862295D01*
X145878571Y-149862295D02*
X145954762Y-149824200D01*
X145954762Y-149824200D02*
X145992857Y-149786104D01*
X146373810Y-149862295D02*
X146373810Y-149328961D01*
X146373810Y-149481342D02*
X146411905Y-149405152D01*
X146411905Y-149405152D02*
X146450000Y-149367057D01*
X146450000Y-149367057D02*
X146526191Y-149328961D01*
X146526191Y-149328961D02*
X146602381Y-149328961D01*
X146869048Y-149862295D02*
X146869048Y-149328961D01*
X146869048Y-149062295D02*
X146830952Y-149100390D01*
X146830952Y-149100390D02*
X146869048Y-149138485D01*
X146869048Y-149138485D02*
X146907143Y-149100390D01*
X146907143Y-149100390D02*
X146869048Y-149062295D01*
X146869048Y-149062295D02*
X146869048Y-149138485D01*
X147592857Y-149824200D02*
X147516666Y-149862295D01*
X147516666Y-149862295D02*
X147364285Y-149862295D01*
X147364285Y-149862295D02*
X147288095Y-149824200D01*
X147288095Y-149824200D02*
X147250000Y-149786104D01*
X147250000Y-149786104D02*
X147211904Y-149709914D01*
X147211904Y-149709914D02*
X147211904Y-149481342D01*
X147211904Y-149481342D02*
X147250000Y-149405152D01*
X147250000Y-149405152D02*
X147288095Y-149367057D01*
X147288095Y-149367057D02*
X147364285Y-149328961D01*
X147364285Y-149328961D02*
X147516666Y-149328961D01*
X147516666Y-149328961D02*
X147592857Y-149367057D01*
X148278571Y-149328961D02*
X148278571Y-149862295D01*
X147935714Y-149328961D02*
X147935714Y-149748009D01*
X147935714Y-149748009D02*
X147973809Y-149824200D01*
X147973809Y-149824200D02*
X148049999Y-149862295D01*
X148049999Y-149862295D02*
X148164285Y-149862295D01*
X148164285Y-149862295D02*
X148240476Y-149824200D01*
X148240476Y-149824200D02*
X148278571Y-149786104D01*
X148773809Y-149862295D02*
X148697619Y-149824200D01*
X148697619Y-149824200D02*
X148659524Y-149748009D01*
X148659524Y-149748009D02*
X148659524Y-149062295D01*
X149421429Y-149862295D02*
X149421429Y-149443247D01*
X149421429Y-149443247D02*
X149383334Y-149367057D01*
X149383334Y-149367057D02*
X149307143Y-149328961D01*
X149307143Y-149328961D02*
X149154762Y-149328961D01*
X149154762Y-149328961D02*
X149078572Y-149367057D01*
X149421429Y-149824200D02*
X149345238Y-149862295D01*
X149345238Y-149862295D02*
X149154762Y-149862295D01*
X149154762Y-149862295D02*
X149078572Y-149824200D01*
X149078572Y-149824200D02*
X149040476Y-149748009D01*
X149040476Y-149748009D02*
X149040476Y-149671819D01*
X149040476Y-149671819D02*
X149078572Y-149595628D01*
X149078572Y-149595628D02*
X149154762Y-149557533D01*
X149154762Y-149557533D02*
X149345238Y-149557533D01*
X149345238Y-149557533D02*
X149421429Y-149519438D01*
X149802382Y-149862295D02*
X149802382Y-149328961D01*
X149802382Y-149062295D02*
X149764286Y-149100390D01*
X149764286Y-149100390D02*
X149802382Y-149138485D01*
X149802382Y-149138485D02*
X149840477Y-149100390D01*
X149840477Y-149100390D02*
X149802382Y-149062295D01*
X149802382Y-149062295D02*
X149802382Y-149138485D01*
X150183334Y-149862295D02*
X150183334Y-149328961D01*
X150183334Y-149481342D02*
X150221429Y-149405152D01*
X150221429Y-149405152D02*
X150259524Y-149367057D01*
X150259524Y-149367057D02*
X150335715Y-149328961D01*
X150335715Y-149328961D02*
X150411905Y-149328961D01*
X150983334Y-149824200D02*
X150907143Y-149862295D01*
X150907143Y-149862295D02*
X150754762Y-149862295D01*
X150754762Y-149862295D02*
X150678572Y-149824200D01*
X150678572Y-149824200D02*
X150640476Y-149748009D01*
X150640476Y-149748009D02*
X150640476Y-149443247D01*
X150640476Y-149443247D02*
X150678572Y-149367057D01*
X150678572Y-149367057D02*
X150754762Y-149328961D01*
X150754762Y-149328961D02*
X150907143Y-149328961D01*
X150907143Y-149328961D02*
X150983334Y-149367057D01*
X150983334Y-149367057D02*
X151021429Y-149443247D01*
X151021429Y-149443247D02*
X151021429Y-149519438D01*
X151021429Y-149519438D02*
X150640476Y-149595628D01*
X105154762Y-149862295D02*
X105154762Y-149062295D01*
X105154762Y-149062295D02*
X105345238Y-149062295D01*
X105345238Y-149062295D02*
X105459524Y-149100390D01*
X105459524Y-149100390D02*
X105535714Y-149176580D01*
X105535714Y-149176580D02*
X105573809Y-149252771D01*
X105573809Y-149252771D02*
X105611905Y-149405152D01*
X105611905Y-149405152D02*
X105611905Y-149519438D01*
X105611905Y-149519438D02*
X105573809Y-149671819D01*
X105573809Y-149671819D02*
X105535714Y-149748009D01*
X105535714Y-149748009D02*
X105459524Y-149824200D01*
X105459524Y-149824200D02*
X105345238Y-149862295D01*
X105345238Y-149862295D02*
X105154762Y-149862295D01*
X106564286Y-149862295D02*
X106564286Y-149328961D01*
X106564286Y-149062295D02*
X106526190Y-149100390D01*
X106526190Y-149100390D02*
X106564286Y-149138485D01*
X106564286Y-149138485D02*
X106602381Y-149100390D01*
X106602381Y-149100390D02*
X106564286Y-149062295D01*
X106564286Y-149062295D02*
X106564286Y-149138485D01*
X106945238Y-149328961D02*
X106945238Y-149862295D01*
X106945238Y-149405152D02*
X106983333Y-149367057D01*
X106983333Y-149367057D02*
X107059523Y-149328961D01*
X107059523Y-149328961D02*
X107173809Y-149328961D01*
X107173809Y-149328961D02*
X107250000Y-149367057D01*
X107250000Y-149367057D02*
X107288095Y-149443247D01*
X107288095Y-149443247D02*
X107288095Y-149862295D01*
X108011905Y-149862295D02*
X108011905Y-149062295D01*
X108011905Y-149824200D02*
X107935714Y-149862295D01*
X107935714Y-149862295D02*
X107783333Y-149862295D01*
X107783333Y-149862295D02*
X107707143Y-149824200D01*
X107707143Y-149824200D02*
X107669048Y-149786104D01*
X107669048Y-149786104D02*
X107630952Y-149709914D01*
X107630952Y-149709914D02*
X107630952Y-149481342D01*
X107630952Y-149481342D02*
X107669048Y-149405152D01*
X107669048Y-149405152D02*
X107707143Y-149367057D01*
X107707143Y-149367057D02*
X107783333Y-149328961D01*
X107783333Y-149328961D02*
X107935714Y-149328961D01*
X107935714Y-149328961D02*
X108011905Y-149367057D01*
X108697620Y-149824200D02*
X108621429Y-149862295D01*
X108621429Y-149862295D02*
X108469048Y-149862295D01*
X108469048Y-149862295D02*
X108392858Y-149824200D01*
X108392858Y-149824200D02*
X108354762Y-149748009D01*
X108354762Y-149748009D02*
X108354762Y-149443247D01*
X108354762Y-149443247D02*
X108392858Y-149367057D01*
X108392858Y-149367057D02*
X108469048Y-149328961D01*
X108469048Y-149328961D02*
X108621429Y-149328961D01*
X108621429Y-149328961D02*
X108697620Y-149367057D01*
X108697620Y-149367057D02*
X108735715Y-149443247D01*
X108735715Y-149443247D02*
X108735715Y-149519438D01*
X108735715Y-149519438D02*
X108354762Y-149595628D01*
X109002381Y-149862295D02*
X109421429Y-149328961D01*
X109002381Y-149328961D02*
X109421429Y-149862295D01*
X109619047Y-111562295D02*
X109619047Y-112209914D01*
X109619047Y-112209914D02*
X109657142Y-112286104D01*
X109657142Y-112286104D02*
X109695237Y-112324200D01*
X109695237Y-112324200D02*
X109771428Y-112362295D01*
X109771428Y-112362295D02*
X109923809Y-112362295D01*
X109923809Y-112362295D02*
X109999999Y-112324200D01*
X109999999Y-112324200D02*
X110038094Y-112286104D01*
X110038094Y-112286104D02*
X110076190Y-112209914D01*
X110076190Y-112209914D02*
X110076190Y-111562295D01*
X110876189Y-112362295D02*
X110419046Y-112362295D01*
X110647618Y-112362295D02*
X110647618Y-111562295D01*
X110647618Y-111562295D02*
X110571427Y-111676580D01*
X110571427Y-111676580D02*
X110495237Y-111752771D01*
X110495237Y-111752771D02*
X110419046Y-111790866D01*
X111980952Y-111562295D02*
X112057142Y-111562295D01*
X112057142Y-111562295D02*
X112133333Y-111600390D01*
X112133333Y-111600390D02*
X112171428Y-111638485D01*
X112171428Y-111638485D02*
X112209523Y-111714676D01*
X112209523Y-111714676D02*
X112247618Y-111867057D01*
X112247618Y-111867057D02*
X112247618Y-112057533D01*
X112247618Y-112057533D02*
X112209523Y-112209914D01*
X112209523Y-112209914D02*
X112171428Y-112286104D01*
X112171428Y-112286104D02*
X112133333Y-112324200D01*
X112133333Y-112324200D02*
X112057142Y-112362295D01*
X112057142Y-112362295D02*
X111980952Y-112362295D01*
X111980952Y-112362295D02*
X111904761Y-112324200D01*
X111904761Y-112324200D02*
X111866666Y-112286104D01*
X111866666Y-112286104D02*
X111828571Y-112209914D01*
X111828571Y-112209914D02*
X111790475Y-112057533D01*
X111790475Y-112057533D02*
X111790475Y-111867057D01*
X111790475Y-111867057D02*
X111828571Y-111714676D01*
X111828571Y-111714676D02*
X111866666Y-111638485D01*
X111866666Y-111638485D02*
X111904761Y-111600390D01*
X111904761Y-111600390D02*
X111980952Y-111562295D01*
X112514285Y-112362295D02*
X112933333Y-111828961D01*
X112514285Y-111828961D02*
X112933333Y-112362295D01*
X113580952Y-111828961D02*
X113580952Y-112362295D01*
X113390476Y-111524200D02*
X113199999Y-112095628D01*
X113199999Y-112095628D02*
X113695238Y-112095628D01*
X114114285Y-111905152D02*
X114038095Y-111867057D01*
X114038095Y-111867057D02*
X114000000Y-111828961D01*
X114000000Y-111828961D02*
X113961904Y-111752771D01*
X113961904Y-111752771D02*
X113961904Y-111714676D01*
X113961904Y-111714676D02*
X114000000Y-111638485D01*
X114000000Y-111638485D02*
X114038095Y-111600390D01*
X114038095Y-111600390D02*
X114114285Y-111562295D01*
X114114285Y-111562295D02*
X114266666Y-111562295D01*
X114266666Y-111562295D02*
X114342857Y-111600390D01*
X114342857Y-111600390D02*
X114380952Y-111638485D01*
X114380952Y-111638485D02*
X114419047Y-111714676D01*
X114419047Y-111714676D02*
X114419047Y-111752771D01*
X114419047Y-111752771D02*
X114380952Y-111828961D01*
X114380952Y-111828961D02*
X114342857Y-111867057D01*
X114342857Y-111867057D02*
X114266666Y-111905152D01*
X114266666Y-111905152D02*
X114114285Y-111905152D01*
X114114285Y-111905152D02*
X114038095Y-111943247D01*
X114038095Y-111943247D02*
X114000000Y-111981342D01*
X114000000Y-111981342D02*
X113961904Y-112057533D01*
X113961904Y-112057533D02*
X113961904Y-112209914D01*
X113961904Y-112209914D02*
X114000000Y-112286104D01*
X114000000Y-112286104D02*
X114038095Y-112324200D01*
X114038095Y-112324200D02*
X114114285Y-112362295D01*
X114114285Y-112362295D02*
X114266666Y-112362295D01*
X114266666Y-112362295D02*
X114342857Y-112324200D01*
X114342857Y-112324200D02*
X114380952Y-112286104D01*
X114380952Y-112286104D02*
X114419047Y-112209914D01*
X114419047Y-112209914D02*
X114419047Y-112057533D01*
X114419047Y-112057533D02*
X114380952Y-111981342D01*
X114380952Y-111981342D02*
X114342857Y-111943247D01*
X114342857Y-111943247D02*
X114266666Y-111905152D01*
X125116666Y-138100390D02*
X125040476Y-138062295D01*
X125040476Y-138062295D02*
X124926190Y-138062295D01*
X124926190Y-138062295D02*
X124811904Y-138100390D01*
X124811904Y-138100390D02*
X124735714Y-138176580D01*
X124735714Y-138176580D02*
X124697619Y-138252771D01*
X124697619Y-138252771D02*
X124659523Y-138405152D01*
X124659523Y-138405152D02*
X124659523Y-138519438D01*
X124659523Y-138519438D02*
X124697619Y-138671819D01*
X124697619Y-138671819D02*
X124735714Y-138748009D01*
X124735714Y-138748009D02*
X124811904Y-138824200D01*
X124811904Y-138824200D02*
X124926190Y-138862295D01*
X124926190Y-138862295D02*
X125002381Y-138862295D01*
X125002381Y-138862295D02*
X125116666Y-138824200D01*
X125116666Y-138824200D02*
X125154762Y-138786104D01*
X125154762Y-138786104D02*
X125154762Y-138519438D01*
X125154762Y-138519438D02*
X125002381Y-138519438D01*
X126107143Y-138862295D02*
X126107143Y-138328961D01*
X126107143Y-138405152D02*
X126145238Y-138367057D01*
X126145238Y-138367057D02*
X126221428Y-138328961D01*
X126221428Y-138328961D02*
X126335714Y-138328961D01*
X126335714Y-138328961D02*
X126411905Y-138367057D01*
X126411905Y-138367057D02*
X126450000Y-138443247D01*
X126450000Y-138443247D02*
X126450000Y-138862295D01*
X126450000Y-138443247D02*
X126488095Y-138367057D01*
X126488095Y-138367057D02*
X126564286Y-138328961D01*
X126564286Y-138328961D02*
X126678571Y-138328961D01*
X126678571Y-138328961D02*
X126754762Y-138367057D01*
X126754762Y-138367057D02*
X126792857Y-138443247D01*
X126792857Y-138443247D02*
X126792857Y-138862295D01*
X127516667Y-138862295D02*
X127516667Y-138443247D01*
X127516667Y-138443247D02*
X127478572Y-138367057D01*
X127478572Y-138367057D02*
X127402381Y-138328961D01*
X127402381Y-138328961D02*
X127250000Y-138328961D01*
X127250000Y-138328961D02*
X127173810Y-138367057D01*
X127516667Y-138824200D02*
X127440476Y-138862295D01*
X127440476Y-138862295D02*
X127250000Y-138862295D01*
X127250000Y-138862295D02*
X127173810Y-138824200D01*
X127173810Y-138824200D02*
X127135714Y-138748009D01*
X127135714Y-138748009D02*
X127135714Y-138671819D01*
X127135714Y-138671819D02*
X127173810Y-138595628D01*
X127173810Y-138595628D02*
X127250000Y-138557533D01*
X127250000Y-138557533D02*
X127440476Y-138557533D01*
X127440476Y-138557533D02*
X127516667Y-138519438D01*
X127897620Y-138328961D02*
X127897620Y-139014676D01*
X127897620Y-139014676D02*
X127859524Y-139090866D01*
X127859524Y-139090866D02*
X127783334Y-139128961D01*
X127783334Y-139128961D02*
X127745239Y-139128961D01*
X127897620Y-138062295D02*
X127859524Y-138100390D01*
X127859524Y-138100390D02*
X127897620Y-138138485D01*
X127897620Y-138138485D02*
X127935715Y-138100390D01*
X127935715Y-138100390D02*
X127897620Y-138062295D01*
X127897620Y-138062295D02*
X127897620Y-138138485D01*
X128583334Y-138824200D02*
X128507143Y-138862295D01*
X128507143Y-138862295D02*
X128354762Y-138862295D01*
X128354762Y-138862295D02*
X128278572Y-138824200D01*
X128278572Y-138824200D02*
X128240476Y-138748009D01*
X128240476Y-138748009D02*
X128240476Y-138443247D01*
X128240476Y-138443247D02*
X128278572Y-138367057D01*
X128278572Y-138367057D02*
X128354762Y-138328961D01*
X128354762Y-138328961D02*
X128507143Y-138328961D01*
X128507143Y-138328961D02*
X128583334Y-138367057D01*
X128583334Y-138367057D02*
X128621429Y-138443247D01*
X128621429Y-138443247D02*
X128621429Y-138519438D01*
X128621429Y-138519438D02*
X128240476Y-138595628D01*
X129307143Y-138328961D02*
X129307143Y-138862295D01*
X128964286Y-138328961D02*
X128964286Y-138748009D01*
X128964286Y-138748009D02*
X129002381Y-138824200D01*
X129002381Y-138824200D02*
X129078571Y-138862295D01*
X129078571Y-138862295D02*
X129192857Y-138862295D01*
X129192857Y-138862295D02*
X129269048Y-138824200D01*
X129269048Y-138824200D02*
X129307143Y-138786104D01*
X129688096Y-138862295D02*
X129688096Y-138328961D01*
X129688096Y-138481342D02*
X129726191Y-138405152D01*
X129726191Y-138405152D02*
X129764286Y-138367057D01*
X129764286Y-138367057D02*
X129840477Y-138328961D01*
X129840477Y-138328961D02*
X129916667Y-138328961D01*
X123935713Y-149862295D02*
X123935713Y-149062295D01*
X123935713Y-149062295D02*
X124126189Y-149062295D01*
X124126189Y-149062295D02*
X124240475Y-149100390D01*
X124240475Y-149100390D02*
X124316665Y-149176580D01*
X124316665Y-149176580D02*
X124354760Y-149252771D01*
X124354760Y-149252771D02*
X124392856Y-149405152D01*
X124392856Y-149405152D02*
X124392856Y-149519438D01*
X124392856Y-149519438D02*
X124354760Y-149671819D01*
X124354760Y-149671819D02*
X124316665Y-149748009D01*
X124316665Y-149748009D02*
X124240475Y-149824200D01*
X124240475Y-149824200D02*
X124126189Y-149862295D01*
X124126189Y-149862295D02*
X123935713Y-149862295D01*
X125688094Y-149862295D02*
X125688094Y-149443247D01*
X125688094Y-149443247D02*
X125649999Y-149367057D01*
X125649999Y-149367057D02*
X125573808Y-149328961D01*
X125573808Y-149328961D02*
X125421427Y-149328961D01*
X125421427Y-149328961D02*
X125345237Y-149367057D01*
X125688094Y-149824200D02*
X125611903Y-149862295D01*
X125611903Y-149862295D02*
X125421427Y-149862295D01*
X125421427Y-149862295D02*
X125345237Y-149824200D01*
X125345237Y-149824200D02*
X125307141Y-149748009D01*
X125307141Y-149748009D02*
X125307141Y-149671819D01*
X125307141Y-149671819D02*
X125345237Y-149595628D01*
X125345237Y-149595628D02*
X125421427Y-149557533D01*
X125421427Y-149557533D02*
X125611903Y-149557533D01*
X125611903Y-149557533D02*
X125688094Y-149519438D01*
X126069047Y-149328961D02*
X126069047Y-149862295D01*
X126069047Y-149405152D02*
X126107142Y-149367057D01*
X126107142Y-149367057D02*
X126183332Y-149328961D01*
X126183332Y-149328961D02*
X126297618Y-149328961D01*
X126297618Y-149328961D02*
X126373809Y-149367057D01*
X126373809Y-149367057D02*
X126411904Y-149443247D01*
X126411904Y-149443247D02*
X126411904Y-149862295D01*
X126792857Y-149328961D02*
X126792857Y-149862295D01*
X126792857Y-149405152D02*
X126830952Y-149367057D01*
X126830952Y-149367057D02*
X126907142Y-149328961D01*
X126907142Y-149328961D02*
X127021428Y-149328961D01*
X127021428Y-149328961D02*
X127097619Y-149367057D01*
X127097619Y-149367057D02*
X127135714Y-149443247D01*
X127135714Y-149443247D02*
X127135714Y-149862295D01*
X127859524Y-149328961D02*
X127859524Y-149862295D01*
X127516667Y-149328961D02*
X127516667Y-149748009D01*
X127516667Y-149748009D02*
X127554762Y-149824200D01*
X127554762Y-149824200D02*
X127630952Y-149862295D01*
X127630952Y-149862295D02*
X127745238Y-149862295D01*
X127745238Y-149862295D02*
X127821429Y-149824200D01*
X127821429Y-149824200D02*
X127859524Y-149786104D01*
X128354762Y-149862295D02*
X128278572Y-149824200D01*
X128278572Y-149824200D02*
X128240477Y-149748009D01*
X128240477Y-149748009D02*
X128240477Y-149062295D01*
X129002382Y-149862295D02*
X129002382Y-149443247D01*
X129002382Y-149443247D02*
X128964287Y-149367057D01*
X128964287Y-149367057D02*
X128888096Y-149328961D01*
X128888096Y-149328961D02*
X128735715Y-149328961D01*
X128735715Y-149328961D02*
X128659525Y-149367057D01*
X129002382Y-149824200D02*
X128926191Y-149862295D01*
X128926191Y-149862295D02*
X128735715Y-149862295D01*
X128735715Y-149862295D02*
X128659525Y-149824200D01*
X128659525Y-149824200D02*
X128621429Y-149748009D01*
X128621429Y-149748009D02*
X128621429Y-149671819D01*
X128621429Y-149671819D02*
X128659525Y-149595628D01*
X128659525Y-149595628D02*
X128735715Y-149557533D01*
X128735715Y-149557533D02*
X128926191Y-149557533D01*
X128926191Y-149557533D02*
X129002382Y-149519438D01*
X129383335Y-149862295D02*
X129383335Y-149328961D01*
X129383335Y-149062295D02*
X129345239Y-149100390D01*
X129345239Y-149100390D02*
X129383335Y-149138485D01*
X129383335Y-149138485D02*
X129421430Y-149100390D01*
X129421430Y-149100390D02*
X129383335Y-149062295D01*
X129383335Y-149062295D02*
X129383335Y-149138485D01*
X129764287Y-149862295D02*
X129764287Y-149328961D01*
X129764287Y-149481342D02*
X129802382Y-149405152D01*
X129802382Y-149405152D02*
X129840477Y-149367057D01*
X129840477Y-149367057D02*
X129916668Y-149328961D01*
X129916668Y-149328961D02*
X129992858Y-149328961D01*
X130564287Y-149824200D02*
X130488096Y-149862295D01*
X130488096Y-149862295D02*
X130335715Y-149862295D01*
X130335715Y-149862295D02*
X130259525Y-149824200D01*
X130259525Y-149824200D02*
X130221429Y-149748009D01*
X130221429Y-149748009D02*
X130221429Y-149443247D01*
X130221429Y-149443247D02*
X130259525Y-149367057D01*
X130259525Y-149367057D02*
X130335715Y-149328961D01*
X130335715Y-149328961D02*
X130488096Y-149328961D01*
X130488096Y-149328961D02*
X130564287Y-149367057D01*
X130564287Y-149367057D02*
X130602382Y-149443247D01*
X130602382Y-149443247D02*
X130602382Y-149519438D01*
X130602382Y-149519438D02*
X130221429Y-149595628D01*
X134354760Y-138100390D02*
X134278570Y-138062295D01*
X134278570Y-138062295D02*
X134164284Y-138062295D01*
X134164284Y-138062295D02*
X134049998Y-138100390D01*
X134049998Y-138100390D02*
X133973808Y-138176580D01*
X133973808Y-138176580D02*
X133935713Y-138252771D01*
X133935713Y-138252771D02*
X133897617Y-138405152D01*
X133897617Y-138405152D02*
X133897617Y-138519438D01*
X133897617Y-138519438D02*
X133935713Y-138671819D01*
X133935713Y-138671819D02*
X133973808Y-138748009D01*
X133973808Y-138748009D02*
X134049998Y-138824200D01*
X134049998Y-138824200D02*
X134164284Y-138862295D01*
X134164284Y-138862295D02*
X134240475Y-138862295D01*
X134240475Y-138862295D02*
X134354760Y-138824200D01*
X134354760Y-138824200D02*
X134392856Y-138786104D01*
X134392856Y-138786104D02*
X134392856Y-138519438D01*
X134392856Y-138519438D02*
X134240475Y-138519438D01*
X135688094Y-138862295D02*
X135688094Y-138443247D01*
X135688094Y-138443247D02*
X135649999Y-138367057D01*
X135649999Y-138367057D02*
X135573808Y-138328961D01*
X135573808Y-138328961D02*
X135421427Y-138328961D01*
X135421427Y-138328961D02*
X135345237Y-138367057D01*
X135688094Y-138824200D02*
X135611903Y-138862295D01*
X135611903Y-138862295D02*
X135421427Y-138862295D01*
X135421427Y-138862295D02*
X135345237Y-138824200D01*
X135345237Y-138824200D02*
X135307141Y-138748009D01*
X135307141Y-138748009D02*
X135307141Y-138671819D01*
X135307141Y-138671819D02*
X135345237Y-138595628D01*
X135345237Y-138595628D02*
X135421427Y-138557533D01*
X135421427Y-138557533D02*
X135611903Y-138557533D01*
X135611903Y-138557533D02*
X135688094Y-138519438D01*
X136069047Y-138328961D02*
X136069047Y-138862295D01*
X136069047Y-138405152D02*
X136107142Y-138367057D01*
X136107142Y-138367057D02*
X136183332Y-138328961D01*
X136183332Y-138328961D02*
X136297618Y-138328961D01*
X136297618Y-138328961D02*
X136373809Y-138367057D01*
X136373809Y-138367057D02*
X136411904Y-138443247D01*
X136411904Y-138443247D02*
X136411904Y-138862295D01*
X136792857Y-138328961D02*
X136792857Y-138862295D01*
X136792857Y-138405152D02*
X136830952Y-138367057D01*
X136830952Y-138367057D02*
X136907142Y-138328961D01*
X136907142Y-138328961D02*
X137021428Y-138328961D01*
X137021428Y-138328961D02*
X137097619Y-138367057D01*
X137097619Y-138367057D02*
X137135714Y-138443247D01*
X137135714Y-138443247D02*
X137135714Y-138862295D01*
X137859524Y-138328961D02*
X137859524Y-138862295D01*
X137516667Y-138328961D02*
X137516667Y-138748009D01*
X137516667Y-138748009D02*
X137554762Y-138824200D01*
X137554762Y-138824200D02*
X137630952Y-138862295D01*
X137630952Y-138862295D02*
X137745238Y-138862295D01*
X137745238Y-138862295D02*
X137821429Y-138824200D01*
X137821429Y-138824200D02*
X137859524Y-138786104D01*
X138354762Y-138862295D02*
X138278572Y-138824200D01*
X138278572Y-138824200D02*
X138240477Y-138748009D01*
X138240477Y-138748009D02*
X138240477Y-138062295D01*
X139002382Y-138862295D02*
X139002382Y-138443247D01*
X139002382Y-138443247D02*
X138964287Y-138367057D01*
X138964287Y-138367057D02*
X138888096Y-138328961D01*
X138888096Y-138328961D02*
X138735715Y-138328961D01*
X138735715Y-138328961D02*
X138659525Y-138367057D01*
X139002382Y-138824200D02*
X138926191Y-138862295D01*
X138926191Y-138862295D02*
X138735715Y-138862295D01*
X138735715Y-138862295D02*
X138659525Y-138824200D01*
X138659525Y-138824200D02*
X138621429Y-138748009D01*
X138621429Y-138748009D02*
X138621429Y-138671819D01*
X138621429Y-138671819D02*
X138659525Y-138595628D01*
X138659525Y-138595628D02*
X138735715Y-138557533D01*
X138735715Y-138557533D02*
X138926191Y-138557533D01*
X138926191Y-138557533D02*
X139002382Y-138519438D01*
X139383335Y-138862295D02*
X139383335Y-138328961D01*
X139383335Y-138062295D02*
X139345239Y-138100390D01*
X139345239Y-138100390D02*
X139383335Y-138138485D01*
X139383335Y-138138485D02*
X139421430Y-138100390D01*
X139421430Y-138100390D02*
X139383335Y-138062295D01*
X139383335Y-138062295D02*
X139383335Y-138138485D01*
X139764287Y-138862295D02*
X139764287Y-138328961D01*
X139764287Y-138481342D02*
X139802382Y-138405152D01*
X139802382Y-138405152D02*
X139840477Y-138367057D01*
X139840477Y-138367057D02*
X139916668Y-138328961D01*
X139916668Y-138328961D02*
X139992858Y-138328961D01*
X140564287Y-138824200D02*
X140488096Y-138862295D01*
X140488096Y-138862295D02*
X140335715Y-138862295D01*
X140335715Y-138862295D02*
X140259525Y-138824200D01*
X140259525Y-138824200D02*
X140221429Y-138748009D01*
X140221429Y-138748009D02*
X140221429Y-138443247D01*
X140221429Y-138443247D02*
X140259525Y-138367057D01*
X140259525Y-138367057D02*
X140335715Y-138328961D01*
X140335715Y-138328961D02*
X140488096Y-138328961D01*
X140488096Y-138328961D02*
X140564287Y-138367057D01*
X140564287Y-138367057D02*
X140602382Y-138443247D01*
X140602382Y-138443247D02*
X140602382Y-138519438D01*
X140602382Y-138519438D02*
X140221429Y-138595628D01*
D11*
X110152382Y-125723550D02*
X110152382Y-124123550D01*
X110152382Y-124123550D02*
X110533334Y-124123550D01*
X110533334Y-124123550D02*
X110761906Y-124199740D01*
X110761906Y-124199740D02*
X110914287Y-124352121D01*
X110914287Y-124352121D02*
X110990477Y-124504502D01*
X110990477Y-124504502D02*
X111066668Y-124809264D01*
X111066668Y-124809264D02*
X111066668Y-125037836D01*
X111066668Y-125037836D02*
X110990477Y-125342598D01*
X110990477Y-125342598D02*
X110914287Y-125494979D01*
X110914287Y-125494979D02*
X110761906Y-125647360D01*
X110761906Y-125647360D02*
X110533334Y-125723550D01*
X110533334Y-125723550D02*
X110152382Y-125723550D01*
X112057144Y-124123550D02*
X112361906Y-124123550D01*
X112361906Y-124123550D02*
X112514287Y-124199740D01*
X112514287Y-124199740D02*
X112666668Y-124352121D01*
X112666668Y-124352121D02*
X112742858Y-124656883D01*
X112742858Y-124656883D02*
X112742858Y-125190217D01*
X112742858Y-125190217D02*
X112666668Y-125494979D01*
X112666668Y-125494979D02*
X112514287Y-125647360D01*
X112514287Y-125647360D02*
X112361906Y-125723550D01*
X112361906Y-125723550D02*
X112057144Y-125723550D01*
X112057144Y-125723550D02*
X111904763Y-125647360D01*
X111904763Y-125647360D02*
X111752382Y-125494979D01*
X111752382Y-125494979D02*
X111676191Y-125190217D01*
X111676191Y-125190217D02*
X111676191Y-124656883D01*
X111676191Y-124656883D02*
X111752382Y-124352121D01*
X111752382Y-124352121D02*
X111904763Y-124199740D01*
X111904763Y-124199740D02*
X112057144Y-124123550D01*
X113428572Y-125723550D02*
X113428572Y-124123550D01*
X113428572Y-124123550D02*
X113961905Y-125266407D01*
X113961905Y-125266407D02*
X114495239Y-124123550D01*
X114495239Y-124123550D02*
X114495239Y-125723550D01*
X115561905Y-124123550D02*
X115866667Y-124123550D01*
X115866667Y-124123550D02*
X116019048Y-124199740D01*
X116019048Y-124199740D02*
X116171429Y-124352121D01*
X116171429Y-124352121D02*
X116247619Y-124656883D01*
X116247619Y-124656883D02*
X116247619Y-125190217D01*
X116247619Y-125190217D02*
X116171429Y-125494979D01*
X116171429Y-125494979D02*
X116019048Y-125647360D01*
X116019048Y-125647360D02*
X115866667Y-125723550D01*
X115866667Y-125723550D02*
X115561905Y-125723550D01*
X115561905Y-125723550D02*
X115409524Y-125647360D01*
X115409524Y-125647360D02*
X115257143Y-125494979D01*
X115257143Y-125494979D02*
X115180952Y-125190217D01*
X115180952Y-125190217D02*
X115180952Y-124656883D01*
X115180952Y-124656883D02*
X115257143Y-124352121D01*
X115257143Y-124352121D02*
X115409524Y-124199740D01*
X115409524Y-124199740D02*
X115561905Y-124123550D01*
X116933333Y-125723550D02*
X116933333Y-124123550D01*
X117847619Y-125723550D02*
X117161904Y-124809264D01*
X117847619Y-124123550D02*
X116933333Y-125037836D01*
X118457142Y-125266407D02*
X119219047Y-125266407D01*
X118304761Y-125723550D02*
X118838095Y-124123550D01*
X118838095Y-124123550D02*
X119371428Y-125723550D01*
X119904762Y-125723550D02*
X119904762Y-124123550D01*
X119904762Y-124123550D02*
X120438095Y-125266407D01*
X120438095Y-125266407D02*
X120971429Y-124123550D01*
X120971429Y-124123550D02*
X120971429Y-125723550D01*
X121733333Y-125723550D02*
X121733333Y-124123550D01*
X124628572Y-125571169D02*
X124552381Y-125647360D01*
X124552381Y-125647360D02*
X124323810Y-125723550D01*
X124323810Y-125723550D02*
X124171429Y-125723550D01*
X124171429Y-125723550D02*
X123942857Y-125647360D01*
X123942857Y-125647360D02*
X123790476Y-125494979D01*
X123790476Y-125494979D02*
X123714286Y-125342598D01*
X123714286Y-125342598D02*
X123638095Y-125037836D01*
X123638095Y-125037836D02*
X123638095Y-124809264D01*
X123638095Y-124809264D02*
X123714286Y-124504502D01*
X123714286Y-124504502D02*
X123790476Y-124352121D01*
X123790476Y-124352121D02*
X123942857Y-124199740D01*
X123942857Y-124199740D02*
X124171429Y-124123550D01*
X124171429Y-124123550D02*
X124323810Y-124123550D01*
X124323810Y-124123550D02*
X124552381Y-124199740D01*
X124552381Y-124199740D02*
X124628572Y-124275931D01*
X125619048Y-124123550D02*
X125923810Y-124123550D01*
X125923810Y-124123550D02*
X126076191Y-124199740D01*
X126076191Y-124199740D02*
X126228572Y-124352121D01*
X126228572Y-124352121D02*
X126304762Y-124656883D01*
X126304762Y-124656883D02*
X126304762Y-125190217D01*
X126304762Y-125190217D02*
X126228572Y-125494979D01*
X126228572Y-125494979D02*
X126076191Y-125647360D01*
X126076191Y-125647360D02*
X125923810Y-125723550D01*
X125923810Y-125723550D02*
X125619048Y-125723550D01*
X125619048Y-125723550D02*
X125466667Y-125647360D01*
X125466667Y-125647360D02*
X125314286Y-125494979D01*
X125314286Y-125494979D02*
X125238095Y-125190217D01*
X125238095Y-125190217D02*
X125238095Y-124656883D01*
X125238095Y-124656883D02*
X125314286Y-124352121D01*
X125314286Y-124352121D02*
X125466667Y-124199740D01*
X125466667Y-124199740D02*
X125619048Y-124123550D01*
X126990476Y-125723550D02*
X126990476Y-124123550D01*
X126990476Y-124123550D02*
X127904762Y-125723550D01*
X127904762Y-125723550D02*
X127904762Y-124123550D01*
X128666666Y-125723550D02*
X128666666Y-124123550D01*
X128666666Y-124123550D02*
X129580952Y-125723550D01*
X129580952Y-125723550D02*
X129580952Y-124123550D01*
X130342856Y-124885455D02*
X130876189Y-124885455D01*
X131104761Y-125723550D02*
X130342856Y-125723550D01*
X130342856Y-125723550D02*
X130342856Y-124123550D01*
X130342856Y-124123550D02*
X131104761Y-124123550D01*
X132704761Y-125571169D02*
X132628570Y-125647360D01*
X132628570Y-125647360D02*
X132399999Y-125723550D01*
X132399999Y-125723550D02*
X132247618Y-125723550D01*
X132247618Y-125723550D02*
X132019046Y-125647360D01*
X132019046Y-125647360D02*
X131866665Y-125494979D01*
X131866665Y-125494979D02*
X131790475Y-125342598D01*
X131790475Y-125342598D02*
X131714284Y-125037836D01*
X131714284Y-125037836D02*
X131714284Y-124809264D01*
X131714284Y-124809264D02*
X131790475Y-124504502D01*
X131790475Y-124504502D02*
X131866665Y-124352121D01*
X131866665Y-124352121D02*
X132019046Y-124199740D01*
X132019046Y-124199740D02*
X132247618Y-124123550D01*
X132247618Y-124123550D02*
X132399999Y-124123550D01*
X132399999Y-124123550D02*
X132628570Y-124199740D01*
X132628570Y-124199740D02*
X132704761Y-124275931D01*
X133161903Y-124123550D02*
X134076189Y-124123550D01*
X133619046Y-125723550D02*
X133619046Y-124123550D01*
D10*
X162900390Y-111109523D02*
X162862295Y-111185713D01*
X162862295Y-111185713D02*
X162862295Y-111299999D01*
X162862295Y-111299999D02*
X162900390Y-111414285D01*
X162900390Y-111414285D02*
X162976580Y-111490475D01*
X162976580Y-111490475D02*
X163052771Y-111528570D01*
X163052771Y-111528570D02*
X163205152Y-111566666D01*
X163205152Y-111566666D02*
X163319438Y-111566666D01*
X163319438Y-111566666D02*
X163471819Y-111528570D01*
X163471819Y-111528570D02*
X163548009Y-111490475D01*
X163548009Y-111490475D02*
X163624200Y-111414285D01*
X163624200Y-111414285D02*
X163662295Y-111299999D01*
X163662295Y-111299999D02*
X163662295Y-111223808D01*
X163662295Y-111223808D02*
X163624200Y-111109523D01*
X163624200Y-111109523D02*
X163586104Y-111071427D01*
X163586104Y-111071427D02*
X163319438Y-111071427D01*
X163319438Y-111071427D02*
X163319438Y-111223808D01*
X163662295Y-110728570D02*
X162862295Y-110728570D01*
X162862295Y-110728570D02*
X163662295Y-110271427D01*
X163662295Y-110271427D02*
X162862295Y-110271427D01*
X163662295Y-109890475D02*
X162862295Y-109890475D01*
X162862295Y-109890475D02*
X162862295Y-109699999D01*
X162862295Y-109699999D02*
X162900390Y-109585713D01*
X162900390Y-109585713D02*
X162976580Y-109509523D01*
X162976580Y-109509523D02*
X163052771Y-109471428D01*
X163052771Y-109471428D02*
X163205152Y-109433332D01*
X163205152Y-109433332D02*
X163319438Y-109433332D01*
X163319438Y-109433332D02*
X163471819Y-109471428D01*
X163471819Y-109471428D02*
X163548009Y-109509523D01*
X163548009Y-109509523D02*
X163624200Y-109585713D01*
X163624200Y-109585713D02*
X163662295Y-109699999D01*
X163662295Y-109699999D02*
X163662295Y-109890475D01*
X162862295Y-113990476D02*
X162862295Y-113495238D01*
X162862295Y-113495238D02*
X163167057Y-113761904D01*
X163167057Y-113761904D02*
X163167057Y-113647619D01*
X163167057Y-113647619D02*
X163205152Y-113571428D01*
X163205152Y-113571428D02*
X163243247Y-113533333D01*
X163243247Y-113533333D02*
X163319438Y-113495238D01*
X163319438Y-113495238D02*
X163509914Y-113495238D01*
X163509914Y-113495238D02*
X163586104Y-113533333D01*
X163586104Y-113533333D02*
X163624200Y-113571428D01*
X163624200Y-113571428D02*
X163662295Y-113647619D01*
X163662295Y-113647619D02*
X163662295Y-113876190D01*
X163662295Y-113876190D02*
X163624200Y-113952381D01*
X163624200Y-113952381D02*
X163586104Y-113990476D01*
X162862295Y-113266666D02*
X163662295Y-112999999D01*
X163662295Y-112999999D02*
X162862295Y-112733333D01*
X162862295Y-112542857D02*
X162862295Y-112047619D01*
X162862295Y-112047619D02*
X163167057Y-112314285D01*
X163167057Y-112314285D02*
X163167057Y-112200000D01*
X163167057Y-112200000D02*
X163205152Y-112123809D01*
X163205152Y-112123809D02*
X163243247Y-112085714D01*
X163243247Y-112085714D02*
X163319438Y-112047619D01*
X163319438Y-112047619D02*
X163509914Y-112047619D01*
X163509914Y-112047619D02*
X163586104Y-112085714D01*
X163586104Y-112085714D02*
X163624200Y-112123809D01*
X163624200Y-112123809D02*
X163662295Y-112200000D01*
X163662295Y-112200000D02*
X163662295Y-112428571D01*
X163662295Y-112428571D02*
X163624200Y-112504762D01*
X163624200Y-112504762D02*
X163586104Y-112542857D01*
X160562295Y-144688095D02*
X161362295Y-144421428D01*
X161362295Y-144421428D02*
X160562295Y-144154762D01*
X161362295Y-143507143D02*
X161362295Y-143888095D01*
X161362295Y-143888095D02*
X160562295Y-143888095D01*
X160562295Y-142859524D02*
X160562295Y-143240476D01*
X160562295Y-143240476D02*
X160943247Y-143278572D01*
X160943247Y-143278572D02*
X160905152Y-143240476D01*
X160905152Y-143240476D02*
X160867057Y-143164286D01*
X160867057Y-143164286D02*
X160867057Y-142973810D01*
X160867057Y-142973810D02*
X160905152Y-142897619D01*
X160905152Y-142897619D02*
X160943247Y-142859524D01*
X160943247Y-142859524D02*
X161019438Y-142821429D01*
X161019438Y-142821429D02*
X161209914Y-142821429D01*
X161209914Y-142821429D02*
X161286104Y-142859524D01*
X161286104Y-142859524D02*
X161324200Y-142897619D01*
X161324200Y-142897619D02*
X161362295Y-142973810D01*
X161362295Y-142973810D02*
X161362295Y-143164286D01*
X161362295Y-143164286D02*
X161324200Y-143240476D01*
X161324200Y-143240476D02*
X161286104Y-143278572D01*
X160562295Y-142554762D02*
X160562295Y-142059524D01*
X160562295Y-142059524D02*
X160867057Y-142326190D01*
X160867057Y-142326190D02*
X160867057Y-142211905D01*
X160867057Y-142211905D02*
X160905152Y-142135714D01*
X160905152Y-142135714D02*
X160943247Y-142097619D01*
X160943247Y-142097619D02*
X161019438Y-142059524D01*
X161019438Y-142059524D02*
X161209914Y-142059524D01*
X161209914Y-142059524D02*
X161286104Y-142097619D01*
X161286104Y-142097619D02*
X161324200Y-142135714D01*
X161324200Y-142135714D02*
X161362295Y-142211905D01*
X161362295Y-142211905D02*
X161362295Y-142440476D01*
X161362295Y-142440476D02*
X161324200Y-142516667D01*
X161324200Y-142516667D02*
X161286104Y-142554762D01*
X161362295Y-141335714D02*
X161362295Y-141716666D01*
X161362295Y-141716666D02*
X160562295Y-141716666D01*
X161362295Y-140650000D02*
X161362295Y-141107143D01*
X161362295Y-140878571D02*
X160562295Y-140878571D01*
X160562295Y-140878571D02*
X160676580Y-140954762D01*
X160676580Y-140954762D02*
X160752771Y-141030952D01*
X160752771Y-141030952D02*
X160790866Y-141107143D01*
X160562295Y-140383333D02*
X161362295Y-139849999D01*
X160562295Y-139849999D02*
X161362295Y-140383333D01*
X161286104Y-117716666D02*
X161324200Y-117754762D01*
X161324200Y-117754762D02*
X161362295Y-117869047D01*
X161362295Y-117869047D02*
X161362295Y-117945238D01*
X161362295Y-117945238D02*
X161324200Y-118059524D01*
X161324200Y-118059524D02*
X161248009Y-118135714D01*
X161248009Y-118135714D02*
X161171819Y-118173809D01*
X161171819Y-118173809D02*
X161019438Y-118211905D01*
X161019438Y-118211905D02*
X160905152Y-118211905D01*
X160905152Y-118211905D02*
X160752771Y-118173809D01*
X160752771Y-118173809D02*
X160676580Y-118135714D01*
X160676580Y-118135714D02*
X160600390Y-118059524D01*
X160600390Y-118059524D02*
X160562295Y-117945238D01*
X160562295Y-117945238D02*
X160562295Y-117869047D01*
X160562295Y-117869047D02*
X160600390Y-117754762D01*
X160600390Y-117754762D02*
X160638485Y-117716666D01*
X161362295Y-117030952D02*
X160943247Y-117030952D01*
X160943247Y-117030952D02*
X160867057Y-117069047D01*
X160867057Y-117069047D02*
X160828961Y-117145238D01*
X160828961Y-117145238D02*
X160828961Y-117297619D01*
X160828961Y-117297619D02*
X160867057Y-117373809D01*
X161324200Y-117030952D02*
X161362295Y-117107143D01*
X161362295Y-117107143D02*
X161362295Y-117297619D01*
X161362295Y-117297619D02*
X161324200Y-117373809D01*
X161324200Y-117373809D02*
X161248009Y-117411905D01*
X161248009Y-117411905D02*
X161171819Y-117411905D01*
X161171819Y-117411905D02*
X161095628Y-117373809D01*
X161095628Y-117373809D02*
X161057533Y-117297619D01*
X161057533Y-117297619D02*
X161057533Y-117107143D01*
X161057533Y-117107143D02*
X161019438Y-117030952D01*
X161362295Y-116649999D02*
X160828961Y-116649999D01*
X160981342Y-116649999D02*
X160905152Y-116611904D01*
X160905152Y-116611904D02*
X160867057Y-116573809D01*
X160867057Y-116573809D02*
X160828961Y-116497618D01*
X160828961Y-116497618D02*
X160828961Y-116421428D01*
X160828961Y-116269047D02*
X160828961Y-115964285D01*
X160562295Y-116154761D02*
X161248009Y-116154761D01*
X161248009Y-116154761D02*
X161324200Y-116116666D01*
X161324200Y-116116666D02*
X161362295Y-116040476D01*
X161362295Y-116040476D02*
X161362295Y-115964285D01*
X161324200Y-115392856D02*
X161362295Y-115469047D01*
X161362295Y-115469047D02*
X161362295Y-115621428D01*
X161362295Y-115621428D02*
X161324200Y-115697618D01*
X161324200Y-115697618D02*
X161248009Y-115735714D01*
X161248009Y-115735714D02*
X160943247Y-115735714D01*
X160943247Y-115735714D02*
X160867057Y-115697618D01*
X160867057Y-115697618D02*
X160828961Y-115621428D01*
X160828961Y-115621428D02*
X160828961Y-115469047D01*
X160828961Y-115469047D02*
X160867057Y-115392856D01*
X160867057Y-115392856D02*
X160943247Y-115354761D01*
X160943247Y-115354761D02*
X161019438Y-115354761D01*
X161019438Y-115354761D02*
X161095628Y-115735714D01*
X161324200Y-115050000D02*
X161362295Y-114973809D01*
X161362295Y-114973809D02*
X161362295Y-114821428D01*
X161362295Y-114821428D02*
X161324200Y-114745238D01*
X161324200Y-114745238D02*
X161248009Y-114707142D01*
X161248009Y-114707142D02*
X161209914Y-114707142D01*
X161209914Y-114707142D02*
X161133723Y-114745238D01*
X161133723Y-114745238D02*
X161095628Y-114821428D01*
X161095628Y-114821428D02*
X161095628Y-114935714D01*
X161095628Y-114935714D02*
X161057533Y-115011904D01*
X161057533Y-115011904D02*
X160981342Y-115050000D01*
X160981342Y-115050000D02*
X160943247Y-115050000D01*
X160943247Y-115050000D02*
X160867057Y-115011904D01*
X160867057Y-115011904D02*
X160828961Y-114935714D01*
X160828961Y-114935714D02*
X160828961Y-114821428D01*
X160828961Y-114821428D02*
X160867057Y-114745238D01*
X161324200Y-113792857D02*
X161362295Y-113716666D01*
X161362295Y-113716666D02*
X161362295Y-113564285D01*
X161362295Y-113564285D02*
X161324200Y-113488095D01*
X161324200Y-113488095D02*
X161248009Y-113449999D01*
X161248009Y-113449999D02*
X161209914Y-113449999D01*
X161209914Y-113449999D02*
X161133723Y-113488095D01*
X161133723Y-113488095D02*
X161095628Y-113564285D01*
X161095628Y-113564285D02*
X161095628Y-113678571D01*
X161095628Y-113678571D02*
X161057533Y-113754761D01*
X161057533Y-113754761D02*
X160981342Y-113792857D01*
X160981342Y-113792857D02*
X160943247Y-113792857D01*
X160943247Y-113792857D02*
X160867057Y-113754761D01*
X160867057Y-113754761D02*
X160828961Y-113678571D01*
X160828961Y-113678571D02*
X160828961Y-113564285D01*
X160828961Y-113564285D02*
X160867057Y-113488095D01*
X161324200Y-112802380D02*
X161362295Y-112878571D01*
X161362295Y-112878571D02*
X161362295Y-113030952D01*
X161362295Y-113030952D02*
X161324200Y-113107142D01*
X161324200Y-113107142D02*
X161248009Y-113145238D01*
X161248009Y-113145238D02*
X160943247Y-113145238D01*
X160943247Y-113145238D02*
X160867057Y-113107142D01*
X160867057Y-113107142D02*
X160828961Y-113030952D01*
X160828961Y-113030952D02*
X160828961Y-112878571D01*
X160828961Y-112878571D02*
X160867057Y-112802380D01*
X160867057Y-112802380D02*
X160943247Y-112764285D01*
X160943247Y-112764285D02*
X161019438Y-112764285D01*
X161019438Y-112764285D02*
X161095628Y-113145238D01*
X161362295Y-112421428D02*
X160828961Y-112421428D01*
X160981342Y-112421428D02*
X160905152Y-112383333D01*
X160905152Y-112383333D02*
X160867057Y-112345238D01*
X160867057Y-112345238D02*
X160828961Y-112269047D01*
X160828961Y-112269047D02*
X160828961Y-112192857D01*
X160828961Y-112002381D02*
X161362295Y-111811905D01*
X161362295Y-111811905D02*
X160828961Y-111621428D01*
X161362295Y-111202381D02*
X161324200Y-111278571D01*
X161324200Y-111278571D02*
X161286104Y-111316666D01*
X161286104Y-111316666D02*
X161209914Y-111354762D01*
X161209914Y-111354762D02*
X160981342Y-111354762D01*
X160981342Y-111354762D02*
X160905152Y-111316666D01*
X160905152Y-111316666D02*
X160867057Y-111278571D01*
X160867057Y-111278571D02*
X160828961Y-111202381D01*
X160828961Y-111202381D02*
X160828961Y-111088095D01*
X160828961Y-111088095D02*
X160867057Y-111011904D01*
X160867057Y-111011904D02*
X160905152Y-110973809D01*
X160905152Y-110973809D02*
X160981342Y-110935714D01*
X160981342Y-110935714D02*
X161209914Y-110935714D01*
X161209914Y-110935714D02*
X161286104Y-110973809D01*
X161286104Y-110973809D02*
X161324200Y-111011904D01*
X161324200Y-111011904D02*
X161362295Y-111088095D01*
X161362295Y-111088095D02*
X161362295Y-111202381D01*
X161324200Y-110630952D02*
X161362295Y-110554761D01*
X161362295Y-110554761D02*
X161362295Y-110402380D01*
X161362295Y-110402380D02*
X161324200Y-110326190D01*
X161324200Y-110326190D02*
X161248009Y-110288094D01*
X161248009Y-110288094D02*
X161209914Y-110288094D01*
X161209914Y-110288094D02*
X161133723Y-110326190D01*
X161133723Y-110326190D02*
X161095628Y-110402380D01*
X161095628Y-110402380D02*
X161095628Y-110516666D01*
X161095628Y-110516666D02*
X161057533Y-110592856D01*
X161057533Y-110592856D02*
X160981342Y-110630952D01*
X160981342Y-110630952D02*
X160943247Y-110630952D01*
X160943247Y-110630952D02*
X160867057Y-110592856D01*
X160867057Y-110592856D02*
X160828961Y-110516666D01*
X160828961Y-110516666D02*
X160828961Y-110402380D01*
X160828961Y-110402380D02*
X160867057Y-110326190D01*
X144964285Y-138862295D02*
X144964285Y-138062295D01*
X144964285Y-138062295D02*
X145154761Y-138062295D01*
X145154761Y-138062295D02*
X145269047Y-138100390D01*
X145269047Y-138100390D02*
X145345237Y-138176580D01*
X145345237Y-138176580D02*
X145383332Y-138252771D01*
X145383332Y-138252771D02*
X145421428Y-138405152D01*
X145421428Y-138405152D02*
X145421428Y-138519438D01*
X145421428Y-138519438D02*
X145383332Y-138671819D01*
X145383332Y-138671819D02*
X145345237Y-138748009D01*
X145345237Y-138748009D02*
X145269047Y-138824200D01*
X145269047Y-138824200D02*
X145154761Y-138862295D01*
X145154761Y-138862295D02*
X144964285Y-138862295D01*
X146373809Y-138328961D02*
X146373809Y-139128961D01*
X146373809Y-138367057D02*
X146449999Y-138328961D01*
X146449999Y-138328961D02*
X146602380Y-138328961D01*
X146602380Y-138328961D02*
X146678571Y-138367057D01*
X146678571Y-138367057D02*
X146716666Y-138405152D01*
X146716666Y-138405152D02*
X146754761Y-138481342D01*
X146754761Y-138481342D02*
X146754761Y-138709914D01*
X146754761Y-138709914D02*
X146716666Y-138786104D01*
X146716666Y-138786104D02*
X146678571Y-138824200D01*
X146678571Y-138824200D02*
X146602380Y-138862295D01*
X146602380Y-138862295D02*
X146449999Y-138862295D01*
X146449999Y-138862295D02*
X146373809Y-138824200D01*
X147211904Y-138862295D02*
X147135714Y-138824200D01*
X147135714Y-138824200D02*
X147097619Y-138786104D01*
X147097619Y-138786104D02*
X147059523Y-138709914D01*
X147059523Y-138709914D02*
X147059523Y-138481342D01*
X147059523Y-138481342D02*
X147097619Y-138405152D01*
X147097619Y-138405152D02*
X147135714Y-138367057D01*
X147135714Y-138367057D02*
X147211904Y-138328961D01*
X147211904Y-138328961D02*
X147326190Y-138328961D01*
X147326190Y-138328961D02*
X147402381Y-138367057D01*
X147402381Y-138367057D02*
X147440476Y-138405152D01*
X147440476Y-138405152D02*
X147478571Y-138481342D01*
X147478571Y-138481342D02*
X147478571Y-138709914D01*
X147478571Y-138709914D02*
X147440476Y-138786104D01*
X147440476Y-138786104D02*
X147402381Y-138824200D01*
X147402381Y-138824200D02*
X147326190Y-138862295D01*
X147326190Y-138862295D02*
X147211904Y-138862295D01*
X148164286Y-138328961D02*
X148164286Y-138862295D01*
X147821429Y-138328961D02*
X147821429Y-138748009D01*
X147821429Y-138748009D02*
X147859524Y-138824200D01*
X147859524Y-138824200D02*
X147935714Y-138862295D01*
X147935714Y-138862295D02*
X148050000Y-138862295D01*
X148050000Y-138862295D02*
X148126191Y-138824200D01*
X148126191Y-138824200D02*
X148164286Y-138786104D01*
X148888096Y-138824200D02*
X148811905Y-138862295D01*
X148811905Y-138862295D02*
X148659524Y-138862295D01*
X148659524Y-138862295D02*
X148583334Y-138824200D01*
X148583334Y-138824200D02*
X148545239Y-138786104D01*
X148545239Y-138786104D02*
X148507143Y-138709914D01*
X148507143Y-138709914D02*
X148507143Y-138481342D01*
X148507143Y-138481342D02*
X148545239Y-138405152D01*
X148545239Y-138405152D02*
X148583334Y-138367057D01*
X148583334Y-138367057D02*
X148659524Y-138328961D01*
X148659524Y-138328961D02*
X148811905Y-138328961D01*
X148811905Y-138328961D02*
X148888096Y-138367057D01*
X149535715Y-138824200D02*
X149459524Y-138862295D01*
X149459524Y-138862295D02*
X149307143Y-138862295D01*
X149307143Y-138862295D02*
X149230953Y-138824200D01*
X149230953Y-138824200D02*
X149192857Y-138748009D01*
X149192857Y-138748009D02*
X149192857Y-138443247D01*
X149192857Y-138443247D02*
X149230953Y-138367057D01*
X149230953Y-138367057D02*
X149307143Y-138328961D01*
X149307143Y-138328961D02*
X149459524Y-138328961D01*
X149459524Y-138328961D02*
X149535715Y-138367057D01*
X149535715Y-138367057D02*
X149573810Y-138443247D01*
X149573810Y-138443247D02*
X149573810Y-138519438D01*
X149573810Y-138519438D02*
X149192857Y-138595628D01*
X115573809Y-138100390D02*
X115497619Y-138062295D01*
X115497619Y-138062295D02*
X115383333Y-138062295D01*
X115383333Y-138062295D02*
X115269047Y-138100390D01*
X115269047Y-138100390D02*
X115192857Y-138176580D01*
X115192857Y-138176580D02*
X115154762Y-138252771D01*
X115154762Y-138252771D02*
X115116666Y-138405152D01*
X115116666Y-138405152D02*
X115116666Y-138519438D01*
X115116666Y-138519438D02*
X115154762Y-138671819D01*
X115154762Y-138671819D02*
X115192857Y-138748009D01*
X115192857Y-138748009D02*
X115269047Y-138824200D01*
X115269047Y-138824200D02*
X115383333Y-138862295D01*
X115383333Y-138862295D02*
X115459524Y-138862295D01*
X115459524Y-138862295D02*
X115573809Y-138824200D01*
X115573809Y-138824200D02*
X115611905Y-138786104D01*
X115611905Y-138786104D02*
X115611905Y-138519438D01*
X115611905Y-138519438D02*
X115459524Y-138519438D01*
X116564286Y-138862295D02*
X116564286Y-138328961D01*
X116564286Y-138062295D02*
X116526190Y-138100390D01*
X116526190Y-138100390D02*
X116564286Y-138138485D01*
X116564286Y-138138485D02*
X116602381Y-138100390D01*
X116602381Y-138100390D02*
X116564286Y-138062295D01*
X116564286Y-138062295D02*
X116564286Y-138138485D01*
X116945238Y-138328961D02*
X116945238Y-138862295D01*
X116945238Y-138405152D02*
X116983333Y-138367057D01*
X116983333Y-138367057D02*
X117059523Y-138328961D01*
X117059523Y-138328961D02*
X117173809Y-138328961D01*
X117173809Y-138328961D02*
X117250000Y-138367057D01*
X117250000Y-138367057D02*
X117288095Y-138443247D01*
X117288095Y-138443247D02*
X117288095Y-138862295D01*
X118011905Y-138862295D02*
X118011905Y-138062295D01*
X118011905Y-138824200D02*
X117935714Y-138862295D01*
X117935714Y-138862295D02*
X117783333Y-138862295D01*
X117783333Y-138862295D02*
X117707143Y-138824200D01*
X117707143Y-138824200D02*
X117669048Y-138786104D01*
X117669048Y-138786104D02*
X117630952Y-138709914D01*
X117630952Y-138709914D02*
X117630952Y-138481342D01*
X117630952Y-138481342D02*
X117669048Y-138405152D01*
X117669048Y-138405152D02*
X117707143Y-138367057D01*
X117707143Y-138367057D02*
X117783333Y-138328961D01*
X117783333Y-138328961D02*
X117935714Y-138328961D01*
X117935714Y-138328961D02*
X118011905Y-138367057D01*
X118697620Y-138824200D02*
X118621429Y-138862295D01*
X118621429Y-138862295D02*
X118469048Y-138862295D01*
X118469048Y-138862295D02*
X118392858Y-138824200D01*
X118392858Y-138824200D02*
X118354762Y-138748009D01*
X118354762Y-138748009D02*
X118354762Y-138443247D01*
X118354762Y-138443247D02*
X118392858Y-138367057D01*
X118392858Y-138367057D02*
X118469048Y-138328961D01*
X118469048Y-138328961D02*
X118621429Y-138328961D01*
X118621429Y-138328961D02*
X118697620Y-138367057D01*
X118697620Y-138367057D02*
X118735715Y-138443247D01*
X118735715Y-138443247D02*
X118735715Y-138519438D01*
X118735715Y-138519438D02*
X118354762Y-138595628D01*
X119002381Y-138862295D02*
X119421429Y-138328961D01*
X119002381Y-138328961D02*
X119421429Y-138862295D01*
X111161903Y-151443247D02*
X110895237Y-151443247D01*
X110895237Y-151862295D02*
X110895237Y-151062295D01*
X110895237Y-151062295D02*
X111276189Y-151062295D01*
X111542855Y-151824200D02*
X111657141Y-151862295D01*
X111657141Y-151862295D02*
X111847617Y-151862295D01*
X111847617Y-151862295D02*
X111923808Y-151824200D01*
X111923808Y-151824200D02*
X111961903Y-151786104D01*
X111961903Y-151786104D02*
X111999998Y-151709914D01*
X111999998Y-151709914D02*
X111999998Y-151633723D01*
X111999998Y-151633723D02*
X111961903Y-151557533D01*
X111961903Y-151557533D02*
X111923808Y-151519438D01*
X111923808Y-151519438D02*
X111847617Y-151481342D01*
X111847617Y-151481342D02*
X111695236Y-151443247D01*
X111695236Y-151443247D02*
X111619046Y-151405152D01*
X111619046Y-151405152D02*
X111580951Y-151367057D01*
X111580951Y-151367057D02*
X111542855Y-151290866D01*
X111542855Y-151290866D02*
X111542855Y-151214676D01*
X111542855Y-151214676D02*
X111580951Y-151138485D01*
X111580951Y-151138485D02*
X111619046Y-151100390D01*
X111619046Y-151100390D02*
X111695236Y-151062295D01*
X111695236Y-151062295D02*
X111885713Y-151062295D01*
X111885713Y-151062295D02*
X111999998Y-151100390D01*
X112799999Y-151862295D02*
X112533332Y-151481342D01*
X112342856Y-151862295D02*
X112342856Y-151062295D01*
X112342856Y-151062295D02*
X112647618Y-151062295D01*
X112647618Y-151062295D02*
X112723808Y-151100390D01*
X112723808Y-151100390D02*
X112761903Y-151138485D01*
X112761903Y-151138485D02*
X112799999Y-151214676D01*
X112799999Y-151214676D02*
X112799999Y-151328961D01*
X112799999Y-151328961D02*
X112761903Y-151405152D01*
X112761903Y-151405152D02*
X112723808Y-151443247D01*
X112723808Y-151443247D02*
X112647618Y-151481342D01*
X112647618Y-151481342D02*
X112342856Y-151481342D01*
X113752380Y-151786104D02*
X113790475Y-151824200D01*
X113790475Y-151824200D02*
X113752380Y-151862295D01*
X113752380Y-151862295D02*
X113714284Y-151824200D01*
X113714284Y-151824200D02*
X113752380Y-151786104D01*
X113752380Y-151786104D02*
X113752380Y-151862295D01*
X113752380Y-151367057D02*
X113790475Y-151405152D01*
X113790475Y-151405152D02*
X113752380Y-151443247D01*
X113752380Y-151443247D02*
X113714284Y-151405152D01*
X113714284Y-151405152D02*
X113752380Y-151367057D01*
X113752380Y-151367057D02*
X113752380Y-151443247D01*
X114742856Y-151862295D02*
X114742856Y-151062295D01*
X114742856Y-151367057D02*
X114819046Y-151328961D01*
X114819046Y-151328961D02*
X114971427Y-151328961D01*
X114971427Y-151328961D02*
X115047618Y-151367057D01*
X115047618Y-151367057D02*
X115085713Y-151405152D01*
X115085713Y-151405152D02*
X115123808Y-151481342D01*
X115123808Y-151481342D02*
X115123808Y-151709914D01*
X115123808Y-151709914D02*
X115085713Y-151786104D01*
X115085713Y-151786104D02*
X115047618Y-151824200D01*
X115047618Y-151824200D02*
X114971427Y-151862295D01*
X114971427Y-151862295D02*
X114819046Y-151862295D01*
X114819046Y-151862295D02*
X114742856Y-151824200D01*
X115466666Y-151862295D02*
X115466666Y-151328961D01*
X115466666Y-151481342D02*
X115504761Y-151405152D01*
X115504761Y-151405152D02*
X115542856Y-151367057D01*
X115542856Y-151367057D02*
X115619047Y-151328961D01*
X115619047Y-151328961D02*
X115695237Y-151328961D01*
X116076189Y-151862295D02*
X115999999Y-151824200D01*
X115999999Y-151824200D02*
X115961904Y-151786104D01*
X115961904Y-151786104D02*
X115923808Y-151709914D01*
X115923808Y-151709914D02*
X115923808Y-151481342D01*
X115923808Y-151481342D02*
X115961904Y-151405152D01*
X115961904Y-151405152D02*
X115999999Y-151367057D01*
X115999999Y-151367057D02*
X116076189Y-151328961D01*
X116076189Y-151328961D02*
X116190475Y-151328961D01*
X116190475Y-151328961D02*
X116266666Y-151367057D01*
X116266666Y-151367057D02*
X116304761Y-151405152D01*
X116304761Y-151405152D02*
X116342856Y-151481342D01*
X116342856Y-151481342D02*
X116342856Y-151709914D01*
X116342856Y-151709914D02*
X116304761Y-151786104D01*
X116304761Y-151786104D02*
X116266666Y-151824200D01*
X116266666Y-151824200D02*
X116190475Y-151862295D01*
X116190475Y-151862295D02*
X116076189Y-151862295D01*
X117028571Y-151824200D02*
X116952380Y-151862295D01*
X116952380Y-151862295D02*
X116799999Y-151862295D01*
X116799999Y-151862295D02*
X116723809Y-151824200D01*
X116723809Y-151824200D02*
X116685714Y-151786104D01*
X116685714Y-151786104D02*
X116647618Y-151709914D01*
X116647618Y-151709914D02*
X116647618Y-151481342D01*
X116647618Y-151481342D02*
X116685714Y-151405152D01*
X116685714Y-151405152D02*
X116723809Y-151367057D01*
X116723809Y-151367057D02*
X116799999Y-151328961D01*
X116799999Y-151328961D02*
X116952380Y-151328961D01*
X116952380Y-151328961D02*
X117028571Y-151367057D01*
X117371428Y-151862295D02*
X117371428Y-151062295D01*
X117714285Y-151862295D02*
X117714285Y-151443247D01*
X117714285Y-151443247D02*
X117676190Y-151367057D01*
X117676190Y-151367057D02*
X117599999Y-151328961D01*
X117599999Y-151328961D02*
X117485713Y-151328961D01*
X117485713Y-151328961D02*
X117409523Y-151367057D01*
X117409523Y-151367057D02*
X117371428Y-151405152D01*
X118400000Y-151824200D02*
X118323809Y-151862295D01*
X118323809Y-151862295D02*
X118171428Y-151862295D01*
X118171428Y-151862295D02*
X118095238Y-151824200D01*
X118095238Y-151824200D02*
X118057142Y-151748009D01*
X118057142Y-151748009D02*
X118057142Y-151443247D01*
X118057142Y-151443247D02*
X118095238Y-151367057D01*
X118095238Y-151367057D02*
X118171428Y-151328961D01*
X118171428Y-151328961D02*
X118323809Y-151328961D01*
X118323809Y-151328961D02*
X118400000Y-151367057D01*
X118400000Y-151367057D02*
X118438095Y-151443247D01*
X118438095Y-151443247D02*
X118438095Y-151519438D01*
X118438095Y-151519438D02*
X118057142Y-151595628D01*
X119809523Y-151862295D02*
X119352380Y-151862295D01*
X119580952Y-151862295D02*
X119580952Y-151062295D01*
X119580952Y-151062295D02*
X119504761Y-151176580D01*
X119504761Y-151176580D02*
X119428571Y-151252771D01*
X119428571Y-151252771D02*
X119352380Y-151290866D01*
X120761905Y-151443247D02*
X121371429Y-151443247D01*
X121371429Y-151671819D02*
X120761905Y-151671819D01*
X122285714Y-151062295D02*
X122780952Y-151062295D01*
X122780952Y-151062295D02*
X122514286Y-151367057D01*
X122514286Y-151367057D02*
X122628571Y-151367057D01*
X122628571Y-151367057D02*
X122704762Y-151405152D01*
X122704762Y-151405152D02*
X122742857Y-151443247D01*
X122742857Y-151443247D02*
X122780952Y-151519438D01*
X122780952Y-151519438D02*
X122780952Y-151709914D01*
X122780952Y-151709914D02*
X122742857Y-151786104D01*
X122742857Y-151786104D02*
X122704762Y-151824200D01*
X122704762Y-151824200D02*
X122628571Y-151862295D01*
X122628571Y-151862295D02*
X122400000Y-151862295D01*
X122400000Y-151862295D02*
X122323809Y-151824200D01*
X122323809Y-151824200D02*
X122285714Y-151786104D01*
X123009524Y-151062295D02*
X123276191Y-151862295D01*
X123276191Y-151862295D02*
X123542857Y-151062295D01*
X123733333Y-151062295D02*
X124228571Y-151062295D01*
X124228571Y-151062295D02*
X123961905Y-151367057D01*
X123961905Y-151367057D02*
X124076190Y-151367057D01*
X124076190Y-151367057D02*
X124152381Y-151405152D01*
X124152381Y-151405152D02*
X124190476Y-151443247D01*
X124190476Y-151443247D02*
X124228571Y-151519438D01*
X124228571Y-151519438D02*
X124228571Y-151709914D01*
X124228571Y-151709914D02*
X124190476Y-151786104D01*
X124190476Y-151786104D02*
X124152381Y-151824200D01*
X124152381Y-151824200D02*
X124076190Y-151862295D01*
X124076190Y-151862295D02*
X123847619Y-151862295D01*
X123847619Y-151862295D02*
X123771428Y-151824200D01*
X123771428Y-151824200D02*
X123733333Y-151786104D01*
X124609524Y-151824200D02*
X124609524Y-151862295D01*
X124609524Y-151862295D02*
X124571429Y-151938485D01*
X124571429Y-151938485D02*
X124533333Y-151976580D01*
X125561905Y-151862295D02*
X125561905Y-151062295D01*
X125561905Y-151367057D02*
X125638095Y-151328961D01*
X125638095Y-151328961D02*
X125790476Y-151328961D01*
X125790476Y-151328961D02*
X125866667Y-151367057D01*
X125866667Y-151367057D02*
X125904762Y-151405152D01*
X125904762Y-151405152D02*
X125942857Y-151481342D01*
X125942857Y-151481342D02*
X125942857Y-151709914D01*
X125942857Y-151709914D02*
X125904762Y-151786104D01*
X125904762Y-151786104D02*
X125866667Y-151824200D01*
X125866667Y-151824200D02*
X125790476Y-151862295D01*
X125790476Y-151862295D02*
X125638095Y-151862295D01*
X125638095Y-151862295D02*
X125561905Y-151824200D01*
X126285715Y-151862295D02*
X126285715Y-151328961D01*
X126285715Y-151481342D02*
X126323810Y-151405152D01*
X126323810Y-151405152D02*
X126361905Y-151367057D01*
X126361905Y-151367057D02*
X126438096Y-151328961D01*
X126438096Y-151328961D02*
X126514286Y-151328961D01*
X126895238Y-151862295D02*
X126819048Y-151824200D01*
X126819048Y-151824200D02*
X126780953Y-151786104D01*
X126780953Y-151786104D02*
X126742857Y-151709914D01*
X126742857Y-151709914D02*
X126742857Y-151481342D01*
X126742857Y-151481342D02*
X126780953Y-151405152D01*
X126780953Y-151405152D02*
X126819048Y-151367057D01*
X126819048Y-151367057D02*
X126895238Y-151328961D01*
X126895238Y-151328961D02*
X127009524Y-151328961D01*
X127009524Y-151328961D02*
X127085715Y-151367057D01*
X127085715Y-151367057D02*
X127123810Y-151405152D01*
X127123810Y-151405152D02*
X127161905Y-151481342D01*
X127161905Y-151481342D02*
X127161905Y-151709914D01*
X127161905Y-151709914D02*
X127123810Y-151786104D01*
X127123810Y-151786104D02*
X127085715Y-151824200D01*
X127085715Y-151824200D02*
X127009524Y-151862295D01*
X127009524Y-151862295D02*
X126895238Y-151862295D01*
X127847620Y-151824200D02*
X127771429Y-151862295D01*
X127771429Y-151862295D02*
X127619048Y-151862295D01*
X127619048Y-151862295D02*
X127542858Y-151824200D01*
X127542858Y-151824200D02*
X127504763Y-151786104D01*
X127504763Y-151786104D02*
X127466667Y-151709914D01*
X127466667Y-151709914D02*
X127466667Y-151481342D01*
X127466667Y-151481342D02*
X127504763Y-151405152D01*
X127504763Y-151405152D02*
X127542858Y-151367057D01*
X127542858Y-151367057D02*
X127619048Y-151328961D01*
X127619048Y-151328961D02*
X127771429Y-151328961D01*
X127771429Y-151328961D02*
X127847620Y-151367057D01*
X128190477Y-151862295D02*
X128190477Y-151062295D01*
X128533334Y-151862295D02*
X128533334Y-151443247D01*
X128533334Y-151443247D02*
X128495239Y-151367057D01*
X128495239Y-151367057D02*
X128419048Y-151328961D01*
X128419048Y-151328961D02*
X128304762Y-151328961D01*
X128304762Y-151328961D02*
X128228572Y-151367057D01*
X128228572Y-151367057D02*
X128190477Y-151405152D01*
X129219049Y-151824200D02*
X129142858Y-151862295D01*
X129142858Y-151862295D02*
X128990477Y-151862295D01*
X128990477Y-151862295D02*
X128914287Y-151824200D01*
X128914287Y-151824200D02*
X128876191Y-151748009D01*
X128876191Y-151748009D02*
X128876191Y-151443247D01*
X128876191Y-151443247D02*
X128914287Y-151367057D01*
X128914287Y-151367057D02*
X128990477Y-151328961D01*
X128990477Y-151328961D02*
X129142858Y-151328961D01*
X129142858Y-151328961D02*
X129219049Y-151367057D01*
X129219049Y-151367057D02*
X129257144Y-151443247D01*
X129257144Y-151443247D02*
X129257144Y-151519438D01*
X129257144Y-151519438D02*
X128876191Y-151595628D01*
X130171429Y-151138485D02*
X130209525Y-151100390D01*
X130209525Y-151100390D02*
X130285715Y-151062295D01*
X130285715Y-151062295D02*
X130476191Y-151062295D01*
X130476191Y-151062295D02*
X130552382Y-151100390D01*
X130552382Y-151100390D02*
X130590477Y-151138485D01*
X130590477Y-151138485D02*
X130628572Y-151214676D01*
X130628572Y-151214676D02*
X130628572Y-151290866D01*
X130628572Y-151290866D02*
X130590477Y-151405152D01*
X130590477Y-151405152D02*
X130133334Y-151862295D01*
X130133334Y-151862295D02*
X130628572Y-151862295D01*
X131580954Y-151443247D02*
X132190478Y-151443247D01*
X132190478Y-151671819D02*
X131580954Y-151671819D01*
X133180954Y-151862295D02*
X133180954Y-151328961D01*
X133180954Y-151405152D02*
X133219049Y-151367057D01*
X133219049Y-151367057D02*
X133295239Y-151328961D01*
X133295239Y-151328961D02*
X133409525Y-151328961D01*
X133409525Y-151328961D02*
X133485716Y-151367057D01*
X133485716Y-151367057D02*
X133523811Y-151443247D01*
X133523811Y-151443247D02*
X133523811Y-151862295D01*
X133523811Y-151443247D02*
X133561906Y-151367057D01*
X133561906Y-151367057D02*
X133638097Y-151328961D01*
X133638097Y-151328961D02*
X133752382Y-151328961D01*
X133752382Y-151328961D02*
X133828573Y-151367057D01*
X133828573Y-151367057D02*
X133866668Y-151443247D01*
X133866668Y-151443247D02*
X133866668Y-151862295D01*
X134552383Y-151824200D02*
X134476192Y-151862295D01*
X134476192Y-151862295D02*
X134323811Y-151862295D01*
X134323811Y-151862295D02*
X134247621Y-151824200D01*
X134247621Y-151824200D02*
X134209525Y-151748009D01*
X134209525Y-151748009D02*
X134209525Y-151443247D01*
X134209525Y-151443247D02*
X134247621Y-151367057D01*
X134247621Y-151367057D02*
X134323811Y-151328961D01*
X134323811Y-151328961D02*
X134476192Y-151328961D01*
X134476192Y-151328961D02*
X134552383Y-151367057D01*
X134552383Y-151367057D02*
X134590478Y-151443247D01*
X134590478Y-151443247D02*
X134590478Y-151519438D01*
X134590478Y-151519438D02*
X134209525Y-151595628D01*
X134895239Y-151824200D02*
X134971430Y-151862295D01*
X134971430Y-151862295D02*
X135123811Y-151862295D01*
X135123811Y-151862295D02*
X135200001Y-151824200D01*
X135200001Y-151824200D02*
X135238097Y-151748009D01*
X135238097Y-151748009D02*
X135238097Y-151709914D01*
X135238097Y-151709914D02*
X135200001Y-151633723D01*
X135200001Y-151633723D02*
X135123811Y-151595628D01*
X135123811Y-151595628D02*
X135009525Y-151595628D01*
X135009525Y-151595628D02*
X134933335Y-151557533D01*
X134933335Y-151557533D02*
X134895239Y-151481342D01*
X134895239Y-151481342D02*
X134895239Y-151443247D01*
X134895239Y-151443247D02*
X134933335Y-151367057D01*
X134933335Y-151367057D02*
X135009525Y-151328961D01*
X135009525Y-151328961D02*
X135123811Y-151328961D01*
X135123811Y-151328961D02*
X135200001Y-151367057D01*
X135923811Y-151328961D02*
X135923811Y-151862295D01*
X135580954Y-151328961D02*
X135580954Y-151748009D01*
X135580954Y-151748009D02*
X135619049Y-151824200D01*
X135619049Y-151824200D02*
X135695239Y-151862295D01*
X135695239Y-151862295D02*
X135809525Y-151862295D01*
X135809525Y-151862295D02*
X135885716Y-151824200D01*
X135885716Y-151824200D02*
X135923811Y-151786104D01*
X136304764Y-151862295D02*
X136304764Y-151328961D01*
X136304764Y-151481342D02*
X136342859Y-151405152D01*
X136342859Y-151405152D02*
X136380954Y-151367057D01*
X136380954Y-151367057D02*
X136457145Y-151328961D01*
X136457145Y-151328961D02*
X136533335Y-151328961D01*
X137104764Y-151824200D02*
X137028573Y-151862295D01*
X137028573Y-151862295D02*
X136876192Y-151862295D01*
X136876192Y-151862295D02*
X136800002Y-151824200D01*
X136800002Y-151824200D02*
X136761906Y-151748009D01*
X136761906Y-151748009D02*
X136761906Y-151443247D01*
X136761906Y-151443247D02*
X136800002Y-151367057D01*
X136800002Y-151367057D02*
X136876192Y-151328961D01*
X136876192Y-151328961D02*
X137028573Y-151328961D01*
X137028573Y-151328961D02*
X137104764Y-151367057D01*
X137104764Y-151367057D02*
X137142859Y-151443247D01*
X137142859Y-151443247D02*
X137142859Y-151519438D01*
X137142859Y-151519438D02*
X136761906Y-151595628D01*
X139657143Y-111562295D02*
X139657143Y-112209914D01*
X139657143Y-112209914D02*
X139695238Y-112286104D01*
X139695238Y-112286104D02*
X139733333Y-112324200D01*
X139733333Y-112324200D02*
X139809524Y-112362295D01*
X139809524Y-112362295D02*
X139961905Y-112362295D01*
X139961905Y-112362295D02*
X140038095Y-112324200D01*
X140038095Y-112324200D02*
X140076190Y-112286104D01*
X140076190Y-112286104D02*
X140114286Y-112209914D01*
X140114286Y-112209914D02*
X140114286Y-111562295D01*
X140419047Y-111562295D02*
X140914285Y-111562295D01*
X140914285Y-111562295D02*
X140647619Y-111867057D01*
X140647619Y-111867057D02*
X140761904Y-111867057D01*
X140761904Y-111867057D02*
X140838095Y-111905152D01*
X140838095Y-111905152D02*
X140876190Y-111943247D01*
X140876190Y-111943247D02*
X140914285Y-112019438D01*
X140914285Y-112019438D02*
X140914285Y-112209914D01*
X140914285Y-112209914D02*
X140876190Y-112286104D01*
X140876190Y-112286104D02*
X140838095Y-112324200D01*
X140838095Y-112324200D02*
X140761904Y-112362295D01*
X140761904Y-112362295D02*
X140533333Y-112362295D01*
X140533333Y-112362295D02*
X140457142Y-112324200D01*
X140457142Y-112324200D02*
X140419047Y-112286104D01*
X142019048Y-111562295D02*
X142095238Y-111562295D01*
X142095238Y-111562295D02*
X142171429Y-111600390D01*
X142171429Y-111600390D02*
X142209524Y-111638485D01*
X142209524Y-111638485D02*
X142247619Y-111714676D01*
X142247619Y-111714676D02*
X142285714Y-111867057D01*
X142285714Y-111867057D02*
X142285714Y-112057533D01*
X142285714Y-112057533D02*
X142247619Y-112209914D01*
X142247619Y-112209914D02*
X142209524Y-112286104D01*
X142209524Y-112286104D02*
X142171429Y-112324200D01*
X142171429Y-112324200D02*
X142095238Y-112362295D01*
X142095238Y-112362295D02*
X142019048Y-112362295D01*
X142019048Y-112362295D02*
X141942857Y-112324200D01*
X141942857Y-112324200D02*
X141904762Y-112286104D01*
X141904762Y-112286104D02*
X141866667Y-112209914D01*
X141866667Y-112209914D02*
X141828571Y-112057533D01*
X141828571Y-112057533D02*
X141828571Y-111867057D01*
X141828571Y-111867057D02*
X141866667Y-111714676D01*
X141866667Y-111714676D02*
X141904762Y-111638485D01*
X141904762Y-111638485D02*
X141942857Y-111600390D01*
X141942857Y-111600390D02*
X142019048Y-111562295D01*
X142552381Y-112362295D02*
X142971429Y-111828961D01*
X142552381Y-111828961D02*
X142971429Y-112362295D01*
X143619048Y-111828961D02*
X143619048Y-112362295D01*
X143428572Y-111524200D02*
X143238095Y-112095628D01*
X143238095Y-112095628D02*
X143733334Y-112095628D01*
X144000000Y-112133723D02*
X144380953Y-112133723D01*
X143923810Y-112362295D02*
X144190477Y-111562295D01*
X144190477Y-111562295D02*
X144457143Y-112362295D01*
X114697619Y-149862295D02*
X114697619Y-149062295D01*
X114697619Y-149062295D02*
X114888095Y-149062295D01*
X114888095Y-149062295D02*
X115002381Y-149100390D01*
X115002381Y-149100390D02*
X115078571Y-149176580D01*
X115078571Y-149176580D02*
X115116666Y-149252771D01*
X115116666Y-149252771D02*
X115154762Y-149405152D01*
X115154762Y-149405152D02*
X115154762Y-149519438D01*
X115154762Y-149519438D02*
X115116666Y-149671819D01*
X115116666Y-149671819D02*
X115078571Y-149748009D01*
X115078571Y-149748009D02*
X115002381Y-149824200D01*
X115002381Y-149824200D02*
X114888095Y-149862295D01*
X114888095Y-149862295D02*
X114697619Y-149862295D01*
X116107143Y-149862295D02*
X116107143Y-149328961D01*
X116107143Y-149405152D02*
X116145238Y-149367057D01*
X116145238Y-149367057D02*
X116221428Y-149328961D01*
X116221428Y-149328961D02*
X116335714Y-149328961D01*
X116335714Y-149328961D02*
X116411905Y-149367057D01*
X116411905Y-149367057D02*
X116450000Y-149443247D01*
X116450000Y-149443247D02*
X116450000Y-149862295D01*
X116450000Y-149443247D02*
X116488095Y-149367057D01*
X116488095Y-149367057D02*
X116564286Y-149328961D01*
X116564286Y-149328961D02*
X116678571Y-149328961D01*
X116678571Y-149328961D02*
X116754762Y-149367057D01*
X116754762Y-149367057D02*
X116792857Y-149443247D01*
X116792857Y-149443247D02*
X116792857Y-149862295D01*
X117516667Y-149862295D02*
X117516667Y-149443247D01*
X117516667Y-149443247D02*
X117478572Y-149367057D01*
X117478572Y-149367057D02*
X117402381Y-149328961D01*
X117402381Y-149328961D02*
X117250000Y-149328961D01*
X117250000Y-149328961D02*
X117173810Y-149367057D01*
X117516667Y-149824200D02*
X117440476Y-149862295D01*
X117440476Y-149862295D02*
X117250000Y-149862295D01*
X117250000Y-149862295D02*
X117173810Y-149824200D01*
X117173810Y-149824200D02*
X117135714Y-149748009D01*
X117135714Y-149748009D02*
X117135714Y-149671819D01*
X117135714Y-149671819D02*
X117173810Y-149595628D01*
X117173810Y-149595628D02*
X117250000Y-149557533D01*
X117250000Y-149557533D02*
X117440476Y-149557533D01*
X117440476Y-149557533D02*
X117516667Y-149519438D01*
X117897620Y-149328961D02*
X117897620Y-150014676D01*
X117897620Y-150014676D02*
X117859524Y-150090866D01*
X117859524Y-150090866D02*
X117783334Y-150128961D01*
X117783334Y-150128961D02*
X117745239Y-150128961D01*
X117897620Y-149062295D02*
X117859524Y-149100390D01*
X117859524Y-149100390D02*
X117897620Y-149138485D01*
X117897620Y-149138485D02*
X117935715Y-149100390D01*
X117935715Y-149100390D02*
X117897620Y-149062295D01*
X117897620Y-149062295D02*
X117897620Y-149138485D01*
X118583334Y-149824200D02*
X118507143Y-149862295D01*
X118507143Y-149862295D02*
X118354762Y-149862295D01*
X118354762Y-149862295D02*
X118278572Y-149824200D01*
X118278572Y-149824200D02*
X118240476Y-149748009D01*
X118240476Y-149748009D02*
X118240476Y-149443247D01*
X118240476Y-149443247D02*
X118278572Y-149367057D01*
X118278572Y-149367057D02*
X118354762Y-149328961D01*
X118354762Y-149328961D02*
X118507143Y-149328961D01*
X118507143Y-149328961D02*
X118583334Y-149367057D01*
X118583334Y-149367057D02*
X118621429Y-149443247D01*
X118621429Y-149443247D02*
X118621429Y-149519438D01*
X118621429Y-149519438D02*
X118240476Y-149595628D01*
X119307143Y-149328961D02*
X119307143Y-149862295D01*
X118964286Y-149328961D02*
X118964286Y-149748009D01*
X118964286Y-149748009D02*
X119002381Y-149824200D01*
X119002381Y-149824200D02*
X119078571Y-149862295D01*
X119078571Y-149862295D02*
X119192857Y-149862295D01*
X119192857Y-149862295D02*
X119269048Y-149824200D01*
X119269048Y-149824200D02*
X119307143Y-149786104D01*
X119688096Y-149862295D02*
X119688096Y-149328961D01*
X119688096Y-149481342D02*
X119726191Y-149405152D01*
X119726191Y-149405152D02*
X119764286Y-149367057D01*
X119764286Y-149367057D02*
X119840477Y-149328961D01*
X119840477Y-149328961D02*
X119916667Y-149328961D01*
X163624200Y-118952381D02*
X163662295Y-118838095D01*
X163662295Y-118838095D02*
X163662295Y-118647619D01*
X163662295Y-118647619D02*
X163624200Y-118571428D01*
X163624200Y-118571428D02*
X163586104Y-118533333D01*
X163586104Y-118533333D02*
X163509914Y-118495238D01*
X163509914Y-118495238D02*
X163433723Y-118495238D01*
X163433723Y-118495238D02*
X163357533Y-118533333D01*
X163357533Y-118533333D02*
X163319438Y-118571428D01*
X163319438Y-118571428D02*
X163281342Y-118647619D01*
X163281342Y-118647619D02*
X163243247Y-118800000D01*
X163243247Y-118800000D02*
X163205152Y-118876190D01*
X163205152Y-118876190D02*
X163167057Y-118914285D01*
X163167057Y-118914285D02*
X163090866Y-118952381D01*
X163090866Y-118952381D02*
X163014676Y-118952381D01*
X163014676Y-118952381D02*
X162938485Y-118914285D01*
X162938485Y-118914285D02*
X162900390Y-118876190D01*
X162900390Y-118876190D02*
X162862295Y-118800000D01*
X162862295Y-118800000D02*
X162862295Y-118609523D01*
X162862295Y-118609523D02*
X162900390Y-118495238D01*
X163586104Y-117695237D02*
X163624200Y-117733333D01*
X163624200Y-117733333D02*
X163662295Y-117847618D01*
X163662295Y-117847618D02*
X163662295Y-117923809D01*
X163662295Y-117923809D02*
X163624200Y-118038095D01*
X163624200Y-118038095D02*
X163548009Y-118114285D01*
X163548009Y-118114285D02*
X163471819Y-118152380D01*
X163471819Y-118152380D02*
X163319438Y-118190476D01*
X163319438Y-118190476D02*
X163205152Y-118190476D01*
X163205152Y-118190476D02*
X163052771Y-118152380D01*
X163052771Y-118152380D02*
X162976580Y-118114285D01*
X162976580Y-118114285D02*
X162900390Y-118038095D01*
X162900390Y-118038095D02*
X162862295Y-117923809D01*
X162862295Y-117923809D02*
X162862295Y-117847618D01*
X162862295Y-117847618D02*
X162900390Y-117733333D01*
X162900390Y-117733333D02*
X162938485Y-117695237D01*
X163662295Y-116971428D02*
X163662295Y-117352380D01*
X163662295Y-117352380D02*
X162862295Y-117352380D01*
X163624200Y-116471428D02*
X163662295Y-116357142D01*
X163662295Y-116357142D02*
X163662295Y-116166666D01*
X163662295Y-116166666D02*
X163624200Y-116090475D01*
X163624200Y-116090475D02*
X163586104Y-116052380D01*
X163586104Y-116052380D02*
X163509914Y-116014285D01*
X163509914Y-116014285D02*
X163433723Y-116014285D01*
X163433723Y-116014285D02*
X163357533Y-116052380D01*
X163357533Y-116052380D02*
X163319438Y-116090475D01*
X163319438Y-116090475D02*
X163281342Y-116166666D01*
X163281342Y-116166666D02*
X163243247Y-116319047D01*
X163243247Y-116319047D02*
X163205152Y-116395237D01*
X163205152Y-116395237D02*
X163167057Y-116433332D01*
X163167057Y-116433332D02*
X163090866Y-116471428D01*
X163090866Y-116471428D02*
X163014676Y-116471428D01*
X163014676Y-116471428D02*
X162938485Y-116433332D01*
X162938485Y-116433332D02*
X162900390Y-116395237D01*
X162900390Y-116395237D02*
X162862295Y-116319047D01*
X162862295Y-116319047D02*
X162862295Y-116128570D01*
X162862295Y-116128570D02*
X162900390Y-116014285D01*
X163662295Y-115671427D02*
X162862295Y-115671427D01*
X162862295Y-115671427D02*
X162862295Y-115480951D01*
X162862295Y-115480951D02*
X162900390Y-115366665D01*
X162900390Y-115366665D02*
X162976580Y-115290475D01*
X162976580Y-115290475D02*
X163052771Y-115252380D01*
X163052771Y-115252380D02*
X163205152Y-115214284D01*
X163205152Y-115214284D02*
X163319438Y-115214284D01*
X163319438Y-115214284D02*
X163471819Y-115252380D01*
X163471819Y-115252380D02*
X163548009Y-115290475D01*
X163548009Y-115290475D02*
X163624200Y-115366665D01*
X163624200Y-115366665D02*
X163662295Y-115480951D01*
X163662295Y-115480951D02*
X163662295Y-115671427D01*
X163433723Y-114909523D02*
X163433723Y-114528570D01*
X163662295Y-114985713D02*
X162862295Y-114719046D01*
X162862295Y-114719046D02*
X163662295Y-114452380D01*
X110535714Y-128008557D02*
X110535714Y-127108557D01*
X110535714Y-127537128D02*
X111050000Y-127537128D01*
X111050000Y-128008557D02*
X111050000Y-127108557D01*
X111435714Y-127751414D02*
X111864286Y-127751414D01*
X111350000Y-128008557D02*
X111650000Y-127108557D01*
X111650000Y-127108557D02*
X111950000Y-128008557D01*
X112121429Y-127108557D02*
X112635715Y-127108557D01*
X112378572Y-128008557D02*
X112378572Y-127108557D01*
X114007143Y-127965700D02*
X113921428Y-128008557D01*
X113921428Y-128008557D02*
X113750000Y-128008557D01*
X113750000Y-128008557D02*
X113664285Y-127965700D01*
X113664285Y-127965700D02*
X113621428Y-127922842D01*
X113621428Y-127922842D02*
X113578571Y-127837128D01*
X113578571Y-127837128D02*
X113578571Y-127579985D01*
X113578571Y-127579985D02*
X113621428Y-127494271D01*
X113621428Y-127494271D02*
X113664285Y-127451414D01*
X113664285Y-127451414D02*
X113750000Y-127408557D01*
X113750000Y-127408557D02*
X113921428Y-127408557D01*
X113921428Y-127408557D02*
X114007143Y-127451414D01*
X114778572Y-128008557D02*
X114778572Y-127537128D01*
X114778572Y-127537128D02*
X114735714Y-127451414D01*
X114735714Y-127451414D02*
X114650000Y-127408557D01*
X114650000Y-127408557D02*
X114478572Y-127408557D01*
X114478572Y-127408557D02*
X114392857Y-127451414D01*
X114778572Y-127965700D02*
X114692857Y-128008557D01*
X114692857Y-128008557D02*
X114478572Y-128008557D01*
X114478572Y-128008557D02*
X114392857Y-127965700D01*
X114392857Y-127965700D02*
X114350000Y-127879985D01*
X114350000Y-127879985D02*
X114350000Y-127794271D01*
X114350000Y-127794271D02*
X114392857Y-127708557D01*
X114392857Y-127708557D02*
X114478572Y-127665700D01*
X114478572Y-127665700D02*
X114692857Y-127665700D01*
X114692857Y-127665700D02*
X114778572Y-127622842D01*
X115207143Y-127408557D02*
X115207143Y-128308557D01*
X115207143Y-127451414D02*
X115292858Y-127408557D01*
X115292858Y-127408557D02*
X115464286Y-127408557D01*
X115464286Y-127408557D02*
X115550000Y-127451414D01*
X115550000Y-127451414D02*
X115592858Y-127494271D01*
X115592858Y-127494271D02*
X115635715Y-127579985D01*
X115635715Y-127579985D02*
X115635715Y-127837128D01*
X115635715Y-127837128D02*
X115592858Y-127922842D01*
X115592858Y-127922842D02*
X115550000Y-127965700D01*
X115550000Y-127965700D02*
X115464286Y-128008557D01*
X115464286Y-128008557D02*
X115292858Y-128008557D01*
X115292858Y-128008557D02*
X115207143Y-127965700D01*
X115892858Y-127408557D02*
X116235715Y-127408557D01*
X116021429Y-127108557D02*
X116021429Y-127879985D01*
X116021429Y-127879985D02*
X116064286Y-127965700D01*
X116064286Y-127965700D02*
X116150001Y-128008557D01*
X116150001Y-128008557D02*
X116235715Y-128008557D01*
X116878572Y-127965700D02*
X116792858Y-128008557D01*
X116792858Y-128008557D02*
X116621430Y-128008557D01*
X116621430Y-128008557D02*
X116535715Y-127965700D01*
X116535715Y-127965700D02*
X116492858Y-127879985D01*
X116492858Y-127879985D02*
X116492858Y-127537128D01*
X116492858Y-127537128D02*
X116535715Y-127451414D01*
X116535715Y-127451414D02*
X116621430Y-127408557D01*
X116621430Y-127408557D02*
X116792858Y-127408557D01*
X116792858Y-127408557D02*
X116878572Y-127451414D01*
X116878572Y-127451414D02*
X116921430Y-127537128D01*
X116921430Y-127537128D02*
X116921430Y-127622842D01*
X116921430Y-127622842D02*
X116492858Y-127708557D01*
X117692859Y-127408557D02*
X117692859Y-128008557D01*
X117307144Y-127408557D02*
X117307144Y-127879985D01*
X117307144Y-127879985D02*
X117350001Y-127965700D01*
X117350001Y-127965700D02*
X117435716Y-128008557D01*
X117435716Y-128008557D02*
X117564287Y-128008557D01*
X117564287Y-128008557D02*
X117650001Y-127965700D01*
X117650001Y-127965700D02*
X117692859Y-127922842D01*
X118121430Y-128008557D02*
X118121430Y-127408557D01*
X118121430Y-127579985D02*
X118164287Y-127494271D01*
X118164287Y-127494271D02*
X118207145Y-127451414D01*
X118207145Y-127451414D02*
X118292859Y-127408557D01*
X118292859Y-127408557D02*
X118378573Y-127408557D01*
X118635716Y-127965700D02*
X118721430Y-128008557D01*
X118721430Y-128008557D02*
X118892859Y-128008557D01*
X118892859Y-128008557D02*
X118978573Y-127965700D01*
X118978573Y-127965700D02*
X119021430Y-127879985D01*
X119021430Y-127879985D02*
X119021430Y-127837128D01*
X119021430Y-127837128D02*
X118978573Y-127751414D01*
X118978573Y-127751414D02*
X118892859Y-127708557D01*
X118892859Y-127708557D02*
X118764288Y-127708557D01*
X118764288Y-127708557D02*
X118678573Y-127665700D01*
X118678573Y-127665700D02*
X118635716Y-127579985D01*
X118635716Y-127579985D02*
X118635716Y-127537128D01*
X118635716Y-127537128D02*
X118678573Y-127451414D01*
X118678573Y-127451414D02*
X118764288Y-127408557D01*
X118764288Y-127408557D02*
X118892859Y-127408557D01*
X118892859Y-127408557D02*
X118978573Y-127451414D01*
X120007144Y-127408557D02*
X120221430Y-128008557D01*
X120221430Y-128008557D02*
X120435715Y-127408557D01*
X121250001Y-128008557D02*
X120735715Y-128008557D01*
X120992858Y-128008557D02*
X120992858Y-127108557D01*
X120992858Y-127108557D02*
X120907144Y-127237128D01*
X120907144Y-127237128D02*
X120821429Y-127322842D01*
X120821429Y-127322842D02*
X120735715Y-127365700D01*
X122450001Y-127622842D02*
X122407144Y-127665700D01*
X122407144Y-127665700D02*
X122450001Y-127708557D01*
X122450001Y-127708557D02*
X122492858Y-127665700D01*
X122492858Y-127665700D02*
X122450001Y-127622842D01*
X122450001Y-127622842D02*
X122450001Y-127708557D01*
X124207143Y-128008557D02*
X123907143Y-127579985D01*
X123692857Y-128008557D02*
X123692857Y-127108557D01*
X123692857Y-127108557D02*
X124035714Y-127108557D01*
X124035714Y-127108557D02*
X124121429Y-127151414D01*
X124121429Y-127151414D02*
X124164286Y-127194271D01*
X124164286Y-127194271D02*
X124207143Y-127279985D01*
X124207143Y-127279985D02*
X124207143Y-127408557D01*
X124207143Y-127408557D02*
X124164286Y-127494271D01*
X124164286Y-127494271D02*
X124121429Y-127537128D01*
X124121429Y-127537128D02*
X124035714Y-127579985D01*
X124035714Y-127579985D02*
X123692857Y-127579985D01*
X124978572Y-128008557D02*
X124978572Y-127537128D01*
X124978572Y-127537128D02*
X124935714Y-127451414D01*
X124935714Y-127451414D02*
X124850000Y-127408557D01*
X124850000Y-127408557D02*
X124678572Y-127408557D01*
X124678572Y-127408557D02*
X124592857Y-127451414D01*
X124978572Y-127965700D02*
X124892857Y-128008557D01*
X124892857Y-128008557D02*
X124678572Y-128008557D01*
X124678572Y-128008557D02*
X124592857Y-127965700D01*
X124592857Y-127965700D02*
X124550000Y-127879985D01*
X124550000Y-127879985D02*
X124550000Y-127794271D01*
X124550000Y-127794271D02*
X124592857Y-127708557D01*
X124592857Y-127708557D02*
X124678572Y-127665700D01*
X124678572Y-127665700D02*
X124892857Y-127665700D01*
X124892857Y-127665700D02*
X124978572Y-127622842D01*
X125364286Y-127965700D02*
X125450000Y-128008557D01*
X125450000Y-128008557D02*
X125621429Y-128008557D01*
X125621429Y-128008557D02*
X125707143Y-127965700D01*
X125707143Y-127965700D02*
X125750000Y-127879985D01*
X125750000Y-127879985D02*
X125750000Y-127837128D01*
X125750000Y-127837128D02*
X125707143Y-127751414D01*
X125707143Y-127751414D02*
X125621429Y-127708557D01*
X125621429Y-127708557D02*
X125492858Y-127708557D01*
X125492858Y-127708557D02*
X125407143Y-127665700D01*
X125407143Y-127665700D02*
X125364286Y-127579985D01*
X125364286Y-127579985D02*
X125364286Y-127537128D01*
X125364286Y-127537128D02*
X125407143Y-127451414D01*
X125407143Y-127451414D02*
X125492858Y-127408557D01*
X125492858Y-127408557D02*
X125621429Y-127408557D01*
X125621429Y-127408557D02*
X125707143Y-127451414D01*
X126135714Y-127408557D02*
X126135714Y-128308557D01*
X126135714Y-127451414D02*
X126221429Y-127408557D01*
X126221429Y-127408557D02*
X126392857Y-127408557D01*
X126392857Y-127408557D02*
X126478571Y-127451414D01*
X126478571Y-127451414D02*
X126521429Y-127494271D01*
X126521429Y-127494271D02*
X126564286Y-127579985D01*
X126564286Y-127579985D02*
X126564286Y-127837128D01*
X126564286Y-127837128D02*
X126521429Y-127922842D01*
X126521429Y-127922842D02*
X126478571Y-127965700D01*
X126478571Y-127965700D02*
X126392857Y-128008557D01*
X126392857Y-128008557D02*
X126221429Y-128008557D01*
X126221429Y-128008557D02*
X126135714Y-127965700D01*
X126950000Y-128008557D02*
X126950000Y-127108557D01*
X126950000Y-127451414D02*
X127035715Y-127408557D01*
X127035715Y-127408557D02*
X127207143Y-127408557D01*
X127207143Y-127408557D02*
X127292857Y-127451414D01*
X127292857Y-127451414D02*
X127335715Y-127494271D01*
X127335715Y-127494271D02*
X127378572Y-127579985D01*
X127378572Y-127579985D02*
X127378572Y-127837128D01*
X127378572Y-127837128D02*
X127335715Y-127922842D01*
X127335715Y-127922842D02*
X127292857Y-127965700D01*
X127292857Y-127965700D02*
X127207143Y-128008557D01*
X127207143Y-128008557D02*
X127035715Y-128008557D01*
X127035715Y-128008557D02*
X126950000Y-127965700D01*
X128107143Y-127965700D02*
X128021429Y-128008557D01*
X128021429Y-128008557D02*
X127850001Y-128008557D01*
X127850001Y-128008557D02*
X127764286Y-127965700D01*
X127764286Y-127965700D02*
X127721429Y-127879985D01*
X127721429Y-127879985D02*
X127721429Y-127537128D01*
X127721429Y-127537128D02*
X127764286Y-127451414D01*
X127764286Y-127451414D02*
X127850001Y-127408557D01*
X127850001Y-127408557D02*
X128021429Y-127408557D01*
X128021429Y-127408557D02*
X128107143Y-127451414D01*
X128107143Y-127451414D02*
X128150001Y-127537128D01*
X128150001Y-127537128D02*
X128150001Y-127622842D01*
X128150001Y-127622842D02*
X127721429Y-127708557D01*
X128535715Y-128008557D02*
X128535715Y-127408557D01*
X128535715Y-127579985D02*
X128578572Y-127494271D01*
X128578572Y-127494271D02*
X128621430Y-127451414D01*
X128621430Y-127451414D02*
X128707144Y-127408557D01*
X128707144Y-127408557D02*
X128792858Y-127408557D01*
X129092858Y-128008557D02*
X129092858Y-127408557D01*
X129092858Y-127579985D02*
X129135715Y-127494271D01*
X129135715Y-127494271D02*
X129178573Y-127451414D01*
X129178573Y-127451414D02*
X129264287Y-127408557D01*
X129264287Y-127408557D02*
X129350001Y-127408557D01*
X129564287Y-127408557D02*
X129778573Y-128008557D01*
X129992858Y-127408557D02*
X129778573Y-128008557D01*
X129778573Y-128008557D02*
X129692858Y-128222842D01*
X129692858Y-128222842D02*
X129650001Y-128265700D01*
X129650001Y-128265700D02*
X129564287Y-128308557D01*
X131021429Y-128008557D02*
X131021429Y-127108557D01*
X131021429Y-127108557D02*
X131364286Y-127108557D01*
X131364286Y-127108557D02*
X131450001Y-127151414D01*
X131450001Y-127151414D02*
X131492858Y-127194271D01*
X131492858Y-127194271D02*
X131535715Y-127279985D01*
X131535715Y-127279985D02*
X131535715Y-127408557D01*
X131535715Y-127408557D02*
X131492858Y-127494271D01*
X131492858Y-127494271D02*
X131450001Y-127537128D01*
X131450001Y-127537128D02*
X131364286Y-127579985D01*
X131364286Y-127579985D02*
X131021429Y-127579985D01*
X131921429Y-128008557D02*
X131921429Y-127408557D01*
X131921429Y-127108557D02*
X131878572Y-127151414D01*
X131878572Y-127151414D02*
X131921429Y-127194271D01*
X131921429Y-127194271D02*
X131964286Y-127151414D01*
X131964286Y-127151414D02*
X131921429Y-127108557D01*
X131921429Y-127108557D02*
X131921429Y-127194271D01*
X133464286Y-127108557D02*
X133035714Y-127108557D01*
X133035714Y-127108557D02*
X132992857Y-127537128D01*
X132992857Y-127537128D02*
X133035714Y-127494271D01*
X133035714Y-127494271D02*
X133121429Y-127451414D01*
X133121429Y-127451414D02*
X133335714Y-127451414D01*
X133335714Y-127451414D02*
X133421429Y-127494271D01*
X133421429Y-127494271D02*
X133464286Y-127537128D01*
X133464286Y-127537128D02*
X133507143Y-127622842D01*
X133507143Y-127622842D02*
X133507143Y-127837128D01*
X133507143Y-127837128D02*
X133464286Y-127922842D01*
X133464286Y-127922842D02*
X133421429Y-127965700D01*
X133421429Y-127965700D02*
X133335714Y-128008557D01*
X133335714Y-128008557D02*
X133121429Y-128008557D01*
X133121429Y-128008557D02*
X133035714Y-127965700D01*
X133035714Y-127965700D02*
X132992857Y-127922842D01*
X105383332Y-138100390D02*
X105307142Y-138062295D01*
X105307142Y-138062295D02*
X105192856Y-138062295D01*
X105192856Y-138062295D02*
X105078570Y-138100390D01*
X105078570Y-138100390D02*
X105002380Y-138176580D01*
X105002380Y-138176580D02*
X104964285Y-138252771D01*
X104964285Y-138252771D02*
X104926189Y-138405152D01*
X104926189Y-138405152D02*
X104926189Y-138519438D01*
X104926189Y-138519438D02*
X104964285Y-138671819D01*
X104964285Y-138671819D02*
X105002380Y-138748009D01*
X105002380Y-138748009D02*
X105078570Y-138824200D01*
X105078570Y-138824200D02*
X105192856Y-138862295D01*
X105192856Y-138862295D02*
X105269047Y-138862295D01*
X105269047Y-138862295D02*
X105383332Y-138824200D01*
X105383332Y-138824200D02*
X105421428Y-138786104D01*
X105421428Y-138786104D02*
X105421428Y-138519438D01*
X105421428Y-138519438D02*
X105269047Y-138519438D01*
X106373809Y-138328961D02*
X106373809Y-139128961D01*
X106373809Y-138367057D02*
X106449999Y-138328961D01*
X106449999Y-138328961D02*
X106602380Y-138328961D01*
X106602380Y-138328961D02*
X106678571Y-138367057D01*
X106678571Y-138367057D02*
X106716666Y-138405152D01*
X106716666Y-138405152D02*
X106754761Y-138481342D01*
X106754761Y-138481342D02*
X106754761Y-138709914D01*
X106754761Y-138709914D02*
X106716666Y-138786104D01*
X106716666Y-138786104D02*
X106678571Y-138824200D01*
X106678571Y-138824200D02*
X106602380Y-138862295D01*
X106602380Y-138862295D02*
X106449999Y-138862295D01*
X106449999Y-138862295D02*
X106373809Y-138824200D01*
X107211904Y-138862295D02*
X107135714Y-138824200D01*
X107135714Y-138824200D02*
X107097619Y-138786104D01*
X107097619Y-138786104D02*
X107059523Y-138709914D01*
X107059523Y-138709914D02*
X107059523Y-138481342D01*
X107059523Y-138481342D02*
X107097619Y-138405152D01*
X107097619Y-138405152D02*
X107135714Y-138367057D01*
X107135714Y-138367057D02*
X107211904Y-138328961D01*
X107211904Y-138328961D02*
X107326190Y-138328961D01*
X107326190Y-138328961D02*
X107402381Y-138367057D01*
X107402381Y-138367057D02*
X107440476Y-138405152D01*
X107440476Y-138405152D02*
X107478571Y-138481342D01*
X107478571Y-138481342D02*
X107478571Y-138709914D01*
X107478571Y-138709914D02*
X107440476Y-138786104D01*
X107440476Y-138786104D02*
X107402381Y-138824200D01*
X107402381Y-138824200D02*
X107326190Y-138862295D01*
X107326190Y-138862295D02*
X107211904Y-138862295D01*
X108164286Y-138328961D02*
X108164286Y-138862295D01*
X107821429Y-138328961D02*
X107821429Y-138748009D01*
X107821429Y-138748009D02*
X107859524Y-138824200D01*
X107859524Y-138824200D02*
X107935714Y-138862295D01*
X107935714Y-138862295D02*
X108050000Y-138862295D01*
X108050000Y-138862295D02*
X108126191Y-138824200D01*
X108126191Y-138824200D02*
X108164286Y-138786104D01*
X108888096Y-138824200D02*
X108811905Y-138862295D01*
X108811905Y-138862295D02*
X108659524Y-138862295D01*
X108659524Y-138862295D02*
X108583334Y-138824200D01*
X108583334Y-138824200D02*
X108545239Y-138786104D01*
X108545239Y-138786104D02*
X108507143Y-138709914D01*
X108507143Y-138709914D02*
X108507143Y-138481342D01*
X108507143Y-138481342D02*
X108545239Y-138405152D01*
X108545239Y-138405152D02*
X108583334Y-138367057D01*
X108583334Y-138367057D02*
X108659524Y-138328961D01*
X108659524Y-138328961D02*
X108811905Y-138328961D01*
X108811905Y-138328961D02*
X108888096Y-138367057D01*
X109535715Y-138824200D02*
X109459524Y-138862295D01*
X109459524Y-138862295D02*
X109307143Y-138862295D01*
X109307143Y-138862295D02*
X109230953Y-138824200D01*
X109230953Y-138824200D02*
X109192857Y-138748009D01*
X109192857Y-138748009D02*
X109192857Y-138443247D01*
X109192857Y-138443247D02*
X109230953Y-138367057D01*
X109230953Y-138367057D02*
X109307143Y-138328961D01*
X109307143Y-138328961D02*
X109459524Y-138328961D01*
X109459524Y-138328961D02*
X109535715Y-138367057D01*
X109535715Y-138367057D02*
X109573810Y-138443247D01*
X109573810Y-138443247D02*
X109573810Y-138519438D01*
X109573810Y-138519438D02*
X109192857Y-138595628D01*
X160943247Y-132535714D02*
X160981342Y-132421428D01*
X160981342Y-132421428D02*
X161019438Y-132383333D01*
X161019438Y-132383333D02*
X161095628Y-132345237D01*
X161095628Y-132345237D02*
X161209914Y-132345237D01*
X161209914Y-132345237D02*
X161286104Y-132383333D01*
X161286104Y-132383333D02*
X161324200Y-132421428D01*
X161324200Y-132421428D02*
X161362295Y-132497618D01*
X161362295Y-132497618D02*
X161362295Y-132802380D01*
X161362295Y-132802380D02*
X160562295Y-132802380D01*
X160562295Y-132802380D02*
X160562295Y-132535714D01*
X160562295Y-132535714D02*
X160600390Y-132459523D01*
X160600390Y-132459523D02*
X160638485Y-132421428D01*
X160638485Y-132421428D02*
X160714676Y-132383333D01*
X160714676Y-132383333D02*
X160790866Y-132383333D01*
X160790866Y-132383333D02*
X160867057Y-132421428D01*
X160867057Y-132421428D02*
X160905152Y-132459523D01*
X160905152Y-132459523D02*
X160943247Y-132535714D01*
X160943247Y-132535714D02*
X160943247Y-132802380D01*
X161362295Y-131659523D02*
X160943247Y-131659523D01*
X160943247Y-131659523D02*
X160867057Y-131697618D01*
X160867057Y-131697618D02*
X160828961Y-131773809D01*
X160828961Y-131773809D02*
X160828961Y-131926190D01*
X160828961Y-131926190D02*
X160867057Y-132002380D01*
X161324200Y-131659523D02*
X161362295Y-131735714D01*
X161362295Y-131735714D02*
X161362295Y-131926190D01*
X161362295Y-131926190D02*
X161324200Y-132002380D01*
X161324200Y-132002380D02*
X161248009Y-132040476D01*
X161248009Y-132040476D02*
X161171819Y-132040476D01*
X161171819Y-132040476D02*
X161095628Y-132002380D01*
X161095628Y-132002380D02*
X161057533Y-131926190D01*
X161057533Y-131926190D02*
X161057533Y-131735714D01*
X161057533Y-131735714D02*
X161019438Y-131659523D01*
X160828961Y-131392856D02*
X160828961Y-131088094D01*
X160562295Y-131278570D02*
X161248009Y-131278570D01*
X161248009Y-131278570D02*
X161324200Y-131240475D01*
X161324200Y-131240475D02*
X161362295Y-131164285D01*
X161362295Y-131164285D02*
X161362295Y-131088094D01*
X160828961Y-130935713D02*
X160828961Y-130630951D01*
X160562295Y-130821427D02*
X161248009Y-130821427D01*
X161248009Y-130821427D02*
X161324200Y-130783332D01*
X161324200Y-130783332D02*
X161362295Y-130707142D01*
X161362295Y-130707142D02*
X161362295Y-130630951D01*
X161324200Y-130059522D02*
X161362295Y-130135713D01*
X161362295Y-130135713D02*
X161362295Y-130288094D01*
X161362295Y-130288094D02*
X161324200Y-130364284D01*
X161324200Y-130364284D02*
X161248009Y-130402380D01*
X161248009Y-130402380D02*
X160943247Y-130402380D01*
X160943247Y-130402380D02*
X160867057Y-130364284D01*
X160867057Y-130364284D02*
X160828961Y-130288094D01*
X160828961Y-130288094D02*
X160828961Y-130135713D01*
X160828961Y-130135713D02*
X160867057Y-130059522D01*
X160867057Y-130059522D02*
X160943247Y-130021427D01*
X160943247Y-130021427D02*
X161019438Y-130021427D01*
X161019438Y-130021427D02*
X161095628Y-130402380D01*
X161362295Y-129678570D02*
X160828961Y-129678570D01*
X160981342Y-129678570D02*
X160905152Y-129640475D01*
X160905152Y-129640475D02*
X160867057Y-129602380D01*
X160867057Y-129602380D02*
X160828961Y-129526189D01*
X160828961Y-129526189D02*
X160828961Y-129449999D01*
X161362295Y-129183332D02*
X160828961Y-129183332D01*
X160562295Y-129183332D02*
X160600390Y-129221428D01*
X160600390Y-129221428D02*
X160638485Y-129183332D01*
X160638485Y-129183332D02*
X160600390Y-129145237D01*
X160600390Y-129145237D02*
X160562295Y-129183332D01*
X160562295Y-129183332D02*
X160638485Y-129183332D01*
X161324200Y-128497618D02*
X161362295Y-128573809D01*
X161362295Y-128573809D02*
X161362295Y-128726190D01*
X161362295Y-128726190D02*
X161324200Y-128802380D01*
X161324200Y-128802380D02*
X161248009Y-128840476D01*
X161248009Y-128840476D02*
X160943247Y-128840476D01*
X160943247Y-128840476D02*
X160867057Y-128802380D01*
X160867057Y-128802380D02*
X160828961Y-128726190D01*
X160828961Y-128726190D02*
X160828961Y-128573809D01*
X160828961Y-128573809D02*
X160867057Y-128497618D01*
X160867057Y-128497618D02*
X160943247Y-128459523D01*
X160943247Y-128459523D02*
X161019438Y-128459523D01*
X161019438Y-128459523D02*
X161095628Y-128840476D01*
X161362295Y-127507142D02*
X160562295Y-127507142D01*
X161362295Y-127126190D02*
X160562295Y-127126190D01*
X160562295Y-127126190D02*
X161362295Y-126669047D01*
X161362295Y-126669047D02*
X160562295Y-126669047D01*
X161133723Y-126326191D02*
X161133723Y-125945238D01*
X161362295Y-126402381D02*
X160562295Y-126135714D01*
X160562295Y-126135714D02*
X161362295Y-125869048D01*
X160638485Y-125640477D02*
X160600390Y-125602381D01*
X160600390Y-125602381D02*
X160562295Y-125526191D01*
X160562295Y-125526191D02*
X160562295Y-125335715D01*
X160562295Y-125335715D02*
X160600390Y-125259524D01*
X160600390Y-125259524D02*
X160638485Y-125221429D01*
X160638485Y-125221429D02*
X160714676Y-125183334D01*
X160714676Y-125183334D02*
X160790866Y-125183334D01*
X160790866Y-125183334D02*
X160905152Y-125221429D01*
X160905152Y-125221429D02*
X161362295Y-125678572D01*
X161362295Y-125678572D02*
X161362295Y-125183334D01*
X160638485Y-124878572D02*
X160600390Y-124840476D01*
X160600390Y-124840476D02*
X160562295Y-124764286D01*
X160562295Y-124764286D02*
X160562295Y-124573810D01*
X160562295Y-124573810D02*
X160600390Y-124497619D01*
X160600390Y-124497619D02*
X160638485Y-124459524D01*
X160638485Y-124459524D02*
X160714676Y-124421429D01*
X160714676Y-124421429D02*
X160790866Y-124421429D01*
X160790866Y-124421429D02*
X160905152Y-124459524D01*
X160905152Y-124459524D02*
X161362295Y-124916667D01*
X161362295Y-124916667D02*
X161362295Y-124421429D01*
X160562295Y-123735714D02*
X160562295Y-123888095D01*
X160562295Y-123888095D02*
X160600390Y-123964286D01*
X160600390Y-123964286D02*
X160638485Y-124002381D01*
X160638485Y-124002381D02*
X160752771Y-124078571D01*
X160752771Y-124078571D02*
X160905152Y-124116667D01*
X160905152Y-124116667D02*
X161209914Y-124116667D01*
X161209914Y-124116667D02*
X161286104Y-124078571D01*
X161286104Y-124078571D02*
X161324200Y-124040476D01*
X161324200Y-124040476D02*
X161362295Y-123964286D01*
X161362295Y-123964286D02*
X161362295Y-123811905D01*
X161362295Y-123811905D02*
X161324200Y-123735714D01*
X161324200Y-123735714D02*
X161286104Y-123697619D01*
X161286104Y-123697619D02*
X161209914Y-123659524D01*
X161209914Y-123659524D02*
X161019438Y-123659524D01*
X161019438Y-123659524D02*
X160943247Y-123697619D01*
X160943247Y-123697619D02*
X160905152Y-123735714D01*
X160905152Y-123735714D02*
X160867057Y-123811905D01*
X160867057Y-123811905D02*
X160867057Y-123964286D01*
X160867057Y-123964286D02*
X160905152Y-124040476D01*
X160905152Y-124040476D02*
X160943247Y-124078571D01*
X160943247Y-124078571D02*
X161019438Y-124116667D01*
X133935713Y-149100390D02*
X133859523Y-149062295D01*
X133859523Y-149062295D02*
X133745237Y-149062295D01*
X133745237Y-149062295D02*
X133630951Y-149100390D01*
X133630951Y-149100390D02*
X133554761Y-149176580D01*
X133554761Y-149176580D02*
X133516666Y-149252771D01*
X133516666Y-149252771D02*
X133478570Y-149405152D01*
X133478570Y-149405152D02*
X133478570Y-149519438D01*
X133478570Y-149519438D02*
X133516666Y-149671819D01*
X133516666Y-149671819D02*
X133554761Y-149748009D01*
X133554761Y-149748009D02*
X133630951Y-149824200D01*
X133630951Y-149824200D02*
X133745237Y-149862295D01*
X133745237Y-149862295D02*
X133821428Y-149862295D01*
X133821428Y-149862295D02*
X133935713Y-149824200D01*
X133935713Y-149824200D02*
X133973809Y-149786104D01*
X133973809Y-149786104D02*
X133973809Y-149519438D01*
X133973809Y-149519438D02*
X133821428Y-149519438D01*
X135269047Y-149862295D02*
X135269047Y-149443247D01*
X135269047Y-149443247D02*
X135230952Y-149367057D01*
X135230952Y-149367057D02*
X135154761Y-149328961D01*
X135154761Y-149328961D02*
X135002380Y-149328961D01*
X135002380Y-149328961D02*
X134926190Y-149367057D01*
X135269047Y-149824200D02*
X135192856Y-149862295D01*
X135192856Y-149862295D02*
X135002380Y-149862295D01*
X135002380Y-149862295D02*
X134926190Y-149824200D01*
X134926190Y-149824200D02*
X134888094Y-149748009D01*
X134888094Y-149748009D02*
X134888094Y-149671819D01*
X134888094Y-149671819D02*
X134926190Y-149595628D01*
X134926190Y-149595628D02*
X135002380Y-149557533D01*
X135002380Y-149557533D02*
X135192856Y-149557533D01*
X135192856Y-149557533D02*
X135269047Y-149519438D01*
X135992857Y-149328961D02*
X135992857Y-149862295D01*
X135650000Y-149328961D02*
X135650000Y-149748009D01*
X135650000Y-149748009D02*
X135688095Y-149824200D01*
X135688095Y-149824200D02*
X135764285Y-149862295D01*
X135764285Y-149862295D02*
X135878571Y-149862295D01*
X135878571Y-149862295D02*
X135954762Y-149824200D01*
X135954762Y-149824200D02*
X135992857Y-149786104D01*
X136373810Y-149862295D02*
X136373810Y-149328961D01*
X136373810Y-149481342D02*
X136411905Y-149405152D01*
X136411905Y-149405152D02*
X136450000Y-149367057D01*
X136450000Y-149367057D02*
X136526191Y-149328961D01*
X136526191Y-149328961D02*
X136602381Y-149328961D01*
X136869048Y-149862295D02*
X136869048Y-149328961D01*
X136869048Y-149062295D02*
X136830952Y-149100390D01*
X136830952Y-149100390D02*
X136869048Y-149138485D01*
X136869048Y-149138485D02*
X136907143Y-149100390D01*
X136907143Y-149100390D02*
X136869048Y-149062295D01*
X136869048Y-149062295D02*
X136869048Y-149138485D01*
X137592857Y-149824200D02*
X137516666Y-149862295D01*
X137516666Y-149862295D02*
X137364285Y-149862295D01*
X137364285Y-149862295D02*
X137288095Y-149824200D01*
X137288095Y-149824200D02*
X137250000Y-149786104D01*
X137250000Y-149786104D02*
X137211904Y-149709914D01*
X137211904Y-149709914D02*
X137211904Y-149481342D01*
X137211904Y-149481342D02*
X137250000Y-149405152D01*
X137250000Y-149405152D02*
X137288095Y-149367057D01*
X137288095Y-149367057D02*
X137364285Y-149328961D01*
X137364285Y-149328961D02*
X137516666Y-149328961D01*
X137516666Y-149328961D02*
X137592857Y-149367057D01*
X138278571Y-149328961D02*
X138278571Y-149862295D01*
X137935714Y-149328961D02*
X137935714Y-149748009D01*
X137935714Y-149748009D02*
X137973809Y-149824200D01*
X137973809Y-149824200D02*
X138049999Y-149862295D01*
X138049999Y-149862295D02*
X138164285Y-149862295D01*
X138164285Y-149862295D02*
X138240476Y-149824200D01*
X138240476Y-149824200D02*
X138278571Y-149786104D01*
X138773809Y-149862295D02*
X138697619Y-149824200D01*
X138697619Y-149824200D02*
X138659524Y-149748009D01*
X138659524Y-149748009D02*
X138659524Y-149062295D01*
X139421429Y-149862295D02*
X139421429Y-149443247D01*
X139421429Y-149443247D02*
X139383334Y-149367057D01*
X139383334Y-149367057D02*
X139307143Y-149328961D01*
X139307143Y-149328961D02*
X139154762Y-149328961D01*
X139154762Y-149328961D02*
X139078572Y-149367057D01*
X139421429Y-149824200D02*
X139345238Y-149862295D01*
X139345238Y-149862295D02*
X139154762Y-149862295D01*
X139154762Y-149862295D02*
X139078572Y-149824200D01*
X139078572Y-149824200D02*
X139040476Y-149748009D01*
X139040476Y-149748009D02*
X139040476Y-149671819D01*
X139040476Y-149671819D02*
X139078572Y-149595628D01*
X139078572Y-149595628D02*
X139154762Y-149557533D01*
X139154762Y-149557533D02*
X139345238Y-149557533D01*
X139345238Y-149557533D02*
X139421429Y-149519438D01*
X139802382Y-149862295D02*
X139802382Y-149328961D01*
X139802382Y-149062295D02*
X139764286Y-149100390D01*
X139764286Y-149100390D02*
X139802382Y-149138485D01*
X139802382Y-149138485D02*
X139840477Y-149100390D01*
X139840477Y-149100390D02*
X139802382Y-149062295D01*
X139802382Y-149062295D02*
X139802382Y-149138485D01*
X140183334Y-149862295D02*
X140183334Y-149328961D01*
X140183334Y-149481342D02*
X140221429Y-149405152D01*
X140221429Y-149405152D02*
X140259524Y-149367057D01*
X140259524Y-149367057D02*
X140335715Y-149328961D01*
X140335715Y-149328961D02*
X140411905Y-149328961D01*
X140983334Y-149824200D02*
X140907143Y-149862295D01*
X140907143Y-149862295D02*
X140754762Y-149862295D01*
X140754762Y-149862295D02*
X140678572Y-149824200D01*
X140678572Y-149824200D02*
X140640476Y-149748009D01*
X140640476Y-149748009D02*
X140640476Y-149443247D01*
X140640476Y-149443247D02*
X140678572Y-149367057D01*
X140678572Y-149367057D02*
X140754762Y-149328961D01*
X140754762Y-149328961D02*
X140907143Y-149328961D01*
X140907143Y-149328961D02*
X140983334Y-149367057D01*
X140983334Y-149367057D02*
X141021429Y-149443247D01*
X141021429Y-149443247D02*
X141021429Y-149519438D01*
X141021429Y-149519438D02*
X140640476Y-149595628D01*
X124619047Y-111562295D02*
X124619047Y-112209914D01*
X124619047Y-112209914D02*
X124657142Y-112286104D01*
X124657142Y-112286104D02*
X124695237Y-112324200D01*
X124695237Y-112324200D02*
X124771428Y-112362295D01*
X124771428Y-112362295D02*
X124923809Y-112362295D01*
X124923809Y-112362295D02*
X124999999Y-112324200D01*
X124999999Y-112324200D02*
X125038094Y-112286104D01*
X125038094Y-112286104D02*
X125076190Y-112209914D01*
X125076190Y-112209914D02*
X125076190Y-111562295D01*
X125419046Y-111638485D02*
X125457142Y-111600390D01*
X125457142Y-111600390D02*
X125533332Y-111562295D01*
X125533332Y-111562295D02*
X125723808Y-111562295D01*
X125723808Y-111562295D02*
X125799999Y-111600390D01*
X125799999Y-111600390D02*
X125838094Y-111638485D01*
X125838094Y-111638485D02*
X125876189Y-111714676D01*
X125876189Y-111714676D02*
X125876189Y-111790866D01*
X125876189Y-111790866D02*
X125838094Y-111905152D01*
X125838094Y-111905152D02*
X125380951Y-112362295D01*
X125380951Y-112362295D02*
X125876189Y-112362295D01*
X126980952Y-111562295D02*
X127057142Y-111562295D01*
X127057142Y-111562295D02*
X127133333Y-111600390D01*
X127133333Y-111600390D02*
X127171428Y-111638485D01*
X127171428Y-111638485D02*
X127209523Y-111714676D01*
X127209523Y-111714676D02*
X127247618Y-111867057D01*
X127247618Y-111867057D02*
X127247618Y-112057533D01*
X127247618Y-112057533D02*
X127209523Y-112209914D01*
X127209523Y-112209914D02*
X127171428Y-112286104D01*
X127171428Y-112286104D02*
X127133333Y-112324200D01*
X127133333Y-112324200D02*
X127057142Y-112362295D01*
X127057142Y-112362295D02*
X126980952Y-112362295D01*
X126980952Y-112362295D02*
X126904761Y-112324200D01*
X126904761Y-112324200D02*
X126866666Y-112286104D01*
X126866666Y-112286104D02*
X126828571Y-112209914D01*
X126828571Y-112209914D02*
X126790475Y-112057533D01*
X126790475Y-112057533D02*
X126790475Y-111867057D01*
X126790475Y-111867057D02*
X126828571Y-111714676D01*
X126828571Y-111714676D02*
X126866666Y-111638485D01*
X126866666Y-111638485D02*
X126904761Y-111600390D01*
X126904761Y-111600390D02*
X126980952Y-111562295D01*
X127514285Y-112362295D02*
X127933333Y-111828961D01*
X127514285Y-111828961D02*
X127933333Y-112362295D01*
X128580952Y-111828961D02*
X128580952Y-112362295D01*
X128390476Y-111524200D02*
X128199999Y-112095628D01*
X128199999Y-112095628D02*
X128695238Y-112095628D01*
X129038095Y-112362295D02*
X129190476Y-112362295D01*
X129190476Y-112362295D02*
X129266666Y-112324200D01*
X129266666Y-112324200D02*
X129304762Y-112286104D01*
X129304762Y-112286104D02*
X129380952Y-112171819D01*
X129380952Y-112171819D02*
X129419047Y-112019438D01*
X129419047Y-112019438D02*
X129419047Y-111714676D01*
X129419047Y-111714676D02*
X129380952Y-111638485D01*
X129380952Y-111638485D02*
X129342857Y-111600390D01*
X129342857Y-111600390D02*
X129266666Y-111562295D01*
X129266666Y-111562295D02*
X129114285Y-111562295D01*
X129114285Y-111562295D02*
X129038095Y-111600390D01*
X129038095Y-111600390D02*
X129000000Y-111638485D01*
X129000000Y-111638485D02*
X128961904Y-111714676D01*
X128961904Y-111714676D02*
X128961904Y-111905152D01*
X128961904Y-111905152D02*
X129000000Y-111981342D01*
X129000000Y-111981342D02*
X129038095Y-112019438D01*
X129038095Y-112019438D02*
X129114285Y-112057533D01*
X129114285Y-112057533D02*
X129266666Y-112057533D01*
X129266666Y-112057533D02*
X129342857Y-112019438D01*
X129342857Y-112019438D02*
X129380952Y-111981342D01*
X129380952Y-111981342D02*
X129419047Y-111905152D01*
D12*
%TO.C,J17*%
X123150000Y-141750000D02*
X123150000Y-143000000D01*
X123440000Y-142040000D02*
X123440000Y-148010000D01*
X123440000Y-148010000D02*
X131060000Y-148010000D01*
X123450000Y-142050000D02*
X123450000Y-142800000D01*
X123450000Y-142800000D02*
X125250000Y-142800000D01*
X123450000Y-144300000D02*
X124200000Y-144300000D01*
X124200000Y-144300000D02*
X124200000Y-147250000D01*
X124200000Y-147250000D02*
X127250000Y-147250000D01*
X124400000Y-141750000D02*
X123150000Y-141750000D01*
X125250000Y-142050000D02*
X123450000Y-142050000D01*
X125250000Y-142800000D02*
X125250000Y-142050000D01*
X126750000Y-142050000D02*
X126750000Y-142800000D01*
X126750000Y-142800000D02*
X127750000Y-142800000D01*
X127750000Y-142050000D02*
X126750000Y-142050000D01*
X127750000Y-142800000D02*
X127750000Y-142050000D01*
X129250000Y-142050000D02*
X129250000Y-142800000D01*
X129250000Y-142800000D02*
X131050000Y-142800000D01*
X130300000Y-144300000D02*
X130300000Y-147250000D01*
X130300000Y-147250000D02*
X127250000Y-147250000D01*
X131050000Y-142050000D02*
X129250000Y-142050000D01*
X131050000Y-142800000D02*
X131050000Y-142050000D01*
X131050000Y-144300000D02*
X130300000Y-144300000D01*
X131060000Y-142040000D02*
X123440000Y-142040000D01*
X131060000Y-148010000D02*
X131060000Y-142040000D01*
%TO.C,R10*%
X147012742Y-139377500D02*
X147487258Y-139377500D01*
X147012742Y-140422500D02*
X147487258Y-140422500D01*
D10*
%TO.C,U1*%
X110375000Y-115375000D02*
X110375000Y-115600000D01*
X110375000Y-115375000D02*
X113625000Y-115375000D01*
X110375000Y-118625000D02*
X110375000Y-118400000D01*
X110375000Y-118625000D02*
X113625000Y-118625000D01*
X113625000Y-115375000D02*
X113625000Y-115600000D01*
X113625000Y-118625000D02*
X113625000Y-118400000D01*
D12*
X109900000Y-115600000D02*
X109660000Y-115270000D01*
X110140000Y-115270000D01*
X109900000Y-115600000D01*
G36*
X109900000Y-115600000D02*
G01*
X109660000Y-115270000D01*
X110140000Y-115270000D01*
X109900000Y-115600000D01*
G37*
%TO.C,R6*%
X107012742Y-139377500D02*
X107487258Y-139377500D01*
X107012742Y-140422500D02*
X107487258Y-140422500D01*
D10*
%TO.C,U2*%
X125375000Y-115375000D02*
X125375000Y-115600000D01*
X125375000Y-115375000D02*
X128625000Y-115375000D01*
X125375000Y-118625000D02*
X125375000Y-118400000D01*
X125375000Y-118625000D02*
X128625000Y-118625000D01*
X128625000Y-115375000D02*
X128625000Y-115600000D01*
X128625000Y-118625000D02*
X128625000Y-118400000D01*
D12*
X124900000Y-115600000D02*
X124660000Y-115270000D01*
X125140000Y-115270000D01*
X124900000Y-115600000D01*
G36*
X124900000Y-115600000D02*
G01*
X124660000Y-115270000D01*
X125140000Y-115270000D01*
X124900000Y-115600000D01*
G37*
%TO.C,R7*%
X117012742Y-139377500D02*
X117487258Y-139377500D01*
X117012742Y-140422500D02*
X117487258Y-140422500D01*
%TO.C,J11*%
X113150000Y-130750000D02*
X113150000Y-132000000D01*
X113440000Y-131040000D02*
X113440000Y-137010000D01*
X113440000Y-137010000D02*
X121060000Y-137010000D01*
X113450000Y-131050000D02*
X113450000Y-131800000D01*
X113450000Y-131800000D02*
X115250000Y-131800000D01*
X113450000Y-133300000D02*
X114200000Y-133300000D01*
X114200000Y-133300000D02*
X114200000Y-136250000D01*
X114200000Y-136250000D02*
X117250000Y-136250000D01*
X114400000Y-130750000D02*
X113150000Y-130750000D01*
X115250000Y-131050000D02*
X113450000Y-131050000D01*
X115250000Y-131800000D02*
X115250000Y-131050000D01*
X116750000Y-131050000D02*
X116750000Y-131800000D01*
X116750000Y-131800000D02*
X117750000Y-131800000D01*
X117750000Y-131050000D02*
X116750000Y-131050000D01*
X117750000Y-131800000D02*
X117750000Y-131050000D01*
X119250000Y-131050000D02*
X119250000Y-131800000D01*
X119250000Y-131800000D02*
X121050000Y-131800000D01*
X120300000Y-133300000D02*
X120300000Y-136250000D01*
X120300000Y-136250000D02*
X117250000Y-136250000D01*
X121050000Y-131050000D02*
X119250000Y-131050000D01*
X121050000Y-131800000D02*
X121050000Y-131050000D01*
X121050000Y-133300000D02*
X120300000Y-133300000D01*
X121060000Y-131040000D02*
X113440000Y-131040000D01*
X121060000Y-137010000D02*
X121060000Y-131040000D01*
%TO.C,C3*%
X146459420Y-112690000D02*
X146740580Y-112690000D01*
X146459420Y-113710000D02*
X146740580Y-113710000D01*
D10*
%TO.C,U3*%
X140375000Y-115375000D02*
X140375000Y-115600000D01*
X140375000Y-115375000D02*
X143625000Y-115375000D01*
X140375000Y-118625000D02*
X140375000Y-118400000D01*
X140375000Y-118625000D02*
X143625000Y-118625000D01*
X143625000Y-115375000D02*
X143625000Y-115600000D01*
X143625000Y-118625000D02*
X143625000Y-118400000D01*
D12*
X139900000Y-115600000D02*
X139660000Y-115270000D01*
X140140000Y-115270000D01*
X139900000Y-115600000D01*
G36*
X139900000Y-115600000D02*
G01*
X139660000Y-115270000D01*
X140140000Y-115270000D01*
X139900000Y-115600000D01*
G37*
%TO.C,J14*%
X143150000Y-130750000D02*
X143150000Y-132000000D01*
X143440000Y-131040000D02*
X143440000Y-137010000D01*
X143440000Y-137010000D02*
X151060000Y-137010000D01*
X143450000Y-131050000D02*
X143450000Y-131800000D01*
X143450000Y-131800000D02*
X145250000Y-131800000D01*
X143450000Y-133300000D02*
X144200000Y-133300000D01*
X144200000Y-133300000D02*
X144200000Y-136250000D01*
X144200000Y-136250000D02*
X147250000Y-136250000D01*
X144400000Y-130750000D02*
X143150000Y-130750000D01*
X145250000Y-131050000D02*
X143450000Y-131050000D01*
X145250000Y-131800000D02*
X145250000Y-131050000D01*
X146750000Y-131050000D02*
X146750000Y-131800000D01*
X146750000Y-131800000D02*
X147750000Y-131800000D01*
X147750000Y-131050000D02*
X146750000Y-131050000D01*
X147750000Y-131800000D02*
X147750000Y-131050000D01*
X149250000Y-131050000D02*
X149250000Y-131800000D01*
X149250000Y-131800000D02*
X151050000Y-131800000D01*
X150300000Y-133300000D02*
X150300000Y-136250000D01*
X150300000Y-136250000D02*
X147250000Y-136250000D01*
X151050000Y-131050000D02*
X149250000Y-131050000D01*
X151050000Y-131800000D02*
X151050000Y-131050000D01*
X151050000Y-133300000D02*
X150300000Y-133300000D01*
X151060000Y-131040000D02*
X143440000Y-131040000D01*
X151060000Y-137010000D02*
X151060000Y-131040000D01*
%TO.C,J12*%
X123150000Y-130750000D02*
X123150000Y-132000000D01*
X123440000Y-131040000D02*
X123440000Y-137010000D01*
X123440000Y-137010000D02*
X131060000Y-137010000D01*
X123450000Y-131050000D02*
X123450000Y-131800000D01*
X123450000Y-131800000D02*
X125250000Y-131800000D01*
X123450000Y-133300000D02*
X124200000Y-133300000D01*
X124200000Y-133300000D02*
X124200000Y-136250000D01*
X124200000Y-136250000D02*
X127250000Y-136250000D01*
X124400000Y-130750000D02*
X123150000Y-130750000D01*
X125250000Y-131050000D02*
X123450000Y-131050000D01*
X125250000Y-131800000D02*
X125250000Y-131050000D01*
X126750000Y-131050000D02*
X126750000Y-131800000D01*
X126750000Y-131800000D02*
X127750000Y-131800000D01*
X127750000Y-131050000D02*
X126750000Y-131050000D01*
X127750000Y-131800000D02*
X127750000Y-131050000D01*
X129250000Y-131050000D02*
X129250000Y-131800000D01*
X129250000Y-131800000D02*
X131050000Y-131800000D01*
X130300000Y-133300000D02*
X130300000Y-136250000D01*
X130300000Y-136250000D02*
X127250000Y-136250000D01*
X131050000Y-131050000D02*
X129250000Y-131050000D01*
X131050000Y-131800000D02*
X131050000Y-131050000D01*
X131050000Y-133300000D02*
X130300000Y-133300000D01*
X131060000Y-131040000D02*
X123440000Y-131040000D01*
X131060000Y-137010000D02*
X131060000Y-131040000D01*
%TO.C,J19*%
X143150000Y-141750000D02*
X143150000Y-143000000D01*
X143440000Y-142040000D02*
X143440000Y-148010000D01*
X143440000Y-148010000D02*
X151060000Y-148010000D01*
X143450000Y-142050000D02*
X143450000Y-142800000D01*
X143450000Y-142800000D02*
X145250000Y-142800000D01*
X143450000Y-144300000D02*
X144200000Y-144300000D01*
X144200000Y-144300000D02*
X144200000Y-147250000D01*
X144200000Y-147250000D02*
X147250000Y-147250000D01*
X144400000Y-141750000D02*
X143150000Y-141750000D01*
X145250000Y-142050000D02*
X143450000Y-142050000D01*
X145250000Y-142800000D02*
X145250000Y-142050000D01*
X146750000Y-142050000D02*
X146750000Y-142800000D01*
X146750000Y-142800000D02*
X147750000Y-142800000D01*
X147750000Y-142050000D02*
X146750000Y-142050000D01*
X147750000Y-142800000D02*
X147750000Y-142050000D01*
X149250000Y-142050000D02*
X149250000Y-142800000D01*
X149250000Y-142800000D02*
X151050000Y-142800000D01*
X150300000Y-144300000D02*
X150300000Y-147250000D01*
X150300000Y-147250000D02*
X147250000Y-147250000D01*
X151050000Y-142050000D02*
X149250000Y-142050000D01*
X151050000Y-142800000D02*
X151050000Y-142050000D01*
X151050000Y-144300000D02*
X150300000Y-144300000D01*
X151060000Y-142040000D02*
X143440000Y-142040000D01*
X151060000Y-148010000D02*
X151060000Y-142040000D01*
%TO.C,R9*%
X137012742Y-139377500D02*
X137487258Y-139377500D01*
X137012742Y-140422500D02*
X137487258Y-140422500D01*
%TO.C,J10*%
X103150000Y-130750000D02*
X103150000Y-132000000D01*
X103440000Y-131040000D02*
X103440000Y-137010000D01*
X103440000Y-137010000D02*
X111060000Y-137010000D01*
X103450000Y-131050000D02*
X103450000Y-131800000D01*
X103450000Y-131800000D02*
X105250000Y-131800000D01*
X103450000Y-133300000D02*
X104200000Y-133300000D01*
X104200000Y-133300000D02*
X104200000Y-136250000D01*
X104200000Y-136250000D02*
X107250000Y-136250000D01*
X104400000Y-130750000D02*
X103150000Y-130750000D01*
X105250000Y-131050000D02*
X103450000Y-131050000D01*
X105250000Y-131800000D02*
X105250000Y-131050000D01*
X106750000Y-131050000D02*
X106750000Y-131800000D01*
X106750000Y-131800000D02*
X107750000Y-131800000D01*
X107750000Y-131050000D02*
X106750000Y-131050000D01*
X107750000Y-131800000D02*
X107750000Y-131050000D01*
X109250000Y-131050000D02*
X109250000Y-131800000D01*
X109250000Y-131800000D02*
X111050000Y-131800000D01*
X110300000Y-133300000D02*
X110300000Y-136250000D01*
X110300000Y-136250000D02*
X107250000Y-136250000D01*
X111050000Y-131050000D02*
X109250000Y-131050000D01*
X111050000Y-131800000D02*
X111050000Y-131050000D01*
X111050000Y-133300000D02*
X110300000Y-133300000D01*
X111060000Y-131040000D02*
X103440000Y-131040000D01*
X111060000Y-137010000D02*
X111060000Y-131040000D01*
%TO.C,R3*%
X127012742Y-128377500D02*
X127487258Y-128377500D01*
X127012742Y-129422500D02*
X127487258Y-129422500D01*
%TO.C,J2*%
X159750000Y-107650000D02*
X158500000Y-107650000D01*
X159460000Y-107940000D02*
X153490000Y-107940000D01*
X153490000Y-107940000D02*
X153490000Y-120560000D01*
X159450000Y-107950000D02*
X158700000Y-107950000D01*
X158700000Y-107950000D02*
X158700000Y-109750000D01*
X157200000Y-107950000D02*
X157200000Y-108700000D01*
X157200000Y-108700000D02*
X154250000Y-108700000D01*
X154250000Y-108700000D02*
X154250000Y-114250000D01*
X159750000Y-108900000D02*
X159750000Y-107650000D01*
X159450000Y-109750000D02*
X159450000Y-107950000D01*
X158700000Y-109750000D02*
X159450000Y-109750000D01*
X159450000Y-111250000D02*
X158700000Y-111250000D01*
X158700000Y-111250000D02*
X158700000Y-117250000D01*
X159450000Y-117250000D02*
X159450000Y-111250000D01*
X158700000Y-117250000D02*
X159450000Y-117250000D01*
X159450000Y-118750000D02*
X158700000Y-118750000D01*
X158700000Y-118750000D02*
X158700000Y-120550000D01*
X157200000Y-119800000D02*
X154250000Y-119800000D01*
X154250000Y-119800000D02*
X154250000Y-114250000D01*
X159450000Y-120550000D02*
X159450000Y-118750000D01*
X158700000Y-120550000D02*
X159450000Y-120550000D01*
X157200000Y-120550000D02*
X157200000Y-119800000D01*
X159460000Y-120560000D02*
X159460000Y-107940000D01*
X153490000Y-120560000D02*
X159460000Y-120560000D01*
%TO.C,R8*%
X127012742Y-139377500D02*
X127487258Y-139377500D01*
X127012742Y-140422500D02*
X127487258Y-140422500D01*
%TO.C,R5*%
X147012742Y-128377500D02*
X147487258Y-128377500D01*
X147012742Y-129422500D02*
X147487258Y-129422500D01*
%TO.C,J3*%
X159750000Y-121650000D02*
X158500000Y-121650000D01*
X159460000Y-121940000D02*
X153490000Y-121940000D01*
X153490000Y-121940000D02*
X153490000Y-134560000D01*
X159450000Y-121950000D02*
X158700000Y-121950000D01*
X158700000Y-121950000D02*
X158700000Y-123750000D01*
X157200000Y-121950000D02*
X157200000Y-122700000D01*
X157200000Y-122700000D02*
X154250000Y-122700000D01*
X154250000Y-122700000D02*
X154250000Y-128250000D01*
X159750000Y-122900000D02*
X159750000Y-121650000D01*
X159450000Y-123750000D02*
X159450000Y-121950000D01*
X158700000Y-123750000D02*
X159450000Y-123750000D01*
X159450000Y-125250000D02*
X158700000Y-125250000D01*
X158700000Y-125250000D02*
X158700000Y-131250000D01*
X159450000Y-131250000D02*
X159450000Y-125250000D01*
X158700000Y-131250000D02*
X159450000Y-131250000D01*
X159450000Y-132750000D02*
X158700000Y-132750000D01*
X158700000Y-132750000D02*
X158700000Y-134550000D01*
X157200000Y-133800000D02*
X154250000Y-133800000D01*
X154250000Y-133800000D02*
X154250000Y-128250000D01*
X159450000Y-134550000D02*
X159450000Y-132750000D01*
X158700000Y-134550000D02*
X159450000Y-134550000D01*
X157200000Y-134550000D02*
X157200000Y-133800000D01*
X159460000Y-134560000D02*
X159460000Y-121940000D01*
X153490000Y-134560000D02*
X159460000Y-134560000D01*
%TO.C,J4*%
X159750000Y-135650000D02*
X158500000Y-135650000D01*
X159460000Y-135940000D02*
X153490000Y-135940000D01*
X153490000Y-135940000D02*
X153490000Y-148560000D01*
X159450000Y-135950000D02*
X158700000Y-135950000D01*
X158700000Y-135950000D02*
X158700000Y-137750000D01*
X157200000Y-135950000D02*
X157200000Y-136700000D01*
X157200000Y-136700000D02*
X154250000Y-136700000D01*
X154250000Y-136700000D02*
X154250000Y-142250000D01*
X159750000Y-136900000D02*
X159750000Y-135650000D01*
X159450000Y-137750000D02*
X159450000Y-135950000D01*
X158700000Y-137750000D02*
X159450000Y-137750000D01*
X159450000Y-139250000D02*
X158700000Y-139250000D01*
X158700000Y-139250000D02*
X158700000Y-145250000D01*
X159450000Y-145250000D02*
X159450000Y-139250000D01*
X158700000Y-145250000D02*
X159450000Y-145250000D01*
X159450000Y-146750000D02*
X158700000Y-146750000D01*
X158700000Y-146750000D02*
X158700000Y-148550000D01*
X157200000Y-147800000D02*
X154250000Y-147800000D01*
X154250000Y-147800000D02*
X154250000Y-142250000D01*
X159450000Y-148550000D02*
X159450000Y-146750000D01*
X158700000Y-148550000D02*
X159450000Y-148550000D01*
X157200000Y-148550000D02*
X157200000Y-147800000D01*
X159460000Y-148560000D02*
X159460000Y-135940000D01*
X153490000Y-148560000D02*
X159460000Y-148560000D01*
%TO.C,J15*%
X103150000Y-141750000D02*
X103150000Y-143000000D01*
X103440000Y-142040000D02*
X103440000Y-148010000D01*
X103440000Y-148010000D02*
X111060000Y-148010000D01*
X103450000Y-142050000D02*
X103450000Y-142800000D01*
X103450000Y-142800000D02*
X105250000Y-142800000D01*
X103450000Y-144300000D02*
X104200000Y-144300000D01*
X104200000Y-144300000D02*
X104200000Y-147250000D01*
X104200000Y-147250000D02*
X107250000Y-147250000D01*
X104400000Y-141750000D02*
X103150000Y-141750000D01*
X105250000Y-142050000D02*
X103450000Y-142050000D01*
X105250000Y-142800000D02*
X105250000Y-142050000D01*
X106750000Y-142050000D02*
X106750000Y-142800000D01*
X106750000Y-142800000D02*
X107750000Y-142800000D01*
X107750000Y-142050000D02*
X106750000Y-142050000D01*
X107750000Y-142800000D02*
X107750000Y-142050000D01*
X109250000Y-142050000D02*
X109250000Y-142800000D01*
X109250000Y-142800000D02*
X111050000Y-142800000D01*
X110300000Y-144300000D02*
X110300000Y-147250000D01*
X110300000Y-147250000D02*
X107250000Y-147250000D01*
X111050000Y-142050000D02*
X109250000Y-142050000D01*
X111050000Y-142800000D02*
X111050000Y-142050000D01*
X111050000Y-144300000D02*
X110300000Y-144300000D01*
X111060000Y-142040000D02*
X103440000Y-142040000D01*
X111060000Y-148010000D02*
X111060000Y-142040000D01*
%TO.C,R4*%
X137012742Y-128377500D02*
X137487258Y-128377500D01*
X137012742Y-129422500D02*
X137487258Y-129422500D01*
%TO.C,R1*%
X107012742Y-128377500D02*
X107487258Y-128377500D01*
X107012742Y-129422500D02*
X107487258Y-129422500D01*
%TO.C,C2*%
X131459420Y-112690000D02*
X131740580Y-112690000D01*
X131459420Y-113710000D02*
X131740580Y-113710000D01*
%TO.C,R2*%
X117012742Y-128377500D02*
X117487258Y-128377500D01*
X117012742Y-129422500D02*
X117487258Y-129422500D01*
%TO.C,J18*%
X133150000Y-141750000D02*
X133150000Y-143000000D01*
X133440000Y-142040000D02*
X133440000Y-148010000D01*
X133440000Y-148010000D02*
X141060000Y-148010000D01*
X133450000Y-142050000D02*
X133450000Y-142800000D01*
X133450000Y-142800000D02*
X135250000Y-142800000D01*
X133450000Y-144300000D02*
X134200000Y-144300000D01*
X134200000Y-144300000D02*
X134200000Y-147250000D01*
X134200000Y-147250000D02*
X137250000Y-147250000D01*
X134400000Y-141750000D02*
X133150000Y-141750000D01*
X135250000Y-142050000D02*
X133450000Y-142050000D01*
X135250000Y-142800000D02*
X135250000Y-142050000D01*
X136750000Y-142050000D02*
X136750000Y-142800000D01*
X136750000Y-142800000D02*
X137750000Y-142800000D01*
X137750000Y-142050000D02*
X136750000Y-142050000D01*
X137750000Y-142800000D02*
X137750000Y-142050000D01*
X139250000Y-142050000D02*
X139250000Y-142800000D01*
X139250000Y-142800000D02*
X141050000Y-142800000D01*
X140300000Y-144300000D02*
X140300000Y-147250000D01*
X140300000Y-147250000D02*
X137250000Y-147250000D01*
X141050000Y-142050000D02*
X139250000Y-142050000D01*
X141050000Y-142800000D02*
X141050000Y-142050000D01*
X141050000Y-144300000D02*
X140300000Y-144300000D01*
X141060000Y-142040000D02*
X133440000Y-142040000D01*
X141060000Y-148010000D02*
X141060000Y-142040000D01*
%TO.C,J13*%
X133150000Y-130750000D02*
X133150000Y-132000000D01*
X133440000Y-131040000D02*
X133440000Y-137010000D01*
X133440000Y-137010000D02*
X141060000Y-137010000D01*
X133450000Y-131050000D02*
X133450000Y-131800000D01*
X133450000Y-131800000D02*
X135250000Y-131800000D01*
X133450000Y-133300000D02*
X134200000Y-133300000D01*
X134200000Y-133300000D02*
X134200000Y-136250000D01*
X134200000Y-136250000D02*
X137250000Y-136250000D01*
X134400000Y-130750000D02*
X133150000Y-130750000D01*
X135250000Y-131050000D02*
X133450000Y-131050000D01*
X135250000Y-131800000D02*
X135250000Y-131050000D01*
X136750000Y-131050000D02*
X136750000Y-131800000D01*
X136750000Y-131800000D02*
X137750000Y-131800000D01*
X137750000Y-131050000D02*
X136750000Y-131050000D01*
X137750000Y-131800000D02*
X137750000Y-131050000D01*
X139250000Y-131050000D02*
X139250000Y-131800000D01*
X139250000Y-131800000D02*
X141050000Y-131800000D01*
X140300000Y-133300000D02*
X140300000Y-136250000D01*
X140300000Y-136250000D02*
X137250000Y-136250000D01*
X141050000Y-131050000D02*
X139250000Y-131050000D01*
X141050000Y-131800000D02*
X141050000Y-131050000D01*
X141050000Y-133300000D02*
X140300000Y-133300000D01*
X141060000Y-131040000D02*
X133440000Y-131040000D01*
X141060000Y-137010000D02*
X141060000Y-131040000D01*
%TO.C,C1*%
X116459420Y-112690000D02*
X116740580Y-112690000D01*
X116459420Y-113710000D02*
X116740580Y-113710000D01*
%TO.C,J16*%
X113150000Y-141750000D02*
X113150000Y-143000000D01*
X113440000Y-142040000D02*
X113440000Y-148010000D01*
X113440000Y-148010000D02*
X121060000Y-148010000D01*
X113450000Y-142050000D02*
X113450000Y-142800000D01*
X113450000Y-142800000D02*
X115250000Y-142800000D01*
X113450000Y-144300000D02*
X114200000Y-144300000D01*
X114200000Y-144300000D02*
X114200000Y-147250000D01*
X114200000Y-147250000D02*
X117250000Y-147250000D01*
X114400000Y-141750000D02*
X113150000Y-141750000D01*
X115250000Y-142050000D02*
X113450000Y-142050000D01*
X115250000Y-142800000D02*
X115250000Y-142050000D01*
X116750000Y-142050000D02*
X116750000Y-142800000D01*
X116750000Y-142800000D02*
X117750000Y-142800000D01*
X117750000Y-142050000D02*
X116750000Y-142050000D01*
X117750000Y-142800000D02*
X117750000Y-142050000D01*
X119250000Y-142050000D02*
X119250000Y-142800000D01*
X119250000Y-142800000D02*
X121050000Y-142800000D01*
X120300000Y-144300000D02*
X120300000Y-147250000D01*
X120300000Y-147250000D02*
X117250000Y-147250000D01*
X121050000Y-142050000D02*
X119250000Y-142050000D01*
X121050000Y-142800000D02*
X121050000Y-142050000D01*
X121050000Y-144300000D02*
X120300000Y-144300000D01*
X121060000Y-142040000D02*
X113440000Y-142040000D01*
X121060000Y-148010000D02*
X121060000Y-142040000D01*
%TD*%
%LPC*%
D13*
%TO.C,J17*%
X126000000Y-144500000D03*
D14*
X128500000Y-144500000D03*
%TD*%
D15*
%TO.C,R10*%
X146425000Y-139900000D03*
X148075000Y-139900000D03*
%TD*%
D16*
%TO.C,U1*%
X109850000Y-116000000D03*
X109850000Y-116500000D03*
X109850000Y-117000000D03*
X109850000Y-117500000D03*
X109850000Y-118000000D03*
X114150000Y-118000000D03*
X114150000Y-117500000D03*
X114150000Y-117000000D03*
X114150000Y-116500000D03*
X114150000Y-116000000D03*
%TD*%
D15*
%TO.C,R6*%
X106425000Y-139900000D03*
X108075000Y-139900000D03*
%TD*%
D16*
%TO.C,U2*%
X124850000Y-116000000D03*
X124850000Y-116500000D03*
X124850000Y-117000000D03*
X124850000Y-117500000D03*
X124850000Y-118000000D03*
X129150000Y-118000000D03*
X129150000Y-117500000D03*
X129150000Y-117000000D03*
X129150000Y-116500000D03*
X129150000Y-116000000D03*
%TD*%
D15*
%TO.C,R7*%
X116425000Y-139900000D03*
X118075000Y-139900000D03*
%TD*%
D13*
%TO.C,J11*%
X116000000Y-133500000D03*
D14*
X118500000Y-133500000D03*
%TD*%
D17*
%TO.C,H4*%
X161500000Y-152500000D03*
%TD*%
D18*
%TO.C,C3*%
X145825000Y-113200000D03*
X147375000Y-113200000D03*
%TD*%
D16*
%TO.C,U3*%
X139850000Y-116000000D03*
X139850000Y-116500000D03*
X139850000Y-117000000D03*
X139850000Y-117500000D03*
X139850000Y-118000000D03*
X144150000Y-118000000D03*
X144150000Y-117500000D03*
X144150000Y-117000000D03*
X144150000Y-116500000D03*
X144150000Y-116000000D03*
%TD*%
D13*
%TO.C,J14*%
X146000000Y-133500000D03*
D14*
X148500000Y-133500000D03*
%TD*%
D13*
%TO.C,J12*%
X126000000Y-133500000D03*
D14*
X128500000Y-133500000D03*
%TD*%
D13*
%TO.C,J19*%
X146000000Y-144500000D03*
D14*
X148500000Y-144500000D03*
%TD*%
D15*
%TO.C,R9*%
X136425000Y-139900000D03*
X138075000Y-139900000D03*
%TD*%
D13*
%TO.C,J10*%
X106000000Y-133500000D03*
D14*
X108500000Y-133500000D03*
%TD*%
D15*
%TO.C,R3*%
X126425000Y-128900000D03*
X128075000Y-128900000D03*
%TD*%
D19*
%TO.C,J2*%
X157000000Y-110500000D03*
D20*
X157000000Y-113000000D03*
X157000000Y-115500000D03*
X157000000Y-118000000D03*
%TD*%
D15*
%TO.C,R8*%
X126425000Y-139900000D03*
X128075000Y-139900000D03*
%TD*%
%TO.C,R5*%
X146425000Y-128900000D03*
X148075000Y-128900000D03*
%TD*%
D19*
%TO.C,J3*%
X157000000Y-124500000D03*
D20*
X157000000Y-127000000D03*
X157000000Y-129500000D03*
X157000000Y-132000000D03*
%TD*%
D19*
%TO.C,J4*%
X157000000Y-138500000D03*
D20*
X157000000Y-141000000D03*
X157000000Y-143500000D03*
X157000000Y-146000000D03*
%TD*%
D13*
%TO.C,J15*%
X106000000Y-144500000D03*
D14*
X108500000Y-144500000D03*
%TD*%
D15*
%TO.C,R4*%
X136425000Y-128900000D03*
X138075000Y-128900000D03*
%TD*%
D17*
%TO.C,H2*%
X161500000Y-103500000D03*
%TD*%
%TO.C,H1*%
X103500000Y-103500000D03*
%TD*%
%TO.C,H3*%
X103500000Y-152500000D03*
%TD*%
D15*
%TO.C,R1*%
X106425000Y-128900000D03*
X108075000Y-128900000D03*
%TD*%
D18*
%TO.C,C2*%
X130825000Y-113200000D03*
X132375000Y-113200000D03*
%TD*%
D15*
%TO.C,R2*%
X116425000Y-128900000D03*
X118075000Y-128900000D03*
%TD*%
D13*
%TO.C,J18*%
X136000000Y-144500000D03*
D14*
X138500000Y-144500000D03*
%TD*%
D13*
%TO.C,J13*%
X136000000Y-133500000D03*
D14*
X138500000Y-133500000D03*
%TD*%
D18*
%TO.C,C1*%
X115825000Y-113200000D03*
X117375000Y-113200000D03*
%TD*%
D13*
%TO.C,J16*%
X116000000Y-144500000D03*
D14*
X118500000Y-144500000D03*
%TD*%
D21*
%TO.C,J1*%
X108370000Y-104770000D03*
D22*
X108370000Y-102230000D03*
X110910000Y-104770000D03*
X110910000Y-102230000D03*
X113450000Y-104770000D03*
X113450000Y-102230000D03*
X115990000Y-104770000D03*
X115990000Y-102230000D03*
X118530000Y-104770000D03*
X118530000Y-102230000D03*
X121070000Y-104770000D03*
X121070000Y-102230000D03*
X123610000Y-104770000D03*
X123610000Y-102230000D03*
X126150000Y-104770000D03*
X126150000Y-102230000D03*
X128690000Y-104770000D03*
X128690000Y-102230000D03*
X131230000Y-104770000D03*
X131230000Y-102230000D03*
X133770000Y-104770000D03*
X133770000Y-102230000D03*
X136310000Y-104770000D03*
X136310000Y-102230000D03*
X138850000Y-104770000D03*
X138850000Y-102230000D03*
X141390000Y-104770000D03*
X141390000Y-102230000D03*
X143930000Y-104770000D03*
X143930000Y-102230000D03*
X146470000Y-104770000D03*
X146470000Y-102230000D03*
X149010000Y-104770000D03*
X149010000Y-102230000D03*
X151550000Y-104770000D03*
X151550000Y-102230000D03*
X154090000Y-104770000D03*
X154090000Y-102230000D03*
X156630000Y-104770000D03*
X156630000Y-102230000D03*
%TD*%
%LPD*%
M02*
