%TF.GenerationSoftware,KiCad,Pcbnew,7.0.11+dfsg-1build4*%
%TF.CreationDate,2026-10-07T20:18:35+00:00*%
%TF.ProjectId,hat_capteurs,6861745f-6361-4707-9465-7572732e6b69,rev?*%
%TF.SameCoordinates,Original*%
%TF.FileFunction,Paste,Top*%
%TF.FilePolarity,Positive*%
%FSLAX46Y46*%
G04 Gerber Fmt 4.6, Leading zero omitted, Abs format (unit mm)*
G04 Created by KiCad (PCBNEW 7.0.11+dfsg-1build4) date 2026-10-07 20:18:35*
%MOMM*%
%LPD*%
G01*
G04 APERTURE LIST*
G04 Aperture macros list*
%AMRoundRect*
0 Rectangle with rounded corners*
0 $1 Rounding radius*
0 $2 $3 $4 $5 $6 $7 $8 $9 X,Y pos of 4 corners*
0 Add a 4 corners polygon primitive as box body*
4,1,4,$2,$3,$4,$5,$6,$7,$8,$9,$2,$3,0*
0 Add four circle primitives for the rounded corners*
1,1,$1+$1,$2,$3*
1,1,$1+$1,$4,$5*
1,1,$1+$1,$6,$7*
1,1,$1+$1,$8,$9*
0 Add four rect primitives between the rounded corners*
20,1,$1+$1,$2,$3,$4,$5,0*
20,1,$1+$1,$4,$5,$6,$7,0*
20,1,$1+$1,$6,$7,$8,$9,0*
20,1,$1+$1,$8,$9,$2,$3,0*%
G04 Aperture macros list end*
%ADD10RoundRect,0.200000X-0.200000X-0.275000X0.200000X-0.275000X0.200000X0.275000X-0.200000X0.275000X0*%
%ADD11R,1.100000X0.250000*%
%ADD12RoundRect,0.225000X-0.225000X-0.250000X0.225000X-0.250000X0.225000X0.250000X-0.225000X0.250000X0*%
G04 APERTURE END LIST*
D10*
%TO.C,R10*%
X146425000Y-139900000D03*
X148075000Y-139900000D03*
%TD*%
D11*
%TO.C,U1*%
X109850000Y-116000000D03*
X109850000Y-116500000D03*
X109850000Y-117000000D03*
X109850000Y-117500000D03*
X109850000Y-118000000D03*
X114150000Y-118000000D03*
X114150000Y-117500000D03*
X114150000Y-117000000D03*
X114150000Y-116500000D03*
X114150000Y-116000000D03*
%TD*%
D10*
%TO.C,R6*%
X106425000Y-139900000D03*
X108075000Y-139900000D03*
%TD*%
D11*
%TO.C,U2*%
X124850000Y-116000000D03*
X124850000Y-116500000D03*
X124850000Y-117000000D03*
X124850000Y-117500000D03*
X124850000Y-118000000D03*
X129150000Y-118000000D03*
X129150000Y-117500000D03*
X129150000Y-117000000D03*
X129150000Y-116500000D03*
X129150000Y-116000000D03*
%TD*%
D10*
%TO.C,R7*%
X116425000Y-139900000D03*
X118075000Y-139900000D03*
%TD*%
D12*
%TO.C,C3*%
X145825000Y-113200000D03*
X147375000Y-113200000D03*
%TD*%
D11*
%TO.C,U3*%
X139850000Y-116000000D03*
X139850000Y-116500000D03*
X139850000Y-117000000D03*
X139850000Y-117500000D03*
X139850000Y-118000000D03*
X144150000Y-118000000D03*
X144150000Y-117500000D03*
X144150000Y-117000000D03*
X144150000Y-116500000D03*
X144150000Y-116000000D03*
%TD*%
D10*
%TO.C,R9*%
X136425000Y-139900000D03*
X138075000Y-139900000D03*
%TD*%
%TO.C,R3*%
X126425000Y-128900000D03*
X128075000Y-128900000D03*
%TD*%
%TO.C,R8*%
X126425000Y-139900000D03*
X128075000Y-139900000D03*
%TD*%
%TO.C,R5*%
X146425000Y-128900000D03*
X148075000Y-128900000D03*
%TD*%
%TO.C,R4*%
X136425000Y-128900000D03*
X138075000Y-128900000D03*
%TD*%
%TO.C,R1*%
X106425000Y-128900000D03*
X108075000Y-128900000D03*
%TD*%
D12*
%TO.C,C2*%
X130825000Y-113200000D03*
X132375000Y-113200000D03*
%TD*%
D10*
%TO.C,R2*%
X116425000Y-128900000D03*
X118075000Y-128900000D03*
%TD*%
D12*
%TO.C,C1*%
X115825000Y-113200000D03*
X117375000Y-113200000D03*
%TD*%
M02*
