%TF.GenerationSoftware,KiCad,Pcbnew,7.0.11+dfsg-1build4*%
%TF.CreationDate,2026-10-07T20:12:22+00:00*%
%TF.ProjectId,carte_servos,63617274-655f-4736-9572-766f732e6b69,rev?*%
%TF.SameCoordinates,Original*%
%TF.FileFunction,Paste,Top*%
%TF.FilePolarity,Positive*%
%FSLAX46Y46*%
G04 Gerber Fmt 4.6, Leading zero omitted, Abs format (unit mm)*
G04 Created by KiCad (PCBNEW 7.0.11+dfsg-1build4) date 2026-10-07 20:12:22*
%MOMM*%
%LPD*%
G01*
G04 APERTURE LIST*
G04 Aperture macros list*
%AMRoundRect*
0 Rectangle with rounded corners*
0 $1 Rounding radius*
0 $2 $3 $4 $5 $6 $7 $8 $9 X,Y pos of 4 corners*
0 Add a 4 corners polygon primitive as box body*
4,1,4,$2,$3,$4,$5,$6,$7,$8,$9,$2,$3,0*
0 Add four circle primitives for the rounded corners*
1,1,$1+$1,$2,$3*
1,1,$1+$1,$4,$5*
1,1,$1+$1,$6,$7*
1,1,$1+$1,$8,$9*
0 Add four rect primitives between the rounded corners*
20,1,$1+$1,$2,$3,$4,$5,0*
20,1,$1+$1,$4,$5,$6,$7,0*
20,1,$1+$1,$6,$7,$8,$9,0*
20,1,$1+$1,$8,$9,$2,$3,0*%
G04 Aperture macros list end*
%ADD10RoundRect,0.200000X-0.200000X-0.275000X0.200000X-0.275000X0.200000X0.275000X-0.200000X0.275000X0*%
%ADD11RoundRect,0.100000X-0.637500X-0.100000X0.637500X-0.100000X0.637500X0.100000X-0.637500X0.100000X0*%
%ADD12RoundRect,0.200000X0.275000X-0.200000X0.275000X0.200000X-0.275000X0.200000X-0.275000X-0.200000X0*%
%ADD13RoundRect,0.225000X-0.225000X-0.250000X0.225000X-0.250000X0.225000X0.250000X-0.225000X0.250000X0*%
%ADD14RoundRect,0.250000X-0.362500X-1.425000X0.362500X-1.425000X0.362500X1.425000X-0.362500X1.425000X0*%
%ADD15RoundRect,0.075000X0.650000X0.075000X-0.650000X0.075000X-0.650000X-0.075000X0.650000X-0.075000X0*%
%ADD16RoundRect,0.225000X0.250000X-0.225000X0.250000X0.225000X-0.250000X0.225000X-0.250000X-0.225000X0*%
%ADD17RoundRect,0.218750X0.218750X0.256250X-0.218750X0.256250X-0.218750X-0.256250X0.218750X-0.256250X0*%
G04 APERTURE END LIST*
D10*
%TO.C,R19*%
X169175000Y-112000000D03*
X170825000Y-112000000D03*
%TD*%
D11*
%TO.C,U1*%
X152137500Y-125775000D03*
X152137500Y-126425000D03*
X152137500Y-127075000D03*
X152137500Y-127725000D03*
X152137500Y-128375000D03*
X152137500Y-129025000D03*
X152137500Y-129675000D03*
X152137500Y-130325000D03*
X152137500Y-130975000D03*
X152137500Y-131625000D03*
X152137500Y-132275000D03*
X152137500Y-132925000D03*
X152137500Y-133575000D03*
X152137500Y-134225000D03*
X157862500Y-134225000D03*
X157862500Y-133575000D03*
X157862500Y-132925000D03*
X157862500Y-132275000D03*
X157862500Y-131625000D03*
X157862500Y-130975000D03*
X157862500Y-130325000D03*
X157862500Y-129675000D03*
X157862500Y-129025000D03*
X157862500Y-128375000D03*
X157862500Y-127725000D03*
X157862500Y-127075000D03*
X157862500Y-126425000D03*
X157862500Y-125775000D03*
%TD*%
D12*
%TO.C,R14*%
X180640000Y-159325000D03*
X180640000Y-157675000D03*
%TD*%
D13*
%TO.C,C1*%
X160725000Y-122500000D03*
X162275000Y-122500000D03*
%TD*%
D10*
%TO.C,R20*%
X169175000Y-115000000D03*
X170825000Y-115000000D03*
%TD*%
D12*
%TO.C,R2*%
X142540000Y-159325000D03*
X142540000Y-157675000D03*
%TD*%
%TO.C,R11*%
X170480000Y-159325000D03*
X170480000Y-157675000D03*
%TD*%
D10*
%TO.C,R18*%
X143175000Y-126000000D03*
X144825000Y-126000000D03*
%TD*%
%TO.C,R21*%
X158175000Y-174800000D03*
X159825000Y-174800000D03*
%TD*%
D12*
%TO.C,R6*%
X155240000Y-159325000D03*
X155240000Y-157675000D03*
%TD*%
D13*
%TO.C,C2*%
X160725000Y-125000000D03*
X162275000Y-125000000D03*
%TD*%
D12*
%TO.C,R1*%
X140000000Y-159325000D03*
X140000000Y-157675000D03*
%TD*%
D14*
%TO.C,RS1*%
X139037500Y-180500000D03*
X144962500Y-180500000D03*
%TD*%
D12*
%TO.C,R9*%
X165400000Y-159325000D03*
X165400000Y-157675000D03*
%TD*%
D10*
%TO.C,R17*%
X143175000Y-122000000D03*
X144825000Y-122000000D03*
%TD*%
D15*
%TO.C,U2*%
X152200000Y-181500000D03*
X152200000Y-181000000D03*
X152200000Y-180500000D03*
X152200000Y-180000000D03*
X152200000Y-179500000D03*
X147800000Y-179500000D03*
X147800000Y-180000000D03*
X147800000Y-180500000D03*
X147800000Y-181000000D03*
X147800000Y-181500000D03*
%TD*%
D12*
%TO.C,R15*%
X183180000Y-159325000D03*
X183180000Y-157675000D03*
%TD*%
%TO.C,R10*%
X167940000Y-159325000D03*
X167940000Y-157675000D03*
%TD*%
%TO.C,R12*%
X173020000Y-159325000D03*
X173020000Y-157675000D03*
%TD*%
D16*
%TO.C,C3*%
X151000000Y-177275000D03*
X151000000Y-175725000D03*
%TD*%
D12*
%TO.C,R16*%
X185720000Y-159325000D03*
X185720000Y-157675000D03*
%TD*%
D17*
%TO.C,D1*%
X170287500Y-180500000D03*
X168712500Y-180500000D03*
%TD*%
D12*
%TO.C,R3*%
X145079999Y-159325000D03*
X145079999Y-157675000D03*
%TD*%
%TO.C,R7*%
X157780000Y-159325000D03*
X157780000Y-157675000D03*
%TD*%
D10*
%TO.C,R25*%
X165175000Y-180500000D03*
X166825000Y-180500000D03*
%TD*%
D12*
%TO.C,R13*%
X178100000Y-159325000D03*
X178100000Y-157675000D03*
%TD*%
%TO.C,R5*%
X152700000Y-159325000D03*
X152700000Y-157675000D03*
%TD*%
%TO.C,R4*%
X147620000Y-159325000D03*
X147620000Y-157675000D03*
%TD*%
D10*
%TO.C,R22*%
X158175000Y-172300000D03*
X159825000Y-172300000D03*
%TD*%
D12*
%TO.C,R8*%
X160320000Y-159325000D03*
X160320000Y-157675000D03*
%TD*%
M02*
