M48
; DRILL file {KiCad 7.0.11+dfsg-1build4} date Wed Oct  7 20:12:23 2026
; FORMAT={-:-/ absolute / metric / decimal}
; #@! TF.CreationDate,2026-10-07T20:12:23+00:00
; #@! TF.GenerationSoftware,Kicad,Pcbnew,7.0.11+dfsg-1build4
; #@! TF.FileFunction,Plated,1,2,PTH
FMAT,2
METRIC
; #@! TA.AperFunction,Plated,PTH,ViaDrill
T1C0.350
; #@! TA.AperFunction,Plated,PTH,ViaDrill
T2C0.400
; #@! TA.AperFunction,Plated,PTH,ViaDrill
T3C0.500
; #@! TA.AperFunction,Plated,PTH,ComponentDrill
T4C0.950
; #@! TA.AperFunction,Plated,PTH,ComponentDrill
T5C1.000
; #@! TA.AperFunction,Plated,PTH,ComponentDrill
T6C1.300
; #@! TA.AperFunction,Plated,PTH,ComponentDrill
T7C1.400
%
G90
G05
T1
X102.0Y-112.0
X102.0Y-117.0
X102.0Y-122.0
X102.0Y-127.0
X102.0Y-132.0
X102.0Y-137.0
X102.0Y-142.0
X102.0Y-147.0
X102.0Y-152.0
X102.0Y-157.0
X102.0Y-162.0
X102.0Y-172.0
X107.0Y-112.0
X107.0Y-117.0
X107.0Y-122.0
X107.0Y-127.0
X107.0Y-132.0
X107.0Y-142.0
X107.0Y-147.0
X107.0Y-152.0
X107.0Y-157.0
X107.0Y-162.0
X112.0Y-102.0
X112.0Y-112.0
X112.0Y-117.0
X112.0Y-122.0
X112.0Y-127.0
X112.0Y-132.0
X112.0Y-142.0
X112.0Y-147.0
X112.0Y-152.0
X112.0Y-157.0
X112.0Y-162.0
X112.0Y-167.0
X112.0Y-172.0
X117.0Y-102.0
X117.0Y-117.0
X117.0Y-122.0
X117.0Y-127.0
X117.0Y-132.0
X117.0Y-142.0
X117.0Y-147.0
X117.0Y-152.0
X117.0Y-157.0
X117.0Y-162.0
X117.0Y-167.0
X117.0Y-172.0
X122.0Y-102.0
X122.0Y-117.0
X122.0Y-122.0
X122.0Y-127.0
X122.0Y-132.0
X122.0Y-142.0
X122.0Y-147.0
X122.0Y-152.0
X122.0Y-157.0
X122.0Y-162.0
X122.0Y-167.0
X122.0Y-172.0
X127.0Y-102.0
X127.0Y-117.0
X127.0Y-122.0
X127.0Y-127.0
X127.0Y-132.0
X127.0Y-137.0
X127.0Y-142.0
X127.0Y-147.0
X127.0Y-152.0
X127.0Y-157.0
X127.0Y-162.0
X127.0Y-167.0
X127.0Y-172.0
X132.0Y-102.0
X132.0Y-112.0
X132.0Y-117.0
X132.0Y-132.0
X132.0Y-137.0
X132.0Y-142.0
X132.0Y-147.0
X132.0Y-152.0
X132.0Y-157.0
X132.0Y-162.0
X132.0Y-167.0
X132.0Y-172.0
X137.0Y-102.0
X137.0Y-107.0
X137.0Y-112.0
X137.0Y-117.0
X137.0Y-122.0
X137.0Y-127.0
X137.0Y-132.0
X137.0Y-137.0
X137.0Y-142.0
X137.0Y-147.0
X137.0Y-152.0
X140.0Y-184.5
X140.0Y-189.5
X141.875Y-122.0
X142.0Y-102.0
X142.0Y-107.0
X142.0Y-112.0
X142.0Y-117.0
X142.0Y-132.0
X143.175Y-124.7
X145.0Y-184.5
X145.0Y-189.5
X147.0Y-102.0
X147.0Y-107.0
X147.0Y-112.0
X147.0Y-117.0
X147.0Y-137.0
X147.0Y-142.0
X147.0Y-147.0
X147.0Y-152.0
X149.785Y-132.271
X150.0Y-184.5
X150.0Y-189.5
X150.226Y-152.417
X152.0Y-102.0
X152.0Y-107.0
X152.0Y-112.0
X152.0Y-117.0
X152.0Y-122.0
X152.0Y-137.0
X152.0Y-142.0
X152.0Y-147.0
X153.438Y-127.725
X153.492Y-152.417
X154.989Y-131.549
X155.0Y-184.5
X155.0Y-189.5
X156.104Y-130.148
X156.104Y-132.381
X156.104Y-134.048
X156.562Y-128.375
X157.0Y-102.0
X157.0Y-107.0
X157.0Y-112.0
X157.0Y-117.0
X157.0Y-122.0
X157.0Y-137.0
X157.0Y-142.0
X157.0Y-147.0
X157.619Y-152.417
X159.648Y-132.944
X160.0Y-184.5
X160.0Y-189.5
X160.242Y-149.841
X160.35Y-131.572
X160.366Y-152.417
X162.0Y-102.0
X162.0Y-107.0
X162.0Y-112.0
X162.0Y-117.0
X162.0Y-137.0
X162.0Y-142.0
X162.0Y-152.0
X162.275Y-123.8
X163.575Y-123.7
X163.693Y-135.974
X163.759Y-152.417
X164.187Y-125.666
X165.0Y-184.5
X167.0Y-102.0
X167.0Y-107.0
X167.0Y-112.0
X167.0Y-127.0
X167.0Y-142.0
X167.0Y-147.0
X170.0Y-184.5
X172.0Y-102.0
X172.0Y-107.0
X172.0Y-122.0
X172.0Y-127.0
X172.0Y-132.0
X172.0Y-147.0
X172.0Y-152.0
X174.187Y-111.923
X175.0Y-184.5
X177.0Y-117.0
X177.0Y-122.0
X177.0Y-127.0
X177.0Y-132.0
X177.0Y-137.0
X177.442Y-152.867
X181.5Y-174.5
X182.0Y-117.0
X182.0Y-122.0
X182.0Y-127.0
X182.0Y-132.0
X182.0Y-137.0
X182.0Y-142.0
X182.197Y-152.417
X186.5Y-174.5
X186.5Y-179.5
X187.0Y-102.0
X187.0Y-117.0
X187.0Y-132.0
X187.0Y-137.0
X187.0Y-142.0
X187.0Y-147.0
X187.0Y-152.0
X190.0Y-184.5
X191.5Y-174.5
X191.5Y-179.5
X192.0Y-132.0
X192.0Y-137.0
X192.0Y-142.0
X192.0Y-147.0
X192.0Y-152.0
X195.0Y-184.5
X196.5Y-174.5
X196.5Y-179.5
X197.0Y-132.0
X197.0Y-137.0
X197.0Y-142.0
X197.0Y-147.0
X197.0Y-152.0
T2
X150.237Y-127.725
X150.237Y-134.225
X159.762Y-128.375
X165.175Y-178.5
T3
X144.9Y-174.6
X144.9Y-175.8
X144.9Y-177.0
X144.9Y-178.2
X146.3Y-174.6
X146.3Y-175.8
X146.3Y-177.0
X146.3Y-178.2
T4
X164.0Y-191.5
X166.5Y-191.5
X169.0Y-191.5
X171.5Y-191.5
X180.0Y-191.5
X182.5Y-191.5
X185.0Y-191.5
X187.5Y-191.5
X195.0Y-105.0
X195.0Y-107.5
X195.0Y-110.0
X195.0Y-112.5
X195.0Y-119.0
X195.0Y-121.5
X195.0Y-124.0
X195.0Y-126.5
T5
X140.0Y-164.0
X140.0Y-166.54
X140.0Y-169.08
X142.54Y-164.0
X142.54Y-166.54
X142.54Y-169.08
X145.08Y-164.0
X145.08Y-166.54
X145.08Y-169.08
X147.62Y-164.0
X147.62Y-166.54
X147.62Y-169.08
X152.7Y-164.0
X152.7Y-166.54
X152.7Y-169.08
X155.24Y-164.0
X155.24Y-166.54
X155.24Y-169.08
X157.78Y-164.0
X157.78Y-166.54
X157.78Y-169.08
X160.32Y-164.0
X160.32Y-166.54
X160.32Y-169.08
X165.4Y-164.0
X165.4Y-166.54
X165.4Y-169.08
X167.94Y-164.0
X167.94Y-166.54
X167.94Y-169.08
X170.48Y-164.0
X170.48Y-166.54
X170.48Y-169.08
X173.02Y-164.0
X173.02Y-166.54
X173.02Y-169.08
X178.0Y-180.5
X178.1Y-164.0
X178.1Y-166.54
X178.1Y-169.08
X180.64Y-164.0
X180.64Y-166.54
X180.64Y-169.08
X183.0Y-180.5
X183.18Y-164.0
X183.18Y-166.54
X183.18Y-169.08
X185.72Y-164.0
X185.72Y-166.54
X185.72Y-169.08
T6
X106.0Y-180.0
X111.08Y-180.0
T7
X120.0Y-179.0
X120.0Y-181.5
X123.5Y-179.0
X123.5Y-181.5
X129.3Y-179.0
X129.3Y-181.5
X132.8Y-179.0
X132.8Y-181.5
M30
