%TF.GenerationSoftware,KiCad,Pcbnew,7.0.11+dfsg-1build4*%
%TF.CreationDate,2026-10-07T20:12:22+00:00*%
%TF.ProjectId,carte_servos,63617274-655f-4736-9572-766f732e6b69,rev?*%
%TF.SameCoordinates,Original*%
%TF.FileFunction,Copper,L2,Bot*%
%TF.FilePolarity,Positive*%
%FSLAX46Y46*%
G04 Gerber Fmt 4.6, Leading zero omitted, Abs format (unit mm)*
G04 Created by KiCad (PCBNEW 7.0.11+dfsg-1build4) date 2026-10-07 20:12:22*
%MOMM*%
%LPD*%
G01*
G04 APERTURE LIST*
G04 Aperture macros list*
%AMRoundRect*
0 Rectangle with rounded corners*
0 $1 Rounding radius*
0 $2 $3 $4 $5 $6 $7 $8 $9 X,Y pos of 4 corners*
0 Add a 4 corners polygon primitive as box body*
4,1,4,$2,$3,$4,$5,$6,$7,$8,$9,$2,$3,0*
0 Add four circle primitives for the rounded corners*
1,1,$1+$1,$2,$3*
1,1,$1+$1,$4,$5*
1,1,$1+$1,$6,$7*
1,1,$1+$1,$8,$9*
0 Add four rect primitives between the rounded corners*
20,1,$1+$1,$2,$3,$4,$5,0*
20,1,$1+$1,$4,$5,$6,$7,0*
20,1,$1+$1,$6,$7,$8,$9,0*
20,1,$1+$1,$8,$9,$2,$3,0*%
G04 Aperture macros list end*
%TA.AperFunction,ComponentPad*%
%ADD10R,1.700000X1.700000*%
%TD*%
%TA.AperFunction,ComponentPad*%
%ADD11O,1.700000X1.700000*%
%TD*%
%TA.AperFunction,ComponentPad*%
%ADD12RoundRect,0.250000X-0.600000X-0.725000X0.600000X-0.725000X0.600000X0.725000X-0.600000X0.725000X0*%
%TD*%
%TA.AperFunction,ComponentPad*%
%ADD13O,1.700000X1.950000*%
%TD*%
%TA.AperFunction,ComponentPad*%
%ADD14RoundRect,0.250000X-0.725000X0.600000X-0.725000X-0.600000X0.725000X-0.600000X0.725000X0.600000X0*%
%TD*%
%TA.AperFunction,ComponentPad*%
%ADD15O,1.950000X1.700000*%
%TD*%
%TA.AperFunction,ComponentPad*%
%ADD16R,2.600000X2.600000*%
%TD*%
%TA.AperFunction,ComponentPad*%
%ADD17C,2.600000*%
%TD*%
%TA.AperFunction,ComponentPad*%
%ADD18C,2.200000*%
%TD*%
%TA.AperFunction,ComponentPad*%
%ADD19R,2.000000X2.000000*%
%TD*%
%TA.AperFunction,ComponentPad*%
%ADD20C,2.000000*%
%TD*%
%TA.AperFunction,ViaPad*%
%ADD21C,0.700000*%
%TD*%
%TA.AperFunction,ViaPad*%
%ADD22C,0.800000*%
%TD*%
%TA.AperFunction,ViaPad*%
%ADD23C,0.900000*%
%TD*%
%TA.AperFunction,Conductor*%
%ADD24C,0.300000*%
%TD*%
G04 APERTURE END LIST*
D10*
%TO.P,J11,1*%
%TO.N,S4*%
X152700000Y-164000000D03*
D11*
%TO.P,J11,2*%
%TO.N,+6V*%
X152700000Y-166540000D03*
%TO.P,J11,3*%
%TO.N,GND*%
X152700000Y-169080000D03*
%TO.P,J11,4*%
%TO.N,S5*%
X155240000Y-164000000D03*
%TO.P,J11,5*%
%TO.N,+6V*%
X155240000Y-166540000D03*
%TO.P,J11,6*%
%TO.N,GND*%
X155240000Y-169080000D03*
%TO.P,J11,7*%
%TO.N,S6*%
X157780000Y-164000000D03*
%TO.P,J11,8*%
%TO.N,+6V*%
X157780000Y-166540000D03*
%TO.P,J11,9*%
%TO.N,GND*%
X157780000Y-169080000D03*
%TO.P,J11,10*%
%TO.N,S7*%
X160320000Y-164000000D03*
%TO.P,J11,11*%
%TO.N,+6V*%
X160320000Y-166540000D03*
%TO.P,J11,12*%
%TO.N,GND*%
X160320000Y-169080000D03*
%TD*%
D10*
%TO.P,J10,1*%
%TO.N,S0*%
X140000000Y-164000000D03*
D11*
%TO.P,J10,2*%
%TO.N,+6V*%
X140000000Y-166540000D03*
%TO.P,J10,3*%
%TO.N,GND*%
X140000000Y-169080000D03*
%TO.P,J10,4*%
%TO.N,S1*%
X142540000Y-164000000D03*
%TO.P,J10,5*%
%TO.N,+6V*%
X142540000Y-166540000D03*
%TO.P,J10,6*%
%TO.N,GND*%
X142540000Y-169080000D03*
%TO.P,J10,7*%
%TO.N,S2*%
X145080000Y-164000000D03*
%TO.P,J10,8*%
%TO.N,+6V*%
X145080000Y-166540000D03*
%TO.P,J10,9*%
%TO.N,GND*%
X145080000Y-169080000D03*
%TO.P,J10,10*%
%TO.N,S3*%
X147620000Y-164000000D03*
%TO.P,J10,11*%
%TO.N,+6V*%
X147620000Y-166540000D03*
%TO.P,J10,12*%
%TO.N,GND*%
X147620000Y-169080000D03*
%TD*%
D10*
%TO.P,J13,1*%
%TO.N,S12*%
X178100000Y-164000000D03*
D11*
%TO.P,J13,2*%
%TO.N,+6V*%
X178100000Y-166540000D03*
%TO.P,J13,3*%
%TO.N,GND*%
X178100000Y-169080000D03*
%TO.P,J13,4*%
%TO.N,S13*%
X180640000Y-164000000D03*
%TO.P,J13,5*%
%TO.N,+6V*%
X180640000Y-166540000D03*
%TO.P,J13,6*%
%TO.N,GND*%
X180640000Y-169080000D03*
%TO.P,J13,7*%
%TO.N,S14*%
X183180000Y-164000000D03*
%TO.P,J13,8*%
%TO.N,+6V*%
X183180000Y-166540000D03*
%TO.P,J13,9*%
%TO.N,GND*%
X183180000Y-169080000D03*
%TO.P,J13,10*%
%TO.N,S15*%
X185720000Y-164000000D03*
%TO.P,J13,11*%
%TO.N,+6V*%
X185720000Y-166540000D03*
%TO.P,J13,12*%
%TO.N,GND*%
X185720000Y-169080000D03*
%TD*%
D12*
%TO.P,J4,1*%
%TO.N,GND*%
X164000000Y-191500000D03*
D13*
%TO.P,J4,2*%
%TO.N,+3V3_PI*%
X166500000Y-191500000D03*
%TO.P,J4,3*%
%TO.N,SDA_P*%
X169000000Y-191500000D03*
%TO.P,J4,4*%
%TO.N,SCL_P*%
X171500000Y-191500000D03*
%TD*%
D14*
%TO.P,J2,1*%
%TO.N,GND*%
X195000000Y-105000000D03*
D15*
%TO.P,J2,2*%
%TO.N,+5V_M*%
X195000000Y-107500000D03*
%TO.P,J2,3*%
%TO.N,SDA_M*%
X195000000Y-110000000D03*
%TO.P,J2,4*%
%TO.N,SCL_M*%
X195000000Y-112500000D03*
%TD*%
D16*
%TO.P,J1,1*%
%TO.N,GND*%
X106000000Y-180000000D03*
D17*
%TO.P,J1,2*%
%TO.N,+6V_IN*%
X111080000Y-180000000D03*
%TD*%
D18*
%TO.P,F1,1*%
%TO.N,+6V_IN*%
X120000000Y-179000000D03*
X120000000Y-181500000D03*
X123500000Y-179000000D03*
X123500000Y-181500000D03*
%TO.P,F1,2*%
%TO.N,+6V_F*%
X129300000Y-179000000D03*
X129300000Y-181500000D03*
X132800000Y-179000000D03*
X132800000Y-181500000D03*
%TD*%
D19*
%TO.P,C4,1*%
%TO.N,+6V*%
X178000000Y-180500000D03*
D20*
%TO.P,C4,2*%
%TO.N,GND*%
X183000000Y-180500000D03*
%TD*%
D14*
%TO.P,J3,1*%
%TO.N,GND*%
X195000000Y-119000000D03*
D15*
%TO.P,J3,2*%
%TO.N,+5V_M*%
X195000000Y-121500000D03*
%TO.P,J3,3*%
%TO.N,SDA_M*%
X195000000Y-124000000D03*
%TO.P,J3,4*%
%TO.N,SCL_M*%
X195000000Y-126500000D03*
%TD*%
D12*
%TO.P,J5,1*%
%TO.N,GND*%
X180000000Y-191500000D03*
D13*
%TO.P,J5,2*%
%TO.N,+3V3_PI*%
X182500000Y-191500000D03*
%TO.P,J5,3*%
%TO.N,SDA_P*%
X185000000Y-191500000D03*
%TO.P,J5,4*%
%TO.N,SCL_P*%
X187500000Y-191500000D03*
%TD*%
D10*
%TO.P,J12,1*%
%TO.N,S8*%
X165400000Y-164000000D03*
D11*
%TO.P,J12,2*%
%TO.N,+6V*%
X165400000Y-166540000D03*
%TO.P,J12,3*%
%TO.N,GND*%
X165400000Y-169080000D03*
%TO.P,J12,4*%
%TO.N,S9*%
X167940000Y-164000000D03*
%TO.P,J12,5*%
%TO.N,+6V*%
X167940000Y-166540000D03*
%TO.P,J12,6*%
%TO.N,GND*%
X167940000Y-169080000D03*
%TO.P,J12,7*%
%TO.N,S10*%
X170480000Y-164000000D03*
%TO.P,J12,8*%
%TO.N,+6V*%
X170480000Y-166540000D03*
%TO.P,J12,9*%
%TO.N,GND*%
X170480000Y-169080000D03*
%TO.P,J12,10*%
%TO.N,S11*%
X173020000Y-164000000D03*
%TO.P,J12,11*%
%TO.N,+6V*%
X173020000Y-166540000D03*
%TO.P,J12,12*%
%TO.N,GND*%
X173020000Y-169080000D03*
%TD*%
D21*
%TO.N,GND*%
X197000000Y-142000000D03*
X137000000Y-137000000D03*
X107000000Y-147000000D03*
X191500000Y-179500000D03*
X127000000Y-167000000D03*
X112000000Y-132000000D03*
X182000000Y-122000000D03*
X152000000Y-107000000D03*
X197000000Y-137000000D03*
X137000000Y-132000000D03*
X142000000Y-112000000D03*
X157000000Y-112000000D03*
X107000000Y-132000000D03*
X122000000Y-162000000D03*
X187000000Y-147000000D03*
X157000000Y-142000000D03*
X127000000Y-127000000D03*
X122000000Y-147000000D03*
X182000000Y-137000000D03*
X152000000Y-147000000D03*
X167000000Y-102000000D03*
X142000000Y-132000000D03*
X112000000Y-122000000D03*
X137000000Y-117000000D03*
X172000000Y-127000000D03*
X117000000Y-147000000D03*
X137000000Y-147000000D03*
X117000000Y-142000000D03*
X127000000Y-172000000D03*
X152000000Y-122000000D03*
X140000000Y-189500000D03*
X122000000Y-117000000D03*
X117000000Y-162000000D03*
X102000000Y-122000000D03*
X162000000Y-102000000D03*
X177000000Y-132000000D03*
X167000000Y-107000000D03*
X137000000Y-122000000D03*
X127000000Y-157000000D03*
X145000000Y-189500000D03*
X170000000Y-184500000D03*
X186500000Y-179500000D03*
X197000000Y-132000000D03*
X182000000Y-142000000D03*
X122000000Y-142000000D03*
X132000000Y-147000000D03*
X142000000Y-117000000D03*
X112000000Y-157000000D03*
X162000000Y-117000000D03*
X157000000Y-102000000D03*
X140000000Y-184500000D03*
X117000000Y-122000000D03*
X162000000Y-152000000D03*
X177000000Y-137000000D03*
X112000000Y-127000000D03*
X102000000Y-162000000D03*
X155000000Y-184500000D03*
X107000000Y-117000000D03*
D22*
X150237499Y-127725000D03*
D21*
X117000000Y-132000000D03*
X137000000Y-112000000D03*
X182000000Y-117000000D03*
X137000000Y-102000000D03*
X152000000Y-142000000D03*
X127000000Y-132000000D03*
X145000000Y-184500000D03*
X177000000Y-127000000D03*
X137000000Y-107000000D03*
X127000000Y-102000000D03*
X132000000Y-172000000D03*
X102000000Y-132000000D03*
X153437500Y-127725000D03*
X132000000Y-142000000D03*
X192000000Y-142000000D03*
X162000000Y-107000000D03*
X172000000Y-152000000D03*
X122000000Y-157000000D03*
X160000000Y-184500000D03*
X167000000Y-142000000D03*
X150000000Y-189500000D03*
X167000000Y-127000000D03*
X192000000Y-152000000D03*
X127000000Y-147000000D03*
X187000000Y-152000000D03*
X157000000Y-107000000D03*
X112000000Y-117000000D03*
X147000000Y-147000000D03*
X102000000Y-142000000D03*
X117000000Y-117000000D03*
X167000000Y-147000000D03*
X177000000Y-122000000D03*
X102000000Y-112000000D03*
X132000000Y-157000000D03*
X172000000Y-122000000D03*
X196500000Y-174500000D03*
X122000000Y-172000000D03*
X182000000Y-127000000D03*
X122000000Y-102000000D03*
X172000000Y-147000000D03*
X127000000Y-122000000D03*
X137000000Y-152000000D03*
X195000000Y-184500000D03*
X102000000Y-157000000D03*
X122000000Y-152000000D03*
X172000000Y-102000000D03*
X181500000Y-174500000D03*
X165000000Y-184500000D03*
X150000000Y-184500000D03*
X147000000Y-102000000D03*
X132000000Y-132000000D03*
X162275000Y-123800000D03*
X122000000Y-167000000D03*
X147000000Y-142000000D03*
X137000000Y-142000000D03*
X187000000Y-137000000D03*
D22*
X150237499Y-134225000D03*
D21*
X192000000Y-137000000D03*
X172000000Y-107000000D03*
X147000000Y-152000000D03*
X142000000Y-102000000D03*
X147000000Y-117000000D03*
X107000000Y-122000000D03*
X102000000Y-172000000D03*
X112000000Y-147000000D03*
X190000000Y-184500000D03*
X132000000Y-112000000D03*
X197000000Y-152000000D03*
X102000000Y-152000000D03*
X187000000Y-142000000D03*
X187000000Y-132000000D03*
X127000000Y-117000000D03*
X147000000Y-137000000D03*
X157000000Y-122000000D03*
X187000000Y-117000000D03*
X102000000Y-127000000D03*
X112000000Y-152000000D03*
X132000000Y-137000000D03*
X127000000Y-142000000D03*
X155000000Y-189500000D03*
X175000000Y-184500000D03*
X163575000Y-123700000D03*
X132000000Y-152000000D03*
X107000000Y-157000000D03*
X117000000Y-152000000D03*
X117000000Y-102000000D03*
X122000000Y-122000000D03*
X196500000Y-179500000D03*
X162000000Y-142000000D03*
X112000000Y-112000000D03*
X152000000Y-102000000D03*
X167000000Y-112000000D03*
X157000000Y-147000000D03*
X102000000Y-137000000D03*
X117000000Y-127000000D03*
X192000000Y-132000000D03*
X117000000Y-172000000D03*
D22*
X159762500Y-128375000D03*
D21*
X182000000Y-132000000D03*
X107000000Y-152000000D03*
X132000000Y-167000000D03*
X160000000Y-189500000D03*
X122000000Y-132000000D03*
X172000000Y-132000000D03*
X186500000Y-174500000D03*
X132000000Y-117000000D03*
X156562500Y-128375000D03*
X192000000Y-147000000D03*
X147000000Y-107000000D03*
X112000000Y-172000000D03*
X132000000Y-162000000D03*
X152000000Y-117000000D03*
X122000000Y-127000000D03*
X132000000Y-102000000D03*
X197000000Y-147000000D03*
X157000000Y-117000000D03*
X102000000Y-117000000D03*
X112000000Y-162000000D03*
X147000000Y-112000000D03*
X107000000Y-112000000D03*
X112000000Y-142000000D03*
X157000000Y-137000000D03*
X107000000Y-142000000D03*
X142000000Y-107000000D03*
X127000000Y-152000000D03*
X177000000Y-117000000D03*
X127000000Y-162000000D03*
X107000000Y-127000000D03*
X127000000Y-137000000D03*
X112000000Y-102000000D03*
X117000000Y-157000000D03*
X143175000Y-124700000D03*
X102000000Y-147000000D03*
X107000000Y-162000000D03*
X117000000Y-167000000D03*
X187000000Y-102000000D03*
X191500000Y-174500000D03*
X152000000Y-137000000D03*
X112000000Y-167000000D03*
X152000000Y-112000000D03*
X162000000Y-112000000D03*
X137000000Y-127000000D03*
X162000000Y-137000000D03*
X141875000Y-122000000D03*
D22*
%TO.N,+6V*%
X165175000Y-178500000D03*
D23*
X144900000Y-174600000D03*
X144900000Y-175800000D03*
X146300000Y-174600000D03*
X144900000Y-177000000D03*
X144900000Y-178200000D03*
X146300000Y-178200000D03*
X146300000Y-175800000D03*
X146300000Y-177000000D03*
D21*
%TO.N,LED3*%
X149785100Y-132271200D03*
X150226400Y-152417200D03*
%TO.N,LED5*%
X153491700Y-152417200D03*
X154988800Y-131548700D03*
%TO.N,LED6*%
X156103900Y-132381200D03*
X157619400Y-152417200D03*
%TO.N,LED7*%
X160366000Y-152417200D03*
X156103900Y-134048100D03*
%TO.N,LED8*%
X163693200Y-135973500D03*
X163759100Y-152417200D03*
%TO.N,LED10*%
X160242100Y-149840600D03*
X159647900Y-132943700D03*
%TO.N,LED12*%
X177441600Y-152866500D03*
X160350300Y-131572500D03*
%TO.N,LED15*%
X182197300Y-152417200D03*
X156103900Y-130148100D03*
%TO.N,SDA_M*%
X164187400Y-125666100D03*
X174186800Y-111922900D03*
%TD*%
D24*
%TO.N,SDA_P*%
X171045800Y-190110900D02*
X170201900Y-190954800D01*
X169000000Y-191500000D02*
X170201900Y-191500000D01*
X183798100Y-191500000D02*
X183798100Y-190899100D01*
X185000000Y-191500000D02*
X183798100Y-191500000D01*
X183009900Y-190110900D02*
X171045800Y-190110900D01*
X183798100Y-190899100D02*
X183009900Y-190110900D01*
X170201900Y-190954800D02*
X170201900Y-191500000D01*
%TO.N,+3V3_PI*%
X182500000Y-191500000D02*
X181298100Y-191500000D01*
X167701900Y-192101000D02*
X168481800Y-192880900D01*
X181298100Y-192412500D02*
X181298100Y-191500000D01*
X166500000Y-191500000D02*
X167701900Y-191500000D01*
X180829700Y-192880900D02*
X181298100Y-192412500D01*
X168481800Y-192880900D02*
X180829700Y-192880900D01*
X167701900Y-191500000D02*
X167701900Y-192101000D01*
%TO.N,LED3*%
X149464700Y-132591600D02*
X149464700Y-151655500D01*
X149785100Y-132271200D02*
X149464700Y-132591600D01*
X149464700Y-151655500D02*
X150226400Y-152417200D01*
%TO.N,LED5*%
X153491700Y-133045800D02*
X153491700Y-152417200D01*
X154988800Y-131548700D02*
X153491700Y-133045800D01*
%TO.N,LED6*%
X155387000Y-133098100D02*
X155387000Y-150184800D01*
X156103900Y-132381200D02*
X155387000Y-133098100D01*
X155387000Y-150184800D02*
X157619400Y-152417200D01*
%TO.N,LED7*%
X156103900Y-148155100D02*
X156103900Y-134048100D01*
X160366000Y-152417200D02*
X156103900Y-148155100D01*
%TO.N,LED8*%
X163693200Y-135973500D02*
X163693200Y-152351300D01*
X163693200Y-152351300D02*
X163759100Y-152417200D01*
%TO.N,LED10*%
X159647900Y-132943700D02*
X159647900Y-149246400D01*
X159647900Y-149246400D02*
X160242100Y-149840600D01*
%TO.N,LED12*%
X177441600Y-152866500D02*
X177441600Y-147307700D01*
X161706400Y-131572500D02*
X160350300Y-131572500D01*
X177441600Y-147307700D02*
X161706400Y-131572500D01*
%TO.N,LED15*%
X182197300Y-152417200D02*
X182197300Y-146446000D01*
X160521700Y-130148100D02*
X156103900Y-130148100D01*
X164156200Y-128404900D02*
X162264900Y-128404900D01*
X182197300Y-146446000D02*
X164156200Y-128404900D01*
X162264900Y-128404900D02*
X160521700Y-130148100D01*
%TO.N,SCL_M*%
X196344300Y-124554700D02*
X196344300Y-115046200D01*
X195600900Y-125298100D02*
X196344300Y-124554700D01*
X196344300Y-115046200D02*
X195000000Y-113701900D01*
X195000000Y-126500000D02*
X195000000Y-125298100D01*
X195000000Y-112500000D02*
X195000000Y-113701900D01*
X195000000Y-125298100D02*
X195600900Y-125298100D01*
%TO.N,SDA_M*%
X195000000Y-124000000D02*
X195000000Y-122798100D01*
X174186800Y-115666700D02*
X174186800Y-111922900D01*
X194454800Y-111201900D02*
X195000000Y-111201900D01*
X195000000Y-122798100D02*
X194399000Y-122798100D01*
X195000000Y-110000000D02*
X195000000Y-111201900D01*
X194399000Y-122798100D02*
X193672100Y-122071200D01*
X193672100Y-122071200D02*
X193672100Y-111984600D01*
X164187400Y-125666100D02*
X174186800Y-115666700D01*
X193672100Y-111984600D02*
X194454800Y-111201900D01*
%TD*%
%TA.AperFunction,Conductor*%
%TO.N,+6V*%
G36*
X177308259Y-153503603D02*
G01*
X177362614Y-153517000D01*
X177362615Y-153517000D01*
X177520585Y-153517000D01*
X177574941Y-153503603D01*
X177604615Y-153500000D01*
X199476000Y-153500000D01*
X199543039Y-153519685D01*
X199588794Y-153572489D01*
X199600000Y-153624000D01*
X199600000Y-173376000D01*
X199580315Y-173443039D01*
X199527511Y-173488794D01*
X199476000Y-173500000D01*
X180500000Y-173500000D01*
X180500000Y-182876000D01*
X180480315Y-182943039D01*
X180427511Y-182988794D01*
X180376000Y-183000000D01*
X137624000Y-183000000D01*
X137556961Y-182980315D01*
X137511206Y-182927511D01*
X137500000Y-182876000D01*
X137500000Y-169080000D01*
X138844571Y-169080000D01*
X138864244Y-169292310D01*
X138922596Y-169497392D01*
X138922596Y-169497394D01*
X139017632Y-169688253D01*
X139017634Y-169688255D01*
X139146128Y-169858407D01*
X139303698Y-170002052D01*
X139484981Y-170114298D01*
X139683802Y-170191321D01*
X139893390Y-170230500D01*
X139893392Y-170230500D01*
X140106608Y-170230500D01*
X140106610Y-170230500D01*
X140316198Y-170191321D01*
X140515019Y-170114298D01*
X140696302Y-170002052D01*
X140853872Y-169858407D01*
X140982366Y-169688255D01*
X141077405Y-169497389D01*
X141135756Y-169292310D01*
X141146529Y-169176047D01*
X141172315Y-169111111D01*
X141214622Y-169080804D01*
X141323130Y-169080804D01*
X141359503Y-169101668D01*
X141391693Y-169163681D01*
X141393471Y-169176048D01*
X141404244Y-169292310D01*
X141462596Y-169497392D01*
X141462596Y-169497394D01*
X141557632Y-169688253D01*
X141557634Y-169688255D01*
X141686128Y-169858407D01*
X141843698Y-170002052D01*
X142024981Y-170114298D01*
X142223802Y-170191321D01*
X142433390Y-170230500D01*
X142433392Y-170230500D01*
X142646608Y-170230500D01*
X142646610Y-170230500D01*
X142856198Y-170191321D01*
X143055019Y-170114298D01*
X143236302Y-170002052D01*
X143393872Y-169858407D01*
X143522366Y-169688255D01*
X143617405Y-169497389D01*
X143675756Y-169292310D01*
X143686529Y-169176047D01*
X143712315Y-169111111D01*
X143754622Y-169080804D01*
X143863130Y-169080804D01*
X143899503Y-169101668D01*
X143931693Y-169163681D01*
X143933471Y-169176048D01*
X143944244Y-169292310D01*
X144002596Y-169497392D01*
X144002596Y-169497394D01*
X144097632Y-169688253D01*
X144097634Y-169688255D01*
X144226128Y-169858407D01*
X144383698Y-170002052D01*
X144564981Y-170114298D01*
X144763802Y-170191321D01*
X144973390Y-170230500D01*
X144973392Y-170230500D01*
X145186608Y-170230500D01*
X145186610Y-170230500D01*
X145396198Y-170191321D01*
X145595019Y-170114298D01*
X145776302Y-170002052D01*
X145933872Y-169858407D01*
X146062366Y-169688255D01*
X146157405Y-169497389D01*
X146215756Y-169292310D01*
X146226529Y-169176047D01*
X146252315Y-169111111D01*
X146294622Y-169080804D01*
X146403130Y-169080804D01*
X146439503Y-169101668D01*
X146471693Y-169163681D01*
X146473471Y-169176048D01*
X146484244Y-169292310D01*
X146542596Y-169497392D01*
X146542596Y-169497394D01*
X146637632Y-169688253D01*
X146637634Y-169688255D01*
X146766128Y-169858407D01*
X146923698Y-170002052D01*
X147104981Y-170114298D01*
X147303802Y-170191321D01*
X147513390Y-170230500D01*
X147513392Y-170230500D01*
X147726608Y-170230500D01*
X147726610Y-170230500D01*
X147936198Y-170191321D01*
X148135019Y-170114298D01*
X148316302Y-170002052D01*
X148473872Y-169858407D01*
X148602366Y-169688255D01*
X148697405Y-169497389D01*
X148755756Y-169292310D01*
X148775429Y-169080000D01*
X151544571Y-169080000D01*
X151564244Y-169292310D01*
X151622596Y-169497392D01*
X151622596Y-169497394D01*
X151717632Y-169688253D01*
X151717634Y-169688255D01*
X151846128Y-169858407D01*
X152003698Y-170002052D01*
X152184981Y-170114298D01*
X152383802Y-170191321D01*
X152593390Y-170230500D01*
X152593392Y-170230500D01*
X152806608Y-170230500D01*
X152806610Y-170230500D01*
X153016198Y-170191321D01*
X153215019Y-170114298D01*
X153396302Y-170002052D01*
X153553872Y-169858407D01*
X153682366Y-169688255D01*
X153777405Y-169497389D01*
X153835756Y-169292310D01*
X153846529Y-169176047D01*
X153872315Y-169111111D01*
X153914622Y-169080804D01*
X154023130Y-169080804D01*
X154059503Y-169101668D01*
X154091693Y-169163681D01*
X154093471Y-169176048D01*
X154104244Y-169292310D01*
X154162596Y-169497392D01*
X154162596Y-169497394D01*
X154257632Y-169688253D01*
X154257634Y-169688255D01*
X154386128Y-169858407D01*
X154543698Y-170002052D01*
X154724981Y-170114298D01*
X154923802Y-170191321D01*
X155133390Y-170230500D01*
X155133392Y-170230500D01*
X155346608Y-170230500D01*
X155346610Y-170230500D01*
X155556198Y-170191321D01*
X155755019Y-170114298D01*
X155936302Y-170002052D01*
X156093872Y-169858407D01*
X156222366Y-169688255D01*
X156317405Y-169497389D01*
X156375756Y-169292310D01*
X156386529Y-169176047D01*
X156412315Y-169111111D01*
X156454622Y-169080804D01*
X156563130Y-169080804D01*
X156599503Y-169101668D01*
X156631693Y-169163681D01*
X156633471Y-169176048D01*
X156644244Y-169292310D01*
X156702596Y-169497392D01*
X156702596Y-169497394D01*
X156797632Y-169688253D01*
X156797634Y-169688255D01*
X156926128Y-169858407D01*
X157083698Y-170002052D01*
X157264981Y-170114298D01*
X157463802Y-170191321D01*
X157673390Y-170230500D01*
X157673392Y-170230500D01*
X157886608Y-170230500D01*
X157886610Y-170230500D01*
X158096198Y-170191321D01*
X158295019Y-170114298D01*
X158476302Y-170002052D01*
X158633872Y-169858407D01*
X158762366Y-169688255D01*
X158857405Y-169497389D01*
X158915756Y-169292310D01*
X158926529Y-169176047D01*
X158952315Y-169111111D01*
X158994622Y-169080804D01*
X159103130Y-169080804D01*
X159139503Y-169101668D01*
X159171693Y-169163681D01*
X159173471Y-169176048D01*
X159184244Y-169292310D01*
X159242596Y-169497392D01*
X159242596Y-169497394D01*
X159337632Y-169688253D01*
X159337634Y-169688255D01*
X159466128Y-169858407D01*
X159623698Y-170002052D01*
X159804981Y-170114298D01*
X160003802Y-170191321D01*
X160213390Y-170230500D01*
X160213392Y-170230500D01*
X160426608Y-170230500D01*
X160426610Y-170230500D01*
X160636198Y-170191321D01*
X160835019Y-170114298D01*
X161016302Y-170002052D01*
X161173872Y-169858407D01*
X161302366Y-169688255D01*
X161397405Y-169497389D01*
X161455756Y-169292310D01*
X161475429Y-169080000D01*
X164244571Y-169080000D01*
X164264244Y-169292310D01*
X164322596Y-169497392D01*
X164322596Y-169497394D01*
X164417632Y-169688253D01*
X164417634Y-169688255D01*
X164546128Y-169858407D01*
X164703698Y-170002052D01*
X164884981Y-170114298D01*
X165083802Y-170191321D01*
X165293390Y-170230500D01*
X165293392Y-170230500D01*
X165506608Y-170230500D01*
X165506610Y-170230500D01*
X165716198Y-170191321D01*
X165915019Y-170114298D01*
X166096302Y-170002052D01*
X166253872Y-169858407D01*
X166382366Y-169688255D01*
X166477405Y-169497389D01*
X166535756Y-169292310D01*
X166546529Y-169176047D01*
X166572315Y-169111111D01*
X166614622Y-169080804D01*
X166723130Y-169080804D01*
X166759503Y-169101668D01*
X166791693Y-169163681D01*
X166793471Y-169176048D01*
X166804244Y-169292310D01*
X166862596Y-169497392D01*
X166862596Y-169497394D01*
X166957632Y-169688253D01*
X166957634Y-169688255D01*
X167086128Y-169858407D01*
X167243698Y-170002052D01*
X167424981Y-170114298D01*
X167623802Y-170191321D01*
X167833390Y-170230500D01*
X167833392Y-170230500D01*
X168046608Y-170230500D01*
X168046610Y-170230500D01*
X168256198Y-170191321D01*
X168455019Y-170114298D01*
X168636302Y-170002052D01*
X168793872Y-169858407D01*
X168922366Y-169688255D01*
X169017405Y-169497389D01*
X169075756Y-169292310D01*
X169086529Y-169176047D01*
X169112315Y-169111111D01*
X169154622Y-169080804D01*
X169263130Y-169080804D01*
X169299503Y-169101668D01*
X169331693Y-169163681D01*
X169333471Y-169176048D01*
X169344244Y-169292310D01*
X169402596Y-169497392D01*
X169402596Y-169497394D01*
X169497632Y-169688253D01*
X169497634Y-169688255D01*
X169626128Y-169858407D01*
X169783698Y-170002052D01*
X169964981Y-170114298D01*
X170163802Y-170191321D01*
X170373390Y-170230500D01*
X170373392Y-170230500D01*
X170586608Y-170230500D01*
X170586610Y-170230500D01*
X170796198Y-170191321D01*
X170995019Y-170114298D01*
X171176302Y-170002052D01*
X171333872Y-169858407D01*
X171462366Y-169688255D01*
X171557405Y-169497389D01*
X171615756Y-169292310D01*
X171626529Y-169176047D01*
X171652315Y-169111111D01*
X171694622Y-169080804D01*
X171803130Y-169080804D01*
X171839503Y-169101668D01*
X171871693Y-169163681D01*
X171873471Y-169176048D01*
X171884244Y-169292310D01*
X171942596Y-169497392D01*
X171942596Y-169497394D01*
X172037632Y-169688253D01*
X172037634Y-169688255D01*
X172166128Y-169858407D01*
X172323698Y-170002052D01*
X172504981Y-170114298D01*
X172703802Y-170191321D01*
X172913390Y-170230500D01*
X172913392Y-170230500D01*
X173126608Y-170230500D01*
X173126610Y-170230500D01*
X173336198Y-170191321D01*
X173535019Y-170114298D01*
X173716302Y-170002052D01*
X173873872Y-169858407D01*
X174002366Y-169688255D01*
X174097405Y-169497389D01*
X174155756Y-169292310D01*
X174175429Y-169080000D01*
X176944571Y-169080000D01*
X176964244Y-169292310D01*
X177022596Y-169497392D01*
X177022596Y-169497394D01*
X177117632Y-169688253D01*
X177117634Y-169688255D01*
X177246128Y-169858407D01*
X177403698Y-170002052D01*
X177584981Y-170114298D01*
X177783802Y-170191321D01*
X177993390Y-170230500D01*
X177993392Y-170230500D01*
X178206608Y-170230500D01*
X178206610Y-170230500D01*
X178416198Y-170191321D01*
X178615019Y-170114298D01*
X178796302Y-170002052D01*
X178953872Y-169858407D01*
X179082366Y-169688255D01*
X179177405Y-169497389D01*
X179235756Y-169292310D01*
X179246529Y-169176047D01*
X179272315Y-169111111D01*
X179314622Y-169080804D01*
X179423130Y-169080804D01*
X179459503Y-169101668D01*
X179491693Y-169163681D01*
X179493471Y-169176048D01*
X179504244Y-169292310D01*
X179562596Y-169497392D01*
X179562596Y-169497394D01*
X179657632Y-169688253D01*
X179657634Y-169688255D01*
X179786128Y-169858407D01*
X179943698Y-170002052D01*
X180124981Y-170114298D01*
X180323802Y-170191321D01*
X180533390Y-170230500D01*
X180533392Y-170230500D01*
X180746608Y-170230500D01*
X180746610Y-170230500D01*
X180956198Y-170191321D01*
X181155019Y-170114298D01*
X181336302Y-170002052D01*
X181493872Y-169858407D01*
X181622366Y-169688255D01*
X181717405Y-169497389D01*
X181775756Y-169292310D01*
X181786529Y-169176047D01*
X181812315Y-169111111D01*
X181854622Y-169080804D01*
X181963130Y-169080804D01*
X181999503Y-169101668D01*
X182031693Y-169163681D01*
X182033471Y-169176048D01*
X182044244Y-169292310D01*
X182102596Y-169497392D01*
X182102596Y-169497394D01*
X182197632Y-169688253D01*
X182197634Y-169688255D01*
X182326128Y-169858407D01*
X182483698Y-170002052D01*
X182664981Y-170114298D01*
X182863802Y-170191321D01*
X183073390Y-170230500D01*
X183073392Y-170230500D01*
X183286608Y-170230500D01*
X183286610Y-170230500D01*
X183496198Y-170191321D01*
X183695019Y-170114298D01*
X183876302Y-170002052D01*
X184033872Y-169858407D01*
X184162366Y-169688255D01*
X184257405Y-169497389D01*
X184315756Y-169292310D01*
X184326529Y-169176047D01*
X184352315Y-169111111D01*
X184394622Y-169080804D01*
X184503130Y-169080804D01*
X184539503Y-169101668D01*
X184571693Y-169163681D01*
X184573471Y-169176048D01*
X184584244Y-169292310D01*
X184642596Y-169497392D01*
X184642596Y-169497394D01*
X184737632Y-169688253D01*
X184737634Y-169688255D01*
X184866128Y-169858407D01*
X185023698Y-170002052D01*
X185204981Y-170114298D01*
X185403802Y-170191321D01*
X185613390Y-170230500D01*
X185613392Y-170230500D01*
X185826608Y-170230500D01*
X185826610Y-170230500D01*
X186036198Y-170191321D01*
X186235019Y-170114298D01*
X186416302Y-170002052D01*
X186573872Y-169858407D01*
X186702366Y-169688255D01*
X186797405Y-169497389D01*
X186855756Y-169292310D01*
X186875429Y-169080000D01*
X186855756Y-168867690D01*
X186797405Y-168662611D01*
X186797403Y-168662606D01*
X186797403Y-168662605D01*
X186702367Y-168471746D01*
X186573872Y-168301593D01*
X186416302Y-168157948D01*
X186235019Y-168045702D01*
X186235017Y-168045701D01*
X186135608Y-168007190D01*
X186036198Y-167968679D01*
X185826610Y-167929500D01*
X185613390Y-167929500D01*
X185403802Y-167968679D01*
X185403799Y-167968679D01*
X185403799Y-167968680D01*
X185204982Y-168045701D01*
X185204980Y-168045702D01*
X185023699Y-168157947D01*
X184866127Y-168301593D01*
X184737632Y-168471746D01*
X184642596Y-168662605D01*
X184642596Y-168662607D01*
X184584244Y-168867689D01*
X184573471Y-168983951D01*
X184547685Y-169048888D01*
X184503130Y-169080804D01*
X184394622Y-169080804D01*
X184396869Y-169079194D01*
X184360497Y-169058331D01*
X184328307Y-168996318D01*
X184326529Y-168983951D01*
X184325849Y-168976613D01*
X184315756Y-168867690D01*
X184257405Y-168662611D01*
X184257403Y-168662606D01*
X184257403Y-168662605D01*
X184162367Y-168471746D01*
X184033872Y-168301593D01*
X183876302Y-168157948D01*
X183695019Y-168045702D01*
X183695017Y-168045701D01*
X183595608Y-168007190D01*
X183496198Y-167968679D01*
X183286610Y-167929500D01*
X183073390Y-167929500D01*
X182863802Y-167968679D01*
X182863799Y-167968679D01*
X182863799Y-167968680D01*
X182664982Y-168045701D01*
X182664980Y-168045702D01*
X182483699Y-168157947D01*
X182326127Y-168301593D01*
X182197632Y-168471746D01*
X182102596Y-168662605D01*
X182102596Y-168662607D01*
X182044244Y-168867689D01*
X182033471Y-168983951D01*
X182007685Y-169048888D01*
X181963130Y-169080804D01*
X181854622Y-169080804D01*
X181856869Y-169079194D01*
X181820497Y-169058331D01*
X181788307Y-168996318D01*
X181786529Y-168983951D01*
X181785849Y-168976613D01*
X181775756Y-168867690D01*
X181717405Y-168662611D01*
X181717403Y-168662606D01*
X181717403Y-168662605D01*
X181622367Y-168471746D01*
X181493872Y-168301593D01*
X181336302Y-168157948D01*
X181155019Y-168045702D01*
X181155017Y-168045701D01*
X181055608Y-168007190D01*
X180956198Y-167968679D01*
X180746610Y-167929500D01*
X180533390Y-167929500D01*
X180323802Y-167968679D01*
X180323799Y-167968679D01*
X180323799Y-167968680D01*
X180124982Y-168045701D01*
X180124980Y-168045702D01*
X179943699Y-168157947D01*
X179786127Y-168301593D01*
X179657632Y-168471746D01*
X179562596Y-168662605D01*
X179562596Y-168662607D01*
X179504244Y-168867689D01*
X179493471Y-168983951D01*
X179467685Y-169048888D01*
X179423130Y-169080804D01*
X179314622Y-169080804D01*
X179316869Y-169079194D01*
X179280497Y-169058331D01*
X179248307Y-168996318D01*
X179246529Y-168983951D01*
X179245849Y-168976613D01*
X179235756Y-168867690D01*
X179177405Y-168662611D01*
X179177403Y-168662606D01*
X179177403Y-168662605D01*
X179082367Y-168471746D01*
X178953872Y-168301593D01*
X178796302Y-168157948D01*
X178615019Y-168045702D01*
X178615017Y-168045701D01*
X178515608Y-168007190D01*
X178416198Y-167968679D01*
X178206610Y-167929500D01*
X177993390Y-167929500D01*
X177783802Y-167968679D01*
X177783799Y-167968679D01*
X177783799Y-167968680D01*
X177584982Y-168045701D01*
X177584980Y-168045702D01*
X177403699Y-168157947D01*
X177246127Y-168301593D01*
X177117632Y-168471746D01*
X177022596Y-168662605D01*
X177022596Y-168662607D01*
X176964244Y-168867689D01*
X176944571Y-169079999D01*
X176944571Y-169080000D01*
X174175429Y-169080000D01*
X174155756Y-168867690D01*
X174097405Y-168662611D01*
X174097403Y-168662606D01*
X174097403Y-168662605D01*
X174002367Y-168471746D01*
X173873872Y-168301593D01*
X173716302Y-168157948D01*
X173535019Y-168045702D01*
X173535017Y-168045701D01*
X173435608Y-168007190D01*
X173336198Y-167968679D01*
X173126610Y-167929500D01*
X172913390Y-167929500D01*
X172703802Y-167968679D01*
X172703799Y-167968679D01*
X172703799Y-167968680D01*
X172504982Y-168045701D01*
X172504980Y-168045702D01*
X172323699Y-168157947D01*
X172166127Y-168301593D01*
X172037632Y-168471746D01*
X171942596Y-168662605D01*
X171942596Y-168662607D01*
X171884244Y-168867689D01*
X171873471Y-168983951D01*
X171847685Y-169048888D01*
X171803130Y-169080804D01*
X171694622Y-169080804D01*
X171696869Y-169079194D01*
X171660497Y-169058331D01*
X171628307Y-168996318D01*
X171626529Y-168983951D01*
X171625849Y-168976613D01*
X171615756Y-168867690D01*
X171557405Y-168662611D01*
X171557403Y-168662606D01*
X171557403Y-168662605D01*
X171462367Y-168471746D01*
X171333872Y-168301593D01*
X171176302Y-168157948D01*
X170995019Y-168045702D01*
X170995017Y-168045701D01*
X170895608Y-168007190D01*
X170796198Y-167968679D01*
X170586610Y-167929500D01*
X170373390Y-167929500D01*
X170163802Y-167968679D01*
X170163799Y-167968679D01*
X170163799Y-167968680D01*
X169964982Y-168045701D01*
X169964980Y-168045702D01*
X169783699Y-168157947D01*
X169626127Y-168301593D01*
X169497632Y-168471746D01*
X169402596Y-168662605D01*
X169402596Y-168662607D01*
X169344244Y-168867689D01*
X169333471Y-168983951D01*
X169307685Y-169048888D01*
X169263130Y-169080804D01*
X169154622Y-169080804D01*
X169156869Y-169079194D01*
X169120497Y-169058331D01*
X169088307Y-168996318D01*
X169086529Y-168983951D01*
X169085849Y-168976613D01*
X169075756Y-168867690D01*
X169017405Y-168662611D01*
X169017403Y-168662606D01*
X169017403Y-168662605D01*
X168922367Y-168471746D01*
X168793872Y-168301593D01*
X168636302Y-168157948D01*
X168455019Y-168045702D01*
X168455017Y-168045701D01*
X168355608Y-168007190D01*
X168256198Y-167968679D01*
X168046610Y-167929500D01*
X167833390Y-167929500D01*
X167623802Y-167968679D01*
X167623799Y-167968679D01*
X167623799Y-167968680D01*
X167424982Y-168045701D01*
X167424980Y-168045702D01*
X167243699Y-168157947D01*
X167086127Y-168301593D01*
X166957632Y-168471746D01*
X166862596Y-168662605D01*
X166862596Y-168662607D01*
X166804244Y-168867689D01*
X166793471Y-168983951D01*
X166767685Y-169048888D01*
X166723130Y-169080804D01*
X166614622Y-169080804D01*
X166616869Y-169079194D01*
X166580497Y-169058331D01*
X166548307Y-168996318D01*
X166546529Y-168983951D01*
X166545849Y-168976613D01*
X166535756Y-168867690D01*
X166477405Y-168662611D01*
X166477403Y-168662606D01*
X166477403Y-168662605D01*
X166382367Y-168471746D01*
X166253872Y-168301593D01*
X166096302Y-168157948D01*
X165915019Y-168045702D01*
X165915017Y-168045701D01*
X165815608Y-168007190D01*
X165716198Y-167968679D01*
X165506610Y-167929500D01*
X165293390Y-167929500D01*
X165083802Y-167968679D01*
X165083799Y-167968679D01*
X165083799Y-167968680D01*
X164884982Y-168045701D01*
X164884980Y-168045702D01*
X164703699Y-168157947D01*
X164546127Y-168301593D01*
X164417632Y-168471746D01*
X164322596Y-168662605D01*
X164322596Y-168662607D01*
X164264244Y-168867689D01*
X164244571Y-169079999D01*
X164244571Y-169080000D01*
X161475429Y-169080000D01*
X161455756Y-168867690D01*
X161397405Y-168662611D01*
X161397403Y-168662606D01*
X161397403Y-168662605D01*
X161302367Y-168471746D01*
X161173872Y-168301593D01*
X161016302Y-168157948D01*
X160835019Y-168045702D01*
X160835017Y-168045701D01*
X160735608Y-168007190D01*
X160636198Y-167968679D01*
X160426610Y-167929500D01*
X160213390Y-167929500D01*
X160003802Y-167968679D01*
X160003799Y-167968679D01*
X160003799Y-167968680D01*
X159804982Y-168045701D01*
X159804980Y-168045702D01*
X159623699Y-168157947D01*
X159466127Y-168301593D01*
X159337632Y-168471746D01*
X159242596Y-168662605D01*
X159242596Y-168662607D01*
X159184244Y-168867689D01*
X159173471Y-168983951D01*
X159147685Y-169048888D01*
X159103130Y-169080804D01*
X158994622Y-169080804D01*
X158996869Y-169079194D01*
X158960497Y-169058331D01*
X158928307Y-168996318D01*
X158926529Y-168983951D01*
X158925849Y-168976613D01*
X158915756Y-168867690D01*
X158857405Y-168662611D01*
X158857403Y-168662606D01*
X158857403Y-168662605D01*
X158762367Y-168471746D01*
X158633872Y-168301593D01*
X158476302Y-168157948D01*
X158295019Y-168045702D01*
X158295017Y-168045701D01*
X158195608Y-168007190D01*
X158096198Y-167968679D01*
X157886610Y-167929500D01*
X157673390Y-167929500D01*
X157463802Y-167968679D01*
X157463799Y-167968679D01*
X157463799Y-167968680D01*
X157264982Y-168045701D01*
X157264980Y-168045702D01*
X157083699Y-168157947D01*
X156926127Y-168301593D01*
X156797632Y-168471746D01*
X156702596Y-168662605D01*
X156702596Y-168662607D01*
X156644244Y-168867689D01*
X156633471Y-168983951D01*
X156607685Y-169048888D01*
X156563130Y-169080804D01*
X156454622Y-169080804D01*
X156456869Y-169079194D01*
X156420497Y-169058331D01*
X156388307Y-168996318D01*
X156386529Y-168983951D01*
X156385849Y-168976613D01*
X156375756Y-168867690D01*
X156317405Y-168662611D01*
X156317403Y-168662606D01*
X156317403Y-168662605D01*
X156222367Y-168471746D01*
X156093872Y-168301593D01*
X155936302Y-168157948D01*
X155755019Y-168045702D01*
X155755017Y-168045701D01*
X155655608Y-168007190D01*
X155556198Y-167968679D01*
X155346610Y-167929500D01*
X155133390Y-167929500D01*
X154923802Y-167968679D01*
X154923799Y-167968679D01*
X154923799Y-167968680D01*
X154724982Y-168045701D01*
X154724980Y-168045702D01*
X154543699Y-168157947D01*
X154386127Y-168301593D01*
X154257632Y-168471746D01*
X154162596Y-168662605D01*
X154162596Y-168662607D01*
X154104244Y-168867689D01*
X154093471Y-168983951D01*
X154067685Y-169048888D01*
X154023130Y-169080804D01*
X153914622Y-169080804D01*
X153916869Y-169079194D01*
X153880497Y-169058331D01*
X153848307Y-168996318D01*
X153846529Y-168983951D01*
X153845849Y-168976613D01*
X153835756Y-168867690D01*
X153777405Y-168662611D01*
X153777403Y-168662606D01*
X153777403Y-168662605D01*
X153682367Y-168471746D01*
X153553872Y-168301593D01*
X153396302Y-168157948D01*
X153215019Y-168045702D01*
X153215017Y-168045701D01*
X153115608Y-168007190D01*
X153016198Y-167968679D01*
X152806610Y-167929500D01*
X152593390Y-167929500D01*
X152383802Y-167968679D01*
X152383799Y-167968679D01*
X152383799Y-167968680D01*
X152184982Y-168045701D01*
X152184980Y-168045702D01*
X152003699Y-168157947D01*
X151846127Y-168301593D01*
X151717632Y-168471746D01*
X151622596Y-168662605D01*
X151622596Y-168662607D01*
X151564244Y-168867689D01*
X151544571Y-169079999D01*
X151544571Y-169080000D01*
X148775429Y-169080000D01*
X148755756Y-168867690D01*
X148697405Y-168662611D01*
X148697403Y-168662606D01*
X148697403Y-168662605D01*
X148602367Y-168471746D01*
X148473872Y-168301593D01*
X148316302Y-168157948D01*
X148135019Y-168045702D01*
X148135017Y-168045701D01*
X148035608Y-168007190D01*
X147936198Y-167968679D01*
X147726610Y-167929500D01*
X147513390Y-167929500D01*
X147303802Y-167968679D01*
X147303799Y-167968679D01*
X147303799Y-167968680D01*
X147104982Y-168045701D01*
X147104980Y-168045702D01*
X146923699Y-168157947D01*
X146766127Y-168301593D01*
X146637632Y-168471746D01*
X146542596Y-168662605D01*
X146542596Y-168662607D01*
X146484244Y-168867689D01*
X146473471Y-168983951D01*
X146447685Y-169048888D01*
X146403130Y-169080804D01*
X146294622Y-169080804D01*
X146296869Y-169079194D01*
X146260497Y-169058331D01*
X146228307Y-168996318D01*
X146226529Y-168983951D01*
X146225849Y-168976613D01*
X146215756Y-168867690D01*
X146157405Y-168662611D01*
X146157403Y-168662606D01*
X146157403Y-168662605D01*
X146062367Y-168471746D01*
X145933872Y-168301593D01*
X145776302Y-168157948D01*
X145595019Y-168045702D01*
X145595017Y-168045701D01*
X145495608Y-168007190D01*
X145396198Y-167968679D01*
X145186610Y-167929500D01*
X144973390Y-167929500D01*
X144763802Y-167968679D01*
X144763799Y-167968679D01*
X144763799Y-167968680D01*
X144564982Y-168045701D01*
X144564980Y-168045702D01*
X144383699Y-168157947D01*
X144226127Y-168301593D01*
X144097632Y-168471746D01*
X144002596Y-168662605D01*
X144002596Y-168662607D01*
X143944244Y-168867689D01*
X143933471Y-168983951D01*
X143907685Y-169048888D01*
X143863130Y-169080804D01*
X143754622Y-169080804D01*
X143756869Y-169079194D01*
X143720497Y-169058331D01*
X143688307Y-168996318D01*
X143686529Y-168983951D01*
X143685849Y-168976613D01*
X143675756Y-168867690D01*
X143617405Y-168662611D01*
X143617403Y-168662606D01*
X143617403Y-168662605D01*
X143522367Y-168471746D01*
X143393872Y-168301593D01*
X143236302Y-168157948D01*
X143055019Y-168045702D01*
X143055017Y-168045701D01*
X142955608Y-168007190D01*
X142856198Y-167968679D01*
X142646610Y-167929500D01*
X142433390Y-167929500D01*
X142223802Y-167968679D01*
X142223799Y-167968679D01*
X142223799Y-167968680D01*
X142024982Y-168045701D01*
X142024980Y-168045702D01*
X141843699Y-168157947D01*
X141686127Y-168301593D01*
X141557632Y-168471746D01*
X141462596Y-168662605D01*
X141462596Y-168662607D01*
X141404244Y-168867689D01*
X141393471Y-168983951D01*
X141367685Y-169048888D01*
X141323130Y-169080804D01*
X141214622Y-169080804D01*
X141216869Y-169079194D01*
X141180497Y-169058331D01*
X141148307Y-168996318D01*
X141146529Y-168983951D01*
X141145849Y-168976613D01*
X141135756Y-168867690D01*
X141077405Y-168662611D01*
X141077403Y-168662606D01*
X141077403Y-168662605D01*
X140982367Y-168471746D01*
X140853872Y-168301593D01*
X140696302Y-168157948D01*
X140515019Y-168045702D01*
X140515017Y-168045701D01*
X140415608Y-168007190D01*
X140316198Y-167968679D01*
X140106610Y-167929500D01*
X139893390Y-167929500D01*
X139683802Y-167968679D01*
X139683799Y-167968679D01*
X139683799Y-167968680D01*
X139484982Y-168045701D01*
X139484980Y-168045702D01*
X139303699Y-168157947D01*
X139146127Y-168301593D01*
X139017632Y-168471746D01*
X138922596Y-168662605D01*
X138922596Y-168662607D01*
X138864244Y-168867689D01*
X138844571Y-169079999D01*
X138844571Y-169080000D01*
X137500000Y-169080000D01*
X137500000Y-164894856D01*
X138849500Y-164894856D01*
X138849502Y-164894882D01*
X138852413Y-164919987D01*
X138852415Y-164919991D01*
X138897793Y-165022764D01*
X138897794Y-165022765D01*
X138977235Y-165102206D01*
X139080009Y-165147585D01*
X139105135Y-165150500D01*
X140894864Y-165150499D01*
X140894879Y-165150497D01*
X140894882Y-165150497D01*
X140919987Y-165147586D01*
X140919988Y-165147585D01*
X140919991Y-165147585D01*
X141022765Y-165102206D01*
X141102206Y-165022765D01*
X141147585Y-164919991D01*
X141150500Y-164894865D01*
X141150499Y-164156046D01*
X141170183Y-164089009D01*
X141222987Y-164043254D01*
X141292146Y-164033310D01*
X141355702Y-164062335D01*
X141393476Y-164121113D01*
X141397970Y-164144606D01*
X141404244Y-164212310D01*
X141462596Y-164417392D01*
X141462596Y-164417394D01*
X141557632Y-164608253D01*
X141557634Y-164608255D01*
X141686128Y-164778407D01*
X141843698Y-164922052D01*
X142024981Y-165034298D01*
X142223802Y-165111321D01*
X142433390Y-165150500D01*
X142433392Y-165150500D01*
X142646608Y-165150500D01*
X142646610Y-165150500D01*
X142856198Y-165111321D01*
X143055019Y-165034298D01*
X143236302Y-164922052D01*
X143393872Y-164778407D01*
X143522366Y-164608255D01*
X143617405Y-164417389D01*
X143675756Y-164212310D01*
X143686529Y-164096047D01*
X143712315Y-164031111D01*
X143754622Y-164000804D01*
X143863130Y-164000804D01*
X143899503Y-164021668D01*
X143931693Y-164083681D01*
X143933471Y-164096048D01*
X143944244Y-164212310D01*
X144002596Y-164417392D01*
X144002596Y-164417394D01*
X144097632Y-164608253D01*
X144097634Y-164608255D01*
X144226128Y-164778407D01*
X144383698Y-164922052D01*
X144564981Y-165034298D01*
X144763802Y-165111321D01*
X144973390Y-165150500D01*
X144973392Y-165150500D01*
X145186608Y-165150500D01*
X145186610Y-165150500D01*
X145396198Y-165111321D01*
X145595019Y-165034298D01*
X145776302Y-164922052D01*
X145933872Y-164778407D01*
X146062366Y-164608255D01*
X146157405Y-164417389D01*
X146215756Y-164212310D01*
X146226529Y-164096047D01*
X146252315Y-164031111D01*
X146294622Y-164000804D01*
X146403130Y-164000804D01*
X146439503Y-164021668D01*
X146471693Y-164083681D01*
X146473471Y-164096048D01*
X146484244Y-164212310D01*
X146542596Y-164417392D01*
X146542596Y-164417394D01*
X146637632Y-164608253D01*
X146637634Y-164608255D01*
X146766128Y-164778407D01*
X146923698Y-164922052D01*
X147104981Y-165034298D01*
X147303802Y-165111321D01*
X147513390Y-165150500D01*
X147513392Y-165150500D01*
X147726608Y-165150500D01*
X147726610Y-165150500D01*
X147936198Y-165111321D01*
X148135019Y-165034298D01*
X148316302Y-164922052D01*
X148346134Y-164894856D01*
X151549500Y-164894856D01*
X151549502Y-164894882D01*
X151552413Y-164919987D01*
X151552415Y-164919991D01*
X151597793Y-165022764D01*
X151597794Y-165022765D01*
X151677235Y-165102206D01*
X151780009Y-165147585D01*
X151805135Y-165150500D01*
X153594864Y-165150499D01*
X153594879Y-165150497D01*
X153594882Y-165150497D01*
X153619987Y-165147586D01*
X153619988Y-165147585D01*
X153619991Y-165147585D01*
X153722765Y-165102206D01*
X153802206Y-165022765D01*
X153847585Y-164919991D01*
X153850500Y-164894865D01*
X153850499Y-164156046D01*
X153870183Y-164089009D01*
X153922987Y-164043254D01*
X153992146Y-164033310D01*
X154055702Y-164062335D01*
X154093476Y-164121113D01*
X154097970Y-164144606D01*
X154104244Y-164212310D01*
X154162596Y-164417392D01*
X154162596Y-164417394D01*
X154257632Y-164608253D01*
X154257634Y-164608255D01*
X154386128Y-164778407D01*
X154543698Y-164922052D01*
X154724981Y-165034298D01*
X154923802Y-165111321D01*
X155133390Y-165150500D01*
X155133392Y-165150500D01*
X155346608Y-165150500D01*
X155346610Y-165150500D01*
X155556198Y-165111321D01*
X155755019Y-165034298D01*
X155936302Y-164922052D01*
X156093872Y-164778407D01*
X156222366Y-164608255D01*
X156317405Y-164417389D01*
X156375756Y-164212310D01*
X156386529Y-164096047D01*
X156412315Y-164031111D01*
X156454622Y-164000804D01*
X156563130Y-164000804D01*
X156599503Y-164021668D01*
X156631693Y-164083681D01*
X156633471Y-164096048D01*
X156644244Y-164212310D01*
X156702596Y-164417392D01*
X156702596Y-164417394D01*
X156797632Y-164608253D01*
X156797634Y-164608255D01*
X156926128Y-164778407D01*
X157083698Y-164922052D01*
X157264981Y-165034298D01*
X157463802Y-165111321D01*
X157673390Y-165150500D01*
X157673392Y-165150500D01*
X157886608Y-165150500D01*
X157886610Y-165150500D01*
X158096198Y-165111321D01*
X158295019Y-165034298D01*
X158476302Y-164922052D01*
X158633872Y-164778407D01*
X158762366Y-164608255D01*
X158857405Y-164417389D01*
X158915756Y-164212310D01*
X158926529Y-164096047D01*
X158952315Y-164031111D01*
X158994622Y-164000804D01*
X159103130Y-164000804D01*
X159139503Y-164021668D01*
X159171693Y-164083681D01*
X159173471Y-164096048D01*
X159184244Y-164212310D01*
X159242596Y-164417392D01*
X159242596Y-164417394D01*
X159337632Y-164608253D01*
X159337634Y-164608255D01*
X159466128Y-164778407D01*
X159623698Y-164922052D01*
X159804981Y-165034298D01*
X160003802Y-165111321D01*
X160213390Y-165150500D01*
X160213392Y-165150500D01*
X160426608Y-165150500D01*
X160426610Y-165150500D01*
X160636198Y-165111321D01*
X160835019Y-165034298D01*
X161016302Y-164922052D01*
X161046134Y-164894856D01*
X164249500Y-164894856D01*
X164249502Y-164894882D01*
X164252413Y-164919987D01*
X164252415Y-164919991D01*
X164297793Y-165022764D01*
X164297794Y-165022765D01*
X164377235Y-165102206D01*
X164480009Y-165147585D01*
X164505135Y-165150500D01*
X166294864Y-165150499D01*
X166294879Y-165150497D01*
X166294882Y-165150497D01*
X166319987Y-165147586D01*
X166319988Y-165147585D01*
X166319991Y-165147585D01*
X166422765Y-165102206D01*
X166502206Y-165022765D01*
X166547585Y-164919991D01*
X166550500Y-164894865D01*
X166550499Y-164156046D01*
X166570183Y-164089009D01*
X166622987Y-164043254D01*
X166692146Y-164033310D01*
X166755702Y-164062335D01*
X166793476Y-164121113D01*
X166797970Y-164144606D01*
X166804244Y-164212310D01*
X166862596Y-164417392D01*
X166862596Y-164417394D01*
X166957632Y-164608253D01*
X166957634Y-164608255D01*
X167086128Y-164778407D01*
X167243698Y-164922052D01*
X167424981Y-165034298D01*
X167623802Y-165111321D01*
X167833390Y-165150500D01*
X167833392Y-165150500D01*
X168046608Y-165150500D01*
X168046610Y-165150500D01*
X168256198Y-165111321D01*
X168455019Y-165034298D01*
X168636302Y-164922052D01*
X168793872Y-164778407D01*
X168922366Y-164608255D01*
X169017405Y-164417389D01*
X169075756Y-164212310D01*
X169086529Y-164096047D01*
X169112315Y-164031111D01*
X169154622Y-164000804D01*
X169263130Y-164000804D01*
X169299503Y-164021668D01*
X169331693Y-164083681D01*
X169333471Y-164096048D01*
X169344244Y-164212310D01*
X169402596Y-164417392D01*
X169402596Y-164417394D01*
X169497632Y-164608253D01*
X169497634Y-164608255D01*
X169626128Y-164778407D01*
X169783698Y-164922052D01*
X169964981Y-165034298D01*
X170163802Y-165111321D01*
X170373390Y-165150500D01*
X170373392Y-165150500D01*
X170586608Y-165150500D01*
X170586610Y-165150500D01*
X170796198Y-165111321D01*
X170995019Y-165034298D01*
X171176302Y-164922052D01*
X171333872Y-164778407D01*
X171462366Y-164608255D01*
X171557405Y-164417389D01*
X171615756Y-164212310D01*
X171626529Y-164096047D01*
X171652315Y-164031111D01*
X171694622Y-164000804D01*
X171803130Y-164000804D01*
X171839503Y-164021668D01*
X171871693Y-164083681D01*
X171873471Y-164096048D01*
X171884244Y-164212310D01*
X171942596Y-164417392D01*
X171942596Y-164417394D01*
X172037632Y-164608253D01*
X172037634Y-164608255D01*
X172166128Y-164778407D01*
X172323698Y-164922052D01*
X172504981Y-165034298D01*
X172703802Y-165111321D01*
X172913390Y-165150500D01*
X172913392Y-165150500D01*
X173126608Y-165150500D01*
X173126610Y-165150500D01*
X173336198Y-165111321D01*
X173535019Y-165034298D01*
X173716302Y-164922052D01*
X173746134Y-164894856D01*
X176949500Y-164894856D01*
X176949502Y-164894882D01*
X176952413Y-164919987D01*
X176952415Y-164919991D01*
X176997793Y-165022764D01*
X176997794Y-165022765D01*
X177077235Y-165102206D01*
X177180009Y-165147585D01*
X177205135Y-165150500D01*
X178994864Y-165150499D01*
X178994879Y-165150497D01*
X178994882Y-165150497D01*
X179019987Y-165147586D01*
X179019988Y-165147585D01*
X179019991Y-165147585D01*
X179122765Y-165102206D01*
X179202206Y-165022765D01*
X179247585Y-164919991D01*
X179250500Y-164894865D01*
X179250499Y-164156046D01*
X179270183Y-164089009D01*
X179322987Y-164043254D01*
X179392146Y-164033310D01*
X179455702Y-164062335D01*
X179493476Y-164121113D01*
X179497970Y-164144606D01*
X179504244Y-164212310D01*
X179562596Y-164417392D01*
X179562596Y-164417394D01*
X179657632Y-164608253D01*
X179657634Y-164608255D01*
X179786128Y-164778407D01*
X179943698Y-164922052D01*
X180124981Y-165034298D01*
X180323802Y-165111321D01*
X180533390Y-165150500D01*
X180533392Y-165150500D01*
X180746608Y-165150500D01*
X180746610Y-165150500D01*
X180956198Y-165111321D01*
X181155019Y-165034298D01*
X181336302Y-164922052D01*
X181493872Y-164778407D01*
X181622366Y-164608255D01*
X181717405Y-164417389D01*
X181775756Y-164212310D01*
X181786529Y-164096047D01*
X181812315Y-164031111D01*
X181854622Y-164000804D01*
X181963130Y-164000804D01*
X181999503Y-164021668D01*
X182031693Y-164083681D01*
X182033471Y-164096048D01*
X182044244Y-164212310D01*
X182102596Y-164417392D01*
X182102596Y-164417394D01*
X182197632Y-164608253D01*
X182197634Y-164608255D01*
X182326128Y-164778407D01*
X182483698Y-164922052D01*
X182664981Y-165034298D01*
X182863802Y-165111321D01*
X183073390Y-165150500D01*
X183073392Y-165150500D01*
X183286608Y-165150500D01*
X183286610Y-165150500D01*
X183496198Y-165111321D01*
X183695019Y-165034298D01*
X183876302Y-164922052D01*
X184033872Y-164778407D01*
X184162366Y-164608255D01*
X184257405Y-164417389D01*
X184315756Y-164212310D01*
X184326529Y-164096047D01*
X184352315Y-164031111D01*
X184394622Y-164000804D01*
X184503130Y-164000804D01*
X184539503Y-164021668D01*
X184571693Y-164083681D01*
X184573471Y-164096048D01*
X184584244Y-164212310D01*
X184642596Y-164417392D01*
X184642596Y-164417394D01*
X184737632Y-164608253D01*
X184737634Y-164608255D01*
X184866128Y-164778407D01*
X185023698Y-164922052D01*
X185204981Y-165034298D01*
X185403802Y-165111321D01*
X185613390Y-165150500D01*
X185613392Y-165150500D01*
X185826608Y-165150500D01*
X185826610Y-165150500D01*
X186036198Y-165111321D01*
X186235019Y-165034298D01*
X186416302Y-164922052D01*
X186573872Y-164778407D01*
X186702366Y-164608255D01*
X186797405Y-164417389D01*
X186855756Y-164212310D01*
X186875429Y-164000000D01*
X186855756Y-163787690D01*
X186797405Y-163582611D01*
X186797403Y-163582606D01*
X186797403Y-163582605D01*
X186702367Y-163391746D01*
X186573872Y-163221593D01*
X186446133Y-163105143D01*
X186416302Y-163077948D01*
X186235019Y-162965702D01*
X186235017Y-162965701D01*
X186135608Y-162927190D01*
X186036198Y-162888679D01*
X185826610Y-162849500D01*
X185613390Y-162849500D01*
X185403802Y-162888679D01*
X185403799Y-162888679D01*
X185403799Y-162888680D01*
X185204982Y-162965701D01*
X185204980Y-162965702D01*
X185023699Y-163077947D01*
X184866127Y-163221593D01*
X184737632Y-163391746D01*
X184642596Y-163582605D01*
X184642596Y-163582607D01*
X184584244Y-163787689D01*
X184573471Y-163903951D01*
X184547685Y-163968888D01*
X184503130Y-164000804D01*
X184394622Y-164000804D01*
X184396869Y-163999194D01*
X184360497Y-163978331D01*
X184328307Y-163916318D01*
X184326529Y-163903951D01*
X184323175Y-163867759D01*
X184315756Y-163787690D01*
X184257405Y-163582611D01*
X184257403Y-163582606D01*
X184257403Y-163582605D01*
X184162367Y-163391746D01*
X184033872Y-163221593D01*
X183906133Y-163105143D01*
X183876302Y-163077948D01*
X183695019Y-162965702D01*
X183695017Y-162965701D01*
X183595608Y-162927190D01*
X183496198Y-162888679D01*
X183286610Y-162849500D01*
X183073390Y-162849500D01*
X182863802Y-162888679D01*
X182863799Y-162888679D01*
X182863799Y-162888680D01*
X182664982Y-162965701D01*
X182664980Y-162965702D01*
X182483699Y-163077947D01*
X182326127Y-163221593D01*
X182197632Y-163391746D01*
X182102596Y-163582605D01*
X182102596Y-163582607D01*
X182044244Y-163787689D01*
X182033471Y-163903951D01*
X182007685Y-163968888D01*
X181963130Y-164000804D01*
X181854622Y-164000804D01*
X181856869Y-163999194D01*
X181820497Y-163978331D01*
X181788307Y-163916318D01*
X181786529Y-163903951D01*
X181783175Y-163867759D01*
X181775756Y-163787690D01*
X181717405Y-163582611D01*
X181717403Y-163582606D01*
X181717403Y-163582605D01*
X181622367Y-163391746D01*
X181493872Y-163221593D01*
X181366133Y-163105143D01*
X181336302Y-163077948D01*
X181155019Y-162965702D01*
X181155017Y-162965701D01*
X181055608Y-162927190D01*
X180956198Y-162888679D01*
X180746610Y-162849500D01*
X180533390Y-162849500D01*
X180323802Y-162888679D01*
X180323799Y-162888679D01*
X180323799Y-162888680D01*
X180124982Y-162965701D01*
X180124980Y-162965702D01*
X179943699Y-163077947D01*
X179786127Y-163221593D01*
X179657632Y-163391746D01*
X179562596Y-163582605D01*
X179562596Y-163582607D01*
X179504244Y-163787689D01*
X179497970Y-163855394D01*
X179472183Y-163920331D01*
X179415383Y-163961018D01*
X179345602Y-163964538D01*
X179284995Y-163929772D01*
X179252806Y-163867759D01*
X179250499Y-163843952D01*
X179250499Y-163105143D01*
X179250499Y-163105136D01*
X179250497Y-163105117D01*
X179247586Y-163080012D01*
X179247585Y-163080010D01*
X179247585Y-163080009D01*
X179202206Y-162977235D01*
X179122765Y-162897794D01*
X179102124Y-162888680D01*
X179019992Y-162852415D01*
X178994865Y-162849500D01*
X177205143Y-162849500D01*
X177205117Y-162849502D01*
X177180012Y-162852413D01*
X177180008Y-162852415D01*
X177077235Y-162897793D01*
X176997794Y-162977234D01*
X176952415Y-163080006D01*
X176952415Y-163080008D01*
X176949500Y-163105131D01*
X176949500Y-164894856D01*
X173746134Y-164894856D01*
X173873872Y-164778407D01*
X174002366Y-164608255D01*
X174097405Y-164417389D01*
X174155756Y-164212310D01*
X174175429Y-164000000D01*
X174155756Y-163787690D01*
X174097405Y-163582611D01*
X174097403Y-163582606D01*
X174097403Y-163582605D01*
X174002367Y-163391746D01*
X173873872Y-163221593D01*
X173746133Y-163105143D01*
X173716302Y-163077948D01*
X173535019Y-162965702D01*
X173535017Y-162965701D01*
X173435608Y-162927190D01*
X173336198Y-162888679D01*
X173126610Y-162849500D01*
X172913390Y-162849500D01*
X172703802Y-162888679D01*
X172703799Y-162888679D01*
X172703799Y-162888680D01*
X172504982Y-162965701D01*
X172504980Y-162965702D01*
X172323699Y-163077947D01*
X172166127Y-163221593D01*
X172037632Y-163391746D01*
X171942596Y-163582605D01*
X171942596Y-163582607D01*
X171884244Y-163787689D01*
X171873471Y-163903951D01*
X171847685Y-163968888D01*
X171803130Y-164000804D01*
X171694622Y-164000804D01*
X171696869Y-163999194D01*
X171660497Y-163978331D01*
X171628307Y-163916318D01*
X171626529Y-163903951D01*
X171623175Y-163867759D01*
X171615756Y-163787690D01*
X171557405Y-163582611D01*
X171557403Y-163582606D01*
X171557403Y-163582605D01*
X171462367Y-163391746D01*
X171333872Y-163221593D01*
X171206133Y-163105143D01*
X171176302Y-163077948D01*
X170995019Y-162965702D01*
X170995017Y-162965701D01*
X170895608Y-162927190D01*
X170796198Y-162888679D01*
X170586610Y-162849500D01*
X170373390Y-162849500D01*
X170163802Y-162888679D01*
X170163799Y-162888679D01*
X170163799Y-162888680D01*
X169964982Y-162965701D01*
X169964980Y-162965702D01*
X169783699Y-163077947D01*
X169626127Y-163221593D01*
X169497632Y-163391746D01*
X169402596Y-163582605D01*
X169402596Y-163582607D01*
X169344244Y-163787689D01*
X169333471Y-163903951D01*
X169307685Y-163968888D01*
X169263130Y-164000804D01*
X169154622Y-164000804D01*
X169156869Y-163999194D01*
X169120497Y-163978331D01*
X169088307Y-163916318D01*
X169086529Y-163903951D01*
X169083175Y-163867759D01*
X169075756Y-163787690D01*
X169017405Y-163582611D01*
X169017403Y-163582606D01*
X169017403Y-163582605D01*
X168922367Y-163391746D01*
X168793872Y-163221593D01*
X168666133Y-163105143D01*
X168636302Y-163077948D01*
X168455019Y-162965702D01*
X168455017Y-162965701D01*
X168355608Y-162927190D01*
X168256198Y-162888679D01*
X168046610Y-162849500D01*
X167833390Y-162849500D01*
X167623802Y-162888679D01*
X167623799Y-162888679D01*
X167623799Y-162888680D01*
X167424982Y-162965701D01*
X167424980Y-162965702D01*
X167243699Y-163077947D01*
X167086127Y-163221593D01*
X166957632Y-163391746D01*
X166862596Y-163582605D01*
X166862596Y-163582607D01*
X166804244Y-163787689D01*
X166797970Y-163855394D01*
X166772183Y-163920331D01*
X166715383Y-163961018D01*
X166645602Y-163964538D01*
X166584995Y-163929772D01*
X166552806Y-163867759D01*
X166550499Y-163843952D01*
X166550499Y-163105143D01*
X166550499Y-163105136D01*
X166550497Y-163105117D01*
X166547586Y-163080012D01*
X166547585Y-163080010D01*
X166547585Y-163080009D01*
X166502206Y-162977235D01*
X166422765Y-162897794D01*
X166402124Y-162888680D01*
X166319992Y-162852415D01*
X166294865Y-162849500D01*
X164505143Y-162849500D01*
X164505117Y-162849502D01*
X164480012Y-162852413D01*
X164480008Y-162852415D01*
X164377235Y-162897793D01*
X164297794Y-162977234D01*
X164252415Y-163080006D01*
X164252415Y-163080008D01*
X164249500Y-163105131D01*
X164249500Y-164894856D01*
X161046134Y-164894856D01*
X161173872Y-164778407D01*
X161302366Y-164608255D01*
X161397405Y-164417389D01*
X161455756Y-164212310D01*
X161475429Y-164000000D01*
X161455756Y-163787690D01*
X161397405Y-163582611D01*
X161397403Y-163582606D01*
X161397403Y-163582605D01*
X161302367Y-163391746D01*
X161173872Y-163221593D01*
X161046133Y-163105143D01*
X161016302Y-163077948D01*
X160835019Y-162965702D01*
X160835017Y-162965701D01*
X160735608Y-162927190D01*
X160636198Y-162888679D01*
X160426610Y-162849500D01*
X160213390Y-162849500D01*
X160003802Y-162888679D01*
X160003799Y-162888679D01*
X160003799Y-162888680D01*
X159804982Y-162965701D01*
X159804980Y-162965702D01*
X159623699Y-163077947D01*
X159466127Y-163221593D01*
X159337632Y-163391746D01*
X159242596Y-163582605D01*
X159242596Y-163582607D01*
X159184244Y-163787689D01*
X159173471Y-163903951D01*
X159147685Y-163968888D01*
X159103130Y-164000804D01*
X158994622Y-164000804D01*
X158996869Y-163999194D01*
X158960497Y-163978331D01*
X158928307Y-163916318D01*
X158926529Y-163903951D01*
X158923175Y-163867759D01*
X158915756Y-163787690D01*
X158857405Y-163582611D01*
X158857403Y-163582606D01*
X158857403Y-163582605D01*
X158762367Y-163391746D01*
X158633872Y-163221593D01*
X158506133Y-163105143D01*
X158476302Y-163077948D01*
X158295019Y-162965702D01*
X158295017Y-162965701D01*
X158195608Y-162927190D01*
X158096198Y-162888679D01*
X157886610Y-162849500D01*
X157673390Y-162849500D01*
X157463802Y-162888679D01*
X157463799Y-162888679D01*
X157463799Y-162888680D01*
X157264982Y-162965701D01*
X157264980Y-162965702D01*
X157083699Y-163077947D01*
X156926127Y-163221593D01*
X156797632Y-163391746D01*
X156702596Y-163582605D01*
X156702596Y-163582607D01*
X156644244Y-163787689D01*
X156633471Y-163903951D01*
X156607685Y-163968888D01*
X156563130Y-164000804D01*
X156454622Y-164000804D01*
X156456869Y-163999194D01*
X156420497Y-163978331D01*
X156388307Y-163916318D01*
X156386529Y-163903951D01*
X156383175Y-163867759D01*
X156375756Y-163787690D01*
X156317405Y-163582611D01*
X156317403Y-163582606D01*
X156317403Y-163582605D01*
X156222367Y-163391746D01*
X156093872Y-163221593D01*
X155966133Y-163105143D01*
X155936302Y-163077948D01*
X155755019Y-162965702D01*
X155755017Y-162965701D01*
X155655608Y-162927190D01*
X155556198Y-162888679D01*
X155346610Y-162849500D01*
X155133390Y-162849500D01*
X154923802Y-162888679D01*
X154923799Y-162888679D01*
X154923799Y-162888680D01*
X154724982Y-162965701D01*
X154724980Y-162965702D01*
X154543699Y-163077947D01*
X154386127Y-163221593D01*
X154257632Y-163391746D01*
X154162596Y-163582605D01*
X154162596Y-163582607D01*
X154104244Y-163787689D01*
X154097970Y-163855394D01*
X154072183Y-163920331D01*
X154015383Y-163961018D01*
X153945602Y-163964538D01*
X153884995Y-163929772D01*
X153852806Y-163867759D01*
X153850499Y-163843952D01*
X153850499Y-163105143D01*
X153850499Y-163105136D01*
X153850497Y-163105117D01*
X153847586Y-163080012D01*
X153847585Y-163080010D01*
X153847585Y-163080009D01*
X153802206Y-162977235D01*
X153722765Y-162897794D01*
X153702124Y-162888680D01*
X153619992Y-162852415D01*
X153594865Y-162849500D01*
X151805143Y-162849500D01*
X151805117Y-162849502D01*
X151780012Y-162852413D01*
X151780008Y-162852415D01*
X151677235Y-162897793D01*
X151597794Y-162977234D01*
X151552415Y-163080006D01*
X151552415Y-163080008D01*
X151549500Y-163105131D01*
X151549500Y-164894856D01*
X148346134Y-164894856D01*
X148473872Y-164778407D01*
X148602366Y-164608255D01*
X148697405Y-164417389D01*
X148755756Y-164212310D01*
X148775429Y-164000000D01*
X148755756Y-163787690D01*
X148697405Y-163582611D01*
X148697403Y-163582606D01*
X148697403Y-163582605D01*
X148602367Y-163391746D01*
X148473872Y-163221593D01*
X148346133Y-163105143D01*
X148316302Y-163077948D01*
X148135019Y-162965702D01*
X148135017Y-162965701D01*
X148035608Y-162927190D01*
X147936198Y-162888679D01*
X147726610Y-162849500D01*
X147513390Y-162849500D01*
X147303802Y-162888679D01*
X147303799Y-162888679D01*
X147303799Y-162888680D01*
X147104982Y-162965701D01*
X147104980Y-162965702D01*
X146923699Y-163077947D01*
X146766127Y-163221593D01*
X146637632Y-163391746D01*
X146542596Y-163582605D01*
X146542596Y-163582607D01*
X146484244Y-163787689D01*
X146473471Y-163903951D01*
X146447685Y-163968888D01*
X146403130Y-164000804D01*
X146294622Y-164000804D01*
X146296869Y-163999194D01*
X146260497Y-163978331D01*
X146228307Y-163916318D01*
X146226529Y-163903951D01*
X146223175Y-163867759D01*
X146215756Y-163787690D01*
X146157405Y-163582611D01*
X146157403Y-163582606D01*
X146157403Y-163582605D01*
X146062367Y-163391746D01*
X145933872Y-163221593D01*
X145806133Y-163105143D01*
X145776302Y-163077948D01*
X145595019Y-162965702D01*
X145595017Y-162965701D01*
X145495608Y-162927190D01*
X145396198Y-162888679D01*
X145186610Y-162849500D01*
X144973390Y-162849500D01*
X144763802Y-162888679D01*
X144763799Y-162888679D01*
X144763799Y-162888680D01*
X144564982Y-162965701D01*
X144564980Y-162965702D01*
X144383699Y-163077947D01*
X144226127Y-163221593D01*
X144097632Y-163391746D01*
X144002596Y-163582605D01*
X144002596Y-163582607D01*
X143944244Y-163787689D01*
X143933471Y-163903951D01*
X143907685Y-163968888D01*
X143863130Y-164000804D01*
X143754622Y-164000804D01*
X143756869Y-163999194D01*
X143720497Y-163978331D01*
X143688307Y-163916318D01*
X143686529Y-163903951D01*
X143683175Y-163867759D01*
X143675756Y-163787690D01*
X143617405Y-163582611D01*
X143617403Y-163582606D01*
X143617403Y-163582605D01*
X143522367Y-163391746D01*
X143393872Y-163221593D01*
X143266133Y-163105143D01*
X143236302Y-163077948D01*
X143055019Y-162965702D01*
X143055017Y-162965701D01*
X142955608Y-162927190D01*
X142856198Y-162888679D01*
X142646610Y-162849500D01*
X142433390Y-162849500D01*
X142223802Y-162888679D01*
X142223799Y-162888679D01*
X142223799Y-162888680D01*
X142024982Y-162965701D01*
X142024980Y-162965702D01*
X141843699Y-163077947D01*
X141686127Y-163221593D01*
X141557632Y-163391746D01*
X141462596Y-163582605D01*
X141462596Y-163582607D01*
X141404244Y-163787689D01*
X141397970Y-163855394D01*
X141372183Y-163920331D01*
X141315383Y-163961018D01*
X141245602Y-163964538D01*
X141184995Y-163929772D01*
X141152806Y-163867759D01*
X141150499Y-163843952D01*
X141150499Y-163105143D01*
X141150499Y-163105136D01*
X141150497Y-163105117D01*
X141147586Y-163080012D01*
X141147585Y-163080010D01*
X141147585Y-163080009D01*
X141102206Y-162977235D01*
X141022765Y-162897794D01*
X141002124Y-162888680D01*
X140919992Y-162852415D01*
X140894865Y-162849500D01*
X139105143Y-162849500D01*
X139105117Y-162849502D01*
X139080012Y-162852413D01*
X139080008Y-162852415D01*
X138977235Y-162897793D01*
X138897794Y-162977234D01*
X138852415Y-163080006D01*
X138852415Y-163080008D01*
X138849500Y-163105131D01*
X138849500Y-164894856D01*
X137500000Y-164894856D01*
X137500000Y-153624000D01*
X137519685Y-153556961D01*
X137572489Y-153511206D01*
X137624000Y-153500000D01*
X177278585Y-153500000D01*
X177308259Y-153503603D01*
G37*
%TD.AperFunction*%
%TD*%
%TA.AperFunction,Conductor*%
%TO.N,GND*%
G36*
X178694541Y-190581085D02*
G01*
X178740296Y-190633889D01*
X178751120Y-190695129D01*
X178750000Y-190709352D01*
X178750000Y-191200000D01*
X179628164Y-191200000D01*
X179563481Y-191300649D01*
X179525000Y-191431705D01*
X179525000Y-191568295D01*
X179563481Y-191699351D01*
X179628164Y-191800000D01*
X178750000Y-191800000D01*
X178750000Y-192290657D01*
X178750474Y-192296665D01*
X178736114Y-192365043D01*
X178687065Y-192414802D01*
X178626857Y-192430400D01*
X172582515Y-192430400D01*
X172515476Y-192410715D01*
X172469721Y-192357911D01*
X172459777Y-192288753D01*
X172480556Y-192238881D01*
X172479347Y-192238132D01*
X172482365Y-192233256D01*
X172482364Y-192233256D01*
X172482366Y-192233255D01*
X172534141Y-192129275D01*
X172577403Y-192042394D01*
X172577403Y-192042393D01*
X172577405Y-192042389D01*
X172635756Y-191837310D01*
X172650500Y-191678194D01*
X172650500Y-191321806D01*
X172635756Y-191162690D01*
X172577405Y-190957611D01*
X172577403Y-190957606D01*
X172577403Y-190957605D01*
X172482366Y-190766744D01*
X172477370Y-190760129D01*
X172452676Y-190694769D01*
X172467240Y-190626433D01*
X172516436Y-190576820D01*
X172576322Y-190561400D01*
X178627502Y-190561400D01*
X178694541Y-190581085D01*
G37*
%TD.AperFunction*%
%TA.AperFunction,Conductor*%
G36*
X194301866Y-113499854D02*
G01*
X194457611Y-113577405D01*
X194457616Y-113577406D01*
X194462950Y-113579473D01*
X194462416Y-113580850D01*
X194515511Y-113614338D01*
X194545075Y-113677645D01*
X194545712Y-113710211D01*
X194544729Y-113718934D01*
X194544729Y-113718935D01*
X194555355Y-113775096D01*
X194556132Y-113779665D01*
X194564652Y-113836191D01*
X194567162Y-113844327D01*
X194569976Y-113852370D01*
X194596688Y-113902911D01*
X194598776Y-113907049D01*
X194623574Y-113958541D01*
X194628362Y-113965565D01*
X194633431Y-113972432D01*
X194633434Y-113972438D01*
X194633438Y-113972442D01*
X194673846Y-114012850D01*
X194677063Y-114016189D01*
X194715947Y-114058096D01*
X194723210Y-114063888D01*
X194722689Y-114064541D01*
X194734930Y-114073934D01*
X195857481Y-115196484D01*
X195890966Y-115257807D01*
X195893800Y-115284165D01*
X195893800Y-117626000D01*
X195874115Y-117693039D01*
X195821311Y-117738794D01*
X195769800Y-117750000D01*
X195300000Y-117750000D01*
X195300000Y-118631435D01*
X195259445Y-118596295D01*
X195135199Y-118539554D01*
X195033975Y-118525000D01*
X194966025Y-118525000D01*
X194864801Y-118539554D01*
X194740555Y-118596295D01*
X194700000Y-118631435D01*
X194700000Y-117750000D01*
X194246600Y-117750000D01*
X194179561Y-117730315D01*
X194133806Y-117677511D01*
X194122600Y-117626000D01*
X194122600Y-113610856D01*
X194142285Y-113543817D01*
X194195089Y-113498062D01*
X194264247Y-113488118D01*
X194301866Y-113499854D01*
G37*
%TD.AperFunction*%
%TA.AperFunction,Conductor*%
G36*
X199543039Y-100419685D02*
G01*
X199588794Y-100472489D01*
X199600000Y-100524000D01*
X199600000Y-153070500D01*
X199580315Y-153137539D01*
X199527511Y-153183294D01*
X199476000Y-153194500D01*
X182619125Y-153194500D01*
X182552086Y-153174815D01*
X182506331Y-153122011D01*
X182496387Y-153052853D01*
X182525412Y-152989297D01*
X182561498Y-152960704D01*
X182562668Y-152960089D01*
X182569540Y-152956483D01*
X182687783Y-152851730D01*
X182777520Y-152721723D01*
X182833537Y-152574018D01*
X182852578Y-152417200D01*
X182850071Y-152396548D01*
X182833537Y-152260381D01*
X182812292Y-152204364D01*
X182777520Y-152112677D01*
X182687783Y-151982670D01*
X182687779Y-151982666D01*
X182682809Y-151977056D01*
X182684253Y-151975776D01*
X182652445Y-151925060D01*
X182647800Y-151891440D01*
X182647800Y-146478261D01*
X182648580Y-146464376D01*
X182652570Y-146428966D01*
X182652570Y-146428965D01*
X182641933Y-146372753D01*
X182641164Y-146368219D01*
X182632648Y-146311715D01*
X182632648Y-146311713D01*
X182632646Y-146311709D01*
X182630136Y-146303571D01*
X182627324Y-146295534D01*
X182627323Y-146295528D01*
X182600585Y-146244941D01*
X182598523Y-146240854D01*
X182573725Y-146189358D01*
X182573723Y-146189356D01*
X182573723Y-146189355D01*
X182568942Y-146182342D01*
X182563866Y-146175465D01*
X182563865Y-146175462D01*
X182523465Y-146135062D01*
X182520247Y-146131721D01*
X182481360Y-146089809D01*
X182474092Y-146084014D01*
X182474612Y-146083361D01*
X182462367Y-146073964D01*
X164497568Y-128109165D01*
X164488302Y-128098797D01*
X164466079Y-128070930D01*
X164466078Y-128070929D01*
X164466077Y-128070928D01*
X164440550Y-128053524D01*
X164418833Y-128038718D01*
X164415069Y-128036047D01*
X164369086Y-128002109D01*
X164361497Y-127998098D01*
X164353875Y-127994428D01*
X164299249Y-127977579D01*
X164294844Y-127976130D01*
X164240895Y-127957252D01*
X164232526Y-127955668D01*
X164224104Y-127954400D01*
X164224102Y-127954400D01*
X164166938Y-127954400D01*
X164162301Y-127954313D01*
X164160285Y-127954237D01*
X164105189Y-127952175D01*
X164095956Y-127953216D01*
X164095862Y-127952386D01*
X164080564Y-127954400D01*
X162297162Y-127954400D01*
X162283279Y-127953620D01*
X162278270Y-127953055D01*
X162247863Y-127949629D01*
X162191710Y-127960254D01*
X162187141Y-127961031D01*
X162130615Y-127969551D01*
X162122458Y-127972067D01*
X162114431Y-127974876D01*
X162114428Y-127974877D01*
X162114424Y-127974878D01*
X162114424Y-127974879D01*
X162063864Y-128001599D01*
X162059730Y-128003686D01*
X162008259Y-128028474D01*
X162001210Y-128033279D01*
X161994358Y-128038336D01*
X161953946Y-128078748D01*
X161950609Y-128081963D01*
X161908708Y-128120842D01*
X161902915Y-128128107D01*
X161902263Y-128127587D01*
X161892869Y-128139825D01*
X160371416Y-129661281D01*
X160310093Y-129694766D01*
X160283735Y-129697600D01*
X156623383Y-129697600D01*
X156556344Y-129677915D01*
X156541156Y-129666416D01*
X156535360Y-129661281D01*
X156476140Y-129608817D01*
X156476138Y-129608816D01*
X156476137Y-129608815D01*
X156336265Y-129535403D01*
X156182886Y-129497600D01*
X156182885Y-129497600D01*
X156024915Y-129497600D01*
X156024914Y-129497600D01*
X155871534Y-129535403D01*
X155731662Y-129608815D01*
X155613416Y-129713571D01*
X155523681Y-129843575D01*
X155523680Y-129843576D01*
X155467662Y-129991281D01*
X155448622Y-130148099D01*
X155448622Y-130148100D01*
X155467662Y-130304918D01*
X155523680Y-130452623D01*
X155613417Y-130582630D01*
X155731660Y-130687383D01*
X155731662Y-130687384D01*
X155871534Y-130760796D01*
X156024914Y-130798600D01*
X156024915Y-130798600D01*
X156182885Y-130798600D01*
X156336265Y-130760796D01*
X156476140Y-130687383D01*
X156541156Y-130629783D01*
X156604390Y-130600063D01*
X156623383Y-130598600D01*
X160489438Y-130598600D01*
X160503320Y-130599379D01*
X160509384Y-130600063D01*
X160538733Y-130603370D01*
X160538733Y-130603369D01*
X160538735Y-130603370D01*
X160594936Y-130592735D01*
X160599426Y-130591972D01*
X160655987Y-130583448D01*
X160655991Y-130583445D01*
X160664147Y-130580930D01*
X160672169Y-130578124D01*
X160672170Y-130578123D01*
X160672172Y-130578123D01*
X160722788Y-130551370D01*
X160726793Y-130549348D01*
X160778342Y-130524525D01*
X160778343Y-130524523D01*
X160778345Y-130524523D01*
X160785395Y-130519716D01*
X160792234Y-130514667D01*
X160792238Y-130514666D01*
X160832674Y-130474228D01*
X160835960Y-130471062D01*
X160877894Y-130432155D01*
X160877896Y-130432150D01*
X160883687Y-130424890D01*
X160884343Y-130425413D01*
X160893732Y-130413170D01*
X162415184Y-128891719D01*
X162476507Y-128858234D01*
X162502865Y-128855400D01*
X163918234Y-128855400D01*
X163985273Y-128875085D01*
X164005915Y-128891719D01*
X181710481Y-146596284D01*
X181743966Y-146657607D01*
X181746800Y-146683965D01*
X181746800Y-151891440D01*
X181727115Y-151958479D01*
X181711453Y-151976756D01*
X181711791Y-151977056D01*
X181706815Y-151982672D01*
X181617081Y-152112675D01*
X181617080Y-152112676D01*
X181561062Y-152260381D01*
X181542022Y-152417199D01*
X181542022Y-152417200D01*
X181561062Y-152574018D01*
X181612513Y-152709681D01*
X181617080Y-152721723D01*
X181706817Y-152851730D01*
X181825060Y-152956483D01*
X181831057Y-152959630D01*
X181833102Y-152960704D01*
X181883314Y-153009290D01*
X181899288Y-153077309D01*
X181875952Y-153143166D01*
X181820715Y-153185953D01*
X181775475Y-153194500D01*
X178192562Y-153194500D01*
X178125523Y-153174815D01*
X178079768Y-153122011D01*
X178069824Y-153052853D01*
X178076618Y-153026533D01*
X178077837Y-153023318D01*
X178096878Y-152866500D01*
X178096878Y-152866499D01*
X178077837Y-152709681D01*
X178056592Y-152653664D01*
X178021820Y-152561977D01*
X177932083Y-152431970D01*
X177932079Y-152431966D01*
X177927109Y-152426356D01*
X177928553Y-152425076D01*
X177896745Y-152374360D01*
X177892100Y-152340740D01*
X177892100Y-147339961D01*
X177892880Y-147326076D01*
X177896870Y-147290666D01*
X177896870Y-147290665D01*
X177886233Y-147234453D01*
X177885464Y-147229919D01*
X177876948Y-147173415D01*
X177876948Y-147173413D01*
X177876946Y-147173409D01*
X177874436Y-147165271D01*
X177871624Y-147157234D01*
X177871623Y-147157228D01*
X177844885Y-147106641D01*
X177842823Y-147102554D01*
X177818025Y-147051058D01*
X177818023Y-147051056D01*
X177818023Y-147051055D01*
X177813242Y-147044042D01*
X177808166Y-147037165D01*
X177808165Y-147037162D01*
X177767765Y-146996762D01*
X177764547Y-146993421D01*
X177725660Y-146951509D01*
X177718392Y-146945714D01*
X177718912Y-146945061D01*
X177706667Y-146935664D01*
X162047768Y-131276765D01*
X162038502Y-131266397D01*
X162020782Y-131244177D01*
X162016279Y-131238530D01*
X162016278Y-131238529D01*
X162016277Y-131238528D01*
X161990750Y-131221124D01*
X161969033Y-131206318D01*
X161965269Y-131203647D01*
X161919286Y-131169709D01*
X161911697Y-131165698D01*
X161904075Y-131162028D01*
X161849449Y-131145179D01*
X161845044Y-131143730D01*
X161791095Y-131124852D01*
X161782726Y-131123268D01*
X161774304Y-131122000D01*
X161774302Y-131122000D01*
X161717138Y-131122000D01*
X161712501Y-131121913D01*
X161710485Y-131121837D01*
X161655389Y-131119775D01*
X161646156Y-131120816D01*
X161646062Y-131119986D01*
X161630764Y-131122000D01*
X160869783Y-131122000D01*
X160802744Y-131102315D01*
X160787556Y-131090816D01*
X160722540Y-131033217D01*
X160722538Y-131033216D01*
X160722537Y-131033215D01*
X160582665Y-130959803D01*
X160429286Y-130922000D01*
X160429285Y-130922000D01*
X160271315Y-130922000D01*
X160271314Y-130922000D01*
X160117934Y-130959803D01*
X159978062Y-131033215D01*
X159859816Y-131137971D01*
X159770081Y-131267975D01*
X159770080Y-131267976D01*
X159714062Y-131415681D01*
X159695022Y-131572499D01*
X159695022Y-131572500D01*
X159714062Y-131729318D01*
X159756765Y-131841915D01*
X159770080Y-131877023D01*
X159859817Y-132007030D01*
X159978060Y-132111783D01*
X159978061Y-132111783D01*
X159982018Y-132115289D01*
X160019145Y-132174479D01*
X160018718Y-132213282D01*
X160082110Y-132185170D01*
X160128081Y-132187696D01*
X160271315Y-132223000D01*
X160429285Y-132223000D01*
X160582665Y-132185196D01*
X160603084Y-132174479D01*
X160722540Y-132111783D01*
X160787556Y-132054183D01*
X160850790Y-132024463D01*
X160869783Y-132023000D01*
X161468434Y-132023000D01*
X161535473Y-132042685D01*
X161556115Y-132059319D01*
X176954781Y-147457984D01*
X176988266Y-147519307D01*
X176991100Y-147545665D01*
X176991100Y-152340740D01*
X176971415Y-152407779D01*
X176955753Y-152426056D01*
X176956091Y-152426356D01*
X176951115Y-152431972D01*
X176861381Y-152561975D01*
X176861380Y-152561976D01*
X176805362Y-152709681D01*
X176786322Y-152866499D01*
X176786322Y-152866500D01*
X176805362Y-153023318D01*
X176806582Y-153026533D01*
X176806775Y-153029051D01*
X176807158Y-153030602D01*
X176806900Y-153030665D01*
X176811946Y-153096197D01*
X176778796Y-153157702D01*
X176717657Y-153191521D01*
X176690638Y-153194500D01*
X164180925Y-153194500D01*
X164113886Y-153174815D01*
X164068131Y-153122011D01*
X164058187Y-153052853D01*
X164087212Y-152989297D01*
X164123298Y-152960704D01*
X164124468Y-152960089D01*
X164131340Y-152956483D01*
X164249583Y-152851730D01*
X164339320Y-152721723D01*
X164395337Y-152574018D01*
X164414378Y-152417200D01*
X164411871Y-152396548D01*
X164395337Y-152260381D01*
X164374092Y-152204364D01*
X164339320Y-152112677D01*
X164249583Y-151982670D01*
X164249581Y-151982668D01*
X164185473Y-151925873D01*
X164148346Y-151866684D01*
X164143700Y-151833058D01*
X164143700Y-136499259D01*
X164163385Y-136432220D01*
X164179046Y-136413944D01*
X164178709Y-136413645D01*
X164183681Y-136408032D01*
X164183681Y-136408031D01*
X164183683Y-136408030D01*
X164273420Y-136278023D01*
X164329437Y-136130318D01*
X164348478Y-135973500D01*
X164329437Y-135816682D01*
X164273420Y-135668977D01*
X164183683Y-135538970D01*
X164065440Y-135434217D01*
X164065438Y-135434216D01*
X164065437Y-135434215D01*
X163925565Y-135360803D01*
X163772186Y-135323000D01*
X163772185Y-135323000D01*
X163614215Y-135323000D01*
X163614214Y-135323000D01*
X163460834Y-135360803D01*
X163320962Y-135434215D01*
X163202716Y-135538971D01*
X163112981Y-135668975D01*
X163112980Y-135668976D01*
X163056962Y-135816681D01*
X163037922Y-135973499D01*
X163037922Y-135973500D01*
X163056962Y-136130318D01*
X163112980Y-136278023D01*
X163112981Y-136278024D01*
X163202718Y-136408032D01*
X163207691Y-136413645D01*
X163206244Y-136414926D01*
X163238050Y-136465620D01*
X163242700Y-136499259D01*
X163242700Y-151981577D01*
X163223015Y-152048616D01*
X163220750Y-152052017D01*
X163178881Y-152112675D01*
X163178880Y-152112676D01*
X163122862Y-152260381D01*
X163103822Y-152417199D01*
X163103822Y-152417200D01*
X163122862Y-152574018D01*
X163174313Y-152709681D01*
X163178880Y-152721723D01*
X163268617Y-152851730D01*
X163386860Y-152956483D01*
X163392857Y-152959630D01*
X163394902Y-152960704D01*
X163445114Y-153009290D01*
X163461088Y-153077309D01*
X163437752Y-153143166D01*
X163382515Y-153185953D01*
X163337275Y-153194500D01*
X160787825Y-153194500D01*
X160720786Y-153174815D01*
X160675031Y-153122011D01*
X160665087Y-153052853D01*
X160694112Y-152989297D01*
X160730198Y-152960704D01*
X160731368Y-152960089D01*
X160738240Y-152956483D01*
X160856483Y-152851730D01*
X160946220Y-152721723D01*
X161002237Y-152574018D01*
X161021278Y-152417200D01*
X161018771Y-152396548D01*
X161002237Y-152260381D01*
X160980992Y-152204364D01*
X160946220Y-152112677D01*
X160856483Y-151982670D01*
X160738240Y-151877917D01*
X160738238Y-151877916D01*
X160738237Y-151877915D01*
X160598365Y-151804503D01*
X160444986Y-151766700D01*
X160444985Y-151766700D01*
X160403965Y-151766700D01*
X160336926Y-151747015D01*
X160316284Y-151730381D01*
X156590719Y-148004816D01*
X156557234Y-147943493D01*
X156554400Y-147917135D01*
X156554400Y-134573859D01*
X156574085Y-134506820D01*
X156589746Y-134488544D01*
X156589409Y-134488245D01*
X156594381Y-134482632D01*
X156594381Y-134482631D01*
X156594383Y-134482630D01*
X156684120Y-134352623D01*
X156740137Y-134204918D01*
X156759178Y-134048100D01*
X156740137Y-133891282D01*
X156684120Y-133743577D01*
X156594383Y-133613570D01*
X156476140Y-133508817D01*
X156476138Y-133508816D01*
X156476137Y-133508815D01*
X156336265Y-133435403D01*
X156182886Y-133397600D01*
X156182885Y-133397600D01*
X156024915Y-133397600D01*
X156023965Y-133397600D01*
X155956926Y-133377915D01*
X155911171Y-133325111D01*
X155901227Y-133255953D01*
X155930252Y-133192397D01*
X155936284Y-133185919D01*
X156054184Y-133068019D01*
X156115507Y-133034534D01*
X156141865Y-133031700D01*
X156182885Y-133031700D01*
X156336265Y-132993896D01*
X156366746Y-132977898D01*
X156431904Y-132943700D01*
X158992622Y-132943700D01*
X159011662Y-133100518D01*
X159067680Y-133248223D01*
X159067681Y-133248224D01*
X159157418Y-133378232D01*
X159162391Y-133383845D01*
X159160944Y-133385126D01*
X159192750Y-133435820D01*
X159197400Y-133469459D01*
X159197400Y-149214138D01*
X159196620Y-149228023D01*
X159192629Y-149263436D01*
X159203255Y-149319596D01*
X159204032Y-149324165D01*
X159212552Y-149380691D01*
X159215062Y-149388827D01*
X159217876Y-149396870D01*
X159244588Y-149447411D01*
X159246676Y-149451549D01*
X159271474Y-149503041D01*
X159276262Y-149510065D01*
X159281331Y-149516932D01*
X159281334Y-149516938D01*
X159281338Y-149516942D01*
X159321746Y-149557350D01*
X159324963Y-149560689D01*
X159363847Y-149602596D01*
X159371110Y-149608388D01*
X159370589Y-149609041D01*
X159382830Y-149618434D01*
X159554052Y-149789656D01*
X159587537Y-149850979D01*
X159589467Y-149862390D01*
X159605863Y-149997418D01*
X159661880Y-150145123D01*
X159751617Y-150275130D01*
X159869860Y-150379883D01*
X159869862Y-150379884D01*
X160009734Y-150453296D01*
X160163114Y-150491100D01*
X160163115Y-150491100D01*
X160321085Y-150491100D01*
X160474465Y-150453296D01*
X160485053Y-150447739D01*
X160614340Y-150379883D01*
X160732583Y-150275130D01*
X160822320Y-150145123D01*
X160878337Y-149997418D01*
X160897378Y-149840600D01*
X160878337Y-149683782D01*
X160822320Y-149536077D01*
X160732583Y-149406070D01*
X160614340Y-149301317D01*
X160614338Y-149301316D01*
X160614337Y-149301315D01*
X160474465Y-149227903D01*
X160321086Y-149190100D01*
X160321085Y-149190100D01*
X160280065Y-149190100D01*
X160213026Y-149170415D01*
X160192384Y-149153781D01*
X160134719Y-149096116D01*
X160101234Y-149034793D01*
X160098400Y-149008435D01*
X160098400Y-133469459D01*
X160118085Y-133402420D01*
X160133746Y-133384144D01*
X160133409Y-133383845D01*
X160138381Y-133378232D01*
X160138381Y-133378231D01*
X160138383Y-133378230D01*
X160228120Y-133248223D01*
X160284137Y-133100518D01*
X160303178Y-132943700D01*
X160295917Y-132883895D01*
X160284137Y-132786881D01*
X160245773Y-132685724D01*
X160228120Y-132639177D01*
X160138383Y-132509170D01*
X160020140Y-132404417D01*
X160020139Y-132404416D01*
X160016181Y-132400910D01*
X159979054Y-132341720D01*
X159979480Y-132302916D01*
X159916089Y-132331029D01*
X159870117Y-132328502D01*
X159726886Y-132293200D01*
X159726885Y-132293200D01*
X159568915Y-132293200D01*
X159568914Y-132293200D01*
X159415534Y-132331003D01*
X159275662Y-132404415D01*
X159157416Y-132509171D01*
X159067681Y-132639175D01*
X159067680Y-132639176D01*
X159011662Y-132786881D01*
X158992622Y-132943699D01*
X158992622Y-132943700D01*
X156431904Y-132943700D01*
X156476140Y-132920483D01*
X156594383Y-132815730D01*
X156684120Y-132685723D01*
X156740137Y-132538018D01*
X156759178Y-132381200D01*
X156752835Y-132328956D01*
X156740137Y-132224381D01*
X156703860Y-132128727D01*
X156684120Y-132076677D01*
X156594383Y-131946670D01*
X156476140Y-131841917D01*
X156476138Y-131841916D01*
X156476137Y-131841915D01*
X156336265Y-131768503D01*
X156182886Y-131730700D01*
X156182885Y-131730700D01*
X156024915Y-131730700D01*
X156024914Y-131730700D01*
X155871535Y-131768503D01*
X155809289Y-131801173D01*
X155740781Y-131814898D01*
X155675728Y-131789405D01*
X155634784Y-131732789D01*
X155628568Y-131676433D01*
X155644078Y-131548700D01*
X155625037Y-131391882D01*
X155625036Y-131391880D01*
X155581379Y-131276765D01*
X155569020Y-131244177D01*
X155479283Y-131114170D01*
X155361040Y-131009417D01*
X155361038Y-131009416D01*
X155361037Y-131009415D01*
X155221165Y-130936003D01*
X155067786Y-130898200D01*
X155067785Y-130898200D01*
X154909815Y-130898200D01*
X154909814Y-130898200D01*
X154756434Y-130936003D01*
X154616562Y-131009415D01*
X154498316Y-131114171D01*
X154408581Y-131244175D01*
X154408580Y-131244176D01*
X154352563Y-131391880D01*
X154336167Y-131526909D01*
X154308545Y-131591087D01*
X154300752Y-131599643D01*
X153195963Y-132704432D01*
X153185598Y-132713695D01*
X153157733Y-132735917D01*
X153157730Y-132735921D01*
X153125523Y-132783157D01*
X153122844Y-132786932D01*
X153088906Y-132832918D01*
X153084916Y-132840467D01*
X153081228Y-132848125D01*
X153064373Y-132902767D01*
X153062925Y-132907168D01*
X153044053Y-132961104D01*
X153042471Y-132969459D01*
X153041200Y-132977900D01*
X153041200Y-133035060D01*
X153041113Y-133039697D01*
X153038975Y-133096809D01*
X153040016Y-133106043D01*
X153039185Y-133106136D01*
X153041200Y-133121435D01*
X153041200Y-151891440D01*
X153021515Y-151958479D01*
X153005853Y-151976756D01*
X153006191Y-151977056D01*
X153001215Y-151982672D01*
X152911481Y-152112675D01*
X152911480Y-152112676D01*
X152855462Y-152260381D01*
X152836422Y-152417199D01*
X152836422Y-152417200D01*
X152855462Y-152574018D01*
X152906913Y-152709681D01*
X152911480Y-152721723D01*
X153001217Y-152851730D01*
X153119460Y-152956483D01*
X153125457Y-152959630D01*
X153127502Y-152960704D01*
X153177714Y-153009290D01*
X153193688Y-153077309D01*
X153170352Y-153143166D01*
X153115115Y-153185953D01*
X153069875Y-153194500D01*
X150648225Y-153194500D01*
X150581186Y-153174815D01*
X150535431Y-153122011D01*
X150525487Y-153052853D01*
X150554512Y-152989297D01*
X150590598Y-152960704D01*
X150591768Y-152960089D01*
X150598640Y-152956483D01*
X150716883Y-152851730D01*
X150806620Y-152721723D01*
X150862637Y-152574018D01*
X150881678Y-152417200D01*
X150879171Y-152396548D01*
X150862637Y-152260381D01*
X150841392Y-152204364D01*
X150806620Y-152112677D01*
X150716883Y-151982670D01*
X150598640Y-151877917D01*
X150598638Y-151877916D01*
X150598637Y-151877915D01*
X150458765Y-151804503D01*
X150305386Y-151766700D01*
X150305385Y-151766700D01*
X150264365Y-151766700D01*
X150197326Y-151747015D01*
X150176684Y-151730381D01*
X149951519Y-151505216D01*
X149918034Y-151443893D01*
X149915200Y-151417535D01*
X149915200Y-133006249D01*
X149934885Y-132939210D01*
X149987689Y-132893455D01*
X150009526Y-132885852D01*
X150017465Y-132883896D01*
X150157340Y-132810483D01*
X150275583Y-132705730D01*
X150365320Y-132575723D01*
X150421337Y-132428018D01*
X150440378Y-132271200D01*
X150427046Y-132161396D01*
X150421337Y-132114381D01*
X150386680Y-132023000D01*
X150365320Y-131966677D01*
X150275583Y-131836670D01*
X150157340Y-131731917D01*
X150157338Y-131731916D01*
X150157337Y-131731915D01*
X150017465Y-131658503D01*
X149864086Y-131620700D01*
X149864085Y-131620700D01*
X149706115Y-131620700D01*
X149706114Y-131620700D01*
X149552734Y-131658503D01*
X149412862Y-131731915D01*
X149294616Y-131836671D01*
X149204881Y-131966675D01*
X149204880Y-131966676D01*
X149148863Y-132114380D01*
X149131709Y-132255655D01*
X149111064Y-132310563D01*
X149098523Y-132328956D01*
X149095844Y-132332732D01*
X149061906Y-132378718D01*
X149057916Y-132386267D01*
X149054228Y-132393925D01*
X149037373Y-132448567D01*
X149035925Y-132452968D01*
X149017053Y-132506904D01*
X149015471Y-132515259D01*
X149014200Y-132523700D01*
X149014200Y-132580860D01*
X149014113Y-132585497D01*
X149011975Y-132642609D01*
X149013016Y-132651843D01*
X149012185Y-132651936D01*
X149014200Y-132667235D01*
X149014200Y-151623238D01*
X149013420Y-151637123D01*
X149009429Y-151672536D01*
X149020055Y-151728696D01*
X149020832Y-151733265D01*
X149029352Y-151789791D01*
X149031862Y-151797927D01*
X149034676Y-151805970D01*
X149034676Y-151805971D01*
X149034677Y-151805972D01*
X149048992Y-151833058D01*
X149061388Y-151856511D01*
X149063476Y-151860649D01*
X149088274Y-151912141D01*
X149093062Y-151919165D01*
X149098131Y-151926032D01*
X149098134Y-151926038D01*
X149098138Y-151926042D01*
X149138547Y-151966451D01*
X149141764Y-151969790D01*
X149180647Y-152011696D01*
X149187910Y-152017488D01*
X149187389Y-152018141D01*
X149199630Y-152027534D01*
X149538352Y-152366256D01*
X149571837Y-152427579D01*
X149573767Y-152438990D01*
X149588701Y-152561975D01*
X149590163Y-152574018D01*
X149646180Y-152721723D01*
X149735917Y-152851730D01*
X149854160Y-152956483D01*
X149860157Y-152959630D01*
X149862202Y-152960704D01*
X149912414Y-153009290D01*
X149928388Y-153077309D01*
X149905052Y-153143166D01*
X149849815Y-153185953D01*
X149804575Y-153194500D01*
X137624000Y-153194500D01*
X137623991Y-153194500D01*
X137623990Y-153194501D01*
X137559064Y-153201481D01*
X137559052Y-153201483D01*
X137507546Y-153212688D01*
X137469345Y-153223644D01*
X137469341Y-153223646D01*
X137372431Y-153280323D01*
X137372428Y-153280325D01*
X137319623Y-153326081D01*
X137319612Y-153326091D01*
X137277451Y-153370807D01*
X137277445Y-153370816D01*
X137226560Y-153470890D01*
X137206877Y-153537921D01*
X137206876Y-153537928D01*
X137194500Y-153624000D01*
X137194500Y-163155000D01*
X137194500Y-169079999D01*
X137194500Y-182876000D01*
X137194501Y-182876009D01*
X137201481Y-182940935D01*
X137201483Y-182940947D01*
X137212688Y-182992453D01*
X137223644Y-183030654D01*
X137223646Y-183030658D01*
X137280323Y-183127568D01*
X137280325Y-183127571D01*
X137326081Y-183180376D01*
X137326091Y-183180387D01*
X137370807Y-183222548D01*
X137370809Y-183222549D01*
X137370813Y-183222553D01*
X137470889Y-183273439D01*
X137537928Y-183293124D01*
X137624000Y-183305500D01*
X137624003Y-183305500D01*
X180375990Y-183305500D01*
X180376000Y-183305500D01*
X180440941Y-183298518D01*
X180492452Y-183287312D01*
X180530658Y-183276354D01*
X180627571Y-183219675D01*
X180680375Y-183173920D01*
X180680382Y-183173912D01*
X180680387Y-183173908D01*
X180722548Y-183129192D01*
X180722553Y-183129187D01*
X180773439Y-183029111D01*
X180793124Y-182962072D01*
X180805500Y-182876000D01*
X180805500Y-173929500D01*
X180825185Y-173862461D01*
X180877989Y-173816706D01*
X180929500Y-173805500D01*
X199476000Y-173805500D01*
X199543039Y-173825185D01*
X199588794Y-173877989D01*
X199600000Y-173929500D01*
X199600000Y-195476000D01*
X199580315Y-195543039D01*
X199527511Y-195588794D01*
X199476000Y-195600000D01*
X100524000Y-195600000D01*
X100456961Y-195580315D01*
X100411206Y-195527511D01*
X100400000Y-195476000D01*
X100400000Y-192290649D01*
X162750000Y-192290649D01*
X162752899Y-192327489D01*
X162752900Y-192327495D01*
X162798716Y-192485193D01*
X162798717Y-192485196D01*
X162882314Y-192626552D01*
X162882321Y-192626561D01*
X162998438Y-192742678D01*
X162998447Y-192742685D01*
X163139803Y-192826282D01*
X163139806Y-192826283D01*
X163297504Y-192872099D01*
X163297510Y-192872100D01*
X163334350Y-192874999D01*
X163334366Y-192875000D01*
X163700000Y-192875000D01*
X163700000Y-191868564D01*
X163740555Y-191903705D01*
X163864801Y-191960446D01*
X163966025Y-191975000D01*
X164033975Y-191975000D01*
X164135199Y-191960446D01*
X164259445Y-191903705D01*
X164300000Y-191868564D01*
X164300000Y-192875000D01*
X164665634Y-192875000D01*
X164665649Y-192874999D01*
X164702489Y-192872100D01*
X164702495Y-192872099D01*
X164860193Y-192826283D01*
X164860196Y-192826282D01*
X165001552Y-192742685D01*
X165001561Y-192742678D01*
X165117678Y-192626561D01*
X165117685Y-192626552D01*
X165201282Y-192485196D01*
X165201283Y-192485193D01*
X165247099Y-192327495D01*
X165247100Y-192327489D01*
X165249999Y-192290649D01*
X165250000Y-192290634D01*
X165250000Y-192222988D01*
X165269685Y-192155949D01*
X165322489Y-192110194D01*
X165391647Y-192100250D01*
X165455203Y-192129275D01*
X165484999Y-192167714D01*
X165512522Y-192222988D01*
X165517635Y-192233257D01*
X165646127Y-192403406D01*
X165646128Y-192403407D01*
X165803698Y-192547052D01*
X165984981Y-192659298D01*
X166183802Y-192736321D01*
X166393390Y-192775500D01*
X166393392Y-192775500D01*
X166606608Y-192775500D01*
X166606610Y-192775500D01*
X166816198Y-192736321D01*
X167015019Y-192659298D01*
X167196302Y-192547052D01*
X167273348Y-192476814D01*
X167336151Y-192446198D01*
X167405538Y-192454395D01*
X167444567Y-192480771D01*
X168140430Y-193176633D01*
X168149695Y-193187000D01*
X168171921Y-193214870D01*
X168171923Y-193214872D01*
X168219163Y-193247080D01*
X168222945Y-193249763D01*
X168268918Y-193283693D01*
X168276454Y-193287676D01*
X168284119Y-193291367D01*
X168284127Y-193291372D01*
X168308988Y-193299040D01*
X168338780Y-193308230D01*
X168343171Y-193309674D01*
X168397101Y-193328546D01*
X168397105Y-193328546D01*
X168405479Y-193330130D01*
X168413896Y-193331399D01*
X168413898Y-193331400D01*
X168471062Y-193331400D01*
X168475698Y-193331486D01*
X168532810Y-193333624D01*
X168542044Y-193332584D01*
X168542137Y-193333413D01*
X168557436Y-193331400D01*
X180797438Y-193331400D01*
X180811320Y-193332179D01*
X180814908Y-193332584D01*
X180846733Y-193336170D01*
X180846733Y-193336169D01*
X180846735Y-193336170D01*
X180902936Y-193325535D01*
X180907426Y-193324772D01*
X180963987Y-193316248D01*
X180963991Y-193316245D01*
X180972147Y-193313730D01*
X180980169Y-193310924D01*
X180980170Y-193310923D01*
X180980172Y-193310923D01*
X181030788Y-193284170D01*
X181034793Y-193282148D01*
X181086342Y-193257325D01*
X181086343Y-193257323D01*
X181086345Y-193257323D01*
X181093395Y-193252516D01*
X181100234Y-193247467D01*
X181100238Y-193247466D01*
X181140674Y-193207028D01*
X181143960Y-193203862D01*
X181185894Y-193164955D01*
X181185896Y-193164950D01*
X181191687Y-193157690D01*
X181192343Y-193158213D01*
X181201732Y-193145970D01*
X181593844Y-192753857D01*
X181604193Y-192744609D01*
X181632070Y-192722379D01*
X181664298Y-192675107D01*
X181666930Y-192671398D01*
X181700893Y-192625382D01*
X181700893Y-192625380D01*
X181704946Y-192619890D01*
X181760594Y-192577641D01*
X181830250Y-192572184D01*
X181869989Y-192588097D01*
X181984981Y-192659298D01*
X182183802Y-192736321D01*
X182393390Y-192775500D01*
X182393392Y-192775500D01*
X182606608Y-192775500D01*
X182606610Y-192775500D01*
X182816198Y-192736321D01*
X183015019Y-192659298D01*
X183196302Y-192547052D01*
X183353872Y-192403407D01*
X183482366Y-192233255D01*
X183577405Y-192042389D01*
X183579077Y-192036511D01*
X183616349Y-191977418D01*
X183679657Y-191947855D01*
X183720740Y-191950900D01*
X183721010Y-191949115D01*
X183730197Y-191950499D01*
X183730198Y-191950500D01*
X183733368Y-191950500D01*
X183760959Y-191953608D01*
X183764054Y-191954315D01*
X183793892Y-191952078D01*
X183862213Y-191966695D01*
X183911787Y-192015931D01*
X183920482Y-192037067D01*
X183920527Y-192037050D01*
X183921357Y-192039193D01*
X183922423Y-192041784D01*
X183922595Y-192042391D01*
X183922596Y-192042394D01*
X184017632Y-192233253D01*
X184146127Y-192403406D01*
X184146128Y-192403407D01*
X184303698Y-192547052D01*
X184484981Y-192659298D01*
X184683802Y-192736321D01*
X184893390Y-192775500D01*
X184893392Y-192775500D01*
X185106608Y-192775500D01*
X185106610Y-192775500D01*
X185316198Y-192736321D01*
X185515019Y-192659298D01*
X185696302Y-192547052D01*
X185853872Y-192403407D01*
X185982366Y-192233255D01*
X186015000Y-192167717D01*
X186077403Y-192042394D01*
X186077403Y-192042393D01*
X186077405Y-192042389D01*
X186130734Y-191854959D01*
X186168014Y-191795867D01*
X186231323Y-191766310D01*
X186300563Y-191775672D01*
X186353749Y-191820982D01*
X186369265Y-191854959D01*
X186401800Y-191969305D01*
X186422596Y-192042392D01*
X186422596Y-192042394D01*
X186517632Y-192233253D01*
X186646127Y-192403406D01*
X186646128Y-192403407D01*
X186803698Y-192547052D01*
X186984981Y-192659298D01*
X187183802Y-192736321D01*
X187393390Y-192775500D01*
X187393392Y-192775500D01*
X187606608Y-192775500D01*
X187606610Y-192775500D01*
X187816198Y-192736321D01*
X188015019Y-192659298D01*
X188196302Y-192547052D01*
X188353872Y-192403407D01*
X188482366Y-192233255D01*
X188515000Y-192167717D01*
X188577403Y-192042394D01*
X188577403Y-192042393D01*
X188577405Y-192042389D01*
X188635756Y-191837310D01*
X188650500Y-191678194D01*
X188650500Y-191567763D01*
X193645787Y-191567763D01*
X193675413Y-191837013D01*
X193675415Y-191837024D01*
X193743926Y-192099082D01*
X193743928Y-192099088D01*
X193849870Y-192348390D01*
X193940687Y-192497199D01*
X193990979Y-192579605D01*
X193990986Y-192579615D01*
X194164253Y-192787819D01*
X194164259Y-192787824D01*
X194365998Y-192968582D01*
X194591910Y-193118044D01*
X194837176Y-193233020D01*
X194837183Y-193233022D01*
X194837185Y-193233023D01*
X195096557Y-193311057D01*
X195096564Y-193311058D01*
X195096569Y-193311060D01*
X195364561Y-193350500D01*
X195364566Y-193350500D01*
X195567629Y-193350500D01*
X195567631Y-193350500D01*
X195567636Y-193350499D01*
X195567648Y-193350499D01*
X195605191Y-193347750D01*
X195770156Y-193335677D01*
X195890330Y-193308907D01*
X196034546Y-193276782D01*
X196034548Y-193276781D01*
X196034553Y-193276780D01*
X196287558Y-193180014D01*
X196523777Y-193047441D01*
X196738177Y-192881888D01*
X196926186Y-192686881D01*
X197083799Y-192466579D01*
X197174251Y-192290649D01*
X197207649Y-192225690D01*
X197207651Y-192225684D01*
X197207656Y-192225675D01*
X197295118Y-191969305D01*
X197344319Y-191702933D01*
X197354212Y-191432235D01*
X197324586Y-191162982D01*
X197256072Y-190900912D01*
X197150130Y-190651610D01*
X197009018Y-190420390D01*
X196969952Y-190373447D01*
X196835746Y-190212180D01*
X196835740Y-190212175D01*
X196634002Y-190031418D01*
X196408092Y-189881957D01*
X196408090Y-189881956D01*
X196162824Y-189766980D01*
X196162819Y-189766978D01*
X196162814Y-189766976D01*
X195903442Y-189688942D01*
X195903428Y-189688939D01*
X195787791Y-189671921D01*
X195635439Y-189649500D01*
X195432369Y-189649500D01*
X195432351Y-189649500D01*
X195229844Y-189664323D01*
X195229831Y-189664325D01*
X194965453Y-189723217D01*
X194965446Y-189723220D01*
X194712439Y-189819987D01*
X194476226Y-189952557D01*
X194261822Y-190118112D01*
X194073822Y-190313109D01*
X194073816Y-190313116D01*
X193916202Y-190533419D01*
X193916199Y-190533424D01*
X193792350Y-190774309D01*
X193792343Y-190774327D01*
X193704884Y-191030685D01*
X193704881Y-191030699D01*
X193655681Y-191297068D01*
X193655680Y-191297075D01*
X193645787Y-191567763D01*
X188650500Y-191567763D01*
X188650500Y-191321806D01*
X188635756Y-191162690D01*
X188577405Y-190957611D01*
X188577403Y-190957606D01*
X188577403Y-190957605D01*
X188482367Y-190766746D01*
X188353872Y-190596593D01*
X188302536Y-190549794D01*
X188196302Y-190452948D01*
X188015019Y-190340702D01*
X188015017Y-190340701D01*
X187915608Y-190302190D01*
X187816198Y-190263679D01*
X187606610Y-190224500D01*
X187393390Y-190224500D01*
X187183802Y-190263679D01*
X187183799Y-190263679D01*
X187183799Y-190263680D01*
X186984982Y-190340701D01*
X186984980Y-190340702D01*
X186803699Y-190452947D01*
X186646127Y-190596593D01*
X186517632Y-190766746D01*
X186422596Y-190957605D01*
X186422596Y-190957607D01*
X186369266Y-191145039D01*
X186331986Y-191204132D01*
X186268676Y-191233689D01*
X186199437Y-191224327D01*
X186146251Y-191179017D01*
X186130734Y-191145039D01*
X186103550Y-191049500D01*
X186077405Y-190957611D01*
X186077403Y-190957606D01*
X186077403Y-190957605D01*
X185982367Y-190766746D01*
X185853872Y-190596593D01*
X185802536Y-190549794D01*
X185696302Y-190452948D01*
X185515019Y-190340702D01*
X185515017Y-190340701D01*
X185415608Y-190302190D01*
X185316198Y-190263679D01*
X185106610Y-190224500D01*
X184893390Y-190224500D01*
X184683802Y-190263679D01*
X184683799Y-190263679D01*
X184683799Y-190263680D01*
X184484982Y-190340701D01*
X184484980Y-190340702D01*
X184303696Y-190452949D01*
X184226599Y-190523233D01*
X184163795Y-190553850D01*
X184094408Y-190545653D01*
X184055380Y-190519277D01*
X183351268Y-189815165D01*
X183342002Y-189804797D01*
X183319779Y-189776930D01*
X183319778Y-189776929D01*
X183319777Y-189776928D01*
X183294250Y-189759524D01*
X183272533Y-189744718D01*
X183268769Y-189742047D01*
X183222786Y-189708109D01*
X183215197Y-189704098D01*
X183207575Y-189700428D01*
X183152949Y-189683579D01*
X183148544Y-189682130D01*
X183144960Y-189680876D01*
X183136947Y-189678072D01*
X183094595Y-189663252D01*
X183086226Y-189661668D01*
X183077804Y-189660400D01*
X183077802Y-189660400D01*
X183020638Y-189660400D01*
X183016001Y-189660313D01*
X183013985Y-189660237D01*
X182958889Y-189658175D01*
X182949656Y-189659216D01*
X182949562Y-189658386D01*
X182934264Y-189660400D01*
X171078062Y-189660400D01*
X171064179Y-189659620D01*
X171060171Y-189659168D01*
X171028765Y-189655629D01*
X170972582Y-189666258D01*
X170968018Y-189667033D01*
X170911515Y-189675551D01*
X170903339Y-189678072D01*
X170895329Y-189680875D01*
X170844780Y-189707591D01*
X170840644Y-189709679D01*
X170789159Y-189734474D01*
X170782110Y-189739279D01*
X170775258Y-189744336D01*
X170734846Y-189784748D01*
X170731509Y-189787963D01*
X170689608Y-189826842D01*
X170683815Y-189834107D01*
X170683163Y-189833587D01*
X170673769Y-189845825D01*
X169973756Y-190545838D01*
X169912433Y-190579323D01*
X169842741Y-190574339D01*
X169802537Y-190549794D01*
X169696303Y-190452949D01*
X169696302Y-190452948D01*
X169515019Y-190340702D01*
X169515017Y-190340701D01*
X169415608Y-190302190D01*
X169316198Y-190263679D01*
X169106610Y-190224500D01*
X168893390Y-190224500D01*
X168683802Y-190263679D01*
X168683799Y-190263679D01*
X168683799Y-190263680D01*
X168484982Y-190340701D01*
X168484980Y-190340702D01*
X168303699Y-190452947D01*
X168146127Y-190596593D01*
X168017632Y-190766746D01*
X167922596Y-190957604D01*
X167920918Y-190963504D01*
X167883634Y-191022594D01*
X167820322Y-191052147D01*
X167779257Y-191049101D01*
X167778989Y-191050885D01*
X167769802Y-191049500D01*
X167769801Y-191049500D01*
X167766632Y-191049500D01*
X167739040Y-191046391D01*
X167735946Y-191045685D01*
X167735942Y-191045684D01*
X167706107Y-191047921D01*
X167637783Y-191033302D01*
X167588210Y-190984065D01*
X167579518Y-190962932D01*
X167579473Y-190962950D01*
X167578619Y-190960746D01*
X167577573Y-190958202D01*
X167577404Y-190957609D01*
X167577403Y-190957605D01*
X167482367Y-190766746D01*
X167353872Y-190596593D01*
X167302536Y-190549794D01*
X167196302Y-190452948D01*
X167015019Y-190340702D01*
X167015017Y-190340701D01*
X166915608Y-190302190D01*
X166816198Y-190263679D01*
X166606610Y-190224500D01*
X166393390Y-190224500D01*
X166183802Y-190263679D01*
X166183799Y-190263679D01*
X166183799Y-190263680D01*
X165984982Y-190340701D01*
X165984980Y-190340702D01*
X165803699Y-190452947D01*
X165646127Y-190596593D01*
X165517634Y-190766744D01*
X165485000Y-190832283D01*
X165437497Y-190883520D01*
X165369834Y-190900941D01*
X165303494Y-190879015D01*
X165259539Y-190824704D01*
X165250000Y-190777011D01*
X165250000Y-190709365D01*
X165249999Y-190709350D01*
X165247100Y-190672510D01*
X165247099Y-190672504D01*
X165201283Y-190514806D01*
X165201282Y-190514803D01*
X165117685Y-190373447D01*
X165117678Y-190373438D01*
X165001561Y-190257321D01*
X165001552Y-190257314D01*
X164860196Y-190173717D01*
X164860193Y-190173716D01*
X164702495Y-190127900D01*
X164702489Y-190127899D01*
X164665649Y-190125000D01*
X164300000Y-190125000D01*
X164300000Y-191131435D01*
X164259445Y-191096295D01*
X164135199Y-191039554D01*
X164033975Y-191025000D01*
X163966025Y-191025000D01*
X163864801Y-191039554D01*
X163740555Y-191096295D01*
X163700000Y-191131435D01*
X163700000Y-190125000D01*
X163334350Y-190125000D01*
X163297510Y-190127899D01*
X163297504Y-190127900D01*
X163139806Y-190173716D01*
X163139803Y-190173717D01*
X162998447Y-190257314D01*
X162998438Y-190257321D01*
X162882321Y-190373438D01*
X162882314Y-190373447D01*
X162798717Y-190514803D01*
X162798716Y-190514806D01*
X162752900Y-190672504D01*
X162752899Y-190672510D01*
X162750000Y-190709350D01*
X162750000Y-191200000D01*
X163628164Y-191200000D01*
X163563481Y-191300649D01*
X163525000Y-191431705D01*
X163525000Y-191568295D01*
X163563481Y-191699351D01*
X163628164Y-191800000D01*
X162750000Y-191800000D01*
X162750000Y-192290649D01*
X100400000Y-192290649D01*
X100400000Y-180000000D01*
X109474551Y-180000000D01*
X109494317Y-180251151D01*
X109553126Y-180496110D01*
X109649533Y-180728859D01*
X109781160Y-180943653D01*
X109781161Y-180943656D01*
X109781164Y-180943659D01*
X109944776Y-181135224D01*
X110062485Y-181235757D01*
X110136343Y-181298838D01*
X110136346Y-181298839D01*
X110351140Y-181430466D01*
X110519026Y-181500006D01*
X110583889Y-181526873D01*
X110828852Y-181585683D01*
X111080000Y-181605449D01*
X111331148Y-181585683D01*
X111576111Y-181526873D01*
X111640974Y-181500006D01*
X118594700Y-181500006D01*
X118613864Y-181731297D01*
X118613866Y-181731308D01*
X118670842Y-181956300D01*
X118764075Y-182168848D01*
X118891016Y-182363147D01*
X118891019Y-182363151D01*
X118891021Y-182363153D01*
X119048216Y-182533913D01*
X119048219Y-182533915D01*
X119048222Y-182533918D01*
X119231365Y-182676464D01*
X119231371Y-182676468D01*
X119231374Y-182676470D01*
X119435497Y-182786936D01*
X119549487Y-182826068D01*
X119655015Y-182862297D01*
X119655017Y-182862297D01*
X119655019Y-182862298D01*
X119883951Y-182900500D01*
X119883952Y-182900500D01*
X120116048Y-182900500D01*
X120116049Y-182900500D01*
X120344981Y-182862298D01*
X120564503Y-182786936D01*
X120768626Y-182676470D01*
X120951784Y-182533913D01*
X121108979Y-182363153D01*
X121235924Y-182168849D01*
X121329157Y-181956300D01*
X121386134Y-181731305D01*
X121388687Y-181700499D01*
X121405300Y-181500006D01*
X122094700Y-181500006D01*
X122113864Y-181731297D01*
X122113866Y-181731308D01*
X122170842Y-181956300D01*
X122264075Y-182168848D01*
X122391016Y-182363147D01*
X122391019Y-182363151D01*
X122391021Y-182363153D01*
X122548216Y-182533913D01*
X122548219Y-182533915D01*
X122548222Y-182533918D01*
X122731365Y-182676464D01*
X122731371Y-182676468D01*
X122731374Y-182676470D01*
X122935497Y-182786936D01*
X123049487Y-182826068D01*
X123155015Y-182862297D01*
X123155017Y-182862297D01*
X123155019Y-182862298D01*
X123383951Y-182900500D01*
X123383952Y-182900500D01*
X123616048Y-182900500D01*
X123616049Y-182900500D01*
X123844981Y-182862298D01*
X124064503Y-182786936D01*
X124268626Y-182676470D01*
X124451784Y-182533913D01*
X124608979Y-182363153D01*
X124735924Y-182168849D01*
X124829157Y-181956300D01*
X124886134Y-181731305D01*
X124888687Y-181700499D01*
X124905300Y-181500006D01*
X124905300Y-181499993D01*
X124886135Y-181268702D01*
X124886133Y-181268691D01*
X124829157Y-181043699D01*
X124735924Y-180831151D01*
X124608983Y-180636852D01*
X124608980Y-180636849D01*
X124608979Y-180636847D01*
X124451784Y-180466087D01*
X124328576Y-180370190D01*
X124949500Y-180370190D01*
X124989066Y-180607300D01*
X125067116Y-180834652D01*
X125067118Y-180834657D01*
X125181529Y-181046069D01*
X125181533Y-181046075D01*
X125329169Y-181235757D01*
X125329171Y-181235759D01*
X125329175Y-181235764D01*
X125506031Y-181398571D01*
X125506033Y-181398572D01*
X125702410Y-181526873D01*
X125707272Y-181530049D01*
X125927409Y-181626610D01*
X126160437Y-181685620D01*
X126340010Y-181700500D01*
X126340014Y-181700500D01*
X126459986Y-181700500D01*
X126459990Y-181700500D01*
X126639563Y-181685620D01*
X126872591Y-181626610D01*
X127092728Y-181530049D01*
X127138712Y-181500006D01*
X127894700Y-181500006D01*
X127913864Y-181731297D01*
X127913866Y-181731308D01*
X127970842Y-181956300D01*
X128064075Y-182168848D01*
X128191016Y-182363147D01*
X128191019Y-182363151D01*
X128191021Y-182363153D01*
X128348216Y-182533913D01*
X128348219Y-182533915D01*
X128348222Y-182533918D01*
X128531365Y-182676464D01*
X128531371Y-182676468D01*
X128531374Y-182676470D01*
X128735497Y-182786936D01*
X128849487Y-182826068D01*
X128955015Y-182862297D01*
X128955017Y-182862297D01*
X128955019Y-182862298D01*
X129183951Y-182900500D01*
X129183952Y-182900500D01*
X129416048Y-182900500D01*
X129416049Y-182900500D01*
X129644981Y-182862298D01*
X129864503Y-182786936D01*
X130068626Y-182676470D01*
X130251784Y-182533913D01*
X130408979Y-182363153D01*
X130535924Y-182168849D01*
X130629157Y-181956300D01*
X130686134Y-181731305D01*
X130688687Y-181700499D01*
X130705300Y-181500006D01*
X131394700Y-181500006D01*
X131413864Y-181731297D01*
X131413866Y-181731308D01*
X131470842Y-181956300D01*
X131564075Y-182168848D01*
X131691016Y-182363147D01*
X131691019Y-182363151D01*
X131691021Y-182363153D01*
X131848216Y-182533913D01*
X131848219Y-182533915D01*
X131848222Y-182533918D01*
X132031365Y-182676464D01*
X132031371Y-182676468D01*
X132031374Y-182676470D01*
X132235497Y-182786936D01*
X132349487Y-182826068D01*
X132455015Y-182862297D01*
X132455017Y-182862297D01*
X132455019Y-182862298D01*
X132683951Y-182900500D01*
X132683952Y-182900500D01*
X132916048Y-182900500D01*
X132916049Y-182900500D01*
X133144981Y-182862298D01*
X133364503Y-182786936D01*
X133568626Y-182676470D01*
X133751784Y-182533913D01*
X133908979Y-182363153D01*
X134035924Y-182168849D01*
X134129157Y-181956300D01*
X134186134Y-181731305D01*
X134188687Y-181700499D01*
X134205300Y-181500006D01*
X134205300Y-181499993D01*
X134186135Y-181268702D01*
X134186133Y-181268691D01*
X134129157Y-181043699D01*
X134035924Y-180831151D01*
X133908983Y-180636852D01*
X133908980Y-180636849D01*
X133908979Y-180636847D01*
X133751784Y-180466087D01*
X133599876Y-180347852D01*
X133559064Y-180291143D01*
X133555389Y-180221370D01*
X133590020Y-180160687D01*
X133599876Y-180152147D01*
X133751784Y-180033913D01*
X133908979Y-179863153D01*
X134035924Y-179668849D01*
X134129157Y-179456300D01*
X134186134Y-179231305D01*
X134186135Y-179231297D01*
X134205300Y-179000006D01*
X134205300Y-178999993D01*
X134186135Y-178768702D01*
X134186133Y-178768691D01*
X134129157Y-178543699D01*
X134035924Y-178331151D01*
X133908983Y-178136852D01*
X133908980Y-178136849D01*
X133908979Y-178136847D01*
X133751784Y-177966087D01*
X133751779Y-177966083D01*
X133751777Y-177966081D01*
X133568634Y-177823535D01*
X133568628Y-177823531D01*
X133364504Y-177713064D01*
X133364495Y-177713061D01*
X133144984Y-177637702D01*
X132973282Y-177609050D01*
X132916049Y-177599500D01*
X132683951Y-177599500D01*
X132638164Y-177607140D01*
X132455015Y-177637702D01*
X132235504Y-177713061D01*
X132235495Y-177713064D01*
X132031371Y-177823531D01*
X132031365Y-177823535D01*
X131848222Y-177966081D01*
X131848219Y-177966084D01*
X131691016Y-178136852D01*
X131564075Y-178331151D01*
X131470842Y-178543699D01*
X131413866Y-178768691D01*
X131413864Y-178768702D01*
X131394700Y-178999993D01*
X131394700Y-179000006D01*
X131413864Y-179231297D01*
X131413866Y-179231308D01*
X131470842Y-179456300D01*
X131564075Y-179668848D01*
X131691016Y-179863147D01*
X131691019Y-179863151D01*
X131691021Y-179863153D01*
X131848216Y-180033913D01*
X131848219Y-180033915D01*
X131848222Y-180033918D01*
X132000122Y-180152147D01*
X132040935Y-180208857D01*
X132044610Y-180278630D01*
X132009978Y-180339313D01*
X132000122Y-180347853D01*
X131848222Y-180466081D01*
X131848219Y-180466084D01*
X131691016Y-180636852D01*
X131564075Y-180831151D01*
X131470842Y-181043699D01*
X131413866Y-181268691D01*
X131413864Y-181268702D01*
X131394700Y-181499993D01*
X131394700Y-181500006D01*
X130705300Y-181500006D01*
X130705300Y-181499993D01*
X130686135Y-181268702D01*
X130686133Y-181268691D01*
X130629157Y-181043699D01*
X130535924Y-180831151D01*
X130408983Y-180636852D01*
X130408980Y-180636849D01*
X130408979Y-180636847D01*
X130251784Y-180466087D01*
X130099876Y-180347852D01*
X130059064Y-180291143D01*
X130055389Y-180221370D01*
X130090020Y-180160687D01*
X130099876Y-180152147D01*
X130251784Y-180033913D01*
X130408979Y-179863153D01*
X130535924Y-179668849D01*
X130629157Y-179456300D01*
X130686134Y-179231305D01*
X130686135Y-179231297D01*
X130705300Y-179000006D01*
X130705300Y-178999993D01*
X130686135Y-178768702D01*
X130686133Y-178768691D01*
X130629157Y-178543699D01*
X130535924Y-178331151D01*
X130408983Y-178136852D01*
X130408980Y-178136849D01*
X130408979Y-178136847D01*
X130251784Y-177966087D01*
X130251779Y-177966083D01*
X130251777Y-177966081D01*
X130068634Y-177823535D01*
X130068628Y-177823531D01*
X129864504Y-177713064D01*
X129864495Y-177713061D01*
X129644984Y-177637702D01*
X129473282Y-177609050D01*
X129416049Y-177599500D01*
X129183951Y-177599500D01*
X129138164Y-177607140D01*
X128955015Y-177637702D01*
X128735504Y-177713061D01*
X128735495Y-177713064D01*
X128531371Y-177823531D01*
X128531365Y-177823535D01*
X128348222Y-177966081D01*
X128348219Y-177966084D01*
X128191016Y-178136852D01*
X128064075Y-178331151D01*
X127970842Y-178543699D01*
X127913866Y-178768691D01*
X127913864Y-178768702D01*
X127894700Y-178999993D01*
X127894700Y-179000006D01*
X127913864Y-179231297D01*
X127913866Y-179231308D01*
X127970842Y-179456300D01*
X128064075Y-179668848D01*
X128191016Y-179863147D01*
X128191019Y-179863151D01*
X128191021Y-179863153D01*
X128348216Y-180033913D01*
X128348219Y-180033915D01*
X128348222Y-180033918D01*
X128500122Y-180152147D01*
X128540935Y-180208857D01*
X128544610Y-180278630D01*
X128509978Y-180339313D01*
X128500122Y-180347853D01*
X128348222Y-180466081D01*
X128348219Y-180466084D01*
X128191016Y-180636852D01*
X128064075Y-180831151D01*
X127970842Y-181043699D01*
X127913866Y-181268691D01*
X127913864Y-181268702D01*
X127894700Y-181499993D01*
X127894700Y-181500006D01*
X127138712Y-181500006D01*
X127293969Y-181398571D01*
X127470825Y-181235764D01*
X127618472Y-181046067D01*
X127732882Y-180834656D01*
X127810934Y-180607297D01*
X127850500Y-180370192D01*
X127850500Y-180129808D01*
X127810934Y-179892703D01*
X127800787Y-179863147D01*
X127732883Y-179665347D01*
X127732881Y-179665342D01*
X127618470Y-179453930D01*
X127618466Y-179453924D01*
X127470830Y-179264242D01*
X127470827Y-179264239D01*
X127470825Y-179264236D01*
X127293969Y-179101429D01*
X127224957Y-179056341D01*
X127092729Y-178969951D01*
X126964757Y-178913817D01*
X126872591Y-178873390D01*
X126872589Y-178873389D01*
X126639559Y-178814379D01*
X126460000Y-178799500D01*
X126459990Y-178799500D01*
X126340010Y-178799500D01*
X126339999Y-178799500D01*
X126160440Y-178814379D01*
X125927410Y-178873389D01*
X125707270Y-178969951D01*
X125506033Y-179101427D01*
X125506029Y-179101430D01*
X125329172Y-179264239D01*
X125329169Y-179264242D01*
X125181533Y-179453924D01*
X125181529Y-179453930D01*
X125067118Y-179665342D01*
X125067116Y-179665347D01*
X124989066Y-179892699D01*
X124949500Y-180129809D01*
X124949500Y-180370190D01*
X124328576Y-180370190D01*
X124299876Y-180347852D01*
X124259064Y-180291143D01*
X124255389Y-180221370D01*
X124290020Y-180160687D01*
X124299876Y-180152147D01*
X124451784Y-180033913D01*
X124608979Y-179863153D01*
X124735924Y-179668849D01*
X124829157Y-179456300D01*
X124886134Y-179231305D01*
X124886135Y-179231297D01*
X124905300Y-179000006D01*
X124905300Y-178999993D01*
X124886135Y-178768702D01*
X124886133Y-178768691D01*
X124829157Y-178543699D01*
X124735924Y-178331151D01*
X124608983Y-178136852D01*
X124608980Y-178136849D01*
X124608979Y-178136847D01*
X124451784Y-177966087D01*
X124451779Y-177966083D01*
X124451777Y-177966081D01*
X124268634Y-177823535D01*
X124268628Y-177823531D01*
X124064504Y-177713064D01*
X124064495Y-177713061D01*
X123844984Y-177637702D01*
X123673282Y-177609050D01*
X123616049Y-177599500D01*
X123383951Y-177599500D01*
X123338164Y-177607140D01*
X123155015Y-177637702D01*
X122935504Y-177713061D01*
X122935495Y-177713064D01*
X122731371Y-177823531D01*
X122731365Y-177823535D01*
X122548222Y-177966081D01*
X122548219Y-177966084D01*
X122391016Y-178136852D01*
X122264075Y-178331151D01*
X122170842Y-178543699D01*
X122113866Y-178768691D01*
X122113864Y-178768702D01*
X122094700Y-178999993D01*
X122094700Y-179000006D01*
X122113864Y-179231297D01*
X122113866Y-179231308D01*
X122170842Y-179456300D01*
X122264075Y-179668848D01*
X122391016Y-179863147D01*
X122391019Y-179863151D01*
X122391021Y-179863153D01*
X122548216Y-180033913D01*
X122548219Y-180033915D01*
X122548222Y-180033918D01*
X122700122Y-180152147D01*
X122740935Y-180208857D01*
X122744610Y-180278630D01*
X122709978Y-180339313D01*
X122700122Y-180347853D01*
X122548222Y-180466081D01*
X122548219Y-180466084D01*
X122391016Y-180636852D01*
X122264075Y-180831151D01*
X122170842Y-181043699D01*
X122113866Y-181268691D01*
X122113864Y-181268702D01*
X122094700Y-181499993D01*
X122094700Y-181500006D01*
X121405300Y-181500006D01*
X121405300Y-181499993D01*
X121386135Y-181268702D01*
X121386133Y-181268691D01*
X121329157Y-181043699D01*
X121235924Y-180831151D01*
X121108983Y-180636852D01*
X121108980Y-180636849D01*
X121108979Y-180636847D01*
X120951784Y-180466087D01*
X120799876Y-180347852D01*
X120759064Y-180291143D01*
X120755389Y-180221370D01*
X120790020Y-180160687D01*
X120799876Y-180152147D01*
X120951784Y-180033913D01*
X121108979Y-179863153D01*
X121235924Y-179668849D01*
X121329157Y-179456300D01*
X121386134Y-179231305D01*
X121386135Y-179231297D01*
X121405300Y-179000006D01*
X121405300Y-178999993D01*
X121386135Y-178768702D01*
X121386133Y-178768691D01*
X121329157Y-178543699D01*
X121235924Y-178331151D01*
X121108983Y-178136852D01*
X121108980Y-178136849D01*
X121108979Y-178136847D01*
X120951784Y-177966087D01*
X120951779Y-177966083D01*
X120951777Y-177966081D01*
X120768634Y-177823535D01*
X120768628Y-177823531D01*
X120564504Y-177713064D01*
X120564495Y-177713061D01*
X120344984Y-177637702D01*
X120173282Y-177609050D01*
X120116049Y-177599500D01*
X119883951Y-177599500D01*
X119838164Y-177607140D01*
X119655015Y-177637702D01*
X119435504Y-177713061D01*
X119435495Y-177713064D01*
X119231371Y-177823531D01*
X119231365Y-177823535D01*
X119048222Y-177966081D01*
X119048219Y-177966084D01*
X118891016Y-178136852D01*
X118764075Y-178331151D01*
X118670842Y-178543699D01*
X118613866Y-178768691D01*
X118613864Y-178768702D01*
X118594700Y-178999993D01*
X118594700Y-179000006D01*
X118613864Y-179231297D01*
X118613866Y-179231308D01*
X118670842Y-179456300D01*
X118764075Y-179668848D01*
X118891016Y-179863147D01*
X118891019Y-179863151D01*
X118891021Y-179863153D01*
X119048216Y-180033913D01*
X119048219Y-180033915D01*
X119048222Y-180033918D01*
X119200122Y-180152147D01*
X119240935Y-180208857D01*
X119244610Y-180278630D01*
X119209978Y-180339313D01*
X119200122Y-180347853D01*
X119048222Y-180466081D01*
X119048219Y-180466084D01*
X118891016Y-180636852D01*
X118764075Y-180831151D01*
X118670842Y-181043699D01*
X118613866Y-181268691D01*
X118613864Y-181268702D01*
X118594700Y-181499993D01*
X118594700Y-181500006D01*
X111640974Y-181500006D01*
X111808859Y-181430466D01*
X112023659Y-181298836D01*
X112215224Y-181135224D01*
X112378836Y-180943659D01*
X112510466Y-180728859D01*
X112606873Y-180496111D01*
X112665683Y-180251148D01*
X112685449Y-180000000D01*
X112665683Y-179748852D01*
X112606873Y-179503889D01*
X112510466Y-179271141D01*
X112510466Y-179271140D01*
X112378839Y-179056346D01*
X112378838Y-179056343D01*
X112305052Y-178969951D01*
X112215224Y-178864776D01*
X112088571Y-178756604D01*
X112023656Y-178701161D01*
X112023653Y-178701160D01*
X111808859Y-178569533D01*
X111576110Y-178473126D01*
X111331151Y-178414317D01*
X111080000Y-178394551D01*
X110828848Y-178414317D01*
X110583889Y-178473126D01*
X110351140Y-178569533D01*
X110136346Y-178701160D01*
X110136343Y-178701161D01*
X109944776Y-178864776D01*
X109781161Y-179056343D01*
X109781160Y-179056346D01*
X109649533Y-179271140D01*
X109553126Y-179503889D01*
X109494317Y-179748848D01*
X109474551Y-180000000D01*
X100400000Y-180000000D01*
X100400000Y-168067763D01*
X102145787Y-168067763D01*
X102175413Y-168337013D01*
X102175415Y-168337024D01*
X102222587Y-168517458D01*
X102243928Y-168599088D01*
X102349870Y-168848390D01*
X102484237Y-169068558D01*
X102490979Y-169079605D01*
X102490986Y-169079615D01*
X102664253Y-169287819D01*
X102664259Y-169287824D01*
X102865998Y-169468582D01*
X103091910Y-169618044D01*
X103337176Y-169733020D01*
X103337183Y-169733022D01*
X103337185Y-169733023D01*
X103596557Y-169811057D01*
X103596564Y-169811058D01*
X103596569Y-169811060D01*
X103864561Y-169850500D01*
X103864566Y-169850500D01*
X104067629Y-169850500D01*
X104067631Y-169850500D01*
X104067636Y-169850499D01*
X104067648Y-169850499D01*
X104105191Y-169847750D01*
X104270156Y-169835677D01*
X104382758Y-169810593D01*
X104534546Y-169776782D01*
X104534548Y-169776781D01*
X104534553Y-169776780D01*
X104787558Y-169680014D01*
X105023777Y-169547441D01*
X105238177Y-169381888D01*
X105426186Y-169186881D01*
X105583799Y-168966579D01*
X105688385Y-168763158D01*
X105707649Y-168725690D01*
X105707651Y-168725684D01*
X105707656Y-168725675D01*
X105795118Y-168469305D01*
X105844319Y-168202933D01*
X105854212Y-167932235D01*
X105824586Y-167662982D01*
X105756072Y-167400912D01*
X105650130Y-167151610D01*
X105509018Y-166920390D01*
X105419747Y-166813119D01*
X105335746Y-166712180D01*
X105335740Y-166712175D01*
X105134002Y-166531418D01*
X104908092Y-166381957D01*
X104908090Y-166381956D01*
X104662824Y-166266980D01*
X104662819Y-166266978D01*
X104662814Y-166266976D01*
X104403442Y-166188942D01*
X104403428Y-166188939D01*
X104287791Y-166171921D01*
X104135439Y-166149500D01*
X103932369Y-166149500D01*
X103932351Y-166149500D01*
X103729844Y-166164323D01*
X103729831Y-166164325D01*
X103465453Y-166223217D01*
X103465446Y-166223220D01*
X103212439Y-166319987D01*
X102976226Y-166452557D01*
X102761822Y-166618112D01*
X102573822Y-166813109D01*
X102573816Y-166813116D01*
X102416202Y-167033419D01*
X102416199Y-167033424D01*
X102292350Y-167274309D01*
X102292343Y-167274327D01*
X102204884Y-167530685D01*
X102204881Y-167530699D01*
X102155681Y-167797068D01*
X102155680Y-167797075D01*
X102145787Y-168067763D01*
X100400000Y-168067763D01*
X100400000Y-125666100D01*
X163532122Y-125666100D01*
X163551162Y-125822918D01*
X163607180Y-125970623D01*
X163696917Y-126100630D01*
X163815160Y-126205383D01*
X163815162Y-126205384D01*
X163955034Y-126278796D01*
X164108414Y-126316600D01*
X164108415Y-126316600D01*
X164266385Y-126316600D01*
X164419765Y-126278796D01*
X164559640Y-126205383D01*
X164677883Y-126100630D01*
X164767620Y-125970623D01*
X164823637Y-125822918D01*
X164840032Y-125687889D01*
X164867654Y-125623712D01*
X164875436Y-125615166D01*
X168402366Y-122088236D01*
X193216829Y-122088236D01*
X193227455Y-122144396D01*
X193228232Y-122148965D01*
X193236752Y-122205491D01*
X193239262Y-122213627D01*
X193242076Y-122221670D01*
X193268788Y-122272211D01*
X193270876Y-122276349D01*
X193295674Y-122327841D01*
X193300462Y-122334865D01*
X193305531Y-122341732D01*
X193305534Y-122341738D01*
X193305538Y-122341742D01*
X193345946Y-122382150D01*
X193349163Y-122385489D01*
X193388047Y-122427396D01*
X193395310Y-122433188D01*
X193394789Y-122433841D01*
X193407030Y-122443234D01*
X193728136Y-122764340D01*
X194019229Y-123055432D01*
X194052714Y-123116755D01*
X194047730Y-123186446D01*
X194023185Y-123226651D01*
X193952949Y-123303696D01*
X193840702Y-123484980D01*
X193840701Y-123484982D01*
X193763680Y-123683799D01*
X193763679Y-123683802D01*
X193724500Y-123893390D01*
X193724500Y-124106610D01*
X193763679Y-124316198D01*
X193840702Y-124515019D01*
X193952948Y-124696302D01*
X194011039Y-124760024D01*
X194096593Y-124853872D01*
X194266746Y-124982367D01*
X194457605Y-125077403D01*
X194457609Y-125077404D01*
X194457611Y-125077405D01*
X194463489Y-125079077D01*
X194522583Y-125116351D01*
X194552144Y-125179659D01*
X194549103Y-125220742D01*
X194550885Y-125221011D01*
X194549500Y-125230199D01*
X194549500Y-125233368D01*
X194546391Y-125260960D01*
X194545684Y-125264054D01*
X194547921Y-125293892D01*
X194533302Y-125362215D01*
X194484066Y-125411789D01*
X194462931Y-125420482D01*
X194462949Y-125420527D01*
X194460810Y-125421355D01*
X194458215Y-125422423D01*
X194457607Y-125422595D01*
X194457604Y-125422596D01*
X194266746Y-125517632D01*
X194096593Y-125646127D01*
X193952947Y-125803699D01*
X193840702Y-125984980D01*
X193840701Y-125984982D01*
X193763680Y-126183799D01*
X193763679Y-126183802D01*
X193724500Y-126393390D01*
X193724500Y-126606610D01*
X193763679Y-126816198D01*
X193840702Y-127015019D01*
X193952948Y-127196302D01*
X194096593Y-127353872D01*
X194266746Y-127482367D01*
X194457606Y-127577403D01*
X194457608Y-127577403D01*
X194457611Y-127577405D01*
X194662690Y-127635756D01*
X194821806Y-127650500D01*
X194821810Y-127650500D01*
X195178190Y-127650500D01*
X195178194Y-127650500D01*
X195337310Y-127635756D01*
X195542389Y-127577405D01*
X195542393Y-127577403D01*
X195542394Y-127577403D01*
X195733253Y-127482367D01*
X195733253Y-127482366D01*
X195733255Y-127482366D01*
X195903407Y-127353872D01*
X196047052Y-127196302D01*
X196159298Y-127015019D01*
X196236321Y-126816198D01*
X196275500Y-126606610D01*
X196275500Y-126393390D01*
X196236321Y-126183802D01*
X196159298Y-125984981D01*
X196047052Y-125803698D01*
X195976766Y-125726599D01*
X195946149Y-125663796D01*
X195954346Y-125594409D01*
X195980719Y-125555383D01*
X196640049Y-124896053D01*
X196650398Y-124886805D01*
X196678270Y-124864579D01*
X196710489Y-124817320D01*
X196713102Y-124813636D01*
X196747093Y-124767583D01*
X196747095Y-124767574D01*
X196751086Y-124760024D01*
X196754768Y-124752378D01*
X196754772Y-124752373D01*
X196771627Y-124697722D01*
X196773072Y-124693335D01*
X196791946Y-124639400D01*
X196791946Y-124639396D01*
X196793527Y-124631041D01*
X196794800Y-124622599D01*
X196794800Y-124565438D01*
X196794887Y-124560800D01*
X196797024Y-124503692D01*
X196795984Y-124494461D01*
X196796813Y-124494367D01*
X196794800Y-124479066D01*
X196794800Y-115078461D01*
X196795580Y-115064576D01*
X196799570Y-115029166D01*
X196799570Y-115029165D01*
X196788933Y-114972953D01*
X196788164Y-114968419D01*
X196779648Y-114911915D01*
X196779648Y-114911913D01*
X196779646Y-114911909D01*
X196777136Y-114903771D01*
X196774324Y-114895734D01*
X196774323Y-114895728D01*
X196747585Y-114845141D01*
X196745523Y-114841054D01*
X196720725Y-114789558D01*
X196720723Y-114789556D01*
X196720723Y-114789555D01*
X196715942Y-114782542D01*
X196710866Y-114775665D01*
X196710865Y-114775662D01*
X196670465Y-114735262D01*
X196667247Y-114731921D01*
X196628360Y-114690009D01*
X196621092Y-114684214D01*
X196621612Y-114683561D01*
X196609367Y-114674164D01*
X195644370Y-113709167D01*
X195610885Y-113647844D01*
X195615869Y-113578152D01*
X195657741Y-113522219D01*
X195676774Y-113510489D01*
X195733255Y-113482366D01*
X195903407Y-113353872D01*
X196047052Y-113196302D01*
X196159298Y-113015019D01*
X196236321Y-112816198D01*
X196275500Y-112606610D01*
X196275500Y-112393390D01*
X196236321Y-112183802D01*
X196159298Y-111984981D01*
X196047052Y-111803698D01*
X195903407Y-111646128D01*
X195866658Y-111618376D01*
X195733253Y-111517632D01*
X195542395Y-111422596D01*
X195536496Y-111420918D01*
X195477406Y-111383634D01*
X195447853Y-111320322D01*
X195450900Y-111279261D01*
X195449115Y-111278992D01*
X195450500Y-111269803D01*
X195450500Y-111266633D01*
X195453609Y-111239039D01*
X195454315Y-111235946D01*
X195452078Y-111206106D01*
X195466695Y-111137786D01*
X195515931Y-111088212D01*
X195537067Y-111079518D01*
X195537050Y-111079473D01*
X195539241Y-111078624D01*
X195541793Y-111077574D01*
X195542389Y-111077405D01*
X195733255Y-110982366D01*
X195903407Y-110853872D01*
X196047052Y-110696302D01*
X196159298Y-110515019D01*
X196236321Y-110316198D01*
X196275500Y-110106610D01*
X196275500Y-109893390D01*
X196236321Y-109683802D01*
X196159298Y-109484981D01*
X196047052Y-109303698D01*
X195903407Y-109146128D01*
X195903406Y-109146127D01*
X195733253Y-109017632D01*
X195542393Y-108922596D01*
X195354960Y-108869266D01*
X195295867Y-108831986D01*
X195266310Y-108768677D01*
X195275672Y-108699437D01*
X195320982Y-108646251D01*
X195354960Y-108630734D01*
X195542389Y-108577405D01*
X195542393Y-108577403D01*
X195542394Y-108577403D01*
X195733253Y-108482367D01*
X195733253Y-108482366D01*
X195733255Y-108482366D01*
X195903407Y-108353872D01*
X196047052Y-108196302D01*
X196159298Y-108015019D01*
X196236321Y-107816198D01*
X196275500Y-107606610D01*
X196275500Y-107393390D01*
X196236321Y-107183802D01*
X196159298Y-106984981D01*
X196047052Y-106803698D01*
X195903407Y-106646128D01*
X195903406Y-106646127D01*
X195733257Y-106517635D01*
X195733255Y-106517634D01*
X195667715Y-106484999D01*
X195616480Y-106437498D01*
X195599058Y-106369835D01*
X195620983Y-106303495D01*
X195675294Y-106259539D01*
X195722988Y-106250000D01*
X195790634Y-106250000D01*
X195790649Y-106249999D01*
X195827489Y-106247100D01*
X195827495Y-106247099D01*
X195985193Y-106201283D01*
X195985196Y-106201282D01*
X196126552Y-106117685D01*
X196126561Y-106117678D01*
X196242678Y-106001561D01*
X196242685Y-106001552D01*
X196326282Y-105860196D01*
X196326283Y-105860193D01*
X196372099Y-105702495D01*
X196372100Y-105702489D01*
X196374999Y-105665649D01*
X196375000Y-105665634D01*
X196375000Y-105300000D01*
X195371836Y-105300000D01*
X195436519Y-105199351D01*
X195475000Y-105068295D01*
X195475000Y-104931705D01*
X195436519Y-104800649D01*
X195371836Y-104700000D01*
X196375000Y-104700000D01*
X196375000Y-104334365D01*
X196374999Y-104334350D01*
X196372100Y-104297510D01*
X196372099Y-104297504D01*
X196326283Y-104139806D01*
X196326282Y-104139803D01*
X196242685Y-103998447D01*
X196242678Y-103998438D01*
X196126561Y-103882321D01*
X196126552Y-103882314D01*
X195985196Y-103798717D01*
X195985193Y-103798716D01*
X195827495Y-103752900D01*
X195827489Y-103752899D01*
X195790649Y-103750000D01*
X195300000Y-103750000D01*
X195300000Y-104631435D01*
X195259445Y-104596295D01*
X195135199Y-104539554D01*
X195033975Y-104525000D01*
X194966025Y-104525000D01*
X194864801Y-104539554D01*
X194740555Y-104596295D01*
X194700000Y-104631435D01*
X194700000Y-103750000D01*
X194209350Y-103750000D01*
X194172510Y-103752899D01*
X194172504Y-103752900D01*
X194014806Y-103798716D01*
X194014803Y-103798717D01*
X193873447Y-103882314D01*
X193873438Y-103882321D01*
X193757321Y-103998438D01*
X193757314Y-103998447D01*
X193673717Y-104139803D01*
X193673716Y-104139806D01*
X193627900Y-104297504D01*
X193627899Y-104297510D01*
X193625000Y-104334350D01*
X193625000Y-104700000D01*
X194628164Y-104700000D01*
X194563481Y-104800649D01*
X194525000Y-104931705D01*
X194525000Y-105068295D01*
X194563481Y-105199351D01*
X194628164Y-105300000D01*
X193625000Y-105300000D01*
X193625000Y-105665649D01*
X193627899Y-105702489D01*
X193627900Y-105702495D01*
X193673716Y-105860193D01*
X193673717Y-105860196D01*
X193757314Y-106001552D01*
X193757321Y-106001561D01*
X193873438Y-106117678D01*
X193873447Y-106117685D01*
X194014803Y-106201282D01*
X194014806Y-106201283D01*
X194172504Y-106247099D01*
X194172510Y-106247100D01*
X194209350Y-106249999D01*
X194209366Y-106250000D01*
X194277012Y-106250000D01*
X194344051Y-106269685D01*
X194389806Y-106322489D01*
X194399750Y-106391647D01*
X194370725Y-106455203D01*
X194332285Y-106484999D01*
X194293593Y-106504265D01*
X194266742Y-106517635D01*
X194096593Y-106646127D01*
X193952947Y-106803699D01*
X193840702Y-106984980D01*
X193840701Y-106984982D01*
X193763680Y-107183799D01*
X193763679Y-107183802D01*
X193724500Y-107393390D01*
X193724500Y-107606610D01*
X193763679Y-107816198D01*
X193840702Y-108015019D01*
X193952948Y-108196302D01*
X194096593Y-108353872D01*
X194266746Y-108482367D01*
X194457606Y-108577403D01*
X194457608Y-108577403D01*
X194457611Y-108577405D01*
X194591971Y-108615634D01*
X194645039Y-108630734D01*
X194704132Y-108668014D01*
X194733689Y-108731324D01*
X194724327Y-108800563D01*
X194679017Y-108853749D01*
X194645039Y-108869266D01*
X194457607Y-108922596D01*
X194457605Y-108922596D01*
X194266746Y-109017632D01*
X194096593Y-109146127D01*
X193952947Y-109303699D01*
X193840702Y-109484980D01*
X193840701Y-109484982D01*
X193763680Y-109683799D01*
X193763679Y-109683802D01*
X193724500Y-109893390D01*
X193724500Y-110106610D01*
X193763679Y-110316198D01*
X193763680Y-110316200D01*
X193840701Y-110515017D01*
X193840702Y-110515019D01*
X193952949Y-110696303D01*
X194049794Y-110802537D01*
X194080411Y-110865341D01*
X194072214Y-110934728D01*
X194045838Y-110973756D01*
X193376363Y-111643232D01*
X193365998Y-111652495D01*
X193338133Y-111674717D01*
X193338130Y-111674721D01*
X193305923Y-111721957D01*
X193303244Y-111725732D01*
X193269306Y-111771718D01*
X193265316Y-111779267D01*
X193261628Y-111786925D01*
X193244773Y-111841567D01*
X193243325Y-111845968D01*
X193224453Y-111899904D01*
X193222871Y-111908259D01*
X193221600Y-111916700D01*
X193221600Y-111973860D01*
X193221513Y-111978497D01*
X193219375Y-112035609D01*
X193220416Y-112044843D01*
X193219585Y-112044936D01*
X193221600Y-112060235D01*
X193221600Y-122038938D01*
X193220820Y-122052823D01*
X193216829Y-122088236D01*
X168402366Y-122088236D01*
X174482544Y-116008057D01*
X174492893Y-115998809D01*
X174520770Y-115976579D01*
X174552998Y-115929307D01*
X174555612Y-115925623D01*
X174589593Y-115879582D01*
X174589593Y-115879579D01*
X174589595Y-115879578D01*
X174593587Y-115872024D01*
X174597271Y-115864375D01*
X174614124Y-115809735D01*
X174615562Y-115805362D01*
X174634446Y-115751399D01*
X174634446Y-115751396D01*
X174636032Y-115743011D01*
X174637300Y-115734604D01*
X174637300Y-115677438D01*
X174637387Y-115672800D01*
X174639524Y-115615692D01*
X174638484Y-115606461D01*
X174639313Y-115606367D01*
X174637300Y-115591066D01*
X174637300Y-112448659D01*
X174656985Y-112381620D01*
X174672646Y-112363344D01*
X174672309Y-112363045D01*
X174677281Y-112357432D01*
X174677281Y-112357431D01*
X174677283Y-112357430D01*
X174767020Y-112227423D01*
X174823037Y-112079718D01*
X174842078Y-111922900D01*
X174839286Y-111899901D01*
X174823037Y-111766081D01*
X174778314Y-111648157D01*
X174767020Y-111618377D01*
X174677283Y-111488370D01*
X174559040Y-111383617D01*
X174559038Y-111383616D01*
X174559037Y-111383615D01*
X174419165Y-111310203D01*
X174265786Y-111272400D01*
X174265785Y-111272400D01*
X174107815Y-111272400D01*
X174107814Y-111272400D01*
X173954434Y-111310203D01*
X173814562Y-111383615D01*
X173696316Y-111488371D01*
X173606581Y-111618375D01*
X173606580Y-111618376D01*
X173550562Y-111766081D01*
X173531522Y-111922899D01*
X173531522Y-111922900D01*
X173550562Y-112079718D01*
X173606580Y-112227423D01*
X173606581Y-112227424D01*
X173696318Y-112357432D01*
X173701291Y-112363045D01*
X173699844Y-112364326D01*
X173731650Y-112415020D01*
X173736300Y-112448659D01*
X173736300Y-115428734D01*
X173716615Y-115495773D01*
X173699981Y-115516415D01*
X164237116Y-124979281D01*
X164175793Y-125012766D01*
X164149435Y-125015600D01*
X164108414Y-125015600D01*
X163955034Y-125053403D01*
X163815162Y-125126815D01*
X163815160Y-125126817D01*
X163709140Y-125220742D01*
X163696916Y-125231571D01*
X163607181Y-125361575D01*
X163607180Y-125361576D01*
X163551162Y-125509281D01*
X163532122Y-125666099D01*
X163532122Y-125666100D01*
X100400000Y-125666100D01*
X100400000Y-104067763D01*
X102145787Y-104067763D01*
X102175413Y-104337013D01*
X102175415Y-104337024D01*
X102243926Y-104599082D01*
X102243928Y-104599088D01*
X102349870Y-104848390D01*
X102400717Y-104931705D01*
X102490979Y-105079605D01*
X102490986Y-105079615D01*
X102664253Y-105287819D01*
X102664259Y-105287824D01*
X102769240Y-105381887D01*
X102865998Y-105468582D01*
X103091910Y-105618044D01*
X103337176Y-105733020D01*
X103337183Y-105733022D01*
X103337185Y-105733023D01*
X103596557Y-105811057D01*
X103596564Y-105811058D01*
X103596569Y-105811060D01*
X103864561Y-105850500D01*
X103864566Y-105850500D01*
X104067629Y-105850500D01*
X104067631Y-105850500D01*
X104067636Y-105850499D01*
X104067648Y-105850499D01*
X104105191Y-105847750D01*
X104270156Y-105835677D01*
X104382758Y-105810593D01*
X104534546Y-105776782D01*
X104534548Y-105776781D01*
X104534553Y-105776780D01*
X104787558Y-105680014D01*
X105023777Y-105547441D01*
X105238177Y-105381888D01*
X105426186Y-105186881D01*
X105583799Y-104966579D01*
X105669109Y-104800649D01*
X105707649Y-104725690D01*
X105707651Y-104725684D01*
X105707656Y-104725675D01*
X105795118Y-104469305D01*
X105844319Y-104202933D01*
X105849259Y-104067763D01*
X178145787Y-104067763D01*
X178175413Y-104337013D01*
X178175415Y-104337024D01*
X178243926Y-104599082D01*
X178243928Y-104599088D01*
X178349870Y-104848390D01*
X178400717Y-104931705D01*
X178490979Y-105079605D01*
X178490986Y-105079615D01*
X178664253Y-105287819D01*
X178664259Y-105287824D01*
X178769240Y-105381887D01*
X178865998Y-105468582D01*
X179091910Y-105618044D01*
X179337176Y-105733020D01*
X179337183Y-105733022D01*
X179337185Y-105733023D01*
X179596557Y-105811057D01*
X179596564Y-105811058D01*
X179596569Y-105811060D01*
X179864561Y-105850500D01*
X179864566Y-105850500D01*
X180067629Y-105850500D01*
X180067631Y-105850500D01*
X180067636Y-105850499D01*
X180067648Y-105850499D01*
X180105191Y-105847750D01*
X180270156Y-105835677D01*
X180382758Y-105810593D01*
X180534546Y-105776782D01*
X180534548Y-105776781D01*
X180534553Y-105776780D01*
X180787558Y-105680014D01*
X181023777Y-105547441D01*
X181238177Y-105381888D01*
X181426186Y-105186881D01*
X181583799Y-104966579D01*
X181669109Y-104800649D01*
X181707649Y-104725690D01*
X181707651Y-104725684D01*
X181707656Y-104725675D01*
X181795118Y-104469305D01*
X181844319Y-104202933D01*
X181854212Y-103932235D01*
X181824586Y-103662982D01*
X181756072Y-103400912D01*
X181650130Y-103151610D01*
X181509018Y-102920390D01*
X181419747Y-102813119D01*
X181335746Y-102712180D01*
X181335740Y-102712175D01*
X181134002Y-102531418D01*
X180908092Y-102381957D01*
X180908090Y-102381956D01*
X180662824Y-102266980D01*
X180662819Y-102266978D01*
X180662814Y-102266976D01*
X180403442Y-102188942D01*
X180403428Y-102188939D01*
X180287791Y-102171921D01*
X180135439Y-102149500D01*
X179932369Y-102149500D01*
X179932351Y-102149500D01*
X179729844Y-102164323D01*
X179729831Y-102164325D01*
X179465453Y-102223217D01*
X179465446Y-102223220D01*
X179212439Y-102319987D01*
X178976226Y-102452557D01*
X178761822Y-102618112D01*
X178573822Y-102813109D01*
X178573816Y-102813116D01*
X178416202Y-103033419D01*
X178416199Y-103033424D01*
X178292350Y-103274309D01*
X178292343Y-103274327D01*
X178204884Y-103530685D01*
X178204881Y-103530699D01*
X178155681Y-103797068D01*
X178155680Y-103797075D01*
X178145787Y-104067763D01*
X105849259Y-104067763D01*
X105854212Y-103932235D01*
X105824586Y-103662982D01*
X105756072Y-103400912D01*
X105650130Y-103151610D01*
X105509018Y-102920390D01*
X105419747Y-102813119D01*
X105335746Y-102712180D01*
X105335740Y-102712175D01*
X105134002Y-102531418D01*
X104908092Y-102381957D01*
X104908090Y-102381956D01*
X104662824Y-102266980D01*
X104662819Y-102266978D01*
X104662814Y-102266976D01*
X104403442Y-102188942D01*
X104403428Y-102188939D01*
X104287791Y-102171921D01*
X104135439Y-102149500D01*
X103932369Y-102149500D01*
X103932351Y-102149500D01*
X103729844Y-102164323D01*
X103729831Y-102164325D01*
X103465453Y-102223217D01*
X103465446Y-102223220D01*
X103212439Y-102319987D01*
X102976226Y-102452557D01*
X102761822Y-102618112D01*
X102573822Y-102813109D01*
X102573816Y-102813116D01*
X102416202Y-103033419D01*
X102416199Y-103033424D01*
X102292350Y-103274309D01*
X102292343Y-103274327D01*
X102204884Y-103530685D01*
X102204881Y-103530699D01*
X102155681Y-103797068D01*
X102155680Y-103797075D01*
X102145787Y-104067763D01*
X100400000Y-104067763D01*
X100400000Y-100524000D01*
X100419685Y-100456961D01*
X100472489Y-100411206D01*
X100524000Y-100400000D01*
X199476000Y-100400000D01*
X199543039Y-100419685D01*
G37*
%TD.AperFunction*%
%TA.AperFunction,Conductor*%
G36*
X140089594Y-168237111D02*
G01*
X140110905Y-168241094D01*
X140220947Y-168261665D01*
X140242937Y-168267921D01*
X140367557Y-168316198D01*
X140388030Y-168326393D01*
X140501639Y-168396736D01*
X140519892Y-168410521D01*
X140618648Y-168500550D01*
X140634062Y-168517458D01*
X140714583Y-168624083D01*
X140726629Y-168643538D01*
X140786191Y-168763155D01*
X140786193Y-168763158D01*
X140794458Y-168784494D01*
X140831025Y-168913011D01*
X140835230Y-168935504D01*
X140842332Y-169012149D01*
X140844135Y-169027408D01*
X140845916Y-169039793D01*
X140845917Y-169039797D01*
X140848078Y-169046524D01*
X140850604Y-169113338D01*
X140842334Y-169147850D01*
X140842332Y-169147860D01*
X140835230Y-169224496D01*
X140831025Y-169246988D01*
X140794458Y-169375504D01*
X140786193Y-169396840D01*
X140726632Y-169516456D01*
X140714586Y-169535910D01*
X140634061Y-169642540D01*
X140618648Y-169659448D01*
X140596091Y-169680012D01*
X140519893Y-169749476D01*
X140501634Y-169763265D01*
X140388035Y-169833602D01*
X140367551Y-169843802D01*
X140242949Y-169892072D01*
X140220943Y-169898333D01*
X140089595Y-169922888D01*
X140066808Y-169925000D01*
X139933191Y-169925000D01*
X139910406Y-169922889D01*
X139779061Y-169898336D01*
X139757052Y-169892074D01*
X139632445Y-169843801D01*
X139611962Y-169833601D01*
X139498364Y-169763265D01*
X139480110Y-169749480D01*
X139381347Y-169659445D01*
X139365936Y-169642539D01*
X139285413Y-169535912D01*
X139273366Y-169516456D01*
X139273365Y-169516453D01*
X139213806Y-169396844D01*
X139205542Y-169375511D01*
X139205540Y-169375504D01*
X139168970Y-169246976D01*
X139164768Y-169224495D01*
X139152439Y-169091438D01*
X139152439Y-169068557D01*
X139155105Y-169039793D01*
X139164769Y-168935500D01*
X139168974Y-168913009D01*
X139187360Y-168848389D01*
X139205542Y-168784486D01*
X139213804Y-168763158D01*
X139273365Y-168643540D01*
X139285408Y-168624090D01*
X139365943Y-168517447D01*
X139381343Y-168500555D01*
X139480105Y-168410521D01*
X139498348Y-168396744D01*
X139611972Y-168326391D01*
X139632442Y-168316198D01*
X139757057Y-168267922D01*
X139779051Y-168261664D01*
X139879810Y-168242830D01*
X139910406Y-168237111D01*
X139933190Y-168235000D01*
X140066810Y-168235000D01*
X140089594Y-168237111D01*
G37*
%TD.AperFunction*%
%TA.AperFunction,Conductor*%
G36*
X142629594Y-168237111D02*
G01*
X142650905Y-168241094D01*
X142760947Y-168261665D01*
X142782937Y-168267921D01*
X142907557Y-168316198D01*
X142928030Y-168326393D01*
X143041639Y-168396736D01*
X143059892Y-168410521D01*
X143158648Y-168500550D01*
X143174062Y-168517458D01*
X143254583Y-168624083D01*
X143266629Y-168643538D01*
X143326191Y-168763155D01*
X143326193Y-168763158D01*
X143334458Y-168784494D01*
X143371025Y-168913011D01*
X143375230Y-168935504D01*
X143382332Y-169012149D01*
X143384135Y-169027408D01*
X143385916Y-169039793D01*
X143385917Y-169039797D01*
X143388078Y-169046524D01*
X143390604Y-169113338D01*
X143382334Y-169147850D01*
X143382332Y-169147860D01*
X143375230Y-169224496D01*
X143371025Y-169246988D01*
X143334458Y-169375504D01*
X143326193Y-169396840D01*
X143266632Y-169516456D01*
X143254586Y-169535910D01*
X143174061Y-169642540D01*
X143158648Y-169659448D01*
X143136091Y-169680012D01*
X143059893Y-169749476D01*
X143041634Y-169763265D01*
X142928035Y-169833602D01*
X142907551Y-169843802D01*
X142782949Y-169892072D01*
X142760943Y-169898333D01*
X142629595Y-169922888D01*
X142606808Y-169925000D01*
X142473191Y-169925000D01*
X142450406Y-169922889D01*
X142319061Y-169898336D01*
X142297052Y-169892074D01*
X142172445Y-169843801D01*
X142151962Y-169833601D01*
X142038364Y-169763265D01*
X142020110Y-169749480D01*
X141921347Y-169659445D01*
X141905936Y-169642539D01*
X141825413Y-169535912D01*
X141813366Y-169516456D01*
X141813365Y-169516453D01*
X141753806Y-169396844D01*
X141745542Y-169375511D01*
X141745540Y-169375504D01*
X141708970Y-169246976D01*
X141704768Y-169224494D01*
X141697668Y-169147861D01*
X141695862Y-169132573D01*
X141694084Y-169120206D01*
X141691921Y-169113475D01*
X141689396Y-169046656D01*
X141697667Y-169012143D01*
X141697667Y-169012141D01*
X141697668Y-169012138D01*
X141704769Y-168935492D01*
X141708970Y-168913022D01*
X141745543Y-168784482D01*
X141753804Y-168763158D01*
X141813365Y-168643540D01*
X141825408Y-168624090D01*
X141905943Y-168517447D01*
X141921343Y-168500555D01*
X142020105Y-168410521D01*
X142038348Y-168396744D01*
X142151972Y-168326391D01*
X142172442Y-168316198D01*
X142297057Y-168267922D01*
X142319051Y-168261664D01*
X142419810Y-168242830D01*
X142450406Y-168237111D01*
X142473190Y-168235000D01*
X142606810Y-168235000D01*
X142629594Y-168237111D01*
G37*
%TD.AperFunction*%
%TA.AperFunction,Conductor*%
G36*
X145169594Y-168237111D02*
G01*
X145190905Y-168241094D01*
X145300947Y-168261665D01*
X145322937Y-168267921D01*
X145447557Y-168316198D01*
X145468030Y-168326393D01*
X145581639Y-168396736D01*
X145599892Y-168410521D01*
X145698648Y-168500550D01*
X145714062Y-168517458D01*
X145794583Y-168624083D01*
X145806629Y-168643538D01*
X145866191Y-168763155D01*
X145866193Y-168763158D01*
X145874458Y-168784494D01*
X145911025Y-168913011D01*
X145915230Y-168935504D01*
X145922332Y-169012149D01*
X145924135Y-169027408D01*
X145925916Y-169039793D01*
X145925917Y-169039797D01*
X145928078Y-169046524D01*
X145930604Y-169113338D01*
X145922334Y-169147850D01*
X145922332Y-169147860D01*
X145915230Y-169224496D01*
X145911025Y-169246988D01*
X145874458Y-169375504D01*
X145866193Y-169396840D01*
X145806632Y-169516456D01*
X145794586Y-169535910D01*
X145714061Y-169642540D01*
X145698648Y-169659448D01*
X145676091Y-169680012D01*
X145599893Y-169749476D01*
X145581634Y-169763265D01*
X145468035Y-169833602D01*
X145447551Y-169843802D01*
X145322949Y-169892072D01*
X145300943Y-169898333D01*
X145169595Y-169922888D01*
X145146808Y-169925000D01*
X145013191Y-169925000D01*
X144990406Y-169922889D01*
X144859061Y-169898336D01*
X144837052Y-169892074D01*
X144712445Y-169843801D01*
X144691962Y-169833601D01*
X144578364Y-169763265D01*
X144560110Y-169749480D01*
X144461347Y-169659445D01*
X144445936Y-169642539D01*
X144365413Y-169535912D01*
X144353366Y-169516456D01*
X144353365Y-169516453D01*
X144293806Y-169396844D01*
X144285542Y-169375511D01*
X144285540Y-169375504D01*
X144248970Y-169246976D01*
X144244768Y-169224494D01*
X144237668Y-169147861D01*
X144235862Y-169132573D01*
X144234084Y-169120206D01*
X144231921Y-169113475D01*
X144229396Y-169046656D01*
X144237667Y-169012143D01*
X144237667Y-169012141D01*
X144237668Y-169012138D01*
X144244769Y-168935492D01*
X144248970Y-168913022D01*
X144285543Y-168784482D01*
X144293804Y-168763158D01*
X144353365Y-168643540D01*
X144365408Y-168624090D01*
X144445943Y-168517447D01*
X144461343Y-168500555D01*
X144560105Y-168410521D01*
X144578348Y-168396744D01*
X144691972Y-168326391D01*
X144712442Y-168316198D01*
X144837057Y-168267922D01*
X144859051Y-168261664D01*
X144959810Y-168242830D01*
X144990406Y-168237111D01*
X145013190Y-168235000D01*
X145146810Y-168235000D01*
X145169594Y-168237111D01*
G37*
%TD.AperFunction*%
%TA.AperFunction,Conductor*%
G36*
X147709594Y-168237111D02*
G01*
X147730905Y-168241094D01*
X147840947Y-168261665D01*
X147862937Y-168267921D01*
X147987557Y-168316198D01*
X148008030Y-168326393D01*
X148121639Y-168396736D01*
X148139892Y-168410521D01*
X148238648Y-168500550D01*
X148254062Y-168517458D01*
X148334583Y-168624083D01*
X148346629Y-168643538D01*
X148406191Y-168763155D01*
X148406193Y-168763158D01*
X148414458Y-168784494D01*
X148451025Y-168913012D01*
X148455230Y-168935506D01*
X148467559Y-169068558D01*
X148467559Y-169091440D01*
X148455230Y-169224495D01*
X148451025Y-169246989D01*
X148414458Y-169375504D01*
X148406193Y-169396840D01*
X148346632Y-169516456D01*
X148334586Y-169535910D01*
X148254061Y-169642540D01*
X148238648Y-169659448D01*
X148216091Y-169680012D01*
X148139893Y-169749476D01*
X148121634Y-169763265D01*
X148008035Y-169833602D01*
X147987551Y-169843802D01*
X147862949Y-169892072D01*
X147840943Y-169898333D01*
X147709595Y-169922888D01*
X147686808Y-169925000D01*
X147553191Y-169925000D01*
X147530406Y-169922889D01*
X147399061Y-169898336D01*
X147377052Y-169892074D01*
X147252445Y-169843801D01*
X147231962Y-169833601D01*
X147118364Y-169763265D01*
X147100110Y-169749480D01*
X147001347Y-169659445D01*
X146985936Y-169642539D01*
X146905413Y-169535912D01*
X146893366Y-169516456D01*
X146893365Y-169516453D01*
X146833806Y-169396844D01*
X146825542Y-169375511D01*
X146825540Y-169375504D01*
X146788970Y-169246976D01*
X146784768Y-169224494D01*
X146777668Y-169147861D01*
X146775862Y-169132573D01*
X146774084Y-169120206D01*
X146771921Y-169113475D01*
X146769396Y-169046656D01*
X146777667Y-169012143D01*
X146777667Y-169012141D01*
X146777668Y-169012138D01*
X146784769Y-168935492D01*
X146788970Y-168913022D01*
X146825543Y-168784482D01*
X146833804Y-168763158D01*
X146893365Y-168643540D01*
X146905408Y-168624090D01*
X146985943Y-168517447D01*
X147001343Y-168500555D01*
X147100105Y-168410521D01*
X147118348Y-168396744D01*
X147231972Y-168326391D01*
X147252442Y-168316198D01*
X147377057Y-168267922D01*
X147399051Y-168261664D01*
X147499810Y-168242830D01*
X147530406Y-168237111D01*
X147553190Y-168235000D01*
X147686810Y-168235000D01*
X147709594Y-168237111D01*
G37*
%TD.AperFunction*%
%TA.AperFunction,Conductor*%
G36*
X152789594Y-168237111D02*
G01*
X152810905Y-168241094D01*
X152920947Y-168261665D01*
X152942937Y-168267921D01*
X153067557Y-168316198D01*
X153088030Y-168326393D01*
X153201639Y-168396736D01*
X153219892Y-168410521D01*
X153318648Y-168500550D01*
X153334062Y-168517458D01*
X153414583Y-168624083D01*
X153426629Y-168643538D01*
X153486191Y-168763155D01*
X153486193Y-168763158D01*
X153494458Y-168784494D01*
X153531025Y-168913011D01*
X153535230Y-168935504D01*
X153542332Y-169012149D01*
X153544135Y-169027408D01*
X153545916Y-169039793D01*
X153545917Y-169039797D01*
X153548078Y-169046524D01*
X153550604Y-169113338D01*
X153542334Y-169147850D01*
X153542332Y-169147860D01*
X153535230Y-169224496D01*
X153531025Y-169246988D01*
X153494458Y-169375504D01*
X153486193Y-169396840D01*
X153426632Y-169516456D01*
X153414586Y-169535910D01*
X153334061Y-169642540D01*
X153318648Y-169659448D01*
X153296091Y-169680012D01*
X153219893Y-169749476D01*
X153201634Y-169763265D01*
X153088035Y-169833602D01*
X153067551Y-169843802D01*
X152942949Y-169892072D01*
X152920943Y-169898333D01*
X152789595Y-169922888D01*
X152766808Y-169925000D01*
X152633191Y-169925000D01*
X152610406Y-169922889D01*
X152479061Y-169898336D01*
X152457052Y-169892074D01*
X152332445Y-169843801D01*
X152311962Y-169833601D01*
X152198364Y-169763265D01*
X152180110Y-169749480D01*
X152081347Y-169659445D01*
X152065936Y-169642539D01*
X151985413Y-169535912D01*
X151973366Y-169516456D01*
X151973365Y-169516453D01*
X151913806Y-169396844D01*
X151905542Y-169375511D01*
X151905540Y-169375504D01*
X151868970Y-169246976D01*
X151864768Y-169224495D01*
X151852439Y-169091438D01*
X151852439Y-169068557D01*
X151855105Y-169039793D01*
X151864769Y-168935500D01*
X151868974Y-168913009D01*
X151887360Y-168848389D01*
X151905542Y-168784486D01*
X151913804Y-168763158D01*
X151973365Y-168643540D01*
X151985408Y-168624090D01*
X152065943Y-168517447D01*
X152081343Y-168500555D01*
X152180105Y-168410521D01*
X152198348Y-168396744D01*
X152311972Y-168326391D01*
X152332442Y-168316198D01*
X152457057Y-168267922D01*
X152479051Y-168261664D01*
X152579810Y-168242830D01*
X152610406Y-168237111D01*
X152633190Y-168235000D01*
X152766810Y-168235000D01*
X152789594Y-168237111D01*
G37*
%TD.AperFunction*%
%TA.AperFunction,Conductor*%
G36*
X155329594Y-168237111D02*
G01*
X155350905Y-168241094D01*
X155460947Y-168261665D01*
X155482937Y-168267921D01*
X155607557Y-168316198D01*
X155628030Y-168326393D01*
X155741639Y-168396736D01*
X155759892Y-168410521D01*
X155858648Y-168500550D01*
X155874062Y-168517458D01*
X155954583Y-168624083D01*
X155966629Y-168643538D01*
X156026191Y-168763155D01*
X156026193Y-168763158D01*
X156034458Y-168784494D01*
X156071025Y-168913011D01*
X156075230Y-168935504D01*
X156082332Y-169012149D01*
X156084135Y-169027408D01*
X156085916Y-169039793D01*
X156085917Y-169039797D01*
X156088078Y-169046524D01*
X156090604Y-169113338D01*
X156082334Y-169147850D01*
X156082332Y-169147860D01*
X156075230Y-169224496D01*
X156071025Y-169246988D01*
X156034458Y-169375504D01*
X156026193Y-169396840D01*
X155966632Y-169516456D01*
X155954586Y-169535910D01*
X155874061Y-169642540D01*
X155858648Y-169659448D01*
X155836091Y-169680012D01*
X155759893Y-169749476D01*
X155741634Y-169763265D01*
X155628035Y-169833602D01*
X155607551Y-169843802D01*
X155482949Y-169892072D01*
X155460943Y-169898333D01*
X155329595Y-169922888D01*
X155306808Y-169925000D01*
X155173191Y-169925000D01*
X155150406Y-169922889D01*
X155019061Y-169898336D01*
X154997052Y-169892074D01*
X154872445Y-169843801D01*
X154851962Y-169833601D01*
X154738364Y-169763265D01*
X154720110Y-169749480D01*
X154621347Y-169659445D01*
X154605936Y-169642539D01*
X154525413Y-169535912D01*
X154513366Y-169516456D01*
X154513365Y-169516453D01*
X154453806Y-169396844D01*
X154445542Y-169375511D01*
X154445540Y-169375504D01*
X154408970Y-169246976D01*
X154404768Y-169224494D01*
X154397668Y-169147861D01*
X154395862Y-169132573D01*
X154394084Y-169120206D01*
X154391921Y-169113475D01*
X154389396Y-169046656D01*
X154397667Y-169012143D01*
X154397667Y-169012141D01*
X154397668Y-169012138D01*
X154404769Y-168935492D01*
X154408970Y-168913022D01*
X154445543Y-168784482D01*
X154453804Y-168763158D01*
X154513365Y-168643540D01*
X154525408Y-168624090D01*
X154605943Y-168517447D01*
X154621343Y-168500555D01*
X154720105Y-168410521D01*
X154738348Y-168396744D01*
X154851972Y-168326391D01*
X154872442Y-168316198D01*
X154997057Y-168267922D01*
X155019051Y-168261664D01*
X155119810Y-168242830D01*
X155150406Y-168237111D01*
X155173190Y-168235000D01*
X155306810Y-168235000D01*
X155329594Y-168237111D01*
G37*
%TD.AperFunction*%
%TA.AperFunction,Conductor*%
G36*
X157869594Y-168237111D02*
G01*
X157890905Y-168241094D01*
X158000947Y-168261665D01*
X158022937Y-168267921D01*
X158147557Y-168316198D01*
X158168030Y-168326393D01*
X158281639Y-168396736D01*
X158299892Y-168410521D01*
X158398648Y-168500550D01*
X158414062Y-168517458D01*
X158494583Y-168624083D01*
X158506629Y-168643538D01*
X158566191Y-168763155D01*
X158566193Y-168763158D01*
X158574458Y-168784494D01*
X158611025Y-168913011D01*
X158615230Y-168935504D01*
X158622332Y-169012149D01*
X158624135Y-169027408D01*
X158625916Y-169039793D01*
X158625917Y-169039797D01*
X158628078Y-169046524D01*
X158630604Y-169113338D01*
X158622334Y-169147850D01*
X158622332Y-169147860D01*
X158615230Y-169224496D01*
X158611025Y-169246988D01*
X158574458Y-169375504D01*
X158566193Y-169396840D01*
X158506632Y-169516456D01*
X158494586Y-169535910D01*
X158414061Y-169642540D01*
X158398648Y-169659448D01*
X158376091Y-169680012D01*
X158299893Y-169749476D01*
X158281634Y-169763265D01*
X158168035Y-169833602D01*
X158147551Y-169843802D01*
X158022949Y-169892072D01*
X158000943Y-169898333D01*
X157869595Y-169922888D01*
X157846808Y-169925000D01*
X157713191Y-169925000D01*
X157690406Y-169922889D01*
X157559061Y-169898336D01*
X157537052Y-169892074D01*
X157412445Y-169843801D01*
X157391962Y-169833601D01*
X157278364Y-169763265D01*
X157260110Y-169749480D01*
X157161347Y-169659445D01*
X157145936Y-169642539D01*
X157065413Y-169535912D01*
X157053366Y-169516456D01*
X157053365Y-169516453D01*
X156993806Y-169396844D01*
X156985542Y-169375511D01*
X156985540Y-169375504D01*
X156948970Y-169246976D01*
X156944768Y-169224494D01*
X156937668Y-169147861D01*
X156935862Y-169132573D01*
X156934084Y-169120206D01*
X156931921Y-169113475D01*
X156929396Y-169046656D01*
X156937667Y-169012143D01*
X156937667Y-169012141D01*
X156937668Y-169012138D01*
X156944769Y-168935492D01*
X156948970Y-168913022D01*
X156985543Y-168784482D01*
X156993804Y-168763158D01*
X157053365Y-168643540D01*
X157065408Y-168624090D01*
X157145943Y-168517447D01*
X157161343Y-168500555D01*
X157260105Y-168410521D01*
X157278348Y-168396744D01*
X157391972Y-168326391D01*
X157412442Y-168316198D01*
X157537057Y-168267922D01*
X157559051Y-168261664D01*
X157659810Y-168242830D01*
X157690406Y-168237111D01*
X157713190Y-168235000D01*
X157846810Y-168235000D01*
X157869594Y-168237111D01*
G37*
%TD.AperFunction*%
%TA.AperFunction,Conductor*%
G36*
X160409594Y-168237111D02*
G01*
X160430905Y-168241094D01*
X160540947Y-168261665D01*
X160562937Y-168267921D01*
X160687557Y-168316198D01*
X160708030Y-168326393D01*
X160821639Y-168396736D01*
X160839892Y-168410521D01*
X160938648Y-168500550D01*
X160954062Y-168517458D01*
X161034583Y-168624083D01*
X161046629Y-168643538D01*
X161106191Y-168763155D01*
X161106193Y-168763158D01*
X161114458Y-168784494D01*
X161151025Y-168913012D01*
X161155230Y-168935506D01*
X161167559Y-169068558D01*
X161167559Y-169091440D01*
X161155230Y-169224495D01*
X161151025Y-169246989D01*
X161114458Y-169375504D01*
X161106193Y-169396840D01*
X161046632Y-169516456D01*
X161034586Y-169535910D01*
X160954061Y-169642540D01*
X160938648Y-169659448D01*
X160916091Y-169680012D01*
X160839893Y-169749476D01*
X160821634Y-169763265D01*
X160708035Y-169833602D01*
X160687551Y-169843802D01*
X160562949Y-169892072D01*
X160540943Y-169898333D01*
X160409595Y-169922888D01*
X160386808Y-169925000D01*
X160253191Y-169925000D01*
X160230406Y-169922889D01*
X160099061Y-169898336D01*
X160077052Y-169892074D01*
X159952445Y-169843801D01*
X159931962Y-169833601D01*
X159818364Y-169763265D01*
X159800110Y-169749480D01*
X159701347Y-169659445D01*
X159685936Y-169642539D01*
X159605413Y-169535912D01*
X159593366Y-169516456D01*
X159593365Y-169516453D01*
X159533806Y-169396844D01*
X159525542Y-169375511D01*
X159525540Y-169375504D01*
X159488970Y-169246976D01*
X159484768Y-169224494D01*
X159477668Y-169147861D01*
X159475862Y-169132573D01*
X159474084Y-169120206D01*
X159471921Y-169113475D01*
X159469396Y-169046656D01*
X159477667Y-169012143D01*
X159477667Y-169012141D01*
X159477668Y-169012138D01*
X159484769Y-168935492D01*
X159488970Y-168913022D01*
X159525543Y-168784482D01*
X159533804Y-168763158D01*
X159593365Y-168643540D01*
X159605408Y-168624090D01*
X159685943Y-168517447D01*
X159701343Y-168500555D01*
X159800105Y-168410521D01*
X159818348Y-168396744D01*
X159931972Y-168326391D01*
X159952442Y-168316198D01*
X160077057Y-168267922D01*
X160099051Y-168261664D01*
X160199810Y-168242830D01*
X160230406Y-168237111D01*
X160253190Y-168235000D01*
X160386810Y-168235000D01*
X160409594Y-168237111D01*
G37*
%TD.AperFunction*%
%TA.AperFunction,Conductor*%
G36*
X165489594Y-168237111D02*
G01*
X165510905Y-168241094D01*
X165620947Y-168261665D01*
X165642937Y-168267921D01*
X165767557Y-168316198D01*
X165788030Y-168326393D01*
X165901639Y-168396736D01*
X165919892Y-168410521D01*
X166018648Y-168500550D01*
X166034062Y-168517458D01*
X166114583Y-168624083D01*
X166126629Y-168643538D01*
X166186191Y-168763155D01*
X166186193Y-168763158D01*
X166194458Y-168784494D01*
X166231025Y-168913011D01*
X166235230Y-168935504D01*
X166242332Y-169012149D01*
X166244135Y-169027408D01*
X166245916Y-169039793D01*
X166245917Y-169039797D01*
X166248078Y-169046524D01*
X166250604Y-169113338D01*
X166242334Y-169147850D01*
X166242332Y-169147860D01*
X166235230Y-169224496D01*
X166231025Y-169246988D01*
X166194458Y-169375504D01*
X166186193Y-169396840D01*
X166126632Y-169516456D01*
X166114586Y-169535910D01*
X166034061Y-169642540D01*
X166018648Y-169659448D01*
X165996091Y-169680012D01*
X165919893Y-169749476D01*
X165901634Y-169763265D01*
X165788035Y-169833602D01*
X165767551Y-169843802D01*
X165642949Y-169892072D01*
X165620943Y-169898333D01*
X165489595Y-169922888D01*
X165466808Y-169925000D01*
X165333191Y-169925000D01*
X165310406Y-169922889D01*
X165179061Y-169898336D01*
X165157052Y-169892074D01*
X165032445Y-169843801D01*
X165011962Y-169833601D01*
X164898364Y-169763265D01*
X164880110Y-169749480D01*
X164781347Y-169659445D01*
X164765936Y-169642539D01*
X164685413Y-169535912D01*
X164673366Y-169516456D01*
X164673365Y-169516453D01*
X164613806Y-169396844D01*
X164605542Y-169375511D01*
X164605540Y-169375504D01*
X164568970Y-169246976D01*
X164564768Y-169224495D01*
X164552439Y-169091438D01*
X164552439Y-169068557D01*
X164555105Y-169039793D01*
X164564769Y-168935500D01*
X164568974Y-168913009D01*
X164587360Y-168848389D01*
X164605542Y-168784486D01*
X164613804Y-168763158D01*
X164673365Y-168643540D01*
X164685408Y-168624090D01*
X164765943Y-168517447D01*
X164781343Y-168500555D01*
X164880105Y-168410521D01*
X164898348Y-168396744D01*
X165011972Y-168326391D01*
X165032442Y-168316198D01*
X165157057Y-168267922D01*
X165179051Y-168261664D01*
X165279810Y-168242830D01*
X165310406Y-168237111D01*
X165333190Y-168235000D01*
X165466810Y-168235000D01*
X165489594Y-168237111D01*
G37*
%TD.AperFunction*%
%TA.AperFunction,Conductor*%
G36*
X168029594Y-168237111D02*
G01*
X168050905Y-168241094D01*
X168160947Y-168261665D01*
X168182937Y-168267921D01*
X168307557Y-168316198D01*
X168328030Y-168326393D01*
X168441639Y-168396736D01*
X168459892Y-168410521D01*
X168558648Y-168500550D01*
X168574062Y-168517458D01*
X168654583Y-168624083D01*
X168666629Y-168643538D01*
X168726191Y-168763155D01*
X168726193Y-168763158D01*
X168734458Y-168784494D01*
X168771025Y-168913011D01*
X168775230Y-168935504D01*
X168782332Y-169012149D01*
X168784135Y-169027408D01*
X168785916Y-169039793D01*
X168785917Y-169039797D01*
X168788078Y-169046524D01*
X168790604Y-169113338D01*
X168782334Y-169147850D01*
X168782332Y-169147860D01*
X168775230Y-169224496D01*
X168771025Y-169246988D01*
X168734458Y-169375504D01*
X168726193Y-169396840D01*
X168666632Y-169516456D01*
X168654586Y-169535910D01*
X168574061Y-169642540D01*
X168558648Y-169659448D01*
X168536091Y-169680012D01*
X168459893Y-169749476D01*
X168441634Y-169763265D01*
X168328035Y-169833602D01*
X168307551Y-169843802D01*
X168182949Y-169892072D01*
X168160943Y-169898333D01*
X168029595Y-169922888D01*
X168006808Y-169925000D01*
X167873191Y-169925000D01*
X167850406Y-169922889D01*
X167719061Y-169898336D01*
X167697052Y-169892074D01*
X167572445Y-169843801D01*
X167551962Y-169833601D01*
X167438364Y-169763265D01*
X167420110Y-169749480D01*
X167321347Y-169659445D01*
X167305936Y-169642539D01*
X167225413Y-169535912D01*
X167213366Y-169516456D01*
X167213365Y-169516453D01*
X167153806Y-169396844D01*
X167145542Y-169375511D01*
X167145540Y-169375504D01*
X167108970Y-169246976D01*
X167104768Y-169224494D01*
X167097668Y-169147861D01*
X167095862Y-169132573D01*
X167094084Y-169120206D01*
X167091921Y-169113475D01*
X167089396Y-169046656D01*
X167097667Y-169012143D01*
X167097667Y-169012141D01*
X167097668Y-169012138D01*
X167104769Y-168935492D01*
X167108970Y-168913022D01*
X167145543Y-168784482D01*
X167153804Y-168763158D01*
X167213365Y-168643540D01*
X167225408Y-168624090D01*
X167305943Y-168517447D01*
X167321343Y-168500555D01*
X167420105Y-168410521D01*
X167438348Y-168396744D01*
X167551972Y-168326391D01*
X167572442Y-168316198D01*
X167697057Y-168267922D01*
X167719051Y-168261664D01*
X167819810Y-168242830D01*
X167850406Y-168237111D01*
X167873190Y-168235000D01*
X168006810Y-168235000D01*
X168029594Y-168237111D01*
G37*
%TD.AperFunction*%
%TA.AperFunction,Conductor*%
G36*
X170569594Y-168237111D02*
G01*
X170590905Y-168241094D01*
X170700947Y-168261665D01*
X170722937Y-168267921D01*
X170847557Y-168316198D01*
X170868030Y-168326393D01*
X170981639Y-168396736D01*
X170999892Y-168410521D01*
X171098648Y-168500550D01*
X171114062Y-168517458D01*
X171194583Y-168624083D01*
X171206629Y-168643538D01*
X171266191Y-168763155D01*
X171266193Y-168763158D01*
X171274458Y-168784494D01*
X171311025Y-168913011D01*
X171315230Y-168935504D01*
X171322332Y-169012149D01*
X171324135Y-169027408D01*
X171325916Y-169039793D01*
X171325917Y-169039797D01*
X171328078Y-169046524D01*
X171330604Y-169113338D01*
X171322334Y-169147850D01*
X171322332Y-169147860D01*
X171315230Y-169224496D01*
X171311025Y-169246988D01*
X171274458Y-169375504D01*
X171266193Y-169396840D01*
X171206632Y-169516456D01*
X171194586Y-169535910D01*
X171114061Y-169642540D01*
X171098648Y-169659448D01*
X171076091Y-169680012D01*
X170999893Y-169749476D01*
X170981634Y-169763265D01*
X170868035Y-169833602D01*
X170847551Y-169843802D01*
X170722949Y-169892072D01*
X170700943Y-169898333D01*
X170569595Y-169922888D01*
X170546808Y-169925000D01*
X170413191Y-169925000D01*
X170390406Y-169922889D01*
X170259061Y-169898336D01*
X170237052Y-169892074D01*
X170112445Y-169843801D01*
X170091962Y-169833601D01*
X169978364Y-169763265D01*
X169960110Y-169749480D01*
X169861347Y-169659445D01*
X169845936Y-169642539D01*
X169765413Y-169535912D01*
X169753366Y-169516456D01*
X169753365Y-169516453D01*
X169693806Y-169396844D01*
X169685542Y-169375511D01*
X169685540Y-169375504D01*
X169648970Y-169246976D01*
X169644768Y-169224494D01*
X169637668Y-169147861D01*
X169635862Y-169132573D01*
X169634084Y-169120206D01*
X169631921Y-169113475D01*
X169629396Y-169046656D01*
X169637667Y-169012143D01*
X169637667Y-169012141D01*
X169637668Y-169012138D01*
X169644769Y-168935492D01*
X169648970Y-168913022D01*
X169685543Y-168784482D01*
X169693804Y-168763158D01*
X169753365Y-168643540D01*
X169765408Y-168624090D01*
X169845943Y-168517447D01*
X169861343Y-168500555D01*
X169960105Y-168410521D01*
X169978348Y-168396744D01*
X170091972Y-168326391D01*
X170112442Y-168316198D01*
X170237057Y-168267922D01*
X170259051Y-168261664D01*
X170359810Y-168242830D01*
X170390406Y-168237111D01*
X170413190Y-168235000D01*
X170546810Y-168235000D01*
X170569594Y-168237111D01*
G37*
%TD.AperFunction*%
%TA.AperFunction,Conductor*%
G36*
X173109594Y-168237111D02*
G01*
X173130905Y-168241094D01*
X173240947Y-168261665D01*
X173262937Y-168267921D01*
X173387557Y-168316198D01*
X173408030Y-168326393D01*
X173521639Y-168396736D01*
X173539892Y-168410521D01*
X173638648Y-168500550D01*
X173654062Y-168517458D01*
X173734583Y-168624083D01*
X173746629Y-168643538D01*
X173806191Y-168763155D01*
X173806193Y-168763158D01*
X173814458Y-168784494D01*
X173851025Y-168913012D01*
X173855230Y-168935506D01*
X173867559Y-169068558D01*
X173867559Y-169091440D01*
X173855230Y-169224495D01*
X173851025Y-169246989D01*
X173814458Y-169375504D01*
X173806193Y-169396840D01*
X173746632Y-169516456D01*
X173734586Y-169535910D01*
X173654061Y-169642540D01*
X173638648Y-169659448D01*
X173616091Y-169680012D01*
X173539893Y-169749476D01*
X173521634Y-169763265D01*
X173408035Y-169833602D01*
X173387551Y-169843802D01*
X173262949Y-169892072D01*
X173240943Y-169898333D01*
X173109595Y-169922888D01*
X173086808Y-169925000D01*
X172953191Y-169925000D01*
X172930406Y-169922889D01*
X172799061Y-169898336D01*
X172777052Y-169892074D01*
X172652445Y-169843801D01*
X172631962Y-169833601D01*
X172518364Y-169763265D01*
X172500110Y-169749480D01*
X172401347Y-169659445D01*
X172385936Y-169642539D01*
X172305413Y-169535912D01*
X172293366Y-169516456D01*
X172293365Y-169516453D01*
X172233806Y-169396844D01*
X172225542Y-169375511D01*
X172225540Y-169375504D01*
X172188970Y-169246976D01*
X172184768Y-169224494D01*
X172177668Y-169147861D01*
X172175862Y-169132573D01*
X172174084Y-169120206D01*
X172171921Y-169113475D01*
X172169396Y-169046656D01*
X172177667Y-169012143D01*
X172177667Y-169012141D01*
X172177668Y-169012138D01*
X172184769Y-168935492D01*
X172188970Y-168913022D01*
X172225543Y-168784482D01*
X172233804Y-168763158D01*
X172293365Y-168643540D01*
X172305408Y-168624090D01*
X172385943Y-168517447D01*
X172401343Y-168500555D01*
X172500105Y-168410521D01*
X172518348Y-168396744D01*
X172631972Y-168326391D01*
X172652442Y-168316198D01*
X172777057Y-168267922D01*
X172799051Y-168261664D01*
X172899810Y-168242830D01*
X172930406Y-168237111D01*
X172953190Y-168235000D01*
X173086810Y-168235000D01*
X173109594Y-168237111D01*
G37*
%TD.AperFunction*%
%TA.AperFunction,Conductor*%
G36*
X178189594Y-168237111D02*
G01*
X178210905Y-168241094D01*
X178320947Y-168261665D01*
X178342937Y-168267921D01*
X178467557Y-168316198D01*
X178488030Y-168326393D01*
X178601639Y-168396736D01*
X178619892Y-168410521D01*
X178718648Y-168500550D01*
X178734062Y-168517458D01*
X178814583Y-168624083D01*
X178826629Y-168643538D01*
X178886191Y-168763155D01*
X178886193Y-168763158D01*
X178894458Y-168784494D01*
X178931025Y-168913011D01*
X178935230Y-168935504D01*
X178942332Y-169012149D01*
X178944135Y-169027408D01*
X178945916Y-169039793D01*
X178945917Y-169039797D01*
X178948078Y-169046524D01*
X178950604Y-169113338D01*
X178942334Y-169147850D01*
X178942332Y-169147860D01*
X178935230Y-169224496D01*
X178931025Y-169246988D01*
X178894458Y-169375504D01*
X178886193Y-169396840D01*
X178826632Y-169516456D01*
X178814586Y-169535910D01*
X178734061Y-169642540D01*
X178718648Y-169659448D01*
X178696091Y-169680012D01*
X178619893Y-169749476D01*
X178601634Y-169763265D01*
X178488035Y-169833602D01*
X178467551Y-169843802D01*
X178342949Y-169892072D01*
X178320943Y-169898333D01*
X178189595Y-169922888D01*
X178166808Y-169925000D01*
X178033191Y-169925000D01*
X178010406Y-169922889D01*
X177879061Y-169898336D01*
X177857052Y-169892074D01*
X177732445Y-169843801D01*
X177711962Y-169833601D01*
X177598364Y-169763265D01*
X177580110Y-169749480D01*
X177481347Y-169659445D01*
X177465936Y-169642539D01*
X177385413Y-169535912D01*
X177373366Y-169516456D01*
X177373365Y-169516453D01*
X177313806Y-169396844D01*
X177305542Y-169375511D01*
X177305540Y-169375504D01*
X177268970Y-169246976D01*
X177264768Y-169224495D01*
X177252439Y-169091438D01*
X177252439Y-169068557D01*
X177255105Y-169039793D01*
X177264769Y-168935500D01*
X177268974Y-168913009D01*
X177287360Y-168848389D01*
X177305542Y-168784486D01*
X177313804Y-168763158D01*
X177373365Y-168643540D01*
X177385408Y-168624090D01*
X177465943Y-168517447D01*
X177481343Y-168500555D01*
X177580105Y-168410521D01*
X177598348Y-168396744D01*
X177711972Y-168326391D01*
X177732442Y-168316198D01*
X177857057Y-168267922D01*
X177879051Y-168261664D01*
X177979810Y-168242830D01*
X178010406Y-168237111D01*
X178033190Y-168235000D01*
X178166810Y-168235000D01*
X178189594Y-168237111D01*
G37*
%TD.AperFunction*%
%TA.AperFunction,Conductor*%
G36*
X180729594Y-168237111D02*
G01*
X180750905Y-168241094D01*
X180860947Y-168261665D01*
X180882937Y-168267921D01*
X181007557Y-168316198D01*
X181028030Y-168326393D01*
X181141639Y-168396736D01*
X181159892Y-168410521D01*
X181258648Y-168500550D01*
X181274062Y-168517458D01*
X181354583Y-168624083D01*
X181366629Y-168643538D01*
X181426191Y-168763155D01*
X181426193Y-168763158D01*
X181434458Y-168784494D01*
X181471025Y-168913011D01*
X181475230Y-168935504D01*
X181482332Y-169012149D01*
X181484135Y-169027408D01*
X181485916Y-169039793D01*
X181485917Y-169039797D01*
X181488078Y-169046524D01*
X181490604Y-169113338D01*
X181482334Y-169147850D01*
X181482332Y-169147860D01*
X181475230Y-169224496D01*
X181471025Y-169246988D01*
X181434458Y-169375504D01*
X181426193Y-169396840D01*
X181366632Y-169516456D01*
X181354586Y-169535910D01*
X181274061Y-169642540D01*
X181258648Y-169659448D01*
X181236091Y-169680012D01*
X181159893Y-169749476D01*
X181141634Y-169763265D01*
X181028035Y-169833602D01*
X181007551Y-169843802D01*
X180882949Y-169892072D01*
X180860943Y-169898333D01*
X180729595Y-169922888D01*
X180706808Y-169925000D01*
X180573191Y-169925000D01*
X180550406Y-169922889D01*
X180419061Y-169898336D01*
X180397052Y-169892074D01*
X180272445Y-169843801D01*
X180251962Y-169833601D01*
X180138364Y-169763265D01*
X180120110Y-169749480D01*
X180021347Y-169659445D01*
X180005936Y-169642539D01*
X179925413Y-169535912D01*
X179913366Y-169516456D01*
X179913365Y-169516453D01*
X179853806Y-169396844D01*
X179845542Y-169375511D01*
X179845540Y-169375504D01*
X179808970Y-169246976D01*
X179804768Y-169224494D01*
X179797668Y-169147861D01*
X179795862Y-169132573D01*
X179794084Y-169120206D01*
X179791921Y-169113475D01*
X179789396Y-169046656D01*
X179797667Y-169012143D01*
X179797667Y-169012141D01*
X179797668Y-169012138D01*
X179804769Y-168935492D01*
X179808970Y-168913022D01*
X179845543Y-168784482D01*
X179853804Y-168763158D01*
X179913365Y-168643540D01*
X179925408Y-168624090D01*
X180005943Y-168517447D01*
X180021343Y-168500555D01*
X180120105Y-168410521D01*
X180138348Y-168396744D01*
X180251972Y-168326391D01*
X180272442Y-168316198D01*
X180397057Y-168267922D01*
X180419051Y-168261664D01*
X180519810Y-168242830D01*
X180550406Y-168237111D01*
X180573190Y-168235000D01*
X180706810Y-168235000D01*
X180729594Y-168237111D01*
G37*
%TD.AperFunction*%
%TA.AperFunction,Conductor*%
G36*
X183269594Y-168237111D02*
G01*
X183290905Y-168241094D01*
X183400947Y-168261665D01*
X183422937Y-168267921D01*
X183547557Y-168316198D01*
X183568030Y-168326393D01*
X183681639Y-168396736D01*
X183699892Y-168410521D01*
X183798648Y-168500550D01*
X183814062Y-168517458D01*
X183894583Y-168624083D01*
X183906629Y-168643538D01*
X183966191Y-168763155D01*
X183966193Y-168763158D01*
X183974458Y-168784494D01*
X184011025Y-168913011D01*
X184015230Y-168935504D01*
X184022332Y-169012149D01*
X184024135Y-169027408D01*
X184025916Y-169039793D01*
X184025917Y-169039797D01*
X184028078Y-169046524D01*
X184030604Y-169113338D01*
X184022334Y-169147850D01*
X184022332Y-169147860D01*
X184015230Y-169224496D01*
X184011025Y-169246988D01*
X183974458Y-169375504D01*
X183966193Y-169396840D01*
X183906632Y-169516456D01*
X183894586Y-169535910D01*
X183814061Y-169642540D01*
X183798648Y-169659448D01*
X183776091Y-169680012D01*
X183699893Y-169749476D01*
X183681634Y-169763265D01*
X183568035Y-169833602D01*
X183547551Y-169843802D01*
X183422949Y-169892072D01*
X183400943Y-169898333D01*
X183269595Y-169922888D01*
X183246808Y-169925000D01*
X183113191Y-169925000D01*
X183090406Y-169922889D01*
X182959061Y-169898336D01*
X182937052Y-169892074D01*
X182812445Y-169843801D01*
X182791962Y-169833601D01*
X182678364Y-169763265D01*
X182660110Y-169749480D01*
X182561347Y-169659445D01*
X182545936Y-169642539D01*
X182465413Y-169535912D01*
X182453366Y-169516456D01*
X182453365Y-169516453D01*
X182393806Y-169396844D01*
X182385542Y-169375511D01*
X182385540Y-169375504D01*
X182348970Y-169246976D01*
X182344768Y-169224494D01*
X182337668Y-169147861D01*
X182335862Y-169132573D01*
X182334084Y-169120206D01*
X182331921Y-169113475D01*
X182329396Y-169046656D01*
X182337667Y-169012143D01*
X182337667Y-169012141D01*
X182337668Y-169012138D01*
X182344769Y-168935492D01*
X182348970Y-168913022D01*
X182385543Y-168784482D01*
X182393804Y-168763158D01*
X182453365Y-168643540D01*
X182465408Y-168624090D01*
X182545943Y-168517447D01*
X182561343Y-168500555D01*
X182660105Y-168410521D01*
X182678348Y-168396744D01*
X182791972Y-168326391D01*
X182812442Y-168316198D01*
X182937057Y-168267922D01*
X182959051Y-168261664D01*
X183059810Y-168242830D01*
X183090406Y-168237111D01*
X183113190Y-168235000D01*
X183246810Y-168235000D01*
X183269594Y-168237111D01*
G37*
%TD.AperFunction*%
%TA.AperFunction,Conductor*%
G36*
X185809594Y-168237111D02*
G01*
X185830905Y-168241094D01*
X185940947Y-168261665D01*
X185962937Y-168267921D01*
X186087557Y-168316198D01*
X186108030Y-168326393D01*
X186221639Y-168396736D01*
X186239892Y-168410521D01*
X186338648Y-168500550D01*
X186354062Y-168517458D01*
X186434583Y-168624083D01*
X186446629Y-168643538D01*
X186506191Y-168763155D01*
X186506193Y-168763158D01*
X186514458Y-168784494D01*
X186551025Y-168913012D01*
X186555230Y-168935503D01*
X186563746Y-169027408D01*
X186567560Y-169068557D01*
X186567560Y-169091438D01*
X186564894Y-169120206D01*
X186555230Y-169224496D01*
X186551025Y-169246989D01*
X186514458Y-169375504D01*
X186506193Y-169396840D01*
X186446632Y-169516456D01*
X186434586Y-169535910D01*
X186354061Y-169642540D01*
X186338648Y-169659448D01*
X186316091Y-169680012D01*
X186239893Y-169749476D01*
X186221634Y-169763265D01*
X186108035Y-169833602D01*
X186087551Y-169843802D01*
X185962949Y-169892072D01*
X185940943Y-169898333D01*
X185809595Y-169922888D01*
X185786808Y-169925000D01*
X185653191Y-169925000D01*
X185630406Y-169922889D01*
X185499061Y-169898336D01*
X185477052Y-169892074D01*
X185352445Y-169843801D01*
X185331962Y-169833601D01*
X185218364Y-169763265D01*
X185200110Y-169749480D01*
X185101347Y-169659445D01*
X185085936Y-169642539D01*
X185005413Y-169535912D01*
X184993366Y-169516456D01*
X184993365Y-169516453D01*
X184933806Y-169396844D01*
X184925542Y-169375511D01*
X184925540Y-169375504D01*
X184888970Y-169246976D01*
X184884768Y-169224494D01*
X184877668Y-169147861D01*
X184875862Y-169132573D01*
X184874084Y-169120206D01*
X184871921Y-169113475D01*
X184869396Y-169046656D01*
X184877667Y-169012143D01*
X184877667Y-169012141D01*
X184877668Y-169012138D01*
X184884769Y-168935492D01*
X184888970Y-168913022D01*
X184925543Y-168784482D01*
X184933804Y-168763158D01*
X184993365Y-168643540D01*
X185005408Y-168624090D01*
X185085943Y-168517447D01*
X185101343Y-168500555D01*
X185200105Y-168410521D01*
X185218348Y-168396744D01*
X185331972Y-168326391D01*
X185352442Y-168316198D01*
X185477057Y-168267922D01*
X185499051Y-168261664D01*
X185599810Y-168242830D01*
X185630406Y-168237111D01*
X185653190Y-168235000D01*
X185786810Y-168235000D01*
X185809594Y-168237111D01*
G37*
%TD.AperFunction*%
%TD*%
M02*
