%TF.GenerationSoftware,KiCad,Pcbnew,7.0.11+dfsg-1build4*%
%TF.CreationDate,2026-10-07T20:12:22+00:00*%
%TF.ProjectId,carte_servos,63617274-655f-4736-9572-766f732e6b69,rev?*%
%TF.SameCoordinates,Original*%
%TF.FileFunction,Legend,Bot*%
%TF.FilePolarity,Positive*%
%FSLAX46Y46*%
G04 Gerber Fmt 4.6, Leading zero omitted, Abs format (unit mm)*
G04 Created by KiCad (PCBNEW 7.0.11+dfsg-1build4) date 2026-10-07 20:12:22*
%MOMM*%
%LPD*%
G01*
G04 APERTURE LIST*
G04 Aperture macros list*
%AMRoundRect*
0 Rectangle with rounded corners*
0 $1 Rounding radius*
0 $2 $3 $4 $5 $6 $7 $8 $9 X,Y pos of 4 corners*
0 Add a 4 corners polygon primitive as box body*
4,1,4,$2,$3,$4,$5,$6,$7,$8,$9,$2,$3,0*
0 Add four circle primitives for the rounded corners*
1,1,$1+$1,$2,$3*
1,1,$1+$1,$4,$5*
1,1,$1+$1,$6,$7*
1,1,$1+$1,$8,$9*
0 Add four rect primitives between the rounded corners*
20,1,$1+$1,$2,$3,$4,$5,0*
20,1,$1+$1,$4,$5,$6,$7,0*
20,1,$1+$1,$6,$7,$8,$9,0*
20,1,$1+$1,$8,$9,$2,$3,0*%
G04 Aperture macros list end*
%ADD10R,1.700000X1.700000*%
%ADD11O,1.700000X1.700000*%
%ADD12C,3.200000*%
%ADD13RoundRect,0.250000X-0.600000X-0.725000X0.600000X-0.725000X0.600000X0.725000X-0.600000X0.725000X0*%
%ADD14O,1.700000X1.950000*%
%ADD15RoundRect,0.250000X-0.725000X0.600000X-0.725000X-0.600000X0.725000X-0.600000X0.725000X0.600000X0*%
%ADD16O,1.950000X1.700000*%
%ADD17R,2.600000X2.600000*%
%ADD18C,2.600000*%
%ADD19C,2.400000*%
%ADD20C,2.200000*%
%ADD21R,2.000000X2.000000*%
%ADD22C,2.000000*%
G04 APERTURE END LIST*
%LPC*%
D10*
%TO.C,J11*%
X152700000Y-164000000D03*
D11*
X152700000Y-166540000D03*
X152700000Y-169080000D03*
X155240000Y-164000000D03*
X155240000Y-166540000D03*
X155240000Y-169080000D03*
X157780000Y-164000000D03*
X157780000Y-166540000D03*
X157780000Y-169080000D03*
X160320000Y-164000000D03*
X160320000Y-166540000D03*
X160320000Y-169080000D03*
%TD*%
D10*
%TO.C,J10*%
X140000000Y-164000000D03*
D11*
X140000000Y-166540000D03*
X140000000Y-169080000D03*
X142540000Y-164000000D03*
X142540000Y-166540000D03*
X142540000Y-169080000D03*
X145080000Y-164000000D03*
X145080000Y-166540000D03*
X145080000Y-169080000D03*
X147620000Y-164000000D03*
X147620000Y-166540000D03*
X147620000Y-169080000D03*
%TD*%
D12*
%TO.C,H1*%
X104000000Y-104000000D03*
%TD*%
D10*
%TO.C,J13*%
X178100000Y-164000000D03*
D11*
X178100000Y-166540000D03*
X178100000Y-169080000D03*
X180640000Y-164000000D03*
X180640000Y-166540000D03*
X180640000Y-169080000D03*
X183180000Y-164000000D03*
X183180000Y-166540000D03*
X183180000Y-169080000D03*
X185720000Y-164000000D03*
X185720000Y-166540000D03*
X185720000Y-169080000D03*
%TD*%
D12*
%TO.C,H3*%
X104000000Y-168000000D03*
%TD*%
D13*
%TO.C,J4*%
X164000000Y-191500000D03*
D14*
X166500000Y-191500000D03*
X169000000Y-191500000D03*
X171500000Y-191500000D03*
%TD*%
D15*
%TO.C,J2*%
X195000000Y-105000000D03*
D16*
X195000000Y-107500000D03*
X195000000Y-110000000D03*
X195000000Y-112500000D03*
%TD*%
D17*
%TO.C,J1*%
X106000000Y-180000000D03*
D18*
X111080000Y-180000000D03*
%TD*%
D19*
%TO.C,F1*%
X126400000Y-180250000D03*
D20*
X120000000Y-179000000D03*
X120000000Y-181500000D03*
X123500000Y-179000000D03*
X123500000Y-181500000D03*
X129300000Y-179000000D03*
X129300000Y-181500000D03*
X132800000Y-179000000D03*
X132800000Y-181500000D03*
%TD*%
D21*
%TO.C,C4*%
X178000000Y-180500000D03*
D22*
X183000000Y-180500000D03*
%TD*%
D12*
%TO.C,H2*%
X180000000Y-104000000D03*
%TD*%
%TO.C,H4*%
X195500000Y-191500000D03*
%TD*%
D15*
%TO.C,J3*%
X195000000Y-119000000D03*
D16*
X195000000Y-121500000D03*
X195000000Y-124000000D03*
X195000000Y-126500000D03*
%TD*%
D13*
%TO.C,J5*%
X180000000Y-191500000D03*
D14*
X182500000Y-191500000D03*
X185000000Y-191500000D03*
X187500000Y-191500000D03*
%TD*%
D10*
%TO.C,J12*%
X165400000Y-164000000D03*
D11*
X165400000Y-166540000D03*
X165400000Y-169080000D03*
X167940000Y-164000000D03*
X167940000Y-166540000D03*
X167940000Y-169080000D03*
X170480000Y-164000000D03*
X170480000Y-166540000D03*
X170480000Y-169080000D03*
X173020000Y-164000000D03*
X173020000Y-166540000D03*
X173020000Y-169080000D03*
%TD*%
%LPD*%
M02*
